<?xml version="1.0" encoding="UTF-8" standalone="no"?>
<!-- Created with Inkscape (http://www.inkscape.org/) -->

<svg
   xmlns:dc="http://purl.org/dc/elements/1.1/"
   xmlns:cc="http://creativecommons.org/ns#"
   xmlns:rdf="http://www.w3.org/1999/02/22-rdf-syntax-ns#"
   xmlns:svg="http://www.w3.org/2000/svg"
   xmlns="http://www.w3.org/2000/svg"
   xmlns:sodipodi="http://sodipodi.sourceforge.net/DTD/sodipodi-0.dtd"
   xmlns:inkscape="http://www.inkscape.org/namespaces/inkscape"
   id="svg3105"
   version="1.1"
   inkscape:version="0.48.5 r10040"
   width="100%"
   height="100%"
   viewBox="0 0 460 460"
   sodipodi:docname="45-1.svg">
  <metadata
     id="metadata3111">
    <rdf:RDF>
      <cc:Work
         rdf:about="">
        <dc:format>image/svg+xml</dc:format>
        <dc:type
           rdf:resource="http://purl.org/dc/dcmitype/StillImage" />
        <dc:title />
      </cc:Work>
    </rdf:RDF>
  </metadata>
  <defs
     id="defs3109">
    <filter
       color-interpolation-filters="sRGB"
       x="-0.1"
       y="0"
       width="1.2"
       height="1"
       id="green">
      <feFlood
         flood-color="#008000"
         id="feFlood6"
         result="result1" />
      <feComposite
         in="SourceGraphic"
         id="feComposite8"
         in2="result1" />
    </filter>
    <filter
       color-interpolation-filters="sRGB"
       x="-0.1"
       y="0"
       width="1.2"
       height="1"
       id="orange">
      <feFlood
         flood-color="#ff7f2a"
         id="feFlood11"
         result="result1" />
      <feComposite
         in="SourceGraphic"
         id="feComposite13"
         in2="result1" />
    </filter>
  </defs>
  <sodipodi:namedview
     pagecolor="#ffffff"
     bordercolor="#666666"
     borderopacity="1"
     objecttolerance="10"
     gridtolerance="10"
     guidetolerance="10"
     inkscape:pageopacity="0"
     inkscape:pageshadow="2"
     inkscape:window-width="1920"
     inkscape:window-height="1018"
     id="namedview3107"
     showgrid="false"
     inkscape:zoom="1.8391304"
     inkscape:cx="230"
     inkscape:cy="230"
     inkscape:window-x="-8"
     inkscape:window-y="-8"
     inkscape:window-maximized="1"
     inkscape:current-layer="svg3105" />
  <g
     id="g45"
     transform="translate(1097.2339,37.26641)"
     style="fill:#e6e6e6">
    <path
       style="fill:#e6e6e6"
       d="m -813.42188,346.17602 c 2.68044,-3.62549 2.36773,-8.59671 -0.55053,-8.75185 -1.1,-0.0585 -2.79089,-0.44543 -3.75753,-0.85988 -0.96664,-0.41446 -3.25012,-0.47354 -5.0744,-0.13131 -2.82564,0.5301 -3.51093,0.25965 -4.62719,-1.82611 -1.19008,-2.22368 -1.01494,-2.82133 1.90843,-6.51237 5.49221,-4.13302 5.47491,-2.57851 13.10465,-4.91629 9.11553,-2.69484 15.09547,-2.40469 22.89931,-4.36717 5.48991,-1.46534 9.92684,-1.47489 10.16549,6.09889 0.21292,6.75709 0.65324,9.00591 3.25535,9.00591 1.38986,0 -0.37693,3.1385 0.14209,6.21054 0.75731,4.48247 -0.37209,6.55711 -3.01705,5.54215 -1.23612,-0.47435 -1.55765,-1.66621 -1.31722,-4.88279 0.304,-4.067 -3.79852,-4.24332 -6.31731,-3.98538 -2.87313,0.29423 -4.70832,-2.32618 -2.8974,-4.1371 1.75014,-1.75014 5.14527,-4.4623 2.84176,-5.19341 -1.69083,-0.53665 -2.83229,0.0223 -5,2.44839 -3.45892,3.8712 -3.50427,5.14702 -0.28255,7.94827 2.11816,1.84172 2.34755,2.53093 1.4195,4.26499 -2.19125,4.09439 -11.74678,6.28932 -15.95071,3.66392 -1.69411,-1.05799 -2.20208,-0.91462 -3.54313,1 -0.86103,1.22928 -2.45345,2.23506 -3.53873,2.23506 -1.93228,0 -1.92943,-0.0593 0.13717,-2.85446 z"
       id="path4505"
       inkscape:connector-curvature="0"
       sodipodi:nodetypes="scssscccsssssssssssssss"
       onclick="changeMap('4505-1.svg','4505')"
       onmouseover="changeColorOver('path4505')"
       onmouseout="changeColorOut('path4505')" />
    <path
       style="fill:#e6e6e6"
       d="m -881.06398,294.17476 c -4.33095,3.68883 -1.65862,4.44525 -17.42869,7.85627 -5.14681,1.11324 -3.80914,6.91564 -6.52888,10.07716 -3.18153,4.76729 -4.05564,10.45589 -3.97823,15.95431 -0.24013,3.71144 -3.04147,7.86809 -3.93772,10.15625 7.87104,1.14136 15.51722,-6.07482 23.09375,-2.6875 3.48641,2.70316 6.3544,8.54398 11.625,5.34375 4.04474,-2.06758 7.90086,-5.326 12.09375,-6.53125 1.84547,-5.34884 8.69077,-2.43593 12.5625,-3.5625 5.68674,1.36992 10.4469,-8.12808 4.82435,-10.58879 -3.33061,-1.17532 -9.5704,-0.90524 -13.31556,-1.69377 -5.559,-1.17044 -6.70768,0.28174 -7.84587,-5.96788 -0.86307,-4.73894 2.14927,-11.93316 4.15839,-15.33317 -2.25286,-2.69767 -8.27246,-4.808 -10.51389,-7.95612 -0.42321,-0.17081 -4.41715,4.59957 -4.8089,4.93324 z"
       id="path4506"
       onclick="changeMap('4506-1.svg','4506')"
       onmouseover="changeColorOver('path4506')"
       onmouseout="changeColorOut('path4506')"
       inkscape:connector-curvature="0"
       sodipodi:nodetypes="ssccccccccssccs" />
    <path
       style="fill:#e6e6e6"
       d="m -788.62072,265.72383 c 0.11997,3.20922 -2.29876,4.82639 -4.5331,5.18483 -2.23435,0.35844 -4.95191,0.49172 -7.20955,0.44479 -4.09246,0.69709 -4.26636,4.24365 -6.71357,6.59182 -5.30948,0.52077 -10.38321,0.11147 -15.79095,0.46853 -5.28199,0.34877 -10.78466,-0.1889 -16.00338,2.07907 -5.58826,2.42857 -11.88765,5.07266 -12.67723,9.74832 -1.67131,6.01662 -10.11737,5.29665 -13.44439,6.89395 -3.27897,4.7212 -6.13918,13.89034 -3.10086,19.55236 6.4882,3.14228 14.89695,0.2311 20.90625,4.0625 4.85252,4.5229 5.83182,12.59553 11.34375,16.21875 4.65773,0.36041 6.54487,-5.43263 8.19592,-7.43595 2.02201,-2.45343 2.72729,-2.92656 5.65755,-4.627 7.6067,-1.77152 10.75295,-2.91309 16.7756,-3.74744 8.49376,-1.1767 17.24696,-4.08568 22.9435,-3.22823 -1.68515,-4.04158 -5.42371,-5.1497 -5.17888,-13.48639 0.11539,-3.92908 0.96575,-6.51587 2.40836,-7.7104 2.48363,-2.05655 6.28595,-4.35412 9.85171,-2.45619 4.1362,2.20156 5.37615,-4.21746 5.54457,-7.76896 0.20936,-4.41464 -1.81674,-12.52295 -6.41161,-11.19573 -1.31609,0.38015 -2.64749,-0.32202 -3.67104,-1.29342 -1.02356,-0.97139 -1.85894,-3.11932 -1.94532,-3.3807 -2.98136,-1.18751 -5.75461,-4.29548 -6.94733,-4.91455 z"
       id="path4507"
       onclick="changeMap('4507-1.svg','4507')"
       onmouseover="changeColorOver('path4507')"
       onmouseout="changeColorOut('path4507')"
       inkscape:connector-curvature="0"
       sodipodi:nodetypes="csccsscccccscscssssssccc" />
    <path
       style="fill:#e6e6e6"
       d="m -932.76266,228.1875 c -5.43774,2.29546 -6.01558,1.94579 -11.92484,2 -3.97329,0.0365 -6.15144,4.4992 -10,6.34375 -4.51866,2.16571 1.61219,8.43039 -2.4375,11.40625 -2.53845,2.33314 -5.33356,7.41464 -1.3125,9.46875 3.02397,1.01206 7.22642,4.88953 3.03125,7.09375 -3.15161,3.20574 -3.00144,9.83535 -6.71621,11.7725 -4.49833,-1.22424 -7.8007,2.86463 -7.31504,7.1025 0.15459,7.76542 8.31579,12.49741 8.3125,20.375 1.15947,3.58757 -0.83016,10.71003 4.6875,10.21875 5.49649,0.51233 11.74227,0.59875 15.8125,4.9375 -1.44136,4.06028 1.34938,7.95554 5.28125,8.78125 3.98112,3.20899 10.05331,1.89764 12.84375,6.375 4.81941,3.82594 13.31067,0.34066 12.875,-6.1875 0.0375,-6.17991 1.31028,-12.13621 4.89203,-17.45905 1.7005,-2.5271 1.12802,-6.45148 3.6935,-7.72371 6.743,-3.34387 13.58505,-1.83106 18.85649,-8.03599 1.10123,-1.29625 4.37642,-4.8299 5.3954,-5.56276 -0.99954,-1.98242 -2.85661,-4.48505 -3.15389,-7.15995 -0.38116,-3.42975 -2.12815,-3.80893 3.04888,-8.67858 3.29444,-3.09884 -1.8733,-6.3203 -3.5141,-8.26703 -5.61286,-6.6594 -9.31162,-7.84826 -13.64633,-10.66325 -2.77361,-1.80119 -5.99781,-4.02938 -9.24978,-1.39131 -4.78923,3.88512 -4.119,3.50893 -7.41456,4.38199 -0.5259,-4.80217 -1.36407,-6.29743 -3.72243,-9.10195 -3.34361,-3.97618 -5.08153,-5.85746 -7.23647,-10.56771 -2.15494,-4.71025 -4.21714,-8.88511 -4.87891,-10.71972 -2.54071,0.049 -4.46325,0.52521 -6.20749,1.26152 z"
       id="path4514"
       onclick="changeMap('4514-1.svg','4514')"
       onmouseover="changeColorOver('path4514')"
       onmouseout="changeColorOut('path4514')"
       inkscape:connector-curvature="0"
       sodipodi:nodetypes="ssscccccccccccssscssssscsscs" />
    <path
       style="fill:#e6e6e6"
       d="m -741.29945,178.22833 c -1.18495,1.50079 -2.93612,1.1966 -3.9632,3.40748 -0.45568,0.98088 -1.20653,8.36593 -5.36966,9.70247 -6.81792,2.18884 -16.3655,8.47988 -18.65706,17.46104 -0.82873,3.24796 -1.77597,5.74591 -3.50998,7.04864 -2.86713,2.15402 -3.04636,2.74203 -6.01315,4.65204 -5.22694,3.36509 -9.67105,4.46871 -12.13685,9.41143 -3.33369,-3.64781 -8.29465,-5.6362 -12.87737,-6.2931 -2.98649,-0.4281 -6.0185,5.38285 -8.09598,5.70555 0.98103,3.14333 2.71746,6.35354 3.4227,8.67612 2.89453,7.49687 21.60759,31.49129 26.58951,32.29576 3.97653,-3.66041 4.92018,-9.66585 5.56593,-14.02544 0.58514,-3.95045 0.0895,-7.82567 4.50081,-9.42657 5.59881,-3.13988 10.02722,2.82725 14.5,5.09375 8.03667,3.05291 7.92412,4.25133 9.28125,1.25 2.12204,-6.38399 2.35121,-5.27048 8.25,-8.15625 2.32835,-1.13906 5.6441,-2.67071 7.75947,-3.61996 1.61537,-1.69924 3.09169,-5.06771 4.51236,-6.84213 1.13559,-1.41835 3.01702,-3.26728 3.30594,-4.36887 -0.80482,-1.08597 -1.81312,-1.95347 -2.36817,-2.37707 -3.42158,-3.07934 -2.81275,-4.5375 -1.30335,-7.54197 1.63987,-6.57118 -1.2092,-13.98234 -3.1875,-20.0625 -1.22162,-3.75456 -0.67419,-5.80104 -7.54419,-7.8665 -2.42463,-0.72896 -2.0542,-2.7985 -2.28722,-4.92294 -0.23302,-2.12444 -0.26665,-6.54848 -0.37429,-9.20098 z"
       id="path4508"
       onclick="changeMap('4508-1.svg','4508')"
       onmouseover="changeColorOver('path4508')"
       onmouseout="changeColorOut('path4508')"
       inkscape:connector-curvature="0"
       sodipodi:nodetypes="cssssscscccscccscscccsssc" />
    <path
       style="fill:#e6e6e6"
       d="m -731.375,241.75 c -5.24635,1.32654 -8.1983,3.7189 -12.96875,5.8125 -3.42133,1.73973 -2.7328,6.36582 -4.875,7.6875 -5.20489,-1.30559 -9.82234,-3.24049 -14,-7 -3.97889,-3.18143 -11.21627,-1.60489 -11.53125,2.875 -0.72786,4.78539 -1.62131,7.45672 -2.67079,12.10989 -0.45016,1.99594 -3.75687,7.07394 -4.26813,7.06573 -0.0394,0.14345 0.32334,0.75951 0.70961,1.62831 0.39663,0.8921 1.8746,2.71098 3.17631,3.08776 2.34132,0.6777 4.13914,-2.31001 6.54254,2.81634 3.66348,7.81405 1.6533,10.6602 0.5761,15.13036 -3.12875,3.9766 -3.72262,1.42842 -6.691,0.98637 -1.38571,-0.20636 -7.04081,1.36929 -8.53089,4.51899 -3.65024,7.71578 0.8979,16.0482 6.21214,21.81712 1.48925,2.12598 -0.67521,10.84821 2.53593,13.01693 4.91286,2.53454 9.00194,-4.02549 8.87693,-7.95905 0.91515,-6.18885 7.91295,-6.7855 12.9375,-6.65625 4.15754,-0.6873 8.35839,-0.98705 12.5,-2.09375 -0.39254,-5.39833 -2.7782,-12.19105 0.5,-16.9375 6.60615,-2.50812 16.4821,1.13855 20.625,-6.46875 1.831,-4.51374 -2.3451,-9.6849 1.0625,-14 1.51132,-4.82273 6.10063,-7.89864 11.25,-6.5 3.99982,-0.3046 -4.83129,-3.90337 -5.9915,-6.82767 -0.72201,-1.81982 0.68555,-4.61562 0.12149,-6.41773 -0.56405,-1.80211 -4.36323,-3.8344 -3.20099,-6.55492 0.45203,-1.05808 0.83947,-6.62622 -3.64775,-9.04343 -2.02415,-1.09039 -6.92455,-2.36251 -9.25,-2.09375 z"
       id="path4509"
       onclick="changeMap('4509-1.svg','4509')"
       onmouseover="changeColorOver('path4509')"
       onmouseout="changeColorOut('path4509')"
       inkscape:connector-curvature="0"
       sodipodi:nodetypes="cccccscssscsscccccccccssssc" />
    <path
       style="fill:#e6e6e6"
       d="m -862.59229,193.73397 c -2.38644,4.93643 -5.10597,2.99911 -11.17138,3.77386 -6.04157,1.9109 -6.04394,11.18015 -12.04883,13.58592 -2.86062,2.82119 -8.07612,1.77196 -10.59375,4.15625 1.39874,3.82544 8.64357,4.07132 6.84375,9.28125 -1.11831,5.54114 -8.2437,3.94828 -11.71875,7.25 -1.83203,0.71605 -2.70168,1.41573 -3.7504,2.07161 -1.04872,0.65588 -2.27652,1.26795 -4.82483,1.80879 -10.04713,-1.70794 -14.11757,-10.46067 -16.33069,-8.65668 1.21921,3.60511 5.54783,11.34982 6.96345,14.29572 2.44934,5.09707 8.67489,7.87569 8.7702,15.52932 4.37051,-0.35413 7.24849,-7.11941 11.73477,-5.21708 4.75393,2.01582 8.76221,4.30144 13.00992,7.51885 4.14221,3.13749 6.05104,5.78088 8.74042,8.49592 5.47445,5.52667 -3.95939,7.30231 -3.10594,11.69136 1.85112,9.51981 3.40371,8.99913 7.3556,11.99344 3.40224,2.57784 6.61434,5.9079 11.25,4.21875 4.01536,-0.69401 8.3908,-1.7199 9.78836,-6.25 1.25374,-4.06392 5.38757,-5.54643 8.86315,-7.62241 4.39679,-2.62622 8.4193,-3.30292 13.47349,-3.57242 7.64839,-0.40782 14.78752,-0.10075 21.90625,-0.49267 0.73408,-2.1402 2.06229,-4.03672 3.78507,-5.31322 1.72277,-1.27649 3.84011,-1.93296 6.15243,-1.59303 1.18093,-0.1432 4.00161,0.22082 6.03483,-0.91578 2.03322,-1.1366 3.27898,-3.77383 1.44597,-5.56966 -6.39595,-6.26549 -11.20645,-12.27329 -16.13967,-20.17565 -2.62294,-4.20158 -4.7315,-11.181 -6.20091,-14.36499 -4.9543,-1.5238 -7.32691,-3.28857 -11.44922,-5.67416 -8.89813,-5.14938 -10.44687,-15.60121 -15.40141,-23.9874 -2.6105,-4.4186 -8.4539,2.04689 -11.85859,2.87097 -6.12819,-0.47577 -5.722,-11.88104 -5.6272,-16.31543 -2.92406,-1.12176 -5.57478,6.63008 -5.89609,7.17857 z"
       id="path4501"
       onclick="changeMap('4501-1.svg','4501')"
       onmouseover="changeColorOver('path4501')"
       onmouseout="changeColorOut('path4501')"
       inkscape:connector-curvature="0"
       sodipodi:nodetypes="ccccccsccscssssscssscscscscssccc" />
    <path
       style="fill:#e6e6e6"
       d="m -733.5625,161.1875 c -1.49022,0.57232 -3.55708,1.29843 -5.55227,1.89211 -1.99518,0.59367 -3.84544,1.21777 -4.68274,2.0746 0.95771,1.48074 3.74138,3.44558 4.37061,5.84497 0.28389,1.08252 0.11618,3.69798 -1.3654,6.2227 -0.61521,1.04836 -0.15355,4.34583 -0.15125,6.79198 0.002,2.44614 0.12411,6.81223 1.61967,7.62788 3.90745,2.13106 6.54865,0.10718 9.60512,10.42076 1.71535,5.78816 3.31074,11.33911 2.3125,17.53125 -0.16218,1.8855 -1.83604,3.63372 -1.16328,5.44271 0.67276,1.80899 3.69212,3.67874 4.54138,5.18229 -1.21661,3.10201 -4.79702,5.87477 -7.56935,11.30752 3.49436,-0.63095 9.34726,0.94824 11.23613,3.09224 1.88886,2.14401 3.38935,5.13898 2.08012,8.38149 -1.49785,3.70965 4.6265,4.19142 3.29688,8.6875 -2.28753,7.73516 12.19072,12.71836 16.89062,5.65625 1.50633,-4.6244 7.13703,-3.6374 10.03125,-6.84375 4.11981,-2.66004 5.44005,-7.21297 6.65625,-11.46875 3.57522,-5.34218 -1.12485,-11.21551 -0.4375,-16.9375 -0.75898,-7.35428 1.36073,-14.62199 5.65625,-20.5 0.59392,-3.16361 1.35776,-6.63841 5.3125,-7.0625 3.04166,0.004 8.37282,-3.05435 4.78125,-6.1875 -2.50011,-1.85058 0.0742,-6.52897 -0.40625,-9.4375 1.17043,-5.71902 -4.32117,-4.21273 -4.88542,-9.29418 -0.36373,-3.27569 1.73899,-6.29103 -1.47479,-6.94792 -2.82978,-0.5784 -2.43146,-0.13876 -5.24868,3.03139 -2.50593,2.81985 -3.41865,3.67064 -2.88505,6.52846 0.54198,2.90271 0.17124,7.08223 -3.59708,8.29417 -6.01781,1.93538 -6.5707,-3.38462 -10.44023,-0.83067 -5.43359,3.58625 -13.34945,13.0596 -14.63926,12.65137 -1.23167,-0.38982 -2.40234,-5.81707 -3.78738,-8.85965 -1.38504,-3.04258 -3.4587,-5.84867 -6.07584,-8.08008 -3.78855,-3.23017 -4.07236,-8.23117 -3.81408,-9.17462 0.75148,-2.74499 0.0458,-4.32174 -1.81522,-6.18279 -1.86105,-1.86106 -3.11694,-5.39827 -4.06598,-10.43265 -1.36912,0.32662 -3.4666,1.24549 -4.33348,1.57842 z"
       id="path4504"
       onclick="changeMap('4504-1.svg','4504')"
       onmouseover="changeColorOver('path4504')"
       onmouseout="changeColorOut('path4504')"
       inkscape:connector-curvature="0"
       sodipodi:nodetypes="sscsszsscsccsssccccccccsssssssssszcs" />
    <path
       style="fill:#e6e6e6"
       d="m -969.0625,116.875 c -7.02287,0.17834 -13.01522,5.40349 -20.21875,4.40625 2.05867,5.47666 0.70193,12.12962 -4.46875,15.03125 -2.67998,1.98384 -5.71244,7.74344 -9.625,6.09375 -1.8888,-3.40097 -5.4542,-5.2566 -9.125,-3.9375 -5.5668,-1.60475 -10.0805,-5.74958 -16.0312,-6.3125 -5.9425,-1.62226 -7.3957,-9.44429 -13.8126,-9.53125 -3.9929,-0.80964 -8.1444,-4.36257 -11.5312,-0.40625 -3.6678,3.50249 -3.9953,10.36842 -9.9688,10.96875 -5.6077,2.08729 -10.2824,9.98279 -16.875,7.09375 -2.5703,-1.76118 -7.5299,-7.23218 -9.25,-2.6875 -1.1448,5.40451 3.6225,9.81544 5.2813,14.625 1.934,3.34476 5.0843,0.7641 6.5313,-1.3125 5.7563,-2.44537 11.6105,2.55394 17.4374,0.78125 7.7278,1.15673 11.2111,9.86653 13.0938,16.46875 0.647,2.64525 -0.9333,6.69253 3.0312,6.0625 3.5624,0.6349 8.2541,5.15062 11.0274,2.30461 0.6943,-5.09391 10.7924,-6.79375 11.0039,-0.74211 2.7779,2.32605 6.9284,1.30081 9.5,4.0625 0.9322,-6.90527 11.3326,-9.60078 14.28915,-2.80363 4.53838,6.49741 9.7402,14.23174 6.64835,22.36613 -0.61673,6.42435 -0.93618,15.20447 -8.5312,17.3125 -4.975,2.60841 -10.2521,-3.4766 -14.7813,0.59375 -3.5374,2.23077 -4.7899,6.57515 -7.0313,9.53125 -4.2787,1.07178 -8.0417,4.63154 -6.6562,9.375 0.3678,4.52514 5.1081,5.23803 8.625,5.59375 5.1252,2.46852 10.0493,9.57143 16.3833,5.92531 4.85312,-2.34759 11.18697,-2.46105 14.3667,2.66844 3.63239,4.2218 10.67078,5.05703 14.0625,0.0625 2.55212,-2.21398 5.67636,-0.63133 7.53125,1.5625 6.09766,3.24583 11.4936,-4.61265 11.26163,-10.6972 -0.23726,-6.22291 2.38255,-3.47477 5.74466,-8.10908 3.82785,-5.27627 9.34996,-3.11783 12.55621,-3.56872 5.8285,-0.81965 11.26112,-6.39326 16.3125,-1.53125 3.35888,3.01294 10.51382,8.90341 15.24934,6.13167 11.53665,-6.75251 8.85541,-3.31574 15.27346,-7.23967 2.53213,-1.54811 4.05099,-5.55845 -2.714,-8.75449 -3.12001,-1.47401 -4.87955,-6.15343 -5.27369,-9.3028 -0.45306,-3.62018 2.24242,-5.44285 3.32483,-6.51386 -1.9934,-2.5128 -10.40822,-3.44179 -14.70369,-5.13335 -3.20568,-1.2624 -5.03994,-1.62809 -8.67565,-3.19698 -10.52411,-4.5414 -22.2968,-12.75845 -32.0431,-20.08427 -1.16574,-5.96291 2.3185,-12.40238 -2.21875,-18.1875 -2.86251,-3.64978 -7.10853,-6.82162 -4.70826,-14.25347 1.18949,-3.68295 -1.16782,-3.35493 -2.92575,-5.58481 -3.41995,-4.33811 3.592,-6.52545 6.52888,-7.55039 -1.91015,-3.14971 -2.83118,-5.64482 -4.41519,-8.01603 -2.45491,-2.44045 -6.09008,-3.78727 -9.47968,-3.56405 z"
       id="path4510"
       onclick="changeMap('4510-1.svg','4510')"
       onmouseover="changeColorOver('path4510')"
       onmouseout="changeColorOut('path4510')"
       inkscape:connector-curvature="0"
       sodipodi:nodetypes="ccccccccccccccccccccccccccccccssscsssscsscsssccc" />
    <path
       style="fill:#e6e6e6"
       d="m -765.05903,157.15093 c -0.52722,1.26542 1.72685,5.72685 0.99179,6.54908 -1.29574,1.4494 -6.52259,-1.07644 -7.67858,-0.5782 -8.51874,3.67161 -14.89959,10.70993 -22.3698,16.16572 -2.70527,1.97577 -2.69356,10.51238 -8.95453,5.75286 -3.29766,-3.31369 -5.42457,-7.43871 -9.34827,-5.57661 -6.18572,-0.01 -8.02918,-3.63932 -12.36283,-7.37003 -3.63467,-3.32871 -12.9458,-8.58012 -13.84412,-8.56523 -1.90183,4.20642 -2.40248,8.67817 -4.6086,12.9754 -2.65759,5.17661 -7.39121,7.92783 -13.00665,10.09256 -0.55338,4.91415 -0.30047,11.39638 3.39687,15.24727 1.98922,1.59552 6.59794,-2.47867 9.44417,-3.54806 3.23338,-1.21485 4.95868,0.23434 7.18579,6.07198 6.66792,17.47779 13.94793,20.94617 23.62861,24.40693 3.80228,-0.7637 4.40035,-6.19179 8.86643,-5.80585 4.63917,-0.11903 8.66769,3.2402 12.56095,5.26832 4.19356,-4.02964 9.16399,-6.74997 13.96875,-9.9375 3.25572,-2.15988 6.75269,-5.17759 7.31405,-8.83082 1.53299,-9.97643 10.26723,-15.34505 19.04688,-18.53125 5.33049,-1.93447 3.69459,-9.60917 6.71227,-11.07858 1.93326,-0.94137 2.45135,-1.28799 2.7601,-1.85839 2.73126,-4.63972 2.04895,-7.60039 0.72535,-8.95958 -1.41109,-1.44905 -3.05752,-4.17951 -7.69321,-7.30175 -2.51492,-1.69385 -5.56238,-2.96571 -7.51939,-5.79025 -1.95701,-2.82454 -2.00903,-5.02289 -1.99669,-7.54603 -2.40049,3.03316 -4.58046,5.13236 -5.06139,5.60449 -0.48093,0.47213 -1.63073,1.8781 -2.15795,3.14352 z"
       id="path4513"
       onclick="changeMap('4513-1.svg','4513')"
       onmouseover="changeColorOver('path4513')"
       onmouseout="changeColorOut('path4513')"
       inkscape:connector-curvature="0"
       sodipodi:nodetypes="zsssccccsccsscccsssscsszccz" />
    <path
       style="fill:#e6e6e6"
       d="m -930.625,79.375 c -6.46181,1.569277 -13.37585,6.973735 -14.15625,13.90625 1.16614,2.55521 2.63044,6.369058 -1.15625,7.59375 -5.01672,2.77999 -10.03458,5.75943 -16,5.375 -5.04764,-0.37308 -10.2752,7.37907 -4.89177,9.98515 2.45599,1.2923 6.43893,2.22152 6.90625,3.03125 1.76162,3.05234 3.85648,6.19602 5.29802,9.38985 -1.21259,0.67295 -7.92567,1.99057 -7.75,5.34375 0.19025,2.79328 5.2878,3.89965 4.23633,6.50975 -2.96549,7.36134 1.87159,11.4223 5.5051,16.47038 4.1844,5.81342 -0.59695,13.84801 1.54026,17.31126 9.22788,6.52638 29.19275,19.48043 38.97068,21.74438 3.82547,0.85915 6.57109,2.34337 10.19246,3.42565 2.19275,0.65532 8.60233,2.24928 4.58405,4.65884 -2.9967,1.48474 -2.80845,7.8124 0.5237,9.97023 8.77469,-1.26507 15.9352,-6.80419 19.00992,-14.55924 3.23415,-5.48367 12.06355,0.40337 14.625,-6.15625 1.71507,-3.25995 3.21506,-8.07208 6.99446,-7.28809 3.49321,-1.30914 5.23595,-2.14459 9.66179,-5.52441 4.23987,-5.09992 4.91426,-11.89173 7.65625,-17.53125 0.80345,-1.19227 6.40886,3.59897 10.2667,5.28746 2.30183,-3.89984 3.34231,-7.00985 6.32705,-10.28746 3.69405,-4.05653 -3.9172,-7.21854 -7.21875,-8.46875 -3.29657,-1.35696 2.11602,-4.26637 2.46875,-6.25 2.20559,-3.21004 0.75264,-8.73284 5.75,-9.6875 3.67634,0.15272 7.70935,-2.12329 6.63867,-6.55977 -0.91054,-3.7729 -4.12108,-3.52521 -5.23104,-4.47932 -1.29484,-1.11303 1.19999,-2.6855 2.2026,-4.7162 1.8663,-3.78005 0.0748,-10.67473 -5.19924,-10.24708 -6.06745,0.49199 -12.51382,1.2766 -17.87974,3.22112 -1.96021,-5.58178 -2.93467,-11.824897 -7.8125,-15.8125 -4.33426,-3.859795 -8.6946,-9.288525 -14.8125,-10 -3.74421,1.507839 -6.08465,5.29012 -10.09375,6.1875 -3.2259,3.865836 -0.97631,10.75099 -6.4375,13.25 -3.67827,2.3859 -8.06055,3.26895 -12.21875,4.59375 -1.88091,-2.86234 -5.0171,-5.19962 -8.1875,-5.53125 -1.05715,-3.605858 -4.94851,-5.40625 -8.28125,-3.25 -4.47097,2.35522 -4.07324,-5.096863 -6.5576,-7.069015 -3.88184,-5.204462 -7.77522,-12.400571 -14.5674,-13.868485 -0.3023,0.0029 -0.60511,-0.01135 -0.90625,0.03125 z"
       id="path4512"
       onclick="changeMap('4512-1.svg','4512')"
       onmouseover="changeColorOver('path4512')"
       onmouseout="changeColorOut('path4512')"
       inkscape:connector-curvature="0"
       sodipodi:nodetypes="cccccsccssccsccccccccscccssssccccccccccc" />
    <path
       style="fill:#e6e6e6"
       d="m -711.03711,199.29711 c -1.52567,-3.51181 -2.74244,-8.16897 -5.30012,-11.06576 -1.52382,-1.71975 -4.31823,-3.79544 -5.67619,-6.42506 -1.35797,-2.62962 -1.32134,-5.63414 -0.91314,-6.92026 0.45206,-1.4243 -0.11897,-2.84784 -1.88506,-4.69939 -2.81433,-2.95051 -3.1268,-7.31352 -4.32694,-10.64321 2.42839,1.62047 2.87824,2.32809 5.29394,3.16564 3.90642,1.3544 6.8969,0.77292 10.54986,0.48054 2.57179,0.0539 5.5413,0.54352 7.15414,-0.7384 1.22283,-1.09537 1.78979,-2.37706 1.86193,-3.6943 0.10527,-1.92224 1.68622,-4.05207 2.14239,-6.13656 0.64369,-2.94142 0.53903,-4.07034 -0.71732,-5.45859 -2.5799,-2.85077 -1.70838,-4.82557 3.48316,-9.47604 3.52538,-3.15797 4.89805,-5.1634 5,-8.34208 0.0851,-2.6521 -2.31972,-6.16305 -4.10097,-6.42836 -1.00663,-0.14994 -5.31414,0.47552 -6.42229,-1.26604 -1.48074,-2.32709 5.7945,-6.73923 8.90771,-9.47266 5.70149,-5.00598 7.34431,-3.94386 26.45539,17.10391 4.10836,4.5247 4.56388,4.75 9.60378,4.75 7.37316,0 8.45443,0.59438 8.45443,4.64748 0,1.92877 0.92811,4.68885 2.11777,6.29794 1.16478,1.57545 1.80815,3.36543 1.42971,3.97775 -0.37843,0.61232 0.30136,2.71421 1.51064,4.67087 1.946,3.1487 2.04434,3.84599 0.85565,6.06708 -0.73867,1.38023 -2.70896,3.20891 -4.37841,4.06373 -1.66945,0.85482 -3.36597,2.05393 -3.77005,2.66468 -1.35898,2.05409 -0.78036,9.77641 0.95232,12.7096 1.65711,2.80526 1.64435,2.95903 -0.36219,4.36446 -1.14389,0.80122 -2.64642,2.82468 -3.33894,4.49658 -0.98839,2.38619 -1.87525,3.03983 -4.1244,3.03983 -2.31696,0 -3.13889,-0.65488 -4.29515,-3.42222 -0.78645,-1.88222 -2.46729,-3.16566 -3.92214,-4.11891 -2.33744,-1.53155 -2.7403,-3.943 -2.29115,-6.65979 0.58652,-3.54771 -0.15835,-3.98866 -1.99978,-4.41758 -1.88355,-0.43873 -2.4063,0.19079 -3.09973,0.75881 -0.56926,0.4663 -1.66828,1.94282 -2.88812,3.30599 -1.85407,2.07192 -2.57732,2.93458 -2.05013,6.244 1.0595,6.65108 -4.51188,10.21921 -10.26524,6.36902 -1.85452,-1.24106 -3.94994,0.22957 -6.45458,2.30353 -2.10335,1.74167 -10.46288,10.63715 -11.64668,10.63715 -0.53867,0 -0.91347,-1.28179 -1.5441,-2.73338 z"
       id="path4511"
       onclick="changeMap('4511-1.svg','4511')"
       onmouseover="changeColorOver('path4511')"
       onmouseout="changeColorOut('path4511')"
       inkscape:connector-curvature="0"
       sodipodi:nodetypes="scssscsccsssssssssssscsssssssssssssssssss" />
    <path
       style="fill:#e6e6e6"
       d="m -804.99626,182.45789 c -2.84509,-3.4074 -3.55502,-4.5877 -6.1942,-3.65955 -2.51125,0.88316 -3.67239,0.55648 -8.03658,-2.37283 -3.75317,-2.51918 -6.725,-6.21825 -8.87423,-8.04305 1.0792,-2.13065 2.22808,-5.07178 4.74529,-8.25002 1.65,-2.08329 2.73316,-3.99902 2.32535,-5.30689 -0.56876,-1.82409 -3.7244,-4.23708 -5.80191,-4.79506 -5.27873,-1.41777 -2.66107,-2.71638 -0.3521,-5.65176 1.28764,-1.63696 1.7787,-4.38443 2.03592,-5.56553 0.51881,-2.38227 1.36128,-4.59345 5.64834,-4.95876 5.53989,-0.47207 8.29125,-8.37845 1.41296,-10.71227 -4.18621,-1.4204 0.42659,-2.45932 1.12683,-6.48572 1.21906,-7.00963 -1.88254,-10.29565 -10.09353,-9.21108 -3.64005,0.4808 -10.55635,1.54857 -13.36236,2.89523 -1.21728,-4.25502 -2.74106,-9.71922 -5.3628,-13.12093 -1.11896,-1.42252 -1.69051,-3.092045 -1.27911,-4.970613 0.43254,-1.975051 2.32493,-3.577372 3.58598,-4.718602 1.1,-0.99549 2,-2.86523 2,-4.15499 0,-3.11868 1.53952,-2.9565 5.57579,0.58739 4.55038,3.99529 11.7804,5.15585 14.59367,2.34259 1.85847,-1.85848 1.88617,-2.20608 0.44977,-5.64386 -1.15247,-2.75825 -2.27554,-3.81239 -4.54536,-4.26636 -3.37574,-0.67514 -4.90596,-3.65724 -3.03404,-5.91276 1.78626,-2.15231 9.20691,-1.79198 14.3273,0.6957 2.43135,1.18124 5.10223,1.88616 5.9353,1.56648 1.48636,-0.57037 9.64863,-12.46564 10.99601,-16.02504 0.52698,-1.3921 1.5545,-1.73896 4.44352,-1.5 3.11689,0.25781 3.70452,0.65206 3.44434,2.31085 -0.6973,4.44574 -0.10668,5.7475 4.50408,9.92729 0,0 3.66583,2.248021 4.13678,4.36006 0.26387,1.183351 0.96959,1.047889 0.59656,3.492264 -0.37302,2.444375 -2.05182,4.689792 -2.4413,11.050469 -0.19178,3.132023 0.31953,6.55586 -0.45057,10.24012 -0.77011,3.684262 -3.13269,7.567342 -3.95916,9.525772 -1.60268,3.79774 -3.10954,14.76942 -2.7804,18.96674 0.32915,4.19732 0.32888,4.45763 1.4957,5.88197 1.16682,1.42434 1.38979,1.40335 3.81058,1.67229 2.42079,0.26895 5.74626,0.44476 7.05766,0.59839 1.3114,0.15362 4.82693,2.60477 7.81229,5.44701 2.98535,2.84223 5.07344,4.20394 7.23359,5.20169 2.59358,1.19794 4.13772,1.88524 4.13772,3.879 0,0.81344 -1.91483,3.05756 -3.83983,4.8208 -2.46642,2.25915 -3.37985,3.29777 -3.37985,5.35204 0,1.89827 1.75996,4.94191 1.02855,5.68987 -0.7314,0.74796 -4.07431,-0.0308 -5.29286,-0.68293 -2.26283,-1.21103 -5.842,0.49391 -12.20277,5.81281 -2.47594,2.07039 -6.16692,4.88934 -8.20218,6.26434 -4.85521,3.28013 -6.53474,7.19018 -7.62221,9.28517 -1.18737,2.28744 -4.25802,1.84836 -7.35253,-1.85777 z"
       id="path4502"
       onclick="changeMap('4502-1.svg','4502')"
       onmouseover="changeColorOver('path4502')"
       onmouseout="changeColorOut('path4502')"
       inkscape:connector-curvature="0"
       sodipodi:nodetypes="csscsssssssssccssssssssssssssssssszssssssssssssssc" />
    <path
       style="fill:#e6e6e6"
       d="m -708.40625,32.4375 c -3.47571,0.940942 -5.69391,4.753616 -9.90625,4.0625 -4.66705,1.119588 -9.13016,-5.230571 -13.28125,-0.8125 -5.77025,5.090088 -12.32035,10.228778 -14.875,17.625 -1.34097,2.599422 -4.12337,3.505581 -5.71875,0.65625 -2.80426,-3.475075 -8.93015,0.698646 -10.46875,-4.3125 0.23079,-2.779928 0.47182,-7.319579 -3.6875,-6.53125 -4.97512,-0.499964 -6.14211,4.713591 -7.78125,8.1875 -3.82221,3.08921 0.0813,10.296065 -5.625,11.5625 -4.16119,1.360596 -1.11012,5.304252 -0.2351,8.40625 1.44511,5.123028 -2.17117,10.535272 -2.15625,16.03125 0.014,5.16162 0.57927,10.39827 -2.03162,14.81642 -4.87681,8.25254 -5.96508,20.74312 -4.60823,27.08983 0.94797,4.43416 8.46025,2.61885 12.55001,4.12574 5.73361,2.11258 8.95442,8.65941 15.04843,10.72875 3.49534,1.18691 3.42715,3.49126 3.69499,7.11911 0.42835,5.802 8.19881,9.58001 8.54454,9.85175 1.19128,0.93632 3.47976,2.63632 5.099,3.97865 1.71537,-1.20484 4.53422,-2.07015 7.62991,-3.21221 2.5869,-0.86634 4.58108,-1.37414 7.03778,-2.55806 4.61193,3.78079 8.6155,4.48778 14.02034,3.83801 4.27766,-0.51426 9.82978,1.57782 10.60819,-4.16258 0.54328,-4.00639 4.8966,-8.78277 0.97823,-12.36045 -3.4221,-3.26477 2.16523,-7.72585 4.56045,-9.49757 2.63983,-1.95264 4.42203,-4.99412 4.3339,-8.03799 -0.0881,-3.04387 -2.51715,-6.38933 -5.45425,-5.81197 -5.74759,1.12983 -9.17767,-5.47131 -8.65152,-9.81368 0.82757,-6.18929 7.72189,-8.82615 9.65625,-14.53125 3.62308,-5.755365 10.72272,-9.782933 10.65625,-17.4375 1.11364,-3.988515 -3.17323,-9.021912 1.75,-11.53125 3.46125,-2.068635 5.66364,-8.335484 0.5,-9.6875 -2.81797,-1.577214 -4.21523,3.823116 -6.46875,0.8125 -4.04736,-3.124227 -4.66431,-8.64352 -1.53125,-12.59375 2.51873,-4.507621 2.90317,-12.241449 -3.3125,-13.65625 -3.51575,-1.119232 -7.20784,-2.347844 -10.875,-2.34375 z"
       id="path4503"
       onclick="changeMap('4503-1.svg','4503')"
       onmouseover="changeColorOver('path4503')"
       onmouseout="changeColorOut('path4503')"
       inkscape:connector-curvature="0"
       sodipodi:nodetypes="cccccccccsssssssscccsscssscccccccccc" />
  </g>
  <g
     id="g4506"
     onclick="changeMap('4506-1.svg','4506')"
     transform="matrix(0.98695514,0,0,1.0304851,323.80736,-523.20165)">
    <text
       id="text4506-lc"
       x="-122.67094"
       y="849.59302"
       style="font-size:12px;fill:#ffffff;filter:url(#green);font-family:Sans">22</text>
  </g>
  <path
     sodipodi:type="arc"
     style="fill:#d40000;fill-opacity:1;stroke:#dd66ff;stroke-opacity:0"
     id="D4506"
     sodipodi:cx="314.82144"
     sodipodi:cy="114.75"
     sodipodi:rx="3.0357144"
     sodipodi:ry="3.0357144"
     d="m 317.85716,114.75 a 3.0357144,3.0357144 0 1 1 -6.07143,0 3.0357144,3.0357144 0 1 1 6.07143,0 z"
     transform="matrix(0.79797983,0,0,0.79797981,-18.78832,273.73246)" />
  <text
     sodipodi:linespacing="125%"
     id="text4506"
     y="368.5986"
     x="191.70375"
     style="font-size:40px;font-style:normal;font-weight:normal;line-height:125%;letter-spacing:0px;word-spacing:0px;fill:#000000;fill-opacity:1;stroke:none;font-family:Sans"
     xml:space="preserve"><tspan
       style="font-size:12px;fill:#666666"
       y="368.5986"
       x="191.70375"
       id="tspan4506"
       sodipodi:role="line">防城港</tspan></text>
  <g
     id="g4514"
     onclick="changeMap('4514-1.svg','4514')"
     transform="matrix(0.98695514,0,0,1.0304851,286.86602,-564.52616)">
    <text
       id="text4514-lc"
       x="-122.67094"
       y="849.59302"
       style="font-size:12px;fill:#ffffff;filter:url(#green);font-family:Sans">22</text>
  </g>
  <path
     sodipodi:type="arc"
     style="fill:#d40000;fill-opacity:1;stroke:#dd66ff;stroke-opacity:0"
     id="D4514"
     sodipodi:cx="314.82144"
     sodipodi:cy="114.75"
     sodipodi:rx="3.0357144"
     sodipodi:ry="3.0357144"
     d="m 317.85716,114.75 a 3.0357144,3.0357144 0 1 1 -6.07143,0 3.0357144,3.0357144 0 1 1 6.07143,0 z"
     transform="matrix(0.79797983,0,0,0.79797981,-79.80825,242.75184)" />
  <text
     sodipodi:linespacing="125%"
     id="text4514"
     y="326.85257"
     x="159.90421"
     style="font-size:40px;font-style:normal;font-weight:normal;line-height:125%;letter-spacing:0px;word-spacing:0px;fill:#000000;fill-opacity:1;stroke:none;font-family:Sans"
     xml:space="preserve"><tspan
       style="font-size:12px;fill:#666666"
       y="326.85257"
       x="159.90421"
       id="tspan5691-1-3-0-5"
       sodipodi:role="line">崇左</tspan></text>
  <g
     id="g4510"
     onclick="changeMap('4510-1.svg','4510')"
     transform="matrix(0.98695514,0,0,1.0304851,240.70664,-663.79714)">
    <text
       id="text4510-lc"
       x="-122.67094"
       y="849.59302"
       style="font-size:12px;fill:#ffffff;filter:url(#green);font-family:Sans">22</text>
  </g>
  <path
     sodipodi:type="arc"
     style="fill:#d40000;fill-opacity:1;stroke:#dd66ff;stroke-opacity:0"
     id="D4510"
     sodipodi:cx="314.82144"
     sodipodi:cy="114.75"
     sodipodi:rx="3.0357144"
     sodipodi:ry="3.0357144"
     d="m 317.85716,114.75 a 3.0357144,3.0357144 0 1 1 -6.07143,0 3.0357144,3.0357144 0 1 1 6.07143,0 z"
     transform="matrix(0.79797983,0,0,0.79797981,-123.46398,131.09994)" />
  <text
     sodipodi:linespacing="125%"
     id="text4510"
     y="238.92372"
     x="123.36134"
     style="font-size:40px;font-style:normal;font-weight:normal;line-height:125%;letter-spacing:0px;word-spacing:0px;fill:#000000;fill-opacity:1;stroke:none;font-family:Sans"
     xml:space="preserve"><tspan
       style="font-size:12px;fill:#666666"
       y="238.92372"
       x="123.36134"
       id="tspan4510"
       sodipodi:role="line">百色</tspan></text>
  <g
     id="g4512"
     onclick="changeMap('4512-1.svg','4512')"
     transform="matrix(0.98695514,0,0,1.0304851,307.50534,-709.25634)">
    <text
       id="text4512-lc"
       x="-122.67094"
       y="849.59302"
       style="font-size:12px;fill:#ffffff;filter:url(#green);font-family:Sans">22</text>
  </g>
  <path
     sodipodi:type="arc"
     style="fill:#d40000;fill-opacity:1;stroke:#dd66ff;stroke-opacity:0"
     id="D4512"
     sodipodi:cx="314.82144"
     sodipodi:cy="114.75"
     sodipodi:rx="3.0357144"
     sodipodi:ry="3.0357144"
     d="m 317.85716,114.75 a 3.0357144,3.0357144 0 1 1 -6.07143,0 3.0357144,3.0357144 0 1 1 6.07143,0 z"
     transform="matrix(0.79797983,0,0,0.79797981,-44.816956,89.370887)" />
  <text
     sodipodi:linespacing="125%"
     id="text4512"
     y="184.04478"
     x="173.74916"
     style="font-size:40px;font-style:normal;font-weight:normal;line-height:125%;letter-spacing:0px;word-spacing:0px;fill:#000000;fill-opacity:1;stroke:none;font-family:Sans"
     xml:space="preserve"><tspan
       style="font-size:12px;fill:#666666"
       y="184.04478"
       x="173.74916"
       id="tspan4512"
       sodipodi:role="line">河池</tspan></text>
  <g
     id="g4502"
     onclick="changeMap('4502-1.svg','4502')"
     transform="matrix(0.98695514,0,0,1.0304851,417.99344,-696.02246)">
    <text
       id="text4502-lc"
       x="-122.67094"
       y="849.59302"
       style="font-size:12px;fill:#ffffff;filter:url(#green);font-family:Sans">22</text>
  </g>
  <path
     sodipodi:type="arc"
     style="fill:#d40000;fill-opacity:1;stroke:#dd66ff;stroke-opacity:0"
     id="D4502"
     sodipodi:cx="314.82144"
     sodipodi:cy="114.75"
     sodipodi:rx="3.0357144"
     sodipodi:ry="3.0357144"
     d="m 317.85716,114.75 a 3.0357144,3.0357144 0 1 1 -6.07143,0 3.0357144,3.0357144 0 1 1 6.07143,0 z"
     transform="matrix(0.79797983,0,0,0.79797981,39.101534,102.41253)" />
  <text
     sodipodi:linespacing="125%"
     id="text4502"
     y="197.27867"
     x="296.50003"
     style="font-size:40px;font-style:normal;font-weight:normal;line-height:125%;letter-spacing:0px;word-spacing:0px;fill:#000000;fill-opacity:1;stroke:none;font-family:Sans"
     xml:space="preserve"><tspan
       style="font-size:12px;fill:#666666"
       y="197.27867"
       x="296.50003"
       id="tspan4502"
       sodipodi:role="line">柳州</tspan></text>
  <g
     id="g4503"
     onclick="changeMap('4503-1.svg','4503')"
     transform="matrix(0.98695514,0,0,1.0304851,475.1073,-738.89193)">
    <text
       id="text4503-lc"
       x="-122.67094"
       y="849.59302"
       style="font-size:12px;fill:#ffffff;filter:url(#green);font-family:Sans">22</text>
  </g>
  <path
     sodipodi:type="arc"
     style="fill:#d40000;fill-opacity:1;stroke:#dd66ff;stroke-opacity:0"
     id="D4503"
     sodipodi:cx="314.82144"
     sodipodi:cy="114.75"
     sodipodi:rx="3.0357144"
     sodipodi:ry="3.0357144"
     d="m 317.85716,114.75 a 3.0357144,3.0357144 0 1 1 -6.07143,0 3.0357144,3.0357144 0 1 1 6.07143,0 z"
     transform="matrix(0.79797983,0,0,0.79797981,94.100761,60.234408)" />
  <text
     sodipodi:linespacing="125%"
     id="text4503"
     y="155.10054"
     x="352.73029"
     style="font-size:40px;font-style:normal;font-weight:normal;line-height:125%;letter-spacing:0px;word-spacing:0px;fill:#000000;fill-opacity:1;stroke:none;font-family:Sans"
     xml:space="preserve"><tspan
       style="font-size:12px;fill:#666666"
       y="155.10054"
       x="352.73029"
       id="tspan4503"
       sodipodi:role="line">桂林</tspan></text>
  <g
     id="g4511"
     onclick="changeMap('4511-1.svg','4511')"
     transform="matrix(0.98695514,0,0,1.0304851,539.05448,-695.25722)">
    <text
       id="text4511-lc"
       x="-122.67094"
       y="849.59302"
       style="font-size:12px;fill:#ffffff;filter:url(#green);font-family:Sans">22</text>
  </g>
  <path
     sodipodi:type="arc"
     style="fill:#d40000;fill-opacity:1;stroke:#dd66ff;stroke-opacity:0"
     id="D4511"
     sodipodi:cx="314.82144"
     sodipodi:cy="114.75"
     sodipodi:rx="3.0357144"
     sodipodi:ry="3.0357144"
     d="m 317.85716,114.75 a 3.0357144,3.0357144 0 1 1 -6.07143,0 3.0357144,3.0357144 0 1 1 6.07143,0 z"
     transform="matrix(0.79797983,0,0,0.79797981,174.50293,97.754485)" />
  <text
     sodipodi:linespacing="125%"
     id="text4511"
     y="202.2326"
     x="413.06192"
     style="font-size:40px;font-style:normal;font-weight:normal;line-height:125%;letter-spacing:0px;word-spacing:0px;fill:#000000;fill-opacity:1;stroke:none;font-family:Sans"
     xml:space="preserve"><tspan
       style="font-size:12px;fill:#666666"
       y="202.2326"
       x="413.06192"
       id="tspan4511"
       sodipodi:role="line">贺州</tspan></text>
  <g
     id="g4504"
     onclick="changeMap('4504-1.svg','4504')"
     transform="matrix(0.98695514,0,0,1.0304851,508.4914,-625.9233)">
    <text
       id="text4504-lc"
       x="-122.67094"
       y="849.59302"
       style="font-size:12px;fill:#ffffff;filter:url(#green);font-family:Sans">22</text>
  </g>
  <path
     sodipodi:type="arc"
     style="fill:#d40000;fill-opacity:1;stroke:#dd66ff;stroke-opacity:0"
     id="D4504"
     sodipodi:cx="314.82144"
     sodipodi:cy="114.75"
     sodipodi:rx="3.0357144"
     sodipodi:ry="3.0357144"
     d="m 317.85716,114.75 a 3.0357144,3.0357144 0 1 1 -6.07143,0 3.0357144,3.0357144 0 1 1 6.07143,0 z"
     transform="matrix(0.79797983,0,0,0.79797981,157.47421,171.77975)" />
  <text
     sodipodi:linespacing="125%"
     id="text4504"
     y="266.6459"
     x="377.77048"
     style="font-size:40px;font-style:normal;font-weight:normal;line-height:125%;letter-spacing:0px;word-spacing:0px;fill:#000000;fill-opacity:1;stroke:none;font-family:Sans"
     xml:space="preserve"><tspan
       style="font-size:12px;fill:#666666"
       y="266.6459"
       x="377.77048"
       id="tspan4504"
       sodipodi:role="line">梧州</tspan></text>
  <g
     id="g4513"
     onclick="changeMap('4513-1.svg','4513')"
     transform="matrix(0.98695514,0,0,1.0304851,403.9653,-620.82613)">
    <text
       id="text4513-lc"
       x="-122.67094"
       y="849.59302"
       style="font-size:12px;fill:#ffffff;filter:url(#green);font-family:Sans">22</text>
  </g>
  <path
     sodipodi:type="arc"
     style="fill:#d40000;fill-opacity:1;stroke:#dd66ff;stroke-opacity:0"
     id="D4513"
     sodipodi:cx="314.82144"
     sodipodi:cy="114.75"
     sodipodi:rx="3.0357144"
     sodipodi:ry="3.0357144"
     d="m 317.85716,114.75 a 3.0357144,3.0357144 0 1 1 -6.07143,0 3.0357144,3.0357144 0 1 1 6.07143,0 z"
     transform="matrix(0.79797983,0,0,0.79797981,24.021572,142.76624)" />
  <text
     sodipodi:linespacing="125%"
     id="text4513"
     y="235.92688"
     x="282.14706"
     style="font-size:40px;font-style:normal;font-weight:normal;line-height:125%;letter-spacing:0px;word-spacing:0px;fill:#000000;fill-opacity:1;stroke:none;font-family:Sans"
     xml:space="preserve"><tspan
       style="font-size:12px;fill:#666666"
       y="235.92688"
       x="282.14706"
       id="tspan4513"
       sodipodi:role="line">来宾</tspan></text>
  <g
     id="g4508"
     onclick="changeMap('4508-1.svg','4508')"
     transform="matrix(0.98695514,0,0,1.0304851,447.79339,-600.99013)">
    <text
       id="text4508-lc"
       x="-122.67094"
       y="849.59302"
       style="font-size:12px;fill:#ffffff;filter:url(#green);font-family:Sans">22</text>
  </g>
  <path
     sodipodi:type="arc"
     style="fill:#d40000;fill-opacity:1;stroke:#dd66ff;stroke-opacity:0"
     id="D4508"
     sodipodi:cx="314.82144"
     sodipodi:cy="114.75"
     sodipodi:rx="3.0357144"
     sodipodi:ry="3.0357144"
     d="m 317.85716,114.75 a 3.0357144,3.0357144 0 1 1 -6.07143,0 3.0357144,3.0357144 0 1 1 6.07143,0 z"
     transform="matrix(0.79797983,0,0,0.79797981,59.407696,191.90693)" />
  <text
     sodipodi:linespacing="125%"
     id="text4508"
     y="275.23871"
     x="294.12192"
     style="font-size:40px;font-style:normal;font-weight:normal;line-height:125%;letter-spacing:0px;word-spacing:0px;fill:#000000;fill-opacity:1;stroke:none;font-family:Sans"
     xml:space="preserve"><tspan
       style="font-size:12px;fill:#666666"
       y="275.23871"
       x="294.12192"
       id="tspan4508"
       sodipodi:role="line">贵港</tspan></text>
  <g
     id="g4509"
     onclick="changeMap('4509-1.svg','4509')"
     transform="matrix(0.98695514,0,0,1.0304851,465.32573,-551.74847)">
    <text
       id="text4509-lc"
       x="-122.67094"
       y="849.59302"
       style="font-size:12px;fill:#ffffff;filter:url(#green);font-family:Sans">22</text>
  </g>
  <path
     sodipodi:type="arc"
     style="fill:#d40000;fill-opacity:1;stroke:#dd66ff;stroke-opacity:0"
     id="D4509"
     sodipodi:cx="314.82144"
     sodipodi:cy="114.75"
     sodipodi:rx="3.0357144"
     sodipodi:ry="3.0357144"
     d="m 317.85716,114.75 a 3.0357144,3.0357144 0 1 1 -6.07143,0 3.0357144,3.0357144 0 1 1 6.07143,0 z"
     transform="matrix(0.79797983,0,0,0.79797981,88.35622,212.54195)" />
  <text
     sodipodi:linespacing="125%"
     id="text4509"
     y="305.02359"
     x="344.60129"
     style="font-size:40px;font-style:normal;font-weight:normal;line-height:125%;letter-spacing:0px;word-spacing:0px;fill:#000000;fill-opacity:1;stroke:none;font-family:Sans"
     xml:space="preserve"><tspan
       style="font-size:12px;fill:#666666"
       y="305.02359"
       x="344.60129"
       id="tspan4509"
       sodipodi:role="line">玉林</tspan></text>
  <g
     id="g4507"
     onclick="changeMap('4507-1.svg','4507')"
     transform="matrix(0.98695514,0,0,1.0304851,381.77975,-539.67562)">
    <text
       id="text4507-lc"
       x="-122.67094"
       y="849.59302"
       style="font-size:12px;fill:#ffffff;filter:url(#green);font-family:Sans">22</text>
  </g>
  <path
     sodipodi:type="arc"
     style="fill:#d40000;fill-opacity:1;stroke:#dd66ff;stroke-opacity:0"
     id="D4507"
     sodipodi:cx="314.82144"
     sodipodi:cy="114.75"
     sodipodi:rx="3.0357144"
     sodipodi:ry="3.0357144"
     d="m 317.85716,114.75 a 3.0357144,3.0357144 0 1 1 -6.07143,0 3.0357144,3.0357144 0 1 1 6.07143,0 z"
     transform="matrix(0.79797983,0,0,0.79797981,0.69560465,254.83696)" />
  <text
     sodipodi:linespacing="125%"
     id="text4507"
     y="352.20224"
     x="259.24753"
     style="font-size:40px;font-style:normal;font-weight:normal;line-height:125%;letter-spacing:0px;word-spacing:0px;fill:#000000;fill-opacity:1;stroke:none;font-family:Sans"
     xml:space="preserve"><tspan
       style="font-size:12px;fill:#666666"
       y="352.20224"
       x="259.24753"
       id="tspan4507"
       sodipodi:role="line">钦州</tspan></text>
  <g
     id="g4505"
     onclick="changeMap('4505-1.svg','4505')"
     transform="matrix(0.98695514,0,0,1.0304851,420.42425,-508.97359)">
    <text
       id="text4505-lc"
       x="-122.67094"
       y="849.59302"
       style="font-size:12px;fill:#ffffff;filter:url(#green);font-family:Sans">22</text>
  </g>
  <path
     sodipodi:type="arc"
     style="fill:#d40000;fill-opacity:1;stroke:#dd66ff;stroke-opacity:0"
     id="D4505"
     sodipodi:cx="314.82144"
     sodipodi:cy="114.75"
     sodipodi:rx="3.0357144"
     sodipodi:ry="3.0357144"
     d="m 317.85716,114.75 a 3.0357144,3.0357144 0 1 1 -6.07143,0 3.0357144,3.0357144 0 1 1 6.07143,0 z"
     transform="matrix(0.79797983,0,0,0.79797981,40.18666,286.4226)" />
  <text
     sodipodi:linespacing="125%"
     id="text4505"
     y="382.90427"
     x="296.23947"
     style="font-size:40px;font-style:normal;font-weight:normal;line-height:125%;letter-spacing:0px;word-spacing:0px;fill:#000000;fill-opacity:1;stroke:none;font-family:Sans"
     xml:space="preserve"><tspan
       style="font-size:12px;fill:#666666"
       y="382.90427"
       x="296.23947"
       id="tspan4505"
       sodipodi:role="line">北海</tspan></text>
  <g
     id="g4501"
     onclick="changeMap('4501-1.svg','4501')"
     transform="matrix(0.98695514,0,0,1.0304851,358.90124,-594.03185)">
    <text
       id="text4501-lc"
       x="-122.67094"
       y="849.59302"
       style="font-size:12px;fill:#ffffff;filter:url(#green);font-family:Sans">22</text>
  </g>
  <path
     sodipodi:type="arc"
     style="fill:#d40000;fill-opacity:1;stroke:#dd66ff;stroke-opacity:0"
     id="D4501"
     sodipodi:cx="314.82144"
     sodipodi:cy="114.75"
     sodipodi:rx="3.0357144"
     sodipodi:ry="3.0357144"
     d="m 317.85716,114.75 a 3.0357144,3.0357144 0 1 1 -6.07143,0 3.0357144,3.0357144 0 1 1 6.07143,0 z"
     transform="matrix(0.79797983,0,0,0.79797981,-18.951862,201.94106)" />
  <text
     sodipodi:linespacing="125%"
     id="text4501"
     y="297.76837"
     x="239.02335"
     style="font-size:40px;font-style:normal;font-weight:normal;line-height:125%;letter-spacing:0px;word-spacing:0px;fill:#000000;fill-opacity:1;stroke:none;font-family:Sans"
     xml:space="preserve"><tspan
       style="font-size:12px;fill:#666666"
       y="297.76837"
       x="239.02335"
       id="tspan4501"
       sodipodi:role="line">南宁</tspan></text>
</svg>
