<?xml version="1.0" encoding="UTF-8" standalone="no"?>
<!-- Created with Inkscape (http://www.inkscape.org/) -->

<svg
   xmlns:dc="http://purl.org/dc/elements/1.1/"
   xmlns:cc="http://creativecommons.org/ns#"
   xmlns:rdf="http://www.w3.org/1999/02/22-rdf-syntax-ns#"
   xmlns:svg="http://www.w3.org/2000/svg"
   xmlns="http://www.w3.org/2000/svg"
   xmlns:sodipodi="http://sodipodi.sourceforge.net/DTD/sodipodi-0.dtd"
   xmlns:inkscape="http://www.inkscape.org/namespaces/inkscape"
   id="svg3882"
   version="1.1"
   inkscape:version="0.48.5 r10040"
   width="100%"
   height="100%"
   viewBox="0 0 460 460"
   sodipodi:docname="naning2.svg">
  <metadata
     id="metadata3888">
    <rdf:RDF>
      <cc:Work
         rdf:about="">
        <dc:format>image/svg+xml</dc:format>
        <dc:type
           rdf:resource="http://purl.org/dc/dcmitype/StillImage" />
        <dc:title />
      </cc:Work>
    </rdf:RDF>
  </metadata>
  <defs
     id="defs3886">
    <filter
       color-interpolation-filters="sRGB"
       x="-0.1"
       y="0"
       width="1.2"
       height="1"
       id="green">
      <feFlood
         flood-color="#008000"
         id="feFlood6"
         result="result1" />
      <feComposite
         in="SourceGraphic"
         id="feComposite8"
         in2="result1" />
    </filter>
    <filter
       color-interpolation-filters="sRGB"
       x="-0.1"
       y="0"
       width="1.2"
       height="1"
       id="orange">
      <feFlood
         flood-color="#ff7f2a"
         id="feFlood11"
         result="result1" />
      <feComposite
         in="SourceGraphic"
         id="feComposite13"
         in2="result1" />
    </filter>
  </defs>
  <sodipodi:namedview
     pagecolor="#ffffff"
     bordercolor="#666666"
     borderopacity="1"
     objecttolerance="10"
     gridtolerance="10"
     guidetolerance="10"
     inkscape:pageopacity="0"
     inkscape:pageshadow="2"
     inkscape:window-width="1920"
     inkscape:window-height="1018"
     id="namedview3884"
     showgrid="false"
     inkscape:zoom="1.8391304"
     inkscape:cx="230"
     inkscape:cy="230"
     inkscape:window-x="-8"
     inkscape:window-y="-8"
     inkscape:window-maximized="1"
     inkscape:current-layer="g3894" />
  <g
     id="g3894"
     transform="translate(-528.27396,-471.37109)">
    <path
       style="fill:#e6e6e6"
       d="m 733.0232,771.83577 c -0.39153,2.84032 -0.59333,5.36588 -1.34757,10.42505 -0.64782,4.34533 -1.11997,6.95963 -1.77842,12.83811 -0.87944,7.85154 -3.06738,15.71226 -4.75518,23.54547 -2.07852,9.64663 -3.60518,15.17803 -11.92328,18.85693 -5.20152,2.30051 -10.51329,6.72027 -12.77133,14.29266 -2.37444,7.96274 -1.2778,18.85974 -4.66617,27.20601 0.54467,6.03204 9.71215,8.35576 12.75,2.84375 4.44251,-2.39294 7.03894,3.52548 7.15625,7.03125 1.36177,5.66071 7.00517,12.0199 13.21875,8.5625 6.34785,-2.11764 12.31389,-9.60515 19.34375,-7 8.17984,6.09306 20.53115,0.8572 23.40625,-8.46875 3.95102,-7.7678 6.02903,-17.52031 4.0625,-25.84375 -6.98911,-4.53334 -15.71086,3.03719 -21.9375,-3.25 -2.67581,-4.73799 -1.41183,-8.66035 -1.75,-14.21875 -1.04704,-17.21006 1.31913,-44.33183 -2.78125,-53.3125 -1.04878,-1.96458 -0.14497,-6.2057 1.57132,-9.80093 -8.37679,1.23042 -14.95978,-2.06155 -17.79812,-3.70705 z"
       id="path450108" isChild="true"
       type="area" code="450108" />
    <path
       style="fill:#e6e6e6"
       d="m 679.5625,760.21875 c -8.53378,4.36822 -9.26724,11.05721 -14.81117,18.80524 -3.11831,6.297 6.67533,23.33546 13.99867,20.38226 0.8173,-3.08432 6.24451,-6.49144 7.3125,-1.75 3.03011,8.29548 -6.53208,14.61204 -13.375,16.40625 -2.66405,0.15272 -5.41707,2.42202 -3.6875,5.125 0.92149,6.03273 -2.90569,12.93485 0.59375,18.34375 12.71728,2.21274 18.52167,15.18626 20.83146,26.31768 1.38566,2.80424 4.08137,4.87793 7.09375,5.625 0.94134,-12.78829 1.54265,-28.37395 15.34893,-32.24614 5.33411,-1.49604 8.13609,-8.08321 9.42139,-12.49987 4.17494,-14.3463 6.0955,-30.93258 8.16381,-41.7639 0.68018,-3.56198 1.46682,-5.44171 2.03249,-11.50058 -3.92015,-1.91289 -8.10101,-2.98227 -11.20876,-4.22664 -3.32061,-1.3296 -15.73918,-6.96238 -15.38372,1.43977 0.38857,9.18459 -9.08851,12.73393 -14.47902,4.28198 -3.3992,-4.06898 -4.90171,-13.98835 -11.85158,-12.7398 z"
       id="path450105" isChild="true"
       type="area" code="450105" />
    <path
       style="fill:#e6e6e6"
       d="m 778.59116,771.41099 c -4.69514,0.46647 -7.74623,0.63718 -12.88685,1.06272 -6.21138,0.51418 -12.21652,2.73748 -14.50799,3.47591 -1.06808,2.6415 -1.96293,5.95401 -0.69311,9.61229 2.83243,2.65609 2.31077,18.59477 2.18232,34.32595 -0.12846,15.73118 0.13631,31.25486 2.61921,33.08096 3.66937,1.22138 8.18484,1.13508 12.07019,0.56701 6.30842,-0.92234 8.98376,-0.12908 15.37507,-1.12958 4.40645,0.23054 8.76645,-1.92125 11.84375,-4.5 5.71834,2.30089 11.84468,-0.43319 15,-5.4375 5.30664,-6.1519 12.08939,-11.95284 20.625,-11.9375 6.11782,-2.44092 7.61688,-10.93628 3.0625,-15.59375 -4.21213,-7.01042 -6.26876,-15.08833 -7.5,-22.96875 -1.93527,-3.33424 -7.1002,-2.68652 -8.375,0.875 -5.30771,6.58562 -15.10513,10.98477 -21.73837,3.95194 -7.3928,-6.7733 -9.33135,-20.77875 -12.61597,-24.66854 -1.30181,-0.60698 -2.78223,-0.88292 -4.46075,-0.71616 z"
       id="path450109" isChild="true"
       type="area" code="450109" />
    <path
       style="fill:#e6e6e6"
       d="m 917.00341,698.47052 c -6.22053,12.72176 -17.38403,10.25989 -23.42343,22.24393 -4.76641,9.45803 -10.54565,22.91098 -16.68128,24.56443 -3.88449,-1.41128 -8.83799,-5.72091 -12.99245,-2.49763 -4.1175,2.59105 -10.53016,8.33909 -15.0625,3.03125 -2.18239,-3.42883 -17.48297,-10.19427 -19.3596,-12.29932 5.52088,15.87863 2.27674,26.4037 2.0745,36.46312 4.70264,19.74822 0.44553,21.10358 -4.70083,21.57524 0.23634,7.87287 5.09833,20.07384 8.79932,26.39307 3.16361,5.40168 0.15645,9.50837 7.28036,11.58664 8.64327,3.19838 17.84249,-4.07407 26.53125,-0.125 6.50415,2.70053 13.80357,1.36701 20.78125,2.0625 3.04329,-0.53187 9.38894,-0.0993 8.9375,-4.375 2.59321,-3.76516 7.48832,-0.62509 9.75,1.875 4.54649,3.68284 12.63595,9.66354 17.84375,4.0625 2.80069,-5.39648 -1.69885,-12.49638 2.875,-17.53125 4.94757,-8.85093 15.95543,-11.43654 25.40625,-10.15625 10.88686,-0.3341 25.38465,-1.43524 30.40625,-12.8125 2.03042,-8.52781 -6.48736,-14.48143 -13.59375,-16.4375 -3.6044,-2.38041 -0.24856,-6.72624 -1.5625,-9.5625 -2.76488,-3.99753 -11.3116,-3.38518 -11.1875,-9.125 1.28521,-2.30194 3.00003,-6.68234 -1,-7.28125 -10.83311,-5.40469 -19.89764,-14.07065 -26.59375,-24.03125 5.96204,-5.54566 3.31684,-17.14046 -4.96875,-18.71875 -4.19635,-2.11925 -4.93426,-8.62029 -9.55909,-8.90448 z"
       id="path450127" isChild="true"
       type="area" code="450127" />
    <path
       style="fill:#e6e6e6"
       d="m 817.5625,730.53125 c -8.00137,4.10515 -11.80407,10.23223 -19.8125,14.40625 -9.89209,7.45248 -22.32645,16.30001 -35.25,13.4375 -4.75502,-1.91474 -11.62296,-0.38686 -17.82499,1.52539 -6.20203,1.91226 -11.73816,6.20889 -13.82956,9.83166 2.99989,2.58199 8.15219,4.62449 13.22816,5.27592 5.07597,0.65143 8.16694,-0.0463 12.04924,-1.20539 5.83864,-1.7432 10.45845,-1.77122 14.94417,-1.96572 5.21163,-0.22588 11.37232,-3.35186 14.02673,2.41314 0.98644,1.34128 6.17293,22.13106 16.0819,25.36293 5.98428,1.11588 15.16213,-4.28211 16.4181,-8.80043 2.9805,-3.31396 6.12515,-1.33302 9.03125,0.15625 4.37537,0.5753 7.26653,-5.23391 5.78125,-9.09375 -0.94091,-11.48549 -1.5431,-12.33411 -0.90195,-24.8473 1.10796,-21.62379 -5.31862,-27.60512 -13.9418,-26.49645 z"
       id="path450103" isChild="true"
       type="area" code="450103" />
    <path
       style="fill:#e6e6e6"
       d="m 663.12173,721.89944 c -6.15995,5.94136 -12.57719,10.75988 -28.5736,16.09774 -5.71712,1.90776 -18.40261,2.68125 -22.61849,7.43988 -0.47864,7.3233 20.61622,8.21478 26.22661,9.75044 8.53486,2.0227 20.77394,2.83438 24.4375,12.125 0.19082,3.39668 5.63686,5.75493 6.65625,1.65625 4.5798,-5.05582 8.69107,-11.12356 13.42846,-9.67565 4.52124,1.38185 4.64781,4.92929 7.00904,9.4569 2.66945,5.11863 9.69099,11.80402 13.63128,6.30858 2.59739,-3.62252 -0.41722,-12.20883 5.875,-12.3125 2.79725,-0.11046 6.75526,1.61366 10.65769,2.71574 3.90243,1.10207 5.24889,1.9426 9.91641,3.33339 1.54104,-4.9981 2.98024,-10.75588 4.69533,-15.57647 1.80254,-5.06639 4.17507,-19.47292 8.76714,-25.15757 -8.15059,2.75272 -14.83387,4.57974 -18.6991,6.65758 -7.617,4.09469 -14.68703,12.86987 -24.21875,10.5625 -5.3425,-5.55741 0.23653,-18.35938 -0.0701,-25.05836 -0.2264,-4.94684 -9.23707,-7.39564 -13.26052,-9.79783 -2.00885,-1.19938 -4.4569,-5.94927 -7.47179,-9.07121 -4.19235,6.49003 -9.57214,13.97125 -16.38836,20.54559 z"
       id="path450107" isChild="true"
       type="area" code="450107" />
    <path
       style="fill:#e6e6e6"
       d="m 795.69913,704.99548 c -7.49779,1.44267 -4.7759,15.58844 -12.94913,17.22327 -8.3559,0.99514 -18.46125,-4.58833 -25.34375,2.125 -5.30409,0.0467 -10.80038,2.54626 -13.3604,3.74811 -2.83188,4.73613 -4.37024,8.51093 -6.10835,16.00189 -1.05494,4.85994 -5.38177,18.85719 -6.6858,22.67324 3.34428,-2.73453 17.49259,-12.14601 24.34205,-10.01699 13.54768,2.6292 26.95588,-2.89716 38.25,-10 6.98921,-4.80594 15.39563,-12.19189 22.61093,-16.73623 5.14325,-3.23931 4.53522,-9.18844 0.0953,-13.53984 -5.69859,-5.58498 -12.60837,-13.0644 -20.85086,-11.47845 z"
       id="path450102" isChild="true"
       type="area" code="450102" />
    <path
       style="fill:#e6e6e6"
       d="m 620.21875,650.3125 c -7.15997,2.04528 -8.83027,12.82861 -17.1875,12.28125 -7.71645,1.71984 -15.94145,0.10484 -23.4375,2.875 4.90853,8.33999 -6.31119,19.38546 -14.3125,13.59375 -5.59736,-3.52903 -12.32061,-11.1583 -19.625,-6.75 -12.27453,5.04504 -18.19773,23.79596 -7.4375,33.25 -0.94255,2.2712 -4.28603,3.73958 -4.25,6.78125 -1.42184,3.02733 1.29215,8.17145 4.75,5.28125 7.36531,-3.91866 19.30481,-2.11626 21.15625,7.21875 3.42588,10.62915 -2.71947,24.13087 5.40625,33.03125 8.6932,3.24715 13.56926,-7.01732 19.84375,-10.625 5.10442,-1.57718 7.45362,4.11643 11,6.1875 2.58043,2.12989 8.98841,0.0253 5.78125,-3.65625 -2.32461,-3.89985 -7.93773,-6.27576 -8.28125,-10.875 8.33667,-5.10604 17.15024,5.15884 26.04637,1.63361 8.59308,-1.97563 20.23537,-4.04217 27.59801,-8.37077 11.58438,-6.81063 25.13617,-19.03992 31.90726,-31.06982 -3.91614,-4.20726 -11.55458,-11.15165 -17.12543,-15.65254 -3.93022,-3.17538 -16.14949,-7.85159 -24.89518,-8.30729 -2.4463,-8.6116 -0.0634,-22.28581 -10.37478,-26.38944 -2.12692,-0.57207 -4.37019,-0.48725 -6.5625,-0.4375 z"
       id="path450123" isChild="true"
       type="area" code="450123" />
    <path
       style="fill:#e6e6e6"
       d="m 845,631.59375 c -4.80641,5.96156 -8.94245,13.1463 -16.09375,16.125 -10.07607,4.19695 -14.20963,16.16013 -18.89997,26.6086 -4.34446,9.67796 -15.88617,8.1017 -24.28753,11.04765 -4.78542,1.81285 -9.24485,9.44688 -3.5,12.78125 7.62552,3.64693 16.45956,3.70653 23.6875,8.25 8.9558,3.74079 19.08546,16.83587 13.61448,22.55969 4.50916,-0.0604 7.41026,2.19733 10.39468,4.00005 2.88709,1.74394 5.88281,3.3962 8.38095,4.79408 5.49836,3.07673 9.68967,4.78953 10.57153,6.76555 2.37934,5.33151 9.34743,1.43056 15.85664,-2.87929 4.10743,-4.3027 8.93129,4.28931 13.65625,2.07153 7.58012,-7.52629 11.40361,-18.43182 16.90047,-27.59286 6.18481,-7.51569 16.44962,-8.28186 20.46638,-17.61641 3.71603,-10.20613 4.09373,-27.01052 -4.84138,-34.66484 -10.06753,4.767 -20.10361,-2.00957 -27.4375,-8.53125 -6.32885,-5.0575 -14.49595,-8.41491 -22.625,-6.65625 -8.62931,-1.94118 -6.5717,-15.65222 -15.40625,-17.5625 z"
       id="path450126" isChild="true"
       type="area" code="450126" />
    <path
       style="fill:#e6e6e6"
       d="m 727.19964,611.21571 c -16.51064,6.80963 -23.90245,8.94283 -39.04339,13.06554 -5.15834,1.40456 -6.50588,6.97362 -8.83848,9.90053 -3.7156,4.66228 -7.50134,-0.45598 -11.09341,-3.66529 -5.84747,-5.22437 -14.99747,-11.7047 -22.81811,-6.70399 -2.10774,5.81857 -4.92637,11.40042 -8.90625,15.96875 -4.69619,11.97486 0.99529,24.53915 1.00215,36.79547 6.83951,0.15924 9.64503,1.82126 13.76851,3.17928 7.73725,2.54817 10.83118,4.82124 16.88256,10.22365 6.48191,5.78678 11.48053,10.41022 16.67494,17.6571 3.60616,5.03107 16.1216,5.46943 15.92029,12.25857 -0.23925,8.0686 -2.03501,15.58115 -2.56095,23.01093 6.76272,7.4687 18.52799,-6.08982 29.17833,-10.53106 5.01648,-2.0919 27.47912,-7.35641 33.06532,-10.7315 6.11478,-3.69444 15.62724,1.52894 21.04831,0.0852 8.61531,-2.29444 6.25465,-16.09725 15.54994,-17.9344 -14.84523,-5.53729 -19.14017,-3.3892 -17.75692,-11.7206 1.32258,-7.96596 4.86562,-17.72726 5.08249,-25.89112 0.17159,-6.45909 -7.08447,-14.54275 -12.90056,-22.33796 -5.2304,-7.0102 -6.51352,-13.04468 -12.2336,-18.71173 -6.81361,-6.75043 -14.543,-13.07965 -15.00798,-25.98037 -3.15633,6.27517 -3.84111,6.63033 -17.01319,12.063 z"
       id="path450110" isChild="true"
       type="area" code="450110" />
    <path
       style="fill:#e6e6e6"
       d="m 810.5,554.875 c -21.64719,0.64459 -31.52133,28.27768 -53.875,26.625 -9.64581,1.31065 -12.60129,12.70641 -11.75,20.9375 2.41475,13.52241 16.19168,20.39354 21.71875,32.34375 4.55866,9.31659 12.14203,16.45485 17.15625,25.375 3.25698,5.73434 -1.20988,20.93928 -2.4662,26.95343 4.4694,-3.63525 16.81093,-5.53749 21.52522,-6.84006 4.90795,-1.35608 8.76352,-10.18818 10.13616,-14.4968 4.03884,-12.67764 9.77157,-15.45114 21.36732,-22.86657 10.06639,-6.43741 2.7925,-22.03772 -3,-30.625 -7.75171,-13.9474 -8.08124,-30.45954 -6.53125,-45.9375 -1.15564,-6.56098 -7.3948,-12.33433 -14.28125,-11.46875 z"
       id="path450125" isChild="true"
       type="area" code="450125" />
    <path
       style="fill:#e6e6e6"
       d="m 746.90625,500.25 c -8.75778,0.34927 -11.10077,11.49865 -8.5625,18.3125 -2.41238,8.47576 -15.5576,11.89514 -13.4375,21.9375 1.05025,8.11834 -12.26137,10.35431 -15.3125,3.3125 -3.31543,-4.48058 -3.07433,-10.42953 -4,-15.78125 -2.98094,4.90908 -2.50576,13.22801 -7.625,15.96875 -2.72972,-3.64536 -9.0109,-2.61349 -10.125,1.8125 -4.83283,4.9739 -14.80419,4.60874 -17.28125,11.59375 3.55475,9.63661 -1.20297,20.42084 -8.125,27.3125 -7.19238,-5.44401 -15.73884,1.19316 -20.84375,6.3125 -4.28648,1.53592 -9.71059,0.70999 -12.78125,4.75 -5.73016,3.25638 -16.27462,2.59839 -17.375,10.90625 -2.04069,11.19411 6.27638,25.52272 18.84375,23.5 8.45422,-1.90634 14.0053,-9.97512 23.77026,-8.16335 8.42568,1.56328 13.26226,8.2072 19.76099,12.78835 4.65374,3.28056 6.83433,-4.06486 8.9946,-7.4455 3.03146,-4.74398 8.99214,-4.56782 14.49194,-6.35018 13.59685,-4.40642 27.60803,-9.7383 41.08717,-15.72286 8.23181,-5.76466 4.03601,-16.0372 12.70477,-22.32327 5.00159,-3.62685 9.34796,-3.12273 10.97152,-9.93944 2.7379,-10.26004 -5.03071,-19.21054 -11.5,-25.96875 7.18792,-5.90226 5.77412,-16.98518 2.28125,-24.71875 -2.54018,-5.29468 2.40455,-10.79316 7.375,-11.5625 3.77795,-3.89276 -0.75093,-9.77004 -5.4375,-9.6875 -2.52215,-0.76013 -5.21422,-0.98152 -7.875,-0.84375 z"
       id="path450124" isChild="true"
       type="area" code="450124" />
    <g
       id="g450108"
       type="data" code="450108"
       transform="matrix(0.98695514,0,0,1.0304851,837.81275,-50.27177)">
      <text
         id="text450108-lc"
         x="-122.67094"
         y="849.59302"
         style="font-size:12px;fill:#ffffff;filter:url(#green);font-family:Sans">22</text>
      <text
         id="text450108-cq"
         x="-98.986"
         y="849.59302"
         style="font-size:12px;fill:#ffffff;filter:url(#orange);font-family:Sans">22</text>
    </g>
    <path
       sodipodi:type="arc"
       style="fill:#d40000;fill-opacity:1;stroke:#dd66ff;stroke-opacity:0"
       id="D450108"
       sodipodi:cx="314.82144"
       sodipodi:cy="114.75"
       sodipodi:rx="3.0357144"
       sodipodi:ry="3.0357144"
       d="m 317.85716,114.75 c 0,1.67658 -1.35914,3.03571 -3.03572,3.03571 -1.67658,0 -3.03571,-1.35913 -3.03571,-3.03571 0,-1.67658 1.35913,-3.03571 3.03571,-3.03571 1.67658,0 3.03572,1.35913 3.03572,3.03571 z"
       transform="matrix(0.79797983,0,0,0.79797981,485.87495,700.71711)"
       type="point" />
    <text
       sodipodi:linespacing="125%"
       id="text450108"
       y="806.00299"
       x="717.32111"
       style="font-size:40px;font-style:normal;font-weight:normal;line-height:125%;letter-spacing:0px;word-spacing:0px;fill:#000000;fill-opacity:1;stroke:none;font-family:Sans"
       xml:space="preserve"><tspan
         style="font-size:12px;fill:#ffffff"
         y="806.00299"
         x="717.32111"
         id="tspan4510"
         sodipodi:role="line">良庆区</tspan></text>
    <g
       id="g450105"
       type="data" code="450105"
       transform="matrix(0.98695514,0,0,1.0304851,793.4677,-73.00242)">
      <text
         id="text450105-lc"
         x="-122.67094"
         y="849.59302"
         style="font-size:12px;fill:#ffffff;filter:url(#green);font-family:Sans">22</text>
      <text
         id="text450105-cq"
         x="-98.986"
         y="849.59302"
         style="font-size:12px;fill:#ffffff;filter:url(#orange);font-family:Sans">22</text>
    </g>
    <path
       sodipodi:type="arc"
       style="fill:#d40000;fill-opacity:1;stroke:#dd66ff;stroke-opacity:0"
       id="D450105"
       sodipodi:cx="314.82144"
       sodipodi:cy="114.75"
       sodipodi:rx="3.0357144"
       sodipodi:ry="3.0357144"
       d="m 317.85716,114.75 c 0,1.67658 -1.35914,3.03571 -3.03572,3.03571 -1.67658,0 -3.03571,-1.35913 -3.03571,-3.03571 0,-1.67658 1.35913,-3.03571 3.03571,-3.03571 1.67658,0 3.03572,1.35913 3.03572,3.03571 z"
       transform="matrix(0.79797983,0,0,0.79797981,466.13654,687.29156)"
       type="point" />
    <text
       sodipodi:linespacing="125%"
       id="text450105"
       y="784.04126"
       x="676.05188"
       style="font-size:40px;font-style:normal;font-weight:normal;line-height:125%;letter-spacing:0px;word-spacing:0px;fill:#000000;fill-opacity:1;stroke:none;font-family:Sans"
       xml:space="preserve"><tspan
         style="font-size:12px;fill:#ffffff"
         y="784.04126"
         x="676.05188"
         id="tspan4510-0"
         sodipodi:role="line">江南区</tspan></text>
    <g
       id="g450109"
       type="data" code="450109"
       transform="matrix(0.98695514,0,0,1.0304851,888.01894,-57.189315)">
      <text
         id="text450109-lc"
         x="-122.67094"
         y="849.59302"
         style="font-size:12px;fill:#ffffff;filter:url(#green);font-family:Sans">22</text>
      <text
         id="text450109-cq"
         x="-98.986"
         y="849.59302"
         style="font-size:12px;fill:#ffffff;filter:url(#orange);font-family:Sans">22</text>
    </g>
    <path
       sodipodi:type="arc"
       style="fill:#d40000;fill-opacity:1;stroke:#dd66ff;stroke-opacity:0"
       id="D450109"
       sodipodi:cx="314.82144"
       sodipodi:cy="114.75"
       sodipodi:rx="3.0357144"
       sodipodi:ry="3.0357144"
       d="m 317.85716,114.75 c 0,1.67658 -1.35914,3.03571 -3.03572,3.03571 -1.67658,0 -3.03571,-1.35913 -3.03571,-3.03571 0,-1.67658 1.35913,-3.03571 3.03571,-3.03571 1.67658,0 3.03572,1.35913 3.03572,3.03571 z"
       transform="matrix(0.79797983,0,0,0.79797981,522.85364,694.72196)"
       type="point" />
    <text
       sodipodi:linespacing="125%"
       id="text450109"
       y="800.39233"
       x="764.06696"
       style="font-size:40px;font-style:normal;font-weight:normal;line-height:125%;letter-spacing:0px;word-spacing:0px;fill:#000000;fill-opacity:1;stroke:none;font-family:Sans"
       xml:space="preserve"><tspan
         style="font-size:12px;fill:#ffffff"
         y="800.39233"
         x="764.06696"
         id="tspan4510-5"
         sodipodi:role="line">邕宁区</tspan></text>
    <g
       id="g450127"
       type="data" code="450127"
       transform="matrix(0.98695514,0,0,1.0304851,1014.8998,-102.42395)">
      <text
         id="text450127-lc"
         x="-122.67094"
         y="849.59302"
         style="font-size:12px;fill:#ffffff;filter:url(#green);font-family:Sans">22</text>
      <text
         id="text450127-cq"
         x="-98.986"
         y="849.59302"
         style="font-size:12px;fill:#ffffff;filter:url(#orange);font-family:Sans">22</text>
    </g>
    <path
       sodipodi:type="arc"
       style="fill:#d40000;fill-opacity:1;stroke:#dd66ff;stroke-opacity:0"
       id="D450127"
       sodipodi:cx="314.82144"
       sodipodi:cy="114.75"
       sodipodi:rx="3.0357144"
       sodipodi:ry="3.0357144"
       d="m 317.85716,114.75 c 0,1.67658 -1.35914,3.03571 -3.03572,3.03571 -1.67658,0 -3.03571,-1.35913 -3.03571,-3.03571 0,-1.67658 1.35913,-3.03571 3.03571,-3.03571 1.67658,0 3.03572,1.35913 3.03572,3.03571 z"
       transform="matrix(0.79797983,0,0,0.79797981,675.64986,696.39375)"
       type="point" />
    <text
       sodipodi:linespacing="125%"
       id="text450127"
       y="790.6073"
       x="894.02374"
       style="font-size:40px;font-style:normal;font-weight:normal;line-height:125%;letter-spacing:0px;word-spacing:0px;fill:#000000;fill-opacity:1;stroke:none;font-family:Sans"
       xml:space="preserve"><tspan
         style="font-size:12px;fill:#ffffff"
         y="790.6073"
         x="894.02374"
         id="tspan4510-1"
         sodipodi:role="line">横县</tspan></text>
    <g
       id="g450103"
       type="data" code="450103"
       transform="matrix(0.98695514,0,0,1.0304851,927.64627,-106.26161)">
      <text
         id="text450103-lc"
         x="-122.67094"
         y="849.59302"
         style="font-size:12px;fill:#ffffff;filter:url(#green);font-family:Sans">22</text>
      <text
         id="text450103-cq"
         x="-98.986"
         y="849.59302"
         style="font-size:12px;fill:#ffffff;filter:url(#orange);font-family:Sans">22</text>
    </g>
    <path
       sodipodi:type="arc"
       style="fill:#d40000;fill-opacity:1;stroke:#dd66ff;stroke-opacity:0"
       id="D450103"
       sodipodi:cx="314.82144"
       sodipodi:cy="114.75"
       sodipodi:rx="3.0357144"
       sodipodi:ry="3.0357144"
       d="m 317.85716,114.75 c 0,1.67658 -1.35914,3.03571 -3.03572,3.03571 -1.67658,0 -3.03571,-1.35913 -3.03571,-3.03571 0,-1.67658 1.35913,-3.03571 3.03571,-3.03571 1.67658,0 3.03572,1.35913 3.03572,3.03571 z"
       transform="matrix(0.79797983,0,0,0.79797981,506.48985,674.25987)"
       type="point" />
    <text
       sodipodi:linespacing="125%"
       id="text450103"
       y="769.24243"
       x="762.00299"
       style="font-size:40px;font-style:normal;font-weight:normal;line-height:125%;letter-spacing:0px;word-spacing:0px;fill:#000000;fill-opacity:1;stroke:none;font-family:Sans"
       xml:space="preserve"><tspan
         style="font-size:12px;fill:#ffffff"
         y="769.24243"
         x="762.00299"
         id="tspan4510-7"
         sodipodi:role="line">青秀区</tspan></text>
    <g
       id="g450107"
       type="data" code="450107"
       transform="matrix(0.98695514,0,0,1.0304851,793.04247,-130.61685)">
      <text
         id="text450107-lc"
         x="-122.67094"
         y="849.59302"
         style="font-size:12px;fill:#ffffff;filter:url(#green);font-family:Sans">22</text>
      <text
         id="text450107-cq"
         x="-98.986"
         y="849.59302"
         style="font-size:12px;fill:#ffffff;filter:url(#orange);font-family:Sans">22</text>
    </g>
    <path
       sodipodi:type="arc"
       style="fill:#d40000;fill-opacity:1;stroke:#dd66ff;stroke-opacity:0"
       id="D450107"
       sodipodi:cx="314.82144"
       sodipodi:cy="114.75"
       sodipodi:rx="3.0357144"
       sodipodi:ry="3.0357144"
       d="m 317.85716,114.75 c 0,1.67658 -1.35914,3.03571 -3.03572,3.03571 -1.67658,0 -3.03571,-1.35913 -3.03571,-3.03571 0,-1.67658 1.35913,-3.03571 3.03571,-3.03571 1.67658,0 3.03572,1.35913 3.03572,3.03571 z"
       transform="matrix(0.79797983,0,0,0.79797981,469.78537,666.04918)"
       type="point" />
    <text
       sodipodi:linespacing="125%"
       id="text450107"
       y="761.56964"
       x="665.47504"
       style="font-size:40px;font-style:normal;font-weight:normal;line-height:125%;letter-spacing:0px;word-spacing:0px;fill:#000000;fill-opacity:1;stroke:none;font-family:Sans"
       xml:space="preserve"><tspan
         style="font-size:12px;fill:#ffffff"
         y="761.56964"
         x="665.47504"
         id="tspan4510-9"
         sodipodi:role="line">西乡塘区</tspan></text>
    <g
       id="g450102"
       type="data" code="450102"
       transform="matrix(0.98695514,0,0,1.0304851,870.38223,-142.56511)">
      <text
         id="text450102-lc"
         x="-122.67094"
         y="849.59302"
         style="font-size:12px;fill:#ffffff;filter:url(#green);font-family:Sans">22</text>
      <text
         id="text450102-cq"
         x="-98.986"
         y="849.59302"
         style="font-size:12px;fill:#ffffff;filter:url(#orange);font-family:Sans">22</text>
    </g>
    <path
       sodipodi:type="arc"
       style="fill:#d40000;fill-opacity:1;stroke:#dd66ff;stroke-opacity:0"
       id="D450102"
       sodipodi:cx="314.82144"
       sodipodi:cy="114.75"
       sodipodi:rx="3.0357144"
       sodipodi:ry="3.0357144"
       d="m 317.85716,114.75 c 0,1.67658 -1.35914,3.03571 -3.03572,3.03571 -1.67658,0 -3.03571,-1.35913 -3.03571,-3.03571 0,-1.67658 1.35913,-3.03571 3.03571,-3.03571 1.67658,0 3.03572,1.35913 3.03572,3.03571 z"
       transform="matrix(0.79797983,0,0,0.79797981,498.06704,658.79405)"
       type="point" />
    <text
       sodipodi:linespacing="125%"
       id="text450102"
       y="750.39209"
       x="753.19568"
       style="font-size:40px;font-style:normal;font-weight:normal;line-height:125%;letter-spacing:0px;word-spacing:0px;fill:#000000;fill-opacity:1;stroke:none;font-family:Sans"
       xml:space="preserve"><tspan
         style="font-size:12px;fill:#ffffff"
         y="750.39209"
         x="753.19568"
         id="tspan4510-4"
         sodipodi:role="line">兴宁区</tspan></text>
    <g
       id="g450123"
       type="data" code="450123"
       transform="matrix(0.98695514,0,0,1.0304851,715.30839,-166.22819)">
      <text
         id="text450123-lc"
         x="-122.67094"
         y="849.59302"
         style="font-size:12px;fill:#ffffff;filter:url(#green);font-family:Sans">22</text>
      <text
         id="text450123-cq"
         x="-98.986"
         y="849.59302"
         style="font-size:12px;fill:#ffffff;filter:url(#orange);font-family:Sans">22</text>
    </g>
    <path
       sodipodi:type="arc"
       style="fill:#d40000;fill-opacity:1;stroke:#dd66ff;stroke-opacity:0"
       id="D450123"
       sodipodi:cx="314.82144"
       sodipodi:cy="114.75"
       sodipodi:rx="3.0357144"
       sodipodi:ry="3.0357144"
       d="m 317.85716,114.75 c 0,1.67658 -1.35914,3.03571 -3.03572,3.03571 -1.67658,0 -3.03571,-1.35913 -3.03571,-3.03571 0,-1.67658 1.35913,-3.03571 3.03571,-3.03571 1.67658,0 3.03572,1.35913 3.03572,3.03571 z"
       transform="matrix(0.79797983,0,0,0.79797981,351.06726,596.98819)"
       type="point" />
    <text
       sodipodi:linespacing="125%"
       id="text450123"
       y="690.9707"
       x="605.96661"
       style="font-size:40px;font-style:normal;font-weight:normal;line-height:125%;letter-spacing:0px;word-spacing:0px;fill:#000000;fill-opacity:1;stroke:none;font-family:Sans"
       xml:space="preserve"><tspan
         style="font-size:12px;fill:#ffffff"
         y="690.9707"
         x="605.96661"
         id="tspan4510-6"
         sodipodi:role="line">隆安</tspan></text>
    <g
       id="g450126"
       type="data" code="450126"
       transform="matrix(0.98695514,0,0,1.0304851,946.85172,-182.18195)">
      <text
         id="text450126-lc"
         x="-122.67094"
         y="849.59302"
         style="font-size:12px;fill:#ffffff;filter:url(#green);font-family:Sans">22</text>
      <text
         id="text450126-cq"
         x="-98.986"
         y="849.59302"
         style="font-size:12px;fill:#ffffff;filter:url(#orange);font-family:Sans">22</text>
    </g>
    <path
       sodipodi:type="arc"
       style="fill:#d40000;fill-opacity:1;stroke:#dd66ff;stroke-opacity:0"
       id="D450126"
       sodipodi:cx="314.82144"
       sodipodi:cy="114.75"
       sodipodi:rx="3.0357144"
       sodipodi:ry="3.0357144"
       d="m 317.85716,114.75 c 0,1.67658 -1.35914,3.03571 -3.03572,3.03571 -1.67658,0 -3.03571,-1.35913 -3.03571,-3.03571 0,-1.67658 1.35913,-3.03571 3.03571,-3.03571 1.67658,0 3.03572,1.35913 3.03572,3.03571 z"
       transform="matrix(0.79797983,0,0,0.79797981,578.9908,580.20685)"
       type="point" />
    <text
       sodipodi:linespacing="125%"
       id="text450126"
       y="674.76819"
       x="833.56311"
       style="font-size:40px;font-style:normal;font-weight:normal;line-height:125%;letter-spacing:0px;word-spacing:0px;fill:#000000;fill-opacity:1;stroke:none;font-family:Sans"
       xml:space="preserve"><tspan
         style="font-size:12px;fill:#ffffff"
         y="674.76819"
         x="833.56311"
         id="tspan4510-16"
         sodipodi:role="line">宾阳</tspan></text>
    <g
       id="g450110"
       type="data" code="450110"
       transform="matrix(0.98695514,0,0,1.0304851,824.85881,-208.60512)">
      <text
         id="text450110-lc"
         x="-122.67094"
         y="849.59302"
         style="font-size:12px;fill:#ffffff;filter:url(#green);font-family:Sans">22</text>
      <text
         id="text450110-cq"
         x="-98.986"
         y="849.59302"
         style="font-size:12px;fill:#ffffff;filter:url(#orange);font-family:Sans">22</text>
    </g>
    <path
       sodipodi:type="arc"
       style="fill:#d40000;fill-opacity:1;stroke:#dd66ff;stroke-opacity:0"
       id="D450110"
       sodipodi:cx="314.82144"
       sodipodi:cy="114.75"
       sodipodi:rx="3.0357144"
       sodipodi:ry="3.0357144"
       d="m 317.85716,114.75 c 0,1.67658 -1.35914,3.03571 -3.03572,3.03571 -1.67658,0 -3.03571,-1.35913 -3.03571,-3.03571 0,-1.67658 1.35913,-3.03571 3.03571,-3.03571 1.67658,0 3.03572,1.35913 3.03572,3.03571 z"
       transform="matrix(0.79797983,0,0,0.79797981,471.68819,601.29196)"
       type="point" />
    <text
       sodipodi:linespacing="125%"
       id="text450110"
       y="683.11572"
       x="710.51349"
       style="font-size:40px;font-style:normal;font-weight:normal;line-height:125%;letter-spacing:0px;word-spacing:0px;fill:#000000;fill-opacity:1;stroke:none;font-family:Sans"
       xml:space="preserve"><tspan
         style="font-size:12px;fill:#ffffff"
         y="683.11572"
         x="710.51349"
         id="tspan4510-74"
         sodipodi:role="line">武鸣</tspan></text>
    <g
       id="g450125"
       type="data" code="450125"
       transform="matrix(0.98695514,0,0,1.0304851,904.36236,-253.0732)">
      <text
         id="text450125-lc"
         x="-122.67094"
         y="849.59302"
         style="font-size:12px;fill:#ffffff;filter:url(#green);font-family:Sans">22</text>
      <text
         id="text450125-cq"
         x="-98.986"
         y="849.59302"
         style="font-size:12px;fill:#ffffff;filter:url(#orange);font-family:Sans">22</text>
    </g>
    <path
       sodipodi:type="arc"
       style="fill:#d40000;fill-opacity:1;stroke:#dd66ff;stroke-opacity:0"
       id="D450125"
       sodipodi:cx="314.82144"
       sodipodi:cy="114.75"
       sodipodi:rx="3.0357144"
       sodipodi:ry="3.0357144"
       d="m 317.85716,114.75 c 0,1.67658 -1.35914,3.03571 -3.03572,3.03571 -1.67658,0 -3.03571,-1.35913 -3.03571,-3.03571 0,-1.67658 1.35913,-3.03571 3.03571,-3.03571 1.67658,0 3.03572,1.35913 3.03572,3.03571 z"
       transform="matrix(0.79797983,0,0,0.79797981,535.08299,544.99882)"
       type="point" />
    <text
       sodipodi:linespacing="125%"
       id="text450125"
       y="638.9574"
       x="792.51117"
       style="font-size:40px;font-style:normal;font-weight:normal;line-height:125%;letter-spacing:0px;word-spacing:0px;fill:#000000;fill-opacity:1;stroke:none;font-family:Sans"
       xml:space="preserve"><tspan
         style="font-size:12px;fill:#ffffff"
         y="638.9574"
         x="792.51117"
         id="tspan4510-14"
         sodipodi:role="line">上林</tspan></text>
    <g
       id="g450124"
       type="data" code="450124"
       transform="matrix(0.98695514,0,0,1.0304851,815.2867,-284.60038)">
      <text
         id="text450124-lc"
         x="-122.67094"
         y="849.59302"
         style="font-size:12px;fill:#ffffff;filter:url(#green);font-family:Sans">22</text>
      <text
         id="text450124-cq"
         x="-98.986"
         y="849.59302"
         style="font-size:12px;fill:#ffffff;filter:url(#orange);font-family:Sans">22</text>
    </g>
    <path
       sodipodi:type="arc"
       style="fill:#d40000;fill-opacity:1;stroke:#dd66ff;stroke-opacity:0"
       id="D450124"
       sodipodi:cx="314.82144"
       sodipodi:cy="114.75"
       sodipodi:rx="3.0357144"
       sodipodi:ry="3.0357144"
       d="m 317.85716,114.75 c 0,1.67658 -1.35914,3.03571 -3.03572,3.03571 -1.67658,0 -3.03571,-1.35913 -3.03571,-3.03571 0,-1.67658 1.35913,-3.03571 3.03571,-3.03571 1.67658,0 3.03572,1.35913 3.03572,3.03571 z"
       transform="matrix(0.79797983,0,0,0.79797981,443.46361,478.66312)"
       type="point" />
    <text
       sodipodi:linespacing="125%"
       id="text450124"
       y="572.98096"
       x="700.43542"
       style="font-size:40px;font-style:normal;font-weight:normal;line-height:125%;letter-spacing:0px;word-spacing:0px;fill:#000000;fill-opacity:1;stroke:none;font-family:Sans"
       xml:space="preserve"><tspan
         style="font-size:12px;fill:#ffffff"
         y="572.98096"
         x="700.43542"
         id="tspan4510-3"
         sodipodi:role="line">马山区</tspan></text>
  </g>
</svg>
