<?xml version="1.0" encoding="UTF-8" standalone="no"?>
<!-- Created with Inkscape (http://www.inkscape.org/) -->

<svg
   xmlns:dc="http://purl.org/dc/elements/1.1/"
   xmlns:cc="http://creativecommons.org/ns#"
   xmlns:rdf="http://www.w3.org/1999/02/22-rdf-syntax-ns#"
   xmlns:svg="http://www.w3.org/2000/svg"
   xmlns="http://www.w3.org/2000/svg"
   xmlns:sodipodi="http://sodipodi.sourceforge.net/DTD/sodipodi-0.dtd"
   xmlns:inkscape="http://www.inkscape.org/namespaces/inkscape"
   id="svg3086"
   version="1.1"
   inkscape:version="0.48.5 r10040"
   width="100%"
   height="100%"
   viewBox="0 0 460 460"
   sodipodi:docname="guilin2.svg">
  <metadata
     id="metadata3092">
    <rdf:RDF>
      <cc:Work
         rdf:about="">
        <dc:format>image/svg+xml</dc:format>
        <dc:type
           rdf:resource="http://purl.org/dc/dcmitype/StillImage" />
        <dc:title></dc:title>
      </cc:Work>
    </rdf:RDF>
  </metadata>
  <defs
     id="defs3090">
    <filter
       color-interpolation-filters="sRGB"
       x="-0.1"
       y="0"
       width="1.2"
       height="1"
       id="green">
      <feFlood
         flood-color="#008000"
         id="feFlood6"
         result="result1" />
      <feComposite
         in="SourceGraphic"
         id="feComposite8"
         in2="result1" />
    </filter>
    <filter
       color-interpolation-filters="sRGB"
       x="-0.1"
       y="0"
       width="1.2"
       height="1"
       id="orange">
      <feFlood
         flood-color="#ff7f2a"
         id="feFlood11"
         result="result1" />
      <feComposite
         in="SourceGraphic"
         id="feComposite13"
         in2="result1" />
    </filter>
  </defs>
  <sodipodi:namedview
     pagecolor="#ffffff"
     bordercolor="#666666"
     borderopacity="1"
     objecttolerance="10"
     gridtolerance="10"
     guidetolerance="10"
     inkscape:pageopacity="0"
     inkscape:pageshadow="2"
     inkscape:window-width="1920"
     inkscape:window-height="1018"
     id="namedview3088"
     showgrid="false"
     inkscape:zoom="1.8391304"
     inkscape:cx="230"
     inkscape:cy="208.25059"
     inkscape:window-x="-8"
     inkscape:window-y="-8"
     inkscape:window-maximized="1"
     inkscape:current-layer="svg3086" />
  <g
     id="g3096"
     transform="translate(-652.48227,-60.898345)">
    <path
       style="fill:#e6e6e6"
       d="m 908.71491,387.72259 c -3.76297,5.28607 -4.95441,10.53471 -3.30866,17.65241 1.25553,5.43005 -3.35348,8.1934 -7.47267,9.41017 -5.61973,1.66002 -1.266,9.89614 -1.78185,16.04762 -0.96865,11.55113 -9.858,16.9791 -5.93083,25.1504 3.17166,6.59931 1.99406,15.12915 5.46401,21.46357 1.94942,2.8585 10.651,1.46545 11.31509,7.61574 0.41887,3.87921 -0.46587,7.91543 4.1875,10.25 5.74264,2.88105 2.65514,7.24632 8.25,9 4.59599,1.45509 9.54562,2.53893 14.3125,3.03125 6.60397,-2.52368 0.54776,-14.26234 8.75,-15.25 5.31415,0.63428 3.33281,6.74334 4.15625,10.1875 1.78099,4.76559 3.58845,9.76249 4.84375,14.5625 3.42063,2.86579 7.2179,-2.32519 8.78125,-5.0625 1.33363,-1.75051 2.24032,-5.79902 4.6875,-5.5625 0.5549,5.82337 8.2199,5.67681 11.40625,2.03125 3.30691,-2.88446 7.74211,-8.80022 2.96875,-12.5 -1.92736,-1.18285 -5.65283,-0.98737 -3.6875,-4.25 4.57834,-6.0094 7.86354,-13.22438 9.3125,-20.75 0.16301,-7.99504 -5.16143,-15.32408 -10.5,-20.5625 0.11039,-2.89965 4.3229,-7.19526 -0.0312,-8.9375 -6.04403,2.02925 -11.30428,-2.5304 -16.46875,-5.15625 -9.51163,-4.83614 -6.96527,-19.67916 -14.9261,-26.22823 -2.3633,-1.94419 -10.60387,-6.17492 -12.691,-9.35754 -3.72939,-5.68684 -3.72133,-6.07572 -9.84884,-10.36358 -3.52037,-2.46346 -7.40961,-5.30786 -8.52549,-9.15053 -1.70045,2.61488 -2.41449,5.53752 -3.26246,6.72872 z"
       id="path450330"
       onmouseout="changeColorOut('path450330')"
       onmouseover="changeColorOver('path450330')"
       inkscape:connector-curvature="0"
       sodipodi:nodetypes="ssssscsscccccccccccccsssscs" />
    <path
       style="fill:#e6e6e6"
       d="m 819,415.09375 c -4.81312,2.31626 -13.15615,3.0304 -14.22732,9.72267 -0.57055,3.56458 -2.99104,7.15907 -1.02268,10.55858 -0.45713,3.50698 3.4869,4.2392 5.84375,5.3125 -2.63828,5.39127 -2.58144,11.6866 0.0312,16.9375 -0.28877,5.11255 -7.13346,7.37768 -6.15625,12.8125 -0.54037,3.63797 -5.18073,10.6664 0.28125,12.3125 3.86696,1.14215 8.48969,0.21567 12.15625,0.625 0.8317,4.55342 0.79643,8.96908 -0.125,13.53125 -0.76414,4.69472 4.19944,7.4255 8.1875,5.5625 1.80612,0.0349 6.929,-2.48463 4.90625,1.34375 -1.92067,7.19736 6.64191,10.0012 11.78125,11.71875 4.37697,-0.15366 5.51423,-6.28099 10.15625,-6.6875 4.79696,-1.44952 10.36399,-3.74659 14.84375,-0.8125 4.49436,1.58548 6.3269,-3.46852 5.6875,-6.90625 2.71523,2.73057 6.40216,1.18757 7.90625,-2.03125 1.74249,-2.01458 2.77256,-7.53505 6,-7.0625 1.16192,2.55111 1.54782,8.56759 5.875,6.6875 2.40109,-1.48385 2.81935,-6.17 6.65625,-6.21875 5.39422,-0.87484 5.60294,6.2841 9.96875,7.75 1.59857,1.91134 7.42525,-1.93366 3.81554,-3.78273 -2.7591,-1.41334 -4.7553,-3.02153 -4.69528,-6.53103 0.0924,-5.40184 -1.27348,-9.42924 -7.32953,-9.69572 -3.22291,-0.14181 -5.31897,-2.92177 -6.01918,-6.04288 -1.47926,-6.59361 -1.03974,-12.64986 -4.06509,-18.99052 -2.515,-5.27104 3.14115,-12.80678 -3.30021,-16.58212 -4.89473,-3.24396 -13.01266,-6.23003 -18.86791,-6.10151 -6.50283,0.14275 -12.08532,0.98432 -14.43697,-0.38965 -3.39569,-1.98397 -2.73067,-9.23845 -8.10137,-9.79009 -3.77576,-0.31749 -7.65504,1.70722 -11.03125,-1.46875 -3.80365,-3.57806 -9.35627,-5.94446 -14.71875,-5.78125 z"
       id="path450331"
       onmouseout="changeColorOut('path450331')"
       onmouseover="changeColorOver('path450331')"
       inkscape:connector-curvature="0"
       sodipodi:nodetypes="csccccccccccccccccccssssscsscscc" />
    <path
       style="fill:#e6e6e6"
       d="m 951.29021,424.93111 c -1.18651,-5.93228 -4.01213,-12.27375 -8.43762,-16.16142 -4.42857,-3.89038 -10.00067,-4.89306 -13.10716,-10.96835 -3.39403,-6.63761 -7.27514,-6.78713 -11.86683,-10.3389 -4.77371,-3.88424 -6.9935,-9.64369 -10.46093,-14.71216 -3.3133,-4.84318 -6.08132,-13.51556 -6.85505,-19.42202 -0.28431,-2.17031 -3.57651,-5.54696 -5.85007,-7.15586 2.55208,-0.7933 4.43662,-1.92212 6.98367,-4.12866 3.73047,-3.23176 1.91458,-8.84262 5.27346,-8.84218 5.91617,7.7e-4 11.5808,1.2809 17.13704,3.44691 6.31767,3.26186 4.80224,-7.58257 -0.50344,-11.28475 -5.353,-3.73519 -7.20715,-10.61668 -7.08895,-12.94515 3.58452,2.97294 7.37426,4.85766 8.95918,5.60522 5.05176,2.3828 8.92772,5.67028 14.85681,2.68259 4.5645,-3.97779 7.1063,-13.1062 14.94032,-10.60176 5.20663,4.80665 10.00555,-3.26098 15.756,-2.41576 5.78124,-1.88862 11.08115,-5.25997 17.07622,-6.77712 6.2315,-2.94195 7.84402,10.16043 2.02286,11.84394 -4.76596,3.98372 -10.58733,6.24963 -15.88878,9.32843 -4.87475,4.75525 -6.28893,11.77688 -8.22702,18.04549 -3.34417,6.37842 -3.73797,14.29564 0.0148,20.58047 2.06485,4.9128 4.43105,9.91371 5.00707,14.9539 6.36255,-0.74639 12.66243,-2.34872 18.96467,-3.51179 4.0964,3.71782 7.17951,11.97436 14.09904,7.18002 5.0572,3.97453 0.6954,12.22937 2.189,17.97369 0.7716,4.6238 1.7059,9.18393 -3.3971,11.29009 -1.5153,6.46089 -8.87653,6.17878 -10.55152,12.19946 -3.24228,6.1418 -11.89616,5.41988 -14.46776,11.63709 -1.86916,3.95271 -4.4306,7.82515 -10.69328,6.5781 -6.26268,-1.24704 -14.37784,-6.54594 -15.88463,-14.07952 z"
       id="path450332"
       onmouseout="changeColorOut('path450332')"
       onmouseover="changeColorOver('path450332')"
       inkscape:connector-curvature="0"
       sodipodi:nodetypes="ssscsscsscscsccccccccccccccccs" />
    <path
       style="fill:#e6e6e6"
       d="m 854.90995,432.25935 c -5.3193,0.006 -3.73842,-11.81181 -11.11571,-10.61682 -4.52132,0.73238 -7.48725,1.13891 -12.73936,-3.80342 -1.67223,-1.5736 -6.72361,-2.89253 -10.12354,-3.45866 0.74605,-2.53717 0.90204,-4.24394 0.94902,-7.31201 0.0393,-2.56478 -1.06252,-6.76742 -1.63815,-8.83076 1.1915,-0.36417 3.31695,-0.83194 7.09203,-4.08301 4.25905,-3.66786 7.19536,-5.10791 11.22767,-8.19576 3.66628,-2.80754 4.50158,-4.99914 3.01338,-9.59557 -1.65421,-5.10914 -3.07086,-8.66421 1.77961,-12.07952 4.18073,-2.94373 10.00849,-6.8059 14.36388,-8.88792 6.35743,-3.03905 10.38539,-4.45032 18.27898,-5.53202 4.14428,3.52766 8.15442,1.24752 12.24505,-1.37132 5.73844,-3.67378 9.78524,-0.48834 11.66785,5.62785 2.22234,7.21991 3.12527,14.58208 8.02209,20.58929 3.67911,4.51338 1.96156,10.54604 -1.32527,15.22445 -2.92909,4.16921 -2.55987,6.68406 -2.40377,12.38086 0.0642,2.34286 1.73141,7.20198 -2.0853,9.69327 -3.86708,2.52417 -9.06438,2.21994 -7.65554,8.66811 2.72597,12.47661 -0.95691,19.07492 -3.79889,23.11465 -2.29566,-5.43789 -5.44226,-7.36078 -12.33416,-9.45319 -12.41892,-3.77044 -13.83843,-2.08882 -23.41987,-2.0785 z"
       id="path450321"
       onmouseout="changeColorOut('path450321')"
       onmouseover="changeColorOver('path450321')"
       inkscape:connector-curvature="0"
       sodipodi:nodetypes="ssscscssssscssssssscss" />
    <path
       style="fill:#e6e6e6"
       d="m 729.65625,268.96875 c -6.20572,3.95267 -3.01065,12.71866 -6.25,18.34375 0.70337,10.84748 -2.83864,20.9837 -8.03125,30.28125 -2.40532,5.62187 -9.47735,7.25009 -11.34375,12.9375 -1.51786,4.97665 2.05937,9.77349 2.6875,14.15625 -2.33578,6.18134 -2.99647,13.01706 -3.0625,19.4375 -6.55555,6.3932 -2.2207,16.16086 -2.875,23.9375 -0.80483,3.28193 -2.76898,10.7709 2.8125,10.625 2.5993,-1.47207 5.39507,-4.41874 9.0625,-3.0625 8.77599,3.27744 19.05608,9.12491 28.34375,4.71875 2.97635,4.12796 12.05187,1.87009 11.46875,8.5625 -0.47471,5.50464 6.55776,5.05284 9.96875,3.5 2.13339,4.27455 -0.43897,12.80265 5.625,14.125 4.27297,-1.684 4.33503,5.0829 7.6875,6.59375 2.56654,1.48407 6.16766,3.77529 8.65625,0.59375 1.33673,-1.46306 3.38362,-4.29719 4.71875,-0.96875 1.85226,4.38201 10.13106,7.56129 12.15625,1.78125 1.20271,-4.2379 1.11924,-8.56079 3.15625,-12.375 2.01211,-3.76759 6.37269,-4.76956 10.15625,-6.17846 2.30656,-0.85891 3.49237,-1.15352 5.35558,-2.04893 1.76709,-2.76974 1.58156,-11.71533 -0.15697,-15.46723 -4.92271,-2.25363 -5.17696,-2.89995 -6.01038,-8.60384 -0.96003,-6.57038 -2.92779,-13.59948 -3.17341,-20.16024 -0.27207,-7.26725 -5.42142,-12.79066 -8.82733,-18.82255 -2.86957,-5.08203 -7.49965,-11.44568 -9.22577,-17.46166 -1.57572,-5.49183 -10.66475,-4.05527 -15.875,-1.72348 -4.18996,1.87518 -10.51696,2.9203 -14.24062,-1.9601 -4.97248,-6.51716 -5.24968,-5.8369 -11.94149,-9.01796 -7.51647,-3.57308 4.63035,-9.57337 0.0805,-15.37753 -1.58636,-2.77632 -6.10366,-2.65831 -5.52844,-7.37715 0.56741,-4.65483 2.07745,-12.20848 3.01918,-18.30754 0.36122,-2.3394 1.12744,-8.0106 1.68133,-11.55525 -3.24283,-0.42077 -4.79462,-0.62698 -7.47443,0.81947 -3.05469,1.6488 -5.39671,6.6285 -8.56487,3.35064 -1.12228,-1.16114 -2.43717,-3.98668 -4.05538,-3.29569 z"
       id="path450326"
       onmouseout="changeColorOut('path450326')"
       onmouseover="changeColorOver('path450326')"
       inkscape:connector-curvature="0"
       sodipodi:nodetypes="cccccccccccccccccssccssssssscsscssc" />
    <path
       style="fill:#e6e6e6"
       d="m 814.2558,388.91531 c -1.3367,-6.46073 -2.32596,-13.20848 -2.97478,-19.94933 -0.51952,-5.39751 -2.78577,-9.25503 -8.11184,-17.04603 -3.87292,-5.66533 -6.76664,-10.98574 -9.41122,-18.58033 -2.63572,-7.56915 -13.47253,-4.10647 -19.75042,-1.56739 -7.79424,3.15236 -11.64281,-4.84259 -17.07994,-8.967 -5.23697,-3.97258 -10.70523,-2.66117 -6.56999,-8.94408 4.42915,-6.72946 1.18974,-9.66578 -3.92727,-13.26751 -1.88524,-1.32697 1.45163,-15.41715 3.11279,-22.81155 0.3263,-3.29112 0.58297,-6.58871 0.87707,-9.88283 -5.28833,-3.38552 -10.04687,1.70711 -14.11887,4.84652 -5.62427,-1.81081 -8.72051,-16.10701 0.10358,-14.44379 5.67497,0.80626 12.13179,-2.2825 7.0248,-9.09104 -3.85184,-5.1352 3.95068,-11.78165 10.95885,-7.82198 7.1108,4.01766 8.69399,-9.374 9.66752,-14.90989 0.64807,-3.68519 -7.732,-7.01449 -0.15132,-8.6529 7.43014,-1.60587 12.92576,-0.96887 20.73494,-1.52053 4.41907,-0.31218 12.08396,1.36598 9.37812,7.29803 -3.23469,7.09145 8.247,9.44767 6.62069,12.13365 -5.48538,9.05952 -3.12098,15.05117 -3.57015,21.05581 -0.35816,4.78796 -0.3395,11.50841 2.70613,15.22013 3.66172,4.46255 11.83699,4.18472 12.13123,4.33462 0.46378,0.23628 -3.11927,2.9846 -1.55205,6.76175 1.56722,3.77715 7.08417,13.12824 11.48683,12.18544 -0.49148,3.35479 -3.91318,7.74005 -3.90245,12.01786 0.0107,4.27781 1.03453,11.37011 2.09695,14.54548 1.38742,4.14671 5.38693,8.21104 5.64273,11.92508 0.21122,6.86546 -1.45936,9.26656 0.58813,15.88655 3.05313,6.56782 11.77523,7.38842 15.5783,14.48886 -5.60129,4.60587 -1.35832,9.87163 -0.61473,15.59102 0.43362,3.33518 -3.93999,5.39395 -6.7377,8.25255 -2.12576,2.17202 -4.05262,2.92479 -9.03561,6.74667 -3.28181,2.51709 -4.40966,2.94286 -6.61755,2.55174 -1.76835,-0.31326 -3.22059,-1.80172 -4.58277,-8.38558 z"
       id="path450312"
       onmouseout="changeColorOut('path450312')"
       onmouseover="changeColorOver('path450312')"
       inkscape:connector-curvature="0"
       sodipodi:nodetypes="ssssssssccccssssssssssscsscccsssss" />
    <path
       style="fill:#e6e6e6"
       d="m 835.50488,356.76103 c -5.59416,-3.59828 -9.05354,-5.77484 -9.32929,-9.33032 -0.13631,-1.75756 0.84634,-11.37609 0.41983,-13.75019 1.52018,0.0606 2.02342,1.41788 5.86612,0.59616 5.02537,-1.07462 7.08593,-2.61565 5.22974,-6.63497 -1.25136,-2.70963 -0.63575,-3.00942 0.46528,-4.63953 1.14468,-1.69472 2.5063,-2.49287 0.8133,-5.26578 -1.06594,-1.74587 -0.95835,-2.2635 0.73066,-3.51534 1.5057,-1.11597 8.00435,-1.05662 10.6865,-1.87919 0.18304,2.25326 -0.0136,3.23741 -0.0533,5.99766 -0.0605,4.20498 0.23489,5.26993 0.40202,8.59052 0.36145,7.18191 1.91329,7.2154 6.90705,3.72144 2.03851,-1.42627 3.29951,1.37645 4.32976,2.969 0.78162,1.20821 2.4858,3.86628 5.56553,7.02073 5.17275,5.29825 5.67552,6.36276 7.90828,8.53785 -1.27674,0.29018 -6.6858,0.82353 -9.90407,1.766 -2.15064,0.62982 -3.12942,1.0254 -6.20957,2.57656 -4.81967,2.42717 -5.84775,3.36923 -9.8481,5.91404 -2.94637,1.87433 -5.04168,3.05355 -6.77454,3.85316 -3.52164,-3.80023 -5.77688,-5.60907 -7.2052,-6.5278 z"
       id="path450305"
       onmouseout="changeColorOut('path450305')"
       onmouseover="changeColorOver('path450305')"
       inkscape:connector-curvature="0"
       sodipodi:nodetypes="sscssssscssssscasscs" />
    <path
       style="fill:#e6e6e6"
       d="m 860.55635,330.28204 c -2.44444,-4.22447 -9.43919,9.20643 -9.21609,-4.46419 0.11334,-6.94491 -1.70736,-14.28557 2.3895,-20.62289 3.60266,-6.1624 -2.79253,-12.89361 -5.21784,-17.7771 -3.15196,-6.34663 -6.52968,-5.67471 -11.84262,-0.60658 -2.05316,1.95855 -4.49101,1.84706 -6.9041,1.95239 -2.41309,0.10533 -4.69494,0.53334 -6.11664,3.88849 -1.47948,3.4915 -3.61131,2.56663 -5.68795,0.51569 -1.65468,-1.63421 -4.98454,-6.47035 -6.52212,-8.54988 -3.49946,-4.7329 6.19506,-10.19881 -1.85485,-9.25804 -5.46829,0.63906 -9.16803,-3.03934 -10.98597,-7.25849 -2.3742,-5.51013 -0.48955,-12.13659 -0.96401,-19.47914 -0.66581,-10.30386 7.98201,-12.56139 0.5862,-16.92734 -8.37437,-5.56621 -1.01845,-15.07662 4.7725,-18.06627 7.34235,-3.79059 8.77796,-10.6676 11.97999,-17.15611 3.35271,-6.57013 9.36798,-2.99841 12.00763,7.04967 2.08275,7.9282 1.29159,17.91674 2.93594,20.59134 2.61955,4.2608 5.41698,5.23907 9.84879,9.29373 8.69804,7.95783 10.63653,-0.84876 14.86301,4.24552 5.90691,7.11973 6.00068,5.99004 7.66565,13.29684 0.37827,1.66005 5.84929,2.65493 10.10683,1.68205 6.28078,-1.4352 2.18083,8.64242 2.64959,13.9482 0.61943,7.01123 8.84221,10.58543 8.61642,18.25487 5.89322,3.14893 14.51366,-0.28059 21.4619,1.34231 6.97127,0.70933 15.80967,7.09858 13.26679,14.93692 -2.55884,6.41064 -4.04725,13.29353 -0.34065,19.73393 1.3572,4.58005 13.64404,11.20665 8.34047,15.28774 -5.73718,-1.19108 -9.4955,-3.29293 -15.7127,-3.57666 -2.07755,-0.0948 -7.02286,-1.08455 -6.66401,1.5377 0.23318,5.17688 -4.20125,10.28269 -9.4163,10.98322 -5.99808,0.80571 -11.62438,9.8283 -18.18532,3.4113 -6.56093,-6.417 -12.08689,-11.6885 -15.86004,-18.20922 z"
       id="path450323"
       onmouseout="changeColorOut('path450323')"
       onmouseover="changeColorOver('path450323')"
       inkscape:connector-curvature="0"
       sodipodi:nodetypes="sscssssssssscscssssssscccccscscs" />
    <path
       style="fill:#e6e6e6"
       d="m 828.6875,305.53125 c -1.11517,4.02666 -3.89863,7.73669 -10.24889,5.30346 0.91415,5.98375 1.92504,10.80566 4.79425,15.48872 2.12269,3.46461 3.05484,8.02546 7.03044,7.45782 4.36302,-0.62297 9.25258,-1.43054 6.27578,-6.73751 -2.09057,-4.65894 4.77753,-3.71295 1.17967,-10.01249 -1.85926,-3.25541 -2.2305,-7.55806 -4.13213,-11.31939 -1.3149,-2.6008 -1.76664,-4.29217 -2.78223,-7.67389 -0.49737,1.15826 -1.78045,6.27847 -2.11689,7.49328 z"
       id="path450304"
       onmouseout="changeColorOut('path450304')"
       onmouseover="changeColorOver('path450304')"
       inkscape:connector-curvature="0"
       sodipodi:nodetypes="scsscsscs" />
    <path
       style="fill:#e6e6e6"
       d="m 1009.7884,197.00992 c -7.0687,0.85322 -11.01414,2.99395 -12.20413,9.87026 -1.2672,7.32251 -4.82258,7.06615 -7.64677,9.90107 -2.50382,2.51334 0.0678,7.22422 -4.90625,8.5 -7.83763,2.01024 -15.60045,0.14925 -20.9375,5.3125 -4.07386,3.94119 -4.45165,14.03512 -6.25768,18.49365 -3.16425,7.81153 -3.83055,9.92657 -8.59154,16.68838 -3.14806,4.47105 0.37956,11.18932 -3.74918,12.79928 -7.03909,2.74481 -12.83601,5.44288 -18.4016,10.58119 -4.29866,3.96864 -6.13787,7.68718 -8.04265,13.17113 -1.17949,3.39579 -5.0944,8.15392 0.23015,11.17262 4.2719,3.1931 9.89889,5.72382 14.9242,7.33983 8.83159,2.84001 9.57194,-13.70802 18.73205,-12.40233 8.00362,2.05558 16.12861,-0.92375 23.28125,-4.25 7.37022,-3.2127 16.0376,-5.93813 22.09375,-11.34375 4.211,-4.23082 5.5809,-11.83007 12.4375,-12.84375 5.2177,-1.39048 8.76,-5.37317 10.9375,-10.125 4.218,-4.22992 8.3531,-8.64034 9.2813,-14.71875 3.1253,-6.12943 3.1516,-13.10902 3.625,-19.6875 1.7718,-4.35308 3.1243,-10.3267 -1.4063,-13.625 -3.0904,-3.59341 0.077,-11.21917 -1.8825,-14.12693 -2.4489,0.8372 -9.3478,2.61746 -8.8869,-1.17328 0.8619,-7.08874 -5.4433,-10.40106 -12.6297,-9.53362 z"
       id="path450327"
       onmouseout="changeColorOut('path450327')"
       onmouseover="changeColorOver('path450327')"
       inkscape:connector-curvature="0"
       sodipodi:nodetypes="sssssssssscscccccccccss" />
    <path
       style="fill:#e6e6e6"
       d="m 842.40107,283.45172 c -5.3473,1.91358 -9.19397,8.13517 -11.13967,13.60301 0.62587,3.08454 1.68469,5.68505 3.1509,8.9826 1.46621,3.29754 2.76309,6.76345 3.48062,8.31072 3.68232,-2.91684 12.05975,0.30658 13.13833,-4.53555 0.79665,-3.57643 4.49351,-6.39241 2.78354,-11.13165 -1.56206,-4.3293 -3.2168,-5.73893 -4.90854,-9.1496 -1.39317,-2.80874 -3.13702,-7.28486 -6.50518,-6.07953 z"
       id="path450303"
       onmouseout="changeColorOut('path450303')"
       onmouseover="changeColorOver('path450303')"
       inkscape:connector-curvature="0"
       sodipodi:nodetypes="scscssss" />
    <path
       style="fill:#e6e6e6"
       d="m 824.97725,290.77985 c -0.77534,1.25938 -2.35784,5.58179 -4.75591,9.62188 -1.14839,1.93473 -1.97064,7.4669 -1.52323,9.88703 1.88922,0.83415 3.46918,1.36029 6.04671,0.25004 3.66987,-1.58077 4.15744,-8.5562 5.41143,-12.7888 0.85393,-2.88229 5.02243,-8.21188 5.19118,-9.31101 -1.91137,0.53963 -3.94563,0.56801 -5.00085,0.53973 -1.47316,-0.0395 -4.63231,0.60398 -5.36933,1.80113 z"
       id="path450302"
       onmouseout="changeColorOut('path450302')"
       onmouseover="changeColorOver('path450302')"
       inkscape:connector-curvature="0"
       sodipodi:nodetypes="sscsscss" />
    <path
       style="fill:#e6e6e6"
       d="m 852.25,184.4375 c -1.62491,4.57226 -4.37574,11.72268 -8.56035,10.34915 -3.48326,-1.14332 -0.57208,-14.87873 -0.7358,-19.68246 -2.66849,5.50049 -9.14146,6.51064 -11.7834,9.99623 -2.4579,3.24277 -6.15883,7.89995 -9.10664,7.45068 3.93493,3.75138 5.82504,8.98366 7.04322,14.80839 0.98569,4.7131 0.40238,11.67195 1.68676,16.16555 1.13923,3.98576 8.28568,7.92426 13.35516,11.78406 3.6445,2.77485 6.06073,-2.05443 9.31978,0.65965 4.71459,3.92622 8.00285,6.41055 9.76703,13.15432 1.0807,4.13111 5.68996,2.33311 8.20172,1.81443 6.55096,-1.35277 6.37837,7.5723 4.8125,12.15625 -2.65731,7.77906 9.37951,14.95589 8.22658,21.37337 3.85971,2.41951 10.30872,0.0243 14.98123,0.29536 6.71609,0.38959 11.22299,0.34728 16.14695,5.46255 2.14262,2.0264 2.89009,3.69222 4.28803,6.58065 1.0581,-2.41298 7.11656,-9.31258 8.59864,-10.55176 4.88575,-4.08501 10.68415,-5.8471 16.3883,-8.30622 4.18458,-1.80402 0.65182,-8.07162 3.62027,-12.3852 7.51339,-10.91801 4.4313,-9.93625 2.6086,-10.76795 -3.93922,-1.79747 -7.24299,-2.87625 -11.32735,-3.91955 -4.83027,-1.23384 -7.74318,-5.31774 -8.39768,-10.3023 -0.92799,-7.06743 0.88423,-11.61937 3.69843,-17.461 1.67547,-3.47787 5.27465,-10.72141 -0.30075,-13.0492 -3.38994,-1.48348 -10.18075,-4.52175 -6.28451,-8.25496 1.92328,-1.8428 6.01326,-4.65277 0.74808,-5.33383 -6.36578,-0.82342 -7.16609,0.99455 -8.80732,4.27629 -2.6358,5.27045 -10.09218,4.4475 -15.05324,2.60886 -5.14863,-1.90816 -6.34805,-5.54559 -10.67825,-9.32998 -3.32694,-2.90759 -3.41244,-7.5935 -4.2818,-11.58044 -5.81446,0.083 -10.28146,-0.37936 -14.82972,-4.77424 -3.56116,-3.44106 -8.21827,-10.35208 -11.91283,-12.81533 -8.41934,2.66352 -9.02704,12.81242 -11.43164,19.57863 z"
       id="path450325"
       onmouseout="changeColorOut('path450325')"
       onmouseover="changeColorOver('path450325')"
       inkscape:connector-curvature="0"
       sodipodi:nodetypes="sscscssssssscsccssssssscssssscscs" />
    <path
       style="fill:#e6e6e6"
       d="m 767.09375,102.5625 c -10.15469,2.15445 -15.42963,13.03048 -16.46875,22.59375 -1.48442,3.78614 -1.03528,9.30042 -4.3125,11.96875 -4.60511,1.06487 -11.81887,-3.39964 -14.46875,2.46875 -3.55722,4.09408 -1.5731,9.51206 1.5,13.21875 1.87692,5.27088 5.02586,11.59973 1.03125,16.8125 -2.01478,2.11651 -3.60786,3.74822 -4.28125,6.5 -3.4195,2.61113 -10.8684,-0.79215 -11.96875,5.03125 -0.75065,3.93624 -0.72489,8.5705 3.375,10.8125 4.26784,2.55602 8.02346,6.13322 10.0625,10.5625 0.13549,4.96676 -4.62172,11.60719 0.8125,15.34375 3.74839,2.03108 -1.0009,5.63915 -2.1875,7.65625 -4.89538,3.93159 -11.773,10.76944 -7.46875,17.4375 2.5683,3.99701 8.06112,7.13601 6.96875,12.625 4.47446,0.98894 12.36855,3.8701 14.42265,-1.06723 1.28165,-3.08063 -3.35303,-5.68966 -2.07343,-9.53982 1.49831,-4.50825 6.88848,-7.36103 11.4703,-4.46409 7.184,4.54221 8.35953,-7.38501 9.40152,-10.90382 1.52255,-5.14164 -1.72117,-5.51505 -2.96092,-9.00709 -1.28442,-3.61789 3.02116,-3.29777 5.64157,-3.69906 4.08165,-0.62507 8.37729,-0.98776 12.87173,-1.25229 5.6166,-0.33058 12.98911,-0.72116 16.82107,3.66693 3.10715,-2.86326 6.99264,-5.881 9.93122,-8.18115 7.27452,-5.69407 4.91154,-12.72125 10.91179,-17.95863 4.84961,-2.19264 9.51172,-0.71736 14.1281,-8.38283 3.28275,-5.45097 13.2759,-5.04894 12.24172,-12.52557 -0.93587,-5.5092 -8.27283,-4.36218 -11.93017,-4.66617 0.21475,-6.32191 0.46342,-15.34208 -6.87715,-18.08168 -0.92093,-7.83848 -5.34495,-16.07761 -12.65625,-19.28125 -4.96284,-0.82428 -7.37464,5.28038 -9.40625,7.65625 -4.43515,-1.76846 -13.32173,-0.64993 -13.34375,-7.34375 1.44284,-6.63834 5.31367,-12.96102 3.625,-19.96875 0.54995,-4.06132 -4.01761,-3.75041 -6.65625,-3.21875 -7.119,1.27229 -11.59525,-5.29143 -18.15625,-4.8125 z"
       id="path450328"
       onmouseout="changeColorOut('path450328')"
       onmouseover="changeColorOver('path450328')"
       inkscape:connector-curvature="0"
       sodipodi:nodetypes="ccccccccccccccssssssscscsccccccccc" />
    <path
       style="fill:#e6e6e6"
       d="m 932.46519,231.53815 c 2.31459,-6.60014 9.00559,-15.9456 4.45455,-20.7846 -2.76569,-2.94069 -13.87781,-5.05283 -6.1089,-10.44013 4.12958,-2.86364 0.22716,-4.28582 -2.67303,-4.46894 -2.90019,-0.18312 -6.30525,-0.24618 -7.8921,3.90191 -2.19556,5.7393 -11.47294,5.01807 -16.12471,2.20863 -4.27321,-2.58081 -6.07281,-3.68726 -3.83417,-14.9665 2.2781,-11.47806 9.34567,-17.26592 14.21483,-27.0604 2.80667,-5.64571 5.05873,-9.15921 5.42989,-16.64341 0.48356,-9.75056 8.85737,-17.40059 13.80801,-25.80774 4.37429,-7.42839 9.19917,-14.04172 14.02329,-21.729825 4.98969,-7.951965 6.61407,-14.252202 8.2367,-22.410062 -1.44602,-5.309919 3.06286,-15.380743 7.97031,-7.207499 2.86185,8.678501 13.69729,8.07302 20.54081,12.30413 6.64119,2.718785 20.63373,-4.855717 21.21073,5.466429 4.2391,5.784146 20.5931,-1.413444 16.4794,10.760323 -6.4206,7.232514 -4.0816,17.729364 -4.1099,26.197904 -4.7171,5.03316 1.3189,10.67896 -5.9396,13.32767 -3.5866,5.4461 -4.5672,12.00167 -6.1572,18.20336 4.0976,4.57593 4.7352,10.88499 8.4283,15.59663 2.9727,7.0141 12.3126,7.528 14.5662,-0.16077 8.6927,-7.03648 16.3226,3.50643 25.7811,1.23818 4.5548,-0.56045 10.5705,3.28121 3.0073,5.07115 -12.8821,0.84784 1.3684,15.74478 -7.7754,17.89464 -4.7105,7.18407 -13.8227,7.54437 -20.5415,10.63635 -1.7318,4.9837 -6.7359,8.88833 -6.6026,1.33526 0.088,-4.975 -6.9254,-8.91094 -12.3752,-7.72167 -7.7113,1.68279 -12.02988,0.70859 -13.46806,10.29058 -1.47571,9.83206 -8.04289,4.46664 -9.16163,14.34782 -0.83144,7.34366 -19.89973,2.49249 -25.08189,9.26726 -4.48226,5.85977 -4.3216,19.37581 -8.9326,24.42695 -5.77117,-1.32277 -9.99933,-2.96588 -16.26642,-5.74564 -4.09978,-1.81845 -7.91382,-9.32284 -5.10651,-17.32799 z"
       id="path450324"
       onmouseout="changeColorOut('path450324')"
       onmouseover="changeColorOver('path450324')"
       inkscape:connector-curvature="0"
       sodipodi:nodetypes="sssssssssasccccccccccccccssssscss" />
    <path
       style="fill:#e6e6e6"
       d="m 843.4017,171.856 c -1.5265,-5.48515 -7.31858,-4.36515 -12.36648,-4.6284 0.27519,-9.91528 -1.51874,-12.0889 3.82059,-12.71685 5.45209,-4.62032 8.53702,-13.9751 9.73132,-20.70295 2.31959,-5.8745 5.80694,-11.16469 10.38798,-15.58105 4.46903,-3.50624 7.92868,-11.44911 14.63883,-9.70694 5.62835,-1.18808 7.86137,-8.45764 10.811,-12.934091 1.23007,-5.504573 -0.20348,-12.157722 6.39508,-14.656327 2.37836,-1.564778 4.16719,-5.142249 6.35663,-6.285489 2.92027,2.065469 6.17386,5.172229 9.97083,3.080539 5.69557,-1.22611 10.25637,8.576487 13.92251,0.01372 1.78601,4.251581 -1.71166,13.921901 6.59161,13.949315 4.43323,-4.790434 11.21635,-0.394871 16.10625,-4.36399 3.9327,-2.781903 15.73933,-3.3063 9.26295,3.855073 -4.77871,4.488959 -5.86266,10.52998 -9.93372,15.4635 -6.96749,8.44357 -11.80112,17.02097 -17.7288,26.29888 -3.61647,5.66045 -1.8786,11.55217 -3.8721,17.0174 -2.33544,6.40268 -5.03136,12.63026 -9.36524,18.17497 -4.1459,5.30421 -8.78556,11.9633 -9.26742,18.88739 -0.2586,3.57863 -0.27431,6.80014 -0.62821,9.61452 -1.21898,-1.31877 -6.14034,-5.25543 -6.1177,-8.78419 0.0131,-2.03297 -0.87004,-4.81418 -0.86909,-6.07067 -4.66763,-0.30237 -10.4906,0.61367 -13.83599,-3.57978 -4.75742,-4.46169 -8.54878,-9.91523 -13.49703,-14.14022 -4.89136,0.97215 -8.77975,6.5763 -9.95678,11.32387 -1.77962,7.17816 -2.63709,12.80633 -7.18649,17.61293 -2.83061,2.99063 -3.89566,0.44603 -4.08483,-2.79693 -0.17088,-2.9294 1.98291,-12.65904 0.7143,-18.34423 z"
       id="path450329"
       onmouseout="changeColorOut('path450329')"
       onmouseover="changeColorOver('path450329')"
       inkscape:connector-curvature="0"
       sodipodi:nodetypes="ccccccccccccccssasccscccsssc" />
  </g>
  <g
     id="g450330"
     transform="matrix(0.98695514,0,0,1.0304851,387.43827,-480.60741)">
    <text
       id="text450330-lc"
       x="-122.67094"
       y="849.59302"
       style="font-size:12px;fill:#ffffff;filter:url(#green);font-family:Sans">22</text>
  </g>
  <path
     sodipodi:type="arc"
     style="fill:#d40000;fill-opacity:1;stroke:#dd66ff;stroke-opacity:0"
     id="D450330"
     sodipodi:cx="314.82144"
     sodipodi:cy="114.75"
     sodipodi:rx="3.0357144"
     sodipodi:ry="3.0357144"
     d="m 317.85716,114.75 a 3.0357144,3.0357144 0 1 1 -6.07143,0 3.0357144,3.0357144 0 1 1 6.07143,0 z"
     transform="matrix(0.79797983,0,0,0.79797981,8.7120984,284.86887)" />
  <text
     sodipodi:linespacing="125%"
     id="text450330"
     y="378.28366"
     x="266.14026"
     style="font-size:40px;font-style:normal;font-weight:normal;line-height:125%;letter-spacing:0px;word-spacing:0px;fill:#000000;fill-opacity:1;stroke:none;font-family:Sans"
     xml:space="preserve"><tspan
       style="font-size:12px;fill:#666666"
       y="378.28366"
       x="266.14026"
       id="tspan4510"
       sodipodi:role="line">平乐</tspan></text>
  <g
     id="g450331"
     transform="matrix(0.98695514,0,0,1.0304851,293.05293,-445.41119)">
    <text
       id="text450331-lc"
       x="-109.49912"
       y="849.59302"
       style="font-size:12px;fill:#ffffff;filter:url(#green);font-family:Sans">22</text>
  </g>
  <path
     sodipodi:type="arc"
     style="fill:#d40000;fill-opacity:1;stroke:#dd66ff;stroke-opacity:0"
     id="D450331"
     sodipodi:cx="314.82144"
     sodipodi:cy="114.75"
     sodipodi:rx="3.0357144"
     sodipodi:ry="3.0357144"
     d="m 317.85716,114.75 a 3.0357144,3.0357144 0 1 1 -6.07143,0 3.0357144,3.0357144 0 1 1 6.07143,0 z"
     transform="matrix(0.79797983,0,0,0.79797981,-45.661423,316.67737)" />
  <text
     sodipodi:linespacing="125%"
     id="text450331"
     y="412.26712"
     x="175.24901"
     style="font-size:40px;font-style:normal;font-weight:normal;line-height:125%;letter-spacing:0px;word-spacing:0px;fill:#000000;fill-opacity:1;stroke:none;font-family:Sans"
     xml:space="preserve"><tspan
       style="font-size:12px;fill:#666666"
       y="412.26712"
       x="175.24901"
       id="tspan4510-5"
       sodipodi:role="line">荔浦</tspan></text>
  <g
     id="g450332"
     transform="matrix(0.98695514,0,0,1.0304851,415.80944,-555.53649)">
    <text
       id="text450332-lc"
       x="-122.67094"
       y="849.59302"
       style="font-size:12px;fill:#ffffff;filter:url(#green);font-family:Sans">22</text>
  </g>
  <path
     sodipodi:type="arc"
     style="fill:#d40000;fill-opacity:1;stroke:#dd66ff;stroke-opacity:0"
     id="D450332"
     sodipodi:cx="314.82144"
     sodipodi:cy="114.75"
     sodipodi:rx="3.0357144"
     sodipodi:ry="3.0357144"
     d="m 317.85716,114.75 a 3.0357144,3.0357144 0 1 1 -6.07143,0 3.0357144,3.0357144 0 1 1 6.07143,0 z"
     transform="matrix(0.79797983,0,0,0.79797981,37.530065,240.55444)" />
  <text
     sodipodi:linespacing="125%"
     id="text450332"
     y="336.95978"
     x="294.94876"
     style="font-size:40px;font-style:normal;font-weight:normal;line-height:125%;letter-spacing:0px;word-spacing:0px;fill:#000000;fill-opacity:1;stroke:none;font-family:Sans"
     xml:space="preserve"><tspan
       style="font-size:12px;fill:#666666"
       y="336.95978"
       x="294.94876"
       id="tspan4510-2"
       sodipodi:role="line">恭城</tspan></text>
  <g
     id="g450321"
     transform="matrix(0.98695514,0,0,1.0304851,338.97728,-545.64287)">
    <text
       id="text450321-lc"
       x="-122.67094"
       y="849.59302"
       style="font-size:12px;fill:#ffffff;filter:url(#green);font-family:Sans">22</text>
  </g>
  <path
     sodipodi:type="arc"
     style="fill:#d40000;fill-opacity:1;stroke:#dd66ff;stroke-opacity:0"
     id="D450321"
     sodipodi:cx="314.82144"
     sodipodi:cy="114.75"
     sodipodi:rx="3.0357144"
     sodipodi:ry="3.0357144"
     d="m 317.85716,114.75 a 3.0357144,3.0357144 0 1 1 -6.07143,0 3.0357144,3.0357144 0 1 1 6.07143,0 z"
     transform="matrix(0.79797983,0,0,0.79797981,-24.45575,261.21638)" />
  <text
     sodipodi:linespacing="125%"
     id="text450321"
     y="345.94086"
     x="212.8542"
     style="font-size:40px;font-style:normal;font-weight:normal;line-height:125%;letter-spacing:0px;word-spacing:0px;fill:#000000;fill-opacity:1;stroke:none;font-family:Sans"
     xml:space="preserve"><tspan
       style="font-size:12px;fill:#666666"
       y="345.94086"
       x="212.8542"
       id="tspan4510-3"
       sodipodi:role="line">阳朔</tspan></text>
  <g
     id="g450326"
     transform="matrix(0.98695514,0,0,1.0304851,218.5683,-539.70197)">
    <text
       id="text450326-lc"
       x="-122.67094"
       y="849.59302"
       style="font-size:12px;fill:#ffffff;filter:url(#green);font-family:Sans">22</text>
  </g>
  <path
     sodipodi:type="arc"
     style="fill:#d40000;fill-opacity:1;stroke:#dd66ff;stroke-opacity:0"
     id="D450326"
     sodipodi:cx="314.82144"
     sodipodi:cy="114.75"
     sodipodi:rx="3.0357144"
     sodipodi:ry="3.0357144"
     d="m 317.85716,114.75 a 3.0357144,3.0357144 0 1 1 -6.07143,0 3.0357144,3.0357144 0 1 1 6.07143,0 z"
     transform="matrix(0.79797983,0,0,0.79797981,-126.94984,222.61118)" />
  <text
     sodipodi:linespacing="125%"
     id="text450326"
     y="318.16309"
     x="90.263191"
     style="font-size:40px;font-style:normal;font-weight:normal;line-height:125%;letter-spacing:0px;word-spacing:0px;fill:#000000;fill-opacity:1;stroke:none;font-family:Sans"
     xml:space="preserve"><tspan
       style="font-size:12px;fill:#666666"
       y="318.16309"
       x="90.263191"
       id="tspan4510-31"
       sodipodi:role="line">永福</tspan></text>
  <g
     id="g450312"
     transform="matrix(0.98695514,0,0,1.0304851,226.8118,-625.30009)">
    <text
       id="text450312-lc"
       x="-122.67094"
       y="849.59302"
       style="font-size:12px;fill:#ffffff;filter:url(#green);font-family:Sans">22</text>
  </g>
  <path
     sodipodi:type="arc"
     style="fill:#d40000;fill-opacity:1;stroke:#dd66ff;stroke-opacity:0"
     id="D450312"
     sodipodi:cx="314.82144"
     sodipodi:cy="114.75"
     sodipodi:rx="3.0357144"
     sodipodi:ry="3.0357144"
     d="m 317.85716,114.75 a 3.0357144,3.0357144 0 1 1 -6.07143,0 3.0357144,3.0357144 0 1 1 6.07143,0 z"
     transform="matrix(0.79797983,0,0,0.79797981,-94.05386,154.10054)" />
  <text
     sodipodi:linespacing="125%"
     id="text450312"
     y="248.87469"
     x="126.67218"
     style="font-size:40px;font-style:normal;font-weight:normal;line-height:125%;letter-spacing:0px;word-spacing:0px;fill:#000000;fill-opacity:1;stroke:none;font-family:Sans"
     xml:space="preserve"><tspan
       style="font-size:12px;fill:#666666"
       y="248.87469"
       x="126.67218"
       id="tspan4510-9"
       sodipodi:role="line">临桂</tspan></text>
  <g
     id="g450305"
     transform="matrix(0.98695514,0,0,1.0304851,358.96074,-605.27881)">
    <text
       id="text450305-lc"
       x="-122.67094"
       y="849.59302"
       style="font-size:12px;fill:#ffffff;filter:url(#green);font-family:Sans">22</text>
  </g>
  <path
     sodipodi:type="arc"
     style="fill:#d40000;fill-opacity:1;stroke:#dd66ff;stroke-opacity:0"
     id="D450305"
     sodipodi:cx="314.82144"
     sodipodi:cy="114.75"
     sodipodi:rx="3.0357144"
     sodipodi:ry="3.0357144"
     d="m 317.85716,114.75 a 3.0357144,3.0357144 0 1 1 -6.07143,0 3.0357144,3.0357144 0 1 1 6.07143,0 z"
     transform="matrix(0.79797983,0,0,0.79797981,-61.429745,174.76248)" />
  <text
     sodipodi:linespacing="125%"
     id="text450305"
     y="269.89594"
     x="194.09534"
     style="font-size:40px;font-style:normal;font-weight:normal;line-height:125%;letter-spacing:0px;word-spacing:0px;fill:#000000;fill-opacity:1;stroke:none;font-family:Sans"
     xml:space="preserve"><tspan
       style="font-size:12px;fill:#666666"
       y="269.89594"
       x="194.09534"
       id="tspan4510-6"
       sodipodi:role="line">七星区</tspan></text>
  <g
     id="g450323"
     transform="matrix(0.98695514,0,0,1.0304851,311.94655,-677.86746)">
    <text
       id="text450323-lc"
       x="-122.67094"
       y="849.59302"
       style="font-size:12px;fill:#ffffff;filter:url(#green);font-family:Sans">22</text>
  </g>
  <path
     sodipodi:type="arc"
     style="fill:#d40000;fill-opacity:1;stroke:#dd66ff;stroke-opacity:0"
     id="D450323"
     sodipodi:cx="314.82144"
     sodipodi:cy="114.75"
     sodipodi:rx="3.0357144"
     sodipodi:ry="3.0357144"
     d="m 317.85716,114.75 a 3.0357144,3.0357144 0 1 1 -6.07143,0 3.0357144,3.0357144 0 1 1 6.07143,0 z"
     transform="matrix(0.79797983,0,0,0.79797981,-63.876554,120.11709)" />
  <text
     sodipodi:linespacing="125%"
     id="text450323"
     y="214.1631"
     x="192.19226"
     style="font-size:40px;font-style:normal;font-weight:normal;line-height:125%;letter-spacing:0px;word-spacing:0px;fill:#000000;fill-opacity:1;stroke:none;font-family:Sans"
     xml:space="preserve"><tspan
       style="font-size:12px;fill:#666666"
       y="214.1631"
       x="192.19226"
       id="tspan4510-8"
       sodipodi:role="line">灵川</tspan></text>
  <g
     id="g450304"
     transform="matrix(0.98695514,0,0,1.0304851,278.58367,-592.8314)">
    <text
       id="text450304-lc"
       x="-122.67094"
       y="849.59302"
       style="font-size:12px;fill:#ffffff;filter:url(#green);font-family:Sans">22</text>
  </g>
  <path
     sodipodi:type="arc"
     style="fill:#d40000;fill-opacity:1;stroke:#dd66ff;stroke-opacity:0"
     id="D450304"
     sodipodi:cx="314.82144"
     sodipodi:cy="114.75"
     sodipodi:rx="3.0357144"
     sodipodi:ry="3.0357144"
     d="m 317.85716,114.75 a 3.0357144,3.0357144 0 1 1 -6.07143,0 3.0357144,3.0357144 0 1 1 6.07143,0 z"
     transform="matrix(0.79797983,0,0,0.79797981,-72.168516,159.60586)" />
  <text
     sodipodi:linespacing="125%"
     id="text450304"
     y="265.34219"
     x="146.29512"
     style="font-size:40px;font-style:normal;font-weight:normal;line-height:125%;letter-spacing:0px;word-spacing:0px;fill:#000000;fill-opacity:1;stroke:none;font-family:Sans"
     xml:space="preserve"><tspan
       style="font-size:12px;fill:#666666"
       y="265.34219"
       x="146.29512"
       id="tspan4510-1"
       sodipodi:role="line">象山区</tspan></text>
  <g
     id="g450327"
     transform="matrix(0.98695514,0,0,1.0304851,455.54229,-685.74216)">
    <text
       id="text450327-lc"
       x="-122.67094"
       y="849.59302"
       style="font-size:12px;fill:#ffffff;filter:url(#green);font-family:Sans">22</text>
  </g>
  <path
     sodipodi:type="arc"
     style="fill:#d40000;fill-opacity:1;stroke:#dd66ff;stroke-opacity:0"
     id="D450327"
     sodipodi:cx="314.82144"
     sodipodi:cy="114.75"
     sodipodi:rx="3.0357144"
     sodipodi:ry="3.0357144"
     d="m 317.85716,114.75 a 3.0357144,3.0357144 0 1 1 -6.07143,0 3.0357144,3.0357144 0 1 1 6.07143,0 z"
     transform="matrix(0.79797983,0,0,0.79797981,106.31257,111.14546)" />
  <text
     sodipodi:linespacing="125%"
     id="text450327"
     y="206.19147"
     x="325.50433"
     style="font-size:40px;font-style:normal;font-weight:normal;line-height:125%;letter-spacing:0px;word-spacing:0px;fill:#000000;fill-opacity:1;stroke:none;font-family:Sans"
     xml:space="preserve"><tspan
       style="font-size:12px;fill:#666666"
       y="206.19147"
       x="325.50433"
       id="tspan4510-7"
       sodipodi:role="line">灌阳</tspan></text>
  <g
     id="g450303"
     transform="matrix(0.98695514,0,0,1.0304851,355.12877,-631.79408)">
    <text
       id="text450303-lc"
       x="-122.67094"
       y="849.59302"
       style="font-size:12px;fill:#ffffff;filter:url(#green);font-family:Sans">22</text>
  </g>
  <path
     sodipodi:type="arc"
     style="fill:#d40000;fill-opacity:1;stroke:#dd66ff;stroke-opacity:0"
     id="D450303"
     sodipodi:cx="314.82144"
     sodipodi:cy="114.75"
     sodipodi:rx="3.0357144"
     sodipodi:ry="3.0357144"
     d="m 317.85716,114.75 a 3.0357144,3.0357144 0 1 1 -6.07143,0 3.0357144,3.0357144 0 1 1 6.07143,0 z"
     transform="matrix(0.79797983,0,0,0.79797981,-65.407104,148.60655)" />
  <text
     sodipodi:linespacing="125%"
     id="text450303"
     y="243.33221"
     x="190.66173"
     style="font-size:40px;font-style:normal;font-weight:normal;line-height:125%;letter-spacing:0px;word-spacing:0px;fill:#000000;fill-opacity:1;stroke:none;font-family:Sans"
     xml:space="preserve"><tspan
       style="font-size:12px;fill:#666666"
       y="243.33221"
       x="190.66173"
       id="tspan4510-12"
       sodipodi:role="line">叠彩区</tspan></text>
  <g
     id="g450302"
     transform="matrix(0.98695514,0,0,1.0304851,255.44361,-644.07723)">
    <text
       id="text450302-lc"
       x="-122.67094"
       y="849.59302"
       style="font-size:12px;fill:#ffffff;filter:url(#green);font-family:Sans">22</text>
  </g>
  <path
     sodipodi:type="arc"
     style="fill:#d40000;fill-opacity:1;stroke:#dd66ff;stroke-opacity:0"
     id="D450302"
     sodipodi:cx="314.82144"
     sodipodi:cy="114.75"
     sodipodi:rx="3.0357144"
     sodipodi:ry="3.0357144"
     d="m 317.85716,114.75 a 3.0357144,3.0357144 0 1 1 -6.07143,0 3.0357144,3.0357144 0 1 1 6.07143,0 z"
     transform="matrix(0.79797983,0,0,0.79797981,-77.735893,147.57539)" />
  <text
     sodipodi:linespacing="125%"
     id="text450302"
     y="230.74789"
     x="156.19652"
     style="font-size:40px;font-style:normal;font-weight:normal;line-height:125%;letter-spacing:0px;word-spacing:0px;fill:#000000;fill-opacity:1;stroke:none;font-family:Sans"
     xml:space="preserve"><tspan
       style="font-size:12px;fill:#666666"
       y="230.74789"
       x="156.19652"
       id="tspan4510-4"
       sodipodi:role="line">秀峰区</tspan></text>
  <g
     id="g450325"
     transform="matrix(0.98695514,0,0,1.0304851,354.46033,-722.26151)">
    <text
       id="text450325-lc"
       x="-122.67094"
       y="849.59302"
       style="font-size:12px;fill:#ffffff;filter:url(#green);font-family:Sans">22</text>
  </g>
  <path
     sodipodi:type="arc"
     style="fill:#d40000;fill-opacity:1;stroke:#dd66ff;stroke-opacity:0"
     id="D450325"
     sodipodi:cx="314.82144"
     sodipodi:cy="114.75"
     sodipodi:rx="3.0357144"
     sodipodi:ry="3.0357144"
     d="m 317.85716,114.75 a 3.0357144,3.0357144 0 1 1 -6.07143,0 3.0357144,3.0357144 0 1 1 6.07143,0 z"
     transform="matrix(0.79797983,0,0,0.79797981,3.8334477,73.829412)" />
  <text
     sodipodi:linespacing="125%"
     id="text450325"
     y="169.28439"
     x="221.50275"
     style="font-size:40px;font-style:normal;font-weight:normal;line-height:125%;letter-spacing:0px;word-spacing:0px;fill:#000000;fill-opacity:1;stroke:none;font-family:Sans"
     xml:space="preserve"><tspan
       style="font-size:12px;fill:#666666"
       y="169.28439"
       x="221.50275"
       id="tspan4510-51"
       sodipodi:role="line">兴安</tspan></text>
  <g
     id="g450328"
     transform="matrix(0.98695514,0,0,1.0304851,233.3309,-765.79883)">
    <text
       id="text450328-lc"
       x="-122.67094"
       y="849.59302"
       style="font-size:12px;fill:#ffffff;filter:url(#green);font-family:Sans">22</text>
  </g>
  <path
     sodipodi:type="arc"
     style="fill:#d40000;fill-opacity:1;stroke:#dd66ff;stroke-opacity:0"
     id="D450328"
     sodipodi:cx="314.82144"
     sodipodi:cy="114.75"
     sodipodi:rx="3.0357144"
     sodipodi:ry="3.0357144"
     d="m 317.85716,114.75 a 3.0357144,3.0357144 0 1 1 -6.07143,0 3.0357144,3.0357144 0 1 1 6.07143,0 z"
     transform="matrix(0.79797983,0,0,0.79797981,-120.36454,29.545062)" />
  <text
     sodipodi:linespacing="125%"
     id="text450328"
     y="125.95985"
     x="99.817757"
     style="font-size:40px;font-style:normal;font-weight:normal;line-height:125%;letter-spacing:0px;word-spacing:0px;fill:#000000;fill-opacity:1;stroke:none;font-family:Sans"
     xml:space="preserve"><tspan
       style="font-size:12px;fill:#666666"
       y="125.95985"
       x="99.817757"
       id="tspan4510-38"
       sodipodi:role="line">龙胜</tspan></text>
  <g
     id="g450324"
     transform="matrix(0.98695514,0,0,1.0304851,439.35765,-761.66358)">
    <text
       id="text450324-lc"
       x="-122.67094"
       y="849.59302"
       style="font-size:12px;fill:#ffffff;filter:url(#green);font-family:Sans">22</text>
  </g>
  <path
     sodipodi:type="arc"
     style="fill:#d40000;fill-opacity:1;stroke:#dd66ff;stroke-opacity:0"
     id="D450324"
     sodipodi:cx="314.82144"
     sodipodi:cy="114.75"
     sodipodi:rx="3.0357144"
     sodipodi:ry="3.0357144"
     d="m 317.85716,114.75 a 3.0357144,3.0357144 0 1 1 -6.07143,0 3.0357144,3.0357144 0 1 1 6.07143,0 z"
     transform="matrix(0.79797983,0,0,0.79797981,87.633835,1.4060768)" />
  <text
     sodipodi:linespacing="125%"
     id="text450324"
     y="95.374069"
     x="308.35986"
     style="font-size:40px;font-style:normal;font-weight:normal;line-height:125%;letter-spacing:0px;word-spacing:0px;fill:#000000;fill-opacity:1;stroke:none;font-family:Sans"
     xml:space="preserve"><tspan
       style="font-size:12px;fill:#666666"
       y="95.374069"
       x="308.35986"
       id="tspan4510-15"
       sodipodi:role="line">全州</tspan></text>
  <g
     id="g450329"
     transform="matrix(0.98695514,0,0,1.0304851,362.92565,-818.04163)">
    <text
       id="text450329-lc"
       x="-122.67094"
       y="849.59302"
       style="font-size:12px;fill:#ffffff;filter:url(#green);font-family:Sans">22</text>
  </g>
  <path
     sodipodi:type="arc"
     style="fill:#d40000;fill-opacity:1;stroke:#dd66ff;stroke-opacity:0"
     id="D450329"
     sodipodi:cx="314.82144"
     sodipodi:cy="114.75"
     sodipodi:rx="3.0357144"
     sodipodi:ry="3.0357144"
     d="m 317.85716,114.75 a 3.0357144,3.0357144 0 1 1 -6.07143,0 3.0357144,3.0357144 0 1 1 6.07143,0 z"
     transform="matrix(0.79797983,0,0,0.79797981,-1.8950931,-10.638639)" />
  <text
     sodipodi:linespacing="125%"
     id="text450329"
     y="74.620132"
     x="236.61816"
     style="font-size:40px;font-style:normal;font-weight:normal;line-height:125%;letter-spacing:0px;word-spacing:0px;fill:#000000;fill-opacity:1;stroke:none;font-family:Sans"
     xml:space="preserve"><tspan
       style="font-size:12px;fill:#666666"
       y="74.620132"
       x="236.61816"
       id="tspan4510-82"
       sodipodi:role="line">资源</tspan></text>
</svg>
