<?xml version="1.0" encoding="UTF-8" standalone="no"?>
<!-- Created with Inkscape (http://www.inkscape.org/) -->

<svg
   xmlns:dc="http://purl.org/dc/elements/1.1/"
   xmlns:cc="http://creativecommons.org/ns#"
   xmlns:rdf="http://www.w3.org/1999/02/22-rdf-syntax-ns#"
   xmlns:svg="http://www.w3.org/2000/svg"
   xmlns="http://www.w3.org/2000/svg"
   xmlns:sodipodi="http://sodipodi.sourceforge.net/DTD/sodipodi-0.dtd"
   xmlns:inkscape="http://www.inkscape.org/namespaces/inkscape"
   id="svg3072"
   version="1.1"
   inkscape:version="0.48.5 r10040"
   width="100%"
   height="100%"
   viewBox="0 0 460 460"
   sodipodi:docname="wuzhou2.svg">
  <metadata
     id="metadata3078">
    <rdf:RDF>
      <cc:Work
         rdf:about="">
        <dc:format>image/svg+xml</dc:format>
        <dc:type
           rdf:resource="http://purl.org/dc/dcmitype/StillImage" />
      </cc:Work>
    </rdf:RDF>
  </metadata>
  <defs
     id="defs3076">
    <filter
       color-interpolation-filters="sRGB"
       x="-0.1"
       y="0"
       width="1.2"
       height="1"
       id="green">
      <feFlood
         flood-color="#008000"
         id="feFlood6"
         result="result1" />
      <feComposite
         in="SourceGraphic"
         id="feComposite8"
         in2="result1" />
    </filter>
    <filter
       color-interpolation-filters="sRGB"
       x="-0.1"
       y="0"
       width="1.2"
       height="1"
       id="orange">
      <feFlood
         flood-color="#ff7f2a"
         id="feFlood11"
         result="result1" />
      <feComposite
         in="SourceGraphic"
         id="feComposite13"
         in2="result1" />
    </filter>
  </defs>
  <sodipodi:namedview
     pagecolor="#ffffff"
     bordercolor="#666666"
     borderopacity="1"
     objecttolerance="10"
     gridtolerance="10"
     guidetolerance="10"
     inkscape:pageopacity="0"
     inkscape:pageshadow="2"
     inkscape:window-width="1920"
     inkscape:window-height="1018"
     id="namedview3074"
     showgrid="false"
     inkscape:zoom="1.8391304"
     inkscape:cx="230"
     inkscape:cy="230"
     inkscape:window-x="-8"
     inkscape:window-y="-8"
     inkscape:window-maximized="1"
     inkscape:current-layer="g3082" />
  <g
     id="g3082"
     transform="translate(-859.69474,-59.978703)">
    <path
       style="fill:#0088aa"
       d="m 978.875,63.96875 c -5.93787,4.776299 -9.23018,14.648235 -18.1875,14.375 -1.28285,3.593886 -4.34607,7.528914 -8.76408,5.738527 -7.25599,-1.308598 -15.56634,-1.201661 -20.95467,4.605223 -3.64918,2.735118 -4.45545,9.203294 1,10.25 3.32226,1.99406 2.1457,6.08151 3.09375,9 4.01639,7.44279 15.58804,6.31382 18.90625,14 0.92271,3.74856 -3.96347,5.08359 -4.75,7.78125 2.81749,3.15101 0.30564,8.45503 -4.09375,7.21875 -11.30221,-0.50761 -14.83238,19.21293 -3.6875,22.5625 4.50746,2.91564 9.52393,3.92481 15.12345,1.0461 5.23352,-2.69054 11.78402,-6.44552 17.52888,-1.42346 12.66689,11.0732 8.39857,32.29447 23.41017,40.97111 6.4235,3.71278 14.2486,-1.69222 19.9688,-4.40625 5.7318,-2.71952 14.3109,-8.40878 11.0937,-15.59375 -1.6101,-3.06025 -9.2661,-0.94727 -5.1563,-5.0625 3.0899,-4.38012 5.1576,-13.0019 -0.75,-15.875 -7.786,-0.48888 -11.8536,-9.90014 -8.375,-16.46875 2.1802,-8.1087 8.4394,-18.2882 2.3126,-26.0625 -6.409,-4.96809 -17.86637,-4.26867 -20.4063,-13.53125 -2.15218,-5.610919 0.023,-12.289437 -1.5,-17.78125 C 984.357,83.307064 984.50482,70.252476 978.875,63.96875 z"
       id="path450423"
       type="area" code="450423" />
    <path
       style="fill:#0088aa"
       d="m 1207.0312,123.65625 c -2.1893,4.74707 -2.8253,10.81277 -7.0624,14.65625 -3.9742,4.89285 -9.8003,8.48922 -16.1563,9.1875 -2.1129,15.38209 5.2486,33.75299 -6.0937,46.875 -9.353,8.76364 -24.2294,4.22318 -32.8438,-3.34375 -5.037,-3.19753 -9.3753,-11.41804 -16.25,-8.90625 -11.7411,6.82473 -11.5583,24.95899 -25.2188,29.84375 -6.3156,2.74208 -9.7309,8.89666 -11.8124,15.03125 -2.8523,3.52889 -8.6585,4.74394 -8.4063,10.3125 -1.2173,8.67115 -6.5221,16.40987 -11.2277,23.84419 -7.951,9.43237 -18.7848,20.30326 -12.8775,31.73016 0.9541,1.84553 3.8846,5.12345 7.7549,8.83298 0.6984,-3.21108 2.127,-5.77341 2.5378,-8.53233 0.9556,-3.93348 2.9311,-7.49492 4.5,-11.21875 0.4777,10.28413 5.1023,25.76797 16.9877,27.57391 10.7649,-0.48622 22.7273,-7.17914 32.803,-0.0621 2.1827,1.54179 5.6723,4.17002 7.9431,4.85174 1.2135,-1.72126 3.0512,-6.25343 4.4408,-7.91153 2.7791,-3.31616 3.618,-8.03793 0.7431,-11.49279 -6.1075,-4.90273 -15.651,-6.87075 -21.9341,-9.62689 -5.3579,-2.35031 -16.5007,-13.11171 -14.9672,-19.85898 1.0368,-4.56193 12.9198,-7.34104 19.3828,-9.33037 7.448,-2.29254 15.6707,-3.87286 21.8508,-8.08053 -1.463,-14.44549 22.0188,-21.96172 28.5625,-8.5625 1.9398,8.46748 -1.1107,17.34733 -0.2813,26.125 -0.8151,8.37472 5.1137,16.81216 13.875,17.46875 11.3,1.6451 22.9851,-7.38717 23.2188,-18.9375 1.007,-4.95907 6.1428,-6.72497 10.625,-6.375 11.0162,-1.84188 24.4209,-7.89041 26.125,-20.125 0.01,-2.00551 -1.9302,-3.53356 -3.9062,-2.375 -6.2394,-5.87345 -1.2086,-14.18151 0.75,-20.6875 5.143,-15.77296 4.1458,-36.96514 -11.0313,-46.8125 -5.2784,-2.46965 -14.478,-3.30644 -14.0937,-11.125 0.1867,-8.95984 12.6974,-14.72695 8.2187,-24.1875 -3.8058,-4.61183 -10.3761,-5.83777 -15.5313,-8.71875 -0.1918,0.0878 -0.4685,-0.28972 -0.625,-0.0625 z"
       id="path450421"
       type="area" code="5309" />
    <path
       style="fill:#0088aa"
       d="m 966.24453,157.48751 c -8.90951,1.99808 -20.02315,7.67784 -20.74453,18.54374 -1.53744,6.9057 -10.10498,12.80961 -7.03125,20.28125 7.01351,6.10116 18.77055,3.40896 25.09375,10.9375 4.00171,2.58052 7.01541,7.84634 10.5,9.75 4.21276,-4.17923 13.1144,-3.37288 14.0625,3.28125 1.75937,5.95831 -1.02034,12.03481 -4.3125,16.84375 4.10361,5.69143 3.00308,14.0959 -0.5625,19.34375 13.73571,11.03191 16.01942,30.0831 18.625,46.4375 -0.1241,5.22581 -5.44653,7.45289 -9.46875,9 -4.28924,4.07638 -1.84904,10.54443 -2.03125,15.71875 1.23872,7.32963 8.17002,10.77682 14.0312,13.8125 5.5615,3.37596 7.9667,11.3603 3.2188,16.5 -5.1501,8.46512 -17.87467,7.22197 -22.78125,15.53125 -1.01328,5.09043 1.2562,10.09657 1.40625,15.25 1.25588,6.01373 8.3905,8.89017 13.42437,5.27476 4.36543,-2.60594 10.49993,-2.29581 13.23183,2.47524 4.171,3.93814 8.2024,12.9133 15.1876,11.0625 5.8683,-3.98932 6.487,-13.11085 13.3124,-16.375 4.6221,-2.60924 13.4708,2.40176 15.125,-2.4375 2.0947,-6.12806 -0.3944,-12.54298 4.9376,-15.9375 6.7565,-5.13011 19.7079,-6.62207 24.2812,2 1.1603,2.92743 1.6216,7.30935 5.875,6.15625 8.2514,-1.44828 16.9684,-4.65359 25.2188,-2.03125 5.0746,-6.30967 9.9417,-18.07179 10.4027,-25.71552 0.4609,-7.64374 -3.4843,-11.16911 -5.1598,-18.67669 1.9809,-1.75113 8.8971,-7.45707 12.0193,-8.92462 0,-3.2347 -5.0578,-6.34414 -0.1012,-9.56303 -4.4953,-0.16436 -11.3925,-5.63823 -16.5428,-8.29759 -5.8233,-1.50592 -11.7469,-0.15165 -17.5245,1.70914 -10.1243,3.26076 -18.9894,-1.72277 -23.2339,-11.72437 -1.6383,-3.86032 -2.3497,-8.00008 -3.5146,-12.4458 -0.7986,2.97985 -4.1352,14.82532 -6.1024,17.3984 -8.1455,-5.80557 -14.366,-15.65669 -8.678,-25.71208 4.5742,-8.08633 11.9321,-15.69122 16.7476,-22.82909 -12.9397,-6.57068 -17.028,-23.16361 -13.9374,-36.46875 -1.5939,-2.21749 -5.5296,-0.0762 -7.5,-2.53125 -5.0184,-3.59336 -3.9226,-11.71089 1.5,-14.21875 -0.5708,-3.619 -4.6985,-6.86905 -7.3126,-9.5 -4.4636,-4.83435 -12.3581,-10.08052 -18.4687,-4.84375 -2.2941,3.26039 -5.4965,6.81413 -10.9539,9.55467 -5.222,2.62235 -11.0516,7.56542 -19.86488,4.99534 -8.45956,-2.46693 -12.42542,-13.82669 -14.73123,-21.34766 -2.78832,-9.09479 -7.49418,-24.55334 -17.64296,-22.27734 z"
       id="path450422"
       type="area" code="450422" />
    <path
       style="fill:#0088aa"
       d="m 1147.6971,236.84057 c -3.3617,2.03908 -8.2927,7.70874 -4.3698,16.30319 1.843,4.47 3.5378,9.03477 4.9784,13.64478 3.0285,9.69177 -2.5986,12.60226 0.7592,19.23244 2.5864,5.10718 7.7022,0.66562 11.9226,8.4259 -0.3309,5.14115 2.3508,7.46184 4.1656,11.60395 3.3126,7.56082 16.9103,8.44264 21.0031,0.0429 2.544,-6.96765 11.4803,-8.19323 13.7813,-15.375 1.3816,-2.66182 3.6253,-7.66418 0.4375,-9.6875 -5.9578,0.77706 -9.1297,3.65117 -15.8743,3.11333 -7.9618,-0.63492 -13.9944,-4.62664 -15.7594,-13.60158 -2.1002,-10.67951 2.6893,-20.60726 -0.1132,-31.0102 -1.3427,-4.9839 -8.9833,-6.06976 -11.2797,-6.15854 -2.2185,-0.0858 -7.3878,2.09338 -9.6513,3.46633 z"
       id="path450403"
       type="area" code="450403" />
    <path
       style="fill:#0088aa"
       d="m 1124.9878,255.74918 c -11.1198,2.61387 -10.7681,1.36267 -21.7066,7.28207 -9.4974,5.13951 6.5398,19.02682 15.4922,22.59546 8.1007,3.22916 20.0682,6.51295 20.4853,13.10534 0.3989,6.30427 -7.1387,12.6783 -6.0337,16.13815 8.9243,-0.42721 22.0441,-10.45987 25.8062,-17.8702 2.3736,-4.67539 -5.6329,-6.49795 -9.1562,-8.3125 -4.5163,-3.69142 -2.4364,-9.96255 -1.5992,-14.8289 0.7475,-4.34454 -1.6284,-8.79522 -3.0759,-12.93041 -0.7138,-2.03901 -3.1073,-8.87755 -4.1323,-11.33203 -5.171,2.37117 -13.0423,5.439 -16.0798,6.15302 z"
       id="path450405"
       type="area" code="450405" />
    <path
       style="fill:#0088aa"
       d="m 1151.001,307.1171 c -6.1003,5.40915 -11.6251,6.38692 -14.2822,8.03915 -1.2587,0.55224 -3.8923,1.78515 -4.1242,3.47604 -0.2318,1.69089 2.2779,4.92724 2.1304,7.10751 -5.3917,4.14896 -7.4524,5.46273 -11.8453,8.87124 1.7144,4.9489 6.3403,13.36019 5.0891,18.88896 -0.4861,10.77979 -4.6961,15.25651 -9.6452,25.71971 1.7316,2.18224 4.7434,7.58001 8.723,8.95174 3.9795,1.37173 4.7295,-1.20215 10.7616,-0.13116 8.5922,1.52554 9.4073,4.14869 11.2732,9.29398 2.6363,7.26943 9.0401,10.9323 14.6901,16.89181 3.3641,3.54835 7.8509,3.51443 11.1712,6.89611 1.8094,1.81178 7.6087,4.54998 8.5693,-0.15818 1.0105,-4.26129 3.9955,-7.40391 6.9255,-10.21401 2.3552,-6.67719 -4.4365,-11.40633 -9.0937,-14.3125 -3.9522,-6.43355 0.8307,-13.89092 -0.9688,-20.78125 -0.2319,-10.857 -4.0693,-21.39843 -6.0312,-31.875 2.86,-8.49851 4.5917,-23.22133 7.0062,-31.61237 -13.1009,3.18307 -18.5402,-5.19877 -21.186,-15.03354 -3.857,5.21436 -5.2145,6.48063 -9.163,9.98176 z"
       id="path450406"
       type="area" code="450406" />
    <path
       style="fill:#0088aa"
       d="m 1069.8822,370.09375 c -7.9694,2.0691 -11.4041,4.77959 -11.5626,14.02815 -0.085,4.98142 -2.0491,8.9566 -8.8821,7.16171 -14.343,-3.76762 -21.9015,21.05835 -17.125,34.02889 -0.964,10.22109 -8.8193,21.37526 -2.1563,31.03125 3.1781,3.61832 8.5715,4.42566 13.25,4.75 -0.096,9.69132 -7.8756,19.8212 -2.625,29.0625 11.0789,5.27208 21.546,13.49187 25.9376,25.375 1.919,4.241 6.7508,6.11824 10.9687,4.15625 10.7423,-2.96678 19.9251,-10.55542 31.125,-12 6.546,-4.83324 1.6407,-16.19472 8.625,-20.34375 7.167,-2.76142 15.1424,2.46559 22.0313,-1.96875 16.0968,-7.08324 23.8924,-24.013 36.1874,-35.65625 7.8917,-10.27011 1.9148,-24.57671 -9.0312,-32.59375 -3.7699,-2.76115 -8.3462,-6.75544 -12.4808,-11.39892 -2.3663,-2.65758 -4.9249,-4.5409 -6.4332,-10.40388 -1.7004,-6.60908 -12.4076,-7.35382 -16.1772,-6.57198 -6.8832,1.42763 -9.7238,-3.37537 -13.7089,-8.87049 -9.1632,-3.83169 -25.1329,3.15344 -28.5461,1.74141 -2.7435,-1.06612 -4.028,-5.36553 -4.9196,-7.38136 -1.1123,-2.51497 -6.5075,-6.21513 -14.477,-4.14603 z"
       id="path450481"
       type="area" code="450481" />
    <g
       id="g450423" type="data" code="450423"
       transform="matrix(0.98695514,0,0,1.0304851,1081.458,-727.98497)">
      <text
         id="text450423-lc"
         x="-122.67094"
         y="849.59302"
         style="font-size:12px;fill:#ffffff;filter:url(#green);font-family:Sans">22</text>
      <text
         id="text450423-cq"
         x="-98.986"
         y="849.59302"
         style="font-size:12px;fill:#ffffff;filter:url(#orange);font-family:Sans">22</text>
    </g>
    <path
       sodipodi:type="arc"
       style="fill:#d40000;fill-opacity:1;stroke:#dd66ff;stroke-opacity:0"
       id="D450423"
       sodipodi:cx="314.82144"
       sodipodi:cy="114.75"
       sodipodi:rx="3.0357144"
       sodipodi:ry="3.0357144"
       d="m 317.85716,114.75 c 0,1.67658 -1.35914,3.03571 -3.03572,3.03571 -1.67658,0 -3.03571,-1.35913 -3.03571,-3.03571 0,-1.67658 1.35913,-3.03571 3.03571,-3.03571 1.67658,0 3.03572,1.35913 3.03572,3.03571 z"
       transform="matrix(0.79797983,0,0,0.79797981,726.92496,38.170527)" />
    <text
       sodipodi:linespacing="125%"
       id="text450423"
       y="123.079"
       x="966.82971"
       style="font-size:40px;font-style:normal;font-weight:normal;line-height:125%;letter-spacing:0px;word-spacing:0px;fill:#000000;fill-opacity:1;stroke:none;font-family:Sans"
       xml:space="preserve"><tspan
         style="font-size:12px;fill:#ffffff"
         y="123.079"
         x="966.82971"
         id="tspan4510"
         sodipodi:role="line">蒙山</tspan></text>
    <g
       id="g450421" type="data" code="450421"
       transform="matrix(0.98695514,0,0,1.0304851,1292.3728,-635.49267)">
      <text
         id="text450421-lc"
         x="-122.67094"
         y="849.59302"
         style="font-size:12px;fill:#ffffff;filter:url(#green);font-family:Sans">22</text>
      <text
         id="text450421-cq"
         x="-98.986"
         y="849.59302"
         style="font-size:12px;fill:#ffffff;filter:url(#orange);font-family:Sans">22</text>
    </g>
    <path
       sodipodi:type="arc"
       style="fill:#d40000;fill-opacity:1;stroke:#dd66ff;stroke-opacity:0"
       id="D450421"
       sodipodi:cx="314.82144"
       sodipodi:cy="114.75"
       sodipodi:rx="3.0357144"
       sodipodi:ry="3.0357144"
       d="m 317.85716,114.75 c 0,1.67658 -1.35914,3.03571 -3.03572,3.03571 -1.67658,0 -3.03571,-1.35913 -3.03571,-3.03571 0,-1.67658 1.35913,-3.03571 3.03571,-3.03571 1.67658,0 3.03572,1.35913 3.03572,3.03571 z"
       transform="matrix(0.79797983,0,0,0.79797981,936.63078,172.31792)" />
    <text
       sodipodi:linespacing="125%"
       id="text450421"
       y="257.38162"
       x="1176.2288"
       style="font-size:40px;font-style:normal;font-weight:normal;line-height:125%;letter-spacing:0px;word-spacing:0px;fill:#000000;fill-opacity:1;stroke:none;font-family:Sans"
       xml:space="preserve"><tspan
         style="font-size:12px;fill:#ffffff"
         y="257.38162"
         x="1176.2288"
         id="tspan4510-5"
         sodipodi:role="line">苍梧</tspan></text>
    <g
       id="g450422" type="data" code="450422"
       transform="matrix(0.98695514,0,0,1.0304851,1173.0958,-535.62176)">
      <text
         id="text450422-lc"
         x="-122.67094"
         y="849.59302"
         style="font-size:12px;fill:#ffffff;filter:url(#green);font-family:Sans">22</text>
      <text
         id="text450422-cq"
         x="-98.986"
         y="849.59302"
         style="font-size:12px;fill:#ffffff;filter:url(#orange);font-family:Sans">22</text>
    </g>
    <path
       sodipodi:type="arc"
       style="fill:#d40000;fill-opacity:1;stroke:#dd66ff;stroke-opacity:0"
       id="D450422"
       sodipodi:cx="314.82144"
       sodipodi:cy="114.75"
       sodipodi:rx="3.0357144"
       sodipodi:ry="3.0357144"
       d="m 317.85716,114.75 c 0,1.67658 -1.35914,3.03571 -3.03572,3.03571 -1.67658,0 -3.03571,-1.35913 -3.03571,-3.03571 0,-1.67658 1.35913,-3.03571 3.03571,-3.03571 1.67658,0 3.03572,1.35913 3.03572,3.03571 z"
       transform="matrix(0.79797983,0,0,0.79797981,832.41357,227.02145)" />
    <text
       sodipodi:linespacing="125%"
       id="text450422"
       y="322.19623"
       x="1052.4772"
       style="font-size:40px;font-style:normal;font-weight:normal;line-height:125%;letter-spacing:0px;word-spacing:0px;fill:#000000;fill-opacity:1;stroke:none;font-family:Sans"
       xml:space="preserve"><tspan
         style="font-size:12px;fill:#ffffff"
         y="322.19623"
         x="1052.4772"
         id="tspan4510-7"
         sodipodi:role="line">藤县</tspan></text>
    <g
       id="g450403" type="data" code="450403"
       transform="matrix(0.98695514,0,0,1.0304851,1278.3922,-592.22503)">
      <text
         id="text450403-lc"
         x="-122.67094"
         y="849.59302"
         style="font-size:12px;fill:#ffffff;filter:url(#green);font-family:Sans">22</text>
      <text
         id="text450403-cq"
         x="-98.986"
         y="849.59302"
         style="font-size:12px;fill:#ffffff;filter:url(#orange);font-family:Sans">22</text>
    </g>
    <path
       sodipodi:type="arc"
       style="fill:#d40000;fill-opacity:1;stroke:#dd66ff;stroke-opacity:0"
       id="D450403"
       sodipodi:cx="314.82144"
       sodipodi:cy="114.75"
       sodipodi:rx="3.0357144"
       sodipodi:ry="3.0357144"
       d="m 317.85716,114.75 c 0,1.67658 -1.35914,3.03571 -3.03572,3.03571 -1.67658,0 -3.03571,-1.35913 -3.03571,-3.03571 0,-1.67658 1.35913,-3.03571 3.03571,-3.03571 1.67658,0 3.03572,1.35913 3.03572,3.03571 z"
       transform="matrix(0.79797983,0,0,0.79797981,919.91824,213.67027)" />
    <text
       sodipodi:linespacing="125%"
       id="text450403"
       y="299.00198"
       x="1157.3608"
       style="font-size:40px;font-style:normal;font-weight:normal;line-height:125%;letter-spacing:0px;word-spacing:0px;fill:#000000;fill-opacity:1;stroke:none;font-family:Sans"
       xml:space="preserve"><tspan
         style="font-size:12px;fill:#ffffff"
         y="299.00198"
         x="1157.3608"
         id="tspan4510-4"
         sodipodi:role="line">万秀区</tspan></text>
    <g
       id="g450405" type="data" code="450405"
       transform="matrix(0.98695514,0,0,1.0304851,1228.213,-586.93545)">
      <text
         id="text450405-lc"
         x="-122.67094"
         y="849.59302"
         style="font-size:12px;fill:#ffffff;filter:url(#green);font-family:Sans">22</text>
      <text
         id="text450405-cq"
         x="-98.986"
         y="849.59302"
         style="font-size:12px;fill:#ffffff;filter:url(#orange);font-family:Sans">22</text>
    </g>
    <path
       sodipodi:type="arc"
       style="fill:#d40000;fill-opacity:1;stroke:#dd66ff;stroke-opacity:0"
       id="D450405"
       sodipodi:cx="314.82144"
       sodipodi:cy="114.75"
       sodipodi:rx="3.0357144"
       sodipodi:ry="3.0357144"
       d="m 317.85716,114.75 c 0,1.67658 -1.35914,3.03571 -3.03572,3.03571 -1.67658,0 -3.03571,-1.35913 -3.03571,-3.03571 0,-1.67658 1.35913,-3.03571 3.03571,-3.03571 1.67658,0 3.03572,1.35913 3.03572,3.03571 z"
       transform="matrix(0.79797983,0,0,0.79797981,894.14916,209.28748)" />
    <text
       sodipodi:linespacing="125%"
       id="text450405"
       y="304.6954"
       x="1100.8538"
       style="font-size:40px;font-style:normal;font-weight:normal;line-height:125%;letter-spacing:0px;word-spacing:0px;fill:#000000;fill-opacity:1;stroke:none;font-family:Sans"
       xml:space="preserve"><tspan
         style="font-size:12px;fill:#ffffff"
         y="304.6954"
         x="1100.8538"
         id="tspan4510-16"
         sodipodi:role="line">长洲区</tspan></text>
    <g
       id="g450406" type="data" code="450406"
       transform="matrix(0.98695514,0,0,1.0304851,1257.017,-521.81328)">
      <text
         id="text450406-lc"
         x="-122.67094"
         y="849.59302"
         style="font-size:12px;fill:#ffffff;filter:url(#green);font-family:Sans">22</text>
      <text
         id="text450406-cq"
         x="-98.986"
         y="849.59302"
         style="font-size:12px;fill:#ffffff;filter:url(#orange);font-family:Sans">22</text>
    </g>
    <path
       sodipodi:type="arc"
       style="fill:#d40000;fill-opacity:1;stroke:#dd66ff;stroke-opacity:0"
       id="D450406"
       sodipodi:cx="314.82144"
       sodipodi:cy="114.75"
       sodipodi:rx="3.0357144"
       sodipodi:ry="3.0357144"
       d="m 317.85716,114.75 c 0,1.67658 -1.35914,3.03571 -3.03572,3.03571 -1.67658,0 -3.03571,-1.35913 -3.03571,-3.03571 0,-1.67658 1.35913,-3.03571 3.03571,-3.03571 1.67658,0 3.03572,1.35913 3.03572,3.03571 z"
       transform="matrix(0.79797983,0,0,0.79797981,903.0308,226.01996)" />
    <text
       sodipodi:linespacing="125%"
       id="text450406"
       y="334.12741"
       x="1142.3998"
       style="font-size:40px;font-style:normal;font-weight:normal;line-height:125%;letter-spacing:0px;word-spacing:0px;fill:#000000;fill-opacity:1;stroke:none;font-family:Sans"
       xml:space="preserve"><tspan
         style="font-size:12px;fill:#ffffff"
         y="334.12741"
         x="1142.3998"
         id="tspan4510-74"
         sodipodi:role="line">龙圩</tspan></text>
    <g
       id="g450481" type="data" code="450481"
       transform="matrix(0.98695514,0,0,1.0304851,1200.6813,-460.70368)">
      <text
         id="text450481-lc"
         x="-122.67094"
         y="849.59302"
         style="font-size:12px;fill:#ffffff;filter:url(#green);font-family:Sans">22</text>
      <text
         id="text450481-cq"
         x="-98.986"
         y="849.59302"
         style="font-size:12px;fill:#ffffff;filter:url(#orange);font-family:Sans">22</text>
    </g>
    <path
       sodipodi:type="arc"
       style="fill:#d40000;fill-opacity:1;stroke:#dd66ff;stroke-opacity:0"
       id="D450481"
       sodipodi:cx="314.82144"
       sodipodi:cy="114.75"
       sodipodi:rx="3.0357144"
       sodipodi:ry="3.0357144"
       d="m 317.85716,114.75 c 0,1.67658 -1.35914,3.03571 -3.03572,3.03571 -1.67658,0 -3.03571,-1.35913 -3.03571,-3.03571 0,-1.67658 1.35913,-3.03571 3.03571,-3.03571 1.67658,0 3.03572,1.35913 3.03572,3.03571 z"
       transform="matrix(0.79797983,0,0,0.79797981,845.62761,348.24838)" />
    <text
       sodipodi:linespacing="125%"
       id="text450481"
       y="433.17172"
       x="1084.2163"
       style="font-size:40px;font-style:normal;font-weight:normal;line-height:125%;letter-spacing:0px;word-spacing:0px;fill:#000000;fill-opacity:1;stroke:none;font-family:Sans"
       xml:space="preserve"><tspan
         style="font-size:12px;fill:#ffffff"
         y="433.17172"
         x="1084.2163"
         id="tspan4510-14"
         sodipodi:role="line">芩溪</tspan></text>
  </g>
</svg>
