<?xml version="1.0" encoding="UTF-8" standalone="no"?>
<!-- Created with Inkscape (http://www.inkscape.org/) -->

<svg
   xmlns:osb="http://www.openswatchbook.org/uri/2009/osb"
   xmlns:dc="http://purl.org/dc/elements/1.1/"
   xmlns:cc="http://creativecommons.org/ns#"
   xmlns:rdf="http://www.w3.org/1999/02/22-rdf-syntax-ns#"
   xmlns:svg="http://www.w3.org/2000/svg"
   xmlns="http://www.w3.org/2000/svg"
   xmlns:sodipodi="http://sodipodi.sourceforge.net/DTD/sodipodi-0.dtd"
   xmlns:inkscape="http://www.inkscape.org/namespaces/inkscape"
   width="100%"
   height="100%"
   viewBox="0 0 460 460"
   id="svg5709"
   version="1.1"
   inkscape:version="0.48.5 r10040"
   sodipodi:docname="450500-2.svg">
  <defs
     id="defs5711">
    <linearGradient
       osb:paint="solid"
       id="linearGradient5344">
      <stop
         id="stop5346"
         offset="0"
         style="stop-color:#000000;stop-opacity:1;" />
    </linearGradient>
    <linearGradient
       id="linearGradient5344-4"
       osb:paint="solid">
      <stop
         style="stop-color:#000000;stop-opacity:1;"
         offset="0"
         id="stop5346-0" />
    </linearGradient>
    <linearGradient
       id="linearGradient5344-7"
       osb:paint="solid">
      <stop
         style="stop-color:#000000;stop-opacity:1;"
         offset="0"
         id="stop5346-2" />
    </linearGradient>
    <filter
       color-interpolation-filters="sRGB"
       x="-0.1"
       y="0"
       width="1.2"
       height="1"
       id="green">
      <feFlood
         flood-color="#008000"
         id="feFlood6"
         result="result1" />
      <feComposite
         in="SourceGraphic"
         id="feComposite8"
         in2="result1" />
    </filter>
    <filter
       color-interpolation-filters="sRGB"
       x="-0.1"
       y="0"
       width="1.2"
       height="1"
       id="orange">
      <feFlood
         flood-color="#ff7f2a"
         id="feFlood11"
         result="result1" />
      <feComposite
         in="SourceGraphic"
         id="feComposite13"
         in2="result1" />
    </filter>
    <linearGradient
       id="linearGradient5344-2"
       osb:paint="solid">
      <stop
         style="stop-color:#000000;stop-opacity:1;"
         offset="0"
         id="stop5346-4" />
    </linearGradient>
    <filter
       id="orange-4"
       height="1"
       width="1.2"
       y="0"
       x="-0.1">
      <feFlood
         result="result1"
         id="feFlood11-8"
         flood-color="#ff7f2a" />
      <feComposite
         in2="result1"
         id="feComposite13-8"
         in="SourceGraphic" />
    </filter>
    <filter
       id="green-4"
       height="1"
       width="1.2"
       y="0"
       x="-0.1">
      <feFlood
         result="result1"
         id="feFlood6-0"
         flood-color="#008000" />
      <feComposite
         in2="result1"
         id="feComposite8-9"
         in="SourceGraphic" />
    </filter>
  </defs>
  <sodipodi:namedview
     id="base"
     pagecolor="#ffffff"
     bordercolor="#666666"
     borderopacity="1.0"
     inkscape:pageopacity="0.0"
     inkscape:pageshadow="2"
     inkscape:zoom="2.0000001"
     inkscape:cx="322.27233"
     inkscape:cy="226.71091"
     inkscape:current-layer="layer1-8"
     inkscape:document-units="px"
     showgrid="false"
     inkscape:window-width="1920"
     inkscape:window-height="1017"
     inkscape:window-x="-8"
     inkscape:window-y="-8"
     inkscape:window-maximized="1"
     inkscape:showpageshadow="false" />
  <metadata
     id="metadata5714">
    <rdf:RDF>
      <cc:Work
         rdf:about="">
        <dc:format>image/svg+xml</dc:format>
        <dc:type
           rdf:resource="http://purl.org/dc/dcmitype/StillImage" />
        <dc:title></dc:title>
      </cc:Work>
    </rdf:RDF>
  </metadata>
  <g
     id="layer1"
     inkscape:label="Layer 1"
     inkscape:groupmode="layer"
     transform="translate(0,-20)">
    <g
       inkscape:label="Layer 1"
       id="layer1-8"
       transform="translate(-1.2907817,7.7446826)">
      <g
         inkscape:label="Layer 1"
         id="layer1-1"
         transform="translate(6.1672211,-588.29488)">
        <g
           id="g9680"
           transform="translate(-469.51891,123.03658)"
           style="fill:#e6e6e6">
          <path
             style="fill:#e6e6e6"
             d="m 711.06119,667.49647 c -8.15784,2.4325 -12.85951,10.71161 -19.24632,15.93382 -5.05914,5.54332 -12.91172,10.65672 -12.03493,19.19118 -0.60119,7.11514 -11.13475,12.42228 -15.78125,5.8125 -3.16988,-3.21899 -0.91521,-11.43082 -7,-9.96875 -4.50668,-0.29596 -13.56816,-0.15986 -12.9375,6.625 4.58035,12.78585 5.63385,25.01279 1.59375,38.6875 -2.66747,3.75542 -5.84484,8.04303 -5.5625,12.96875 -5.59968,3.70856 -9.03599,2.80738 -13.125,6.96875 -13.47785,7.55714 -29.78304,10.51298 -44.59375,4.40625 -7.15368,-2.94387 -11.32523,-7.20956 -18.21875,-10.15625 -5.79315,0.5311 -7.67812,8.39712 -4.3125,12.71875 6.32073,12.90181 16.71563,24.88612 16.375,40.0625 0.35225,10.02942 0.46149,22.14289 9.15625,28.78125 3.88984,2.43451 9.46364,4.34138 12.84375,0.0312 6.42174,-5.91709 4.90519,-15.67978 7.375,-23.0625 11.81335,-2.05335 24.29912,-0.97272 36.125,-2.40625 16.3633,-10.09591 28.4827,-25.22659 43.5625,-36.96875 6.02947,-4.99577 12.68537,-10.56182 13.34375,-18.96875 -0.1377,-4.55974 1.70698,-9.18649 6.53125,-10.59375 6.66422,-3.44314 14.26271,-0.54284 21.15625,-1.96875 4.83612,-3.28903 -0.026,-9.95419 1.1046,-14.59354 -0.60846,-4.77774 1.98272,-10.76188 0.0692,-14.67096 -3.87372,-1.83793 -11.03971,-5.20469 -7.51751,-10.548 1.44083,-4.58185 8.49043,-8.62359 3.75699,-13.19585 -5.53969,-6.9869 0.94107,-19.12255 -7.75699,-24.24165 -1.51164,-0.72139 -3.23625,-0.9632 -4.90625,-0.84375 z"
             id="path450503"
             inkscape:connector-curvature="0"
             onmouseout="changeColorOut('path450503')"
			 onmouseover="changeColorOver('path450503')"
             sodipodi:nodetypes="cccccccccccccccccccccccccccc" />
          <path
             style="fill:#e6e6e6"
             d="m 754.62369,669.99647 c -6.59925,-0.53953 -17.76517,0.40072 -18.1875,7.15625 -0.55746,3.28689 -4.74461,3.99795 -6.375,0.96875 -3.16143,-3.75613 -6.49575,1.61101 -5.15625,4.875 1.74205,5.68722 7.3345,12.28586 2.3125,17.875 -2.41171,1.61479 -7.16593,8.95637 -3.15625,8.875 4.90336,1.83788 10.4592,4.80753 8.1875,9.46875 -4.5982,9.60731 -0.40764,17.40656 -2.0625,27.1875 -5.69533,4.04515 -12.30098,3.93079 -18.83627,4.19306 -6.21022,-1.67402 -8.36276,-0.60291 -8.41373,6.30694 -2.37409,11.65303 -12.49547,21.39389 -21.70887,28.32949 -9.89242,8.2866 -40.76191,30.7696 -28.54113,30.42051 28.33893,-0.80952 57.07926,-5.30576 85.0625,-9.21875 11.98396,-2.59077 23.18243,-9.21331 29.9375,-19.6875 9.18434,-9.04948 21.34557,-25.19502 35.03125,-28.6875 8.31169,-2.66289 27.20895,3.79458 27.625,-3.25 1.21921,-20.64398 -4.89021,-46.93972 -8.84375,-51.15625 -2.59016,-10.23778 -9.20963,-15.45759 -17.875,-20.6875 -6.35211,-3.83376 -21.1626,0.45585 -27.23354,-2.85525 -8.08248,-5.4762 -11.29004,-10.37746 -21.76646,-10.1135 z"
             id="path450512"
             inkscape:connector-curvature="0"
             onmouseout="changeColorOut('path450512')"
			 onmouseover="changeColorOver('path450512')"
             sodipodi:nodetypes="cccccccccccscccscscc" />
          <path
             style="fill:#e6e6e6"
             d="m 748.24869,563.24647 c -5.57886,4.4144 -15.38879,1.26559 -18.4375,8.9375 -2.57687,6.40162 -11.13607,3.77475 -15.78125,1.3125 -4.4717,-3.36635 -8.80235,-5.70667 -12.15625,0.28125 -3.57621,2.83307 -7.56327,7.22152 -11.96875,7.96875 -3.14939,-3.33914 -0.67001,-9.28909 -4.90625,-12.21875 -3.62928,-4.75471 -6.37698,-5.6805 -7.90625,0.78125 -5.50061,3.13468 -5.87666,10.7897 -6.1875,16.625 -0.65274,5.6048 -8.40103,3.49658 -12.25,4.21875 -5.36574,-0.0897 -8.82644,8.55342 -14.0625,4.625 -3.22325,-4.24076 -6.14307,-3.05199 -9.40625,0.28125 -4.93613,3.09702 -8.9657,-4.96517 -14.21875,-2.46875 -6.0842,1.44772 -14.70289,3.58378 -18.8125,-2.875 -2.2449,-2.94615 -6.28249,-5.36005 -9.15625,-1.875 -6.27637,5.42886 -13.7971,10.06537 -22.46875,9.25 -5.53708,0.06 -9.70547,5.49053 -15.5,3.1875 -9.28906,-3.58645 -17.14942,4.56929 -24.09375,9.34375 -5.44829,4.95013 -7.88191,12.22387 -8.3125,19.34375 -5.27352,8.70963 -16.49853,9.09719 -23.59375,15.65625 -4.13171,5.16883 -9.35964,-0.8652 -14.125,-1.0625 -5.39979,1.32166 -3.73484,8.75389 -5.78125,12.71875 -1.95837,4.74242 -3.12543,10.71785 1.21875,14.6875 5.54832,8.11065 11.96764,16.20277 16.27321,24.87473 0.34111,14.81246 0.69634,29.62467 1.00804,44.43777 15.16967,1.69806 30.85301,2.58077 45.90625,-0.0625 8.79677,-2.3557 14.925,-9.51751 23.78125,-11.90625 12.34475,-3.42555 25.7365,-8.70441 38.5,-5.125 5.90976,3.68373 12.22081,-2.51255 17.72662,-4.37586 5.43078,-3.33492 13.03996,-6.7217 13.14838,-14.09289 1.94919,-9.36437 13.92574,-10.13967 21.625,-10.625 6.92222,0.7435 6.38174,12.25718 13.25,12.5625 5.09053,-3.38835 5.22604,-10.93932 9.3125,-15.40625 6.70521,-10.27528 15.99443,-18.72299 24.78125,-27.28125 7.31777,-0.44998 16.46497,-0.44133 20.53125,6.84375 2.62985,3.85384 8.50837,4.15482 11.1875,0.28125 7.31193,-5.88449 17.46175,-9.8164 26.46875,-5.25 7.42979,3.47637 7.06285,7.4391 14.6875,10.65625 7.58622,3.20093 24.44884,-1.37946 31.1875,5.21875 8.01201,8.11344 17.8399,16.02303 20.6875,27.5625 1.66221,16.45376 -0.006,33.59664 3.78125,49.84375 3.14105,3.91426 9.40408,3.57513 13.5,6.40625 11.24159,3.19828 18.70683,12.04612 26.2571,20.23431 6.16436,5.17283 10.94688,14.37106 19.7429,15.04694 6.95777,-1.37358 12.52765,-6.78001 18.3125,-10.5625 2.81223,-4.70018 -2.89261,-9.71174 -1.75,-14.8125 -0.60081,-6.39685 2.2242,-13.60363 -0.10685,-19.38856 -4.12566,-4.29398 -7.10174,-9.39809 -6.1119,-15.51769 -0.95635,-9.25715 -11.80219,-14.3786 -11.5625,-24.25 -0.16241,-8.58894 -1.45136,-17.71866 0.84375,-26 2.5801,-2.44661 4.32293,-8.43889 -0.75,-9.03125 -7.57815,-0.61764 -17.46607,1.03795 -21.75,-7.03125 -3.2255,-5.17454 -7.00243,-10.95362 -4.375,-17.25 0.50455,-2.95834 1.40554,-7.52871 -2.4375,-8.375 -6.56498,-3.35362 -3.88469,-12.48657 0.40625,-16.5625 2.97935,-5.30292 9.09878,-9.66901 9.65625,-15.96875 -2.45938,-4.84665 -9.68735,-1.33186 -13.125,-5.375 -3.88632,-1.52094 -5.23377,-7.50528 -0.9375,-9.4375 3.5509,-3.417 8.68829,-4.34072 12.5,-7 2.06812,-3.83255 -2.35468,-8.89431 1.25,-12.59375 2.98842,-4.72405 -3.25031,-11.69008 -8.40625,-8.84375 -4.63994,0.62332 -10.67516,2.75402 -13.90625,-1.9375 -2.64575,-3.50138 -7.16152,-4.72758 -11.03125,-2.46875 -9.43104,2.19806 -18.12121,-9.45569 -27.15625,-3.53125 -3.10433,2.81395 -6.4816,5.33007 -10.75,5.75 -7.96547,3.47671 -15.41021,11.83443 -24.84375,8.375 -3.65189,-1.09727 -4.80034,-5.05077 -6.09375,-8.21875 -3.25877,3.5044 -9.86978,9.07739 -14.4375,4.375 -3.21502,-4.16573 -4.73618,-9.17709 -7,-13.875 -0.625,0.32292 -1.25,0.64583 -1.875,0.96875 z"
             id="path450521"
             inkscape:connector-curvature="0"
             onmouseout="changeColorOut('path450521')"
			 onmouseover="changeColorOver('path450521')"
             sodipodi:nodetypes="ccccccccccccccccccccccccccccccccccccscccccccccccccccccccccccccccccccc" />
          <path
             style="fill:#e6e6e6"
             d="m 641.09244,714.30897 c -8.14431,3.23922 -15.22643,8.89342 -23.34375,12.3125 -11.41121,5.92399 -18.35115,18.34134 -31.53125,21.3125 -3.72211,2.18747 -15.80002,2.78343 -13.89023,6.17948 7.35197,5.91094 14.43688,14.80904 24.92148,13.82052 10.28744,-0.32464 22.30514,-1.53735 29.15625,-10.0625 7.32951,-6.1189 16.03982,-12.45774 18.9375,-21.9375 0.23632,-6.87481 1.09511,-14.93123 -2.34375,-21.15625 -0.61517,-0.34455 -1.16447,-0.66323 -1.90625,-0.46875 z"
             id="path450502"
             inkscape:connector-curvature="0" 
             onmouseout="changeColorOut('path450502')"
			 onmouseover="changeColorOver('path450502')" />
        </g>
        <path
           transform="matrix(0.79797983,0,0,0.79797981,-114.44442,718.68228)"
           d="m 317.85716,114.75 c 0,1.67658 -1.35914,3.03571 -3.03572,3.03571 -1.67658,0 -3.03571,-1.35913 -3.03571,-3.03571 0,-1.67658 1.35913,-3.03571 3.03571,-3.03571 1.67658,0 3.03572,1.35913 3.03572,3.03571 z"
           sodipodi:ry="3.0357144"
           sodipodi:rx="3.0357144"
           sodipodi:cy="114.75"
           sodipodi:cx="314.82144"
           id="path5561-6-3-8-3-3-6-2-8-5-3-9-2"
           style="fill:#d40000;fill-opacity:1;stroke:#dd66ff;stroke-opacity:0"
           sodipodi:type="arc" />
        <path
           transform="matrix(0.79797983,0,0,0.79797981,-111.45914,782.72139)"
           d="m 317.85716,114.75 c 0,1.67658 -1.35914,3.03571 -3.03572,3.03571 -1.67658,0 -3.03571,-1.35913 -3.03571,-3.03571 0,-1.67658 1.35913,-3.03571 3.03571,-3.03571 1.67658,0 3.03572,1.35913 3.03572,3.03571 z"
           sodipodi:ry="3.0357144"
           sodipodi:rx="3.0357144"
           sodipodi:cy="114.75"
           sodipodi:cx="314.82144"
           id="path5561-6-3-8-3-3-6-2-8-5-3-9-6"
           style="fill:#d40000;fill-opacity:1;stroke:#dd66ff;stroke-opacity:0"
           sodipodi:type="arc" />
        <g
           transform="translate(558.03137,542.19216)"
           inkscape:label="Layer 1"
           id="layer1-17">
          <g
             inkscape:label="Layer 1"
             id="layer1-1-1"
             transform="translate(5.521831,-577.96864)">
            <g
               id="g3066"
               transform="matrix(0.98695514,0,0,1.0304851,434.26038,-202.08552)">
              <g
                 id="g5442">
                <g
                   transform="translate(-3.0300703,22.161291)"
                   onclick="changeMap('5306-1.svg','5306')"
                   id="g450502">
                  <text
                     style="font-size:12px;fill:#ffffff;filter:url(#green-4);font-family:Sans"
                     y="1045.8773"
                     x="-846.96436"
                     id="text450502-lc">22</text>
                </g>
                <g
                   transform="translate(-232.63512,12.765633)"
                   onclick="changeMap('5334-1.svg','5334')"
                   id="g450521">
                  <text
                     style="font-size:12px;fill:#ffffff;filter:url(#green-4);font-family:Sans"
                     y="991.29089"
                     x="-670.39911"
                     id="text450521-lc">22</text>
                </g>
                <g
                   transform="translate(-258.5203,71.354242)"
                   onclick="changeMap('5333-1.svg','5333')"
                   id="g450512">
                  <text
                     style="font-size:12px;fill:#ffffff;filter:url(#green-4);font-family:Sans"
                     y="980.65497"
                     x="-458.68732"
                     id="text450512-lc">22</text>
                </g>
                <g
                   transform="translate(-171.79666,49.750813)"
                   onclick="changeMap('5307-1.svg','5307')"
                   id="g450503">
                  <text
                     style="font-size:12px;fill:#ffffff;filter:url(#green-4);font-family:Sans"
                     y="999.44751"
                     x="-604.10278"
                     id="text450503-lc">22</text>
                </g>
                <text
                   xml:space="preserve"
                   style="font-size:39.66344452px;font-style:normal;font-weight:normal;line-height:125%;letter-spacing:0px;word-spacing:0px;fill:#000000;fill-opacity:1;stroke:none;font-family:Sans"
                   x="-843.67499"
                   y="1105.7609"
                   id="text450502"
                   sodipodi:linespacing="125%"
                   transform="scale(1.0218147,0.97865102)"><tspan
                     sodipodi:role="line"
                     id="tspan450502"
                     x="-843.67499"
                     y="1105.7609"
                     style="font-size:11.89903355px;fill:#666666">海城区</tspan></text>
                <path
                   transform="matrix(0.80852695,0,0,0.77437297,-1046.7148,969.82573)"
                   d="m 317.85716,114.75 c 0,1.67658 -1.35914,3.03571 -3.03572,3.03571 -1.67658,0 -3.03571,-1.35913 -3.03571,-3.03571 0,-1.67658 1.35913,-3.03571 3.03571,-3.03571 1.67658,0 3.03572,1.35913 3.03572,3.03571 z"
                   sodipodi:ry="3.0357144"
                   sodipodi:rx="3.0357144"
                   sodipodi:cy="114.75"
                   sodipodi:cx="314.82144"
                   id="path5561-6-3-8-3-3-6-2"
                   style="fill:#d40000;fill-opacity:1;stroke:#dd66ff;stroke-opacity:0"
                   sodipodi:type="arc" />
                <text
                   xml:space="preserve"
                   style="font-size:39.66344452px;font-style:normal;font-weight:normal;line-height:125%;letter-spacing:0px;word-spacing:0px;fill:#000000;fill-opacity:1;stroke:none;font-family:Sans"
                   x="-770.71997"
                   y="1085.7216"
                   id="text450503"
                   sodipodi:linespacing="125%"
                   transform="scale(1.0218147,0.97865102)"><tspan
                     sodipodi:role="line"
                     id="tspan450503"
                     x="-770.71997"
                     y="1085.7216"
                     style="font-size:11.89903355px;fill:#666666">银海区</tspan></text>
                <path
                   transform="matrix(0.80852695,0,0,0.77437297,-964.13266,983.05485)"
                   d="m 317.85716,114.75 c 0,1.67658 -1.35914,3.03571 -3.03572,3.03571 -1.67658,0 -3.03571,-1.35913 -3.03571,-3.03571 0,-1.67658 1.35913,-3.03571 3.03571,-3.03571 1.67658,0 3.03572,1.35913 3.03572,3.03571 z"
                   sodipodi:ry="3.0357144"
                   sodipodi:rx="3.0357144"
                   sodipodi:cy="114.75"
                   sodipodi:cx="314.82144"
                   id="path5561-6-3-8-3-3-6-2-8"
                   style="fill:#d40000;fill-opacity:1;stroke:#dd66ff;stroke-opacity:0"
                   sodipodi:type="arc" />
                <text
                   xml:space="preserve"
                   style="font-size:39.66344452px;font-style:normal;font-weight:normal;line-height:125%;letter-spacing:0px;word-spacing:0px;fill:#000000;fill-opacity:1;stroke:none;font-family:Sans"
                   x="-718.24774"
                   y="1089.2688"
                   id="text450512"
                   sodipodi:linespacing="125%"
                   transform="scale(1.0218147,0.97865102)"><tspan
                     sodipodi:role="line"
                     id="tspan450512"
                     x="-718.24774"
                     y="1089.2688"
                     style="font-size:11.89903355px;fill:#666666">铁山港区</tspan></text>
                <path
                   transform="matrix(0.80852695,0,0,0.77437297,-1126.9722,927.57164)"
                   d="m 317.85716,114.75 c 0,1.67658 -1.35914,3.03571 -3.03572,3.03571 -1.67658,0 -3.03571,-1.35913 -3.03571,-3.03571 0,-1.67658 1.35913,-3.03571 3.03571,-3.03571 1.67658,0 3.03572,1.35913 3.03572,3.03571 z"
                   sodipodi:ry="3.0357144"
                   sodipodi:rx="3.0357144"
                   sodipodi:cy="114.75"
                   sodipodi:cx="314.82144"
                   id="path5561-6-3-8-3-3-6-2-8-5"
                   style="fill:#d40000;fill-opacity:1;stroke:#dd66ff;stroke-opacity:0"
                   sodipodi:type="arc" />
                <text
                   xml:space="preserve"
                   style="font-size:39.66344452px;font-style:normal;font-weight:normal;line-height:125%;letter-spacing:0px;word-spacing:0px;fill:#000000;fill-opacity:1;stroke:none;font-family:Sans"
                   x="-895.33057"
                   y="1042.0569"
                   id="text450521"
                   sodipodi:linespacing="125%"
                   transform="scale(1.0218147,0.97865102)"><tspan
                     sodipodi:role="line"
                     id="tspan450521"
                     x="-895.33057"
                     y="1042.0569"
                     style="font-size:11.89903355px;fill:#666666">合浦县</tspan></text>
              </g>
            </g>
          </g>
        </g>
      </g>
    </g>
  </g>
</svg>
