<?xml version="1.0" encoding="UTF-8" standalone="no"?>
<!-- Created with Inkscape (http://www.inkscape.org/) -->

<svg
   xmlns:dc="http://purl.org/dc/elements/1.1/"
   xmlns:cc="http://creativecommons.org/ns#"
   xmlns:rdf="http://www.w3.org/1999/02/22-rdf-syntax-ns#"
   xmlns:svg="http://www.w3.org/2000/svg"
   xmlns="http://www.w3.org/2000/svg"
   xmlns:sodipodi="http://sodipodi.sourceforge.net/DTD/sodipodi-0.dtd"
   xmlns:inkscape="http://www.inkscape.org/namespaces/inkscape"
   id="svg4836"
   version="1.1"
   inkscape:version="0.48.5 r10040"
   width="100%"
   height="100%"
   viewBox="0 0 460 460"
   sodipodi:docname="qinzhou2.svg">
  <metadata
     id="metadata4842">
    <rdf:RDF>
      <cc:Work
         rdf:about="">
        <dc:format>image/svg+xml</dc:format>
        <dc:type
           rdf:resource="http://purl.org/dc/dcmitype/StillImage" />
        <dc:title></dc:title>
      </cc:Work>
    </rdf:RDF>
  </metadata>
  <defs
     id="defs4840">
    <filter
       color-interpolation-filters="sRGB"
       x="-0.1"
       y="0"
       width="1.2"
       height="1"
       id="green">
      <feFlood
         flood-color="#008000"
         id="feFlood6"
         result="result1" />
      <feComposite
         in="SourceGraphic"
         id="feComposite8"
         in2="result1" />
    </filter>
    <filter
       color-interpolation-filters="sRGB"
       x="-0.1"
       y="0"
       width="1.2"
       height="1"
       id="orange">
      <feFlood
         flood-color="#ff7f2a"
         id="feFlood11"
         result="result1" />
      <feComposite
         in="SourceGraphic"
         id="feComposite13"
         in2="result1" />
    </filter>
  </defs>
  <sodipodi:namedview
     pagecolor="#ffffff"
     bordercolor="#666666"
     borderopacity="1"
     objecttolerance="10"
     gridtolerance="10"
     guidetolerance="10"
     inkscape:pageopacity="0"
     inkscape:pageshadow="2"
     inkscape:window-width="1920"
     inkscape:window-height="1018"
     id="namedview4838"
     showgrid="false"
     inkscape:zoom="1.8391304"
     inkscape:cx="230"
     inkscape:cy="230"
     inkscape:window-x="-8"
     inkscape:window-y="-8"
     inkscape:window-maximized="1"
     inkscape:current-layer="g4846" />
  <g
     id="g4846"
     transform="translate(-865.20938,301.78858)">
    <path
       style="fill:#e6e6e6"
       d="m 1060.206,-74.131353 c -1.9483,-0.360534 -8.7638,-3.539652 -33.6788,0.527902 -4.5472,0.742373 -5.9174,-0.611851 -9.7865,-1.199126 -9.0705,-1.376805 -16.92794,7.305384 -18.62236,15.0625 -1.85381,8.486755 -7.84663,14.701426 -11.81532,13.216158 -6.52841,-2.205519 -3.6198,-8.754113 -7.34515,-11.922172 -5.89872,-5.01631 -21.65771,-7.830527 -28.80162,-5.866409 -7.88274,2.167249 -11.12963,10.915487 -14.69289,18.279699 -2.91141,6.017011 -7.88893,13.124551 -6.97166,20.668581 0.85778,7.054868 8.06239,8.655903 13.5708,11.61422 2.60078,4.4506657 1.41048,11.3566521 5.4375,14.4375 4.3368,-5.5263284 8.49945,-13.937774 17,-12.1875 10.25247,0.194347 20.87596,11.71100984 15.4375,21.8125 -3.81364,3.24114 -11.18637,8.642074 -6.77157,14.320127 2.88764,3.926217 5.37301,8.969255 4.24032,13.867373 4.31581,3.863309 10.11368,-1.314048 10.65625,-6 0.2277,-2.983578 4.75644,-6.018539 5.78125,-1.90625 0.74094,8.710672 11.55035,13.279157 19.03125,9.84375 -0.4377,9.712953 -0.8084,23.871319 9.8438,28.28125 6.0788,0.294537 11.7644,-6.916535 17.875,-2.84375 3.383,2.121056 11.4766,-0.593494 8.375,-5.34375 -4.4602,-7.427804 -6.9306,-18.391311 0.4687,-24.875 6.5775,-7.84271 19.9101,-6.647409 24.375,-16.65625 6.6265,-10.889283 17.8037,-18.55656231 30.625,-19.65625 4.4755,-0.6304489 6.2832,-6.0750775 11.1563,-6.09375 3.5213,-0.8228793 6.3171,1.8902559 8.0312,4.3125 4.3155,-0.9889584 3.3082,-7.4281665 0.875,-10.15625 -5.4592,-6.120865 -9.808,-12.263347 -15.2188,-19.4375 -5.4585,-7.237364 -7.0784,-9.385348 -13.4944,-15.510588 -8.1799,-7.809233 -0.3534,-15.490892 -6.9448,-19.389218 -9.6394,-5.701002 -7.0591,-5.6715 -9.6472,-9.696536 -2.4709,-3.84275 -13.3867,0.232476 -18.9888,2.496239 z"
       id="path450702"
       onmouseout="changeColorOut('path450702')"
       onmouseover="changeColorOver('path450702')"
       inkscape:connector-curvature="0"
       sodipodi:nodetypes="cssscsssscccccccccccccccccsssssc" />
    <path
       style="fill:#e6e6e6"
       d="m 1220.5,-229 c -12.7355,10.54396 -31.6615,-2.3764 -44,8.6875 -8.2319,7.59072 -7.0287,19.71573 -7.6562,29.65625 -5.6197,7.95939 -17.2694,3.75035 -22.875,-2 -3.8855,-3.07808 -8.7523,-9.1743 -14.3126,-6.78125 -2.846,3.93689 -7.0241,7.86821 -12.2732,6.50097 -12.6271,1.64843 -27.0008,2.65927 -37.9768,-5.06347 -5.379,4.21518 -11.9871,6.67016 -18.875,5.375 -11.6278,-1.19436 -24.206,-6.84811 -35.3437,-0.75 -12.944,4.26387 -23.4127,19.65517 -16.9063,32.875 5.841,12.15063 20.456,13.66181 30.7188,20.0625 5.6323,3.51277 4.8276,6.09941 7.0274,12.05245 1.2759,3.45282 9.8592,4.37708 12.4414,8.1663 4.1396,6.07445 0.2851,12.91834 0.3124,19.25 0.017,3.961555 3.8633,4.83806 6.8126,6.28125 4.9979,2.445641 -2.3554,16.131065 -6.3997,19.190025 8.118,-2.316835 9.3283,-2.947017 11.8371,-3.346275 4.8587,-0.773223 6.6441,0.988229 8.9216,6.139884 1.5747,3.561985 10.8689,5.127006 10.3597,10.297616 -0.5244,5.324745 -0.055,10.739454 4.9548,15.540729 9.7653,9.359537 16.5535,19.197864 23.9325,29.175429 5.0575,6.838559 10.9396,15.9298113 20.0502,17.315092 15.0304,-0.039233 24.6647,-16.28804 22.1174,-31.65862 -1.927,-11.62775 -3.6264,-22.941038 -2.9612,-34.09138 2.1936,-5.724186 -4.5435,-9.371982 -4.9374,-14.84375 -2.3255,-6.950806 -0.2964,-15.477815 6.0715,-19.3733 17.7013,-17.08393 32.1569,-36.81791 48.7097,-55.22045 10.2742,-11.42235 19.2757,-30.39439 22.4375,-38.3125 3.9896,-9.99118 4.2956,-11.12204 0.3116,-18.20498 -2.837,-5.04367 -5.9898,-13.55807 -11.9366,-17.38877 z"
       id="path450721"
       onmouseout="changeColorOut('path450721')"
       onmouseover="changeColorOver('path450721')"
       inkscape:connector-curvature="0"
       sodipodi:nodetypes="ccccccccccssssscssssscscccssscc" />
    <path
       style="fill:#e6e6e6"
       d="m 990.65625,-173.59375 c -4.48029,1.03507 -4.89727,8.52256 -10.4375,8.03125 -6.04022,1.46072 -15.23239,5.40744 -13.0625,13.1875 1.06127,12.59835 -4.69259,24.96082 -12.125,34.625 -5.52953,5.14444 -14.14984,4.78285 -20.3125,1.125 -18.27622,-3.9109 -32.70018,11.4021 -48.98186,16.779152 -6.45707,1.412556 -12.90135,5.778368 -13.11189,12.970848 -1.1485,11.282014 1.50322,22.709563 1.0625,34.09375 0.20393,9.245227 2.17372,19.491592 10.25,25.125 7.13876,7.62373 17.85165,10.634127 27.89012,7.852365 4.99693,-1.007231 10.04945,-2.581788 14.73488,-4.289865 1.9447,-12.6826 7.2,-23.028842 14.30018,-34.143612 7.3766,-11.547491 23.898,-8.992999 35.35671,-2.963789 5.56789,2.929645 4.80569,3.754419 5.74247,7.613179 1.3389,5.515119 3.65224,8.596246 9.22564,5.087972 6.91496,-5.377689 5.6611,-15.608453 12.1875,-21.75 6.9692,-6.558222 9.3288,-5.254265 18.8968,-4.041394 7.8595,0.99629 23.5872,-3.840269 34.8596,-1.048504 4.1763,1.03432 3.2095,-0.241844 3.9458,-1.065404 4.8913,-5.79539 8.1315,-11.841914 7.0344,-15.328223 -1.3184,-4.189258 -4.5203,-2.566127 -6.4133,-5.237515 -4.6827,-6.60822 0.5788,-10.40131 -0.2428,-17.58363 -0.5283,-4.61858 -3.5995,-7.81595 -7.315,-9.13431 -5.6468,-2.00362 -7.1014,-2.98214 -8.3936,-9.0345 -1.567,-7.33906 -19.4881,-11.92123 -25.1366,-15.91075 -21.78941,-15.38988 -5.6387,-20.35694 -21.02372,-24.27047 -1.3043,-0.25373 -7.6012,-0.79993 -8.93033,-0.68905 z"
       id="path450703"
       onmouseout="changeColorOut('path450703')"
       onmouseover="changeColorOver('path450703')"
       inkscape:connector-curvature="0"
       sodipodi:nodetypes="cccccccccccssscssscsssssscc" />
    <path
       style="fill:#e6e6e6"
       d="m 1242.9062,-238.5 c -11.2213,0.40743 -16.0872,13.48803 -11.2515,22.82816 2.2906,4.42423 6.9298,9.58842 5.0016,14.506 -6.5139,16.61221 -8.8195,25.57975 -20.1082,39.46908 -17.6024,21.65759 -34.8275,43.25142 -54.5026,62.366411 -11.4349,9.001336 -5.6612,19.898563 -0.2734,29.351232 -0.8599,4.166085 -1.0794,18.01319 1.4154,27.916617 1.5362,10.051527 4.5914,20.911293 10.25,29 17.7384,-6.906689 38.3814,-4.669718 55.0313,4.0625 5.9604,-6.619207 17.7787,-4.791459 21.9374,-13.34375 -1.6891,-5.129409 -6.0696,-10.417587 -3.1874,-16 0.6891,-16.793747 -15.8468,-30.418668 -10.9063,-47.65625 2.8984,-15.47362 6.2605,-31.30131 14.4687,-44.90625 13.0285,-4.27839 23.28,-13.90808 34.4063,-21.5625 6.3325,7.18869 14.8307,18.03042 25.75,14.96875 10.1789,-5.72737 8.8468,-21.75195 -0.25,-27.78125 -4.997,-6.11545 -2.9714,-16.23126 4.2187,-19.625 9.1739,-9.833 0.8444,-26.99075 -11.9062,-28.4375 -5.0487,-1.10601 -9.9012,1.57743 -12.75,5.53125 -7.605,4.35299 -14.9203,-3.8018 -19.25,-9.125 -5.8979,-8.10404 -9.5647,-20.54917 -21.3125,-21.15625 -2.2212,-0.29684 -4.4928,-0.53677 -6.7813,-0.40625 z"
       id="path450722"
       onmouseout="changeColorOut('path450722')"
       onmouseover="changeColorOver('path450722')"
       inkscape:connector-curvature="0"
       sodipodi:nodetypes="cssscccccccccccccccccc" />
    <g
       id="g450702"
       transform="matrix(0.98695514,0,0,1.0304851,1135.9868,-894.80997)">
      <text
         id="text450702-lc"
         x="-122.67094"
         y="849.59302"
         style="font-size:12px;fill:#ffffff;filter:url(#green);font-family:Sans">22</text>
    </g>
    <path
       sodipodi:type="arc"
       style="fill:#d40000;fill-opacity:1;stroke:#dd66ff;stroke-opacity:0"
       id="D450702"
       sodipodi:cx="314.82144"
       sodipodi:cy="114.75"
       sodipodi:rx="3.0357144"
       sodipodi:ry="3.0357144"
       d="m 317.85716,114.75 c 0,1.67658 -1.35914,3.03571 -3.03572,3.03571 -1.67658,0 -3.03571,-1.35913 -3.03571,-3.03571 0,-1.67658 1.35913,-3.03571 3.03571,-3.03571 1.67658,0 3.03572,1.35913 3.03572,3.03571 z"
       transform="matrix(0.79797983,0,0,0.79797981,748.51222,-133.80561)" />
    <text
       sodipodi:linespacing="125%"
       id="text450702"
       y="-37.706356"
       x="1008.4672"
       style="font-size:40px;font-style:normal;font-weight:normal;line-height:125%;letter-spacing:0px;word-spacing:0px;fill:#000000;fill-opacity:1;stroke:none;font-family:Sans"
       xml:space="preserve"><tspan
         style="font-size:12px;fill:#666666"
         y="-37.706356"
         x="1008.4672"
         id="tspan4510-16"
         sodipodi:role="line">钦南区</tspan></text>
    <g
       id="g450721"
       transform="matrix(0.98695514,0,0,1.0304851,1265.9583,-1018.9156)">
      <text
         id="text450721-lc"
         x="-122.67094"
         y="849.59302"
         style="font-size:12px;fill:#ffffff;filter:url(#green);font-family:Sans">22</text>
    </g>
    <path
       sodipodi:type="arc"
       style="fill:#d40000;fill-opacity:1;stroke:#dd66ff;stroke-opacity:0"
       id="D450721"
       sodipodi:cx="314.82144"
       sodipodi:cy="114.75"
       sodipodi:rx="3.0357144"
       sodipodi:ry="3.0357144"
       d="m 317.85716,114.75 c 0,1.67658 -1.35914,3.03571 -3.03572,3.03571 -1.67658,0 -3.03571,-1.35913 -3.03571,-3.03571 0,-1.67658 1.35913,-3.03571 3.03571,-3.03571 1.67658,0 3.03572,1.35913 3.03572,3.03571 z"
       transform="matrix(0.79797983,0,0,0.79797981,918.01337,-254.69392)" />
    <text
       sodipodi:linespacing="125%"
       id="text450721"
       y="-161.18236"
       x="1136.8457"
       style="font-size:40px;font-style:normal;font-weight:normal;line-height:125%;letter-spacing:0px;word-spacing:0px;fill:#000000;fill-opacity:1;stroke:none;font-family:Sans"
       xml:space="preserve"><tspan
         style="font-size:12px;fill:#666666"
         y="-161.18236"
         x="1136.8457"
         id="tspan4510-74"
         sodipodi:role="line">灵山</tspan></text>
    <g
       id="g450703"
       transform="matrix(0.98695514,0,0,1.0304851,1114.3919,-982.60642)">
      <text
         id="text450703-lc"
         x="-122.67094"
         y="849.59302"
         style="font-size:12px;fill:#ffffff;filter:url(#green);font-family:Sans">22</text>
    </g>
    <path
       sodipodi:type="arc"
       style="fill:#d40000;fill-opacity:1;stroke:#dd66ff;stroke-opacity:0"
       id="D450703"
       sodipodi:cx="314.82144"
       sodipodi:cy="114.75"
       sodipodi:rx="3.0357144"
       sodipodi:ry="3.0357144"
       d="m 317.85716,114.75 c 0,1.67658 -1.35914,3.03571 -3.03572,3.03571 -1.67658,0 -3.03571,-1.35913 -3.03571,-3.03571 0,-1.67658 1.35913,-3.03571 3.03571,-3.03571 1.67658,0 3.03572,1.35913 3.03572,3.03571 z"
       transform="matrix(0.79797983,0,0,0.79797981,726.72618,-186.37921)" />
    <text
       sodipodi:linespacing="125%"
       id="text450703"
       y="-91.267197"
       x="985.3078"
       style="font-size:40px;font-style:normal;font-weight:normal;line-height:125%;letter-spacing:0px;word-spacing:0px;fill:#000000;fill-opacity:1;stroke:none;font-family:Sans"
       xml:space="preserve"><tspan
         style="font-size:12px;fill:#666666"
         y="-91.267197"
         x="985.3078"
         id="tspan4510-14"
         sodipodi:role="line">钦北区</tspan></text>
    <g
       id="g450722"
       transform="matrix(0.98695514,0,0,1.0304851,1322.7019,-1001.6043)">
      <text
         id="text450722-lc"
         x="-112.53877"
         y="849.59302"
         style="font-size:12px;fill:#ffffff;filter:url(#green);font-family:Sans">22</text>
    </g>
    <path
       sodipodi:type="arc"
       style="fill:#d40000;fill-opacity:1;stroke:#dd66ff;stroke-opacity:0"
       id="D450722"
       sodipodi:cx="314.82144"
       sodipodi:cy="114.75"
       sodipodi:rx="3.0357144"
       sodipodi:ry="3.0357144"
       d="m 317.85716,114.75 c 0,1.67658 -1.35914,3.03571 -3.03572,3.03571 -1.67658,0 -3.03571,-1.35913 -3.03571,-3.03571 0,-1.67658 1.35913,-3.03571 3.03571,-3.03571 1.67658,0 3.03572,1.35913 3.03572,3.03571 z"
       transform="matrix(0.79797983,0,0,0.79797981,982.48373,-203.42902)" />
    <text
       sodipodi:linespacing="125%"
       id="text450722"
       y="-109.57327"
       x="1203.1611"
       style="font-size:40px;font-style:normal;font-weight:normal;line-height:125%;letter-spacing:0px;word-spacing:0px;fill:#000000;fill-opacity:1;stroke:none;font-family:Sans"
       xml:space="preserve"><tspan
         style="font-size:12px;fill:#666666"
         y="-109.57327"
         x="1203.1611"
         id="tspan4510-3"
         sodipodi:role="line">浦北</tspan></text>
  </g>
</svg>
