<?xml version="1.0" encoding="UTF-8" standalone="no"?>
<!-- Created with Inkscape (http://www.inkscape.org/) -->

<svg
   xmlns:osb="http://www.openswatchbook.org/uri/2009/osb"
   xmlns:dc="http://purl.org/dc/elements/1.1/"
   xmlns:cc="http://creativecommons.org/ns#"
   xmlns:rdf="http://www.w3.org/1999/02/22-rdf-syntax-ns#"
   xmlns:svg="http://www.w3.org/2000/svg"
   xmlns="http://www.w3.org/2000/svg"
   xmlns:sodipodi="http://sodipodi.sourceforge.net/DTD/sodipodi-0.dtd"
   xmlns:inkscape="http://www.inkscape.org/namespaces/inkscape"
   width="100%"
   height="100%"
   viewBox="0 0 460 460"
   id="svg5709"
   version="1.1"
   inkscape:version="0.48.5 r10040"
   sodipodi:docname="450800-1.svg">
  <defs
     id="defs5711">
    <linearGradient
       osb:paint="solid"
       id="linearGradient5344">
      <stop
         id="stop5346"
         offset="0"
         style="stop-color:#000000;stop-opacity:1;" />
    </linearGradient>
    <linearGradient
       id="linearGradient5344-4"
       osb:paint="solid">
      <stop
         style="stop-color:#000000;stop-opacity:1;"
         offset="0"
         id="stop5346-0" />
    </linearGradient>
    <linearGradient
       id="linearGradient5344-7"
       osb:paint="solid">
      <stop
         style="stop-color:#000000;stop-opacity:1;"
         offset="0"
         id="stop5346-2" />
    </linearGradient>
    <filter
       color-interpolation-filters="sRGB"
       x="-0.1"
       y="0"
       width="1.2"
       height="1"
       id="green">
      <feFlood
         flood-color="#008000"
         id="feFlood6"
         result="result1" />
      <feComposite
         in="SourceGraphic"
         id="feComposite8"
         in2="result1" />
    </filter>
    <filter
       color-interpolation-filters="sRGB"
       x="-0.1"
       y="0"
       width="1.2"
       height="1"
       id="orange">
      <feFlood
         flood-color="#ff7f2a"
         id="feFlood11"
         result="result1" />
      <feComposite
         in="SourceGraphic"
         id="feComposite13"
         in2="result1" />
    </filter>
    <filter
       color-interpolation-filters="sRGB"
       x="-0.1"
       y="0"
       width="1.2"
       height="1"
       id="green-1">
      <feFlood
         flood-color="#008000"
         id="feFlood6-5"
         result="result1" />
      <feComposite
         in="SourceGraphic"
         id="feComposite8-2"
         in2="result1" />
    </filter>
    <filter
       color-interpolation-filters="sRGB"
       x="-0.1"
       y="0"
       width="1.2"
       height="1"
       id="orange-7">
      <feFlood
         flood-color="#ff7f2a"
         id="feFlood11-6"
         result="result1" />
      <feComposite
         in="SourceGraphic"
         id="feComposite13-1"
         in2="result1" />
    </filter>
    <filter
       color-interpolation-filters="sRGB"
       x="-0.1"
       y="0"
       width="1.2"
       height="1"
       id="green-4">
      <feFlood
         flood-color="#008000"
         id="feFlood6-2"
         result="result1" />
      <feComposite
         in="SourceGraphic"
         id="feComposite8-3"
         in2="result1" />
    </filter>
    <filter
       color-interpolation-filters="sRGB"
       x="-0.1"
       y="0"
       width="1.2"
       height="1"
       id="orange-2">
      <feFlood
         flood-color="#ff7f2a"
         id="feFlood11-2"
         result="result1" />
      <feComposite
         in="SourceGraphic"
         id="feComposite13-16"
         in2="result1" />
    </filter>
    <filter
       color-interpolation-filters="sRGB"
       x="-0.1"
       y="0"
       width="1.2"
       height="1"
       id="green-8">
      <feFlood
         flood-color="#008000"
         id="feFlood6-57"
         result="result1" />
      <feComposite
         in="SourceGraphic"
         id="feComposite8-6"
         in2="result1" />
    </filter>
    <filter
       color-interpolation-filters="sRGB"
       x="-0.1"
       y="0"
       width="1.2"
       height="1"
       id="orange-1">
      <feFlood
         flood-color="#ff7f2a"
         id="feFlood11-8"
         result="result1" />
      <feComposite
         in="SourceGraphic"
         id="feComposite13-9"
         in2="result1" />
    </filter>
    <filter
       color-interpolation-filters="sRGB"
       x="-0.1"
       y="0"
       width="1.2"
       height="1"
       id="green-2">
      <feFlood
         flood-color="#008000"
         id="feFlood6-7"
         result="result1" />
      <feComposite
         in="SourceGraphic"
         id="feComposite8-9"
         in2="result1" />
    </filter>
    <filter
       color-interpolation-filters="sRGB"
       x="-0.1"
       y="0"
       width="1.2"
       height="1"
       id="orange-5">
      <feFlood
         flood-color="#ff7f2a"
         id="feFlood11-4"
         result="result1" />
      <feComposite
         in="SourceGraphic"
         id="feComposite13-3"
         in2="result1" />
    </filter>
  </defs>
  <sodipodi:namedview
     id="base"
     pagecolor="#ffffff"
     bordercolor="#666666"
     borderopacity="1.0"
     inkscape:pageopacity="0.0"
     inkscape:pageshadow="2"
     inkscape:zoom="1.5494506"
     inkscape:cx="205.15298"
     inkscape:cy="243.50181"
     inkscape:current-layer="layer1"
     inkscape:document-units="px"
     showgrid="false"
     inkscape:window-width="1108"
     inkscape:window-height="960"
     inkscape:window-x="197"
     inkscape:window-y="5"
     inkscape:window-maximized="0"
     inkscape:showpageshadow="false" />
  <metadata
     id="metadata5714">
    <rdf:RDF>
      <cc:Work
         rdf:about="">
        <dc:format>image/svg+xml</dc:format>
        <dc:type
           rdf:resource="http://purl.org/dc/dcmitype/StillImage" />
        <dc:title />
      </cc:Work>
    </rdf:RDF>
  </metadata>
  <g
     id="layer1"
     inkscape:label="Layer 1"
     inkscape:groupmode="layer"
     transform="translate(0,-20)">
    <g
       inkscape:label="Layer 1"
       id="layer1-8"
       transform="translate(-1.2907817,7.7446826)">
      <g
         inkscape:label="Layer 1"
         id="layer1-1"
         transform="translate(6.1672211,-588.29488)">
        <g
           id="g5417"
           transform="translate(-457.20349,61.312055)"
           style="fill:#e6e6e6">
          <path
             style="fill:#e6e6e6"
             d="m 620.71608,847.13764 c -12.95347,1.3654 -25.7722,5.77528 -37.21875,11.90625 -6.82917,5.61652 -8.45334,19.50135 0.84375,23.4375 3.08453,1.62614 3.13354,4.71085 1,7.125 -1.73661,5.85733 6.41604,7.26277 10.125,9.5 2.90665,0.93304 6.51754,6.97554 1.53125,7.40625 -5.34878,1.17511 -10.48928,-1.56495 -15.625,-1.0625 -3.9647,3.82455 -1.9127,10.67391 -4.375,15.46875 -1.38221,9.29167 -14.34507,9.75944 -16.5625,18.4375 0.51509,4.6799 -4.57292,9.8896 -1.6875,14.0625 5.58599,1.6947 12.76352,-4.2168 17.03125,1.9687 4.17588,3.1577 2.33677,9.306 5.65625,13.2188 2.49222,4.1808 7.95619,6.0597 9.40625,11.1875 0.11392,3.4756 -1.98675,10.847 3.84375,10.5 5.60379,-2.0021 12.18779,-1.9991 16.09399,-7.2575 2.69519,-3.6149 6.87618,-4.843 11.15601,-4.305 4.23202,-0.9439 0.3606,-7.2149 4.84375,-7.5938 4.91221,-2.1571 6.09668,-9.363 12.28125,-8.6562 5.42984,-0.3581 5.36043,-8.4692 0.40625,-9.8125 -5.8267,-2.192 -3.3113,-9.8423 -4.74308,-14.5477 -0.28656,-4.35012 -2.93552,-9.82068 2.11808,-12.60855 3.4858,-4.27314 9.15295,2.12655 12.8125,-0.875 1.08029,-2.60319 0.58119,-7.36156 4.65625,-7.40625 4.03988,1.93384 5.92287,-2.45309 5.09375,-5.6875 3.72649,-0.31199 3.98856,-4.92043 0.875,-6.53125 -2.90874,-3.14537 -3.31512,-7.87739 -6.625,-10.96875 -1.06615,-2.22209 -4.14164,-3.31134 -5.21875,-4.9375 3.8856,-2.0828 8.64386,-3.42231 12.03125,-6.78125 3.82467,-2.44925 9.48179,-2.75839 10.9375,-7.9375 2.39614,-5.06129 -3.1047,-9.46522 -3.59375,-14.40625 -1.75007,-3.5251 -1.9273,-10.76367 -7.0625,-10.75 -6.26842,1.81351 -10.96914,7.41317 -18.125,6.5 -4.44851,1.08518 -8.78744,-0.5874 -10.96875,-4.71875 -2.17728,-3.79044 -6.9991,-4.16659 -10.9375,-3.875 z"
             id="path450803"
       		 onmouseout="changeColorOut('path450803')"
       		 onmouseover="changeColorOver('path450803')"
             inkscape:connector-curvature="0" />
          <path
             style="fill:#e6e6e6"
             d="m 509.65358,747.29389 c -8.15431,-0.86404 -12.81155,6.50367 -18.09375,11.15625 -3.65287,3.41138 -4.48398,9.99282 -10.82665,9.80673 -4.60239,0.80181 -10.75827,2.46711 -10.5171,8.34952 -2.73905,7.25428 6.62846,10.94971 5.8125,18 0.0714,5.04403 1.94509,9.8075 5.46875,13.375 2.49424,4.14791 1.102,8.54863 -1.03125,12.34375 -2.78151,6.88649 -1.39338,14.21451 0.625,21 -1.01565,7.51394 4.60707,7.89327 10.65631,7.76822 5.69611,0.51998 13.0138,-0.11725 15.49994,6.48178 4.73006,6.01944 -2.1758,11.94738 -4.78125,17.125 -1.6374,6.04893 6.54688,8.25027 8.375,13.125 2.54862,5.48967 7.99881,9.55192 9.21875,15.5 2.57608,2.75134 7.49447,0.52477 9.46875,4.5625 4.7356,3.39618 11.13004,3.60196 16.125,6.6875 1.71901,0.81071 7.5059,3.0659 4.4375,5.40625 -3.70836,1.51013 -10.48527,5.40411 -6,10.09375 3.0023,2.18117 4.50787,5.6559 6.9375,8.18745 6.18865,1.8295 11.22351,-4.7497 15.90625,-7.87495 7.1715,-5.29116 11.27502,-13.80994 10.625,-22.78125 -0.18965,-3.5328 3.3092,-4.63286 6.03125,-3.09375 3.95339,0.7081 7.7353,2.63303 11.8125,2.375 0.60012,-6.18763 -7.60477,-6.95396 -11.0625,-10.40625 -3.05781,-3.57217 4.13636,-9.86143 -1.65625,-11.5625 -6.28263,-0.75485 -6.51048,-9.77311 -7.87111,-14.44539 -6.48222,-1.28515 -14.92165,0.0284 -21.97264,-2.14836 -2.46366,-0.6945 -6.86612,-1.82106 -7.09375,-4.71875 2.94115,-3.14758 5.82654,-7.32418 3.3125,-11.65625 -0.70071,-3.81504 2.03228,-7.39638 1.3125,-11.40625 0.0821,-5.36108 1.73644,-12.04653 -5.875,-11.46875 -4.09844,-0.64143 -7.97583,-4.6204 -5.34375,-8.78125 1.46563,-4.31573 2.43196,-10.8537 8.28125,-10.5625 4.24923,-0.73717 12.56289,0.0869 12.28125,-6.375 -1.37244,-6.25437 2.17192,-11.69884 6,-16.125 2.20107,-6.34056 -5.93503,-9.77463 -8.48472,-14.51137 -3.41395,-3.80478 -5.60422,-8.76765 -8.07778,-12.86363 -5.3675,-3.02021 -10.91577,0.91819 -14.25,4.8125 -4.37302,-1.14717 -8.49451,-5.14325 -13.625,-4.90625 -3.72685,-0.92873 -5.11082,-4.61104 -5.46875,-7.96875 -1.09599,-2.26852 -3.88091,-2.66416 -6.15625,-2.5 z"
             id="path450804"
       		 onmouseout="changeColorOut('path450804')"
       		 onmouseover="changeColorOver('path450804')"
             inkscape:connector-curvature="0" />
          <path
             style="fill:#e6e6e6"
             d="m 715.12233,623.91889 c -4.51984,0.69294 -6.94808,6.06174 -12,5.09375 -6.50549,1.59841 -4.94447,11.29874 -11.03125,13.8125 -4.4239,1.63726 -5.2089,6.42635 -3.9375,10.4375 0.77989,4.19736 -4.56682,4.14271 -6.71875,6.0625 -4.16113,7.96551 -0.24557,17.72276 -2.90625,26.15625 -0.85254,7.53942 -8.99063,12.60974 -7,20.78125 0.6311,9.58188 0.40923,22.8338 -10.3125,26.53125 -0.94036,-2.96742 -1.15844,-7.46837 -5.40625,-7.90625 -5.2267,-1.34893 -12.14894,-3.80737 -16.90625,-0.28125 -1.87264,3.96064 -6.01028,8.89995 -10.80023,6.11444 -3.53014,-2.20563 -6.66674,1.45689 -5.69977,5.04181 0.60304,4.37874 -0.59542,8.41837 -3.15625,11.78125 -0.0852,3.60867 4.43799,5.18942 5.21875,8.75 2.1289,4.8367 5.52993,9.60587 11.125,10.25 6.58507,4.79939 12.73671,10.88445 16.65625,17.96875 0.4493,6.61021 -1.12844,12.92829 -3.4375,18.90625 -1.38766,11.78827 3.10417,23.71085 10.6875,32.5625 4.78127,7.22375 7.46563,15.58291 10.875,23.40625 0.20667,4.63595 3.13313,8.55199 5.25,12.5 7.37215,-0.26854 15.40176,-0.82361 20.92287,5.07158 4.7769,4.18268 11.17608,8.08307 12.60838,14.52217 2.21613,1.85951 5.46565,1.73873 7.84375,3.625 4.17253,1.85028 9.56704,0.64776 11.09375,-3.90625 2.27811,9.5e-4 1.90056,4.29634 3.15625,5.6875 2.39039,4.80501 4.49015,9.78706 4.59375,15.15625 3.27494,4.68184 8.80058,-0.85395 12.625,-1.75 6.8166,-1.52743 15.74073,-2.56026 21.6875,1.9375 3.52623,3.0458 -2.37304,5.62879 -0.34375,8.96875 3.43013,3.83672 9.38913,-0.10921 12.875,-2.0625 3.03628,-2.89471 -0.30904,-7.50674 2.21875,-10.625 0.43248,-3.83969 -6.01415,-8.51554 -1.03125,-11.46875 7.31745,-3.60949 11.0337,-12.14139 9.09375,-20.09375 0.16788,-1.44693 -0.60944,-6.64758 1.875,-5.6875 0.72288,3.09971 5.05057,4.10149 5.59375,0.34375 1.1115,-8.20371 4.94068,-15.85281 5.75,-24.0625 -0.2852,-4.57516 -4.56594,-7.11717 -8.78125,-6.9375 -5.67037,-2.38061 -14.69703,-5.59044 -12.96875,-13.40625 0.1098,-8.15979 8.13921,-13.67102 6.96875,-22.125 -0.16359,-5.64502 4.22633,-9.98039 4.34375,-15.5625 1.78179,-4.51275 9.54147,-6.34243 6.24187,-11.91824 -2.04626,-4.57438 -1.36978,-9.22499 0.88313,-13.45676 2.41857,-6.42981 1.40083,-13.93923 6.0625,-19.4375 2.23018,-4.29342 5.7314,-10.16798 0.78125,-14.03125 -5.31226,-5.77765 -5.03918,-14.79884 -10.34375,-20.65625 -7.01341,-9.78429 -18.3635,-16.41064 -22.78125,-27.96875 -2.17591,-4.20138 -8.49309,-6.0353 -5.61696,-11.60314 0.32266,-5.759 2.96919,-12.41341 0.27321,-17.86561 -4.38216,-2.33312 -6.53518,5.03912 -9.06875,7.33125 -1.17801,2.69562 -4.18755,5.44519 -7.025,2.91875 -6.01313,-3.81631 -1.33507,-13.27643 -8.09375,-16.4375 -10.63155,-3.00352 -19.6287,-10.47333 -25.71875,-19.65625 -1.53013,-1.7719 -3.8052,-3.11785 -6.21875,-2.8125 z"
             id="path450881"
       		 onmouseout="changeColorOut('path450881')"
       		 onmouseover="changeColorOver('path450881')"
             inkscape:connector-curvature="0" />
          <path
             style="fill:#e6e6e6"
             d="m 601.52858,741.91889 c -6.62331,2.92294 -9.32307,10.97125 -14.22319,15.98885 -1.62121,2.86451 -3.56912,5.29648 -7.12056,5.3549 -6.00869,2.94103 -4.56841,11.45555 -8.81535,16.07485 -4.33915,6.36995 -10.13064,12.79329 -8.9659,21.11265 0.75437,4.75865 -2.71027,9.43522 -7.8125,8.5625 -4.5079,-0.27739 -11.77516,0.28885 -11.625,6.40625 -1.02138,4.70921 0.69076,9.91782 5.8125,11.03125 6.711,2.66394 3.44162,11.78532 3.89049,17.28014 -0.0768,6.16183 -1.08007,12.06562 -3.14049,17.75111 0.79643,5.03129 7.74915,3.59158 11.5,4.15625 7.55345,0.4364 16.08483,-1.85156 19.6875,-9.0625 5.36763,-5.46885 12.84222,-7.50907 20.3125,-7.96875 9.58996,-2.05111 19.54646,-5.25298 29.375,-3.875 3.81365,2.55932 4.18528,9.9093 10.15625,9.15625 7.52713,-0.12114 14.59481,-4.83849 19.5625,-10.0625 0.72308,-4.86111 -5.27017,-8.02604 -6.96875,-12.34375 -5.74885,-10.61383 -10.01392,-24.00829 -5.09375,-35.6875 4.13526,-5.09616 1.88525,-11.76116 -1.96875,-16.21875 -4.45073,-6.06136 -10.39242,-11.18101 -17.6875,-13.4375 -5.6621,-3.04777 -4.61652,-13.84479 -12.46875,-13.25 -5.9735,0.5924 -4.24986,-7.75783 -9,-9.46875 -1.58507,-1.00233 -3.50959,-1.63097 -5.40625,-1.5 z"
             id="path450802"
       		 onmouseout="changeColorOut('path450802')"
       		 onmouseover="changeColorOver('path450802')"
             inkscape:connector-curvature="0" />
          <path
             style="fill:#e6e6e6"
             d="m 814.24733,544.16889 c -7.10673,1.86886 -15.90554,0.9314 -21.75,6 -2.5083,4.90747 0.6179,11.66565 -4.0625,15.75 -2.15338,4.5694 1.41386,9.32546 1.21875,14.09375 0.54331,3.50533 5.39187,5.62575 2.75,9.46875 -2.42877,3.35024 -3.19781,7.37228 -3.53125,11.375 -0.78247,3.89087 -4.35051,1.01463 -5.25,-1.21875 -2.33126,-4.05656 -5.55151,-7.94898 -10.40625,-8.375 -3.49231,-0.87915 -8.45607,-6.15272 -10.36914,-4.75387 -1.01942,5.2405 0.81075,13.56223 -5.28711,16.19137 -5.20303,-1.37038 -9.76966,-7.9992 -15.84375,-4.875 -7.91522,3.69439 -12.25577,12.28245 -16.68747,19.3521 -3.24647,4.03415 -2.25931,9.47095 1.37497,12.92915 5.35631,7.13016 13.27369,11.386 21.78125,13.59375 6.27022,2.42398 4.81958,10.6738 8.46875,15.375 5.62811,1.38649 7.62838,-5.78127 9.8125,-9.5625 3.55775,-4.19962 9.11969,1.91141 7.90625,6.15625 0.82688,6.03829 -1.87397,11.76582 -1.0625,17.5625 3.04538,4.36627 6.55704,8.5039 9.09375,13.25 7.97236,10.62631 19.6132,18.85552 23.70305,32.07683 1.62716,4.71896 3.87261,9.14694 7.2032,12.70442 2.54741,5.55943 0.84302,12.07201 -3.0625,16.5 -4.08948,6.63965 -3.79979,14.86894 -7.4375,21.65625 -1.20823,5.71168 4.72341,13.19455 -1.625,17.25 -4.68398,3.71507 -3.70396,10.0437 -6.4375,14.84375 -2.22655,6.05434 -0.22061,14.23229 -6.125,18.3125 -2.64789,4.12426 -5.17916,10.86076 0.1875,14.03125 5.66892,5.48671 16.84731,3.85041 19.34375,12.625 1.9606,5.01202 -3.90364,9.0986 -2.125,13.8125 4.68452,4.48478 12.00009,1.20516 16.59375,-1.78125 3.57707,-1.15218 3.86187,6.09044 7.875,3.25 3.20894,-2.79052 6.87314,-4.69123 10.65625,-6.28125 2.60679,-3.23361 8.5187,1.86039 10.5,-3.0625 0.88532,-4.11529 4.56794,-5.91053 7.34375,-8.40625 1.2088,-4.46079 5.46311,-6.81668 8.5625,-9.6875 1.95537,-5.46059 0.67823,-11.73367 -2.15625,-16.5625 -0.39142,-4.69753 4.82809,-9.19851 8.875,-9.6875 3.84164,4.66096 9.45344,-1.18747 12.625,-3.65625 4.73608,-1.54883 9.19603,-5.16341 10.21875,-10.25 4.55027,-4.83009 3.39508,-12.27921 1.21875,-17.84375 -4.2622,-5.23001 -11.52972,-4.43783 -17.1875,-6.625 -5.07505,-1.98439 -3.6448,-7.97538 -6.03125,-11.75 -2.53403,-6.28413 0.10506,-12.79593 1.03125,-19.125 -0.54309,-2.77868 -0.55501,-6.745 3.25,-6.375 6.26732,1.25067 9.45059,-6.1385 8.53125,-11.25 -4.04902,-8.77157 -2.9115,-19.1848 -7.53125,-27.65625 0.10802,-3.79193 -4.69417,-5.66003 -5.6875,-8.5 3.2872,-4.73403 0.11413,-10.37143 -4.4375,-12.78125 -2.69545,-1.86262 -8.59645,-3.85937 -7.4375,-7.9375 2.51457,-2.71832 7.51814,-2.96414 6.84432,-7.82591 1.48203,-3.2553 -0.15265,-6.91139 -3.68807,-6.92409 -4.05116,-6.04296 1.19374,-12.74632 3.1875,-18.5 3.34445,-2.59182 5.30237,-7.57082 2,-11.125 -2.42488,-2.76242 -4.49618,-8.81628 -8.90625,-7.75 -2.61445,3.06734 -4.15224,9.84278 -9.5625,7.90625 -4.65404,-1.78367 -10.73337,-7.43327 -6.9375,-12.71875 0.58834,-5.05276 -6.45956,-4.58792 -9.1875,-2.78125 -3.30074,-4.59403 -9.13667,-3.28137 -13.875,-2.875 -2.74417,-4.09579 -7.16314,-6.54803 -12.15625,-6.71875 -6.14989,-0.82158 -3.81577,-9.17915 -3.875,-13.375 2.23043,-6.28107 13.47392,-6.33065 11.6424,-14.39927 -0.27933,-7.18558 2.20921,-15.07015 -0.11115,-21.97573 -1.08804,-0.96332 -2.54534,-1.24511 -3.96875,-1.09375 z"
             id="path450821"
       		 onmouseout="changeColorOut('path450821')"
       		 onmouseover="changeColorOver('path450821')"
             inkscape:connector-curvature="0" />
        </g>
        <g
           id="g450821"
           onclick="changeMap('5303-1.svg','5303')"
           transform="matrix(0.98695514,0,0,1.0304851,493.03413,-128.31549)">
          <text
             id="text450821-lc"
             x="-127.18829"
             y="846.1261"
             style="font-size:12px;fill:#ffffff;filter:url(#green);font-family:Sans">22</text>
        </g>
        <path
           sodipodi:type="arc"
           style="fill:#d40000;fill-opacity:1;stroke:#dd66ff;stroke-opacity:0"
           id="path5561-6"
           sodipodi:cx="314.82144"
           sodipodi:cy="114.75"
           sodipodi:rx="3.0357144"
           sodipodi:ry="3.0357144"
           d="m 317.85716,114.75 c 0,1.67658 -1.35914,3.03571 -3.03572,3.03571 -1.67658,0 -3.03571,-1.35913 -3.03571,-3.03571 0,-1.67658 1.35913,-3.03571 3.03571,-3.03571 1.67658,0 3.03572,1.35913 3.03572,3.03571 z"
           transform="matrix(0.79797983,0,0,0.79797981,115.618,673.09722)" />
        <text
           sodipodi:linespacing="125%"
           id="text450821"
           y="758.35199"
           x="355.72745"
           style="font-size:40px;font-style:normal;font-weight:normal;line-height:125%;letter-spacing:0px;word-spacing:0px;fill:#000000;fill-opacity:1;stroke:none;font-family:Sans"
           xml:space="preserve"><tspan
             style="font-size:12px;fill:#666666"
             y="758.35199"
             x="355.72745"
             id="tspan450821"
             sodipodi:role="line">平南县</tspan></text>
        <g
           id="g450881"
           onclick="changeMap('5306-1.svg','5306')"
           transform="matrix(0.98695514,0,0,1.0304851,400.62188,-114.0747)">
          <text
             id="text450881-lc"
             x="-110.84029"
             y="847.37872"
             style="font-size:12px;fill:#ffffff;filter:url(#green-1);font-family:Sans">22</text>
        </g>
        <path
           transform="matrix(0.79797983,0,0,0.79797981,21.384642,678.84493)"
           d="m 317.85716,114.75 c 0,1.67658 -1.35914,3.03571 -3.03572,3.03571 -1.67658,0 -3.03571,-1.35913 -3.03571,-3.03571 0,-1.67658 1.35913,-3.03571 3.03571,-3.03571 1.67658,0 3.03572,1.35913 3.03572,3.03571 z"
           sodipodi:ry="3.0357144"
           sodipodi:rx="3.0357144"
           sodipodi:cy="114.75"
           sodipodi:cx="314.82144"
           id="path5561"
           style="fill:#d40000;fill-opacity:1;stroke:#dd66ff;stroke-opacity:0"
           sodipodi:type="arc" />
        <text
           sodipodi:linespacing="125%"
           id="text450881"
           y="774.08374"
           x="279.79465"
           style="font-size:40px;font-style:normal;font-weight:normal;line-height:125%;letter-spacing:0px;word-spacing:0px;fill:#000000;fill-opacity:1;stroke:none;font-family:Sans"
           xml:space="preserve"><tspan
             style="font-size:12px;fill:#666666"
             y="774.08374"
             x="279.79465"
             id="tspan450881"
             sodipodi:role="line">桂平市</tspan></text>
        <g
           id="g450802"
           onclick="changeMap('5323-1.svg','5323')"
           transform="matrix(0.98695514,0,0,1.0304851,247.7414,-6.2296856)">
          <text
             id="text450802-lc"
             x="-111.57354"
             y="847.37872"
             style="font-size:12px;fill:#ffffff;filter:url(#green-4);font-family:Sans">22</text>
        </g>
        <path
           sodipodi:type="arc"
           style="fill:#d40000;fill-opacity:1;stroke:#dd66ff;stroke-opacity:0"
           id="path5561-6-3-8-3-3"
           sodipodi:cx="314.82144"
           sodipodi:cy="114.75"
           sodipodi:rx="3.0357144"
           sodipodi:ry="3.0357144"
           d="m 317.85716,114.75 c 0,1.67658 -1.35914,3.03571 -3.03572,3.03571 -1.67658,0 -3.03571,-1.35913 -3.03571,-3.03571 0,-1.67658 1.35913,-3.03571 3.03571,-3.03571 1.67658,0 3.03572,1.35913 3.03572,3.03571 z"
           transform="matrix(0.79797983,0,0,0.79797981,-105.19957,796.68411)" />
        <text
           sodipodi:linespacing="125%"
           id="text450802"
           y="881.54956"
           x="126.42319"
           style="font-size:40px;font-style:normal;font-weight:normal;line-height:125%;letter-spacing:0px;word-spacing:0px;fill:#000000;fill-opacity:1;stroke:none;font-family:Sans"
           xml:space="preserve"><tspan
             style="font-size:12px;fill:#666666"
             y="881.54956"
             x="126.42319"
             id="tspan450802"
             sodipodi:role="line">港北区</tspan></text>
        <g
           id="g450804"
           onclick="changeMap('5333-1.svg','5333')"
           transform="matrix(0.98695514,0,0,1.0304851,156.01309,-13.48288)">
          <text
             id="text450804-lc"
             x="-110.18636"
             y="847.82159"
             style="font-size:12px;fill:#ffffff;filter:url(#green-8);font-family:Sans">22</text>
        </g>
        <path
           sodipodi:type="arc"
           style="fill:#d40000;fill-opacity:1;stroke:#dd66ff;stroke-opacity:0"
           id="path5561-6-3-8-3-3-6-2-8"
           sodipodi:cx="314.82144"
           sodipodi:cy="114.75"
           sodipodi:rx="3.0357144"
           sodipodi:ry="3.0357144"
           d="m 317.85716,114.75 c 0,1.67658 -1.35914,3.03571 -3.03572,3.03571 -1.67658,0 -3.03571,-1.35913 -3.03571,-3.03571 0,-1.67658 1.35913,-3.03571 3.03571,-3.03571 1.67658,0 3.03572,1.35913 3.03572,3.03571 z"
           transform="matrix(0.79797983,0,0,0.79797981,-198.59883,789.79016)" />
        <text
           sodipodi:linespacing="125%"
           id="text450804"
           y="874.98242"
           x="35.204269"
           style="font-size:40px;font-style:normal;font-weight:normal;line-height:125%;letter-spacing:0px;word-spacing:0px;fill:#000000;fill-opacity:1;stroke:none;font-family:Sans"
           xml:space="preserve"><tspan
             style="font-size:12px;fill:#666666"
             y="874.98242"
             x="35.204269"
             id="tspan450804"
             sodipodi:role="line">覃塘区</tspan></text>
        <g
           id="g450803"
           onclick="changeMap('5301-1.svg','5301')"
           transform="matrix(0.98695514,0,0,1.0304851,264.62671,67.424632)">
          <text
             id="text450803-lc"
             x="-109.26158"
             y="849.15015"
             style="font-size:12px;fill:#ffffff;filter:url(#green-2);font-family:Sans">22</text>
        </g>
        <path
           sodipodi:type="arc"
           style="fill:#d40000;fill-opacity:1;stroke:#dd66ff;stroke-opacity:0"
           id="path5561-6-3-8-3"
           sodipodi:cx="314.82144"
           sodipodi:cy="114.75"
           sodipodi:rx="3.0357144"
           sodipodi:ry="3.0357144"
           d="m 317.85716,114.75 c 0,1.67658 -1.35914,3.03571 -3.03572,3.03571 -1.67658,0 -3.03571,-1.35913 -3.03571,-3.03571 0,-1.67658 1.35913,-3.03571 3.03571,-3.03571 1.67658,0 3.03572,1.35913 3.03572,3.03571 z"
           transform="matrix(0.79797983,0,0,0.79797981,-88.717024,873.6285)" />
        <text
           sodipodi:linespacing="125%"
           id="text450803"
           y="956.73761"
           x="144.73653"
           style="font-size:40px;font-style:normal;font-weight:normal;line-height:125%;letter-spacing:0px;word-spacing:0px;fill:#000000;fill-opacity:1;stroke:none;font-family:Sans"
           xml:space="preserve"><tspan
             style="font-size:12px;fill:#666666"
             y="956.73761"
             x="144.73653"
             id="tspan450803"
             sodipodi:role="line">港南区</tspan></text>
      </g>
    </g>
  </g>
</svg>
