<?xml version="1.0" encoding="UTF-8" standalone="no"?>
<!-- Created with Inkscape (http://www.inkscape.org/) -->

<svg
   xmlns:dc="http://purl.org/dc/elements/1.1/"
   xmlns:cc="http://creativecommons.org/ns#"
   xmlns:rdf="http://www.w3.org/1999/02/22-rdf-syntax-ns#"
   xmlns:svg="http://www.w3.org/2000/svg"
   xmlns="http://www.w3.org/2000/svg"
   xmlns:sodipodi="http://sodipodi.sourceforge.net/DTD/sodipodi-0.dtd"
   xmlns:inkscape="http://www.inkscape.org/namespaces/inkscape"
   width="100%"
   height="100%"
   viewBox="0 0 460 460"
   id="svg5709"
   version="1.1"
   inkscape:version="0.48.5 r10040"
   sodipodi:docname="4512-2.svg">
  <defs
     id="defs5711">
    <filter
       color-interpolation-filters="sRGB"
       x="-0.1"
       y="0"
       width="1.2"
       height="1"
       id="green">
      <feFlood
         flood-color="#008000"
         id="feFlood6"
         result="result1" />
      <feComposite
         in="SourceGraphic"
         id="feComposite8"
         in2="result1" />
    </filter>
    <filter
       color-interpolation-filters="sRGB"
       x="-0.1"
       y="0"
       width="1.2"
       height="1"
       id="orange">
      <feFlood
         flood-color="#ff7f2a"
         id="feFlood11"
         result="result1" />
      <feComposite
         in="SourceGraphic"
         id="feComposite13"
         in2="result1" />
    </filter>
  </defs>
  <sodipodi:namedview
     id="base"
     pagecolor="#ffffff"
     bordercolor="#666666"
     borderopacity="1.0"
     inkscape:pageopacity="0.0"
     inkscape:pageshadow="2"
     inkscape:zoom="1.8391304"
     inkscape:cx="230"
     inkscape:cy="230"
     inkscape:current-layer="layer4512"
     inkscape:document-units="px"
     showgrid="false"
     inkscape:window-width="1920"
     inkscape:window-height="1018"
     inkscape:window-x="-8"
     inkscape:window-y="-8"
     inkscape:window-maximized="1"
     inkscape:showpageshadow="false" />
  <metadata
     id="metadata5714">
    <rdf:RDF>
      <cc:Work
         rdf:about="">
        <dc:format>image/svg+xml</dc:format>
        <dc:type
           rdf:resource="http://purl.org/dc/dcmitype/StillImage" />
        <dc:title />
      </cc:Work>
    </rdf:RDF>
  </metadata>
  <g
     id="layer4512"
     transform="translate(6.1672211,-588.29488)">
    <g
       id="g6120"
       transform="translate(-462.09928,80.673756)"
       style="fill:#0088aa">
      <path
         style="fill:#0088aa"
         d="m 665.88013,779.06299 c -9.8032,3.11845 -12.72833,7.85018 -21.84484,7.58543 -5.01392,-0.1456 -10.06395,6.84131 -14.35522,14.61134 -4.32189,7.82547 -9.30559,15.45744 -14.24809,16.71283 -11.20417,2.84584 -24.25713,-8.98968 -19.55726,8.26624 3.61647,16.1217 18.49157,29.52703 30.04658,37.89614 5.91208,1.04562 0.5465,12.1869 9.05899,12.45488 3.64751,21.49569 25.34387,-3.99332 34.24684,11.44693 17.98647,-1.90673 8.03951,25.68249 -7.03437,22.559 -10.21227,12.71049 12.2647,18.18414 19.09625,7.97966 12.10849,1.1764 14.84784,-17.8101 24.33379,-4.2385 1.59232,-10.82969 13.58617,-12.21133 5.80455,-24.55708 1.09345,-14.22631 -11.9674,-29.4281 -25.15564,-33.60828 15.98122,-17.50195 -13.37473,-14.11075 -12.08775,-38.95548 0.83342,-16.08901 4.59838,-30.82263 -8.30383,-38.15311 z"
         id="path451229"
         type="area" code="451229" />
      <path
         style="fill:#0088aa"
         d="m 700.97906,739.88453 c -6.93633,3.81846 -9.72685,5.83944 -11.64136,16.82706 -3.63114,20.83955 -30.04148,5.36489 -16.48981,28.09747 9.41049,15.78585 -2.97436,38.43494 8.78428,49.09808 14.27645,12.94638 12.58658,13.07479 6.1404,22.00679 18.53483,0.20593 26.27869,45.08713 45.08936,18.59779 8.10818,7.46535 13.35831,-11.69017 19.20134,5.81619 14.74543,6.07123 7.86747,-19.34768 21.92053,-21.53669 -4.91354,-18.01467 11.53888,-18.35316 22.625,-19.75 -4.50969,-14.7488 0.78234,-33.77198 -7.2306,-47.62219 -18.80214,2.82758 -22.29636,-31.11617 -42.67047,-20.44312 -11.66331,6.10987 -15.00075,0.0684 -18.79611,-7.62661 -3.79535,-7.69496 -12.38078,-14.79616 2.25345,-18.86639 -6.30365,-2.04158 -24.88141,-6.96807 -29.18601,-4.59838 z"
         id="path451228"
         type="area" code="451228" />
      <path
         style="fill:#0088aa"
         d="m 557.79373,772.19499 c -5.29361,-1.3374 -20.07433,9.8709 -27.67092,16.71867 -7.59659,6.84778 -15.07385,16.15953 -18.40028,23.18817 1.71876,15.25621 18.46583,7.40328 21.61454,21.781 8.18607,5.71477 26.52414,-11.14401 23.95923,10.25214 9.19573,2.15028 18.86755,9.00899 25.875,-0.25 0.52977,16.90909 20.99858,16.02687 26.96066,30.74072 23.48961,-14.60882 -19.4275,-30.44522 -15.77275,-50.41257 -2.52572,-18.92389 17.20616,3.09461 27.05051,-11.47637 3.3267,-4.92397 5.1963,-6.68325 6.6614,-9.46789 2.04285,-3.88276 4.70697,-11.30728 10.72882,-15.49396 -3.62946,0.0273 -15.31963,-1.32937 -18.19693,-0.48472 -2.8773,0.84465 -6.91646,3.46204 -10.9255,5.99424 -10.82148,6.83509 -18.04211,3.91361 -19.29866,0.84525 -2.6839,-6.55383 -7.08835,-16.19177 -10.1579,-17.70859 -6.06417,-2.99661 -9.45975,-2.26879 -15.16451,-2.36962 -6.08841,-0.10761 -6.59171,-0.5083 -7.26271,-1.85647 z"
         id="path451227"
         type="area" code="451227" />
      <path
         style="fill:#0088aa"
         d="m 789.61826,684.35062 c -6.0689,10.5935 -0.8209,24.13709 -22.19491,23.76795 -21.03568,-0.3633 -22.69622,20.29387 -18.22901,31.52692 -2.10926,6.93725 -10.66921,5.69075 -16.77322,5.48428 -6.104,-0.20648 -12.33554,2.66725 -6.84357,12.68559 3.02435,5.51696 6.90936,11.81723 11.00753,13.69311 4.09818,1.87589 6.59135,-0.9893 12.19182,-2.76361 19.61811,-6.2153 24.32284,22.58092 40.10478,21.95235 14.30339,12.69309 2.80763,33.16381 11.23014,49.08227 15.37771,18.35737 6.22692,-26.43031 19.84073,-19.58201 21.52376,-2.98675 -4.3887,-35.22703 20.3125,-31.0625 -5.28928,-20.64743 25.83431,-11.39014 20.54369,4.47713 18.73607,11.21282 3.44135,-30.88168 25.92506,-18.53963 -5.04469,-9.11986 17.06729,-21.08699 -3.58015,-20.89258 -15.49228,3.71632 -33.84501,-14.83924 -13.84942,-21.49746 -6.76274,-0.23215 -15.86535,-7.45378 -24.18865,-5.69606 -22.95556,4.84777 -11.95688,-28.10658 -32.8041,-17.59462 -5.27036,2.65752 -7.52698,-6.61457 -9.07794,-11.91135 -0.77548,-2.64839 -1.73217,-20.13255 -2.17983,-24.9271 -2.23811,4.7441 -5.03329,9.6505 -11.43545,11.79732 z"
         id="path451281"
         type="area" code="451281" />
      <path
         style="fill:#0088aa"
         d="m 585.63067,686.62248 c -9.1953,-0.2302 -35.47498,5.90353 -34.86319,7.16482 0.85642,1.76563 1.76008,3.38033 3.40163,7.82433 18.06578,-6.91803 21.23216,7.07084 22.76306,11.66302 3.22363,9.66982 7.84991,20.24533 7.53122,28.77315 -13.18433,4.80144 -34.06804,13.23752 -25.28566,30.96952 13.06583,1.65291 21.76712,-3.48925 28.52917,14.07247 5.88422,15.28189 15.20625,10.01998 26.37855,2.31824 8.45117,-5.8259 13.61129,-1.81116 23.52335,-2.49573 10.92052,-0.75421 18.70736,-3.50291 26.9898,-8.79691 -4.64145,-3.99905 -8.57569,-6.86055 -11.96557,-11.59431 -3.38988,-4.73376 -2.4972,-8.07737 -2.24249,-14.73981 0.30948,-8.09479 -8.69914,-17.70856 -13.09304,-24.35868 -4.3939,-6.65012 -7.36753,-11.76388 -8.98925,-14.25699 -5.39769,-8.29797 -13.28411,-8.59909 -20.17509,-4.71078 -5.90669,3.33291 -14.13664,1.48719 -13.4527,-12.94572 0.23801,-5.02268 -3.35416,-8.74403 -9.04979,-8.88662 z"
         id="path451224"
         type="area" code="451224" />
      <path
         style="fill:#0088aa"
         d="m 535.82755,686.16622 c -20.23874,3.17323 -24.48455,27.01254 -40.52641,33.88016 -12.56086,-1.34086 -18.31962,16.56987 -3.59557,6.33995 11.97133,5.28646 -5.58043,20.92711 10.02823,23.74864 -4.15924,14.86391 24.00922,16.98944 12.49562,34.59513 5.72969,12.76384 11.2683,6.59633 19.44314,0.31 8.18961,-6.29769 17.41095,-14.27483 23.90336,-13.22701 -4.9778,-12.06405 2.78555,-19.21993 9.2077,-22.60651 8.71664,-4.59653 9.33037,-5.56702 17.20734,-7.47628 -0.86503,-8.91685 -6.66981,-24.93501 -9.2572,-32.33523 -2.58739,-7.40021 -7.93847,-11.34796 -21.01371,-6.52292 -2.57271,-8.54193 -7.01364,-17.92229 -17.8925,-16.70593 z"
         id="path451223"
         type="area" code="451223" />
      <path
         style="fill:#0088aa"
         d="m 673.10725,673.08185 c -17.34812,-0.68311 -10.64513,12.95134 -15.15513,24.28917 -4.92277,12.3755 -15.13376,-9.24766 -20.58354,11.62356 -6.13548,23.49728 17.76985,25.60618 13.07814,47.05086 -1.8526,8.46783 13.58809,21.19272 18.189,23.0933 -0.8779,-5.789 -1.39589,-8.16646 6.68901,-10.037 13.3359,-3.08541 12.21599,-9.30067 15.80584,-20.70027 3.88682,-12.34262 12.06636,-11.2624 29.36813,-7.41722 11.69341,2.59876 22.67554,7.9562 27.29469,-1.0162 -2.97619,-6.85843 -1.91778,-13.26671 -0.79036,-19.42388 1.12742,-6.15717 9.05258,-13.01477 16.07171,-13.2275 -13.04363,-6.8066 -9.55363,-15.60213 -16.06227,-12.89834 -8.00074,3.32362 -19.86688,1.5309 -27.92092,-2.76096 -19.57495,-10.43117 -29.2451,-17.91638 -45.9843,-18.57552 z"
         id="path451202"
         type="area" code="451202" />
      <path
         style="fill:#0088aa"
         d="m 894.07755,622.97872 c -11.95114,6.13282 -18.0842,16.90099 -32.92683,7.90762 -9.67656,8.2317 -26.06492,4.73229 -32.25629,17.29116 -15.36454,-5.05755 -0.44777,21.38518 -16.79545,11.53085 -14.35078,-8.6506 -10.79057,26.52798 -7.75265,40.07504 4.18401,18.65786 11.91857,4.12466 18.07984,7.22224 5.34164,2.68552 4.00432,4.07732 9.68696,12.84668 8.36543,12.90942 10.45283,1.34517 23.26057,7.70831 10.89035,5.41054 31.46111,-3.55124 20.20387,-16.6444 8.87568,-9.08263 21.93004,-30.92684 33.24865,-13.00611 10.68763,-5.4155 0.36269,-39.31974 -15.087,-23.27075 -19.50767,-1.24289 -0.99595,-15.63221 5.97722,-20.96873 3.86568,-8.6622 7.20907,-29.12287 -5.63889,-30.69191 z"
         id="path451225"
         type="area" code="451225" />
      <path
         style="fill:#0088aa"
         d="m 540.95255,572.41622 c -22.14485,5.04247 14.63705,28.63251 -6.625,40.34375 -14.45407,-6.51545 -14.24376,17.35767 -31.20364,9.91859 -12.78052,3.61225 -27.77549,-6.44744 -31.98386,10.39391 -21.77048,10.17746 14.91283,19.61511 16.46875,3.53125 8.58556,-5.27686 7.78572,15.98143 1.7588,19.74271 6.66733,13.23798 30.18654,22.56955 10.18494,36.38338 -5.69569,-0.61373 -31.49312,-4.1536 -16.61077,8.57039 11.21647,7.99897 16.35999,17.37353 29.76674,0.74175 15.83811,-19.64801 27.76801,-21.54545 37.83701,-9.04532 5.36213,-2.81693 20.53899,-5.66952 27.51896,-6.69715 3.48999,-0.51382 14.74757,-2.1224 16.54779,5.15735 -0.75514,-13.77182 -7.23385,-12.79754 -9.93593,-17.48873 16.31719,-6.54719 -5.84438,-27.9466 -9.17505,-40.42615 -4.47498,-16.76716 -12.18735,-21.71337 -10.80354,-46.18343 0.26785,-4.73649 -15.00168,-8.9187 -23.7452,-14.9423 z"
         id="path451222"
         type="area" code="451222" />
      <path
         style="fill:#0088aa"
         d="m 574.89005,545.41622 c -10.06321,9.08628 -24.40359,5.00719 -29.5,18.09375 -13.13198,5.77925 10.62851,15.89968 15.67074,18.5596 9.82866,3.06161 -0.24508,11.46869 9.31148,34.07808 4.54734,10.75835 9.60152,26.07478 12.07482,29.97394 9.16271,14.44507 12.81306,23.32046 3.73754,28.5088 7.04401,3.56 10.045,12.385 9.13654,19.08807 -0.98007,7.23137 1.75002,18.14885 9.53633,14.85231 5.28039,-2.23559 12.05491,-4.49357 16.58495,-3.26705 4.53003,1.22653 7.78506,5.64399 12.75597,13.09626 3.18398,-20.8148 9.11085,-21.56082 16.54853,-18.13317 4.48519,2.067 6.85091,-1.70502 7.46109,-10.43488 0.90529,-12.95183 1.87451,-15.45807 9.79486,-17.24002 7.92034,-1.78196 15.91405,1.45322 22.66097,2.72641 0.87607,-6.79082 1.53477,-17.53099 -0.71137,-26.39049 -2.24614,-8.8595 -7.12526,-15.83833 -16.78109,-15.10645 2.37303,-9.60304 -5.09201,-28.79188 -14.87508,-14.49891 -4.35705,-11.4323 -8.14309,-28.70753 -17.71875,-10.40625 -8.38076,6.06696 -27.5828,12.90206 -19.63473,-3.47801 -17.16464,-0.79377 -6.39765,-29.59644 -28.03772,-26.9092 C 605.052,562.49498 577.20838,558.94 574.89005,545.41622 z"
         id="path451221"
         type="area" code="451221" />
      <path
         style="fill:#0088aa"
         d="m 771.20255,561.57247 c -10.41205,8.03902 -14.00437,18.28481 -26.28848,14.3131 2.82302,10.54762 -10.08221,18.42034 -8.35289,31.78659 -0.52392,22.90084 -25.44183,9.50372 -38.26724,19.81365 -10.77258,3.46063 -9.7885,11.89778 -7.09618,21.56976 2.69233,9.67197 1.72351,18.94757 0.50257,26.80376 7.04484,4.52997 20.68862,11.34189 28.80016,15.56122 8.19583,4.26317 17.40589,5.5549 26.49065,2.39457 7.54898,-2.62608 5.32151,11.89237 19.92836,13.45311 20.79755,2.22222 16.49607,-16.93945 22.1333,-23.57553 8.01001,-1.79848 11.26798,-10.80936 12.92584,-18.08912 3.689,-16.19866 12.95694,-1.79749 16.8242,-4.41899 4.35281,-2.95064 -2.47384,-16.97406 9.91519,-13.5162 -3.67837,-9.46226 7.92987,-23.04065 -2.17543,-30.62788 -2.47709,-17.54288 -15.46176,-37.03987 -32.69809,-42.42059 -10.60178,8.4461 -10.81076,-14.15394 -22.64196,-13.04745 z"
         id="path451226"
         type="area" code="451226" />
    </g>
    <g
       id="g451229" type="data" code="451229"
       transform="matrix(0.98695514,0,0,1.0304851,309.36613,65.857619)">
      <text
         id="text451229-lc"
         x="-122.67094"
         y="849.59302"
         style="font-size:12px;fill:#ffffff;filter:url(#green);font-family:Sans">22</text>
      <text
         id="text451229-cq"
         x="-98.986"
         y="849.59302"
         style="font-size:12px;fill:#ffffff;filter:url(#orange);font-family:Sans">22</text>
    </g>
    <path
       sodipodi:type="arc"
       style="fill:#d40000;fill-opacity:1;stroke:#dd66ff;stroke-opacity:0"
       id="D451229"
       type="point" code="451229"
       sodipodi:cx="314.82144"
       sodipodi:cy="114.75"
       sodipodi:rx="3.0357144"
       sodipodi:ry="3.0357144"
       d="m 317.85716,114.75 c 0,1.67658 -1.35914,3.03571 -3.03572,3.03571 -1.67658,0 -3.03571,-1.35913 -3.03571,-3.03571 0,-1.67658 1.35913,-3.03571 3.03571,-3.03571 1.67658,0 3.03572,1.35913 3.03572,3.03571 z"
       transform="matrix(0.79797983,0,0,0.79797981,-28.305382,863.17622)" />
    <text
       sodipodi:linespacing="125%"
       id="text451229"
       y="958.27344"
       x="190.64523"
       style="font-size:40px;font-style:normal;font-weight:normal;line-height:125%;letter-spacing:0px;word-spacing:0px;fill:#000000;fill-opacity:1;stroke:none;font-family:Sans"
       xml:space="preserve"><tspan
         style="font-size:12px;fill:#ffffff"
         y="958.27344"
         x="190.64523"
         id="tspan4506"
         sodipodi:role="line">大化</tspan></text>
    <g
       id="g451228" type="data" code="451228"
       transform="matrix(0.98695514,0,0,1.0304851,376.76785,46.612226)">
      <text
         id="text451228-lc"
         x="-122.67094"
         y="849.59302"
         style="font-size:12px;fill:#ffffff;filter:url(#green);font-family:Sans">22</text>
      <text
         id="text451228-cq"
         x="-98.986"
         y="849.59302"
         style="font-size:12px;fill:#ffffff;filter:url(#orange);font-family:Sans">22</text>
    </g>
    <path
       sodipodi:type="arc"
       style="fill:#d40000;fill-opacity:1;stroke:#dd66ff;stroke-opacity:0"
       id="D451228"
       type="point" code="451228"
       sodipodi:cx="314.82144"
       sodipodi:cy="114.75"
       sodipodi:rx="3.0357144"
       sodipodi:ry="3.0357144"
       d="m 317.85716,114.75 c 0,1.67658 -1.35914,3.03571 -3.03572,3.03571 -1.67658,0 -3.03571,-1.35913 -3.03571,-3.03571 0,-1.67658 1.35913,-3.03571 3.03571,-3.03571 1.67658,0 3.03572,1.35913 3.03572,3.03571 z"
       transform="matrix(0.79797983,0,0,0.79797981,5.5690839,844.27826)" />
    <text
       sodipodi:linespacing="125%"
       id="text451228"
       y="938.99097"
       x="264.04337"
       style="font-size:40px;font-style:normal;font-weight:normal;line-height:125%;letter-spacing:0px;word-spacing:0px;fill:#000000;fill-opacity:1;stroke:none;font-family:Sans"
       xml:space="preserve"><tspan
         style="font-size:12px;fill:#ffffff"
         y="938.99097"
         x="264.04337"
         id="tspan5691-1-3-0-5"
         sodipodi:role="line">都安</tspan></text>
    <g
       id="g451227" type="data" code="451227"
       transform="matrix(0.98695514,0,0,1.0304851,207.16162,13.163673)">
      <text
         id="text451227-lc"
         x="-122.67094"
         y="849.59302"
         style="font-size:12px;fill:#ffffff;filter:url(#green);font-family:Sans">22</text>
      <text
         id="text4510-cq"
         x="-98.986"
         y="849.59302"
         style="font-size:12px;fill:#ffffff;filter:url(#orange);font-family:Sans">22</text>
    </g>
    <path
       sodipodi:type="arc"
       style="fill:#d40000;fill-opacity:1;stroke:#dd66ff;stroke-opacity:0"
       id="D451227"
       type="point" code="451227"
       sodipodi:cx="314.82144"
       sodipodi:cy="114.75"
       sodipodi:rx="3.0357144"
       sodipodi:ry="3.0357144"
       d="m 317.85716,114.75 c 0,1.67658 -1.35914,3.03571 -3.03572,3.03571 -1.67658,0 -3.03571,-1.35913 -3.03571,-3.03571 0,-1.67658 1.35913,-3.03571 3.03571,-3.03571 1.67658,0 3.03572,1.35913 3.03572,3.03571 z"
       transform="matrix(0.79797983,0,0,0.79797981,-130.55046,807.52284)" />
    <text
       sodipodi:linespacing="125%"
       id="text451227"
       y="904.19672"
       x="88.5924"
       style="font-size:40px;font-style:normal;font-weight:normal;line-height:125%;letter-spacing:0px;word-spacing:0px;fill:#000000;fill-opacity:1;stroke:none;font-family:Sans"
       xml:space="preserve"><tspan
         style="font-size:12px;fill:#ffffff"
         y="904.19672"
         x="88.5924"
         id="tspan4510"
         sodipodi:role="line">巴马</tspan></text>
    <g
       id="g451281" type="data" code="451281"
       transform="matrix(0.98695514,0,0,1.0304851,458.91481,-41.318723)">
      <text
         id="text451281-lc"
         x="-122.67094"
         y="849.59302"
         style="font-size:12px;fill:#ffffff;filter:url(#green);font-family:Sans">22</text>
      <text
         id="text451281-cq"
         x="-98.986"
         y="849.59302"
         style="font-size:12px;fill:#ffffff;filter:url(#orange);font-family:Sans">22</text>
    </g>
    <path
       sodipodi:type="arc"
       style="fill:#d40000;fill-opacity:1;stroke:#dd66ff;stroke-opacity:0"
       id="D451281"
       type="point" code="451281"
       sodipodi:cx="314.82144"
       sodipodi:cy="114.75"
       sodipodi:rx="3.0357144"
       sodipodi:ry="3.0357144"
       d="m 317.85716,114.75 c 0,1.67658 -1.35914,3.03571 -3.03572,3.03571 -1.67658,0 -3.03571,-1.35913 -3.03571,-3.03571 0,-1.67658 1.35913,-3.03571 3.03571,-3.03571 1.67658,0 3.03572,1.35913 3.03572,3.03571 z"
       transform="matrix(0.79797983,0,0,0.79797981,119.59251,757.3085)" />
    <text
       sodipodi:linespacing="125%"
       id="text451281"
       y="851.98242"
       x="338.15863"
       style="font-size:40px;font-style:normal;font-weight:normal;line-height:125%;letter-spacing:0px;word-spacing:0px;fill:#000000;fill-opacity:1;stroke:none;font-family:Sans"
       xml:space="preserve"><tspan
         style="font-size:12px;fill:#ffffff"
         y="851.98242"
         x="338.15863"
         id="tspan4512"
         sodipodi:role="line">宜州</tspan></text>
    <g
       id="g451224" type="data" code="451224"
       transform="matrix(0.98695514,0,0,1.0304851,259.96906,-44.455639)">
      <text
         id="text451224-lc"
         x="-122.67094"
         y="849.59302"
         style="font-size:12px;fill:#ffffff;filter:url(#green);font-family:Sans">22</text>
      <text
         id="text451224-cq"
         x="-98.986"
         y="849.59302"
         style="font-size:12px;fill:#ffffff;filter:url(#orange);font-family:Sans">22</text>
    </g>
    <path
       sodipodi:type="arc"
       style="fill:#d40000;fill-opacity:1;stroke:#dd66ff;stroke-opacity:0"
       id="D451224"
       type="point" code="451224"
       sodipodi:cx="314.82144"
       sodipodi:cy="114.75"
       sodipodi:rx="3.0357144"
       sodipodi:ry="3.0357144"
       d="m 317.85716,114.75 c 0,1.67658 -1.35914,3.03571 -3.03572,3.03571 -1.67658,0 -3.03571,-1.35913 -3.03571,-3.03571 0,-1.67658 1.35913,-3.03571 3.03571,-3.03571 1.67658,0 3.03572,1.35913 3.03572,3.03571 z"
       transform="matrix(0.79797983,0,0,0.79797981,-107.61597,752.67248)" />
    <text
       sodipodi:linespacing="125%"
       id="text451224"
       y="847.53864"
       x="149.78252"
       style="font-size:40px;font-style:normal;font-weight:normal;line-height:125%;letter-spacing:0px;word-spacing:0px;fill:#000000;fill-opacity:1;stroke:none;font-family:Sans"
       xml:space="preserve"><tspan
         style="font-size:12px;fill:#ffffff"
         y="847.53864"
         x="149.78252"
         id="tspan4502"
         sodipodi:role="line">东兰</tspan></text>
    <g
       id="g451223" type="data" code="451223"
       transform="matrix(0.98695514,0,0,1.0304851,176.50398,-68.832992)">
      <text
         id="text451223-lc"
         x="-122.67094"
         y="849.59302"
         style="font-size:12px;fill:#ffffff;filter:url(#green);font-family:Sans">22</text>
      <text
         id="text451223-cq"
         x="-98.986"
         y="849.59302"
         style="font-size:12px;fill:#ffffff;filter:url(#orange);font-family:Sans">22</text>
    </g>
    <path
       sodipodi:type="arc"
       style="fill:#d40000;fill-opacity:1;stroke:#dd66ff;stroke-opacity:0"
       id="D451223"
       type="point" code="451223"
       sodipodi:cx="314.82144"
       sodipodi:cy="114.75"
       sodipodi:rx="3.0357144"
       sodipodi:ry="3.0357144"
       d="m 317.85716,114.75 c 0,1.67658 -1.35914,3.03571 -3.03572,3.03571 -1.67658,0 -3.03571,-1.35913 -3.03571,-3.03571 0,-1.67658 1.35913,-3.03571 3.03571,-3.03571 1.67658,0 3.03572,1.35913 3.03572,3.03571 z"
       transform="matrix(0.79797983,0,0,0.79797981,-163.58904,728.75542)" />
    <text
       sodipodi:linespacing="125%"
       id="text451223"
       y="822.46814"
       x="57.283962"
       style="font-size:40px;font-style:normal;font-weight:normal;line-height:125%;letter-spacing:0px;word-spacing:0px;fill:#000000;fill-opacity:1;stroke:none;font-family:Sans"
       xml:space="preserve"><tspan
         style="font-size:12px;fill:#ffffff"
         y="822.46814"
         x="57.283962"
         id="tspan4503"
         sodipodi:role="line">凤山</tspan></text>
    <g
       id="g451202" type="data" code="451202"
       transform="matrix(0.98695514,0,0,1.0304851,338.59092,-60.238389)">
      <text
         id="text451202-lc"
         x="-122.67094"
         y="849.59302"
         style="font-size:12px;fill:#ffffff;filter:url(#green);font-family:Sans">22</text>
      <text
         id="text451202-cq"
         x="-98.986"
         y="849.59302"
         style="font-size:12px;fill:#ffffff;filter:url(#orange);font-family:Sans">22</text>
    </g>
    <path
       sodipodi:type="arc"
       style="fill:#d40000;fill-opacity:1;stroke:#dd66ff;stroke-opacity:0"
       id="D451202"
       type="point" code="451202"
       sodipodi:cx="314.82144"
       sodipodi:cy="114.75"
       sodipodi:rx="3.0357144"
       sodipodi:ry="3.0357144"
       d="m 317.85716,114.75 c 0,1.67658 -1.35914,3.03571 -3.03572,3.03571 -1.67658,0 -3.03571,-1.35913 -3.03571,-3.03571 0,-1.67658 1.35913,-3.03571 3.03571,-3.03571 1.67658,0 3.03572,1.35913 3.03572,3.03571 z"
       transform="matrix(0.79797983,0,0,0.79797981,11.799464,702.09261)" />
    <text
       sodipodi:linespacing="125%"
       id="text451202"
       y="796.95874"
       x="209.21919"
       style="font-size:40px;font-style:normal;font-weight:normal;line-height:125%;letter-spacing:0px;word-spacing:0px;fill:#000000;fill-opacity:1;stroke:none;font-family:Sans"
       xml:space="preserve"><tspan
         style="font-size:12px;fill:#ffffff"
         y="796.95874"
         x="209.21919"
         id="tspan4511"
         sodipodi:role="line">金城江区</tspan></text>
    <g
       id="g451225" type="data" code="451225"
       transform="matrix(0.98695514,0,0,1.0304851,504.81821,-123.29523)">
      <text
         id="text451225-lc"
         x="-122.67094"
         y="849.59302"
         style="font-size:12px;fill:#ffffff;filter:url(#green);font-family:Sans">22</text>
      <text
         id="text451225-cq"
         x="-98.986"
         y="849.59302"
         style="font-size:12px;fill:#ffffff;filter:url(#orange);font-family:Sans">22</text>
    </g>
    <path
       sodipodi:type="arc"
       style="fill:#d40000;fill-opacity:1;stroke:#dd66ff;stroke-opacity:0"
       id="D451225"
       type="point" code="451225"
       sodipodi:cx="314.82144"
       sodipodi:cy="114.75"
       sodipodi:rx="3.0357144"
       sodipodi:ry="3.0357144"
       d="m 317.85716,114.75 c 0,1.67658 -1.35914,3.03571 -3.03572,3.03571 -1.67658,0 -3.03571,-1.35913 -3.03571,-3.03571 0,-1.67658 1.35913,-3.03571 3.03571,-3.03571 1.67658,0 3.03572,1.35913 3.03572,3.03571 z"
       transform="matrix(0.79797983,0,0,0.79797981,166.49237,675.02335)" />
    <text
       sodipodi:linespacing="125%"
       id="text451225"
       y="769.65851"
       x="383.71277"
       style="font-size:40px;font-style:normal;font-weight:normal;line-height:125%;letter-spacing:0px;word-spacing:0px;fill:#000000;fill-opacity:1;stroke:none;font-family:Sans"
       xml:space="preserve"><tspan
         style="font-size:12px;fill:#ffffff"
         y="769.65851"
         x="383.71277"
         id="tspan4504"
         sodipodi:role="line">罗城</tspan></text>
    <g
       id="g451222" type="data" code="451222"
       transform="matrix(0.98695514,0,0,1.0304851,191.75747,-147.01524)">
      <text
         id="text451222-lc"
         x="-122.67094"
         y="849.59302"
         style="font-size:12px;fill:#ffffff;filter:url(#green);font-family:Sans">22</text>
      <text
         id="text451222-cq"
         x="-98.986"
         y="849.59302"
         style="font-size:12px;fill:#ffffff;filter:url(#orange);font-family:Sans">22</text>
    </g>
    <path
       sodipodi:type="arc"
       style="fill:#d40000;fill-opacity:1;stroke:#dd66ff;stroke-opacity:0"
       id="D451222"
       type="point" code="451222"
       sodipodi:cx="314.82144"
       sodipodi:cy="114.75"
       sodipodi:rx="3.0357144"
       sodipodi:ry="3.0357144"
       d="m 317.85716,114.75 c 0,1.67658 -1.35914,3.03571 -3.03572,3.03571 -1.67658,0 -3.03571,-1.35913 -3.03571,-3.03571 0,-1.67658 1.35913,-3.03571 3.03571,-3.03571 1.67658,0 3.03572,1.35913 3.03572,3.03571 z"
       transform="matrix(0.79797983,0,0,0.79797981,-149.73482,651.56471)" />
    <text
       sodipodi:linespacing="125%"
       id="text451222"
       y="746.26324"
       x="69.558289"
       style="font-size:40px;font-style:normal;font-weight:normal;line-height:125%;letter-spacing:0px;word-spacing:0px;fill:#000000;fill-opacity:1;stroke:none;font-family:Sans"
       xml:space="preserve"><tspan
         style="font-size:12px;fill:#ffffff"
         y="746.26324"
         x="69.558289"
         id="tspan4513"
         sodipodi:role="line">天峨</tspan></text>
    <g
       id="g451221" type="data" code="451221"
       transform="matrix(0.98695514,0,0,1.0304851,265.81477,-147.04509)">
      <text
         id="text451221-lc"
         x="-122.67094"
         y="849.59302"
         style="font-size:12px;fill:#ffffff;filter:url(#green);font-family:Sans">22</text>
      <text
         id="text451221-cq"
         x="-98.986"
         y="849.59302"
         style="font-size:12px;fill:#ffffff;filter:url(#orange);font-family:Sans">22</text>
    </g>
    <path
       sodipodi:type="arc"
       style="fill:#d40000;fill-opacity:1;stroke:#dd66ff;stroke-opacity:0"
       id="D451221"
       type="point" code="451221"
       sodipodi:cx="314.82144"
       sodipodi:cy="114.75"
       sodipodi:rx="3.0357144"
       sodipodi:ry="3.0357144"
       d="m 317.85716,114.75 c 0,1.67658 -1.35914,3.03571 -3.03572,3.03571 -1.67658,0 -3.03571,-1.35913 -3.03571,-3.03571 0,-1.67658 1.35913,-3.03571 3.03571,-3.03571 1.67658,0 3.03572,1.35913 3.03572,3.03571 z"
       transform="matrix(0.79797983,0,0,0.79797981,-76.509292,649.69676)" />
    <text
       sodipodi:linespacing="125%"
       id="text451221"
       y="744.94733"
       x="145.13263"
       style="font-size:40px;font-style:normal;font-weight:normal;line-height:125%;letter-spacing:0px;word-spacing:0px;fill:#000000;fill-opacity:1;stroke:none;font-family:Sans"
       xml:space="preserve"><tspan
         style="font-size:12px;fill:#ffffff"
         y="744.94733"
         x="145.13263"
         id="tspan4508"
         sodipodi:role="line">南丹</tspan></text>
    <g
       id="g451226" type="data" code="451226"
       transform="matrix(0.98695514,0,0,1.0304851,406.31028,-135.54086)">
      <text
         id="text451226-lc"
         x="-122.67094"
         y="849.59302"
         style="font-size:12px;fill:#ffffff;filter:url(#green);font-family:Sans">22</text>
      <text
         id="text451226-cq"
         x="-98.986"
         y="849.59302"
         style="font-size:12px;fill:#ffffff;filter:url(#orange);font-family:Sans">22</text>
    </g>
    <path
       sodipodi:type="arc"
       style="fill:#d40000;fill-opacity:1;stroke:#dd66ff;stroke-opacity:0"
       id="D451226"
       type="point" code="451226"
       sodipodi:cx="314.82144"
       sodipodi:cy="114.75"
       sodipodi:rx="3.0357144"
       sodipodi:ry="3.0357144"
       d="m 317.85716,114.75 c 0,1.67658 -1.35914,3.03571 -3.03572,3.03571 -1.67658,0 -3.03571,-1.35913 -3.03571,-3.03571 0,-1.67658 1.35913,-3.03571 3.03571,-3.03571 1.67658,0 3.03572,1.35913 3.03572,3.03571 z"
       transform="matrix(0.79797983,0,0,0.79797981,52.875134,671.04223)" />
    <text
       sodipodi:linespacing="125%"
       id="text451226"
       y="756.06537"
       x="291.43414"
       style="font-size:40px;font-style:normal;font-weight:normal;line-height:125%;letter-spacing:0px;word-spacing:0px;fill:#000000;fill-opacity:1;stroke:none;font-family:Sans"
       xml:space="preserve"><tspan
         style="font-size:12px;fill:#ffffff"
         y="756.06537"
         x="291.43414"
         id="tspan4509"
         sodipodi:role="line">环江</tspan></text>
  </g>
</svg>
