<?xml version="1.0" encoding="UTF-8" standalone="no"?>
<!-- Created with Inkscape (http://www.inkscape.org/) -->

<svg
   xmlns:dc="http://purl.org/dc/elements/1.1/"
   xmlns:cc="http://creativecommons.org/ns#"
   xmlns:rdf="http://www.w3.org/1999/02/22-rdf-syntax-ns#"
   xmlns:svg="http://www.w3.org/2000/svg"
   xmlns="http://www.w3.org/2000/svg"
   xmlns:sodipodi="http://sodipodi.sourceforge.net/DTD/sodipodi-0.dtd"
   xmlns:inkscape="http://www.inkscape.org/namespaces/inkscape"
   width="100%"
   height="100%"
   viewBox="0 0 460 460"
   id="svg5709"
   version="1.1"
   inkscape:version="0.48.5 r10040"
   sodipodi:docname="4514-2.svg">
  <defs
     id="defs5711">
    <filter
       color-interpolation-filters="sRGB"
       x="-0.1"
       y="0"
       width="1.2"
       height="1"
       id="green">
      <feFlood
         flood-color="#008000"
         id="feFlood6"
         result="result1" />
      <feComposite
         in="SourceGraphic"
         id="feComposite8"
         in2="result1" />
    </filter>
    <filter
       color-interpolation-filters="sRGB"
       x="-0.1"
       y="0"
       width="1.2"
       height="1"
       id="orange">
      <feFlood
         flood-color="#ff7f2a"
         id="feFlood11"
         result="result1" />
      <feComposite
         in="SourceGraphic"
         id="feComposite13"
         in2="result1" />
    </filter>
  </defs>
  <sodipodi:namedview
     id="base"
     pagecolor="#ffffff"
     bordercolor="#666666"
     borderopacity="1.0"
     inkscape:pageopacity="0.0"
     inkscape:pageshadow="2"
     inkscape:zoom="1.8391304"
     inkscape:cx="230"
     inkscape:cy="230"
     inkscape:current-layer="layer4514"
     inkscape:document-units="px"
     showgrid="false"
     inkscape:window-width="1920"
     inkscape:window-height="1018"
     inkscape:window-x="-8"
     inkscape:window-y="-8"
     inkscape:window-maximized="1"
     inkscape:showpageshadow="false" />
  <metadata
     id="metadata3354">
    <rdf:RDF>
      <cc:Work
         rdf:about="">
        <dc:title></dc:title>
        <dc:format>image/svg+xml</dc:format>
        <dc:type
           rdf:resource="http://purl.org/dc/dcmitype/StillImage" />
      </cc:Work>
    </rdf:RDF>
  </metadata>
  <g
     id="layer4514"
     transform="translate(6.1672211,-588.29488)">
    <g
       id="g5837"
       transform="translate(-426.23994,77.581146)"
       style="fill:#e6e6e6">
      <path
         style="fill:#e6e6e6"
         d="m 599.149,781.92596 c -2.32494,2.14598 -5.63461,8.03909 -8.926,14.0586 -3.29139,6.01952 -8.67914,11.68483 -16.69816,16.25882 -15.56289,8.87695 3.42413,30.2404 4.49755,44.20352 0.9707,12.62697 -15.08959,19.78792 -19.08187,30.71554 14.38273,3.4714 27.4334,13.12416 15.99262,28.1977 3.80048,17.66159 33.98531,4.51412 37.86473,26.28991 9.95915,18.70037 46.20752,-7.55053 38.34974,23.63602 4.24211,23.65711 27.47002,-1.08292 40.03735,-1.92311 5.92003,-17.31339 31.06489,-24.80649 18.84807,-47.00661 -5.15638,-16.99019 1.22642,-36.85974 15.60789,-49.40873 8.59443,-10.10894 13.71003,-18.00346 4.94096,-28.60505 3.37667,-6.45384 -9.15737,-17.81404 -18.27069,-25.68993 1.89732,12.6501 -1.24381,15.04907 -7.53365,17.37306 -12.49637,4.61719 1.59057,-15.86466 -18.09129,-9.92711 -14.9421,4.50767 -18.8877,10.00935 -37.83248,2.34467 -21.81747,-8.82691 -8.95268,-24.93996 -11.54244,-30.29136 -2.02686,-4.18824 -9.42328,-6.8743 -17.20484,-8.85703 -7.78157,-1.98272 -19.05602,-3.12401 -20.95749,-1.36891 z"
         id="path451422"
         inkscape:connector-curvature="0"
       	 onmouseout="changeColorOut('path451422')"
      	 onmouseover="changeColorOver('path451422')"
         sodipodi:nodetypes="sssscccccccccssssss" />
      <path
         style="fill:#e6e6e6"
         d="m 498.3125,803.46875 c -4.38304,0.62811 -3.7514,7.18646 -4.84375,10.75 -1.70159,12.96537 1.4519,26.06439 1.3125,38.90625 -3.47583,10.01544 -4.72953,22.79022 1.71875,31.8125 5.34524,5.54597 12.84826,-0.33297 16.90625,-4.59375 13.34283,-8.54143 29.48158,8.36174 43.4489,3.95838 5.43384,-2.57818 8.36278,-8.89376 12.6247,-12.9537 12.11079,-11.53683 6.14249,-20.25483 1.57658,-31.42796 -1.63062,-3.99025 -3.97837,-9.05488 -4.52518,-13.38922 -0.20195,-1.60074 -1.71697,-7.40302 2.50216,-10.52932 -3.95105,1.67968 -6.97393,2.57503 -8.84591,4.37307 -4.25256,4.08459 -5.89625,11.77095 -12.5,12.59375 -20.73718,2.58377 -20.88279,-12.64094 -21.80711,-13.42176 -0.89145,-0.75305 -9.07803,2.22316 -16.13039,-8.26574 -2.89067,-4.29926 -5.94122,-8.91408 -11.4375,-7.8125 z"
         id="path451481"
         inkscape:connector-curvature="0"
       	 onmouseout="changeColorOut('path451481')"
      	 onmouseover="changeColorOver('path451481')"
         sodipodi:nodetypes="ccccccssscssssc" />
      <path
         style="fill:#e6e6e6"
         d="m 526.34375,692.25 c -16.38006,5.58396 -19.02342,24.62114 -28.125,37.125 -1.42231,2.151 -3.21644,4.04003 -5.5,1.78125 -7.42119,-4.25394 -16.97108,-0.43077 -19.96875,7.34375 -5.23008,9.81277 -4.27257,21.36023 -5.46875,31.96875 -3.64685,12.89776 3.97996,27.70311 17.28125,30.84375 7.65713,3.09724 18.0047,-1.90307 23.625,5.875 5.36269,7.2498 7.02461,12.29155 17.76648,11.8244 1.4951,-0.065 2.29208,12.10715 12.34981,13.13497 6.80777,0.6957 11.6573,3.48293 19.02046,-9.11097 2.73892,-4.68464 7.66828,-5.70496 11.05075,-8.3484 6.68809,-5.22682 12.93032,-8.84414 18.31102,-15.61982 5.22948,-6.58525 8.44487,-16.8236 11.37115,-18.04206 1.8972,-0.78996 6.81791,-1.80147 10.98068,-0.88807 4.43224,0.97253 5.45016,1.10735 7.82397,1.41932 -1.55671,-2.73311 1.30676,-7.60087 3.08834,-10.64869 1.78158,-3.04782 2.67353,-6.29419 1.01859,-9.53318 -1.85794,-3.63629 -6.99727,-2.89676 -15.85145,-8.05362 -8.85419,-5.15686 -15.93274,-20.22678 -31.70972,-29.54339 -16.04929,-9.47742 -22.70259,-15.35031 -38.62633,-28.99674 -2.26481,-1.94091 -5.34615,-2.97565 -8.4375,-2.53125 z"
         id="path451423"
         inkscape:connector-curvature="0"
       	 onmouseout="changeColorOut('path451423')"
      	 onmouseover="changeColorOver('path451423')"
         sodipodi:nodetypes="cccccccssssssscsssssc" />
      <path
         style="fill:#e6e6e6"
         d="m 737.625,629.65625 c -9.38202,4.70192 -18.74711,12.55981 -27.80033,18.16945 -4.80738,2.91835 -14.96982,13.16484 -19.69784,16.28546 -4.72801,3.12062 -0.84965,-5.21001 -6.60358,-4.26608 -6.80501,1.11636 -10.62625,7.96456 -12.41158,16.54977 -4.72555,22.72401 -7.47679,17.93908 -18.38627,21.37094 -3.61783,1.13808 -0.50784,7.63621 0.36835,10.73421 2.72407,9.63164 6.25639,20.70552 -0.65862,25.81576 -11.83565,8.74662 -11.24435,1.81183 -12.61833,-4.90388 -1.50897,-7.37551 0.89172,-17.58395 -3.125,-20.4886 -3.40529,-2.4625 -10.45672,2.89405 -14.52248,4.62966 -11.47109,4.89684 -16.68775,13.39089 -16.81091,25.14493 -0.0487,4.6522 -0.43222,11.58014 3.64159,15.30213 4.66893,4.26571 11.40651,1.83973 13.37352,7.87781 0.978,3.00213 0.26664,6.20135 -1.44702,9.34506 -2.12357,3.8957 -4.62749,7.12523 -2.864,10.53854 3.87568,1.86424 7.69415,1.54806 11.95661,3.10029 3.39806,1.23745 8.2296,4.44028 8.95764,6.68851 1.12415,3.47143 -3.79354,12.82221 -1.5705,19.23104 4.27661,9.24869 14.51214,12.14122 23.75,14.375 11.32908,2.73946 23.44112,-9.33934 35.09375,-6.125 4.64086,1.3861 2.34673,9.96152 4.5758,10.68358 1.0254,0.33217 7.02306,-2.01687 7.86938,-2.49034 3.09461,-1.73125 2.76875,-5.67851 3.12825,-8.10494 0.58856,-3.97235 -1.40227,-7.99535 -4.51093,-10.02578 9.06619,-11.341 30.05938,-20.17146 23.01318,-34.13255 -4.79669,-9.50398 -21.82383,-9.34563 -30.10065,-19.88001 -4.26005,-5.422 2.08617,-11.6019 5.37544,-16.04521 4.71976,-6.37571 7.76262,-14.00378 17.45461,-12.15916 2.83547,0.53966 9.76627,-0.10192 15.5586,-3.27143 12.56036,-6.87291 14.34305,-5.79159 20.55205,-22.66878 2.51015,-6.82303 -11.02606,-13.7872 -13.91573,-21.18661 -5.36235,-13.73107 -4.20394,-28.64961 -1.8125,-42.75 0.62717,-3.69792 -1.48231,-8.05721 -5.8125,-7.34375 z"
         id="path451402"
         inkscape:connector-curvature="0"
       	 onmouseout="changeColorOut('path451402')"
      	 onmouseover="changeColorOver('path451402')"
         sodipodi:nodetypes="ccssssssssssssscsscscssscsssssssscc" />
      <path
         style="fill:#e6e6e6"
         d="m 746.84553,632.4501 c -7.43849,20.03939 -6.89073,43.58411 7.98321,57.74745 7.1661,6.82374 6.84079,7.39152 3.34843,16.70218 -2.59115,6.90803 -6.77177,11.68359 -17.40811,16.95728 -4.00545,1.98597 -9.53597,5.22017 -17.92422,4.02575 -5.16614,-0.73562 -7.18089,0.96474 -10.2681,4.25172 -3.08722,3.28698 -5.80511,8.64118 -9.87841,13.48308 -14.07606,16.73209 32.86881,17.19191 30.50981,34.24172 -2.08834,15.09364 -19.09166,19.30477 -23.4436,29.3703 18.57211,19.99335 39.31939,14.00963 61.20599,12.03302 25.52349,8.99523 31.01908,-22.73144 48.89408,-33.2602 23.26276,-7.56214 18.17618,-40.12016 -3.62799,-42.65758 -1.76271,-13.30667 -5.26681,-33.13027 14.87867,-33.03822 13.42647,-10.66871 -2.13178,-18.94103 -12.21655,-19.04125 0.83583,-22.24495 -18.66716,-37.87137 -39.39572,-41.01328 -13.41472,-3.18714 -22.08245,-14.87227 -32.65749,-19.80197 z"
         id="path451421"
         inkscape:connector-curvature="0"
       	 onmouseout="changeColorOut('path451421')"
      	 onmouseover="changeColorOver('path451421')"
         sodipodi:nodetypes="cssssssscccccccc" />
      <path
         style="fill:#e6e6e6"
         d="m 668.55584,598.51497 c -8.62224,0.56446 -26.18347,4.8753 -28.24089,7.72274 -2.80912,3.88781 1.59531,11.17001 -3.33526,15.14416 -4.96806,4.00437 -16.81127,1.76287 -21.90788,3.05045 -5.09661,1.28759 -1.63813,5.85703 -8.43792,11.34494 -12.7162,10.26287 -16.99102,14.43937 -32.02731,21.81645 -23.33622,11.44918 -48.63345,-7.66287 -39.61357,-22.67942 9.6103,-15.99951 8.17812,-30.60109 -2.52248,-35.27669 -10.55024,14.99611 -22.79281,31.14676 -36.12186,44.85076 0.79026,18.78918 34.21,19.25496 31.97679,37.219 4.29811,15.04246 25.45161,27.39821 40.50431,37.89978 6.40747,4.47019 12.5543,8.06727 19.37897,14.68061 6.86862,6.65593 9.45719,13.01316 17.59563,17.8517 -4.18875,-8.19513 -0.71544,-27.92246 5.48569,-33.02686 6.20115,-5.1044 14.74568,-8.75426 19.93047,-11.13124 18.03283,-8.26721 -0.66277,44.05287 21.2069,25.06057 6.12843,-5.32212 1.2135,-14.48164 -0.45535,-23.18027 -2.52448,-13.15844 -6.0605,-12.48207 10.2914,-15.588 9.41668,-1.78863 4.2225,-39.29862 27.18615,-34.70035 5.08289,-14.70923 5.60738,-36.33588 -3.3325,-52.29603 -2.75182,-6.37418 -13.30227,-0.61417 -17.56129,-8.7623 z"
         id="path451424"
         inkscape:connector-curvature="0"
       	 onmouseout="changeColorOut('path451424')"
      	 onmouseover="changeColorOver('path451424')"
         sodipodi:nodetypes="csssssscccsscsssssccc" />
      <path
         style="fill:#e6e6e6"
         d="m 643.3125,528.0625 c -12.42812,7.67507 -30.94637,0.83676 -40.875,13.40625 -2.60744,5.26375 -9.54935,1.85999 -13.95937,1.03033 -8.73423,-2.36994 -20.47762,-8.16636 -28.07188,-0.37408 -4.45932,5.15045 -4.76643,13.2256 -11.21875,16.75 -9.89992,7.44225 -26.35545,9.52853 -29.75,23.40625 -1.59269,5.96589 -2.99261,17.50238 6.3125,17 5.31905,0.39456 5.5953,-1.52347 7.94298,-0.4769 3.17181,1.41396 8.65641,9.00171 8.67817,13.00104 0.0447,8.22504 -1.16274,14.98897 -5.00175,21.57055 -3.57142,6.12283 -5.6024,12.1462 1.99464,18.78416 7.63956,6.67512 18.08571,9.7015 28.52325,6.90758 4.50739,-1.20653 8.43922,-3.39465 12.61271,-5.66143 9.57892,-5.20268 16.78028,-12.53059 26.5625,-19.3125 4.61719,-3.20105 2.31314,-9.83157 7.8125,-10.5625 7.47164,-0.99307 17.58302,2.1165 22.75,-4.375 3.13959,-3.94441 -1.74351,-9.59673 2.34375,-13.59375 7.23739,-7.0776 19.81153,-3.59758 26.875,-10.21875 4.44482,-4.1665 -4.94222,-8.25642 -3.625,-12.875 1.0082,-15.77955 6.60347,-34.71906 -4.90625,-47.9375 -3.58191,-4.72665 -9.18974,-6.82912 -15,-6.46875 z"
         id="path451425"
         inkscape:connector-curvature="0"
       	 onmouseout="changeColorOut('path451425')"
      	 onmouseover="changeColorOver('path451425')"
         sodipodi:nodetypes="cccccccsssssssssssccc" />
    </g>
    <g
       id="g451422"
       transform="matrix(0.98695514,0,0,1.0304851,293.975,60.104278)">
      <text
         id="text451422-lc"
         x="-122.67094"
         y="849.59302"
         style="font-size:12px;fill:#ffffff;filter:url(#green);font-family:Sans">22</text>
    </g>
    <path
       transform="matrix(0.79797983,0,0,0.79797981,-86.105717,821.98957)"
       d="m 317.85716,114.75 c 0,1.67658 -1.35914,3.03571 -3.03572,3.03571 -1.67658,0 -3.03571,-1.35913 -3.03571,-3.03571 0,-1.67658 1.35913,-3.03571 3.03571,-3.03571 1.67658,0 3.03572,1.35913 3.03572,3.03571 z"
       sodipodi:ry="3.0357144"
       sodipodi:rx="3.0357144"
       sodipodi:cy="114.75"
       sodipodi:cx="314.82144"
       id="D451422"
       style="fill:#d40000;fill-opacity:1;stroke:#dd66ff;stroke-opacity:0"
       sodipodi:type="arc" />
    <text
       xml:space="preserve"
       style="font-size:40px;font-style:normal;font-weight:normal;line-height:125%;letter-spacing:0px;word-spacing:0px;fill:#000000;fill-opacity:1;stroke:none;font-family:Sans"
       x="171.97273"
       y="917.24542"
       id="text451422"
       sodipodi:linespacing="125%"><tspan
         sodipodi:role="line"
         id="tspan5691-1-3-8-7-7-7-8-7-0-08"
         x="171.97273"
         y="917.24542"
         style="font-size:12px;fill:#666666">宁明</tspan></text>
    <g
       id="g451481"
       transform="matrix(0.98695514,0,0,1.0304851,208.49539,63.963534)">
      <text
         id="text451481-lc"
         x="-122.67094"
         y="849.59302"
         style="font-size:12px;fill:#ffffff;filter:url(#green);font-family:Sans">22</text>
    </g>
    <path
       transform="matrix(0.79797983,0,0,0.79797981,-171.38664,826.58004)"
       d="m 317.85716,114.75 c 0,1.67658 -1.35914,3.03571 -3.03572,3.03571 -1.67658,0 -3.03571,-1.35913 -3.03571,-3.03571 0,-1.67658 1.35913,-3.03571 3.03571,-3.03571 1.67658,0 3.03572,1.35913 3.03572,3.03571 z"
       sodipodi:ry="3.0357144"
       sodipodi:rx="3.0357144"
       sodipodi:cy="114.75"
       sodipodi:cx="314.82144"
       id="D451481"
       style="fill:#d40000;fill-opacity:1;stroke:#dd66ff;stroke-opacity:0"
       sodipodi:type="arc" />
    <text
       xml:space="preserve"
       style="font-size:40px;font-style:normal;font-weight:normal;line-height:125%;letter-spacing:0px;word-spacing:0px;fill:#000000;fill-opacity:1;stroke:none;font-family:Sans"
       x="87.953667"
       y="920.96313"
       id="text451481"
       sodipodi:linespacing="125%"><tspan
         sodipodi:role="line"
         id="tspan5691-1-3-8-7-7-7-8-7-0-4"
         x="87.953667"
         y="920.96313"
         style="font-size:12px;fill:#666666">凭祥</tspan></text>
    <g
       id="g451423"
       transform="matrix(0.98695514,0,0,1.0304851,230.92096,-33.955675)">
      <text
         id="text451423-lc"
         x="-122.67094"
         y="849.59302"
         style="font-size:12px;fill:#ffffff;filter:url(#green);font-family:Sans">22</text>
    </g>
    <path
       transform="matrix(0.79797983,0,0,0.79797981,-135.21793,773.66035)"
       d="m 317.85716,114.75 c 0,1.67658 -1.35914,3.03571 -3.03572,3.03571 -1.67658,0 -3.03571,-1.35913 -3.03571,-3.03571 0,-1.67658 1.35913,-3.03571 3.03571,-3.03571 1.67658,0 3.03572,1.35913 3.03572,3.03571 z"
       sodipodi:ry="3.0357144"
       sodipodi:rx="3.0357144"
       sodipodi:cy="114.75"
       sodipodi:cx="314.82144"
       id="D451423"
       style="fill:#d40000;fill-opacity:1;stroke:#dd66ff;stroke-opacity:0"
       sodipodi:type="arc" />
    <text
       xml:space="preserve"
       style="font-size:40px;font-style:normal;font-weight:normal;line-height:125%;letter-spacing:0px;word-spacing:0px;fill:#000000;fill-opacity:1;stroke:none;font-family:Sans"
       x="103.76075"
       y="858.41998"
       id="text451423"
       sodipodi:linespacing="125%"><tspan
         sodipodi:role="line"
         id="tspan5691-1-3-8-7-7-7-8-7-0-9"
         x="103.76075"
         y="858.41998"
         style="font-size:12px;fill:#666666">龙州</tspan></text>
    <g
       id="g451402"
       transform="matrix(0.98695514,0,0,1.0304851,361.34812,-44.29355)">
      <text
         id="text451402-lc"
         x="-122.67094"
         y="849.59302"
         style="font-size:12px;fill:#ffffff;filter:url(#green);font-family:Sans">22</text>
    </g>
    <path
       transform="matrix(0.79797983,0,0,0.79797981,-22.212102,751.78427)"
       d="m 317.85716,114.75 c 0,1.67658 -1.35914,3.03571 -3.03572,3.03571 -1.67658,0 -3.03571,-1.35913 -3.03571,-3.03571 0,-1.67658 1.35913,-3.03571 3.03571,-3.03571 1.67658,0 3.03572,1.35913 3.03572,3.03571 z"
       sodipodi:ry="3.0357144"
       sodipodi:rx="3.0357144"
       sodipodi:cy="114.75"
       sodipodi:cx="314.82144"
       id="D451402"
       style="fill:#d40000;fill-opacity:1;stroke:#dd66ff;stroke-opacity:0"
       sodipodi:type="arc" />
    <text
       xml:space="preserve"
       style="font-size:40px;font-style:normal;font-weight:normal;line-height:125%;letter-spacing:0px;word-spacing:0px;fill:#000000;fill-opacity:1;stroke:none;font-family:Sans"
       x="236.32271"
       y="847.04016"
       id="text451402"
       sodipodi:linespacing="125%"><tspan
         sodipodi:role="line"
         id="tspan5691-1-3-8-7-7-7-8-7-0-8"
         x="236.32271"
         y="847.04016"
         style="font-size:12px;fill:#666666">江州区</tspan></text>
    <g
       id="g451421"
       transform="matrix(0.98695514,0,0,1.0304851,475.12305,-65.798744)">
      <text
         id="text451421-lc"
         x="-122.67094"
         y="849.59302"
         style="font-size:12px;fill:#ffffff;filter:url(#green);font-family:Sans">22</text>
    </g>
    <path
       transform="matrix(0.79797983,0,0,0.79797981,121.47172,696.21681)"
       d="m 317.85716,114.75 c 0,1.67658 -1.35914,3.03571 -3.03572,3.03571 -1.67658,0 -3.03571,-1.35913 -3.03571,-3.03571 0,-1.67658 1.35913,-3.03571 3.03571,-3.03571 1.67658,0 3.03572,1.35913 3.03572,3.03571 z"
       sodipodi:ry="3.0357144"
       sodipodi:rx="3.0357144"
       sodipodi:cy="114.75"
       sodipodi:cx="314.82144"
       id="D451421"
       style="fill:#d40000;fill-opacity:1;stroke:#dd66ff;stroke-opacity:0"
       sodipodi:type="arc" />
    <text
       xml:space="preserve"
       style="font-size:40px;font-style:normal;font-weight:normal;line-height:125%;letter-spacing:0px;word-spacing:0px;fill:#000000;fill-opacity:1;stroke:none;font-family:Sans"
       x="342.06137"
       y="791.79443"
       id="text451421"
       sodipodi:linespacing="125%"><tspan
         sodipodi:role="line"
         id="tspan5691-1-3-8-7-7-7-8-7-0-6"
         x="342.06137"
         y="791.79443"
         style="font-size:12px;fill:#666666">扶绥</tspan></text>
    <g
       id="g451424"
       transform="matrix(0.98695514,0,0,1.0304851,314.52155,-118.25148)">
      <text
         id="text451424-lc"
         x="-122.67094"
         y="849.59302"
         style="font-size:12px;fill:#ffffff;filter:url(#green);font-family:Sans">22</text>
    </g>
    <text
       xml:space="preserve"
       style="font-size:40px;font-style:normal;font-weight:normal;line-height:125%;letter-spacing:0px;word-spacing:0px;fill:#000000;fill-opacity:1;stroke:none;font-family:Sans"
       x="193.53238"
       y="739.52661"
       id="text451424"
       sodipodi:linespacing="125%"><tspan
         sodipodi:role="line"
         id="tspan5691-1-3-8-7-7-7-8-7-0-0"
         x="193.53238"
         y="739.52661"
         style="font-size:12px;fill:#666666">大新</tspan></text>
    <path
       transform="matrix(0.79797983,0,0,0.79797981,-62.298345,644.53811)"
       d="m 317.85716,114.75 c 0,1.67658 -1.35914,3.03571 -3.03572,3.03571 -1.67658,0 -3.03571,-1.35913 -3.03571,-3.03571 0,-1.67658 1.35913,-3.03571 3.03571,-3.03571 1.67658,0 3.03572,1.35913 3.03572,3.03571 z"
       sodipodi:ry="3.0357144"
       sodipodi:rx="3.0357144"
       sodipodi:cy="114.75"
       sodipodi:cx="314.82144"
       id="D451424"
       style="fill:#d40000;fill-opacity:1;stroke:#dd66ff;stroke-opacity:0"
       sodipodi:type="arc" />
    <g
       id="g451425"
       transform="matrix(0.98695514,0,0,1.0304851,287.26165,-209.54422)">
      <text
         id="text451425-lc"
         x="-122.67094"
         y="849.59302"
         style="font-size:12px;fill:#ffffff;filter:url(#green);font-family:Sans">22</text>
    </g>
    <text
       xml:space="preserve"
       style="font-size:40px;font-style:normal;font-weight:normal;line-height:125%;letter-spacing:0px;word-spacing:0px;fill:#000000;fill-opacity:1;stroke:none;font-family:Sans"
       x="155.70232"
       y="682.80792"
       id="text451425"
       sodipodi:linespacing="125%"><tspan
         sodipodi:role="line"
         id="tspan5691-1-3-8-7-7-7-8-7-0-3"
         x="155.70232"
         y="682.80792"
         style="font-size:12px;fill:#666666">天等</tspan></text>
    <path
       transform="matrix(0.79797983,0,0,0.79797981,-65.305712,587.17395)"
       d="m 317.85716,114.75 c 0,1.67658 -1.35914,3.03571 -3.03572,3.03571 -1.67658,0 -3.03571,-1.35913 -3.03571,-3.03571 0,-1.67658 1.35913,-3.03571 3.03571,-3.03571 1.67658,0 3.03572,1.35913 3.03572,3.03571 z"
       sodipodi:ry="3.0357144"
       sodipodi:rx="3.0357144"
       sodipodi:cy="114.75"
       sodipodi:cx="314.82144"
       id="D451425"
       style="fill:#d40000;fill-opacity:1;stroke:#dd66ff;stroke-opacity:0"
       sodipodi:type="arc" />
  </g>
</svg>
