<?xml version="1.0" encoding="utf-8"?>
<!-- Generator: Adobe Illustrator 21.0.0, SVG Export Plug-In . SVG Version: 6.00 Build 0)  -->
<svg version="1.1" id="图层_1" xmlns="http://www.w3.org/2000/svg" xmlns:xlink="http://www.w3.org/1999/xlink" x="0px" y="0px"
	 width="1920px" height="1080px" viewBox="0 0 1920 1080" style="enable-background:new 0 0 1920 1080;" xml:space="preserve">
<style type="text/css">
	._x005B_Default_x005D_{fill:#FFFFFF;stroke:#000000;}
	.Tissue_x0020_Paper_x0020_Collage{opacity:0.8;fill:#E6762F;}
	.Transmogrifier{fill:none;stroke:#007AC6;stroke-width:7;stroke-linecap:round;stroke-miterlimit:50;}
	.Parchment{fill:#FBDE00;fill-opacity:0.43;}
	.Spyrographic{fill:#FFFFFF;stroke:#BBD762;stroke-width:2;}
	.Maypole{fill:none;stroke:#BBD762;}
	.Ice_x0020_Type{fill:#00AFEC;stroke:#9FD9F6;stroke-width:3;}
	.Dropped_x0020_Sherbet_x0020_Type{fill:url(#SVGID_1_);fill-opacity:0.5;stroke:#1F3134;stroke-width:0.5;}
	.Neon_x0020_Type{fill:none;stroke:#E30481;stroke-width:10;stroke-linecap:round;stroke-linejoin:round;}
	.Hair_x0020_Ball{fill:#5A381D;}
	.st0{fill:#0F81A1;stroke:#FFFFFF;stroke-miterlimit:10;}
	.st1{fill:none;stroke:#59BDED;stroke-width:0.4131;}
	.st2{fill:#0F81A1;stroke:#FFFFFF;stroke-width:1.8198;stroke-miterlimit:10;}
	.st3{fill:#0F81A1;stroke:#FFFFFF;stroke-width:1.1372;stroke-miterlimit:10;}
	.st4{fill:#C33E3D;}
	.st5{fill:none;stroke:#FFFFFF;stroke-width:0.9099;stroke-miterlimit:10;}
	.st6{fill:#4DB676;}
	.st7{fill:#D8885B;}
	.st8{fill:#E6E6E5;stroke:#FFFFFF;stroke-miterlimit:10;}
	.st9{fill:none;stroke:#FFFFFF;stroke-miterlimit:10;}
	.st10{fill:#3E3A39;}
	.st11{font-family:'SourceHanSansCN-Normal-GBpc-EUC-H';}
	.st12{font-size:14px;}
	.st13{fill:none;stroke:#FFFFFF;stroke-width:1.1372;stroke-miterlimit:10;}
	.st14{fill:none;stroke:#FFFFFF;stroke-width:1.1988;stroke-miterlimit:10;}
</style>
<linearGradient id="SVGID_1_" gradientUnits="userSpaceOnUse" x1="1664" y1="-234.1367" x2="1665" y2="-234.1367">
	<stop  offset="0.191" style="stop-color:#00AFEC"/>
	<stop  offset="0.4494" style="stop-color:#DEAACC"/>
	<stop  offset="0.5562" style="stop-color:#FEED00"/>
	<stop  offset="0.573" style="stop-color:#EB613B"/>
	<stop  offset="0.6584" style="stop-color:#F0833F"/>
	<stop  offset="0.761" style="stop-color:#F4A342"/>
	<stop  offset="0.8556" style="stop-color:#F8B944"/>
	<stop  offset="0.9383" style="stop-color:#FAC544"/>
	<stop  offset="1" style="stop-color:#FBC944"/>
</linearGradient>
<path class="st8" d="M465.6,387.9c-3.2,9.5-14.3,9.5-14.3,9.5c-26.2-3.2-5.5-21.5-2.4-30.2c3.2-8.7-2.4-19.9-2.4-19.9l-4,2.4
	l-4.8-0.8c0,0-11.9-7.2-27-19.9c-15.1-12.7-26.2-3.2-26.2-3.2c-19.1,4-19.9-13.5-19.9-13.5l-12.7-1.6l-8.7-19.1
	c-9.5-3.2-8.7-7.2-8.7-7.2c8-7.2,8.8-15.9,8.8-15.9s-13.5-6.4-28.6-25.5c-15.1-19.1-7.9-30.2-7.9-30.2l0-0.4
	c-1.3-1.2-2.9-3.4-4.8-6.9c0,0-6.2-8.5-10.8-9.1l-0.6-3.4c0,0-12.5-2.3-13.6,0.6c-1.1,2.8-1.7,10.8-1.7,10.8l-10.2-2.8
	c0,0,9.7-11.4-1.1-21c-10.8-9.7-11.4-11.4-11.4-11.4l-3.4-4.5l-5.1,0l-2.9,13.6c0,0,0,16.5-5.7,14.8c-5.7-1.7-35.2-6.3-42.6-23.4
	c0,0-13.1-6.8-18.2-8c0,0-13.1-8-21.6-26.2c-8.5-18.2-8.5-18.2-8.5-18.2s5.7-17.6-11.4-21c0,0-6.8-1.7-6.2-10.2
	c0.6-8.5,1.7-27.3-12.5-24.5c-14.2,2.8-26.7-4-26.7-4s-6.8-13.7-14.2-4c-7.4,9.7-9.7,9.1-9.7,9.1l2.3,5.7l-2.3,3.4l0.6,8.5
	l-17.1,4.5c0,0-9.7,2.8-5.1,14.2c4.5,11.4,1.1,16.5,1.1,16.5l8.5,1.1l2.8,10.2l13.1,5.1c0,0,2.3,4.5-5.7,6.8l-2.9,5.1
	c0,0-1.7,11.4-12.5,15.9l9.1,6.3c0,0,1.7,4-7.4,10.2c-9.1,6.3-10.8,6.8-10.8,6.8s-9.1,9.1,11.9,25c21,15.9,30.1,19.9,38.6,21.6
	c8.5,1.7,18.2,4.6,20.5,19.9c0,0,6.8,15.9,14.8,19.3c0,0,6.2,8.5,1.1,15.9l8.5,11.9l7.4,9.7l15.3,15.4l11.9,9.1
	c0,0,2.8,9.7-9.1,14.2l-7.4-4.6c0,0-8-2.3-5.7,11.4l9.7,6.8l1.1,9.7c0,0,10.8,4.6,6.8,12.5l2.3,5.1l9.7,7.4c0,0,3.4,4.6-1.7,13.1
	l3.4,8.5l1.7,18.2l3.4,17.1l6.8,25.6c0,0,2.3,8-5.1,23.9l2.3,17.1l4.5,23.3c0,0,11.4,10.8,5.7,30.7c0,0-2.9,30.7,7.3,44.9l-0.6,19.9
	l7.4,5.7l6.2,11.4l5.1,1.1l1.7-4.5l0-14.8c0,0,4.6-1.7,4.6-4c0-2.3,0-5.7,0-5.7l-2.8-8.5l9.7-6.8l2.8-6.3l3.4-11.9l9.7-7.4l1.1,10.8
	c0,0,6.8,5.1,13.1,7.4l-1.1,8c0,0,10.2-3.4,11.9,13.1c0,0,5.1,11.9,11.9,11.9c0,0,6.2,6.8-1.7,15.3c-8,8.5-9.1,10.2,2.3,22.2
	c0.2,0.2,0.3,0.3,0.5,0.5c1-0.7,4.3-2.8,10.8-4.1c8-1.6,8.8-6.4,8.8-6.4c-8.7-22.3,4-42.1,4-42.1c8-7.9-0.8-22.3-0.8-22.3
	c4.8-2.4,8-11.1,8-11.1c-0.8-21.5,16.7-23.1,16.7-23.1l4,0.8l3.2-2.4c-4-16.7,5.6-9.5,5.6-9.5l4.8,2.4
	c21.5-15.1,21.4,35.8,21.4,35.8l1.6,3.2l5.6,4l25.4,5.6c11.1,8,4,15.1-1.6,11.1c-5.6-4-11.1,6.3-2.4,15.1c8.7,8.8,22.3-4.8,22.3-4.8
	c0-15.1,6.4-21.5,6.4-21.5c11.9-4.8,15.9-17.5,15.9-17.5c-4-21.5,6.4-23.9,6.4-23.9l2.4-7.2l-3.2-8.7l-5.6-13.5l-7.2-5.6
	c-4-15.9-2.4-17.5,15.9-15.9c18.3,1.6,11.1-13.5,11.1-13.5c2.4-5.6,4.8-16.7,4.8-16.7l-5.6-11.1l-2.4-12.7
	c-6.4-11.1,5.6-20.7,5.6-20.7c10.3-7.1,2.4-27.8,2.4-27.8l4.8-14.3C477.5,387.9,465.6,387.9,465.6,387.9z"/>
<path class="st8" d="M615.2,160.4l0.7,0.1c-0.5-2.5,0.5-5.4,4-8c9.7-7.4,2.3-8.5-5.1-9.1c-7.4-0.6-1.1-6.3,2.9-9.1
	c4-2.8-5.1-15.9-5.1-15.9l8.5-0.6c0,0,5.1-4-8.5-8.5c-13.6-4.6-15.9-25-15.9-25s-12.5-8-31.8-0.6c0,0-7.4-2.3-9.7-5.1
	c-2.3-2.8-9.7,4-9.7,4s1.7-19.9-10.2-6.8c0,0-16.5,10.2-20.5-5.7c-4-15.9-6.8-15.4-6.8-15.4s15.4-14.8-9.7-17.6l-2.8-9.7l-6.8-6.3
	c0,0,1.7,4-5.1,9.1c-6.8,5.1-15.9,6.8-14.8,18.2c0,0-14.2-6.8-14.8,15.9l-2.8,1.1l-20.5-4.6l0,4l11.9,18.2c0,0-0.6,17.6,15.3,18.8
	c0,0,3.4,16.5-7.4,17.6c-10.8,1.1-9.7,19.9-9.7,19.9l-8-6.3l-2.3,2.3l-1.1,5.1c0,0-12.5,5.1-13.7,10.2l-3.4,1.1l-2.8-3.4v-4l0-2.8
	l-1.7-1.1l-2.8-3.4c0,0,17.6-16.5,2.3-33l-2.8,1.1l-2.9,15.3c0,0-17.6,11.9-2.9,13.1c0,0,6.8,2.3-1.1,6.8c0,0-6.8,8-5.1,10.8
	l-2.8-0.6l-5.1-5.1c0,0-9.7-14.8-12.5,6.2l-9.1-12.5c0,0-11.4-2.3-11.4,6.2l1.1,4.5l1.7,8c0,0,14.2,8.5-5.7,11.9l1.1,4
	c0,0,15.3,10.8,1.7,23.3c0,0-11.4,2.8-12.5,9.7c0,0-16.5-11.4-25-8.5c0,0,0,21.9-7.4,14.6c-3.7,5.9,0.3,17.3,0.3,17.3
	c12.5,24.7,34.6,37.6,34.6,37.6l1.7,0.7c-1.7,10.4-8.8,15.9-8.8,15.9c0.8,5.3,8.7,7.2,8.7,7.2l8.7,19.1l12.7,1.6
	c2.7,18.6,19.9,13.5,19.9,13.5c12.5-8.7,25.3,1.8,26.2,3.2c0.9,1.4,26.6,20.1,26.6,20.1l5.3,1l3.5-2.7c6.3,13.6,2.4,20.8,2.4,20.8
	l-9.4,15.6c-5.5,13.1,12.1,13.6,12.1,13.6c12.4-0.8,14.3-9.5,14.3-9.5c3.7-0.7,9.5,2.5,9.5,2.5c-3.8-13.6,11.4-18.9,11.4-18.9
	l4.2-0.8l11-8.7c13.7-6.1,11.8,1.9,11.8,1.9l-0.8,9.1l0,2.3l1.9,1.5c0,0,3-1.1,8.7-3.8c5.7-2.6,19.7-6,28.1-8.3
	c8.3-2.3,11-20.5,11-20.5s4.2-17.4,5-23.1c0.8-5.7,10.6-15.1,10.6-15.1c3.8-6.8,9.9-9.5,9.9-9.5l4.6-3.8c3-12.5,11.4-17.8,11.4-17.8
	c24.3-5.3,0.8-14.4,0.8-14.4l-4.9-1.1l-3-2.3c-4.2-4.9-14-2.7-14-2.7c-6.8-7.2-7.6-22.7,10.3-23.1c17.8-0.4,19.3-4.9,19.3-4.9
	c7.2-11.7-3-8-3-8c-0.8,6.8-25,2.3-24.3-6.1c0.8-8.3-3-16.7-3-16.7s-6.8-4.9,3-12.1c9.9-7.2,14.4,6.8,14.4,6.8
	c13.6,6.5,6.1-7.9,3.8-19.3c-2.3-11.4-6.4-9.5-9.1-8c-2.7,1.5-6.4,2.3-6.4,2.3l-0.4-16.7C595.9,137.3,615.2,160.4,615.2,160.4z"/>
<path class="st8" d="M905.3,205.5c-13.6-5.4-5.6-18.4-4.3-20.2c-4.6-3.7-9.5-5.8-16.4-4c0,0-10.8,6.2-10.8-7.4l0.6-2.8l-5.7,0
	c0,0-4.5,0-5.1,2.8c-0.6,2.8-0.6,9.7-0.6,9.7s-4-1.1-5.7-2.3c-1.7-1.1-11.4-5.7-11.4-5.7l-1.7-1.1c0,0,4.6-27.9-9.1-19.3
	c-13.7,8.5-19.3,0.5-19.3,0.5l-8,5.1c0,0-1.9,0.4-4.3,1.3c2.5,1.2,8.5,5.4,8.8,18.9c0,0,3,5.3,7.9,9.9c4.9,4.6-5.3,7.6-6.8,7.6
	c-1.5,0-6.1,6.8-7.6,14.8c-1.5,8-7.6,17.8-7.6,17.8l-1.5,31.1c0,0,20.5,21.2,24.2,11c3.8-10.2,15.5-0.4,16.3,1.9
	c0.5,1.6,6.2,8,9.2,18.1c0,0,22.5-18.4,35.6-33.1c13.1-14.7,18.4-7.9,10-25.7c-8.4-17.8,7.9-21,7.9-21S919.9,211.3,905.3,205.5z"/>
<path class="st8" d="M939.3,329.7c0,0,4-3.4,0-6.3c-4-2.8,1.7-7.4,1.7-7.4l5.1-5.7l-2.3-6.3l3.4-6.8c0,0,0-2.3-4.5-5.1
	c-4.5-2.8,9.7-10.8,9.7-10.8s2.3-6.8,2.3-11.4c0-4.5,4.5-2.8,4.5-2.8s-6.8-9.7,7.4-8.5l2.9-3.4l0.6-3.4l11.9-5.7
	c0,0,3.4-7.4-3.4-9.1l0-4l-4-1.1L953,214.3c0,0,0-4.5,7.4-2.3l1.1-2.3l0-6.8c0,0,15.3,1.7-0.6-10.2l1.7-1.7l5.7-1.1
	c0,0,4.6-8.5-7.4-6.3l-8,2.8l-4.5-1.1l-4.6,4.5l-10.2,5.1c0,0-8.5,11.9-19.3,2.3c-5.1-4.6-9-9.2-13.2-12.6c0,0-0.1,0-0.1,0
	c-1.2,1.9-9.3,14.9,4.3,20.2c14.7,5.8-5.3,7.9-5.3,7.9s-16.3,3.1-7.9,21c8.4,17.8,3.1,11-10,25.7c-13.1,14.7-34.6,32.7-34.6,32.7
	l-0.8,0.7c1.1,4,1.8,8.9,1.7,14.1c0,0-17.1,23.5-19.7,26.9c-2.7,3.4,1.5,7.6,10.2,8c8.7,0.4,14.8,2.3,16.7,12.1l6.8,1.9l0,9.9
	c0,0,1.9,6.1,12.9,2.3l7.6,7.6l11,6.8l0.5,0l6.7-12.4c0,0,5.7-8.5,0-19.9c-5.7-11.4,6.3-15.9,6.3-15.9s6.8,3.4,12.5-4
	c0,0,5.7-1.1,7.4,7.4C927.3,337.6,933.6,344.5,939.3,329.7z"/>
<path class="st8" d="M819.2,189.6c0,0-5.9-7.4-6.2-8.8c-0.3-1.3,0.9-13.5-9.2-19.4c-3.5,1.3-7.6,3.5-7.3,6.5c0,0-27.3,0.5-30.7-17.7
	c0,0-2.8-6.3-7.4-1.7c-4.5,4.5-9.7,5.7-9.7,5.7s1.1,6.8-13.6,5.7l-4.6,6.3c0,0-6.7,7.3-7.8-3.5c-0.1-0.5-0.1-1.1-0.1-1.6
	c-0.6-13.1-12.5-18.2-17.1-5.1c0,0,1.7,4,6.2,6.3c0,0,0.6,4-5.7,8c-6.3,4-10.2,7.4-10.2,7.4l-5.1,0l0,3.4c0,0-7.4,8.5-13.6-2.3
	l-8.5,4.5c0,0-13.6-6.8-24.4-4.6c0,0,11.9,12,11.9,21.1c0,9.1,20.8,5.7,20.8,5.7s19.3-6.8,17.4,11.4c0,0,5.7,3,4.1,21.6
	c0,0-1.5,4.9,3.8,8.3c0,0,5.7,17.1,5.7,17.6l12.8,15.8c0,0,8.7-8.7,18.2-5.7l0.4-2.3c0,0,0.4-16.7,11.8-6.4c0,0,3,7.6,17.4-7.2
	c14.4-14.8,14.8-8.7,14.8-8.7l14.4-5.3l1.3-13.1c0,0,6.8-13.8,7.4-18.3c0,0,3.8-13.7,7.6-14.8C818,197.2,827,194.4,819.2,189.6z"/>
<path class="st1" d="M735.2,333.4c0,0,15.2,4.2,8.7-28.4l-0.4-1.5l-7.2-0.8c0,0-0.8-4.5,0.4-8.3c1.1-3.8-4.5-4.2-8.3-4.2
	c-3.8,0-7.9-10.6-7.9-10.6"/>
<path class="st8" d="M894.7,382.7l-0.2-0.2l-11.5-6.8l-7.6-7.6c-11,3.8-12.9-2.3-12.9-2.3l0-9.9l-6.8-1.9c-1.9-9.9-8-11.8-16.7-12.1
	c-4.4-0.2-7.6-1.3-9.4-2.9l-0.1-0.2c0.4,9.9-14.8,8.7-14.8,8.7c-3,8-11.4,8.7-11.4,8.7c-14.8-0.4-11.8,17.8-11.8,17.8l-4.5-0.4
	l-5.3,2.6l-9.9,0l-3.4,4.5c11,7.6,6.8,16.3,6.8,16.3l0,0.1c1.3,0,2.6,0.1,4.1,0.3c0,0,22.7,8,29.6,12l4.6-2.8
	c0,0,10.8-19.3,24.4,0.6c0,0,10.8,15.4,17.6,14.8c6.8-0.6,8-2.8,11.4,1.1c3.4,4,2.9-5.7,2.9-5.7l5.7,1.1L894.7,382.7z"/>
<path class="st8" d="M735.9,410c7.2,14,15.1,11.8,15.1,11.8l0.8-0.1c0.9-2.2,2.7-4.8,6-8c0,0-7.7-17.1,17.3-16.1
	c3.4-10.4-6.7-16.7-6.7-16.7c-6.8,2.6-7.2-7.6-7.2-7.6l-1.5-3l-1.5-5.3c1.9-20.8-20.1-29.2-20.1-29.2s-15.9-20.1-24.2-15.6
	c-8.3,4.5-11.8,7.2-6.8,21.2c4.9,14,1.9,15.5-6.9,30.7c-8.7,15.2,5.7,28.8,7.2,30.7C709,404.6,728.7,395.9,735.9,410z"/>
<path class="st8" d="M590,595.8c0,0,0.3-0.2,0.7-0.5c2.3-1.6,9.3-7.3,7.1-15.2c-2.6-9.4,11-11,18.4-7.9c0,0,6.3-1.6,3.7-4.7
	l2.6-14.7l6.3-15.2c0,0,5.3-7.9-8.4-15.2l4.2-4.2c0,0,7.9-5.2-4.2-9.4c0,0-4.7-4.7,1.1-6.8l3.2-7.3l7.3-5.2L630,480l-8.9-12.1
	c0,0-5.2-25.7-11,4.2c0,0-7.9,5.8-12.1,5.8l-7.9-7.3l-1.6-5.8c0,0-11-18.9-15.7,0.5c0,0-4.7,8.4-10.5,8.4l-8.9,1
	c0,0-2.1,2.6-2.1,8.9c0,6.3-2.7,29.9-13.7,29.4c-11-0.5-12.6,3.1-12.6,3.1s3.1,1.6,1.6,8.9c0,0,6.8-0.5,4.2,11.5
	c-2.6,12.1,0,27.8,0,27.8S531.3,601,547,578c15.8-23.1,16.8,17.3,16.8,17.3s1,18.4,10.5,3.7c9.5-14.7,22.6,1.6,22.6,1.6
	s2.6,8.4,10,1.1"/>
<path class="st1" d="M455.2,559c0,0,25.2,23.1,34.1,9.5l2.1-4.7c0,0-3.7-27.3,18.9-24.1c0,0,5.3-9.4,8.4-7.3
	c3.1,2.1,6.3-4.7,7.9-7.3"/>
<path class="st8" d="M612.5,622.7c4-10.8,5.1-8.5-1.7-15.4c-1.6-1.6-2.6-3.6-3.2-5.8h-0.8c-7.4,7.3-10-1.1-10-1.1
	s-13.1-16.3-22.6-1.6c-9.5,14.7-10.5-3.7-10.5-3.7s-1-40.4-16.8-17.3c-15.8,23.1-16.2-13.7-16.2-13.7s-2.6-15.7,0-27.8
	c2.6-12.1-3.9-11.7-3.9-11.7l-0.3,0.1c-1.6,2.6-4.7,9.4-7.9,7.3c-3.1-2.1-8.4,7.3-8.4,7.3c-22.6-3.2-18.9,24.1-18.9,24.1l-2.1,4.7
	c-8.9,13.6-34.1-9.5-34.1-9.5l-0.9,3.8c0,0-10.3,2.4-6.4,23.9c0,0-4,12.7-15.9,17.5c0,0-6.4,6.4-6.4,21.5c0,0-13.5,13.5-22.3,4.8
	c-8.7-8.8-3.2-19.1,2.4-15.1c5.6,4,12.7-3.2,1.6-11.1l-25.4-5.6l-5.6-4l-1.6-3.2c0,0,0-50.9-21.4-35.8l-4.8-2.4c0,0-9.5-7.2-5.6,9.5
	l-3.2,2.4l-4-0.8c0,0-17.5,1.6-16.7,23c0,0-3.2,8.7-8,11.1c0,0,8.7,14.3,0.8,22.3c0,0-12.7,19.9-4,42.1c0,0-0.8,4.8-8.8,6.4
	c-6.5,1.3-9.8,3.4-10.8,4.1c-0.2-0.2-0.3-0.3-0.5-0.5l0,0.2c0.2,0.2,0.4,0.4,0.6,0.6c11.4,12,13.6,9.7,13.6,9.7l1.7,5.1l0.6,7.4
	c0,0,2.3,9.7,10.8-4.5c8.5-14.2,9.7-6.2,12.5-1.1l12.5-10.2l3.4,7.4l4,7.4l0,11.4l5.1-0.6l5.7,8.5l0,6.8l6.2,1.7
	c0,0,15.9,10.2,10.2,23.9c0,0,14.2-3.4,10.8,16.5l10.8,8.5l0.6,5.1l13.1,2.9l-1.1,13.6l2.8,2.8l7.4-6.2c0,0,4.5,10.8-2.9,16.5
	c-7.4,5.7-9.7,9.1,0,11.9c0,0,20.5,0,17.6,15.9c0,0-18.6,4.3,9,12.8c1,2,7.8,14.3,19.2,4.5c0,0,18.5,9.7,21.2-8.8
	c0,0,31.8-18.5,35.3-16.7c0,0,5.3,20.3,12.3,6.2c0,0,8.1-4.7,15-4.1c6.8,0.6,8-22.2,8-22.2s5.7-3.4,0.6-7.4c0,0-2.8-12.5-5.1-18.8
	c-2.3-6.3-9.1-10.8-9.1-10.8s-6.8-62,9.1-47.7c0,0,13.1-1.1,12.5-14.2c0,0,11.4-18.2,20.5-24.4l3.4-4.5l5.7-20.5L579.5,646
	c0,0,9.1-22.7,20.5-15.9C600,630.1,608.5,633.5,612.5,622.7z"/>
<path class="st1" d="M629.4,529.8c0,0,41.5-14.6,44.6-5.7c0,0,5.2,2.6,4.7,13.6c-0.5,11,12.6-1,12.6-1s7.3-6.3,12.1,3.7
	c4.7,10,30.4,15.2,24.7-1.5c0,0-4.2-8.4,0.5-14.7c4.7-6.3-0.5-8.4-0.5-8.4"/>
<path class="st1" d="M728.4,634.8c0,0,6.3-7.9,10-9.4c3.7-1.6,5.3-13.6-0.5-19.9c-5.8-6.3-10.5-15.7-10.5-15.7s-1.6-14.2-0.5-24.1
	c1.1-10-4.7-16.3-4.7-16.3"/>
<path class="st8" d="M738.1,605c-5.8-6.3-10.5-15.7-10.5-15.7s-1.6-14.2-0.5-24.1c1.1-10-4.2-15.8-4.2-15.8
	c-6.6,1.1-16.5-3.4-19.3-9.4c-4.7-10-12.1-3.7-12.1-3.7s-13.1,12.1-12.6,1c0.5-11-4.7-13.6-4.7-13.6c-3.1-8.9-45.1,5.9-45.1,5.9
	c2.2,4.4,0,7.7,0,7.7l-6.3,15.2l-2.6,14.7c2.6,3.2-3.7,4.7-3.7,4.7c-7.3-3.2-21-1.6-18.4,7.9c2.2,7.9-7.1,15.2-7.1,15.2
	c3.8,2.3,6.1,5.2,6.1,5.2s2.6,8.4,10,1.1l0.8,0c-1.8-7.3,1.5-15.8,8.4-13.2c9.1,3.4,21-1.1,26.7-3.4c5.7-2.3,35.1-4.6,13.6,8.5
	c-17.6,10.8,5.7,24.5,5.7,24.5s21,11.4,3.4,22.7c0,0-10.2,0.6-1.1,9.1c9.1,8.5,23.9,20.5,32.4,9.1l14.8-2.3c0,0,2-27,16.9-21.6
	l0.1-0.4c0,0,6.3-7.9,10-9.4C742.3,623.4,743.9,611.3,738.1,605z"/>
<path class="st1" d="M630.5,490.4l20.5-5.2c0,0,20.4,18.9,24.1,18.9c3.7,0,8.9-5.8,8.9-5.8s8.9-3.1,13.1-0.5
	c4.2,2.6,12.6-2.6,13.6,6.3c1,8.9,13.3,19.8,35.2,4"/>
<path class="st8" d="M825.9,621.1c0,0-10.8-10.8-17.1,5.1l-11.9-4l-0.6-1.7l-1.1-4.5l-6.8-9.7c0,0-6.3-1.7-11.4,2.3
	c0,0-16.5-29,5.1-32.4l8.5-1.7c0,0,8.6-27.3,15.9-6.8l5.7,1.7c0,0,40.3,39.3,13.7-13.6c0,0-5.7-19.9-27.3-15.9l-5.7-0.6
	c0,0-4.5-3.4-6.8,1.1c0,0-7.4,4.5-10.8-6.8c0,0-1.1-18.2-6.2-19.3l-1.1-3.4l0-4.5l-12.5,2.3l-9.1,0l-0.1-0.5l-0.3,0.8
	c-6.7,4.9-12.6,7.2-17.4,7.9c0,0,4.8,1.8,0,8.1c-4.7,6.3-0.5,14.7-0.5,14.7c2.4,6.9-5.1,10.5-5.1,10.5s5.3,5.9,4.2,15.8
	c-1.1,10,0.5,24.1,0.5,24.1s4.7,9.4,10.5,15.7c5.8,6.3,4.2,18.4,0.5,19.9c-3.4,1.4-8.9,8.1-9.8,9.3c3,1.2,6.5,3.6,10.6,7.8
	c0,0,10.2-6.2,4.5,9.1c0,0-4.6,10.2,6.3,5.7c0,0,4-1.1-2.3,7.4c0,0-2.3,8.5,11.9,1.1c14.2-7.4,23.9,6.3,23.9,6.3s2.8,0,4.6-5.1
	l8.5,0c0,0,5.1-8.5,14.8-5.1l12.5-6.2C824.1,655.8,853.7,668.4,825.9,621.1z"/>
<path class="st8" d="M630.8,490.4l20.5-5.2c0,0,20.4,18.9,24.1,18.9c3.7,0,8.9-5.8,8.9-5.8s8.9-3.1,13.1-0.5
	c4.2,2.6,12.6-2.6,13.6,6.3c0.7,6.1,6.7,13.2,17.5,11.9c0,0,5,2.4,0.3,8.7c-4.7,6.3-0.5,14.7-0.5,14.7c2.4,6.9-5.1,9.9-5.1,9.9
	c-6.6,1.1-16.5-3.4-19.3-9.4c-4.7-10-12.1-3.7-12.1-3.7s-13.1,12.1-12.6,1c0.5-11-4.7-13.6-4.7-13.6c-3.1-8.9-45.5,6-45.5,6
	c-1.2-2.2-3.7-4.7-8.2-7.2l4.2-4.2c0,0,7.9-5.2-4.2-9.4c0,0-4.7-4.7,1.1-6.8l3.2-7.3L630.8,490.4z"/>
<path class="st1" d="M644.2,438c0,0,13.1,0.5,22.5,11.6c0,0,6.3,3.2,10.5-2.6c0,0,7.3,11.5,12.1,0c4.7-11.5,18.9-7.9,18.9,5.3
	l2.6,2.1l4.7-1.6l6.3,2.1l4.7-3.1l5.2,2.1l11,15.8"/>
<path class="st8" d="M746.2,508.5h-0.4l-0.6-2.3l0-5.1l-1.7-4l-5.1-3.4l-4-3.4l-1.7-6.3l0-6.8c0,0,5.8-2.6,10.8-7.4l-0.6-0.4
	l-11-15.8l-5.2-2.1l-4.7,3.1l-6.3-2.1l-4.7,1.6l-2.6-2.1c0-13.1-14.1-16.8-18.9-5.3c-4.7,11.5-12.1,0-12.1,0
	c-4.2,5.8-10.5,2.6-10.5,2.6c-9.4-11-22.5-11.6-22.5-11.6s13.5,22,2.6,25.7l-13.1,8.9c0,0,2.1,13.6-1.6,16.8l19.2-4.2
	c0,0,20.4,18.9,24.1,18.9c3.7,0,8.9-5.8,8.9-5.8s8.9-3.1,13.1-0.5c4.2,2.6,12.6-2.6,13.6,6.3c0.7,6.1,6.7,13.2,17.5,11.9
	C728.8,515.8,739.4,513.5,746.2,508.5L746.2,508.5z"/>
<path class="st8" d="M722,454.7l4.7-3.1l5.2,2.1l11.6,16.2l0.8,0c3.5-3.5,6.5-8.1,6.7-13.6l3.4-1.7l10.8,0l0.6-2.8
	c0,0,0-8.5,3.4-14.2l-2.8-3.4l-13.6-4.6c0,0-3.1-2.6-0.9-7.9c-0.1,0-0.1,0-0.1,0l-0.8,0.1c0,0-8,2.3-15.1-11.8
	c-7.2-14-26.9-5.3-28.4-7.2c-1-1.3-8.2-8.2-9.7-17.3c-0.3,1.3-2.3,2.2-7.9-1.5c-8.9-5.8-11.5-2.1-11.5-2.1s7.1,9.9-4.2,10.5
	c0,0-7.3,1-12.1-10c0,0-5.2-2.1-20.5,0.5c0,0,0,15.7-12.1,10c0,0-14.7,15.2-7.9,22c0,0,14.2,7.9,15.2,12.1l7.6,10.8
	c0,0,13.1,0.5,22.5,11.6c0,0,6.3,3.2,10.5-2.6c0,0,7.3,11.5,12.1,0c4.7-11.5,18.9-7.9,18.9,5.3l2.6,2.1l4.7-1.6L722,454.7z"/>
<path class="st8" d="M678.3,381.6c-4.3-7.2-13.1-15.4-13.1-15.4c-0.5-16.3-25.2-14.2-38.3-15.8c-13.1-1.6-21.5-14.2-21.5-14.2
	s-13.6-14.2-16.8-19.4c-2.8-4.6-12-7.2-14.2-7.8l3.4-3.1c3.8-6.8,9.9-9.5,9.9-9.5l4.6-3.8c2.4-9.8,8-15.1,10.3-17l12.8,19.7
	c0,0,10.6,4.6,18.6,1.2c8-3.4,11.4-7.9,13.6,3c0,0,6.4,9.1,12.5,9.1c6.1,0,2.3,11.4,2.3,11.4s8.3,9.5,8.7,17.1
	c0.4,7.6,10.6,9.5,12.9,9.5c2.3,0,3.4,11.8,14,10.2l2.7,3l0.4,10.7c-0.3,0.5-0.5,0.9-0.8,1.4c-2.6,4.4-2.5,13.5-2.5,13.5
	c-0.3,1.3-2.3,2.2-7.9-1.5C680.9,378.4,678.3,381.6,678.3,381.6z"/>
<path class="st8" d="M531.7,394.5c6.8,8.9,2.1,13.1-3.2,26.8c-5.3,13.6-1.6,12.1,13.1,6.8c14.7-5.2,15.7,8.9,15.7,8.9
	c4.7,3.1,11-5.8,18.9-14.7c7.9-8.9,26.2-16.2,33.6-5.7c7.3,10.5,10.4-3.1,10.4-3.1c-3.6-7.3,9-20.4,9-20.4c12.1,5.8,12.1-10,12.1-10
	c15.2-2.6,20.5-0.5,20.5-0.5c4.7,11,12.1,10,12.1,10c11.3-0.6,4.2-10.8,4.2-10.8c-4.3-7.2-13.1-15.4-13.1-15.4
	c-0.5-16.3-25.2-14.2-38.3-15.8c-13.1-1.6-21.5-14.2-21.5-14.2s-13.6-14.2-16.8-19.4c-2.8-4.6-13.7-7.6-13.7-7.6
	c-3,3.3-7.1,8.1-7.6,11.8c-0.8,5.7-5,23.1-5,23.1s-2.7,18.2-11,20.5c-8.3,2.3-22.4,5.7-28.1,8.3C523,373.2,524.9,385.6,531.7,394.5z
	"/>
<path class="st1" d="M525,516.1c0,0-15.7-10-5.2-16.8c0,0,2.6-5.2,2.6-10.5c0-5.2,5.8-5.2,9.4-1.6c3.7,3.7,11-1,6.3-10.5
	c-4.7-9.4-7.9-16.3,0.5-22.6c8.4-6.3,12.6-13.1,12.6-13.1s6.3,3.7,6.3-4.2"/>
<path class="st8" d="M474.6,390.6c-3.8-13.6,11.4-18.9,11.4-18.9l4.2-0.8l11-8.7c13.6-6.1,11.7,1.9,11.7,1.9l-0.8,9.1l0,2.3l1.9,1.5
	l8.7-3.8c0,0,1.9,12.4,8.7,21.4c6.8,8.9,2.1,13.1-3.2,26.8c-5.3,13.6-1.6,12.1,13.1,6.8c14.7-5.2,15.7,9.2,15.7,9.2
	c0,7.9-6.3,3.9-6.3,3.9s-4.2,6.8-12.6,13.1c-8.4,6.3-5.3,13.1-0.5,22.6c4.7,9.4-2.6,14.2-6.3,10.5c-3.7-3.7-9.4-3.7-9.4,1.6
	c0,5.3-2.6,10.5-2.6,10.5c-10.5,6.8,5.2,16.8,5.2,16.8s3.2,1.3,1.6,8.7l-0.1,0.2c-1.6,2.6-4.7,9.4-7.9,7.3c-3.1-2.1-8.4,7.3-8.4,7.3
	C487.3,536.7,491,564,491,564l-2.1,4.7c-8.9,13.6-33.8-9.1-33.8-9.1l1.2-3.6l-3.2-8.7l-5.6-13.5l-7.2-5.6
	c-4-15.9-2.4-17.5,15.9-15.9c18.3,1.6,11.1-13.5,11.1-13.5c2.4-5.6,4.8-16.7,4.8-16.7l-5.6-11.1l-2.4-12.7
	c-6.4-11.1,5.6-20.7,5.6-20.7c10.3-7.1,2.4-27.8,2.4-27.8l4.8-14.3C477.2,393,474.6,390.6,474.6,390.6z"/>
<path class="st8" d="M644.5,437.6c0,0,13.5,22,2.6,25.7l-13.1,8.9c0,0,2.1,13.6-1.6,16.8l-2.3-9.3l-8.9-12.1c0,0-5.2-25.7-11,4.2
	c0,0-7.9,5.8-12.1,5.8l-7.9-7.3l-1.6-5.8c0,0-11-18.9-15.7,0.5c0,0-4.7,8.4-10.5,8.4l-8.9,1c0,0-2.1,2.6-2.1,8.9
	c0,6.3-2.7,29.9-13.7,29.4c-11-0.5-13,3.4-13,3.4s-15.7-10-5.2-16.8c0,0,2.6-5.2,2.6-10.5c0-5.2,5.8-5.2,9.4-1.6
	c3.7,3.7,11-1,6.3-10.5c-4.7-9.4-7.9-16.3,0.5-22.6c8.4-6.3,12.6-13.1,12.6-13.1s6.3,3.9,6.3-3.9l0,0c4.7,3.1,11.4-6.3,19.3-15.2
	c7.9-8.9,26.2-16.2,33.6-5.7c7.3,10.5,10.2-2,10.2-2s15.5,8.3,16.5,12.5L644.5,437.6z"/>
<path class="st8" d="M797.8,244.5l-14.4,5.3c0,0-1.1-3.3-7.4,2.1c-6.3,5.4-19.6,21-24.8,13.8c0,0-7.6-8.6-11,1.1l-1,8.1
	c0,0-6.7-4.8-18.3,5.2c0,0,2.8,8.9,7.6,10.2c0,0,10.6-0.9,8.1,5.4c0,0-0.8,4.8-0.2,6.7l7.2,1.2c0,0,7.2,29.4-6.6,30l1.3,2.2
	c0,0,22.7,9.7,20.1,29.2c0,0,1.5,5.9,3,8.3c0,0,0.7,11,7.2,7.1l3.4-4l9.9,0l5-3l5.2,0.8c0,0-3.5-17.8,10.9-17.8
	c0,0,8.3-0.9,11.8-8.8c0,0,13.8,1.4,14.8-8.1c0,0-3.8-3.6,1.1-7.5l17.8-24.4c0,0,1.7-17.1-10.6-32.2c0,0-0.6-3.6-8.6-7.1
	c0,0-6.3-1.7-7.9,4.9c0,0-3.8,4.4-8.6,0.8c-4.8-3.6-17.9-10.6-15.4-15.9L797.8,244.5z"/>
<path class="st8" d="M736.8,333.9c13.8-0.6,6.6-30,6.6-30l-7.2-1.2c-0.6-1.9,0.2-6.7,0.2-6.7c2.5-6.3-8.1-5.4-8.1-5.4
	c-4.7-1.3-7.7-10.4-7.7-10.4l-12.7-15.6c0-0.5-5.7-17.6-5.7-17.6c-5.3-3.4-3.8-8.3-3.8-8.3c1.5-18.6-4.1-21.6-4.1-21.6
	c1.9-18.2-17.4-11.4-17.4-11.4s-20.9,3.4-20.8-5.7c0-9.1-11.9-21.1-11.9-21.1l0-0.2c-1-1.1-7.9-8.4-15.8-8.9
	c-5.7-0.4-11.6-4.3-12.1-9l-0.5,0.1l-0.7-0.1c0,0-19.3-23.1-28-11.8l0.4,16.7c0,0,3.8-0.8,6.4-2.3c2.7-1.5,6.8-3.4,9.1,8
	c2.3,11.4,9.8,25.8-3.8,19.3c0,0-4.5-14-14.4-6.8c-9.9,7.2-3,12.1-3,12.1s3.8,8.3,3,16.7c-0.8,8.3,23.5,12.9,24.3,6.1
	c0,0,10.2-3.8,3,8c0,0-1.5,4.5-19.3,4.9c-17.8,0.4-17.1,15.9-10.3,23.1c0,0,9.9-2.3,14,2.7l3,2.3l4.9,1.1c0,0,23.5,9.1-0.8,14.4
	c0,0-0.7,0.1-1.4,0.7l13.1,19.9c0,0,10.6,4.6,18.6,1.2c8-3.4,11.4-7.9,13.6,3c0,0,6.4,9.1,12.5,9.1c6.1,0,2.3,11.4,2.3,11.4
	s8.3,9.5,8.7,17.1c0.4,7.6,10.6,9.5,12.9,9.5c2.3,0,3.4,11.8,14,10.2l2.7,3l0.3,11.2c8.7-15.2,11.1-15.9,6.2-29.9
	c-4.9-14-1.5-16.6,6.8-21.2C721.8,316.1,736.8,333.9,736.8,333.9z"/>
<path class="st8" d="M462.5,751.2c-1.3,5.3-3.3,4-3.3,4l-11.2-5.5l0-7.5c-2.6-12.1-6.2-1.1-7.9,7c-1.8,8.1-17.4,3.7-17.4,3.7
	l1.3-21.5l-5.3-0.2l-14.1,15.6c-14.1-0.9-18.9,8.3-18.9,8.3l-0.2,0.2c0.2,2,0.1,4.5-0.4,7.6l10.8,8.5l0.6,5.1l13.1,2.9l-1.1,13.6
	l2.8,2.8l7.4-6.2c0,0,4.5,10.8-2.9,16.5c-7.4,5.7-9.7,9.1,0,11.9c0,0,20.5,0,17.6,15.9c0,0-18.6,4.3,9,12.8c0.2,0.4,0.7,1.3,1.4,2.4
	l1.5-0.2c0,0,10.6-9.7,6.6-18.5c-3.9-8.8-5.7-18.3-5.7-18.3s-1.7-24,13.6-12.1c15.4,11.9,14.3-17.1,13.2-26.4
	c-1.1-9.2,1.3-14.3,1.3-14.3s4.8-4.4-0.2-12.1C469.1,739.8,463.8,745.9,462.5,751.2z"/>
<text transform="matrix(1 9.100000e-04 -9.100000e-04 1 569.6682 392.5663)" class="st10 st11 st12">成都市</text>
<text transform="matrix(1 9.100000e-04 -9.100000e-04 1 622.5041 344.0546)" class="st10 st11 st12">德阳市</text>
<text transform="matrix(1 9.100000e-04 -9.100000e-04 1 831.5865 249.3767)" class="st10 st11 st12">巴中市</text>
<text transform="matrix(1 9.100000e-04 -9.100000e-04 1 877.8988 308.486)" class="st10 st11 st12">达州市</text>
<text transform="matrix(1 9.100000e-04 -9.100000e-04 1 740.4545 231.1105)" class="st10 st11 st12">广元市</text>
<text transform="matrix(1 9.100000e-04 -9.100000e-04 1 822.3055 389.0149)" class="st10 st11 st12">广安市</text>
<text transform="matrix(1 9.100000e-04 -9.100000e-04 1 717.8043 385.2523)" class="st10 st11 st12">遂宁市</text>
<text transform="matrix(1 9.100000e-04 -9.100000e-04 1 680.0757 432.5599)" class="st10 st11 st12">资阳市</text>
<text transform="matrix(1 9.100000e-04 -9.100000e-04 1 676.7745 484.2338)" class="st10 st11 st12">内江市</text>
<text transform="matrix(1 9.100000e-04 -9.100000e-04 1 744.0379 569.8251)" class="st10 st11 st12">泸州市</text>
<text transform="matrix(1 9.100000e-04 -9.100000e-04 1 651.3473 569.4529)" class="st10 st11 st12">宜宾市</text>
<text transform="matrix(1 9.100000e-04 -9.100000e-04 1 681.2562 527.0048)" class="st10 st11 st12">自贡市</text>
<text transform="matrix(1 9.100000e-04 -9.100000e-04 1 560.4894 542.6137)" class="st10 st11 st12">乐山市</text>
<text transform="matrix(1 9.100000e-04 -9.100000e-04 1 588.7414 451.7339)" class="st10 st11 st12">眉山市</text>
<text transform="matrix(1 9.100000e-04 -9.100000e-04 1 402.7299 670.9366)" class="st10 st11 st12">凉  山  彝  族  自  治  州</text>
<text transform="matrix(1 9.100000e-04 -9.100000e-04 1 364.0453 235.668)" class="st10 st11 st12">阿  坝  藏  族  羌  族  自  治  州</text>
<text transform="matrix(1 9.100000e-04 -9.100000e-04 1 482.8901 478.5835)" class="st10 st11 st12">雅安市</text>
<text transform="matrix(1 9.100000e-04 -9.100000e-04 1 186.9602 258.7602)"><tspan x="0" y="0" class="st10 st11 st12">甘</tspan><tspan x="0" y="16.8" class="st10 st11 st12">   </tspan><tspan x="0" y="33.6" class="st10 st11 st12">    孜</tspan><tspan x="0" y="67.2" class="st10 st11 st12">         藏</tspan><tspan x="0" y="84" class="st10 st11 st12">                </tspan><tspan x="0" y="100.8" class="st10 st11 st12">               族</tspan><tspan x="0" y="117.6" class="st10 st11 st12">      </tspan><tspan x="0" y="134.4" class="st10 st11 st12">                    自</tspan><tspan x="0" y="168" class="st10 st11 st12">                           治</tspan><tspan x="0" y="201.6" class="st10 st11 st12">                                  州</tspan></text>
<text transform="matrix(1 9.100000e-04 -9.100000e-04 1 778.314 323.5245)" class="st10 st11 st12">南充市</text>
<text transform="matrix(1 9.100000e-04 -9.100000e-04 1 645.4532 265.4771)" class="st10 st11 st12">绵阳市</text>
<text transform="matrix(1 9.100000e-04 -9.100000e-04 1 413.945 788.3986)" class="st10 st11 st12">攀枝花市</text>
<circle class="st4" cx="350.2" cy="231" r="4.7"/>
<circle class="st4" cx="190.9" cy="233.2" r="4.7"/>
<circle class="st4" cx="502.6" cy="489.3" r="4.7"/>
<circle class="st4" cx="555" cy="389.6" r="4.7"/>
<circle class="st4" cx="670.4" cy="427.1" r="4.7"/>
<circle class="st4" cx="579.9" cy="447.2" r="4.7"/>
<circle class="st4" cx="668.2" cy="478.7" r="4.7"/>
<circle class="st4" cx="695.2" cy="506.6" r="4.7"/>
<circle class="st4" cx="551.1" cy="538.5" r="4.7"/>
<circle class="st4" cx="642.3" cy="565.2" r="4.7"/>
<circle class="st4" cx="391.5" cy="666.3" r="4.7"/>
<circle class="st4" cx="436.9" cy="766.3" r="4.7"/>
<circle class="st4" cx="737.3" cy="563.4" r="4.7"/>
<circle class="st4" cx="614.6" cy="336.9" r="4.7"/>
<circle class="st4" cx="708.7" cy="379.7" r="4.7"/>
<circle class="st4" cx="634.7" cy="260.2" r="4.7"/>
<circle class="st4" cx="730.2" cy="226.4" r="4.7"/>
<circle class="st4" cx="822.2" cy="244.2" r="4.7"/>
<circle class="st4" cx="867.6" cy="303.3" r="4.7"/>
<circle class="st4" cx="768.9" cy="319.7" r="4.7"/>
<circle class="st4" cx="813.5" cy="382.4" r="4.7"/>
<rect x="438.6" y="188" class="st6" width="21.2" height="21.2"/>
<text transform="matrix(1 0 0 1 441.5537 203.7827)" class="st10 st11 st12">22</text>
<g>
	<rect x="646.2" y="223.3" class="st6" width="21.2" height="21.2"/>
	<text transform="matrix(1 0 0 1 649.0908 239.1255)" class="st10 st11 st12">22</text>
</g>
<g>
	<rect x="628.6" y="304.4" class="st6" width="21.2" height="21.2"/>
	<text transform="matrix(1 0 0 1 631.5352 320.1841)" class="st10 st11 st12">22</text>
</g>
<g>
	<rect x="722.4" y="346.6" class="st6" width="21.2" height="21.2"/>
	<text transform="matrix(1 0 0 1 725.3013 362.3833)" class="st10 st11 st12">22</text>
</g>
<g>
	<rect x="577.9" y="351.8" class="st6" width="21.2" height="21.2"/>
	<text transform="matrix(1 0 0 1 580.8027 367.5708)" class="st10 st11 st12">22</text>
</g>
<g>
	<rect x="674.9" y="394" class="st6" width="21.2" height="21.2"/>
	<text transform="matrix(1 0 0 1 677.8633 409.7891)" class="st10 st11 st12">22</text>
</g>
<g>
	<rect x="480.1" y="436.5" class="st6" width="21.2" height="21.2"/>
	<text transform="matrix(1 0 0 1 483.0254 452.2549)" class="st10 st11 st12">22</text>
</g>
<g>
	<rect x="588.5" y="415.9" class="st6" width="21.2" height="21.2"/>
	<text transform="matrix(1 0 0 1 591.4067 431.7163)" class="st10 st11 st12">22</text>
</g>
<g>
	<rect x="686.2" y="447.1" class="st6" width="21.2" height="21.2"/>
	<text transform="matrix(1 0 0 1 689.0928 462.8594)" class="st10 st11 st12">22</text>
</g>
<g>
	<rect x="569.3" y="500.7" class="st6" width="21.2" height="21.2"/>
	<text transform="matrix(1 0 0 1 572.1987 516.4976)" class="st10 st11 st12">22</text>
</g>
<g>
	<rect x="642.4" y="496" class="st6" width="21.2" height="21.2"/>
	<text transform="matrix(1 0 0 1 645.3291 511.8306)" class="st10 st11 st12">22</text>
</g>
<g>
	<rect x="676.7" y="578.6" class="st6" width="21.2" height="21.2"/>
	<text transform="matrix(1 0 0 1 679.6328 594.4351)" class="st10 st11 st12">22</text>
</g>
<g>
	<rect x="455.6" y="624.6" class="st6" width="21.2" height="21.2"/>
	<text transform="matrix(1 0 0 1 458.5459 640.3486)" class="st10 st11 st12">22</text>
</g>
<g>
	<rect x="428" y="728.4" class="st6" width="21.2" height="21.2"/>
	<text transform="matrix(1 0 0 1 430.9492 744.1958)" class="st10 st11 st12">22</text>
</g>
<g>
	<rect x="745.4" y="575.7" class="st6" width="21.2" height="21.2"/>
	<text transform="matrix(1 0 0 1 748.313 591.4551)" class="st10 st11 st12">22</text>
</g>
<g>
	<rect x="744" y="187.2" class="st6" width="21.2" height="21.2"/>
	<g>
		<text transform="matrix(1 0 0 1 746.9561 203.0161)" class="st10 st11 st12">22</text>
	</g>
</g>
<g>
	<rect x="780.6" y="282.5" class="st6" width="21.2" height="21.2"/>
	<text transform="matrix(1 0 0 1 783.519 298.3008)" class="st10 st11 st12">22</text>
</g>
<g>
	<rect x="824.4" y="349.4" class="st6" width="21.2" height="21.2"/>
	<text transform="matrix(1 0 0 1 827.3027 365.2217)" class="st10 st11 st12">22</text>
</g>
<g>
	<rect x="835.3" y="205.2" class="st6" width="21.2" height="21.2"/>
	<text transform="matrix(1 0 0 1 838.2598 221.0273)" class="st10 st11 st12">22</text>
</g>
<g>
	<rect x="884.7" y="268.9" class="st6" width="21.2" height="21.2"/>
	<text transform="matrix(1 0 0 1 887.6064 284.7412)" class="st10 st11 st12">22</text>
</g>
<rect x="258.5" y="329.9" class="st6" width="21.2" height="21.2"/>
<text transform="matrix(1 0 0 1 261.4653 345.6792)" class="st10 st11 st12">22</text>
</svg>
