<?xml version="1.0" encoding="utf-8"?>
<!-- Generator: Adobe Illustrator 21.0.0, SVG Export Plug-In . SVG Version: 6.00 Build 0)  -->
<svg version="1.1" id="图层_1" xmlns="http://www.w3.org/2000/svg" xmlns:xlink="http://www.w3.org/1999/xlink" x="0px" y="0px"
	 width="100%" height="100%" viewBox="-200 1  1000 1080" style="enable-background:new 0 0 1920 1080;" xml:space="preserve">
<style type="text/css">
	._x005B_Default_x005D_{fill:#FFFFFF;stroke:#000000;}
	.Tissue_x0020_Paper_x0020_Collage{opacity:0.8;fill:#E6762F;}
	.Transmogrifier{fill:none;stroke:#007AC6;stroke-width:7;stroke-linecap:round;stroke-miterlimit:50;}
	.Parchment{fill:#FBDE00;fill-opacity:0.43;}
	.Spyrographic{fill:#FFFFFF;stroke:#BBD762;stroke-width:2;}
	.Maypole{fill:none;stroke:#BBD762;}
	.Ice_x0020_Type{fill:#00AFEC;stroke:#9FD9F6;stroke-width:3;}
	.Dropped_x0020_Sherbet_x0020_Type{fill:url(#SVGID_1_);fill-opacity:0.5;stroke:#1F3134;stroke-width:0.5;}
	.Neon_x0020_Type{fill:none;stroke:#E30481;stroke-width:10;stroke-linecap:round;stroke-linejoin:round;}
	.Hair_x0020_Ball{fill:#5A381D;}
	.st0{fill:#0F81A1;stroke:#FFFFFF;stroke-width:1.1372;stroke-miterlimit:10;}
	.st1{fill:#E6E6E5;}
	.st2{fill:none;stroke:#FFFFFF;stroke-miterlimit:10;}
	.st3{fill:#0F81A1;stroke:#FFFFFF;stroke-miterlimit:10;}
	.st4{fill:none;stroke:#59BDED;stroke-width:0.4131;}
	.st5{fill:#0F81A1;stroke:#FFFFFF;stroke-width:1.8198;stroke-miterlimit:10;}
	.st6{fill:#FFFFFF;}
	.st7{font-family:'SourceHanSansCN-Normal-GBpc-EUC-H';}
	.st8{font-size:14px;}
	.st9{fill:#C33E3D;}
	.st10{fill:none;stroke:#FFFFFF;stroke-width:0.9099;stroke-miterlimit:10;}
	.st11{fill:#4DB676;}
	.st12{fill:#D8885B;}
	.st13{fill:#E6E6E5;stroke:#FFFFFF;stroke-miterlimit:10;}
	.st14{fill:none;stroke:#FFFFFF;stroke-width:1.1372;stroke-miterlimit:10;}
	.st15{opacity:0.3;fill:#C6171E;stroke:#FFFFFF;stroke-miterlimit:10;}
	.st16{opacity:0.3;fill:#FFFFFF;stroke:#FFFFFF;stroke-width:0.9099;stroke-miterlimit:10;}
</style>
<linearGradient id="SVGID_1_" gradientUnits="userSpaceOnUse" x1="-2399.9651" y1="936" x2="-2398.9651" y2="936">
	<stop  offset="0.191" style="stop-color:#00AFEC"/>
	<stop  offset="0.4494" style="stop-color:#DEAACC"/>
	<stop  offset="0.5562" style="stop-color:#FEED00"/>
	<stop  offset="0.573" style="stop-color:#EB613B"/>
	<stop  offset="0.6584" style="stop-color:#F0833F"/>
	<stop  offset="0.761" style="stop-color:#F4A342"/>
	<stop  offset="0.8556" style="stop-color:#F8B944"/>
	<stop  offset="0.9383" style="stop-color:#FAC544"/>
	<stop  offset="1" style="stop-color:#FBC944"/>
</linearGradient>
<g>
	<path class="st0" d="M89.4,118.5c0,0-18.4-49.6,0-70.3s51.1-3.3,73.2,13.6s38.1,37,38.1,37l5.1,1.5c0,0,2.1,27.4,44.3,36
		s50.8,16.6,60.9,27.7c10.1,11.1,51.9,65.1,54.5,83.3s-4.5,21.5,17.5,32.4s68.7,1.7,68.7,1.7s27.9-12,55.8,1
		c20.7,19.3,12.7,40.7,12.7,40.7s-5.4,1.1-6.2,1.5c-0.8,0.5-24.6,3.3-30.9,6.3s-6.1,1.6-12,7.2c-5.9,5.6-18.3,10.5-18.3,10.5
		s-1.4,18.5-0.4,23c1,4.5-1.3,6.9-3.8,9.9s-17.5,19.4-16.5,23.8s0,14.8-1,17.3c0,0-1.2-4.9-3.9-5.7c-2.6-0.8-8.2,1.2-11.2,7.2
		c0,0-1.5,4-4.3,6.4c-2.7,2.4-4.1,5.8-6.1,5.4s-2.2-4.5-2.3-4.6c-0.2-0.1-7.7-2.1-15,0c0,0-12.3,6.9-17.4,6.7
		c-5.2-0.3-4.4-0.2-4.7-3.1s-2.5-5.5-5.5-5.6s-5.9,2.6-11.1,1.1c-5.2-1.5-4.8-9.9-8.6-10.7c0,0-2.5-2.5-10-1.4c0,0-6.1-0.7-8.1-1.7
		c-2-1-17.5-3.8-19-4.4s-9.3-5.7-14.4-12.4s-10.8-8.3-10.3-0.1c0.4,8.2-4.4,10.9-4.4,10.9l-9.8,4.7c0,0-6.2,3.8-9.2,2.3
		c-2.9-1.5-5.8-6.4-5.8-6.4s-2-2.9-5.7-4.2c0,0-4.9-7.1-6.2-9.2c-1.3-2.2-3.9-5.8-10.6-5.1c-6.7,0.7-12.5-2.5-13.7-7.7
		c-1.3-5.2-2.9-6.4-7.4-4.7c-4.5,1.6-13.3,2.8-15.5-5.9s-0.4-11.1-0.4-11.1s10.5-15.3,8.3-26.1s-23.6-3.6-23.6-3.6
		s-1.3,11.1-18.6,12.9s-39.2-3.3-50.4-7.9s-26.1-12.3-28-25.6c0,0,0.3-4.1,0.3-7.2c0-3,0.1-26-5.5-44.1s-7-20.8-7-20.8
		s-9.4-5.8-9.5-17.1c-0.1-11.3,10.7-21.7,17.1-27.3c6.4-5.6,21.3-15.2,33.9-10.1c12.7,5.1,26.6,24.6,27.8,34.3c0,0,18.1,9.6,26.5,6
		c8.4-3.6,8.2-15.4,6.4-21.4s-16.3-65.1-16.3-65.1s-2.6-31.5-23.4-36.5c0,0-7.3,1.2-12.4,3.9S89.4,118.5,89.4,118.5z"
		isChild="true"  id="path510727"
        type="area" code="510727"
		/>
	<path class="st0" d="M189.8,366c0,0-11.6,15.6-48.4,19.2c-36.8,3.6-53.4-2.6-76.3,15.1s-17.3,61,2.6,79.1c0,0,27.2-5.3,37.2-0.9
		s9.6,0.8,20.5,11.5l12.1,9.3l20.3,4.9c0,0,24.3,9.8,33.8,19.9c0,0,11-13.7,15-10.1s7.8,4.3,9.7,4.4s11.6-1.2,14.2,2.4
		c2.7,3.5,2.5,10.9,2.5,10.9s2,10.2,5.7,12.2s14.3,11.9,13.9,13.9s-3.8,3.2-5.8,5c-2,1.8-10.1,11.7-8.5,16.7c0,0,3.4-0.4,4.8,1.1
		c1.5,1.5,3.5,5.7,3.5,5.7s3.7,4.2,7.8,6.4c4.1,2.2,5.1,5.5,6.9,4.9c1.8-0.6,4.6-4,5.6-4.5s10.2-6.5,10.2-6.5l14.5-10.9
		c0,0,2.4-1.8,1.3-6c-1.1-4.1-2.9-10-2.7-10.9c0.2-0.8-0.9-10.2,7.4-8.3c0,0,2.3,0.4,8-3.8c5.7-4.2,9.8-5.5,9.8-5.5s5.4-3.6,4.7-7.7
		s1.4-8.4,1.4-8.4s4.8-5.7,3-15.7c0,0-1.1-5.8-4.1-8.8s-10.1-5.5-11.4-9.6c-1.3-4-3.2-9.1,1-11.5c0,0,0.9-0.9,7.8,2.5
		c0,0,4.6,1.4,11.4-5.1c6.8-6.5,13.8-9.9,15.1-8.6c1.3,1.3,2,4.1,2.4,4.8c0.4,0.6,7.2,9.9,11.5,8.9c4.3-1,7.6-2.7,7.1-12.2
		s-11.6-6.6-8.4-17.8c0,0,2.9-5.2,2.8-6.9c-0.1-1.7,1.3-6.7,6.7-7.7c0,0,0.8-8.5-5.3-8.3c0,0-7.9,2.3-10.3,1.4c0,0-3.8-0.1-5.2-4.3
		s-3.6-7.5-7.3-8c-3.7-0.4-9.1-0.1-11.4-0.7c-2.3-0.6-16.3-4.1-16.3-4.1l-6.7-1.4c0,0-9-5.5-10.8-8.3s-10.2-12-12.2-9.6
		c-2,2.4-1.5,1.8-1.9,8.6c0,0-1.3,5.4-3.6,7.3c-2.4,1.8-9.2,4.4-9.2,4.4s-6.5,3.8-8.2,3.6c-1.7-0.2-3.5-0.7-6.5-4.6
		c-3-3.9-4.4-5.5-7.2-6.6c0,0-6.3-9.4-6.7-10s-3.3-5.8-11.8-4.3c0,0-7.1,0.1-9.7-3.6c-2.7-3.7-2.8-5.8-2.8-5.8s-1.9-5.6-6.6-3.2
		c0,0-6.1,2.5-10.9,0.4C191,378.5,189.1,369.6,189.8,366z"
		isChild="true"  id="path510726"
        type="area" code="510726"
		/>
	<path class="st0" d="M191.5,524.7c0,0,8.7,5.7,7.6,13.8c-1.2,8.1-7.1,12.4-20.8,18.4s-27.5,6.5-28.8,8.9l31.6,47.7l20.5,33.1
		c0,0,33.4,11.8,52.6,8.9s43.6-15.2,43.6-15.2l-1.9-4.3c0,0-8.7-6.3-8.8-10.4c0,0,2.8-6.8,16.6-0.5c0,0,9.9,2.8,14.4,1.6
		c4.4-1.1,17.7-7.5,20.1-8.8c2.4-1.3,5.6-9,2.6-13.3s-10.7-5.1-10.7-5.1s-10.7-3.1-8.7-4.9c1.9-1.7,7.6-4.7,8.6-6.6
		c0.9-1.9,1.2-2.4,0.7-3.3c-0.5-0.9-1.2-3-1.4-3.8c-0.2-0.8-0.7-3.1-2.8-3.7c-2.1-0.6-7.8-3.2-13.2-3.9s-11.8-2.1-11.7-3.5
		c0.1-1.4,0.1-1.8,1.6-3.5s1-2.8,0-3.5c-1-0.7-8.8-4.3-12.7-4.2l-0.5,0.1c0,0,1.6,7.1,2.2,9.3s1.8,5.6-0.5,7.4
		c-2.3,1.8-10.5,7.9-10.5,7.9l-11,7.6l-4.1,2.6c0,0-4.5,4.1-5.5,4.2c-1,0-2.9-2.8-4-3.3c-1-0.5-4.2-2.8-5.5-3.7s-3.9-3.2-4.5-4.3
		c-0.6-1.1-2.4-8.2-8.6-7.1c0,0-0.5-4,2.3-8.2c2.8-4.2,4.3-6.7,6-8s5.7-3.3,6-4.6c0,0,1.1-1.1-4.4-6.7c-5.5-5.5-6.6-6.4-8.6-7.4
		c-2-1-2.3-1.7-2.9-2.7s-3.2-6.7-3.6-10.2s-0.2-7.7-1.7-9.5c-1.5-1.8-2.4-3.7-8.7-3.6c-6.3,0.1-9.1-0.3-11.5-1.3
		c-2.3-1-5-5.4-8.1-3.2C199.8,516.2,191.8,522.4,191.5,524.7z"
		isChild="true"  id="path510705"
        type="area" code="510705"
		/>
	<path class="st0" d="M341.9,608.2c0,0,5.8-0.4,7-2.4s3.6-6.7,3.4-8.9c-0.2-2.2-0.5-3.1-1.6-5.4s-1.5-3.2-0.6-3.5
		c0.9-0.2,2.2-0.1,3.1-0.5s5.4-4.3,7.3-5.5s4-2.6,4.4-1.1c0.4,1.5,1.1,3.4-1,4.8c0,0-1.8,1.3-0.3,3.3s1.9,2.1,1.9,2.1s4.1,4.2,5,5.8
		c0.9,1.6,2.3,6.5-1.5,10.3c0,0-2.9,0.7-1.6,2.8c1.3,2.1,9.6,8.7,9.6,8.7s7,6.3,7.9,11.2s4.8,8.4,4.8,8.4s2,2.4,3,1.9s1.7-0.1,2.6,3
		s1.1,2.8,0.5,6.3c-0.6,3.5-0.6,3.7,1.5,5.1c2.1,1.4,2.9,2.9,3.6,5.2c0.6,2.3,2.5,9.5,9.9,14.8c7.4,5.4,9.8,6.2,8.3,7.3
		s-4.6,3.2-7,3.6c-2.4,0.4-7.7,0.9-9.2,2.2c-1.5,1.4-3.3,2.5-4.2,4.4c-0.9,1.9-9.7,9-9.7,9s1.5-1-7.7-1.3
		c-9.2-0.3-20.6-7.3-28.9-14.7c-8.3-7.3-20.3-21.9-20.3-21.9s-3.7-27.7-16.1-28.5c-12.4-0.8-18.5,5.7-18.5,5.7s-0.9-3.9-1.6-4.2
		s-8.8-6.7-8.9-10.6c0,0,2.4-6.3,15.3-1.1c0,0,10.2,3.3,13.7,2.5c3.5-0.7,9.7-3.2,12.6-4.5c2.9-1.3,9.5-4.6,9.5-4.6
		S343.4,613.5,341.9,608.2z"
		isChild="true"  id="path510703"
        type="area" code="510703"
		/>
	<path class="st0" d="M365.5,591c0,0,5.7-7.1,7.8-7.8c2.2-0.7,2.9-0.9,3.7-1.4s3.6-6.5,5.9-6.9c2.3-0.4,11.7-0.4,11.8-0.4
		c0,0-6.5-8.3-5.8-9.6c0.7-1.3,9.5-1.4,12.2-1.2s3.5,0.3,5.1,0.8c1.7,0.5,7.5,1.2,8.3-0.6c0.8-1.8-2.8-2.9-3.6-4.2
		c-0.8-1.3-5.3-5.1-3-8.9c2.3-3.8,9.9-11.1,15.1-9.5c0,0,1-0.3,4.1,3.2c3.1,3.5,8,5.2,9.3,5.2c1.3,0.1,3.4,0.7,4.1-1.9
		c0,0-1.1-3.4,0-4.9s1.7-3.5,10.2-0.8c0,0,1,0.2,1.4,1.1c0.4,0.9,4.9,1.6,7.5,1.2s8.2-1.4,10.5-3.5l0.4-0.4c0,0,10.3,0.6,14.4,3.9
		c4.1,3.3,3.7,6.8,3.7,7c0,0.2-2.3,7.7-4.9,12.3s-4.2,14.9-0.7,18.1c3.5,3.2,15.8,21.2,16.9,23.1c1.1,1.9,3.3,5.2,2,6.9
		c-1.4,1.7-5.9,4.5-7.5,7.5c-1.6,3-5.3,12.2-5.5,16.2c-0.3,4-1,4.6,0.7,4.4s4.7-1,7,0.6c2.3,1.7,6.4,6.4,9.4,6.6s8.5-5.4,12.9-5.3
		c0,0,10.4-2.2,14.6-0.4c4.3,1.8-0.8,3.9-0.8,3.9s-4.2-0.4-4.8,1.4c-0.5,1.8-0.3,4.6,0.1,7.8c0.4,3.3-2.7,5-4.1,6
		c-1.3,1-3.2,2.6-4.2,4.4s-1.8,4.1-3.8,4.7c-2,0.6-7.4,3.6-7.8,3.5c-0.4-0.1-8.3,5.8-11.7,5.4c-3.4-0.4-6.2-3.8-6.2-3.8l-15.9-10
		c0,0-18.1-11.5-25.8-9.3l-6.3,0.7c0,0-5.8-0.4-9.3,4.4c-3.5,4.8-15.7,18.8-15.7,18.8l-7.3-4.9c0,0-4.9-4-6.4-7
		c-1.5-3-3.5-8.7-3.5-8.7s-1.1-3-4.5-5.1c0,0-1.3-0.6,0-5c0,0,1.2-3.2-1-6.4c-2.1-3.2-3-2.3-3-2.3s-2.4-0.7-4.3-3.9
		c-1.9-3.2-3.1-4.8-2.8-5.7c0.3-0.9-1.9-4.5-2.5-5.5c-0.6-0.9-4.6-5.9-8.5-8.8s-7.5-6.2-6.9-7.3s2.1-1.8,2.1-1.8s3.2-3,2.3-6.4
		C371.4,600.6,372.1,597.2,365.5,591z"
		isChild="true"  id="path510704"
        type="area" code="510704"
		/>
	<path class="st0" d="M290,558.8c0,0-0.4-7.4,3.3-8s4.3,0.1,5.5-0.3c1.2-0.4,6.5-3.3,8.5-5s6.3-3.2,7.2-3.7c0.9-0.5,4.1-3.1,4.5-4.2
		s0.9-2.6,0.9-3.6s-0.1-6.6,1.4-8.5c1.5-1.9,2.5-5.1,2.5-5.1s1.3-4.7,0.9-6.4c-0.4-1.7,0-5.8-1.6-8.3c-1.5-2.5-2-4.3-2.9-4.9
		s-4.7-3.6-7.9-5.5c-3.2-2-3.6-4.4-3.6-4.4s-1.6-4.7-1.5-6.3c0.1-1.5,0.8-5.1,3.1-5c2.3,0.2,7.6,2.6,7.6,2.6s3.4,1,6.4-1.3
		s8-7.1,9.8-8.1c1.7-1,8.2-5.8,10-4.5c1.8,1.3,2.1,5.1,2.6,5.4c0.5,0.3,6.6,8.3,10,8.4c3.4,0.1,6.5-1.7,6.8-3s3-5,1.8-9.2
		s-1.8-5.2-3.7-6.6c-1.9-1.5-5.2-3.3-5.4-6.9s1.5-6,1.5-6s1.7-3.6,1.8-4.8s0.6-4.7,1.8-5.4c1.2-0.7,3.7-2.9,5.5-3
		c0,0,3.7,1.3,7.3,0.2c3.6-1.1,6-2.2,6-2.2s7-3.3,8.3-4.1c1.3-0.8,10.9-1.6,14.7,0c0,0,0.6,1.1,1.2,2.9c0.7,1.8,1.8,2.2,2.8,1.5
		c0.9-0.7,4.1-4.6,4.1-4.6l3-3.4c0,0,2.9-6.3,4.7-7.6c1.9-1.3,4.1-4,7.8-3.3c0,0,2.7,0.6,3.8,4.2l0.5,1.8l1-3.5c0,0,0.6-7.6,0.5-9
		s-0.6-4.5-0.4-5.5c0.2-1.1,0.3-3.1,4.5-8.6c4.2-5.5,7.7-9.5,7.7-9.5l7-8.3c0,0,2.1-3.1,1.4-5.7c-0.8-2.6-0.6-11.5-0.6-11.5
		l0.8-12.5c0,0,10.4-4.4,12-5.9c1.6-1.5,4.3-2.5,8.6-6.7c0,0,2.5-2.6,5.3-3.2l4.4-1.9c0,0,4.5-1.5,7.1-2.1c2.7-0.6,9.1-1.7,9.1-1.7
		l7.9-1.3l5.9-1l6.6-1.7l1.9-0.3c0,0-0.3,3.8-0.6,4.2c0,0,3.4,2.2,6.7,7c3.3,4.9,6.9,16.5,6.9,16.5s4.6,17.4,4.3,31.5
		c-0.3,14.2-0.3,27.8-0.8,31.5c0,0-2.4,8.7-0.6,12.8s2.4,15.3,15.9,22.3l7.6,23.1c0,0-15.1-1.1-16.9-2.9c0,0-0.8-0.8-2-0.2
		s-13.4,1.4-15.6,0.9c0,0-0.9-0.3-2.6,0.7c0,0-8.8,5.2-12.8,5.9c-4,0.6-9.4,2.6-11.6,5.1c-2.2,2.6-3.2,7.3-4,8
		c-0.8,0.7-15.2,8.7-15.8,8.9c-0.5,0.2-8.6-0.2-9.3,0.2s-4.7,6.5-3.6,12.9c0,0,1.1,4.1,8.7,3.5c0,0-9.3,7.3-10.3,11.2
		c-1,3.9-2,10-0.5,13.5l5.5,1.1c0,0-3.4,3.4-8.2,3.5c-4.9,0.1-7.6,0.5-9.4-0.7s-4.3-2.5-7-2.5c-2.7,0-5.2,0.3-5.3,4.5
		c0,0,0.6,2.4,0.3,2.9s-2,2.2-4.8,1.1c0,0-5.8-2-7.4-4.2c-1.6-2.2-4.1-4.2-6.1-4.3s-7.9,1.9-12.6,7.6c-4.7,5.7,1.3,10.8,1.7,11.2
		c0.4,0.4,4.5,2.4,3.5,3.9c-1,1.4-5.3,1.6-7.7,0.9s-9.9-1.6-13.3-0.9c-3.4,0.7-5,0.2-4.7,1.3c0.3,1.1,4.4,7.7,5.8,9.4
		c0,0-10.3-0.3-12.2,0.5s-4.9,5.6-5.4,6.6c-0.5,1-3.1,0.9-4.2,1.7s-6.3,6-7.3,7.7H365c0,0-3.4-2.7-1.9-4.6c1.5-2,2.2-1.9,2.2-3.1
		s-0.5-3.3-0.9-3.3s-2.8,0.8-5.5,3c-2.8,2.2-4.9,4.3-6,4.5c-1.1,0.2-3,0.2-3.2,0.8c-0.2,0.6,1,2.8,1.9,5.9s0.9,5-1.5,9.5
		c0,0-1,2.2-1.7,2.6c-0.7,0.4-3.5,1.5-6.3,2c0,0-0.2-2.3-2.2-4.4c-1.9-2.1-6.6-4.1-9.7-4.3c-3.1-0.2-9.1-4-9.1-4.1s-0.1-1.2,2.9-2.7
		c3-1.5,6.2-4.5,6.4-5.5c0.3-1,1.3-0.8,0.2-2.8c-1.1-2-1.7-3.7-1.5-4.3c0.1-0.7-1-2.1-1.7-2.4s-8.2-3-9.5-3.4
		c-1.3-0.4-8.8-1.5-9.8-1.8s-6-1.1-6.2-2.2s-0.2-2.1,0.5-3c0.7-0.9,1.8-2.5,1.7-3.3S296.7,558.8,290,558.8z"
		isChild="true"  id="path510781"
        type="area" code="510781"
		/>
	<path class="st0" d="M532.3,645.3c0,0,7.3-0.8,10,1c2.8,1.8,7.9,5.7,9.9,8.8c2,3.1,1.7,13.5,4.1,15.1c0,0,2.7-4.7,0.4-12.5
		s-3-13-1-16c2.1-3,4.4-6.4,5.3-9.3s3.3-6.1,7.1-2.4c0,0,1.8,1.3,4.4,0.3c2.6-1,15.7-0.7,23.1,5.6c0,0,1.9-1.8,6.5-0.7
		c4.6,1.1,14.6,4,20.1,7.3s12.8-3.7,14.5-5.1c1.8-1.4,6-2.1,6.2-4.2c0.2-2.1,6.2-13.5,6.2-13.5s-9-9.6-10.2-12.9
		c-1.2-3.3-10.7-17.9-10.8-23.4l-12.1-14.7l-14.4-17.8l-24.4-30.9l-16.3-47.9c0,0-12.8-1.1-14.9-2.1s-1.7-1.2-3.4-1.2
		c-1.8,0-6.3,1-8.1,1.1s-6.5,0.5-7.4,0.1c-0.9-0.4-1.4-0.4-2.2,0c-0.8,0.4-9.8,5.3-11.6,5.8c-1.8,0.5-8.6,1.9-11.8,4
		c-3.2,2.1-6,9.3-6,9.4c-0.1,0.1-15.6,9.1-15.6,9.1s-9,0-9.8,0.4s-5.2,6.7-3.2,14.1c0,0,3.8,3.3,8.1,2.3l-5.9,5.5
		c0,0-3.4,3.6-3.8,4.9c-0.4,1.3-1.3,5-1.5,8c-0.2,3,0.1,6,0.7,6.3c0.6,0.3,4.6,1,6.2,1.1c1.5,0.1,8.9,0.7,12.7,2.9s5.2,4.9,5.5,7.6
		c0.3,2.6-3.2,9.5-4.3,11.6s-5,11.4-2.4,17.7c0,0,2.6,2.9,4.1,5c1.6,2.2,7.5,9.9,7.5,9.9s7.2,10,8.1,12.9s1.2,3-0.7,4.6
		c-1.9,1.6-5.1,3.6-6.1,5.8c-1,2.2-3.6,8-4.3,10.1s-2.9,10.9-1.9,11c1,0.1,4.7-0.5,6-0.4s8.1,6.3,8.1,6.3s2.3,2.6,5.6,0.8
		c3.2-1.8,6.9-4.6,10-4.7c0,0,5.1-0.7,7.7-1c2.7-0.3,8.9,0.1,9.1,1.8c0.2,1.7-2.6,2.7-2.9,2.7"
		isChild="true"  id="path510725"
        type="area" code="510725"
		/>
	<path class="st0" d="M389.1,701.2c0,0,8.1,4.2,8.5,13.7c0.3,9.5-4.2,32.1-4.2,32.1s20.3,26,24.7,36.9c4.3,10.9,6.9,13.1,9.6,28.5
		c2.7,15.4,9,29.3,34.2,38.8c0,0,12,3.6,18.6,2.2c0,0,4.3,1.6,7.6,10.6c3.4,9,10.6,18.3,17.5,24c6.9,5.7,18.7,9.1,31.3,7.5
		c0,0,10.8,10.7,11.1,12.7s1.7,34.1,0.5,42.9c0,0,23-36.5,26.7-45.3c3.7-8.8,10.3-24,7-40.8c-3.3-16.8-11.4-28.9-13-40.8
		s-7.7-24.2-5-38.5c2.7-14.3,10.8-27.9,21.2-30.6c0,0-0.4-2.9-3.4-7.5c-3-4.5-10-13.9-10.3-15.7c-0.2-1.9,0.9-2,2.7-4
		s2.6-5.7,4.6-6.9c2-1.2,2.3-1.5,4.6-1c2.3,0.5,2.5,1.1,2.7,0.5s-0.1-1.9-2.4-2.6c-2.3-0.7-6.3-1.7-8.6-1.8
		c-2.4-0.2-4.5-0.2-5.3-0.7s-3.2-3.9-3.6-5.1c-0.3-1.2-0.4-2.5,1.5-3.1c2-0.6,4.2-1.2,4.3-2.6c0.1-1.4-0.7-7.2-1.6-9.5
		c-0.9-2.3,0.1-12.2,0.1-12.2s0.8-0.1,1.1-1.1c0.4-1,1-3.5-0.1-4.2c-1.1-0.6-0.6-0.5-2.1-0.6c-1.5-0.1-8.6-1.8-12.7-6.2
		c0,0-2.6-2.5-2.5-7.2s-1.8-8.8-4.7-11.4c-2.9-2.6-6.7-6-8.3-6.2c-1.7-0.3-7-0.6-8.9-0.5c-1.9,0.1-3.4-0.4-3.8,1
		c-0.4,1.5-0.5,4.5-0.1,8.2c0.5,3.8-6,6.6-7.6,9.4c-1.6,2.8-1.8,4-2.9,4.8c-1.1,0.8-7,3.8-9.1,4.4c-2.1,0.5-9,5.8-11.1,5.4
		c-2.1-0.3-2.5,0.1-7-3.9c-4.4-4-16.9-10.6-16.9-10.6s-15.7-9.1-22.4-9c-6.7,0.1-7.4,0.9-8.7,1c-1.3,0-6.4-0.1-9,4.1
		c-2.6,4.2-15.7,18.8-15.7,18.8s1,0.3,1.1,2c0.1,1.7-4.1,3.9-5.9,4.3s-7.6,0.5-9.7,2.1c-2,1.7-3.5,2.7-4.7,4.8
		C397.5,694.4,389.1,701.2,389.1,701.2z"
		isChild="true"  id="path510722"
        type="area" code="510722"
		/>
	<path class="st0" d="M556.1,669.9c0,0,2.1-4.7,1.4-8.5c-0.8-3.8-1.8-6.9-2.3-10s-1.4-7.2,1-10.4c2.4-3.3,4.3-6.7,4.7-8
		c0.5-1.4,1.7-5.3,4.2-4.5c2.5,0.8,3,2.1,4.7,2c1.7,0,10.1-1.9,17.2,0.9s8.9,4.7,8.9,4.7s1.7-2.9,10.6,0.1c8.8,3,17.2,7.3,19.1,7.1
		c1.8-0.2,7.9-1.9,11.1-5.7c0,0,5.6-2.4,6.1-3.6c0.4-1.2,4.5-13.3,6.6-14.4c0,0,8,6.1,10.4,6c0,0,15.3-0.8,23.3,2.2
		s11.2,8.8,10.6,12.3s-1.7,6.7-1.7,6.7s-2.8,22.2-0.3,27.8c0,0,26.1,5.4,29.4,4.9c0,0,5.8,28,6.5,45.4s3.4,44.9-10,62.8
		c0,0-6.5,11.3-23.1,13c0,0-21.7-28.5-42.2-41s-27.8-17.5-43.9-16.4c0,0-18.4,6.8-22.8,11.8c0,0-13.3-19.3-13.6-21.9
		c-0.3-2.6-0.9-2.8,1-4c1.8-1.2,3.3-4.4,3.9-6c0.6-1.6,3.3-4.7,7.6-2.9c0,0,1.6,0.9,1.6,0.1s0.5-1.8-4.6-3.5
		c-5.1-1.7-7.3-0.8-9.3-1.1c-2-0.3-4-1.2-5.1-3.7c-1.1-2.5-1.9-3.8-0.5-4.5s5-1.5,5.2-2.5c0.2-1-0.7-8.5-1.3-9.7s-0.4-7.1-0.4-7.1
		s0-5.3,0.5-5.7s3.3-3.1,1.4-4.6c-1.9-1.5-4.5-1-6.6-2C563.1,674.9,556.6,671.6,556.1,669.9z"
		isChild="true"  id="path510723"
        type="area" code="510723"
		/>
</g>
<text transform="matrix(1 9.100000e-04 -9.100000e-04 1 299.9843 302.9221)" class="st6 st7 st8">平武县</text>
<text transform="matrix(1 9.100000e-04 -9.100000e-04 1 195.7719 481.4719)" class="st6 st7 st8">北川羌族自治县</text>
<text transform="matrix(1 9.100000e-04 -9.100000e-04 1 399.0726 504.3083)" class="st6 st7 st8">江油市</text>
<text transform="matrix(1 9.100000e-04 -9.100000e-04 1 234.024 634.8292)" class="st6 st7 st8">安州区</text>
<text transform="matrix(1 9.100000e-04 -9.100000e-04 1 352.4482 667.8286)" class="st6 st7 st8">涪城区</text>
<text transform="matrix(1 9.100000e-04 -9.100000e-04 1 427.5812 629.0355)" class="st6 st7 st8">游仙区</text>
<text transform="matrix(1 9.100000e-04 -9.100000e-04 1 540.04 586.3976)" class="st6 st7 st8">梓潼县</text>
<text transform="matrix(1 9.100000e-04 -9.100000e-04 1 494.691 799.2725)" class="st6 st7 st8">三台县</text>
<text transform="matrix(1 9.100000e-04 -9.100000e-04 1 643.9717 713.0909)" class="st6 st7 st8">盐亭县</text>
<g id="g510727"
    type="data" code="510727">
	
	<text id="text510727-lc" transform="matrix(1 0 0 1 289.0583 272.2026)" class="st6 st7 st8">22</text>
	
	<text id="text510727-cq" transform="matrix(1 0 0 1 313.5876 272.2026)" class="st6 st7 st8">22</text>
</g>
<g id="g510726"
    type="data" code="510726">
	
	<text id="text510726-lc" transform="matrix(1 0 0 1 214.115 451.498)" class="st6 st7 st8">22</text>
	
	<text id="text510726-cq" transform="matrix(1 0 0 1 238.6433 451.498)" class="st6 st7 st8">22</text>
</g>
<g id="g510705"
    type="data" code="510705">
	
	<text id="text510705-lc" transform="matrix(1 0 0 1 230.4802 611.4229)" class="st6 st7 st8">22</text>
	
	<text id="text510705-cq" transform="matrix(1 0 0 1 255.0095 611.4229)" class="st6 st7 st8">22</text>
</g>
<g id="g510703"
    type="data" code="510703">
	
	<text id="text510703-lc" transform="matrix(1 0 0 1 425.7468 602.2549)" class="st6 st7 st8">22</text>
	
	<text id="text510703-cq" transform="matrix(1 0 0 1 450.2761 602.2549)" class="st6 st7 st8">22</text>
</g>
<g id="g510704"
    type="data" code="510704">
	
	<text id="text510704-lc" transform="matrix(1 0 0 1 532.7742 561.4951)" class="st6 st7 st8">22</text>
	
	<text id="text510704-cq" transform="matrix(1 0 0 1 557.3025 561.4951)" class="st6 st7 st8">22</text>
</g>
<g id="g510781"
    type="data" code="510781">
	
	<text id="text510781-lc" transform="matrix(1 0 0 1 340.6716 644.7383)" class="st6 st7 st8">22</text>
	
	<text id="text510781-cq" transform="matrix(1 0 0 1 365.2009 644.7383)" class="st6 st7 st8">22</text>
</g>
<g id="g510725"
    type="data" code="510725">
	
	<text id="text510725-lc" transform="matrix(1 0 0 1 488.0105 773.5186)" class="st6 st7 st8">22</text>
	
	<text id="text510725-cq" transform="matrix(1 0 0 1 512.5398 773.5186)" class="st6 st7 st8">22</text>
</g>
<g id="g510722"
    type="data" code="510722">
	
	<text id="text510722-lc" transform="matrix(1 0 0 1 637.4236 689.5635)" class="st6 st7 st8">22</text>

	<text id="text510722-cq" transform="matrix(1 0 0 1 661.9529 689.5635)" class="st6 st7 st8">22</text>
</g>
<g id="g510723"
    type="data" code="510723">
	
	<text id="text510723-lc" transform="matrix(1 0 0 1 392.407 479.4443)" class="st6 st7 st8">22</text>
	
	<text id="text510723-cq" transform="matrix(1 0 0 1 416.9353 479.4443)" class="st6 st7 st8">22</text>
</g>
<path class="st14" d="M190.6,362.2c0,0-3,16.5,5.9,18.3s12.4-2.7,15,0s1.8,8.8,9.3,11.5s11-2.2,16.4,4.9s4.9,9.3,8.8,11
	c4,1.8,3.5,3.5,7.1,7.1s3.5,4.9,12.4,0s11.5-3.5,13.3-10.2s-1.8-14.1,7.1-8.4s9.7,15,22.5,16.8c12.8,1.8,19,5.9,24.1,4.9
	c5.1-1,9.5,1.3,11.3,4.3s2.2,8.4,8.8,8.4s7.5-3.5,11.9,0c4.4,3.5-1.3,7.5,5.7,7.1s13.7-4,17.2-6.2c3.5-2.2,14.6-1.3,15.9-0.4
	s0.5,8.4,5.8,2.2c5.3-6.2,6.6-7.1,6.6-8.4s3.7-8.4,10.3-8.4s3.4,13.7,6.5,0c3.1-13.7-5.3-4.5,2.7-16.6c8-12.1,5-8.6,10.9-15.6
	s7.7-8,6.3-12.8s0.4-23,0.4-23l11.9-7.1c0,0-2.9,1.8,5.9-3.1c8.8-4.9,4.5-6.6,18.1-8.4s23-3.5,24.5-4.9c1.5-1.3,8.2-2.2,8.2-2.2"/>
<path class="st14" d="M365.3,438c0,0-5.7,2.2-5.7,6.6s-6.8,11-2.5,15s8.7,8,8.3,13.3s-4.8,11-9.7,8.8s-5.8-5.3-8.4-7.5
	s0.4-9.7-9.7-3.1s-11.6,9.4-17.1,11.1c-5.5,1.7-11.6-8.2-13,2.3s11.4,13.6,13,16.7c1.6,3.1,4.3,5.3,4.3,13.3s-3.2,8-4.3,14.1
	c-1,6.2,0.7,10.2-6.8,13.7c-7.5,3.5-12.4,8-15.5,8.4c-2.7,0.4-7.1-1.6-7.9,4.7c-0.1,0.9-0.1,2-0.1,3.2c0.1,1.7,0.3,3.2,0.6,4.6
	c1.3,6.9,4.2,10.2-0.6,13.5c-5.7,4-19.4,15-22.5,15.9s-4,8.8-11,2.2s-8-3.5-11.5-11.5c-3.5-8-11,2.7-4.9-11.9s19-8.8,8-19.4
	c-11-10.6-7.5-4-12.8-13.3s-0.2-17.7-8-19.4s-8.3,0.4-14.1-1.5c-5.7-2-7.5-6.4-11.9-2.9s-9.8,9.8-9.8,9.8"/>
<path class="st14" d="M290.2,558.6c5.5,0.9,12.8,2.7,14,5.6c1.2,2.9-6.8,4.7,0,7.1c6.8,2.4,10.3,1.8,14.4,3.2
	c4.1,1.5,10.3,2.4,10.6,6.5c0.3,4.1,3.5,3.8,0,8c-3.5,4.1-12.4,4.9-5.3,8.5s7.7,1.2,12.7,3.9s5,6.5,4.7,9.4c-0.3,2.9-2.1,7.4-4.4,8
	s-13.2,7.1-16.5,7.7c-3.2,0.6-5.6,1.5-12.7,0c-7.1-1.5-5.7-3.2-11.9-3.8c-6.1-0.6-9.1,2.7-9.1,2.7s1.2,2.9,3.2,5.6
	c2.1,2.7,5.5,3.8,5.8,5.3c0.4,1.5,2.3,4.9,2.3,4.9"/>
<path class="st14" d="M341.4,608.4c1.4-0.9,7.3,0,8.7-4.7c1.5-4.7,2.9-7.1,1.8-9.4c-1.2-2.4-3.8-6.5-0.9-6.5c2.9,0,3.5-1.2,6-3.2
	c2.5-2.1,8.2-6.8,8.3-2.1c0.1,4.7-5.4,2.1,0,8.5s6.6,5,6,11.8c-0.6,6.8-8.2,3.8-1.8,9.4c6.5,5.6,7.7,6.5,10.6,9.7
	c2.9,3.2,4.7,7.4,5.3,10.3c0.6,2.9,3.8,5.9,5.9,7.4c2.1,1.5,1.5-2.4,4.1,4.1c2.7,6.5-3.2,7.4,1.8,10.9c5,3.5,2,4.7,6.5,12.4
	c4.4,7.7,14.4,12.1,15.2,13.8s-2.5,2.9-8.4,5.3c-5.9,2.4-7.3,0-11.5,5.6c-4.1,5.6-5.6,5.9-7.1,7.4c-1.5,1.5-3.7,2.4-3.7,2.4"/>
<path class="st14" d="M417.7,679.7c1.4-1.1,4.3-6.4,9.6-11.7c5.3-5.3,7.1-11.8,14.7-11.8c7.7,0,9.1-3.2,20.3,2.1
	c11.2,5.3,20.4,11.5,26.8,15.6c6.5,4.1,6.7,7.4,14.5,2.1s12.8-3.8,16.1-10.3c3.2-6.5,8.2-4.9,8.5-10.4c0.3-5.5-3.2-9.3,3.8-9.6
	c7.1-0.3,9.1-0.6,13.3,2.9c4.1,3.5,6.8,5.6,8,9.1c1.2,3.5,0,10,3.2,13c3.2,2.9,3.5,2.9,8.5,5.3c5,2.4,6.5-1.3,6.5,3.8
	c0,5.1-1.5-0.8-1.5,5.9c0,6.8-0.3,8.8,0.3,10c0.6,1.2,2.1,7.7,1.2,9.4s-6.5,1.5-5.9,3.8c0.6,2.4,1.7,6.8,6.2,6.8s14.6,1.8,14.1,4.1
	c-0.5,2.4-5.5-4.1-9,3.8s-8.5,3.8-4.1,10.3c4.4,6.5,8.2,13,10,15c1.8,2.1,3.2,6.5,3.2,6.5"/>
<path class="st14" d="M556.7,670.6c0,0,1.5-6.8,0-14.7c-1.5-8-3.7-11.2,0.7-16.5c4.4-5.3,5-14.1,9.7-10.3c4.7,3.8,5.6-1.2,15.6,1.2
	c10,2.4,13,5,13.6,6.2c0.6,1.2-7.1-5,11.2,0c18.3,5,14.4,8.5,20.6,6.5c6.2-2.1,8.6-5,9.2-5.9s5.3-2.7,5.6-3.8
	c0.3-1.2,0.9-3.3,1.5-5.1c0.6-1.7,5.6-9.1,5.6-9.1"/>
<path class="st14" d="M532.2,645.5c0,0,10.8-4.8-6-4.5c-16.8,0.3-16.8,12.2-26.1,2.3c-9.3-9.9-14.9,6.4-9-15.3
	c5.9-21.7,18.8-8.7,5.7-28.2s-15.8-16.9-15.6-25.7s9.6-21.2,7.4-24.7s-2.7-5.7-9.8-7.1c-7.1-1.3-14.2-2.7-14.2-2.7s-1.4-8,0-12.4
	c1.4-4.4,11.4-12.4,11.4-12.4s-11.2,1.3-9.5-6.6s2.7-9.7,4-9.7s8.8,0,8.8,0s12.4-6.2,15.5-8.4s0.7-9.7,12.9-12.8
	c12.3-3.1,16.2-7.5,18-7.5s0.7,0.4,9.9,0s6-1.8,9.1-0.4s17.2,2.8,17.2,2.8"/>
<path class="st14" d="M365.3,591c0,0,6.6-8.5,10.1-8.5s3.5-8,9.7-8s9.7,0,9.7,0s-8.1-9.3-5.4-10.2s14.7-0.9,16.9,0s8,0.9,8.4-0.7
	c0.4-1.5-11.4-7.3-5.7-14.4c5.7-7.1,13-10.6,16.9-6.2s9.2,7.5,13.2,6.6s-2.5-10.1,6.9-8.6c9.4,1.5,3,1.9,9.8,3.3s14.8-3.4,14.8-3.4"
	/>
<circle class="st9" cx="287.9" cy="298.8" r="4.1"/>
<circle class="st9" cx="183.7" cy="476.4" r="4.1"/>
<circle class="st9" cx="387" cy="499.4" r="4.1"/>
<circle class="st9" cx="224.3" cy="629" r="4.1"/>
<circle class="st9" cx="529" cy="580.4" r="4.1"/>
<circle class="st9" cx="414.4" cy="624.9" r="4.1"/>
<circle class="st9" cx="343.7" cy="662" r="4.1"/>
<circle class="st9" cx="481.3" cy="795.1" r="4.1"/>
<circle class="st9" cx="632.4" cy="708" r="4.1"/>
</svg>
