<?xml version="1.0" encoding="UTF-8" standalone="no"?>
<!-- Created with Inkscape (http://www.inkscape.org/) -->

<svg
   xmlns:osb="http://www.openswatchbook.org/uri/2009/osb"
   xmlns:dc="http://purl.org/dc/elements/1.1/"
   xmlns:cc="http://creativecommons.org/ns#"
   xmlns:rdf="http://www.w3.org/1999/02/22-rdf-syntax-ns#"
   xmlns:svg="http://www.w3.org/2000/svg"
   xmlns="http://www.w3.org/2000/svg"
   xmlns:sodipodi="http://sodipodi.sourceforge.net/DTD/sodipodi-0.dtd"
   xmlns:inkscape="http://www.inkscape.org/namespaces/inkscape"
   width="100%"
   height="100%"
   viewBox="0 0 460 460"
   id="svg5709"
   version="1.1"
   inkscape:version="0.48.5 r10040"
   sodipodi:docname="yunnanMap2.svg">
  <defs
     id="defs5711">
    <filter
       x="-0.1"
       y="0"
       width="1.2"
       height="1"
       id="green">
      <feFlood
         flood-color="#008000"
         id="feFlood6"
         result="result1" />
      <feComposite
         in="SourceGraphic"
         id="feComposite8"
         in2="result1" />
    </filter>
    <filter
       x="-0.1"
       y="0"
       width="1.2"
       height="1"
       id="orange">
      <feFlood
         flood-color="#ff7f2a"
         id="feFlood11"
         result="result1" />
      <feComposite
         in="SourceGraphic"
         id="feComposite13"
         in2="result1" />
    </filter>
    <linearGradient
       osb:paint="solid"
       id="linearGradient5344">
      <stop
         id="stop5346"
         offset="0"
         style="stop-color:#000000;stop-opacity:1;" />
    </linearGradient>
  </defs>
  <sodipodi:namedview
     id="base"
     pagecolor="#ffffff"
     bordercolor="#666666"
     borderopacity="1.0"
     inkscape:pageopacity="0.0"
     inkscape:pageshadow="2"
     inkscape:zoom="2.6009232"
     inkscape:cx="255.3936"
     inkscape:cy="231.10911"
     inkscape:current-layer="g5442"
     inkscape:document-units="px"
     showgrid="false"
     inkscape:window-width="1920"
     inkscape:window-height="1018"
     inkscape:window-x="-8"
     inkscape:window-y="-8"
     inkscape:window-maximized="1" />
  <metadata
     id="metadata5714">
    <rdf:RDF>
      <cc:Work
         rdf:about="">
        <dc:format>image/svg+xml</dc:format>
        <dc:type
           rdf:resource="http://purl.org/dc/dcmitype/StillImage" />
        <dc:title />
      </cc:Work>
    </rdf:RDF>
  </metadata>
  <g
     id="layer1"
     inkscape:label="Layer 1"
     inkscape:groupmode="layer"
     transform="translate(0,-20)">
    <g
       transform="translate(5.521831,-577.96864)"
       id="layer1-1"
       inkscape:label="Layer 1">
      <g
         transform="matrix(0.98695514,0,0,1.0304851,434.26038,-202.08552)"
         id="g3066">
        <g
           id="g5442">
          <path
             inkscape:connector-curvature="0"
             id="path5328"
             d="m -261.75,1145.5 c -9.70401,0.3281 -20.64384,2.2352 -26.96875,9.875 -7.07656,4.5841 -15.81438,6.8281 -21.4375,13.3438 -5.27209,3.8638 -5.44848,11.7104 -0.71875,16.0312 3.3554,4.1857 11.02154,9.0235 7.1081,15.2973 -4.33853,7.9909 0.98312,2.7205 4.8294,-0.3285 9.27898,-5.5463 20.87506,6.6746 29.46875,-1.3438 3.56338,-2.793 2.67517,-8.8663 7.875,-9.75 6.10748,-3.6332 13.85,-0.3001 15.96875,6.3125 3.19657,6.729 3.49006,14.3958 4,21.5625 3.30417,4.2365 8.64802,-0.9024 12.5,-1.5938 4.14732,2.3435 10.85758,2.0456 12.0625,-3.5 0.82651,-6.8859 3.83333,-13.8256 1.1875,-20.5624 -3.79007,-15.5807 -8.40407,-31.2707 -17.34375,-44.7188 -9.51818,0.4074 -19.01342,-0.8541 -28.53125,-0.625 z"
             style="fill:#e6e6e6"
             onmouseover="changeColorOver('path5328')"
             onmouseout="changeColorOut('path5328')"
             onclick="changeMap('5328-2.svg','5328')" />
          <path
             inkscape:connector-curvature="0"
             id="path5308"
             d="m -283.08712,1024.9089 c -2.78149,1.1325 -1.08856,6.2908 1.05587,8.6849 -0.40281,4.1159 -0.81484,6.7113 -1.29065,10.2008 -2.68712,8.6538 -2.60713,11.8595 -4.77185,18.2054 -1.49861,4.546 -2.78506,6.9681 -4.28125,9.2474 -6.01169,9.0039 -10.43503,20.8934 -19.06949,31.9494 -5.82299,3.7903 -20.2655,0.5941 -26.18356,4.6475 -4.72526,2.933 -3.02763,6.6488 -1.6152,11.4005 -10.11395,5.9326 -7.48917,21.0837 -10.69425,31.099 -3.69475,3.1463 -9.24105,10.5838 -3.15625,14.1874 8.72037,3.5296 18.8599,2.4419 27.64424,5.8155 6.47437,0.7147 13.14939,1.7445 17.49032,-3.5586 11.7772,-6.1188 22.99057,-18.8928 34.01201,-20.8467 10.13658,-1.4805 24.55932,-0.9149 40.66813,-0.5459 3.16769,4.0976 4.34821,6.2149 6.37997,10.1027 3.05596,-0.018 6.14362,-10.3159 11.83658,-7.7482 5.65183,2.5234 11.72038,4.1564 17.84375,2.6875 3.15381,-0.1444 12.26954,-2.2513 10.26522,-7.2599 -4.5976,-1.5077 -7.47804,-4.2812 -13.40902,-8.5812 -5.80526,-3.9429 -14.64938,-10.2114 -7.1062,-14.9089 2.91985,-1.4388 6.22656,-1.803 8.96875,-3.8437 -4.63469,-1.1645 -9.49896,-2.0699 -11.28125,-7.0626 -4.23224,-8.4313 -5.84238,-19.0374 -13.84375,-24.9687 -3.63659,0.4574 -10.49195,0.1541 -9.59375,-5.1875 0.94699,-6.5345 3.5291,-15.3176 -3.28125,-19.7188 -10.98113,-10.4884 -17.93061,-30.6169 -33.04647,-35.9241 -4.52456,-0.7705 -10.95602,0.3044 -13.54065,1.9268 z"
             style="fill:#e6e6e6"
             sodipodi:nodetypes="ccccccccccccccccccccccccccc"
             onclick="changeMap('5308-2.svg','5308')"
             onmouseover="changeColorOver('path5308')"
             onmouseout="changeColorOut('path5308')" />
          <path
             inkscape:connector-curvature="0"
             id="path5325"
             d="m -119.43798,1028.6267 c -1.33102,0.8192 -2.10415,2.7866 -8.13582,4.0609 -3.94317,-0.7657 -11.05505,-3.3034 -11.84408,1.0812 -0.7027,2.3221 -1.29473,2.6406 -3.58158,3.2821 1.75153,7.8062 3.55792,18.3392 -0.45407,23.2437 -3.29199,3.2424 -7.08901,3.023 -13.64022,3.9116 -3.77877,1.0937 -5.69229,-0.1146 -10.17505,0.1447 -9.35799,-1.0587 -12.82804,-4.0299 -17.2937,-0.2884 -2.09906,2.2014 -4.5953,3.7847 -6.38054,7.6956 -6.0151,4.2305 2.21296,11.0689 5.47429,15.2419 2.18602,2.7755 5.94175,8.4378 0.78125,10.4688 -4.98543,6.4161 -16.18324,2.9753 -23.10592,5.7919 -4.34856,3.3491 0.42122,9.391 3.74888,9.5697 0.96277,1.8024 9.2349,1.8063 5.92563,3.6579 -10.47338,5.0915 -11.50205,5.4591 -11.08296,7.1376 -1.25756,3.7135 13.86601,16.0663 23.23312,18.6866 2.92002,-7.9375 12.27822,-11.1639 19.8125,-7.9687 7.26555,2.0492 12.782,7.0043 18.3125,11.8124 6.33359,3.5343 11.50684,-4.3004 11,-9.9687 0.16195,-2.0829 -0.0824,-8.5203 3.59375,-6.1875 4.12245,2.4985 11.11706,8.1007 15.1875,2.4062 3.00449,0.3328 7.88316,0.8055 10.09375,-2.75 5.01626,-7.5606 4.79174,-18.4448 0.40625,-26.25 -2.71099,-3.1687 -4.00835,-7.3789 -7.74522,-10.4533 -2.76055,-2.2989 -8.15128,-3.7483 -8.56728,-7.4841 6.23936,-8.5566 1.08421,-19.3753 2.71875,-28.8126 2.79302,-8.5144 15.24269,-8.3702 17.5,-17.4374 1.77741,-7.4757 -6.60333,-13.4239 -15.78173,-10.5921 z"
             style="fill:#e6e6e6"
             sodipodi:nodetypes="cccccccccccccccccccccccccccc"
             onclick="changeMap('5325-2.svg','5325')"
             onmouseover="changeColorOver('path5325')"
             onmouseout="changeColorOut('path5325')" />
          <path
             inkscape:connector-curvature="0"
             id="path5326"
             d="m -46.59375,1039.9062 c -8.036036,-0.2604 -16.626979,5.2501 -24.1875,1.4063 -2.575716,-1.9202 -4.917313,3.5226 -8.34375,3.2187 -9.312335,1.2285 -17.986078,-7.389 -26.37721,-0.1556 -2.50206,2.2734 -7.38017,5.7787 -10.90428,6.797 -6.69258,5.2535 -4.69746,13.048 -3.54804,20.2774 1.03759,5.2312 -1.02597,10.311 -3.09106,14.8934 9.64112,5.9251 19.48046,14.689 19.88934,31.9378 0.0683,4.3707 -3.14952,8.2015 -1.96176,12.7629 4.98928,1.7879 9.360663,-3.8787 13.71176,-5.2316 2.213627,-1.7217 4.146288,-0.9568 5.375,1.375 6.581718,6.4172 15.651941,0.4647 22.03125,-3 4.30067,-2.4633 8.910939,-3.3266 13.8125,-3.5625 -2.358253,-3.256 -8.039901,-5.8929 -7.96875,-10.3125 5.821904,-3.5576 13.46186,-4.0482 19.46875,-7.7813 14.418976,-5.3012 31.3872199,-6.3804 43.21875,-16.7187 6.116148,3.0164 13.191047,-1.9624 13.4375,-8.5625 1.082607,-7.6311 -0.804331,-18.7454 -9.4375,-20.9375 -3.3675989,-0.7491 -6.2459557,2.2215 -8.625,3.3125 -10.637259,-4.6912 -22.882115,2.2288 -33.40625,-1.7812 -4.06881,-3.5678 -0.179455,-10.2857 -4.0625,-14.2813 -2.029532,-2.8204 -5.686937,-3.8458 -9.03125,-3.6563 z"
             style="fill:#e6e6e6"
             sodipodi:nodetypes="cccccccccccccccccccccc"
             onclick="changeMap('5326-2.svg','5326')"
             onmouseover="changeColorOver('path5326')"
             onmouseout="changeColorOut('path5326')" />
          <path
             inkscape:connector-curvature="0"
             id="path5309"
             d="m -308.99534,1011.1687 c -1.60319,3e-4 -5.47503,4.0966 -9.70662,9.3267 -7.05157,14.0211 -7.10335,15.7971 -19.13649,28.7147 -9.38123,0.4914 -9.1327,-6.3336 -12.38334,-8.1603 -1.52616,0.3065 -13.40094,11.3439 -20.77563,13.2579 -4.14835,2.9808 -8.5936,4.003 -10.34633,11.0673 6.69491,13.9011 7.35694,34.8415 21.6875,46.4375 5.99859,-0.1132 11.96863,-0.8007 17.96875,-0.8437 4.5384,-8.9054 15.59864,-5.4409 23.5625,-6.625 9.51699,-0.8453 11.75894,-11.5187 15.95055,-18.2198 8.16943,-14.323 16.57543,-26.3281 18.0807,-45.9052 2.49508,-5.0756 -1.6461,-12.2092 -2.55246,-14.2072 -5.62808,1.3424 -12.38644,1.3315 -17.42585,0.5187 4.10695,-7.9393 1.06976,-13.5723 -4.89938,-15.4868 -0.41269,-0.062 4.72287,3.4239 2.26482,1.065 z"
             style="fill:#e6e6e6"
             sodipodi:nodetypes="cccccccccccccccc"
             onclick="changeMap('5309-2.svg','5309')"
             onmouseover="changeColorOver('path5309')"
             onmouseout="changeColorOut('path5309')" />
          <path
             inkscape:connector-curvature="0"
             id="path5304"
             d="m -195.52185,1014.3224 c -6.81972,0.2183 -9.31922,9.7477 -8.25111,14.9169 0.0491,6.3325 1.8055,15.3793 0.61367,19.817 -2.33758,1.8979 -4.04432,1.4208 -6.40791,-0.088 -6.07552,-2.9995 -10.33203,-2.6206 -17.09872,-2.5546 -3.22738,0.4913 -8.99936,0.5456 -11.92675,2.1885 -5.78464,1.4721 -1.08279,6.0024 2.0227,9.2974 5.17305,3.923 5.85328,6.9255 5.20326,16.0571 -0.89192,4.3488 -4.30284,9.2803 6.2596,9.1415 1.92722,-0.4218 4.27659,1.1979 8.10461,6.4415 1.63003,3.8537 4.93067,10.3466 6.69913,14.5196 5.93784,-5.2388 12.63606,-1 19.16095,-4.0268 4.99756,-0.1951 9.66393,-6.2649 6.52185,-9.5232 -2.32307,-5.4821 -10.38218,-10.7588 -10.12943,-17.0714 3.2629,-2.544 3.93023,-6.8919 7.25,-9.5625 9.71551,-5.7203 21.44221,0.2353 32.03125,-0.9375 5.52003,-0.086 12.31718,-1.767 13,-8.2187 2.17038,-12.0746 -4.28594,-23.4888 -4.9375,-35.4376 -4.37151,6.3645 -4.76249,16.197 -11.875,20.3126 -3.86058,1.8204 -7.75618,-2.6019 -10.9375,-2.0626 -4.87267,3.9412 -16.94442,5.2193 -15.88772,-6.4088 0.30682,-2.9397 0.39508,-6.7047 -4.87198,-16.8993 0.96033,-2.7048 -1.1832,-0.091 -4.5434,0.099 z"
             style="fill:#e6e6e6"
             sodipodi:nodetypes="ccccccccccccccccccccccc"
             onclick="changeMap('5304-2.svg','5304')"
             onmouseover="changeColorOver('path5304')"
             onmouseout="changeColorOut('path5304')" />
          <path
             inkscape:connector-curvature="0"
             id="path5331"
             d="m -418.625,993.5625 c -6.17036,0.50474 -11.78651,4.7611 -13.9375,10.5937 2.51607,2.8016 4.92175,8.2843 -0.0312,10.125 -6.13745,2.5532 -11.50148,10.02 -6.90625,16.2813 4.1438,8.1044 10.99143,19.3198 3.5,27.5313 -2.57747,2.7476 -5.94871,4.3705 -7.84375,7.9062 9.3784,-0.9899 17.49439,-6.7894 26.93559,-8.4429 9.9373,-2.8709 20.5075,-3.6063 30.65816,-4.1821 5.32774,-2.8517 8.71665,-11.7276 3.90625,-16.628 -3.90815,-4.7543 -9.61835,-8.2757 -13.56483,-10.8111 2.09378,-5.5945 4.1511,-9.3898 -5.12267,-15.1547 -1.02946,-1.9241 -2.99838,-3.2284 -4.625,-5.75 -2.92317,-6.37837 -6.08269,-12.46656 -12.96875,-11.4687 z"
             style="fill:#e6e6e6"
             sodipodi:nodetypes="cccccccccccccc"
             onclick="changeMap('5331-2.svg','5331')"
             onmouseover="changeColorOver('path5331')"
             onmouseout="changeColorOut('path5331')" />
          <path
             inkscape:connector-curvature="0"
             id="path5305"
             d="m -381.55037,958.20934 c -7.98614,2.59032 -11.89423,17.99883 -20.35588,19.50941 -3.19876,-0.76664 -4.51496,-7.80832 -8.21899,-6.18555 -1.47041,14.22128 -0.055,31.3986 13.03149,40.5918 1.5319,1.6358 3.77392,2.7168 4.16324,4.0006 -4.14088,3.3331 -2.29239,9.8122 2.68051,12.4056 5.12005,3.2006 13.26608,9.3389 10.75723,16.6602 -2.26881,4.2506 1.5615,8.628 5.39902,8.4336 9.21064,-0.6599 16.024,-7.6087 22.875,-13.375 3.37815,-1.7917 4.12865,4.722 6.4375,6.0938 3.85229,4.6394 9.64081,-0.1909 12.0625,-3.8438 10.62789,-12.7405 7.52185,-18.5456 20.10503,-30.001 7.34506,-12.2419 1.35202,-12.0307 -2.49891,-11.2854 -9.52256,5.498 -21.49337,3.0146 -28.16862,-5.4636 -3.85041,-1.93259 -5.92261,-8.44881 -3.91091,-12.66306 2.22095,-2.87489 -11.73447,-0.77281 -14.49165,-4.87273 -3.60207,-7.87364 1.45871,-10.89358 -1.79718,-12.52032 -0.85698,-8.27342 -5.7773,1.00374 -11.86742,1.20779 -0.44971,-3.01239 -2.43979,-9.39971 -6.20196,-8.69237 z"
             style="fill:#e6e6e6"
             sodipodi:nodetypes="cccccccccccccccccccc"
             onclick="changeMap('5305-2.svg','5305')"
             onmouseover="changeColorOver('path5305')"
             onmouseout="changeColorOut('path5305')" />
          <path
             inkscape:connector-curvature="0"
             id="path5323"
             d="m -225.53125,932.875 c -9.71968,2.89345 -23.58448,5.3708 -30.93696,13.49019 -2.97197,0.271 -1.76382,12.69021 -1.21929,19.85356 0.95718,9.3655 3.53693,19.92598 0.8125,28.46875 -5.60445,-2.31755 -11.49541,2.23528 -11.625,8.0313 -0.88827,6.0596 -0.67923,12.2812 -3.70853,18.25 12.31353,2.3721 15.67013,11.0087 20.9082,16.125 4.27457,6.0398 5.84414,11.4117 10.76462,11.1741 5.77092,-2.075 24.51211,-5.9045 31.56696,0.1696 3.86646,2.1766 5.598,-0.158 5.4375,-3.8125 0.35304,-9.4601 -4.74379,-21.3571 3.125,-28.8438 2.54113,-2.1189 5.92028,-2.5991 9.0625,-3.25 -0.66837,-1.8676 -4.91736,-6.7353 -0.6875,-7.2812 4.46401,-0.6169 13.14687,-1.2126 11.90625,-7.90625 3.23024,-12.05982 -1.46999,-24.35627 -4.375,-35.6875 2.15783,-3.48219 4.73025,-11.01071 -1.1875,-12.21875 -8.59959,-1.06897 -18.40374,5.93892 -26.0625,0.0312 -2.17464,-1.99342 -1.78317,-6.44932 -5.65625,-4.09375 -3.24009,1.37495 -5.88414,-1.21004 -4.90625,-4.46875 0.19789,-2.79893 1.17429,-8.13239 -3.21875,-8.03125 z"
             style="fill:#e6e6e6"
             sodipodi:nodetypes="ccccccccccccccccccccc"
             onclick="changeMap('5323-2.svg','5323')"
             onmouseover="changeColorOver('path5323')"
             onmouseout="changeColorOut('path5323')" />
          <path
             inkscape:connector-curvature="0"
             id="path5303"
             d="m -125.78125,900.65625 c -6.73509,0.11544 -7.34775,8.64539 -10.15028,13.42942 -2.83572,7.04833 -4.54026,16.39165 -5.25107,23.99683 6.09241,5.17192 7.43445,15.39825 10.84718,32.51811 -0.96801,10.21353 -6.25463,21.74541 -3.57119,31.68189 0.59616,3.6594 1.29645,4.8432 2.87536,8.1237 0.71344,6.8463 7.37122,10.6206 11.24265,16.7288 21.224083,-1.7718 16.35835,8.7508 17.82993,13.5142 12.334975,-0.602 22.085703,7.5381 29.528279,-0.5532 -5.991793,-10.5008 -0.546128,-24.2649 5.399141,-33.5648 2.944529,-8.06165 -0.680471,-16.9908 -7.625,-21.5937 -5.944797,-4.22393 -14.565375,-11.81453 -9.600803,-19.76919 5.457985,-12.4648 11.963138,-24.74157 14.507053,-38.19956 -3.280337,-7.01752 -11.58167,-11.50322 -19,-8.09375 -8.215279,2.3224 -15.10171,10.47518 -24.15625,8.625 -6.59918,-3.79497 -3.49164,-13.24826 -5.1875,-19.5 -0.32308,-3.90054 -3.31731,-7.96765 -7.6875,-7.34375 z"
             style="fill:#e6e6e6"
             sodipodi:nodetypes="ccccccccccccccccc"
             onclick="changeMap('5303-2.svg','5303')"
             onmouseover="changeColorOver('path5303')"
             onmouseout="changeColorOut('path5303')" />
          <path
             inkscape:connector-curvature="0"
             id="path5301"
             d="m -147.375,937.8125 c -6.7761,0.12534 -13.03218,6.72792 -19.71875,4.0625 -2.38986,-4.33856 -10.81104,-5.45976 -11.84375,0.59375 -5.29821,5.77011 0.0481,16.7268 -4.55614,19.07858 3.90596,12.24358 6.83442,22.39315 3.65652,41.17307 -6.83659,4.584 -19.34046,0.099 -10.19663,9.8091 2.01788,7.6756 5.86375,13.0892 4.71993,21.6405 1.36324,5.7639 4.87364,5.5342 7.61942,5.355 9.51392,-4.1584 10.7141,-2.1834 14.13823,-0.5116 13.63518,-1.4166 10.55733,-14.7469 14.74313,-18.5822 2.97164,-4.0246 3.33524,-0.914 3.49334,3.2786 1.03584,4.447 1.1366,8.0751 2.16345,12.5402 3.25427,-2.0147 4.3354,-8.5906 9.375,-6.2812 3.9801,1.783 10.77149,3.0627 12.40625,-2.5626 0.83117,-3.005 -4.46326,-4.5565 -5.6875,-7.5937 -7.74659,-10.63 -11.23236,-25.02504 -7.90625,-37.8125 5.26062,-5.39523 2.96826,-14.42373 1.42806,-21.42658 -1.1207,-6.98947 -2.60822,-8.70586 -3.42806,-13.04217 -0.73065,-5.2614 -4.46906,-10.54159 -10.40625,-9.71875 z"
             style="fill:#e6e6e6;fill-opacity:1"
             sodipodi:nodetypes="ccccccccccccccccccc"
             onclick="changeMap('5301-2.svg','5301')"
             onmouseover="changeColorOver('path5301')"
             onmouseout="changeColorOut('path5301')" />
          <path
             inkscape:connector-curvature="0"
             id="path5329"
             d="m -332.02868,922.41112 c -4.49823,10.0467 -7.39387,11.26899 -15.1348,16.46258 -4.67094,1.92935 -9.04425,2.64263 -11.9375,6.56315 -5.59136,5.67324 -5.24522,15.39781 -0.96152,21.7819 -2.73832,3.66391 -3.35481,10.93833 2.5625,11.625 4.262,0.93221 9.11608,-0.044 12.875,2.21875 -4.89055,6.29366 0.39469,14.2374 6.28125,17.5 4.22506,2.7888 7.39544,3.7774 13.29804,3.6192 8.64478,-0.7762 13.23062,-5.2504 17.13946,0.3808 -1.51938,5.812 -1.53786,7.9744 0.0942,7.9604 3.69843,0.9289 4.40678,2.4315 6.4032,5.4282 0.31746,3.8066 0.41714,5.4166 -0.99557,9.467 5.05387,2.1304 8.7614,0.4677 13.22961,0.1227 6.91378,-3.1424 13.72283,-1.4664 16.57637,-6.9783 5.0631,-7.6375 0.10229,-16.446 6.52868,-23.21386 3.57252,-2.03722 5.09008,-2.5897 8.66557,-1.81866 3.42262,-12.51602 -3.42247,-14.35513 -1.81411,-46.90917 -3.25103,-3.46966 -8.76137,0.25562 -10.67609,3.50097 -4.24314,7.56899 -11.54891,6.76078 -13.82648,-0.30634 -3.26709,-7.06324 -0.31019,-18.39067 -3.57487,-26.13375 -6.36567,-7.94061 -16.40448,-0.78295 -25.32672,-1.30342 -7.14828,0.13889 -12.78718,-6.72082 -18.67047,-11.1689 0.35417,1.48958 1.52573,8.45927 -0.5723,9.32255 z"
             style="fill:#e6e6e6"
             sodipodi:nodetypes="cccccccccccccccccccccccc"
             onclick="changeMap('5329-2.svg','5329')"
             onmouseover="changeColorOver('path5329')"
             onmouseout="changeColorOut('path5329')" />
          <path
             inkscape:connector-curvature="0"
             id="path5333"
             d="m -396.65625,829.84375 c -7.02391,1.59859 -5.17576,10.90056 -4.1875,16.0625 1.36749,6.73645 3.66626,13.20679 6.09375,19.625 6.42883,-5.73137 16.76504,-2.58389 20.09375,5 3.77627,8.04429 0.69276,17.3396 2.0625,25.875 0.34294,14.86115 0.91115,29.9533 -2.21875,44.53125 -4.66819,3.25338 -8.81577,9.73996 -4.75,15.15625 2.19776,2.86563 4.29346,5.6231 6.21875,8.5625 4.927,2.10489 6.88409,-5.23447 8.40424,-8.59604 1.15669,-4.8353 1.32876,-10.74441 6.40826,-13.43521 8.19004,-5.24297 19.54046,-7.46423 23.375,-17.53125 4.8493,-6.91299 4.96683,-18.2602 -3.3125,-22.625 -6.109,-3.66275 -13.71745,-4.05728 -20.71875,-3.3125 -7.10281,-14.32521 -4.48413,-31.21288 -9.5625,-46.15625 1.36569,-8.0291 -3.99843,-16.06914 -12.0625,-17.5 -4.62154,-1.07197 -9.31254,-2.45136 -12.90625,-5.40625 -0.95393,-0.25949 -1.94888,-0.34168 -2.9375,-0.25 z"
             style="fill:#e6e6e6"
             onmouseover="changeColorOver('path5333')"
             onclick="changeMap('5333-2.svg','5333')"
             onmouseout="changeColorOut('path5333')" />
          <path
             inkscape:connector-curvature="0"
             id="path5307"
             d="m -277,853.09375 c -11.17625,0.48013 -14.49548,13.03545 -16.71875,21.78125 -0.84527,5.52105 -4.45283,10.09906 -6.83731,14.61372 -1.18723,4.08428 -2.23726,10.82181 -6.97519,11.94878 -4.61408,-1.57563 -3.59328,-8.69855 -8.34375,-9.53125 -6.62737,-4.55304 -8.10343,-14.153 -15,-18.125 -5.42177,-0.16937 -4.37611,7.38869 -4.75,11.03125 -0.3085,14.20291 5.4152,31.78467 20.65625,35.65625 9.00557,3.15671 18.33477,-5.01583 26.8125,-0.0937 6.28079,6.75768 2.6767,17.23882 4.6875,25.59375 0.0209,4.41815 3.75915,10.70603 8.75,7.59375 4.11438,-3.15088 7.24653,-10.21962 13,-9.125 4.04935,2.17442 8.64963,-1.08074 9.88,-3.39732 14.61597,-6.78163 15.68862,-5.97735 22.34125,-8.28125 2.6109,-2.64284 -3.64542,-5.33319 -3.1275,-7.69643 4.12707,-9.69596 -5.77795,-17.44743 -10.73245,-24.41936 -2.32675,-3.01003 -4.19373,-7.21238 -2.20505,-11.01814 -12.99004,-7.69219 -15.3907,-24.04091 -23.3125,-35.71875 -2.67048,-0.54192 -5.38407,-1.07188 -8.125,-0.8125 z"
             style="fill:#e6e6e6"
             sodipodi:nodetypes="cccccccccccccccccccc"
             onmouseover="changeColorOver('path5307')"
             onclick="changeMap('5307-2.svg','5307')"
             onmouseout="changeColorOut('path5307')" />
          <path
             inkscape:connector-curvature="0"
             id="path5334"
             d="m -356.25,786.125 c -0.10713,4.53542 -3.41532,11.72316 -8.65625,11.125 -3.09309,-1.55144 -2.65239,-7.94925 -6.9375,-5.15625 -5.18048,4.45113 -2.07148,12.59675 -1.71875,18.40625 0.87863,11.13077 5.79923,32.5989 6.14442,41.57388 3.76532,18.73429 4.33168,21.0785 5.20399,32.79982 1.99383,5.52078 2.43644,9.52318 3.60331,12.34505 6.00439,-0.40056 17.27023,2.1889 21.81812,4.10251 2.41163,3.35371 1.0957,-5.70099 0.25675,-8.44691 0.57747,-6.80889 -1.12726,-11.39841 0.66348,-17.86916 1.33135,-3.46772 6.84389,-2.94757 8.47598,-0.55893 6.18922,6.37865 6.72002,11.58382 13.3027,17.45999 5.04515,5.58772 6.49809,12.15946 8.45823,5.65808 1.05835,-3.02735 10.07668,-16.70484 9.56346,-19.86515 2.81553,-8.80162 7.11698,-19.11536 2.38456,-25.10543 -3.41148,-6.19572 -12.54035,-12.50296 -8.5625,-20.40625 4.27335,-5.03734 -1.07308,-11.5274 -3.84375,-16.03125 -4.46865,-5.61602 -10.29329,-11.87387 -17.6875,-12.8125 -9.26929,1.8512 -9.88914,13.27823 -11.65625,20.75 -0.90393,2.05948 -0.55478,8.03307 -3.875,7.6875 -11.46792,-5.93823 -11.00866,-20.85555 -11.33173,-31.99982 0.18846,-7.40845 -0.13766,-15.25331 -5.85577,-20.81268 0.0833,2.38542 0.16667,4.77083 0.25,7.15625 z"
             style="fill:#e6e6e6"
             sodipodi:nodetypes="ccccccccccccccccccccccc"
             onmouseover="changeColorOver('path5334')"
             onclick="changeMap('5334-2.svg','5334')"
             onmouseout="changeColorOut('path5334')" />
          <path
             inkscape:connector-curvature="0"
             id="path5306"
             d="m -99.674241,816.63396 c -4.786199,2.46356 -11.441289,-0.35603 -15.281249,4.25 -3.75694,5.22449 1.93429,13.48191 -3.21875,17.875 -9.50923,0.68412 -15.40072,9.63619 -16.18541,18.45141 -1.67865,8.90199 -1.48065,19.27941 -8.18959,26.04859 -9.82901,3.03368 -13.41217,14.5144 -10.98845,23.79832 1.3602,7.41002 7.11293,23.50587 10.25438,30.30951 3.66518,-8.88561 2.75177,-21.91663 7.7888,-29.11875 6.69442,-11.80198 12.07656,-10.50315 16.70644,-6.98401 7.45912,4.20951 13.58127,-3.4889 19.130619,-5.61547 7.825118,-4.49769 13.986163,-12.15129 20.947301,-9.63311 7.492864,2.32381 14.680696,0.73334 21.942159,-2.60024 9.183284,1.64316 17.81894,-6.97082 16.09375,-16.1875 -1.855323,-5.75766 -1.343981,-12.62671 -5.5,-17.40625 -5.850142,-5.18515 -13.539096,1.02917 -17.3125,5.84375 -9.019116,9.528 -29.195697,1.7613 -28.125,-12.03125 0.127825,-3.13593 1.60099,-5.91002 2.96875,-8.6875 -3.728629,0.48084 -9.058168,-1.02657 -8,-5.75 0.09058,-3.79294 3.890555,-11.40546 -2.03125,-12.59375 -0.331425,0.0215 -0.673892,-0.0426 -1,0.0312 z"
             style="fill:#e6e6e6;stroke:none"
             sodipodi:nodetypes="ccccccccccccccccccccc"
             onmouseover="changeColorOver('path5306')"
             onclick="changeMap('5306-2.svg','5306')"
             onmouseout="changeColorOut('path5306')" />
          <g
             id="g5306"
             onclick="changeMap('5306-2.svg','5306')"
             transform="translate(0.47597542,18.9075)">
            <text
               id="text5306-lc"
               x="-122.67094"
               y="849.59302"
               style="font-size:12px;fill:#ffffff;filter:url(#green);font-family:Sans">22</text>
          </g>
          <g
             id="g5303"
             onclick="changeMap('5303-2.svg','5303')"
             transform="translate(13.773295,121.30681)">
            <text
               id="text5303-lc"
               x="-122.67094"
               y="849.59302"
               style="font-size:12px;fill:#ffffff;filter:url(#green);font-family:Sans">22</text>
          </g>
          <g
             id="g5326"
             onclick="changeMap('5326-2.svg','5326')"
             transform="translate(44.824743,235.49877)">
            <text
               id="text5326-lc"
               x="-122.67094"
               y="849.59302"
               style="font-size:12px;fill:#ffffff;filter:url(#green);font-family:Sans">22</text>
          </g>
          <g
             id="g5325"
             onclick="changeMap('5325-2.svg','5325')"
             transform="translate(-34.784666,265.53115)">
            <text
               id="text5325-lc"
               x="-122.67094"
               y="849.59302"
               style="font-size:12px;fill:#ffffff;filter:url(#green);font-family:Sans">22</text>
          </g>
          <g
             id="g5304"
             onclick="changeMap('5304-2.svg','5304')"
             transform="translate(-69.756111,218.56036)">
            <text
               id="text5304-lc"
               x="-122.67094"
               y="849.59302"
               style="font-size:12px;fill:#ffffff;filter:url(#green);font-family:Sans">22</text>
          </g>
          <g
             id="g5301"
             onclick="changeMap('5301-2.svg','5301')"
             transform="translate(-46.123426,139.60854)">
            <text
               id="text5301-lc"
               x="-122.67094"
               y="849.59302"
               style="font-size:12px;fill:#ffffff;filter:url(#green);font-family:Sans">22</text>
          </g>
          <g
             id="g5323"
             onclick="changeMap('5323-2.svg','5323')"
             transform="translate(-112.74977,127.93111)">
            <text
               id="text5323-lc"
               x="-122.67094"
               y="849.59302"
               style="font-size:12px;fill:#ffffff;filter:url(#green);font-family:Sans">22</text>
          </g>
          <g
             id="g5334"
             onclick="changeMap('5334-2.svg','5334')"
             transform="translate(-222.11698,15.646319)">
            <text
               id="text5334-lc"
               x="-122.67094"
               y="849.59302"
               style="font-size:12px;fill:#ffffff;filter:url(#green);font-family:Sans">22</text>
          </g>
          <g
             id="g5333"
             onclick="changeMap('5333-2.svg','5333')"
             transform="translate(-246.83348,66.473556)">
            <text
               id="text5333-lc"
               x="-122.67094"
               y="849.59302"
               style="font-size:12px;fill:#ffffff;filter:url(#green);font-family:Sans">22</text>
          </g>
          <g
             id="g5307"
             onclick="changeMap('5307-2.svg','5307')"
             transform="translate(-159.72028,45.750813)">
            <text
               id="text5307-lc"
               x="-122.67094"
               y="849.59302"
               style="font-size:12px;fill:#ffffff;filter:url(#green);font-family:Sans">22</text>
          </g>
          <g
             id="g5329"
             onclick="changeMap('5329-2.svg','5329')"
             transform="translate(-197.88028,111.97329)">
            <text
               id="text5329-lc"
               x="-122.67094"
               y="849.59302"
               style="font-size:12px;fill:#ffffff;filter:url(#green);font-family:Sans">22</text>
          </g>
          <g
             id="g5305"
             onclick="changeMap('5305-2.svg','5305')"
             transform="translate(-250.00872,175.98334)">
            <text
               id="text5305-lc"
               x="-122.67094"
               y="849.59302"
               style="font-size:12px;fill:#ffffff;filter:url(#green);font-family:Sans">22</text>
          </g>
          <g
             id="g5331"
             onclick="changeMap('5331-2.svg','5331')"
             transform="translate(-302.02051,204.20188)">
            <text
               id="text5331-lc"
               x="-122.67094"
               y="849.59302"
               style="font-size:12px;fill:#ffffff;filter:url(#green);font-family:Sans">22</text>
          </g>
          <g
             id="g5309"
             onclick="changeMap('5309-2.svg','5309')"
             transform="translate(-217.04632,220.43907)">
            <text
               id="text5309-lc"
               x="-122.67094"
               y="849.59302"
               style="font-size:12px;fill:#ffffff;filter:url(#green);font-family:Sans">22</text>
          </g>
          <g
             id="g5308"
             onclick="changeMap('5308-2.svg','5308')"
             transform="translate(-157.86933,266.38979)">
            <text
               id="text5308-lc"
               x="-122.67094"
               y="849.59302"
               style="font-size:12px;fill:#ffffff;filter:url(#green);font-family:Sans">22</text>
          </g>
          <g
             id="g5328"
             onclick="changeMap('5328-2.svg','5328')"
             transform="translate(-169.2185,307.05119)">
            <text
               id="text5328-lc"
               x="-108.64675"
               y="854.81647"
               style="font-size:12px;fill:#ffffff;filter:url(#green);font-family:Sans">22</text>
          </g>
          <path
             transform="matrix(0.80852695,0,0,0.77437297,-376.64479,790.73808)"
             d="m 317.85716,114.75 c 0,1.67658 -1.35914,3.03571 -3.03572,3.03571 -1.67658,0 -3.03571,-1.35913 -3.03571,-3.03571 0,-1.67658 1.35913,-3.03571 3.03571,-3.03571 1.67658,0 3.03572,1.35913 3.03572,3.03571 z"
             sodipodi:ry="3.0357144"
             sodipodi:rx="3.0357144"
             sodipodi:cy="114.75"
             sodipodi:cx="314.82144"
             id="path5561"
             style="fill:#d40000;fill-opacity:1;stroke:#dd66ff;stroke-opacity:0"
             sodipodi:type="arc" />
          <text
             transform="scale(1.0218147,0.97865102)"
             sodipodi:linespacing="125%"
             id="text5563"
             y="902.42529"
             x="-112.36803"
             style="font-size:39.66344452px;font-style:normal;font-weight:normal;line-height:125%;letter-spacing:0px;word-spacing:0px;fill:#000000;fill-opacity:1;stroke:none;font-family:Sans"
             xml:space="preserve"><tspan
               style="font-size:11.89903355px;fill:#666666"
               y="902.42529"
               x="-112.36803"
               id="tspan5565"
               sodipodi:role="line">昭通</tspan></text>
          <path
             sodipodi:type="arc"
             style="fill:#d40000;fill-opacity:1;stroke:#dd66ff;stroke-opacity:0"
             id="path5561-6"
             sodipodi:cx="314.82144"
             sodipodi:cy="114.75"
             sodipodi:rx="3.0357144"
             sodipodi:ry="3.0357144"
             d="m 317.85716,114.75 c 0,1.67658 -1.35914,3.03571 -3.03572,3.03571 -1.67658,0 -3.03571,-1.35913 -3.03571,-3.03571 0,-1.67658 1.35913,-3.03571 3.03571,-3.03571 1.67658,0 3.03572,1.35913 3.03572,3.03571 z"
             transform="matrix(0.80852695,0,0,0.77437297,-357.04129,903.7511)" />
          <text
             transform="scale(1.0218147,0.978651)"
             sodipodi:linespacing="125%"
             id="text5689"
             y="1008.0036"
             x="-111.32959"
             style="font-size:39.66344452px;font-style:normal;font-weight:normal;line-height:125%;letter-spacing:0px;word-spacing:0px;fill:#000000;fill-opacity:1;stroke:none;font-family:Sans"
             xml:space="preserve"><tspan
               style="font-size:11.89903355px;fill:#666666"
               y="1008.0036"
               x="-111.32959"
               id="tspan5691"
               sodipodi:role="line">曲靖</tspan></text>
          <path
             sodipodi:type="arc"
             style="fill:#d40000;fill-opacity:1;stroke:#dd66ff;stroke-opacity:0"
             id="path5561-6-3"
             sodipodi:cx="314.82144"
             sodipodi:cy="114.75"
             sodipodi:rx="3.0357144"
             sodipodi:ry="3.0357144"
             d="m 317.85716,114.75 c 0,1.67658 -1.35914,3.03571 -3.03572,3.03571 -1.67658,0 -3.03571,-1.35913 -3.03571,-3.03571 0,-1.67658 1.35913,-3.03571 3.03571,-3.03571 1.67658,0 3.03572,1.35913 3.03572,3.03571 z"
             transform="matrix(0.80852695,0,0,0.77437297,-334.5242,1008.6399)" />
          <text
             transform="scale(1.0218147,0.97865102)"
             sodipodi:linespacing="125%"
             id="text5689-2"
             y="1125.3914"
             x="-71.442314"
             style="font-size:39.66344452px;font-style:normal;font-weight:normal;line-height:125%;letter-spacing:0px;word-spacing:0px;fill:#000000;fill-opacity:1;stroke:none;font-family:Sans"
             xml:space="preserve"><tspan
               style="font-size:11.89903355px;fill:#666666"
               y="1125.3914"
               x="-71.442314"
               id="tspan5691-1"
               sodipodi:role="line">文山</tspan></text>
          <path
             sodipodi:type="arc"
             style="fill:#d40000;fill-opacity:1;stroke:#dd66ff;stroke-opacity:0"
             id="path5561-6-3-8"
             sodipodi:cx="314.82144"
             sodipodi:cy="114.75"
             sodipodi:rx="3.0357144"
             sodipodi:ry="3.0357144"
             d="m 317.85716,114.75 c 0,1.67658 -1.35914,3.03571 -3.03572,3.03571 -1.67658,0 -3.03571,-1.35913 -3.03571,-3.03571 0,-1.67658 1.35913,-3.03571 3.03571,-3.03571 1.67658,0 3.03572,1.35913 3.03572,3.03571 z"
             transform="matrix(0.80852695,0,0,0.77437297,-394.14331,1008.3948)" />
          <text
             transform="scale(1.0218147,0.97865102)"
             sodipodi:linespacing="125%"
             id="text5689-2-6"
             y="1123.0419"
             x="-165.70384"
             style="font-size:39.66344452px;font-style:normal;font-weight:normal;line-height:125%;letter-spacing:0px;word-spacing:0px;fill:#000000;fill-opacity:1;stroke:none;font-family:Sans"
             xml:space="preserve"><tspan
               style="font-size:11.89903355px;fill:#666666"
               y="1123.0419"
               x="-165.70384"
               id="tspan5691-1-3"
               sodipodi:role="line">红河</tspan></text>
          <path
             sodipodi:type="arc"
             style="fill:#d40000;fill-opacity:1;stroke:#dd66ff;stroke-opacity:0"
             id="path5561-6-3-8-3"
             sodipodi:cx="314.82144"
             sodipodi:cy="114.75"
             sodipodi:rx="3.0357144"
             sodipodi:ry="3.0357144"
             d="m 317.85716,114.75 c 0,1.67658 -1.35914,3.03571 -3.03572,3.03571 -1.67658,0 -3.03571,-1.35913 -3.03571,-3.03571 0,-1.67658 1.35913,-3.03571 3.03571,-3.03571 1.67658,0 3.03572,1.35913 3.03572,3.03571 z"
             transform="matrix(0.80852695,0,0,0.77437297,-419.88749,926.07655)" />
          <text
             transform="scale(1.0218147,0.97865102)"
             sodipodi:linespacing="125%"
             id="text5689-2-6-2"
             y="1026.4259"
             x="-171.74117"
             style="font-size:39.66344452px;font-style:normal;font-weight:normal;line-height:125%;letter-spacing:0px;word-spacing:0px;fill:#000000;fill-opacity:1;stroke:none;font-family:Sans"
             xml:space="preserve"><tspan
               style="font-size:11.89903355px;fill:#666666"
               y="1026.4259"
               x="-171.74117"
               id="tspan5691-1-3-8"
               sodipodi:role="line">昆明</tspan></text>
          <path
             sodipodi:type="arc"
             style="fill:#d40000;fill-opacity:1;stroke:#dd66ff;stroke-opacity:0"
             id="path5561-6-3-8-3-6"
             sodipodi:cx="314.82144"
             sodipodi:cy="114.75"
             sodipodi:rx="3.0357144"
             sodipodi:ry="3.0357144"
             d="m 317.85716,114.75 c 0,1.67658 -1.35914,3.03571 -3.03572,3.03571 -1.67658,0 -3.03571,-1.35913 -3.03571,-3.03571 0,-1.67658 1.35913,-3.03571 3.03571,-3.03571 1.67658,0 3.03572,1.35913 3.03572,3.03571 z"
             transform="matrix(0.80852695,0,0,0.77437297,-423.50612,960.73429)" />
          <text
             transform="scale(1.0218147,0.97865102)"
             sodipodi:linespacing="125%"
             id="text5689-2-6-2-0"
             y="1074.9427"
             x="-199.76454"
             style="font-size:39.66344452px;font-style:normal;font-weight:normal;line-height:125%;letter-spacing:0px;word-spacing:0px;fill:#000000;fill-opacity:1;stroke:none;font-family:Sans"
             xml:space="preserve"><tspan
               style="font-size:11.89903355px;fill:#666666"
               y="1074.9427"
               x="-199.76454"
               id="tspan5691-1-3-8-1"
               sodipodi:role="line">玉溪</tspan></text>
          <path
             sodipodi:type="arc"
             style="fill:#d40000;fill-opacity:1;stroke:#dd66ff;stroke-opacity:0"
             id="path5561-6-3-8-2"
             sodipodi:cx="314.82144"
             sodipodi:cy="114.75"
             sodipodi:rx="3.0357144"
             sodipodi:ry="3.0357144"
             d="m 317.85716,114.75 c 0,1.67658 -1.35914,3.03571 -3.03572,3.03571 -1.67658,0 -3.03571,-1.35913 -3.03571,-3.03571 0,-1.67658 1.35913,-3.03571 3.03571,-3.03571 1.67658,0 3.03572,1.35913 3.03572,3.03571 z"
             transform="matrix(0.80852695,0,0,0.77437297,-504.92536,1085.1556)" />
          <text
             transform="scale(1.0218147,0.97865102)"
             sodipodi:linespacing="125%"
             id="text5689-2-6-6"
             y="1203.849"
             x="-300.29321"
             style="font-size:39.66344452px;font-style:normal;font-weight:normal;line-height:125%;letter-spacing:0px;word-spacing:0px;fill:#000000;fill-opacity:1;stroke:none;font-family:Sans"
             xml:space="preserve"><tspan
               style="font-size:11.89903355px;fill:#666666"
               y="1203.849"
               x="-300.29321"
               id="tspan5691-1-3-0"
               sodipodi:role="line">西双版纳</tspan></text>
          <path
             sodipodi:type="arc"
             style="fill:#d40000;fill-opacity:1;stroke:#dd66ff;stroke-opacity:0"
             id="path5561-6-3-8-2-5"
             sodipodi:cx="314.82144"
             sodipodi:cy="114.75"
             sodipodi:rx="3.0357144"
             sodipodi:ry="3.0357144"
             d="m 317.85716,114.75 c 0,1.67658 -1.35914,3.03571 -3.03572,3.03571 -1.67658,0 -3.03571,-1.35913 -3.03571,-3.03571 0,-1.67658 1.35913,-3.03571 3.03571,-3.03571 1.67658,0 3.03572,1.35913 3.03572,3.03571 z"
             transform="matrix(0.80852695,0,0,0.77437297,-507.82027,1040.4471)" />
          <text
             transform="scale(1.0218147,0.97865102)"
             sodipodi:linespacing="125%"
             id="text5689-2-6-4"
             y="1156.3947"
             x="-282.23218"
             style="font-size:39.66344452px;font-style:normal;font-weight:normal;line-height:125%;letter-spacing:0px;word-spacing:0px;fill:#000000;fill-opacity:1;stroke:none;font-family:Sans"
             xml:space="preserve"><tspan
               style="font-size:11.89903355px;fill:#666666"
               y="1156.3947"
               x="-282.23218"
               id="tspan5691-1-3-6"
               sodipodi:role="line">普洱</tspan></text>
          <path
             sodipodi:type="arc"
             style="fill:#d40000;fill-opacity:1;stroke:#dd66ff;stroke-opacity:0"
             id="path5561-6-3-8-2-5-7"
             sodipodi:cx="314.82144"
             sodipodi:cy="114.75"
             sodipodi:rx="3.0357144"
             sodipodi:ry="3.0357144"
             d="m 317.85716,114.75 c 0,1.67658 -1.35914,3.03571 -3.03572,3.03571 -1.67658,0 -3.03571,-1.35913 -3.03571,-3.03571 0,-1.67658 1.35913,-3.03571 3.03571,-3.03571 1.67658,0 3.03572,1.35913 3.03572,3.03571 z"
             transform="matrix(0.80852695,0,0,0.77437297,-569.33703,994.00572)" />
          <text
             transform="scale(1.0218147,0.97865102)"
             sodipodi:linespacing="125%"
             id="text5689-2-6-4-9"
             y="1109.7355"
             x="-339.44568"
             style="font-size:39.66344452px;font-style:normal;font-weight:normal;line-height:125%;letter-spacing:0px;word-spacing:0px;fill:#000000;fill-opacity:1;stroke:none;font-family:Sans"
             xml:space="preserve"><tspan
               style="font-size:11.89903355px;fill:#666666"
               y="1109.7355"
               x="-339.44568"
               id="tspan5691-1-3-6-3"
               sodipodi:role="line">临沧</tspan></text>
          <path
             sodipodi:type="arc"
             style="fill:#d40000;fill-opacity:1;stroke:#dd66ff;stroke-opacity:0"
             id="path5561-6-3-8-2-5-7-4"
             sodipodi:cx="314.82144"
             sodipodi:cy="114.75"
             sodipodi:rx="3.0357144"
             sodipodi:ry="3.0357144"
             d="m 317.85716,114.75 c 0,1.67658 -1.35914,3.03571 -3.03572,3.03571 -1.67658,0 -3.03571,-1.35913 -3.03571,-3.03571 0,-1.67658 1.35913,-3.03571 3.03571,-3.03571 1.67658,0 3.03572,1.35913 3.03572,3.03571 z"
             transform="matrix(0.80852695,0,0,0.77437297,-650.01932,950.06881)" />
          <text
             transform="scale(1.0218147,0.97865102)"
             sodipodi:linespacing="125%"
             id="text5689-2-6-4-9-7"
             y="1064.6992"
             x="-420.30536"
             style="font-size:39.66344452px;font-style:normal;font-weight:normal;line-height:125%;letter-spacing:0px;word-spacing:0px;fill:#000000;fill-opacity:1;stroke:none;font-family:Sans"
             xml:space="preserve"><tspan
               style="font-size:11.89903355px;fill:#666666"
               y="1064.6992"
               x="-420.30536"
               id="tspan5691-1-3-6-3-8"
               sodipodi:role="line">德宏</tspan></text>
          <path
             sodipodi:type="arc"
             style="fill:#d40000;fill-opacity:1;stroke:#dd66ff;stroke-opacity:0"
             id="path5561-6-3-8-2-5-7-4-8"
             sodipodi:cx="314.82144"
             sodipodi:cy="114.75"
             sodipodi:rx="3.0357144"
             sodipodi:ry="3.0357144"
             d="m 317.85716,114.75 c 0,1.67658 -1.35914,3.03571 -3.03572,3.03571 -1.67658,0 -3.03571,-1.35913 -3.03571,-3.03571 0,-1.67658 1.35913,-3.03571 3.03571,-3.03571 1.67658,0 3.03572,1.35913 3.03572,3.03571 z"
             transform="matrix(0.80852695,0,0,0.77437297,-602.93813,918.7002)" />
          <text
             transform="scale(1.0218147,0.97865102)"
             sodipodi:linespacing="125%"
             id="text5689-2-6-4-9-7-1"
             y="1032.1398"
             x="-372.728"
             style="font-size:39.66344452px;font-style:normal;font-weight:normal;line-height:125%;letter-spacing:0px;word-spacing:0px;fill:#000000;fill-opacity:1;stroke:none;font-family:Sans"
             xml:space="preserve"><tspan
               style="font-size:11.89903355px;fill:#666666"
               y="1032.1398"
               x="-372.728"
               id="tspan5691-1-3-6-3-8-6"
               sodipodi:role="line">保山</tspan></text>
          <path
             sodipodi:type="arc"
             style="fill:#d40000;fill-opacity:1;stroke:#dd66ff;stroke-opacity:0"
             id="path5561-6-3-8-3-3"
             sodipodi:cx="314.82144"
             sodipodi:cy="114.75"
             sodipodi:rx="3.0357144"
             sodipodi:ry="3.0357144"
             d="m 317.85716,114.75 c 0,1.67658 -1.35914,3.03571 -3.03572,3.03571 -1.67658,0 -3.03571,-1.35913 -3.03571,-3.03571 0,-1.67658 1.35913,-3.03571 3.03571,-3.03571 1.67658,0 3.03572,1.35913 3.03572,3.03571 z"
             transform="matrix(0.80852695,0,0,0.77437297,-481.65291,911.83832)" />
          <text
             transform="scale(1.0218147,0.97865102)"
             sodipodi:linespacing="125%"
             id="text5689-2-6-2-8"
             y="1014.5236"
             x="-235.36092"
             style="font-size:39.66344452px;font-style:normal;font-weight:normal;line-height:125%;letter-spacing:0px;word-spacing:0px;fill:#000000;fill-opacity:1;stroke:none;font-family:Sans"
             xml:space="preserve"><tspan
               style="font-size:11.89903355px;fill:#666666"
               y="1014.5236"
               x="-235.36092"
               id="tspan5691-1-3-8-7"
               sodipodi:role="line">楚雄</tspan></text>
          <path
             sodipodi:type="arc"
             style="fill:#d40000;fill-opacity:1;stroke:#dd66ff;stroke-opacity:0"
             id="path5561-6-3-8-3-3-6"
             sodipodi:cx="314.82144"
             sodipodi:cy="114.75"
             sodipodi:rx="3.0357144"
             sodipodi:ry="3.0357144"
             d="m 317.85716,114.75 c 0,1.67658 -1.35914,3.03571 -3.03572,3.03571 -1.67658,0 -3.03571,-1.35913 -3.03571,-3.03571 0,-1.67658 1.35913,-3.03571 3.03571,-3.03571 1.67658,0 3.03572,1.35913 3.03572,3.03571 z"
             transform="matrix(0.80852695,0,0,0.77437297,-553.29819,883.90066)" />
          <text
             transform="scale(1.0218147,0.97865102)"
             sodipodi:linespacing="125%"
             id="text5689-2-6-2-8-1"
             y="998.06616"
             x="-321.29971"
             style="font-size:39.66344452px;font-style:normal;font-weight:normal;line-height:125%;letter-spacing:0px;word-spacing:0px;fill:#000000;fill-opacity:1;stroke:none;font-family:Sans"
             xml:space="preserve"><tspan
               style="font-size:11.89903355px;fill:#666666"
               y="998.06616"
               x="-321.29971"
               id="tspan5691-1-3-8-7-7"
               sodipodi:role="line">大理</tspan></text>
          <path
             sodipodi:type="arc"
             style="fill:#d40000;fill-opacity:1;stroke:#dd66ff;stroke-opacity:0"
             id="path5561-6-3-8-3-3-6-2"
             sodipodi:cx="314.82144"
             sodipodi:cy="114.75"
             sodipodi:rx="3.0357144"
             sodipodi:ry="3.0357144"
             d="m 317.85716,114.75 c 0,1.67658 -1.35914,3.03571 -3.03572,3.03571 -1.67658,0 -3.03571,-1.35913 -3.03571,-3.03571 0,-1.67658 1.35913,-3.03571 3.03571,-3.03571 1.67658,0 3.03572,1.35913 3.03572,3.03571 z"
             transform="matrix(0.80852695,0,0,0.77437297,-544.34253,819.44797)" />
          <text
             transform="scale(1.0218147,0.97865102)"
             sodipodi:linespacing="125%"
             id="text5689-2-6-2-8-1-3"
             y="930.20404"
             x="-279.07285"
             style="font-size:39.66344452px;font-style:normal;font-weight:normal;line-height:125%;letter-spacing:0px;word-spacing:0px;fill:#000000;fill-opacity:1;stroke:none;font-family:Sans"
             xml:space="preserve"><tspan
               style="font-size:11.89903355px;fill:#666666"
               y="930.20404"
               x="-279.07285"
               id="tspan5691-1-3-8-7-7-7"
               sodipodi:role="line">丽江</tspan></text>
          <path
             sodipodi:type="arc"
             style="fill:#d40000;fill-opacity:1;stroke:#dd66ff;stroke-opacity:0"
             id="path5561-6-3-8-3-3-6-2-8"
             sodipodi:cx="314.82144"
             sodipodi:cy="114.75"
             sodipodi:rx="3.0357144"
             sodipodi:ry="3.0357144"
             d="m 317.85716,114.75 c 0,1.67658 -1.35914,3.03571 -3.03572,3.03571 -1.67658,0 -3.03571,-1.35913 -3.03571,-3.03571 0,-1.67658 1.35913,-3.03571 3.03571,-3.03571 1.67658,0 3.03572,1.35913 3.03572,3.03571 z"
             transform="matrix(0.80852695,0,0,0.77437297,-620.59358,851.30671)" />
          <text
             transform="scale(1.0218147,0.97865102)"
             sodipodi:linespacing="125%"
             id="text5689-2-6-2-8-1-3-5"
             y="952.54315"
             x="-368.72083"
             style="font-size:39.66344452px;font-style:normal;font-weight:normal;line-height:125%;letter-spacing:0px;word-spacing:0px;fill:#000000;fill-opacity:1;stroke:none;font-family:Sans"
             xml:space="preserve"><tspan
               style="font-size:11.89903355px;fill:#666666"
               y="952.54315"
               x="-368.72083"
               id="tspan5691-1-3-8-7-7-7-8"
               sodipodi:role="line">怒江</tspan></text>
          <path
             sodipodi:type="arc"
             style="fill:#d40000;fill-opacity:1;stroke:#dd66ff;stroke-opacity:0"
             id="path5561-6-3-8-3-3-6-2-8-5"
             sodipodi:cx="314.82144"
             sodipodi:cy="114.75"
             sodipodi:rx="3.0357144"
             sodipodi:ry="3.0357144"
             d="m 317.85716,114.75 c 0,1.67658 -1.35914,3.03571 -3.03572,3.03571 -1.67658,0 -3.03571,-1.35913 -3.03571,-3.03571 0,-1.67658 1.35913,-3.03571 3.03571,-3.03571 1.67658,0 3.03572,1.35913 3.03572,3.03571 z"
             transform="matrix(0.80852695,0,0,0.77437297,-578.88579,756.71076)" />
          <text
             transform="scale(1.0218147,0.97865102)"
             sodipodi:linespacing="125%"
             id="text5689-2-6-2-8-1-3-5-8"
             y="866.76758"
             x="-347.72678"
             style="font-size:39.66344452px;font-style:normal;font-weight:normal;line-height:125%;letter-spacing:0px;word-spacing:0px;fill:#000000;fill-opacity:1;stroke:none;font-family:Sans"
             xml:space="preserve"><tspan
               style="font-size:11.89903355px;fill:#666666"
               y="866.76758"
               x="-347.72678"
               id="tspan5691-1-3-8-7-7-7-8-7"
               sodipodi:role="line">迪庆</tspan></text>
        </g>
      </g>
    </g>
  </g>
</svg>
