<?xml version="1.0" encoding="UTF-8" standalone="no"?>
<!-- Created with Inkscape (http://www.inkscape.org/) -->

<svg
   xmlns:dc="http://purl.org/dc/elements/1.1/"
   xmlns:cc="http://creativecommons.org/ns#"
   xmlns:rdf="http://www.w3.org/1999/02/22-rdf-syntax-ns#"
   xmlns:svg="http://www.w3.org/2000/svg"
   xmlns="http://www.w3.org/2000/svg"
   xmlns:sodipodi="http://sodipodi.sourceforge.net/DTD/sodipodi-0.dtd"
   xmlns:inkscape="http://www.inkscape.org/namespaces/inkscape"
   id="svg16696"
   version="1.1"
   inkscape:version="0.48.5 r10040"
   width="100%"
   height="100%"
   viewBox="0 0 460 460"
   sodipodi:docname="5303-1.svg">
  <metadata
     id="metadata16702">
    <rdf:RDF>
      <cc:Work
         rdf:about="">
        <dc:format>image/svg+xml</dc:format>
        <dc:type
           rdf:resource="http://purl.org/dc/dcmitype/StillImage" />
        <dc:title />
      </cc:Work>
    </rdf:RDF>
  </metadata>
  <defs
     id="defs16700" />
  <filter
     x="-0.1"
     y="0"
     width="1.2"
     height="1"
     id="green">
    <feFlood
       flood-color="#008000"
       id="feFlood6"
       result="result1" />
    <feComposite
       in="SourceGraphic"
       id="feComposite8"
       in2="result1" />
  </filter>
  <filter
     x="-0.1"
     y="0"
     width="1.2"
     height="1"
     id="orange">
    <feFlood
       flood-color="#ff7f2a"
       id="feFlood11"
       result="result1" />
    <feComposite
       in="SourceGraphic"
       id="feComposite13"
       in2="result1" />
  </filter>
  <sodipodi:namedview
     pagecolor="#ffffff"
     bordercolor="#666666"
     borderopacity="1"
     objecttolerance="10"
     gridtolerance="10"
     guidetolerance="10"
     inkscape:pageopacity="0"
     inkscape:pageshadow="2"
     inkscape:window-width="1920"
     inkscape:window-height="1018"
     id="namedview16698"
     showgrid="false"
     inkscape:zoom="3.6782608"
     inkscape:cx="244.81416"
     inkscape:cy="290.43341"
     inkscape:window-x="-8"
     inkscape:window-y="-8"
     inkscape:window-maximized="1"
     inkscape:current-layer="svg16696" />
  <path
     style="fill:#e6e6e6"
     d="m 220.48534,350.78125 c -6.94623,-2.05685 -14.70726,10.1818 -21.64212,17.45339 -5.86888,6.15385 -11.57211,17.57309 -11.68697,26.35911 1.42857,4.29699 6.70628,1.63523 9.125,-0.15625 7.58116,8.35993 20.64416,9.13149 28.90625,15.46875 -3.51266,6.5866 2.8176,12.40225 7.3125,16.3125 3.51104,3.13845 0.60281,7.2078 -1.59375,10 -2.37817,5.13804 4.27665,8.19444 8.5,7.46875 5.39267,0.61437 9.54018,-3.24695 14.4375,-4.15625 7.98995,0.0514 7.69806,10.54025 12.3125,14.96875 5.9301,3.82511 13.97315,0.58452 19.625,-2.5 4.74518,-2.75054 8.97929,-6.58616 13.9375,-8.90625 5.54421,2.71528 13.7702,-0.3226 13.5,-7.21875 0.62946,-7.18615 -7.54471,-12.82645 -13.9375,-9.03125 -2.12301,-0.10011 -8.56153,-0.58712 -8.94979,-3.42758 -0.37908,-7.38714 -1.56162,-15.65593 -7.48943,-22.09829 -8.66671,-9.419 -20.55293,-20.12454 -33.81078,-14.81788 -4.79493,-5.4749 1.74691,-11.33385 4.875,-15.65625 3.07129,-4.05721 4.59895,-10.1032 2.00706,-14.52172 -12.227,0.44609 -23.27483,-6.44213 -35.42797,-5.54078 z"
     id="path530323"
     type="area" code="53032"  />
  <path
     style="fill:#e6e6e6"
     d="m 284.375,283.6875 c -6.30842,2.20855 -7.06064,13.22416 -15.03125,12.1875 -4.06106,-1.79965 -7.04705,4.23329 -10.3125,6.2357 -8.87579,7.4255 -15.87209,16.53186 -22.5625,25.5768 -5.66167,1.784 -6.73064,6.95858 -7.20883,11.87544 -3.6603,0.88688 -19.65739,12.78109 -3.41617,10.18706 7.17313,1.56439 13.00324,3.35645 20.34693,3.87924 4.16675,0.29662 11.50651,1.49005 11.59004,3.56096 2.14228,7.41194 -0.97622,15.16581 -7.65572,19.62235 -3.01768,2.35982 -1.98847,7.51614 2.1875,7.53125 5.6952,0.94836 14.99625,-0.88131 18.76886,4.6188 9.39867,8.15825 21.11351,17.72163 19.57754,31.79063 1.64967,3.5291 1.12173,4.50494 5.51801,4.51006 5.90127,0.05 9.75273,0.94836 8.97934,-5.51324 -0.41038,-6.93145 -3.72869,-14.37534 0.59375,-20.75 5.92061,-15.5648 11.18895,-32.91417 24.96875,-43.34375 5.13892,-3.8759 6.04911,-13.06413 -0.53125,-16.03125 -3.69163,-5.55658 -14.50562,-1.18367 -21.03125,1.43039 -3.65784,0.68569 -7.97052,-3.13884 -9.90625,-7.61789 -1.6618,-4.65911 -3.49869,-4.55802 -6.875,-13.125 -6.73858,-7.5245 -0.25847,-18.29264 -2.6875,-27.1875 -1.02061,-3.10081 -0.74755,-9.38455 -5.3125,-9.4375 z"
     id="path530324"
     type="area" code="530324" />
  <path
     style="fill:#e6e6e6"
     d="m 177.14224,385.58127 c 4.9393,-16.83508 -11.11337,-24.76523 -22.1985,-12.79682 -15.04519,2.39592 -9.69074,-26.30759 -8.9728,-35.43634 5.0078,-5.64823 -3.33751,-24.55414 8.84451,-17.76202 11.22714,-2.17582 24.46378,-8.40324 33.14635,-17.91438 13.23452,-2.28455 1.43705,17.89047 19.96684,20.59221 13.97758,-1.39373 33.41906,7.6206 13.11951,22.05133 -13.29417,10.9806 -24.57859,23.47123 -33.18974,38.15098 -2.95695,1.77591 -8.67099,10.50028 -10.71617,3.11504 z"
     id="path530322"
     type="area" code="530322" />
  <path
     style="fill:#e6e6e6"
     d="m 303.11779,337.30352 c -5.41108,-8.46109 -16.68991,-22.38365 -12.21541,-36.78328 -0.26986,-9.38941 -3.2678,-25.92955 -12.61874,-12.09316 -3.81516,7.72663 -10.13905,6.6879 -18.19259,6.05359 -7.48923,-0.58986 -14.95315,-1.50234 -22.70721,-0.45901 -4.40069,0.59212 -5.09081,-1.91715 -5.64196,-10.83201 -0.35506,-5.74315 -1.8027,-15.4561 -3.87494,-18.03193 11.96148,7.76789 1.22634,-23.21609 17.3395,-37.82125 13.96688,-12.65975 15.37261,-16.86102 15.66934,-27.58707 6.77468,-2.90774 23.74691,-9.68662 29.04786,-7.08076 -0.0306,9.1892 0.44895,35.2911 -14.1333,28.50808 -2.20032,14.43237 -3.17716,33.17927 14.7058,34.23696 -3.76221,14.9554 6.17261,20.70906 17.06365,9.11508 1.08275,8.99893 0.24115,20.61273 12.97205,23.80875 6.261,6.33159 3.79464,16.77983 15.823,15.02978 4.87927,1.50507 19.23253,4.87143 12.36022,10.94342 -17.02674,-11.98889 -7.98847,26.52083 -29.01209,21.8993 -5.79594,1.8496 -13.18502,6.4102 -16.58518,1.09351 z"
     id="path530325"
     type="area" code="530325" />
  <path
     style="fill:#e6e6e6"
     d="m 178.73277,256.19134 c 0.91665,3.25047 2.50376,14.40549 -0.92027,16.52741 -1.75516,6.68726 -0.0315,8.51425 3.68485,8.94333 3.7834,0.57391 4.04247,4.55883 4.64301,7.70603 1.96442,10.2948 4.22085,10.09247 11.23464,15.97564 0.96043,4.52307 -0.2045,10.4905 4.40625,13.5625 7.62635,5.94616 19.38401,-0.0339 26.28125,6.71875 1.90111,8.70414 4.07624,3.86594 10.6875,-1.96875 5.41838,-6.30982 8.67552,-14.34215 16.0535,-18.58422 12.19466,-10.69227 9.93878,-9.96456 0.82155,-10.07203 -5.58115,-2.16307 -12.66077,-0.77451 -18.12219,0.14721 -7.80242,-1.80134 -5.86474,-5.02557 -6.34862,-8.8959 0.31561,-1.5781 -0.7955,-10.77532 -1.31136,-13.21476 -1.62307,-5.61003 -1.7724,-7.34009 -7.31202,-17.69991 -2.84716,-3.53494 -7.01119,0.83918 -10.68706,0.88211 -10.98954,4.82154 -20.28134,-1.23301 -29.5625,-4.90625 -0.59447,-0.12129 -1.27426,-0.9209 -2.0164,-1.12478 -14.03799,-4.24042 -2.34188,2.67982 -1.53213,6.00362 z"
     id="path530302"
     type="area" code="530302" />
  <path
     style="fill:#e6e6e6"
     d="m 168.34375,250.3125 c -9.27246,0.59395 -17.46124,6.97046 -26.90625,6.0625 -2.67317,10.30167 -12.74671,15.58629 -18.875,23.46875 -5.0863,2.29159 -6.94694,8.80923 -3.48162,13.26504 2.32824,3.05938 3.31354,8.24086 -0.83088,10.17246 -4.87027,3.40413 -3.55769,10.04855 -0.25,14.09375 2.03925,3.30645 1.47609,7.3696 0.78125,11.03125 3.61976,-0.8717 5.05457,-5.03792 7.875,-6.53125 4.46958,1.91766 8.61315,-3.60545 13.34375,-4.09375 4.95255,-1.99073 10.11856,-0.0279 14.90625,0.4375 12.42235,-1.95209 26.39536,-10.37566 34.05924,-17.94313 -3.45784,-3.89712 -2.01673,-13.5277 -6.19007,-16.29625 -2.57778,-1.71007 -6.90518,-3.14641 -6.14849,-7.81468 1.483,-8.5047 5.24243,-15.34342 -1.09568,-23.19594 -1.75519,-2.02122 -4.57278,-2.84289 -7.1875,-2.65625 z"
     id="path530321"
     type="area" code="530321" />
  <path
     style="fill:#e6e6e6"
     d="m 163.74602,165.59552 c -4.85231,3.45419 -10.74138,10.33822 -10.91931,12.42839 -0.79966,9.39389 5.0601,31.7603 4.7623,38.14656 1.61023,10.58089 -10.57465,18.73589 -6.46401,29.29828 2.26813,4.15177 6.59396,6.6053 11.25636,4.634 10.74195,-4.54177 23.22881,-0.0235 32.80614,4.95975 8.03617,4.18137 15.6883,0.66161 22.8125,-1.65625 6.77674,-1.68513 7.12392,8.95072 11.2931,11.7543 4.51023,2.33086 5.0763,-6.5818 5.38211,-11.13404 0.23594,-10.04912 0.8919,-18.21725 8.10604,-25.49526 6.67333,-7.0893 16.60208,-14.27093 16.6875,-24.84375 -1.41925,-9.93138 -11.56627,-16.51677 -20.43474,-18.03797 -19.60163,-3.9414 -19.74074,1.73616 -30.65901,7.44422 -11.06476,1.28129 -23.24481,-1.04732 -32.90625,-4.40625 -15.11698,-13.23295 -6.33509,-23.12706 -11.72273,-23.09198 z"
     id="path530328"
     type="area" code="530328" />
  <path
     style="fill:#e6e6e6"
     d="m 178.5,10.625 c -5.52917,0.228153 -9.81902,4.824681 -14.625,6.53125 -8.08479,-3.945352 -18.77201,-1.396272 -22.8125,7.03125 -4.71184,8.510111 -6.12187,18.393545 -9.28125,27.5 3.27676,2.640593 6.89189,9.318185 1.4375,11.625 -6.7533,4.156666 -15.0402,-4.390388 -21.125,1.40625 -4.2943,4.142619 -4.23887,11.268639 -8.8125,15.09375 -6.720294,-1.593873 -17.724976,-0.534014 -18.5625,8.0625 0.256016,5.251117 3.348301,9.754082 2.71875,15.21875 0.962283,13.42746 0.877012,28.3677 9.71875,39.34375 9.60081,0.0921 15.76053,8.75971 17.625,17.34375 1.18664,6.49849 4.71306,12.48921 5.6875,18.96875 0.34957,7.80312 -3.6055,17.5833 1.84375,24.34375 3.88577,1.74749 7.20264,5.79203 12,4.78125 3.76744,0.0959 7.48993,-4.47026 11,-2.71875 0.82327,3.25796 3.7994,6.28846 7.25,4 4.87416,-9.55692 -3.72727,-26.84046 -0.21875,-32.21875 4.36794,-6.87841 13.05789,-10.85867 14.10468,-19.63283 10.3457,-6.91671 6.96709,-20.90531 8.75939,-31.40625 3.99609,-6.37047 11.56127,-20.14816 15.78125,-19.09375 5.62013,1.03092 16.80717,5.32641 15.28876,-0.87345 -3.26326,-13.324365 -20.24133,-20.904949 -18.24348,-36.15625 0.9336,-3.315971 0.76859,-7.223438 -2.90935,-8.96247 -6.52615,-5.248836 -3.72498,-13.952831 -0.16424,-19.965564 3.78747,-6.458706 5.28884,-14.413663 2.10174,-21.409436 -0.98639,-4.117011 -3.57491,-9.086707 -8.5625,-8.8125 z"
     id="path530326"
     type="area" code="530326" />
  <path
     style="fill:#e6e6e6"
     d="m 287.46875,66.09375 c -2.04226,7.260854 -8.915,15.443549 -17.3125,12.0625 -8.93492,1.778147 -19.2912,-6.836487 -27.25,0 -4.67803,3.624888 -2.76082,10.107638 -6,14.3125 -7.61021,5.517894 -20.41596,-0.264242 -26.3125,8.75 -1.61544,3.42686 -2.13965,9.55167 -7.40625,8.78125 -5.64605,-0.22292 -14.13156,-4.53258 -17.71875,2.0625 -1.12074,2.47722 -0.62323,5.30377 -3.75,6.15625 -11.7188,11.45758 -1.02064,21.78308 -11.09375,35.625 -3.90726,3.47547 -5.7359,8.71125 -4.3125,13.65625 -0.91235,10.84837 7.2415,20.40336 17.71875,22.8125 6.23504,1.43369 12.73495,1.31171 19.14036,1.31621 9.80962,0.007 10.28209,-4.76633 15.70583,-6.32898 3.65725,-1.0537 7.44561,-2.34651 11.23771,-2.02133 8.6514,0.74187 17.49086,1.7838 24.4786,8.9091 2.47649,2.31133 4.15611,8.06226 10.0708,5.26652 8.83478,-4.17601 14.18142,-3.7173 22.38803,-8.53118 5.21644,2.05562 10.29867,-2.31546 10.10367,-8.04784 1.0064,-4.48655 -1.61067,-10.89882 2.5,-14.0625 2.93474,-0.98683 7.69831,2.50684 6.30624,-2.81219 0.41192,-12.46932 1.74249,-27.36187 12.19376,-35.46906 6.90398,-2.03687 11.42618,-9.87441 8.0625,-16.625 -3.17285,-9.46735 -12.57956,-16.252422 -13.3125,-26.59375 -6.9429,1.677543 -14.94487,-0.745308 -17.21875,-8.09375 -2.30694,-5.157308 -4.01844,-10.544231 -6.4375,-15.65625 -0.59375,1.510417 -1.1875,3.020833 -1.78125,4.53125 z"
     id="path530381"
     type="area" code="530381" />
  <g
     transform="matrix(0.98695514,0,0,1.0304851,243.42848,-773.49129)"
     id="g530326" type="data" code="g530326">
    <text
       id="text530326-lc"
       x="-122.67094"
       y="849.59302"
       style="font-size:12px;fill:#ffffff;filter:url(#green);font-family:Sans">22</text>
    <text
       id="text530326-cq"
       x="-98.986"
       y="849.59302"
       style="font-size:12px;fill:#ffffff;filter:url(#orange);font-family:Sans">22</text>
  </g>
  <g
     transform="matrix(0.98695514,0,0,1.0304851,351.22168,-724.47645)"
     id="g530381" type="data" code="g530381">
    <text
       id="text530381-lc"
       x="-122.67094"
       y="849.59302"
       style="font-size:12px;fill:#ffffff;filter:url(#green);font-family:Sans">22</text>
    <text
       id="text530381-cq"
       x="-98.986"
       y="849.59302"
       style="font-size:12px;fill:#ffffff;filter:url(#orange);font-family:Sans">22</text>
  </g>
  <g
     transform="matrix(0.98695514,0,0,1.0304851,303.35455,-663.48826)"
     id="g530328" type="data" code="g530328">
    <text
       id="text530328-lc"
       x="-122.67094"
       y="849.59302"
       style="font-size:12px;fill:#ffffff;filter:url(#green);font-family:Sans">22</text>
    <text
       id="text530328-cq"
       x="-98.986"
       y="849.59302"
       style="font-size:12px;fill:#ffffff;filter:url(#orange);font-family:Sans">22</text>
  </g>
  <g
     transform="matrix(0.98695514,0,0,1.0304851,364.18263,-630.8908)"
     id="g530325" type="data" code="g530325">
    <text
       id="text530325-lc"
       x="-122.67094"
       y="849.59302"
       style="font-size:12px;fill:#ffffff;filter:url(#green);font-family:Sans">22</text>
    <text
       id="text530325-cq"
       x="-98.986"
       y="849.59302"
       style="font-size:12px;fill:#ffffff;filter:url(#orange);font-family:Sans">22</text>
  </g>
  <g
     transform="matrix(0.98695514,0,0,1.0304851,310.17658,-597.14466)"
     id="g530302" type="data" code="g530302">
    <text
       id="text530302-lc"
       x="-122.67094"
       y="849.59302"
       style="font-size:12px;fill:#ffffff;filter:url(#green);font-family:Sans">22</text>
    <text
       id="text530302-cq"
       x="-98.986"
       y="849.59302"
       style="font-size:12px;fill:#ffffff;filter:url(#orange);font-family:Sans">22</text>
  </g>
  <g
     transform="matrix(0.98695514,0,0,1.0304851,257.5656,-565.11134)"
     id="g530321" type="data" code="g530321">
    <text
       id="text530321-lc"
       x="-122.67094"
       y="849.59302"
       style="font-size:12px;fill:#ffffff;filter:url(#green);font-family:Sans">22</text>
    <text
       id="text530321-cq"
       x="-98.986"
       y="849.59302"
       style="font-size:12px;fill:#ffffff;filter:url(#orange);font-family:Sans">22</text>
  </g>
  <g
     transform="matrix(0.98695514,0,0,1.0304851,284.45283,-540.18838)"
     id="g530322" type="data" code="g530322">
    <text
       id="text530322-lc"
       x="-122.67094"
       y="849.59302"
       style="font-size:12px;fill:#ffffff;filter:url(#green);font-family:Sans">22</text>
    <text
       id="text530322-cq"
       x="-98.986"
       y="849.59302"
       style="font-size:12px;fill:#ffffff;filter:url(#orange);font-family:Sans">22</text>
  </g>
  <g
     transform="matrix(0.98695514,0,0,1.0304851,350.0939,-482.09298)"
     id="g530323" type="data" code="g530323">
    <text
       id="text530323-lc"
       x="-122.67094"
       y="849.59302"
       style="font-size:12px;fill:#ffffff;filter:url(#green);font-family:Sans">22</text>
    <text
       id="text530323-cq"
       x="-98.986"
       y="849.59302"
       style="font-size:12px;fill:#ffffff;filter:url(#orange);font-family:Sans">22</text>
  </g>
  <g
     transform="matrix(0.98695514,0,0,1.0304851,382.63852,-521.87089)"
     id="g530324" type="data" code="g530324">
    <text
       id="text530324-lc"
       x="-122.67094"
       y="849.59302"
       style="font-size:12px;fill:#ffffff;filter:url(#green);font-family:Sans">22</text>
    <text
       id="text530324-cq"
       x="-98.986"
       y="849.59302"
       style="font-size:12px;fill:#ffffff;filter:url(#orange);font-family:Sans">22</text>
  </g>
  <path
     sodipodi:type="arc"
     style="fill:#d40000;fill-opacity:1;stroke:#dd66ff;stroke-opacity:0"
     id="D530326"
     sodipodi:cx="314.82144"
     sodipodi:cy="114.75"
     sodipodi:rx="3.0357144"
     sodipodi:ry="3.0357144"
     type="point"
     d="m 317.85716,114.75 a 3.0357144,3.0357144 0 1 1 -6.07143,0 3.0357144,3.0357144 0 1 1 6.07143,0 z"
     transform="matrix(0.79797983,0,0,0.79797981,-111.63271,19.223283)" />
  <text
     xml:space="preserve"
     style="font-size:40px;font-style:normal;font-weight:normal;line-height:125%;letter-spacing:0px;word-spacing:0px;fill:#000000;fill-opacity:1;stroke:none;font-family:Sans"
     x="125.21796"
     y="125.45975"
     id="text530326"
     sodipodi:linespacing="125%"><tspan
       sodipodi:role="line"
       id="tspan5565"
       x="125.21796"
       y="125.45975"
       type="label"
       style="font-size:12px;fill:#ffffff">会泽</tspan></text>
  <path
     sodipodi:type="arc"
     style="fill:#d40000;fill-opacity:1;stroke:#dd66ff;stroke-opacity:0"
     id="D530381"
     sodipodi:cx="314.82144"
     sodipodi:cy="114.75"
     sodipodi:rx="3.0357144"
     sodipodi:ry="3.0357144"
     type="point"
     d="m 317.85716,114.75 a 3.0357144,3.0357144 0 1 1 -6.07143,0 3.0357144,3.0357144 0 1 1 6.07143,0 z"
     transform="matrix(0.79797983,0,0,0.79797981,-17.586098,42.125826)" />
  <text
     xml:space="preserve"
     style="font-size:40px;font-style:normal;font-weight:normal;line-height:125%;letter-spacing:0px;word-spacing:0px;fill:#000000;fill-opacity:1;stroke:none;font-family:Sans"
     x="240.21796"
     y="134.28177"
     id="text530381"
     sodipodi:linespacing="125%"><tspan
       sodipodi:role="line"
       id="tspan5565-1"
       x="240.21796"
       y="134.28177"
       type="label"
       style="font-size:12px;fill:#ffffff">宣威</tspan></text>
  <path
     sodipodi:type="arc"
     style="fill:#d40000;fill-opacity:1;stroke:#dd66ff;stroke-opacity:0"
     id="D530328"
     sodipodi:cx="314.82144"
     sodipodi:cy="114.75"
     sodipodi:rx="3.0357144"
     sodipodi:ry="3.0357144"
     type="point"
     d="m 317.85716,114.75 a 3.0357144,3.0357144 0 1 1 -6.07143,0 3.0357144,3.0357144 0 1 1 6.07143,0 z"
     transform="matrix(0.79797983,0,0,0.79797981,-61.44203,128.86312)" />
  <text
     xml:space="preserve"
     style="font-size:40px;font-style:normal;font-weight:normal;line-height:125%;letter-spacing:0px;word-spacing:0px;fill:#000000;fill-opacity:1;stroke:none;font-family:Sans"
     x="195.87474"
     y="225.99364"
     id="text530328"
     type="label"
     sodipodi:linespacing="125%"><tspan
       sodipodi:role="line"
       id="tspan5565-11"
       x="195.87474"
       y="225.99364"
       style="font-size:12px;fill:#ffffff">沾益</tspan></text>
  <path
     sodipodi:type="arc"
     style="fill:#d40000;fill-opacity:1;stroke:#dd66ff;stroke-opacity:0"
     id="D530325"
     sodipodi:cx="314.82144"
     sodipodi:cy="114.75"
     sodipodi:rx="3.0357144"
     sodipodi:ry="3.0357144"
     type="point"
     d="m 317.85716,114.75 a 3.0357144,3.0357144 0 1 1 -6.07143,0 3.0357144,3.0357144 0 1 1 6.07143,0 z"
     transform="matrix(0.79797983,0,0,0.79797981,7.2655969,161.51142)" />
  <text
     xml:space="preserve"
     style="font-size:40px;font-style:normal;font-weight:normal;line-height:125%;letter-spacing:0px;word-spacing:0px;fill:#000000;fill-opacity:1;stroke:none;font-family:Sans"
     x="249.96373"
     y="266.82416"
     id="text530325"
     type="label"
     sodipodi:linespacing="125%"><tspan
       sodipodi:role="line"
       id="tspan5565-15"
       x="249.96373"
       y="266.82416"
       style="font-size:12px;fill:#ffffff">富源</tspan></text>
  <path
     sodipodi:type="arc"
     type="point"
     style="fill:#d40000;fill-opacity:1;stroke:#dd66ff;stroke-opacity:0"
     id="D530302"
     sodipodi:cx="314.82144"
     sodipodi:cy="114.75"
     sodipodi:rx="3.0357144"
     sodipodi:ry="3.0357144"
     d="m 317.85716,114.75 a 3.0357144,3.0357144 0 1 1 -6.07143,0 3.0357144,3.0357144 0 1 1 6.07143,0 z"
     transform="matrix(0.79797983,0,0,0.79797981,-43.899657,193.67244)" />
  <text
     xml:space="preserve"
     style="font-size:40px;font-style:normal;font-weight:normal;line-height:125%;letter-spacing:0px;word-spacing:0px;fill:#000000;fill-opacity:1;stroke:none;font-family:Sans"
     x="198.79848"
     y="298.54874"
     id="text530302"
     sodipodi:linespacing="125%"><tspan
       sodipodi:role="line"
       id="tspan5565-8"
       x="198.79848"
       y="298.54874"
       style="font-size:12px;fill:#ffffff">麒麟</tspan></text>
  <path
     sodipodi:type="arc"
     style="fill:#d40000;fill-opacity:1;stroke:#dd66ff;stroke-opacity:0"
     id="D530321"
     sodipodi:cx="314.82144"
     sodipodi:cy="114.75"
     sodipodi:rx="3.0357144"
     sodipodi:ry="3.0357144"
     d="m 317.85716,114.75 a 3.0357144,3.0357144 0 1 1 -6.07143,0 3.0357144,3.0357144 0 1 1 6.07143,0 z"
     transform="matrix(0.79797983,0,0,0.79797981,-108.70898,202.44362)" />
  <text
     xml:space="preserve"
     style="font-size:40px;font-style:normal;font-weight:normal;line-height:125%;letter-spacing:0px;word-spacing:0px;fill:#000000;fill-opacity:1;stroke:none;font-family:Sans"
     x="148.1205"
     y="295.08688"
     id="text530321"
     sodipodi:linespacing="125%"><tspan
       sodipodi:role="line"
       id="tspan5565-5"
       x="148.1205"
       y="295.08688"
       style="font-size:12px;fill:#ffffff">马龙</tspan></text>
  <path
     sodipodi:type="arc"
     style="fill:#d40000;fill-opacity:1;stroke:#dd66ff;stroke-opacity:0"
     id="D530322"
     sodipodi:cx="314.82144"
     sodipodi:cy="114.75"
     sodipodi:rx="3.0357144"
     sodipodi:ry="3.0357144"
     d="m 317.85716,114.75 a 3.0357144,3.0357144 0 1 1 -6.07143,0 3.0357144,3.0357144 0 1 1 6.07143,0 z"
     transform="matrix(0.79797983,0,0,0.79797981,-84.344573,253.60887)" />
  <text
     xml:space="preserve"
     style="font-size:40px;font-style:normal;font-weight:normal;line-height:125%;letter-spacing:0px;word-spacing:0px;fill:#000000;fill-opacity:1;stroke:none;font-family:Sans"
     x="175.40863"
     y="350.25211"
     id="text530322"
     sodipodi:linespacing="125%"><tspan
       sodipodi:role="line"
       id="tspan5565-18"
       x="175.40863"
       y="350.25211"
       style="font-size:12px;fill:#ffffff">陆良</tspan></text>
  <path
     sodipodi:type="arc"
     style="fill:#d40000;fill-opacity:1;stroke:#dd66ff;stroke-opacity:0"
     id="D530323"
     sodipodi:cx="314.82144"
     sodipodi:cy="114.75"
     sodipodi:rx="3.0357144"
     sodipodi:ry="3.0357144"
     d="m 317.85716,114.75 a 3.0357144,3.0357144 0 1 1 -6.07143,0 3.0357144,3.0357144 0 1 1 6.07143,0 z"
     transform="matrix(0.79797983,0,0,0.79797981,-2.4801659,310.1343)" />
  <text
     xml:space="preserve"
     style="font-size:40px;font-style:normal;font-weight:normal;line-height:125%;letter-spacing:0px;word-spacing:0px;fill:#000000;fill-opacity:1;stroke:none;font-family:Sans"
     x="237.29424"
     y="414.95975"
     id="text530323"
     sodipodi:linespacing="125%"><tspan
       sodipodi:role="line"
       id="tspan5565-53"
       x="237.29424"
       y="414.95975"
       style="font-size:12px;fill:#ffffff">师宗</tspan></text>
  <path
     sodipodi:type="arc"
     style="fill:#d40000;fill-opacity:1;stroke:#dd66ff;stroke-opacity:0"
     id="D530324"
     sodipodi:cx="314.82144"
     sodipodi:cy="114.75"
     sodipodi:rx="3.0357144"
     sodipodi:ry="3.0357144"
     d="m 317.85716,114.75 a 3.0357144,3.0357144 0 1 1 -6.07143,0 3.0357144,3.0357144 0 1 1 6.07143,0 z"
     transform="matrix(0.79797983,0,0,0.79797981,28.218987,272.12583)" />
  <text
     xml:space="preserve"
     style="font-size:40px;font-style:normal;font-weight:normal;line-height:125%;letter-spacing:0px;word-spacing:0px;fill:#000000;fill-opacity:1;stroke:none;font-family:Sans"
     x="272.86624"
     y="377.43857"
     id="text530324"
     sodipodi:linespacing="125%"><tspan
       sodipodi:role="line"
       id="tspan5565-3"
       x="272.86624"
       y="377.43857"
       style="font-size:12px;fill:#ffffff">罗平</tspan></text>
</svg>
