<?xml version="1.0" encoding="UTF-8" standalone="no"?>
<!-- Created with Inkscape (http://www.inkscape.org/) -->

<svg
   xmlns:dc="http://purl.org/dc/elements/1.1/"
   xmlns:cc="http://creativecommons.org/ns#"
   xmlns:rdf="http://www.w3.org/1999/02/22-rdf-syntax-ns#"
   xmlns:svg="http://www.w3.org/2000/svg"
   xmlns="http://www.w3.org/2000/svg"
   xmlns:sodipodi="http://sodipodi.sourceforge.net/DTD/sodipodi-0.dtd"
   xmlns:inkscape="http://www.inkscape.org/namespaces/inkscape"
   id="svg11531"
   version="1.1"
   inkscape:version="0.48.5 r10040"
   width="100%"
   height="100%"
   viewBox="0 0 460 460"
   sodipodi:docname="5304-1.svg">
  <metadata
     id="metadata11537">
    <rdf:RDF>
      <cc:Work
         rdf:about="">
        <dc:format>image/svg+xml</dc:format>
        <dc:type
           rdf:resource="http://purl.org/dc/dcmitype/StillImage" />
        <dc:title />
      </cc:Work>
    </rdf:RDF>
  </metadata>
  <defs
     id="defs11535" />
  <filter
     x="-0.1"
     y="0"
     width="1.2"
     height="1"
     id="green">
    <feFlood
       flood-color="#008000"
       id="feFlood6"
       result="result1" />
    <feComposite
       in="SourceGraphic"
       id="feComposite8"
       in2="result1" />
  </filter>
  <filter
     x="-0.1"
     y="0"
     width="1.2"
     height="1"
     id="orange">
    <feFlood
       flood-color="#ff7f2a"
       id="feFlood11"
       result="result1" />
    <feComposite
       in="SourceGraphic"
       id="feComposite13"
       in2="result1" />
  </filter>
  <sodipodi:namedview
     pagecolor="#ffffff"
     bordercolor="#666666"
     borderopacity="1"
     objecttolerance="10"
     gridtolerance="10"
     guidetolerance="10"
     inkscape:pageopacity="0"
     inkscape:pageshadow="2"
     inkscape:window-width="1920"
     inkscape:window-height="1018"
     id="namedview11533"
     showgrid="false"
     inkscape:zoom="1.8391304"
     inkscape:cx="286.98515"
     inkscape:cy="172.37142"
     inkscape:window-x="-8"
     inkscape:window-y="-8"
     inkscape:window-maximized="1"
     inkscape:current-layer="svg11531" />
  <g
     id="g11577"
     transform="translate(-0.68912622,-1.0548501e-7)">
    <path
       style="fill:#e6e6e6;fill-opacity:1;stroke:#dd66ff;stroke-width:0.68912947;stroke-opacity:0"
       d="m 28.375,174.40625 c -3.616311,2.93699 0.150943,9.29524 -4.15625,12.28125 -4.49397,6.55774 -12.641358,8.01108 -19.84375,10.0625 0.4108951,7.82144 0.1948208,16.44293 6,22.4375 4.331705,5.1204 7.198959,11.3194 8.9375,17.5625 4.220254,4.24053 7.106563,9.42331 10.4375,14.28125 3.788829,2.19299 4.043885,6.54794 3.78125,10.5 0.895767,4.64517 7.346766,5.16276 8.90625,9.71875 4.943498,8.39428 12.03719,15.39035 19.4375,21.46875 0.213415,4.19337 -5.546763,4.75334 -6.9375,8.3125 -3.850268,4.19783 -5.990113,12.76358 -13.25,11.5625 -3.994016,-0.75792 -8.453387,2.36922 -6.9375,6.71875 -0.25451,2.73012 2.656585,5.67257 2.40625,7.46875 -2.57704,1.59345 -5.541229,3.58001 -3.96875,7.125 0.771718,5.15044 7.607972,8.31574 10.875,3.53125 3.376874,-4.35653 6.966532,-9.51568 13.375,-8.78125 4.01952,-0.92769 8.033013,-0.68372 10.125,3.34375 1.935795,2.67076 5.60305,8.79517 0.75,10.40625 -3.901373,2.14403 -0.451925,6.07884 2.46875,6.96875 5.59657,3.1946 9.654838,12.20756 17.21875,9.5 4.046714,-0.82007 6.926853,-5.25007 10.84375,-5.5625 4.34646,3.00261 10.4496,-1.65873 13.35505,-4.57306 2.4166,-4.24393 -3.47368,-9.32154 -4.97303,-13.10779 -0.67858,-1.7136 -3.13892,-3.82581 0.20353,-2.69415 3.86855,1.30979 4.68917,2.289 10.4211,5.17812 5.00384,2.52213 5.48856,6.48996 16.99335,2.44688 8.56105,-5.05546 20.14312,-9.01715 25.1875,-18.4375 7.66676,-7.37706 15.75394,-13.49056 23.45272,-21.12855 1.61124,-1.47 2.4985,3.64016 8.10468,0.0961 5.83365,-1.0355 13.87682,2.42808 17.41135,8.59493 4.60763,2.2752 5.39631,-4.88732 9.21875,-5.9375 6.77993,-4.62097 14.92566,-5.98066 22.78125,-7.46875 2.93473,-2.86069 -1.45948,-6.16861 -1.3125,-9.4375 -2.62832,-6.43084 -6.96028,-12.06888 -10.09375,-18.25 -2.79172,-2.85123 -6.89905,-0.84288 -13.3094,-0.84508 -3.71491,-0.0412 -6.18288,0.86934 -5.69998,-2.53598 1.8224,-2.82582 3.9825,-5.97615 -0.6465,-9.01581 -2.94747,-2.55447 -8.54684,-3.39854 -8.79939,-7.25169 3.03347,-5.40984 6.80132,-12.76792 -3.24008,-11.38717 -11.00854,-1.16869 -22.73023,1.07302 -33.3359,-0.43302 -0.1902,-6.73163 -4.73439,-14.45734 -10.99764,-17.12301 -4.63965,-2.54539 -7.72359,-5.87561 -13.68986,-4.59574 -5.41282,1.60877 -9.77198,-2.01209 -11.03125,-7.0625 -1.39672,-4.55716 -7.43576,-2.90649 -9.9375,-6.65625 -6.80008,-5.16544 -14.39337,-9.42991 -20.59375,-15.3125 -3.467325,-2.74777 -8.015893,-0.62389 -9.40625,3.3125 -5.019167,8.15956 -10.181016,16.61408 -14.90625,24.71875 -4.476247,2.20692 -9.52461,4.86548 -14.5625,5.6875 -4.776299,-0.29263 -10.315472,-3.24821 -9.71875,-8.65625 C 46.6068,201.143 44.156766,190.17246 39.75,180.28125 c -2.713094,-2.84239 -6.770656,-4.16016 -10.125,-6.0625 l -0.65625,-0.125 z"
       id="path530427"
       type="area" code="530427" />
    <path
       inkscape:connector-curvature="0"
       id="path530428"
       d="m 177.11067,435.49528 c -1.98079,-0.53351 -7.00744,-2.37374 -11.17033,-4.08943 -4.16289,-1.71568 -8.5509,-3.11942 -9.75115,-3.11942 -1.2532,0 -4.46308,1.23191 -7.53964,2.89362 l -5.35738,2.89363 -2.66208,-1.76168 c -1.46415,-0.96893 -3.33723,-1.97597 -4.16241,-2.23788 -1.04827,-0.3327 -1.56464,-1.13084 -1.71378,-2.64896 -0.28809,-2.93249 -2.99254,-4.41702 -9.9069,-5.43813 -8.0828,-1.19365 -8.33375,-1.73628 -3.18442,-6.88562 2.59677,-2.59677 4.26375,-4.8464 4.26375,-5.75404 0,-1.85592 -5.56955,-13.40172 -8.0053,-16.59514 -0.99335,-1.30236 -2.34423,-2.36793 -3.00194,-2.36793 -0.65771,0 -2.05159,-0.79308 -3.09751,-1.76241 -1.93001,-1.78867 -1.98251,-2.34426 -0.6595,-6.97909 0.44744,-1.56747 0.22004,-1.842 -5.56507,-6.71838 -1.74787,-1.47331 -3.07173,-3.35271 -3.61793,-5.13616 -1.16304,-3.79749 -1.18617,-3.69351 1.55054,-6.96914 1.84457,-2.20781 2.41195,-3.51487 2.41195,-5.55639 0,-2.35664 0.35719,-2.93451 3.04798,-4.93099 2.91129,-2.16009 4.53244,-4.41344 4.53244,-6.29994 0,-0.47987 -1.24043,-2.92916 -2.75651,-5.44286 -1.51609,-2.51371 -3.48934,-6.17336 -4.75652,-7.29725 -1.61107,-1.42888 8.47658,2.68179 14.66138,7.54271 3.71913,2.92304 10.70844,2.5524 15.63201,-0.82895 0.96905,-0.66551 5.57658,-3.12567 10.23896,-5.46701 5.76333,-2.89423 8.87274,-5.88596 10.57919,-7.75769 2.51144,-2.7547 4.27964,-4.82228 18.73392,-18.05141 l 8.29885,-7.57356 2.23534,1.07549 c 2.31106,1.11191 4.90342,-1.21346 7.23435,-1.03469 2.65092,0.20332 3.7138,0.10179 8.75992,2.56526 3.84082,1.87506 4.64382,4.36451 3.9676,7.90198 -0.49465,2.58758 0.77466,5.2419 5.01956,10.49666 1.99018,2.46364 4.09983,5.47826 4.68811,6.69917 1.03565,2.14935 1.01308,2.26428 -0.711,3.62044 -2.18773,1.72088 -5.34703,7.88741 -5.34703,10.43671 0,4.20616 5.25686,7.72161 11.19479,7.48635 4.87361,-0.19308 5.10076,-0.11034 9.60574,3.49871 9.28257,7.43651 13.44787,12.12773 16.70365,18.8127 1.68732,3.46451 3.25755,7.26377 3.4894,8.44281 0.23185,1.17904 1.88892,3.97001 3.68237,6.20216 6.50312,8.09385 6.87366,9.3918 3.82553,13.40011 -0.99273,1.30546 -2.86277,4.62184 -4.15564,7.36975 l -2.35067,4.99619 -2.83103,0 c -1.55707,0 -6.35573,-0.36741 -10.6637,-0.81646 -7.68222,-0.80079 -7.87314,-0.78656 -9.93904,0.74084 -1.96631,1.45375 -2.21651,1.48513 -3.76291,0.47189 -2.43703,-1.59681 -3.36078,-1.36387 -5.94377,1.49883 -3.34098,3.7028 -5.01713,6.6857 -7.13297,12.69392 -1.02379,2.90718 -2.43387,5.90022 -3.13352,6.65122 -1.21832,1.3077 -1.44904,1.32086 -5.45709,0.31123 -3.97593,-1.00154 -4.40188,-0.98094 -8.52674,0.41236 -5.07561,1.71446 -12.03573,1.87593 -17.49385,0.40587 z"
       style="fill:#e6e6e6;fill-opacity:1;stroke:#dd66ff;stroke-width:0.68912947;stroke-opacity:0"
       type="area" code="530428" />
    <path
       inkscape:connector-curvature="0"
       id="path530426"
       d="m 211.52404,267.25398 c -0.65953,-0.26473 -1.28154,-0.96481 0.0348,-3.21103 1.66331,-2.83822 1.77639,-3.99793 0.80043,-5.88523 -1.05846,-2.04683 -3.43205,-3.07906 -7.83743,-5.66994 -3.7355,-2.19692 -3.47591,-2.75897 -1.06849,-7.5098 2.03377,-4.01343 1.30551,-6.84564 -0.4007,-7.38003 -2.43327,-0.76211 -16.08371,-1.1249 -18.82672,-0.71356 -1.55516,0.23321 -4.68339,0.29632 -6.19983,0.33563 -3.0387,0.0788 -3.71013,0.0469 -7.01905,0.002 -2.28415,-0.0311 -5.33902,-0.12842 -5.70437,-0.35422 -0.36535,-0.2258 -0.45355,-1.36029 -0.76621,-2.60104 -0.37382,-1.48342 -0.67951,-2.85856 -1.05313,-3.84125 -1.14941,-3.02318 -5.03935,-8.65559 -8.99199,-10.52708 -2.06602,-0.97821 -3.7564,-2.08068 -3.7564,-2.44992 0,-0.64928 6.18946,-2.79214 8.06484,-2.79214 0.50786,0 2.07965,-0.76016 3.49285,-1.68924 1.4132,-0.92909 4.32818,-2.35827 6.47773,-3.17597 5.58453,-2.12439 7.87892,-4.65303 9.57866,-10.55664 2.06803,-7.18276 3.16731,-9.32042 5.46547,-10.6281 1.13154,-0.64387 2.0593,-1.43304 2.06169,-1.75373 0.0128,-1.71027 -2.43944,-8.59598 -3.63924,-10.2188 -1.44732,-1.9576 -2.44728,-6.46701 -2.51748,-11.35275 -0.0376,-2.61608 -1.302,-4.86007 3.62512,-9.25257 6.3336,-5.64637 8.8829,-6.66903 13.06737,-6.71159 1.65471,-0.0168 4.41769,0.2009 5.35078,0.11002 1.39786,-0.13615 2.28241,0.68396 5.02471,4.65867 4.96639,7.19832 10.02518,12.40347 12.50415,12.40347 0.45143,0 2.84975,-0.72821 4.42929,-2.49412 3.09184,-3.45665 3.77355,-2.62363 8.49193,1.10603 1.96113,1.55018 5.68424,3.8854 8.27357,5.18937 5.32404,2.68114 5.64339,3.19572 6.67592,10.75707 0.80239,5.87601 4.58644,14.33814 8.4227,18.17254 1.18871,1.18814 1.86365,3.26521 2.97808,5.71036 0.8431,1.84982 1.00705,3.51324 2.29697,5.24852 1.10136,1.48162 3.61302,4.47525 3.61302,5.31368 0,2.48474 2.05557,5.87384 3.95675,6.351 0.9725,0.24409 3.0621,0.39139 5.40718,0.15118 4.71715,-0.48328 5.49608,-0.13547 11.65452,5.0199 1.89511,1.58643 6.01156,2.9023 8.15126,3.553 0.0251,2.5731 1.38592,4.07883 3.52971,7.13487 4.30817,6.14145 8.56743,10.86812 12.09065,12.45687 1.91469,0.86341 8.3296,-2.4719 3.58682,2.95936 -0.84703,0.97 0.5475,1.50128 6.62227,1.97198 4.28288,0.33186 2.76948,1.86411 1.8733,5.43476 -0.65868,2.62441 -3.72025,3.74923 -10.18148,3.74065 -8.94146,-0.0118 -10.59745,-0.475 -14.12202,-3.94967 -2.83438,-2.79426 -3.33625,-3.03099 -5.62435,-2.65301 -1.38176,0.22826 -4.87847,0.6062 -7.77048,0.83989 l -5.25818,0.42487 -1.63311,-2.22132 c -3.27037,-4.44831 -13.17017,-7.55951 -20.9581,-6.58647 -6.13236,0.76619 -7.35602,3.50024 -4.07347,9.10149 l 1.75475,2.99426 -1.91097,0.72655 c -4.05446,1.5415 -12.07098,2.80174 -23.97924,3.76966 -13.06023,1.06155 -14.63735,1.11474 -16.06489,0.54172 l 0,-2e-5 z"
       style="fill:#e6e6e6;fill-opacity:1;stroke:#dd66ff;stroke-width:0.68912947;stroke-opacity:0"
       type="area" code="530426" />
    <path
       style="fill:#e6e6e6;fill-opacity:1;stroke:#dd66ff;stroke-width:0.68912947;stroke-opacity:0"
       d="m 208.625,45.46875 c -4.60467,2.203139 -5.10369,8.621539 -8.82846,11.917624 -2.69038,2.883601 -4.89607,8.656059 -9.98404,6.769876 -4.74508,-0.367555 -9.3198,-1.542533 -14.125,-1.34375 -0.74786,5.137216 3.49098,10.703439 -1.41961,14.708601 -2.3028,4.560544 -5.92212,7.660578 -9.86164,10.478899 -3.73598,4.002458 -6.64543,10.839935 -1.96875,15.3125 0.90318,2.03283 1.18948,4.76057 1.21875,6.65625 -2.6572,3.9953 -9.22752,6.42222 -9.3125,11.6875 1.21187,4.50835 8.78021,-1.4729 8.125,3.96875 0.80455,3.459 -0.45084,7.75456 -4.78125,7.0625 -5.22932,0.51329 -2.73587,6.43143 -1.40625,9.40625 1.52503,7.05701 5.75794,13.21012 9.34375,19.40625 4.25236,2.5097 10.52043,0.005 14.19178,-2.5461 3.45791,-3.61417 7.49821,-6.93467 11.82071,-9.61835 4.14954,-0.3465 8.75929,-0.57966 11.92547,-0.0634 4.52118,6.03794 8.73256,13.57404 15.59329,17.07164 5.35095,-1.33517 8.81586,-8.12195 6.21875,-13.25 -0.35806,-4.76081 6.18858,-6.54668 9.40625,-8.90625 7.90696,-1.95557 12.68921,-9.87506 11.75,-17.8125 -1.10326,-10.29259 -1.69765,-20.65254 -0.083,-31.036346 1.3145,-7.36537 -6.99053,-15.112875 -1.07329,-21.901154 3.40325,-7.403266 -3.9638,-14.116871 -8.28125,-19.3125 -4.37586,-3.352136 -11.02254,2.946973 -14.71875,-2.375 -4.13884,-2.696291 -8.82091,-5.551141 -13.75,-6.28125 z"
       id="path530425"
       type="area" code="530425" />
    <path
       style="fill:#e6e6e6;fill-opacity:1;stroke:#dd66ff;stroke-width:0.68912947;stroke-opacity:0"
       d="m 311.0625,143.96875 c -6.33361,2.24547 -12.83593,3.82115 -19.5,4.71875 -6.22764,2.44322 -10.1187,9.73116 -17.53125,9.0625 -5.22602,1.04996 -8.05238,6.11926 -11.25,9.875 4.92401,1.86001 2.36008,4.02803 -0.9375,5.625 -3.96781,3.7291 -11.2001,3.60374 -13.53125,8.90625 0.085,6.39053 4.22735,11.94522 7.80561,16.80517 4.39801,2.96902 2.21186,9.07776 6.47564,12.38233 2.88864,2.5935 2.81083,8.01725 5.3125,9.78125 5.6405,0.23402 9.73165,-1.05236 16.25,3.9375 2.76564,2.4508 6.10188,5.01653 9.8125,4.8125 1.49835,6.21524 3.41247,9.86753 7.8125,5.46875 5.99105,-4.49195 11.64697,-11.81235 15.96011,-17.5574 1.99928,-2.77379 6.57359,-1.73773 4.82114,-6.5051 -1.4217,-3.72343 -6.70746,-9.26758 -2.65625,-11.9375 5.39124,-3.90043 6.91759,-10.11438 8.54484,-16.39022 -1.58307,-2.48049 -7.03869,-5.44919 -2.35734,-8.04728 5.80004,-3.956 13.06375,-6.54119 17.625,-12.375 -2.16569,-5.0458 -7.03513,-12.38129 -13.45783,-8.8689 -4.55536,2.05336 -10.01661,-0.82538 -13.19842,-3.91235 -0.44002,-3.11527 -2.29299,-6.4779 -6,-5.78125 z"
       id="path530402"
       type="area" code="530402" />
    <path
       style="fill:#e6e6e6;fill-opacity:1;stroke:#dd66ff;stroke-width:0.68912947;stroke-opacity:0"
       d="m 313.61056,223.68069 c -5.72454,8.57543 -8.16541,9.04845 -15.02908,14.56102 2.71802,4.5713 6.32539,9.33285 10.72363,11.64578 2.08091,1.14821 7.18737,-1.8678 4.91441,1.92309 -4.61462,3.96743 6.05157,1.93978 8.74923,4.03317 -0.58674,7.4437 8.97166,11.18788 8.96875,18.0625 -3.21622,2.99665 -2.1062,7.27397 -0.74639,10.88121 0.99419,4.06353 0.85862,11.90726 7.09014,11.05629 6.02967,-0.34219 4.23278,-7.96103 6.65625,-11.375 5.06974,-3.61404 9.62539,-8.46218 11.5625,-14.3125 6.23994,-0.7964 12.15616,-4.28889 18.5,-4.78125 5.01247,2.73936 6.98813,-2.9065 10.79239,-5.40869 3.10229,-3.32597 3.24353,-3.50168 6.42229,-7.9174 2.10034,-2.90723 1.30243,-8.90043 -3.7212,-8.3894 -4.34049,0.94907 -6.29421,-7.38652 -9.30779,-10.82559 -4.11257,-3.78374 -6.41668,-6.04993 -9.33182,-8.56087 -5.67748,-0.13873 -10.2062,1.93745 -17.16637,-3.3668 -5.07361,-2.62215 -11.03238,0.24785 -16.55693,-0.69782 -6.73758,-0.0524 -11.6401,0.93224 -17.79715,-2.23968 z"
       id="path530423"
       type="area" code="530423" />
    <path
       inkscape:connector-curvature="0"
       id="path530421"
       d="m 354.61289,221.74732 c -3.75566,-2.45597 -5.93003,-3.06066 -16.25612,-1.97692 -7.35647,0.77208 -23.71966,-0.93207 -18.82564,-3.04121 4.26043,-1.83608 4.35734,-4.07614 3.18154,-6.38853 0,0 -4.33522,-5.83677 -4.00802,-8.79651 0.21364,-1.93256 3.78061,-3.89404 3.78061,-3.89404 2.87756,-3.70701 3.93151,-5.50882 4.81566,-8.65988 1.52741,-5.44366 2.42287,-4.86819 0.44771,-7.54537 -2.01093,-2.72565 -4.63692,-3.83422 -2.04515,-5.62179 1.13284,-0.78132 7.78333,-4.50488 11.43716,-7.11156 8.08041,-5.76467 12.2217,-7.03302 18.17613,-8.27128 2.78992,-0.58018 5.68537,-1.74757 7.43599,-2.99804 3.22936,-2.30674 7.85359,-3.21081 19.51017,-5.19403 11.21973,-1.9089 16.43456,-3.61655 11.57198,4.49429 -0.56223,0.93781 -0.91957,4.8833 -0.93076,8.99588 -0.0165,6.09038 0.85558,8.41455 2.01565,11.0371 1.76055,3.98001 -0.6213,10.93138 -1.95864,16.19137 -0.9975,4.64829 -0.7297,8.03493 -0.45773,11.68935 0.14379,1.93202 -0.0503,4.7319 -1.30159,6.75637 -1.62567,2.6304 -4.39128,4.09294 -7.57979,4.85172 -1.13706,0.2706 -2.70039,1.11807 -4.5955,2.46477 -8.24363,5.85808 -8.88758,5.22639 -14.89589,5.21768 -5.11153,-0.007 -6.45322,-0.19537 -9.51777,-2.19937 z"
       style="fill:#e6e6e6;fill-opacity:1;stroke:#dd66ff;stroke-width:0.68912947;stroke-opacity:0"
       type="area" code="530421" />
    <path
       style="fill:#e6e6e6;fill-opacity:1;stroke:#dd66ff;stroke-width:0.68912947;stroke-opacity:0"
       d="m 428.28125,138.53125 c -8.89559,1.82268 -15.56369,7.55291 -21.61407,14.209 -2.5713,-2.08543 -6.94726,-4.44699 -9.59101,-0.62463 -4.40045,6.59529 -3.87404,15.24537 -2.45117,22.69688 3.22387,5.95669 0.41639,12.07574 -0.625,17.84375 -3.4263,7.00404 2.58877,16.69122 -5.125,21.6875 -2.92393,2.01967 -4.54939,1.51042 -9.75,4.59375 -2.27804,1.62204 -6.19508,4.09641 -8.44091,5.31273 1.52633,1.862 2.65398,2.84844 5.45263,5.35218 5.30988,3.47791 6.64641,11.58829 10.49811,13.70226 3.04952,-0.5221 6.56587,-0.0947 7.20855,4.90469 -0.75672,3.4689 -2.66297,6.87292 -9.50236,13.44261 -3.35815,2.99792 -5.20326,9.92268 -2.40352,13.81678 2.40245,2.63725 6.97746,0.71005 6.65625,-2.78125 1.93273,-2.83898 6.56547,-2.44729 8.21875,-6 3.90878,-3.5809 8.13307,-9.24616 13.84375,-9.21875 3.99858,2.29114 8.97584,8.80802 13.9375,4.625 11.90037,-10.94896 21.42292,-24.74874 27.75,-39.5625 0.42351,-5.73157 -6.01021,-10.04285 -3.4375,-16.03125 2.63386,-4.34463 -0.13351,-7.09765 -3.6875,-9.375 -6.65999,-5.25057 -2.98548,-15.03517 -4.09375,-22.21875 -1.78696,-1.35837 -8.31002,-0.40024 -7.6875,-3.78125 2.71179,-3.71471 7.69623,-5.96375 8.4375,-11.09375 1.85883,-6.58213 1.96932,-13.60348 2.5625,-20.4375 -5.48524,0.39362 -10.8389,-0.26109 -16.15625,-1.0625 z"
       id="path530424"
       type="area" code="530424"/>
    <path
       style="fill:#e6e6e6;fill-opacity:1;stroke:#dd66ff;stroke-width:0.68912947;stroke-opacity:0"
       d="m 420.5,56.5 c -10.03388,2.533688 -17.24211,10.650639 -24.375,17.59375 -0.74164,4.651189 1.31874,10.762914 -1.03125,14.78125 -3.68436,2.325737 -8.223,2.73254 -12.46875,3.53125 1.21779,13.52971 -8.60634,24.06551 -11.28125,36.75 -2.03606,6.13889 -4.88384,17.41068 0.95937,22.26322 7.53681,2.81375 22.2597,-4.25959 23.6547,0.0649 4.50932,-2.48328 4.34892,-2.83034 10.7378,0.86345 5.21255,-6.01682 6.72954,-7.46157 14.98862,-11.84942 7.27412,-5.30324 4.74043,-14.86918 5.40951,-22.34212 0.002,-9.40998 5.33615,-17.65507 7.5,-26.5 -2.34665,-5.053811 -8.864,-1.836456 -11.53125,0.21875 C 421.13894,84.581837 424.06423,76.711235 424,69.21875 423.62892,65.637895 426.15264,56.833028 420.5,56.5 z"
       id="path530422"
       type="area" code="530422" />
  </g>
  <g
     transform="matrix(0.98695514,0,0,1.0304851,314.68516,-757.45057)"
     id="g530425" type="data" code="530425">
    <text
       id="text530425-lc"
       x="-122.67094"
       y="849.59302"
       style="font-size:12px;fill:#ffffff;filter:url(#green);font-family:Sans">22</text>
    <text
       id="text530425-cq"
       x="-98.986"
       y="849.59302"
       style="font-size:12px;fill:#ffffff;filter:url(#orange);font-family:Sans">22</text>
  </g>
  <g
     transform="matrix(0.98695514,0,0,1.0304851,329.39652,-659.8976)"
     id="g530426" type="data" code="530426">
    <text
       id="text530426-lc"
       x="-122.67094"
       y="849.59302"
       style="font-size:12px;fill:#ffffff;filter:url(#green);font-family:Sans">22</text>
    <text
       id="text530426-cq"
       x="-98.986"
       y="849.59302"
       style="font-size:12px;fill:#ffffff;filter:url(#orange);font-family:Sans">22</text>
  </g>
  <g
     transform="matrix(0.98695514,0,0,1.0304851,207.03272,-583.77588)"
     id="g530427" type="data" code="530427">
    <text
       id="text530427-lc"
       x="-122.67094"
       y="849.59302"
       style="font-size:12px;fill:#ffffff;filter:url(#green);font-family:Sans">22</text>
    <text
       id="text530427-cq"
       x="-98.986"
       y="849.59302"
       style="font-size:12px;fill:#ffffff;filter:url(#orange);font-family:Sans">22</text>
  </g>
  <g
     transform="matrix(0.98695514,0,0,1.0304851,273.25265,-487.01312)"
     id="g530428" type="data" code="530428">
    <text
       id="text530428-lc"
       x="-122.67094"
       y="849.59302"
       style="font-size:12px;fill:#ffffff;filter:url(#green);font-family:Sans">22</text>
    <text
       id="text530428-cq"
       x="-98.986"
       y="849.59302"
       style="font-size:12px;fill:#ffffff;filter:url(#orange);font-family:Sans">22</text>
  </g>
  <g
     transform="matrix(0.98695514,0,0,1.0304851,393.01557,-690.51872)"
     id="g530402" type="data" code="530402">
    <text
       id="text530402-lc"
       x="-122.67094"
       y="849.59302"
       style="font-size:12px;fill:#ffffff;filter:url(#green);font-family:Sans">22</text>
    <text
       id="text530402-cq"
       x="-98.986"
       y="849.59302"
       style="font-size:12px;fill:#ffffff;filter:url(#orange);font-family:Sans">22</text>
  </g>
  <g
     transform="matrix(0.98695514,0,0,1.0304851,469.59097,-693.16265)"
     id="g530421" type="data" code="530421">
    <text
       id="text530421-lc"
       x="-122.67094"
       y="849.59302"
       style="font-size:12px;fill:#ffffff;filter:url(#green);font-family:Sans">22</text>
    <text
       id="text530421-cq"
       x="-98.986"
       y="849.59302"
       style="font-size:12px;fill:#ffffff;filter:url(#orange);font-family:Sans">22</text>
  </g>
  <g
     transform="matrix(0.98695514,0,0,1.0304851,446.91911,-634.33051)"
     id="g530423" type="data" code="530423">
    <text
       id="text530423-lc"
       x="-122.67094"
       y="849.59302"
       style="font-size:12px;fill:#ffffff;filter:url(#green);font-family:Sans">22</text>
    <text
       id="text530423-cq"
       x="-98.986"
       y="849.59302"
       style="font-size:12px;fill:#ffffff;filter:url(#orange);font-family:Sans">22</text>
  </g>
  <g
     transform="matrix(0.98695514,0,0,1.0304851,505.20472,-759.35969)"
     id="g530422" type="data" code="530422">
    <text
       id="text530422-lc"
       x="-122.67094"
       y="849.59302"
       style="font-size:12px;fill:#ffffff;filter:url(#green);font-family:Sans">22</text>
    <text
       id="text530422-cq"
       x="-98.986"
       y="849.59302"
       style="font-size:12px;fill:#ffffff;filter:url(#orange);font-family:Sans">22</text>
  </g>
  <g
     transform="matrix(0.98695514,0,0,1.0304851,528.37227,-669.47043)"
     id="g530424" type="data" code="530424">
    <text
       id="text530424-lc"
       x="-122.67094"
       y="849.59302"
       style="font-size:12px;fill:#ffffff;filter:url(#green);font-family:Sans">22</text>
    <text
       id="text530424-cq"
       x="-98.986"
       y="849.59302"
       style="font-size:12px;fill:#ffffff;filter:url(#orange);font-family:Sans">22</text>
  </g>
  <path
     sodipodi:type="arc"
     style="fill:#d40000;fill-opacity:1;stroke:#dd66ff;stroke-opacity:0"
     id="D530425"
     sodipodi:cx="314.82144"
     sodipodi:cy="114.75"
     sodipodi:rx="3.0357144"
     sodipodi:ry="3.0357144"
     d="m 317.85716,114.75 a 3.0357144,3.0357144 0 1 1 -6.07143,0 3.0357144,3.0357144 0 1 1 6.07143,0 z"
     transform="matrix(0.79797983,0,0,0.79797981,-24.832716,7.8859215)" />
  <text
     xml:space="preserve"
     style="font-size:40px;font-style:normal;font-weight:normal;line-height:125%;letter-spacing:0px;word-spacing:0px;fill:#000000;fill-opacity:1;stroke:none;font-family:Sans"
     x="196.0632"
     y="99.922707"
     id="text530425"
     sodipodi:linespacing="125%"><tspan
       sodipodi:role="line"
       id="tspan5565-52"
       x="196.0632"
       y="99.922707"
       style="font-size:12px;fill:#ffffff">易门</tspan></text>
  <path
     sodipodi:type="arc"
     style="fill:#d40000;fill-opacity:1;stroke:#dd66ff;stroke-opacity:0"
     id="D530426"
     sodipodi:cx="314.82144"
     sodipodi:cy="114.75"
     sodipodi:rx="3.0357144"
     sodipodi:ry="3.0357144"
     d="m 317.85716,114.75 a 3.0357144,3.0357144 0 1 1 -6.07143,0 3.0357144,3.0357144 0 1 1 6.07143,0 z"
     transform="matrix(0.79797983,0,0,0.79797981,-37.01492,134.58083)" />
  <text
     xml:space="preserve"
     style="font-size:40px;font-style:normal;font-weight:normal;line-height:125%;letter-spacing:0px;word-spacing:0px;fill:#000000;fill-opacity:1;stroke:none;font-family:Sans"
     x="221.60725"
     y="232.62321"
     id="text530426"
     sodipodi:linespacing="125%"><tspan
       sodipodi:role="line"
       id="tspan5565-52-1"
       x="221.60725"
       y="232.62321"
       style="font-size:12px;fill:#ffffff">峨山</tspan></text>
  <path
     sodipodi:type="arc"
     style="fill:#d40000;fill-opacity:1;stroke:#dd66ff;stroke-opacity:0"
     id="D530427"
     sodipodi:cx="314.82144"
     sodipodi:cy="114.75"
     sodipodi:rx="3.0357144"
     sodipodi:ry="3.0357144"
     d="m 317.85716,114.75 a 3.0357144,3.0357144 0 1 1 -6.07143,0 3.0357144,3.0357144 0 1 1 6.07143,0 z"
     transform="matrix(0.79797983,0,0,0.79797981,-146.65475,222.77999)" />
  <text
     xml:space="preserve"
     style="font-size:40px;font-style:normal;font-weight:normal;line-height:125%;letter-spacing:0px;word-spacing:0px;fill:#000000;fill-opacity:1;stroke:none;font-family:Sans"
     x="92.730804"
     y="309.3797"
     id="text530427"
     sodipodi:linespacing="125%"><tspan
       sodipodi:role="line"
       id="tspan5565-52-8"
       x="92.730804"
       y="309.3797"
       style="font-size:12px;fill:#ffffff">新平</tspan></text>
  <path
     sodipodi:type="arc"
     style="fill:#d40000;fill-opacity:1;stroke:#dd66ff;stroke-opacity:0"
     id="D530428"
     sodipodi:cx="314.82144"
     sodipodi:cy="114.75"
     sodipodi:rx="3.0357144"
     sodipodi:ry="3.0357144"
     d="m 317.85716,114.75 a 3.0357144,3.0357144 0 1 1 -6.07143,0 3.0357144,3.0357144 0 1 1 6.07143,0 z"
     transform="matrix(0.79797983,0,0,0.79797981,-93.540344,307.56813)" />
  <text
     xml:space="preserve"
     style="font-size:40px;font-style:normal;font-weight:normal;line-height:125%;letter-spacing:0px;word-spacing:0px;fill:#000000;fill-opacity:1;stroke:none;font-family:Sans"
     x="162.59454"
     y="404.63593"
     id="text530428"
     sodipodi:linespacing="125%"><tspan
       sodipodi:role="line"
       id="tspan5565-52-7"
       x="162.59454"
       y="404.63593"
       style="font-size:12px;fill:#ffffff">元江</tspan></text>
  <path
     sodipodi:type="arc"
     style="fill:#d40000;fill-opacity:1;stroke:#dd66ff;stroke-opacity:0"
     id="D530402"
     sodipodi:cx="314.82144"
     sodipodi:cy="114.75"
     sodipodi:rx="3.0357144"
     sodipodi:ry="3.0357144"
     d="m 317.85716,114.75 a 3.0357144,3.0357144 0 1 1 -6.07143,0 3.0357144,3.0357144 0 1 1 6.07143,0 z"
     transform="matrix(0.79797983,0,0,0.79797981,23.408809,77.080837)" />
  <text
     xml:space="preserve"
     style="font-size:40px;font-style:normal;font-weight:normal;line-height:125%;letter-spacing:0px;word-spacing:0px;fill:#000000;fill-opacity:1;stroke:none;font-family:Sans"
     x="285.44199"
     y="168.19949"
     id="text530402"
     sodipodi:linespacing="125%"><tspan
       sodipodi:role="line"
       id="tspan5565-52-4"
       x="285.44199"
       y="168.19949"
       style="font-size:12px;fill:#ffffff">红塔</tspan></text>
  <path
     sodipodi:type="arc"
     style="fill:#d40000;fill-opacity:1;stroke:#dd66ff;stroke-opacity:0"
     id="D530421"
     sodipodi:cx="314.82144"
     sodipodi:cy="114.75"
     sodipodi:rx="3.0357144"
     sodipodi:ry="3.0357144"
     d="m 317.85716,114.75 a 3.0357144,3.0357144 0 1 1 -6.07143,0 3.0357144,3.0357144 0 1 1 6.07143,0 z"
     transform="matrix(0.79797983,0,0,0.79797981,126.7139,100.47067)" />
  <text
     xml:space="preserve"
     style="font-size:40px;font-style:normal;font-weight:normal;line-height:125%;letter-spacing:0px;word-spacing:0px;fill:#000000;fill-opacity:1;stroke:none;font-family:Sans"
     x="346.98315"
     y="197.16982"
     id="text530421"
     sodipodi:linespacing="125%"><tspan
       sodipodi:role="line"
       id="tspan5565-52-15"
       x="346.98315"
       y="197.16982"
       style="font-size:12px;fill:#ffffff">江川</tspan></text>
  <path
     sodipodi:type="arc"
     style="fill:#d40000;fill-opacity:1;stroke:#dd66ff;stroke-opacity:0"
     id="D530423"
     sodipodi:cx="314.82144"
     sodipodi:cy="114.75"
     sodipodi:rx="3.0357144"
     sodipodi:ry="3.0357144"
     d="m 317.85716,114.75 a 3.0357144,3.0357144 0 1 1 -6.07143,0 3.0357144,3.0357144 0 1 1 6.07143,0 z"
     transform="matrix(0.79797983,0,0,0.79797981,91.14186,171.12745)" />
  <text
     xml:space="preserve"
     style="font-size:40px;font-style:normal;font-weight:normal;line-height:125%;letter-spacing:0px;word-spacing:0px;fill:#000000;fill-opacity:1;stroke:none;font-family:Sans"
     x="331.73438"
     y="255.52577"
     id="text530423"
     sodipodi:linespacing="125%"><tspan
       sodipodi:role="line"
       id="tspan5565-52-41"
       x="331.73438"
       y="255.52577"
       style="font-size:12px;fill:#ffffff">通海</tspan></text>
  <path
     sodipodi:type="arc"
     style="fill:#d40000;fill-opacity:1;stroke:#dd66ff;stroke-opacity:0"
     id="D530422"
     sodipodi:cx="314.82144"
     sodipodi:cy="114.75"
     sodipodi:rx="3.0357144"
     sodipodi:ry="3.0357144"
     d="m 317.85716,114.75 a 3.0357144,3.0357144 0 1 1 -6.07143,0 3.0357144,3.0357144 0 1 1 6.07143,0 z"
     transform="matrix(0.79797983,0,0,0.79797981,147.17999,46.381685)" />
  <text
     xml:space="preserve"
     style="font-size:40px;font-style:normal;font-weight:normal;line-height:125%;letter-spacing:0px;word-spacing:0px;fill:#000000;fill-opacity:1;stroke:none;font-family:Sans"
     x="388.37265"
     y="131.21701"
     id="text530422"
     sodipodi:linespacing="125%"><tspan
       sodipodi:role="line"
       id="tspan5565-52-9"
       x="388.37265"
       y="131.21701"
       style="font-size:12px;fill:#ffffff">澄江</tspan></text>
  <path
     sodipodi:type="arc"
     style="fill:#d40000;fill-opacity:1;stroke:#dd66ff;stroke-opacity:0"
     id="D530424"
     sodipodi:cx="314.82144"
     sodipodi:cy="114.75"
     sodipodi:rx="3.0357144"
     sodipodi:ry="3.0357144"
     d="m 317.85716,114.75 a 3.0357144,3.0357144 0 1 1 -6.07143,0 3.0357144,3.0357144 0 1 1 6.07143,0 z"
     transform="matrix(0.79797983,0,0,0.79797981,159.84949,124.34779)" />
  <text
     xml:space="preserve"
     style="font-size:40px;font-style:normal;font-weight:normal;line-height:125%;letter-spacing:0px;word-spacing:0px;fill:#000000;fill-opacity:1;stroke:none;font-family:Sans"
     x="418.16507"
     y="221.48338"
     id="text530424"
     sodipodi:linespacing="125%"><tspan
       sodipodi:role="line"
       id="tspan5565-52-49"
       x="418.16507"
       y="221.48338"
       style="font-size:12px;fill:#ffffff">华宁</tspan></text>
</svg>
