<?xml version="1.0" encoding="UTF-8" standalone="no"?>
<!-- Created with Inkscape (http://www.inkscape.org/) -->

<svg
   xmlns:dc="http://purl.org/dc/elements/1.1/"
   xmlns:cc="http://creativecommons.org/ns#"
   xmlns:rdf="http://www.w3.org/1999/02/22-rdf-syntax-ns#"
   xmlns:svg="http://www.w3.org/2000/svg"
   xmlns="http://www.w3.org/2000/svg"
   xmlns:sodipodi="http://sodipodi.sourceforge.net/DTD/sodipodi-0.dtd"
   xmlns:inkscape="http://www.inkscape.org/namespaces/inkscape"
   id="svg17232"
   version="1.1"
   inkscape:version="0.48.5 r10040"
   width="100%"
   height="100%"
   viewBox="0 0 460 460"
   sodipodi:docname="5305-1.svg">
  <metadata
     id="metadata17238">
    <rdf:RDF>
      <cc:Work
         rdf:about="">
        <dc:format>image/svg+xml</dc:format>
        <dc:type
           rdf:resource="http://purl.org/dc/dcmitype/StillImage" />
        <dc:title />
      </cc:Work>
    </rdf:RDF>
  </metadata>
  <defs
     id="defs17236" />
  <filter
     x="-0.1"
     y="0"
     width="1.2"
     height="1"
     id="green">
    <feFlood
       flood-color="#008000"
       id="feFlood6"
       result="result1" />
    <feComposite
       in="SourceGraphic"
       id="feComposite8"
       in2="result1" />
  </filter>
  <filter
     x="-0.1"
     y="0"
     width="1.2"
     height="1"
     id="orange">
    <feFlood
       flood-color="#ff7f2a"
       id="feFlood11"
       result="result1" />
    <feComposite
       in="SourceGraphic"
       id="feComposite13"
       in2="result1" />
  </filter>
  <sodipodi:namedview
     pagecolor="#ffffff"
     bordercolor="#666666"
     borderopacity="1"
     objecttolerance="10"
     gridtolerance="10"
     guidetolerance="10"
     inkscape:pageopacity="0"
     inkscape:pageshadow="2"
     inkscape:window-width="1920"
     inkscape:window-height="1018"
     id="namedview17234"
     showgrid="false"
     inkscape:zoom="1.8391304"
     inkscape:cx="198.9849"
     inkscape:cy="200.77897"
     inkscape:window-x="-8"
     inkscape:window-y="-8"
     inkscape:window-maximized="1"
     inkscape:current-layer="svg17232" />
  <g
     id="g17242"
     transform="translate(-563.70792,-2.7565183)">
    <path
       style="fill:#fefefe"
       d="M 0,230 0,0 l 230,0 230,0 0,230 0,230 -230,0 -230,0 0,-230 z"
       id="path17246"
       inkscape:connector-curvature="0" />
  </g>
  <path
     style="fill:#e6e6e6"
     d="m 107.4375,27.75 c -3.12961,-0.06097 -4.50841,2.910058 -6.03125,4.90625 -6.454466,0.142512 -9.66146,7.043257 -9.78125,12.71875 -1.56434,2.953636 -1.995971,6.316423 -1.125,9.40625 -1.547243,5.289609 -6.92697,7.397348 -10.78125,10.5 -3.064968,5.11914 -0.552917,14.637882 -7.8125,16.625 -4.269393,3.242316 -9.578795,4.887658 -13.53125,8.5 -2.054312,2.67494 -8.798319,3.654396 -8.5,-1.09375 -3.776819,-6.665471 -12.00327,-8.767477 -18.75,-11.09375 -3.910497,3.435919 -7.15654,8.406944 -5.3125,13.6875 0.450574,2.285007 -3.980226,1.269789 -4.9375,3.375 -2.124732,2.630503 -4.182391,5.44045 -6.0625,8.1875 0.213617,4.9167 4.813327,8.96068 2.90625,14.25 -0.397314,5.56777 -2.235856,11.22086 -6.8125,14.59375 -3.8408343,5.03925 -6.2100674,14.96914 0.875,18.3125 2.487855,0.23144 4.898688,-2.82967 5.0625,1.53125 2.742348,6.09427 10.786618,9.26242 10.375,16.90625 2.341258,5.07819 -5.500929,11.23734 -0.1875,15.4375 2.195272,1.69985 2.455199,6.50011 6.613032,5.53097 4.115252,1.0718 8.375196,3.93297 11.136968,6.84403 -1.557144,9.35899 -8.71138,16.96964 -10.15625,26.21875 0.94806,4.07712 6.355832,4.12857 9.03125,6.78125 5.435865,1.59566 13.013962,-4.09437 16.65625,2.09375 1.265426,3.93094 4.691682,7.31838 9.21875,6 4.167618,0.39061 7.717602,3.61052 12.3125,3.21875 7.246145,1.34887 14.752957,-0.72497 21.875,0.21875 2.68752,2.16361 0.73178,6.8802 2.78125,9.71875 1.46243,2.99877 3.66047,8.80201 0.53125,11.03125 -4.91174,-0.005 -11.201976,-2.51819 -14.4375,2.8125 -4.306312,3.61272 -9.927254,4.99324 -14.09375,9 2.550759,2.20256 7.345322,3.67537 5.40625,8.03125 -1.914007,9.75591 9.403151,15.99618 17.84375,15.8125 5.81942,2.24385 11.0885,7.47859 17.90625,5.25 7.94322,-0.79483 12.81823,-7.82098 14.1875,-15.09375 4.27047,-8.19772 -3.69638,-15.27243 -4.7797,-22.94297 -0.4352,-3.19839 0.52494,-3.82412 4.47422,-6.57735 3.10024,-1.83187 5.75252,-4.28426 9.25391,-3.43048 4.55109,0.896 11.23822,-0.46823 13.76515,-3.79279 -0.8249,-30.40658 -7.28538,-72.27135 -6.99756,-90.90972 0.28782,-18.63837 1.81242,-18.30897 3.73988,-23.39218 3.68868,-11.67501 2.63479,-21.01409 4.13785,-33.20451 0.14751,-4.53852 2.90457,-8.555044 -1.59375,-11.25 -2.06554,-6.458172 0.0205,-13.896934 -0.40625,-20.65625 0.30306,-5.581806 0.85497,-11.814151 -3.34375,-16.125 -1.66996,-5.843707 0.59301,-13.226628 -5,-17.5625 -2.26747,-2.70354 -2.48842,-7.382038 -6.90625,-7.78125 -6.20008,-1.663185 -10.41405,8.319925 -16,3.65625 -5.45217,-2.213637 -10.57158,-6.625838 -16.75,-6.25 z"
     id="path530522"
     type="area" code="530522" />
  <path
     style="fill:#e6e6e6"
     d="m 196.125,73.96875 c -6.95497,0.345848 -10.79356,7.309822 -11.65625,13.46875 -1.59171,4.847063 -6.90218,6.465839 -11.375,4.875 -5.14189,-0.715328 -13.76272,0.610324 -14.45937,7.75 -1.50962,15.47145 -0.92639,27.59941 -6.57498,42.50473 -3.80959,10.05263 -0.26449,24.03189 -0.57053,34.41129 -0.37837,12.83242 3.5695,36.9942 4.08147,49.89618 0.467,11.76875 1.35945,13.11153 1.61406,24.46905 10.27297,0.98651 21.49954,5.5137 31.6281,3.75 3.03562,-0.5286 9.51991,-1.66971 10.19681,-6.04684 0.84841,-5.48618 7.55755,-7.89441 13.28032,-7.45635 2.36254,0.18084 -0.92813,-5.61172 15.84859,-12.47141 4.80981,-5.36982 1.24444,-8.13081 6.48893,-8.51118 7.56002,-0.54831 11.90504,7.71895 17.93535,11.54828 6.02356,3.82505 11.22186,7.94167 17.07033,11.42967 4.75453,2.83558 -0.22278,12.02531 7.00163,11.88904 8.99213,-2.4177 16.9519,-13.17446 23.23752,-19.29462 7.53233,-8.55235 14.91455,-17.42655 17.90927,-28.61784 1.67776,-6.68603 7.85377,-14.35999 2.15625,-20.75 -7.29517,-8.32106 -16.29349,-15.199 -20.875,-25.59375 -2.09627,-5.34553 -7.34955,-7.16524 -12,-9.5625 -6.15471,-5.46203 -9.53251,-13.70318 -8.45656,-22.06156 0.41972,-3.02107 -0.89346,-8.81763 3.70656,-6.37594 2.62038,0.59853 8.82793,4.51416 8.65625,-0.75 0.33243,-10.92959 -8.53574,-19.12194 -16.8125,-24.71875 -4.22811,-5.03777 -11.47308,-2.776839 -15.5,1.21875 -2.52898,2.31104 -6.2852,2.3842 -9.1875,2.3125 -3.14974,6.69725 -11.60209,11.10233 -18.9375,9 -6.28291,-1.80751 -1.74272,-8.86686 -1.90625,-13.0625 -1.54497,-6.750388 -9.38181,-7.12501 -15.03125,-6.875 -0.22355,-4.784425 2.69447,-12.829501 -3.03125,-15.25 -4.71003,-1.074025 -9.58814,-1.241957 -14.4375,-1.125 z"
     id="path530502"
     type="area" code="530502"  />
  <path
     style="fill:#e6e6e6"
     d="m 419.6875,172.71875 c -5.27803,0.90204 -13.99216,2.01784 -13.65625,9.125 -1.09937,5.02865 -6.717,7.81764 -6.15625,13.375 -5.26449,5.0259 -15.33571,-0.31759 -19.875,6.03125 -2.06808,5.05989 -9.92769,5.51931 -13.5,1.84375 -1.93202,-2.06671 -5.52651,-1.56646 -7.3125,-3 -5.44993,-6.83692 -15.61881,-6.47369 -22.59375,-11.21875 -7.27042,-2.75659 -11.30404,6.06457 -13.41427,11.45499 -3.92577,9.5712 -7.59648,17.49482 -13.95445,26.00283 -2.1763,2.91224 -2.41635,3.58645 -6.8094,8.55001 -4.39305,4.96356 -14.64061,17.17534 -23.9109,20.5953 -5.24313,-0.44361 -3.01468,6.18667 -0.22348,9.61562 3.65976,6.47833 9.36838,11.0373 13.94533,16.72968 -6.50344,11.06161 -1.42578,24.51673 -4.94533,36.20782 -6.50046,8.39489 -2.34068,19.30721 -4.375,28.78125 1.27812,4.40886 4.63897,8.06712 5.40625,12.84375 2.31538,4.8941 0.46581,11.91417 5.96875,14.8125 2.78352,2.91931 -2.45887,4.9617 -1.9375,8.28125 -0.60596,4.33127 0.33731,10.15316 5.77631,10.39159 4.05545,1.70558 8.76669,2.06972 11.97369,-1.42284 3.5233,-1.36694 8.29524,-1.07034 9.875,-5.40625 1.55933,-6.23231 5.61883,-12.92248 12.46875,-13.75 6.96193,-2.15283 13.45087,-6.98128 14.6875,-14.53125 2.6455,-5.25784 6.0039,-11.07907 11.15625,-14.1875 3.51788,0.67211 10.70125,0.18539 9.03125,-5.09375 -2.23862,-3.17452 1.53562,-6.62491 -0.1875,-10.125 -0.68534,-5.42309 -3.99467,-10.19966 -6.65625,-14.53125 0.68965,-4.0403 8.5564,-3.41789 6.9375,-8.71875 0.49405,-3.56476 4.91021,-3.4667 7.59375,-3.125 4.16428,-1.85764 0.11586,-8.74787 5.53125,-9.625 4.08771,-2.6448 8.90423,-3.10342 13.125,-5 3.32167,-4.52063 5.02418,-13.33792 -0.59375,-16.6875 -2.5937,-0.131 -6.8553,-4.41361 -2.625,-5.75 3.64723,-1.44484 5.0114,-5.76254 8.96875,-6.3125 3.37774,-2.85136 -0.76622,-6.34045 -1.9375,-9.03125 1.79689,-3.60123 6.8458,-5.11651 9.40625,-8.4375 3.69539,-2.65552 -6.4204,-8.36642 -1.40625,-10.96875 8.16447,-4.7536 15.07506,-12.05902 24.40625,-14.3125 3.98269,-1.76544 6.6682,-6.18103 11.5,-5.65625 3.61936,-0.82214 8.57009,-3.77615 9.15813,-6.71086 -2.53791,-4.56861 -5.08164,-11.85155 -11.75188,-10.53914 -3.88644,0.17252 -5.96454,-3.29826 -6.09375,-6.625 -1.94025,-4.49133 -6.48467,-7.48144 -7.5,-12.28125 -1.25882,-1.68282 -3.57817,-1.80371 -5.5,-1.59375 z"
     id="path530524"
     type="area" code="530524"  />
  <path
     style="fill:#e6e6e6"
     d="m 234.625,221.0625 c -4.72529,0.46794 -2.44205,6.10337 -6.25,8.34375 -5.17154,3.04264 -11.52711,4.37757 -13.99062,10.65315 -1.18185,3.01066 -2.60799,1.95513 -5.65692,1.8082 -4.11197,-0.19816 -8.52936,3.6722 -9.22282,7.86293 -0.92795,5.60781 -13.76702,3.61761 -12.34366,10.88516 2.22572,5.13143 10.68913,8.08523 13.33902,13.07181 3.25052,4.58008 8.21028,7.36562 12.09375,11.25 8.82473,5.06718 9.3975,6.24813 10.00236,13.61185 0.1599,3.53559 0.90627,11.27108 -0.0257,15.13815 -5.26806,9.27991 -3.85814,19.06847 -9.78361,28.0727 -1.29349,2.97568 -7.52509,9.47931 -2.59922,11.64605 8.60995,0.0507 13.18722,8.7389 18.1875,14.40625 2.88889,1.629 6.67335,3.18979 5.78125,7.40625 -0.65599,3.0818 1.03983,9.0566 4.96875,6.03125 5.13299,-4.14347 9.18382,-10.61773 16.78125,-9.875 6.07601,-1.07976 2.9036,-9.02019 6.5,-12.5625 3.74696,-3.9182 6.03503,-9.41136 10.28125,-12.53125 3.94533,-0.63799 10.00716,-0.867 9.71875,-6.21875 -0.39476,-7.3252 -2.03243,-9.43302 -1.75,-14.09375 0.41694,-6.8803 7.83364,-9.56586 6.17572,-17.32917 -1.27632,-5.97645 -1.5131,-14.57373 1.69928,-20.13958 2.51687,-4.3608 2.70863,-7.54985 -1.40625,-10.53125 -4.36101,-3.15973 -5.51884,-5.26162 -10.25,-14.125 -2.62246,-3.91576 -3.95937,-7.51787 -5.5,-12.6875 -0.0891,-4.53165 -2.79176,-9.56811 -7.71875,-9.625 -6.95529,-4.50144 -12.8825,-10.36025 -19.97658,-14.77342 -2.07577,-2.94669 -4.50686,-6.25258 -9.05467,-5.69533 z"
     id="path530521"
     type="area" code="530521"  />
  <path
     style="fill:#e6e6e6"
     d="m 156.96875,252.15788 c -2.3888,1.9397 -12.51025,4.85596 -14.78125,3.64058 -1.7276,-0.92457 -4.7063,0.39167 -8.125,3.13904 -3.5652,2.86524 -5.14489,3.02551 -4.62419,5.66955 0.327,1.66029 0.87713,3.82757 2.1844,6.57262 1.30717,2.94895 1.24627,2.17835 2.31804,5.26404 1.45909,4.09067 1.7432,7.07028 0.86877,11.51462 -0.87444,4.44433 -3.15656,8.68051 -6.02496,11.0337 -8.12681,6.66711 -12.19369,7.18346 -21.87129,2.23455 -3.4218,-1.74985 -7.908003,-3.22422 -9.470303,-3.22422 -1.5624,0 -4.828117,-0.18741 -7.161717,-1.31486 -4.4615,-2.15557 -7.05585,-1.94618 -9.28125,0.75 -1.1174,1.35801 -1.1263,1.68366 0,2.0625 1.9718,0.66317 8.15625,6.28173 8.15625,7.40625 0,0.52973 1.08095,2.40545 2.40625,4.15625 1.3253,1.7508 2.5628,4.3125 2.75,5.6875 0.3082,2.26305 0.72285,2.4673 4.34375,2.15625 2.2,-0.189 6.475,-1.26232 9.5,-2.375 3.025,-1.11268 8.3365,-2.47923 11.8125,-3.03125 5.4256,-0.86164 6.9099,-0.74698 10.4375,0.84375 2.26,1.01912 5.1791,1.70434 6.5,1.53125 4.107,-0.5382 8.4199,5.42332 5.3125,7.34375 -0.8057,0.49796 0.64125,3.01872 6.40625,11.09375 0.6969,0.97615 0.2391,2.1271 -1.625,4.125 -1.4299,1.5325 -3.0373,3.7125 -3.5625,4.8125 -1.4941,3.12944 -0.6926,9.41208 1.5,11.8125 4.0239,4.40513 5.33035,8.36248 4.59375,13.9375 -0.3805,2.88008 -1.6213,6.5015 -2.75,8.03125 -2.7262,3.69511 -2.4185,9.09719 0.8125,14.75 1.4022,2.45305 2.5525,5.22174 2.5625,6.15625 0.009,1.30866 -4.0129,5.11601 -7.8125,7.40625 -0.8046,0.48524 -0.8572,9.01732 -0.0625,10 0.5703,0.70508 3.8693,0.95661 9.125,0.71875 4.5357,-0.20527 12.4134,-0.50624 17.5,-0.6875 l 9.25,-0.34375 5.875,-5.59375 c 3.2305,-3.08137 7.1672,-5.88593 8.75,-6.21875 1.5828,-0.33282 5.575,-1.62872 8.875,-2.90625 3.3,-1.27753 7.46578,-2.64549 9.25,-3.03125 1.78423,-0.38575 3.62325,-1.37802 4.09375,-2.21875 0.77141,-1.37844 3.40391,-2.22215 12.65625,-4.03125 1.65,-0.32263 4.8,-1.72693 7,-3.125 3.91628,-2.48873 3.9417,-2.5653 1.5,-3.15625 -2.07191,-0.50146 -2.06455,-2.74737 -2.61251,-6.57809 -0.5923,-4.14066 -0.64896,-5.04016 -9.07972,-13.58126 -7.40269,-7.49958 -6.7388,-9.0431 -12.92656,-9.91564 -3.97362,-0.56031 -6.82409,-2.33994 -1.74062,-9.94688 2.48485,-3.71834 5.30348,-9.45 6.25,-12.75 0.94652,-3.3 2.67741,-9.59982 4.19688,-14.32188 2.35626,-7.32257 2.55018,-9.25731 1.95782,-14.72813 -0.93505,-8.63565 -0.57532,-11.04718 -6.65633,-15.04846 -8.01075,-5.27104 -12.62239,-10.74724 -15.83747,-14.57337 -1.9068,-2.26921 -3.03205,-1.90081 -5.31797,-4.54374 -7.51937,-6.72094 -10.27763,-9.93861 -6.92468,-12.36484 -9.18173,-0.0104 -17.51438,-1.911 -30.49634,-4.23983 z"
     id="path530523"
    type="area" code="530523"  />
  <g
     transform="matrix(0.98695514,0,0,1.0304851,195.77677,-706.93408)"
     id="g530522" type="data" code="530522" >
    <text
       id="text530522-lc"
       x="-122.67094"
       y="849.59302"
       style="font-size:12px;fill:#ffffff;filter:url(#green);font-family:Sans">22</text>
    <text
       id="text530522-cq"
       x="-98.986"
       y="849.59302"
       style="font-size:12px;fill:#ffffff;filter:url(#orange);font-family:Sans">22</text>
  </g>
  <g
     transform="matrix(0.98695514,0,0,1.0304851,354.14542,-557.82391)"
     id="g530521" type="data" code="530521">
    <text
       id="text530521-lc"
       x="-122.67094"
       y="849.59302"
       style="font-size:12px;fill:#ffffff;filter:url(#green);font-family:Sans">22</text>
    <text
       id="text530521-cq"
       x="-98.986"
       y="849.59302"
       style="font-size:12px;fill:#ffffff;filter:url(#orange);font-family:Sans">22</text>
  </g>
  <g
     transform="matrix(0.98695514,0,0,1.0304851,432.5988,-624.63324)"
     id="g530524" type="data" code="530524">
    <text
       id="text530524-lc"
       x="-122.67094"
       y="849.59302"
       style="font-size:12px;fill:#ffffff;filter:url(#green);font-family:Sans">22</text>
    <text
       id="text530524-cq"
       x="-98.986"
       y="849.59302"
       style="font-size:12px;fill:#ffffff;filter:url(#orange);font-family:Sans">22</text>
  </g>
  <g
     transform="matrix(0.98695514,0,0,1.0304851,277.64118,-560.3112)"
     id="g530523" type="data" code="530523">
    <text
       id="text530523-lc"
       x="-122.67094"
       y="849.59302"
       style="font-size:12px;fill:#ffffff;filter:url(#green);font-family:Sans">22</text>
    <text
       id="text530523-cq"
       x="-98.986"
       y="849.59302"
       style="font-size:12px;fill:#ffffff;filter:url(#orange);font-family:Sans">22</text>
  </g>
  <g
     transform="matrix(0.98695514,0,0,1.0304851,312.13695,-715.80697)"
     id="g530502" type="data" code="530502">
    <text
       id="text530502-lc"
       x="-122.67094"
       y="849.59302"
       style="font-size:12px;fill:#ffffff;filter:url(#green);font-family:Sans">22</text>
    <text
       id="text530502-cq"
       x="-98.986"
       y="849.59302"
       style="font-size:12px;fill:#ffffff;filter:url(#orange);font-family:Sans">22</text>
  </g>
  <path
     sodipodi:type="arc"
     style="fill:#d40000;fill-opacity:1;stroke:#dd66ff;stroke-opacity:0"
     id="D530522"
     sodipodi:cx="314.82144"
     sodipodi:cy="114.75"
     sodipodi:rx="3.0357144"
     sodipodi:ry="3.0357144"
     d="m 317.85716,114.75 a 3.0357144,3.0357144 0 1 1 -6.07143,0 3.0357144,3.0357144 0 1 1 6.07143,0 z"
     transform="matrix(0.79797983,0,0,0.79797981,-171.56915,86.95634)" />
  <text
     xml:space="preserve"
     style="font-size:40px;font-style:normal;font-weight:normal;line-height:125%;letter-spacing:0px;word-spacing:0px;fill:#000000;fill-opacity:1;stroke:none;font-family:Sans"
     x="87.20948"
     y="184.57414"
     id="text530522"
     sodipodi:linespacing="125%"><tspan
       sodipodi:role="line"
       id="tspan5565"
       x="87.20948"
       y="184.57414"
       style="font-size:12px;fill:#ffffff">腾冲</tspan></text>
  <path
     sodipodi:type="arc"
     style="fill:#d40000;fill-opacity:1;stroke:#dd66ff;stroke-opacity:0"
     id="D530523"
     sodipodi:cx="314.82144"
     sodipodi:cy="114.75"
     sodipodi:rx="3.0357144"
     sodipodi:ry="3.0357144"
     d="m 317.85716,114.75 a 3.0357144,3.0357144 0 1 1 -6.07143,0 3.0357144,3.0357144 0 1 1 6.07143,0 z"
     transform="matrix(0.79797983,0,0,0.79797981,-78.984403,234.11735)" />
  <text
     xml:space="preserve"
     style="font-size:40px;font-style:normal;font-weight:normal;line-height:125%;letter-spacing:0px;word-spacing:0px;fill:#000000;fill-opacity:1;stroke:none;font-family:Sans"
     x="161.27728"
     y="339.43008"
     id="text530523"
     sodipodi:linespacing="125%"><tspan
       sodipodi:role="line"
       id="tspan5565-4"
       x="161.27728"
       y="339.43008"
       style="font-size:12px;fill:#ffffff">龙陵</tspan></text>
  <path
     sodipodi:type="arc"
     style="fill:#d40000;fill-opacity:1;stroke:#dd66ff;stroke-opacity:0"
     id="D530521"
     sodipodi:cx="314.82144"
     sodipodi:cy="114.75"
     sodipodi:rx="3.0357144"
     sodipodi:ry="3.0357144"
     d="m 317.85716,114.75 a 3.0357144,3.0357144 0 1 1 -6.07143,0 3.0357144,3.0357144 0 1 1 6.07143,0 z"
     transform="matrix(0.79797983,0,0,0.79797981,-2.9674538,249.71057)" />
  <text
     xml:space="preserve"
     style="font-size:40px;font-style:normal;font-weight:normal;line-height:125%;letter-spacing:0px;word-spacing:0px;fill:#000000;fill-opacity:1;stroke:none;font-family:Sans"
     x="235.83238"
     y="335.73517"
     id="text530521"
     sodipodi:linespacing="125%"><tspan
       sodipodi:role="line"
       id="tspan5565-9"
       x="235.83238"
       y="335.73517"
       style="font-size:12px;fill:#ffffff">施甸</tspan></text>
  <path
     sodipodi:type="arc"
     style="fill:#d40000;fill-opacity:1;stroke:#dd66ff;stroke-opacity:0"
     id="D530524"
     sodipodi:cx="314.82144"
     sodipodi:cy="114.75"
     sodipodi:rx="3.0357144"
     sodipodi:ry="3.0357144"
     d="m 317.85716,114.75 a 3.0357144,3.0357144 0 1 1 -6.07143,0 3.0357144,3.0357144 0 1 1 6.07143,0 z"
     transform="matrix(0.79797983,0,0,0.79797981,86.206275,171.25718)" />
  <text
     xml:space="preserve"
     style="font-size:40px;font-style:normal;font-weight:normal;line-height:125%;letter-spacing:0px;word-spacing:0px;fill:#000000;fill-opacity:1;stroke:none;font-family:Sans"
     x="308.43829"
     y="267.90042"
     id="text530524"
     sodipodi:linespacing="125%"><tspan
       sodipodi:role="line"
       id="tspan5565-0"
       x="308.43829"
       y="267.90042"
       style="font-size:12px;fill:#ffffff">昌宁</tspan></text>
  <path
     sodipodi:type="arc"
     style="fill:#d40000;fill-opacity:1;stroke:#dd66ff;stroke-opacity:0"
     id="D530502"
     sodipodi:cx="314.82144"
     sodipodi:cy="114.75"
     sodipodi:rx="3.0357144"
     sodipodi:ry="3.0357144"
     d="m 317.85716,114.75 a 3.0357144,3.0357144 0 1 1 -6.07143,0 3.0357144,3.0357144 0 1 1 6.07143,0 z"
     transform="matrix(0.79797983,0,0,0.79797981,-25.869997,81.108878)" />
  <text
     xml:space="preserve"
     style="font-size:40px;font-style:normal;font-weight:normal;line-height:125%;letter-spacing:0px;word-spacing:0px;fill:#000000;fill-opacity:1;stroke:none;font-family:Sans"
     x="189.05272"
     y="176.2394"
     id="text530502"
     sodipodi:linespacing="125%"><tspan
       sodipodi:role="line"
       id="tspan5565-3"
       x="189.05272"
       y="176.2394"
       style="font-size:12px;fill:#ffffff">隆阳</tspan></text>
</svg>
