<?xml version="1.0" encoding="UTF-8" standalone="no"?>
<!-- Created with Inkscape (http://www.inkscape.org/) -->

<svg
   xmlns:dc="http://purl.org/dc/elements/1.1/"
   xmlns:cc="http://creativecommons.org/ns#"
   xmlns:rdf="http://www.w3.org/1999/02/22-rdf-syntax-ns#"
   xmlns:svg="http://www.w3.org/2000/svg"
   xmlns="http://www.w3.org/2000/svg"
   xmlns:sodipodi="http://sodipodi.sourceforge.net/DTD/sodipodi-0.dtd"
   xmlns:inkscape="http://www.inkscape.org/namespaces/inkscape"
   id="svg13358"
   version="1.1"
   inkscape:version="0.48.5 r10040"
   width="100%"
   height="100%"
   viewBox="0 0 460 460"
   sodipodi:docname="5306-1.svg">
  <metadata
     id="metadata13364">
    <rdf:RDF>
      <cc:Work
         rdf:about="">
        <dc:format>image/svg+xml</dc:format>
        <dc:type
           rdf:resource="http://purl.org/dc/dcmitype/StillImage" />
        <dc:title></dc:title>
      </cc:Work>
    </rdf:RDF>
  </metadata>
  <defs
     id="defs13362" />
  <filter
     x="-0.1"
     y="0"
     width="1.2"
     height="1"
     id="green">
    <feFlood
       flood-color="#008000"
       id="feFlood6"
       result="result1" />
    <feComposite
       in="SourceGraphic"
       id="feComposite8"
       in2="result1" />
  </filter>
  <filter
     x="-0.1"
     y="0"
     width="1.2"
     height="1"
     id="orange">
    <feFlood
       flood-color="#ff7f2a"
       id="feFlood11"
       result="result1" />
    <feComposite
       in="SourceGraphic"
       id="feComposite13"
       in2="result1" />
  </filter>
  <sodipodi:namedview
     pagecolor="#ffffff"
     bordercolor="#666666"
     borderopacity="1"
     objecttolerance="10"
     gridtolerance="10"
     guidetolerance="10"
     inkscape:pageopacity="0"
     inkscape:pageshadow="2"
     inkscape:window-width="1920"
     inkscape:window-height="1018"
     id="namedview13360"
     showgrid="false"
     inkscape:zoom="1.8391304"
     inkscape:cx="146.89715"
     inkscape:cy="220.68691"
     inkscape:window-x="-8"
     inkscape:window-y="-8"
     inkscape:window-maximized="1"
     inkscape:current-layer="svg13358" />
  <g
     id="g13368"
     transform="translate(-473.24038,11.645941)"
     style="fill:#e6e6e6">
    <path
       style="fill:#e6e6e6"
       d="m 523.90625,258.40625 c -8.68117,0.17849 -17.07087,7.83642 -25.65625,3.84375 -3.5715,-4.67553 -9.21184,0.79737 -11.375,4.5 -6.33537,12.66588 -3.09768,27.6226 -1.13591,40.74661 -4.566,16.38981 -7.21077,36.99894 5.47966,50.44089 8.13986,7.42757 10.55566,19.24365 13.65654,29.35072 1.99643,8.2403 3.02534,16.56937 3.40596,25.02428 8.25275,1.24916 6.90928,-11.51074 14.15625,-12.59375 4.27063,-0.5531 8.08035,4.26294 12.75,2.5 9.86695,-2.93662 8.02412,-17.40491 17.15625,-21 5.63083,-0.14672 11.96463,4.73481 17.28125,0.90625 4.26301,-4.5689 -1.36392,-12.17503 3.59375,-16.6875 5.66668,-9.42493 9.99075,-23.23002 7.24764,-34.21011 -1.77125,-6.59318 -9.36971,-8.50509 -13.5594,-4.70227 -3.55868,4.16509 -8.51846,4.36042 -9.74454,-3.51958 -1.3002,-4.84305 3.48412,-13.5965 -3.85158,-16.40551 -4.05379,-0.40737 -8.00416,-2.46543 -9.7663,-5.73714 -1.76214,-3.27171 -1.47198,-7.14538 -0.7829,-11.11599 1.18913,-4.77485 3.06555,-10.60514 2.85863,-16.12768 -0.20693,-5.52253 -2.63312,-10.19358 -4.00015,-11.90233 -7.83855,-1.46387 -12.14801,-3.94798 -17.7139,-3.31064 z"
       id="path530622"
       inkscape:connector-curvature="0"
       sodipodi:nodetypes="ccccccccccccccccscscc"
       onmouseover="changeColorOver('path530622')"
       onmouseout="changeColorOut('path530622')" />
    <path
       style="fill:#e6e6e6"
       d="m 576.34375,248.4375 c -5.59059,1.22112 -2.42675,7.94884 -2.4375,11.75 1.13862,6.21636 -0.75789,15.39049 -8.4375,15.59375 -8.01263,-0.008 -15.80641,-12.10465 -22.80223,-14.26086 0.79671,3.48297 4.45102,9.86135 3.55223,13.26086 0.57366,7.87792 -4.11877,15.39731 -3.28125,23.125 1.62703,5.82277 7.9314,7.2937 12.71875,9.1875 5.95873,5.69103 -2.27963,16.93802 5.75,21.21875 4.49082,1.45899 4.21924,-3.7665 8.50938,-3.83754 5.29229,-1.07673 9.45176,1.55282 11.34848,6.53361 6.46092,0.18835 14.65484,-1.71846 20.97151,0.28539 3.66579,0.84893 9.77887,0.22698 10.53592,-3.28214 -4.34076,-5.91513 -1.49505,-13.15554 2.292,-18.471 6.32326,-9.8445 2.84748,-16.08597 -2.92679,-21.09623 -3.44546,-2.60181 -11.68503,-1.36714 -18.19068,-3.00236 -3.05992,-2.3858 -4.35928,-4.36755 -3.94328,-8.19236 0.67495,-10.09283 1.86923,-20.42344 -6.29741,-27.27647 -1.978,-2.02854 -6.01363,-1.62138 -7.36163,-1.5359 z"
       id="path530621"
       inkscape:connector-curvature="0"
       sodipodi:nodetypes="cccccccccccccccccc" />
    <path
       style="fill:#e6e6e6"
       d="m 194.47422,229.33282 c -22.51058,0.59856 -33.2801,-1.17967 -48.4375,8.15625 -4.58872,2.82634 -7.3576,7.57448 -16.09922,8.97968 -8.76972,-2.87108 -18.99581,-7.23576 -27.53125,-0.65625 -3.010301,1.28627 -4.63472,3.37304 -8.230721,3.9632 -3.14336,0.51588 -6.173325,-1.23382 -9.740393,-5.26159 -1.615276,-1.8239 -4.345721,-3.53514 -6.389111,-3.38047 -11.42946,1.37949 -20.038085,15.60991 -21.327275,25.89761 1.03372,3.4604 2.90286,4.04589 8.53125,5 5.141545,-0.4538 8.83367,2.73277 21.260934,13.07964 8.408379,5.68921 14.196506,-2.78736 13.863256,-8.90381 -0.18584,-8.23697 -3.835277,-13.23495 0.26559,-15.69304 7.97813,-4.78216 17.28856,2.31497 17.67664,21.27268 -0.49126,7.52669 -2.62878,12.54217 4.46483,15.27578 5.77158,1.25748 11.04167,-0.19675 15.65625,1.8125 4.28013,4.17626 7.57435,6.4926 7.62035,14.04063 -1.98523,4.87779 -3.47583,8.56305 -5.61562,11.2664 7.43725,2.33171 16.56535,-2.3856 20.55777,-10.36953 6.43749,-15.69492 28.80624,-19.44921 31.5625,-37.21875 1.05384,-4.6461 -4.58123,-7.30988 -5.18831,-11.91637 -2.51253,-4.74926 3.11379,-10.09599 6.02765,-14.59486 4.5117,-6.96586 5.83641,-7.21109 9.26683,-13.01226 -0.27078,-2.07875 -4.93871,-7.82401 -8.19445,-7.73744 z"
       transform="translate(473.24038,-11.645941)"
       id="path530602"
       inkscape:connector-curvature="0"
       sodipodi:nodetypes="ssccsscccccsccccccccscs"
       onmouseover="changeColorOver('path530602')"
       onmouseout="changeColorOut('path530602')" />
    <path
       style="fill:#e6e6e6"
       d="m 722.34392,166.33656 c -8.42252,2.65656 -9.33162,8.01323 -18.21671,10.55936 -6.6933,1.62187 -8.91745,3.10055 -10.98685,7.27357 -2.57651,5.30492 -3.45408,11.60451 -4.43816,17.86392 -0.98408,6.25941 -5.54097,14.31375 -8.54351,19.45795 -7.95221,11.883 -10.52196,13.23628 -19.68602,28.33754 0.17009,4.82548 3.14109,8.85313 6.12108,12.51485 0.97662,-5.03961 5.19933,-9.14082 10.53125,-7.9375 3.15052,0.81046 8.58522,-0.77035 8.53125,3.75 4.28044,12.23196 22.26969,10.94595 26.0625,23.59375 1.55474,3.93544 6.23885,2.82879 7.96875,-0.34375 15.58075,-4.59525 18.26954,-24.10906 30.78125,-32.59375 3.65882,1.92764 11.43706,4.64164 12.75,-1.34375 0.60454,-7.26677 -2.79047,-14.38662 -4.28361,-21.69917 -1.11175,-8.13689 -9.52234,-6.07178 -14.95317,-9.55083 -1.86043,-1.4131 -0.42944,-4.03712 2.12966,-5.6445 9.56307,-3.78091 13.3351,-7.80953 28.26019,-6.31339 3.36454,0.45156 4.63727,3.3856 10.01323,-0.19134 9.28998,-5.41805 17.09223,-7.87363 29.4516,-18.92849 1.1955,-2.83469 4.6741,-4.3863 2.9446,-12.60978 -5.4402,-2.50103 -11.40774,2.18478 -16.53125,3.8125 -3.23161,2.60539 -7.61107,4.54713 -11.53125,1.875 -6.05924,-2.34733 -11.12514,-10.25387 -18.3125,-8.40625 -3.2392,0.82142 -4.46483,3.09826 -7.96557,4.57033 -9.89042,4.15894 -24.06169,10.39696 -28.69149,7.3617 -2.24979,-2.21475 -2.63316,-1.98788 -3.69297,-10.0789 -1.25477,-3.30665 -3.71439,-5.93598 -7.7123,-5.32907 z"
       id="path530628"
       inkscape:connector-curvature="0"
       sodipodi:nodetypes="cccscccccccccccccccccccsccc"
       onmouseover="changeColorOver('path530628')"
       onmouseout="changeColorOut('path530628')" />
    <path
       style="fill:#e6e6e6"
       d="m 816.7695,180.58016 c -3.59543,10.26977 -21.68739,18.26737 -32.59293,24.19954 -2.4138,2.79123 -4.64416,2.26932 -8.48907,0.25155 -14.80662,-2.99426 -26.08668,5.14587 -29.76249,6.33828 -1.01173,0.81281 -2.65588,2.50351 -1.35468,4.64761 5.68713,2.07606 15.95713,1.23035 16.30976,15.22672 2.29308,7.17293 1.94076,10.62136 4.77616,18.44364 1.55631,3.94373 5.30318,7.16265 9.75,6.8125 4.04019,13.94434 20.82301,18.74829 33.5625,15.34375 4.56891,-0.89501 9.54255,-3.73377 13.71875,-0.78125 5.74642,1.04582 12.0523,-6.73415 16.875,-1.28125 1.56404,2.327 2.86797,6.42363 6.53125,4.28125 14.09793,-3.82455 22.78472,-19.66162 38.40625,-19.5 6.1664,-0.60937 10.84111,6.9424 16.96875,3.3125 6.38163,-3.99271 6.93083,-12.51735 8.375,-19.1875 -0.12226,-3.43685 -1.70961,-7.23176 1.0625,-10.25 3.85374,-5.99579 12.5092,-12.6232 8.78125,-20.625 -5.23025,-4.15654 -10.26185,-9.96524 -16.96875,-11.5625 -13.33114,-1.42914 -24.92873,9.62281 -35.94851,6.44142 -3.05468,-0.88188 -3.98799,-0.37245 -4.7797,-5.3125 -0.31127,-1.94228 -1.62442,-3.36224 -2.26632,-3.75628 -12.61686,-3.30508 -27.77175,5.17212 -37.20472,-1.16756 -6.42061,-7.51599 -4.46623,-9.33679 -5.75,-11.87492 z"
       id="path530627"
       inkscape:connector-curvature="0"
       onmouseover="changeColorOver('path530627')"
       onmouseout="changeColorOut('path530627')"
       sodipodi:nodetypes="ccccccccccccccccccssccc" />
    <path
       style="fill:#e6e6e6"
       d="M 656.85367,60.945053 C 649.72581,65.813997 655.20336,76.45013 658,82.46875 c 1.59351,3.962896 3.45553,8.412533 2.53125,12.625 -10.77091,4.549627 -17.91804,17.09964 -30.21875,17.59375 -3.66693,-3.25685 -7.62921,-9.35758 -13.46875,-6.6875 -13.98592,3.02525 -19.08375,18.47623 -30.8125,25.09375 -4.09207,2.74572 -7.41171,10.23831 -1.5625,13.03125 5.13066,1.77726 11.53477,6.01949 9.59375,12.4375 2.89822,-2.15225 11.02397,-0.25425 7.5,4.125 -3.2177,1.53663 -6.7751,4.32674 -5.46875,8.34375 -0.90308,18.49863 -18.45729,32.89468 -33.26929,41.55054 -8.75031,5.88027 -11.91843,15.73026 -2.91879,23.62489 5.62166,5.01338 8.65393,4.77776 17.67176,-2.06596 7.15541,-4.2806 16.90433,-1.4259 22.70072,1.14282 3.4983,1.08846 7.19555,0.34888 10.76004,-1.86946 8.2149,-6.7307 16.03243,-11.71732 23.08381,-12.35973 4.36009,-1.16535 6.38023,-0.47851 9.13382,-1.99373 -0.0331,-2.73862 -2.7584,-8.31645 -3.67537,-12.49576 -0.92887,-6.11091 -2.85802,-11.6999 -1.77113,-17.39066 7.30809,-4.28852 11.61722,-15.58641 5.17738,-22.1445 -9.23757,-8.31534 -9.4578,-9.3004 -11.30629,-16.81952 5.33548,-9.65784 9.4014,-9.73465 14.9449,-11.86602 3.65231,-1.05254 11.40625,-4.5836 16.46452,-5.58478 6.13519,0.13308 8.39944,-5.42808 6.89313,-8.03941 -0.66075,-1.44963 -1.27578,-4.09515 -1.31354,-6.27607 -0.0378,-2.18093 0.026,-1.5184 2.48993,-3.21658 3.69704,-1.12681 7.47223,-1.60837 9.65901,-4.02798 2.18978,-2.42294 4.83613,-5.56717 6.34944,-8.35573 1.5133,-2.788564 1.21389,-5.153504 1.25031,-8.328744 0.0364,-3.17524 -0.27099,-6.209243 -2.03609,-9.248465 -0.16028,-3.257881 -5.65406,-6.060269 -8.65616,-7.248926 -7.9503,-3.147856 -11.85661,-8.700877 -17.32435,-14.413802 -1.14899,-1.039203 -2.17084,-2.239888 -3.54784,-0.65862 z"
       id="path530625"
       inkscape:connector-curvature="0"
       sodipodi:nodetypes="ccccccccccccccccccccccccscssscscc"
       onmouseover="changeColorOver('path530625')"
       onmouseout="changeColorOut('path530625')" />
    <path
       style="fill:#e6e6e6"
       d="m 681.65844,109.38129 c -2.96556,1.37396 -4.32952,2.61878 -9.08739,4.0119 -4.14649,1.93554 -3.79817,1.66055 -2.80229,5.53182 0.30419,4.27852 3.08341,6.46257 -0.50081,9.83371 -3.4969,3.28901 -6.7091,2.4563 -9.79056,3.50323 -8.35594,2.83896 -11.95885,4.78581 -14.00199,5.29023 -4.57979,1.1307 -6.05847,2.69361 -7.83031,3.56992 -1.77183,0.87631 -2.57687,2.62646 -5.02009,8.06535 0.0715,5.33617 6.55347,11.08678 8.75,12.6875 5.17184,5.32938 7.37682,11.08707 3.04536,20.00628 -2.58577,3.26154 -7.17306,4.962 -6.29536,10.39605 2.10188,10.24126 2.6257,18.40673 6.15212,24.54671 0.91855,1.59932 7.56135,0.49534 10.84012,0.57438 2.93427,0.0707 9.66574,-2.16323 16.84375,1.29455 1.47821,1.4352 4.03487,5.45184 4.83176,6.02991 0.79688,0.57807 3.72698,-5.12942 5.21575,-8.00871 3.85477,-7.4552 5.07792,-9.47189 6.29532,-17.24447 1.21741,-7.77258 1.26871,-15.45277 7.79458,-20.9041 1.57002,-1.0246 4.05649,-0.40894 11.94707,-3.52249 -3.23284,-5.14241 -8.96377,-12.5005 -13.96502,-23.66966 -10.18036,-22.73555 -9.22737,-17.99762 -9.39295,-27.5297 0.92795,-5.17625 4.37658,-17.31461 3.0068,-22.66728 -2.73248,4.37995 -2.03591,4.14374 -3.61519,5.50756 z"
       id="path530624"
       inkscape:connector-curvature="0"
       sodipodi:nodetypes="cccssssccccsscsssccscccc"
       onmouseover="changeColorOver('path530624')"
       onmouseout="changeColorOut('path530624')" />
    <path
       style="fill:#e6e6e6"
       d="m 881.09375,134.0625 c -15.28101,0.61411 -28.31852,12.94184 -32.28125,27.28125 -7.51226,8.17813 -21.57173,3.64463 -28.96875,12.34375 -6.21485,6.67589 0.0571,21.2915 9.96949,20.457 11.26645,1.52155 19.43771,-4.30844 31.60631,-0.7859 1.43842,3.39456 0.20481,8.45085 5.85232,8.57269 12.94637,2.75393 20.57296,-6.96655 32.96099,-6.87899 4.85099,1.03634 12.94565,4.62267 15.48345,8.47503 7.87859,-1.5203 5.8876,-11.90189 1.40869,-17.49608 -1.92196,-4.86026 -8.56484,-10.64188 -4.84375,-16.03125 4.95889,-3.41884 10.26404,-11.21714 4.65625,-16.4375 -4.80251,-4.84968 -13.85782,-1.68961 -17.9375,-6.875 1.48045,-2.67406 4.42187,-7.61065 -0.0937,-9.15625 -5.73501,-1.97774 -11.60829,-3.88266 -17.8125,-3.46875 z"
       id="path530629"
       inkscape:connector-curvature="0"
       sodipodi:nodetypes="ccccccccccccccc" />
    <path
       style="fill:#e6e6e6"
       d="m 698.84595,75.55228 c -3.09124,4.075538 0.50691,8.450478 -6.78618,13.162185 -2.79916,0.771221 -2.43888,1.009657 -2.52608,5.035535 -0.23205,6.199465 -0.55481,11.18441 -1.28484,17.76385 -0.644,5.80411 -3.63001,7.84595 -3.10339,18.57074 3.20194,5.75791 9.83001,22.62181 13.65455,29.36384 3.1834,5.61179 6.84093,9.63986 9.83823,15.18928 4.24395,-4.03752 12.74883,-12.14031 19.48676,-7.70021 4.90163,8.30764 2.42138,9.70663 3.91556,12.5492 3.52354,4.78842 11.11462,2.25357 21.99062,-2.06451 6.79497,-3.09986 13.58553,-4.05942 10.56257,-10.67219 -4.20318,-8.13572 -11.83234,-13.99658 -18.45389,-19.95325 -1.55208,-0.95844 -7.69217,-3.26806 -3.04611,-3.8905 5.34402,-1.67615 12.27514,-2.68086 14.78125,-8.4375 4.98557,-0.73776 9.11342,-6.11774 6.1875,-10.875 -0.99899,-3.32898 -6.31189,-7.36966 -3.28125,-10.65625 2.21556,-1.66603 5.06834,-1.95718 7.6875,-2.8125 -6.7854,-6.12385 -10.49268,-17.77596 -20.6875,-19.09375 -2.81287,-0.144836 -5.5224,1.174578 -7.5625,2.96875 -7.3836,-9.288942 -18.18206,-12.786287 -29.87307,-14.636849 -2.84297,-0.450011 -10.52422,-4.085806 -11.49973,-3.810871 z"
       id="path530623"
       inkscape:connector-curvature="0"
       sodipodi:nodetypes="cccscscccccccccccccsc"
       onmouseover="changeColorOver('path530623')"
       onmouseout="changeColorOut('path530623')" />
    <path
       style="fill:#e6e6e6"
       d="m 657.4375,32.71875 c -2.09984,9.256156 -11.53579,17.509338 -8.65625,27.625 3.02747,5.300706 9.62231,-4.943565 12.71875,0.71875 4.35324,4.668764 4.41938,6.503954 11.23641,11.465491 5.65434,4.115308 12.15481,3.965394 15.17265,11.954977 0.27672,6.446243 2.14422,6.118949 8.41703,-0.9365 1.1612,-5.747276 2.03292,-13.037803 4.95472,-18.538915 4.06577,-7.654982 9.16865,-11.741334 15.38398,-16.870797 3.38498,-2.147627 2.39884,-4.087195 7.52271,-10.105506 -3.73143,-2.871735 -8.94883,-4.22463 -12.84375,-1.09375 -11.08882,3.940233 -24.27461,-1.265022 -34.5,5.5 -3.99654,-4.930666 -14.16193,-2.131063 -15.4375,-9.375 -1.79157,-5.828246 -1.81493,-7.195144 -3.96875,-0.34375 z"
       id="path530626"
       inkscape:connector-curvature="0"
       sodipodi:nodetypes="cccsccscccccc"
       onmouseover="changeColorOver('path530626')"
       onmouseout="changeColorOut('path530626')" />
    <path
       style="fill:#e6e6e6"
       d="m 724.49974,42.101621 c -7.53837,8.593713 -13.62734,10.340748 -18.61469,17.144029 -3.29667,4.497008 -5.38941,8.662766 -7.10484,15.144012 9.01734,3.112464 22.01761,6.631608 30.93854,9.672838 5.44874,-1.464567 2.54489,-8.891138 2.84375,-12.875 1.53703,-4.593772 -3.26357,-8.458428 -1.4375,-13.15625 5.22062,-6.74945 15.61757,-5.977219 21.75,-11.78125 4.15907,-2.186795 6.82013,-11.348094 0.3125,-11.96875 -6.51688,0.07001 -15.99175,9.487677 -20.34375,1.363856 -0.54167,0.572917 -7.80234,5.883598 -8.34401,6.456515 z"
       id="path530630"
       inkscape:connector-curvature="0"
       sodipodi:nodetypes="cacccccccc"
       onmouseover="changeColorOver('path530630')"
       onmouseout="changeColorOut('path530630')" />
  </g>
  <g
     transform="matrix(0.98695514,0,0,1.0304851,513.59033,-698.21375)"
     id="g530629">
    <text
       id="text530629-lc"
       x="-122.67094"
       y="849.59302"
       style="font-size:12px;fill:#ffffff;filter:url(#green);font-family:Sans">22</text>
  </g>
  <g
     transform="matrix(0.98695514,0,0,1.0304851,477.69181,-642.32441)"
     id="g530627">
    <text
       id="text530627-lc"
       x="-122.67094"
       y="849.59302"
       style="font-size:12px;fill:#ffffff;filter:url(#green);font-family:Sans">22</text>
  </g>
  <g
     transform="matrix(0.98695514,0,0,1.0304851,350.2577,-654.60147)"
     id="g530628">
    <text
       id="text530628-lc"
       x="-122.67094"
       y="849.59302"
       style="font-size:12px;fill:#ffffff;filter:url(#green);font-family:Sans">22</text>
  </g>
  <g
     transform="matrix(0.98695514,0,0,1.0304851,358.72316,-750.49708)"
     id="g530623">
    <text
       id="text530623-lc"
       x="-122.67094"
       y="849.59302"
       style="font-size:12px;fill:#ffffff;filter:url(#green);font-family:Sans">22</text>
  </g>
  <g
     transform="matrix(0.98695514,0,0,1.0304851,306.65368,-702.32107)"
     id="g530624">
    <text
       id="text530624-lc"
       x="-122.67094"
       y="849.59302"
       style="font-size:12px;fill:#ffffff;filter:url(#green);font-family:Sans">22</text>
  </g>
  <g
     transform="matrix(0.98695514,0,0,1.0304851,254.99287,-721.93831)"
     id="g530625">
    <text
       id="text530625-lc"
       x="-122.67094"
       y="849.59302"
       style="font-size:12px;fill:#ffffff;filter:url(#green);font-family:Sans">22</text>
  </g>
  <g
     transform="matrix(0.98695514,0,0,1.0304851,311.51829,-812.23916)"
     id="g530626">
    <text
       id="text530626-lc"
       x="-122.67094"
       y="849.59302"
       style="font-size:12px;fill:#ffffff;filter:url(#green);font-family:Sans">22</text>
  </g>
  <g
     transform="matrix(0.98695514,0,0,1.0304851,368.71321,-813.75189)"
     id="g530630">
    <text
       id="text530630-lc"
       x="-122.67094"
       y="849.59302"
       style="font-size:12px;fill:#ffffff;filter:url(#green);font-family:Sans">22</text>
  </g>
  <g
     transform="matrix(0.98695514,0,0,1.0304851,256.58421,-595.55404)"
     id="g530602">
    <text
       id="text530602-lc"
       x="-122.67094"
       y="849.59302"
       style="font-size:12px;fill:#ffffff;filter:url(#green);font-family:Sans">22</text>
  </g>
  <g
     transform="matrix(0.98695514,0,0,1.0304851,204.41164,-558.08721)"
     id="g530621">
    <text
       id="text530621-lc"
       x="-122.67094"
       y="849.59302"
       style="font-size:12px;fill:#ffffff;filter:url(#green);font-family:Sans">22</text>
  </g>
  <g
     transform="matrix(0.98695514,0,0,1.0304851,165.50126,-513.88264)"
     id="g530622">
    <text
       id="text530622-lc"
       x="-114.56519"
       y="849.59302"
       style="font-size:12px;fill:#ffffff;filter:url(#green);font-family:Sans">22</text>
  </g>
  <path
     sodipodi:type="arc"
     style="fill:#d40000;fill-opacity:1;stroke:#dd66ff;stroke-opacity:0"
     id="D530629"
     sodipodi:cx="314.82144"
     sodipodi:cy="114.75"
     sodipodi:rx="3.0357144"
     sodipodi:ry="3.0357144"
     d="m 317.85716,114.75 a 3.0357144,3.0357144 0 1 1 -6.07143,0 3.0357144,3.0357144 0 1 1 6.07143,0 z"
     transform="matrix(0.79797983,0,0,0.79797981,140.29526,95.727521)" />
  <text
     xml:space="preserve"
     style="font-size:40px;font-style:normal;font-weight:normal;line-height:125%;letter-spacing:0px;word-spacing:0px;fill:#000000;fill-opacity:1;stroke:none;font-family:Sans"
     x="396.9722"
     y="190.85805"
     id="text530629"
     sodipodi:linespacing="125%"><tspan
       sodipodi:role="line"
       id="tspan5565"
       x="396.9722"
       y="190.85805"
       style="font-size:12px;fill:#666666">威信</tspan></text>
  <path
     sodipodi:type="arc"
     style="fill:#d40000;fill-opacity:1;stroke:#dd66ff;stroke-opacity:0"
     id="D530627"
     sodipodi:cx="314.82144"
     sodipodi:cy="114.75"
     sodipodi:rx="3.0357144"
     sodipodi:ry="3.0357144"
     d="m 317.85716,114.75 a 3.0357144,3.0357144 0 1 1 -6.07143,0 3.0357144,3.0357144 0 1 1 6.07143,0 z"
     transform="matrix(0.79797983,0,0,0.79797981,104.23594,152.25295)" />
  <text
     xml:space="preserve"
     style="font-size:40px;font-style:normal;font-weight:normal;line-height:125%;letter-spacing:0px;word-spacing:0px;fill:#000000;fill-opacity:1;stroke:none;font-family:Sans"
     x="362.47644"
     y="249.87076"
     id="text530627"
     sodipodi:linespacing="125%"><tspan
       sodipodi:role="line"
       id="tspan5565-6"
       x="362.47644"
       y="249.87076"
       style="font-size:12px;fill:#666666">镇雄</tspan></text>
  <path
     sodipodi:type="arc"
     style="fill:#d40000;fill-opacity:1;stroke:#dd66ff;stroke-opacity:0"
     id="D530628"
     sodipodi:cx="314.82144"
     sodipodi:cy="114.75"
     sodipodi:rx="3.0357144"
     sodipodi:ry="3.0357144"
     d="m 317.85716,114.75 a 3.0357144,3.0357144 0 1 1 -6.07143,0 3.0357144,3.0357144 0 1 1 6.07143,0 z"
     transform="matrix(0.79797983,0,0,0.79797981,-1.0183014,138.60888)" />
  <text
     xml:space="preserve"
     style="font-size:40px;font-style:normal;font-weight:normal;line-height:125%;letter-spacing:0px;word-spacing:0px;fill:#000000;fill-opacity:1;stroke:none;font-family:Sans"
     x="220.53363"
     y="235.93222"
     id="text530628"
     sodipodi:linespacing="125%"><tspan
       sodipodi:role="line"
       id="tspan5565-3"
       x="220.53363"
       y="235.93222"
       style="font-size:12px;fill:#666666">彝良</tspan></text>
  <path
     sodipodi:type="arc"
     style="fill:#d40000;fill-opacity:1;stroke:#dd66ff;stroke-opacity:0"
     id="D530623"
     sodipodi:cx="314.82144"
     sodipodi:cy="114.75"
     sodipodi:rx="3.0357144"
     sodipodi:ry="3.0357144"
     d="m 317.85716,114.75 a 3.0357144,3.0357144 0 1 1 -6.07143,0 3.0357144,3.0357144 0 1 1 6.07143,0 z"
     transform="matrix(0.79797983,0,0,0.79797981,6.778309,45.536844)" />
  <text
     xml:space="preserve"
     style="font-size:40px;font-style:normal;font-weight:normal;line-height:125%;letter-spacing:0px;word-spacing:0px;fill:#000000;fill-opacity:1;stroke:none;font-family:Sans"
     x="227.89725"
     y="141.53618"
     id="text530623"
     sodipodi:linespacing="125%"><tspan
       sodipodi:role="line"
       id="tspan5565-0"
       x="227.89725"
       y="141.53618"
       style="font-size:12px;fill:#666666">盐津</tspan></text>
  <path
     sodipodi:type="arc"
     style="fill:#d40000;fill-opacity:1;stroke:#dd66ff;stroke-opacity:0"
     id="D530624"
     sodipodi:cx="314.82144"
     sodipodi:cy="114.75"
     sodipodi:rx="3.0357144"
     sodipodi:ry="3.0357144"
     d="m 317.85716,114.75 a 3.0357144,3.0357144 0 1 1 -6.07143,0 3.0357144,3.0357144 0 1 1 6.07143,0 z"
     transform="matrix(0.79797983,0,0,0.79797981,-41.463216,91.829215)" />
  <text
     xml:space="preserve"
     style="font-size:40px;font-style:normal;font-weight:normal;line-height:125%;letter-spacing:0px;word-spacing:0px;fill:#000000;fill-opacity:1;stroke:none;font-family:Sans"
     x="177.11414"
     y="188.22881"
     id="text530624"
     sodipodi:linespacing="125%"><tspan
       sodipodi:role="line"
       id="tspan5565-7"
       x="177.11414"
       y="188.22881"
       style="font-size:12px;fill:#666666">大关</tspan></text>
  <path
     sodipodi:type="arc"
     style="fill:#d40000;fill-opacity:1;stroke:#dd66ff;stroke-opacity:0"
     id="D530625"
     sodipodi:cx="314.82144"
     sodipodi:cy="114.75"
     sodipodi:rx="3.0357144"
     sodipodi:ry="3.0357144"
     d="m 317.85716,114.75 a 3.0357144,3.0357144 0 1 1 -6.07143,0 3.0357144,3.0357144 0 1 1 6.07143,0 z"
     transform="matrix(0.79797983,0,0,0.79797981,-93.603048,43.100403)" />
  <text
     xml:space="preserve"
     style="font-size:40px;font-style:normal;font-weight:normal;line-height:125%;letter-spacing:0px;word-spacing:0px;fill:#000000;fill-opacity:1;stroke:none;font-family:Sans"
     x="128.87263"
     y="135.74365"
     id="text530625"
     sodipodi:linespacing="125%"><tspan
       sodipodi:role="line"
       id="tspan5565-30"
       x="128.87263"
       y="135.74365"
       style="font-size:12px;fill:#666666">永善</tspan></text>
  <path
     sodipodi:type="arc"
     style="fill:#d40000;fill-opacity:1;stroke:#dd66ff;stroke-opacity:0"
     id="D530626"
     sodipodi:cx="314.82144"
     sodipodi:cy="114.75"
     sodipodi:rx="3.0357144"
     sodipodi:ry="3.0357144"
     d="m 317.85716,114.75 a 3.0357144,3.0357144 0 1 1 -6.07143,0 3.0357144,3.0357144 0 1 1 6.07143,0 z"
     transform="matrix(0.79797983,0,0,0.79797981,-40.001352,-18.78519)" />
  <text
     xml:space="preserve"
     style="font-size:40px;font-style:normal;font-weight:normal;line-height:125%;letter-spacing:0px;word-spacing:0px;fill:#000000;fill-opacity:1;stroke:none;font-family:Sans"
     x="182.71794"
     y="78.588974"
     id="text530626"
     sodipodi:linespacing="125%"><tspan
       sodipodi:role="line"
       id="tspan5565-1"
       x="182.71794"
       y="78.588974"
       style="font-size:12px;fill:#666666">绥江</tspan></text>
  <path
     sodipodi:type="arc"
     style="fill:#d40000;fill-opacity:1;stroke:#dd66ff;stroke-opacity:0"
     id="D530630"
     sodipodi:cx="314.82144"
     sodipodi:cy="114.75"
     sodipodi:rx="3.0357144"
     sodipodi:ry="3.0357144"
     d="m 317.85716,114.75 a 3.0357144,3.0357144 0 1 1 -6.07143,0 3.0357144,3.0357144 0 1 1 6.07143,0 z"
     transform="matrix(0.79797983,0,0,0.79797981,-1.2619455,-20.490699)" />
  <text
     xml:space="preserve"
     style="font-size:40px;font-style:normal;font-weight:normal;line-height:125%;letter-spacing:0px;word-spacing:0px;fill:#000000;fill-opacity:1;stroke:none;font-family:Sans"
     x="234.12685"
     y="83.552963"
     id="text530630"
     sodipodi:linespacing="125%"><tspan
       sodipodi:role="line"
       id="tspan5565-4"
       x="234.12685"
       y="83.552963"
       style="font-size:12px;fill:#666666">水富</tspan></text>
  <path
     sodipodi:type="arc"
     style="fill:#d40000;fill-opacity:1;stroke:#dd66ff;stroke-opacity:0"
     id="D530602"
     sodipodi:cx="314.82144"
     sodipodi:cy="114.75"
     sodipodi:rx="3.0357144"
     sodipodi:ry="3.0357144"
     d="m 317.85716,114.75 a 3.0357144,3.0357144 0 1 1 -6.07143,0 3.0357144,3.0357144 0 1 1 6.07143,0 z"
     transform="matrix(0.79797983,0,0,0.79797981,-94.202633,171.27573)" />
  <text
     xml:space="preserve"
     style="font-size:40px;font-style:normal;font-weight:normal;line-height:125%;letter-spacing:0px;word-spacing:0px;fill:#000000;fill-opacity:1;stroke:none;font-family:Sans"
     x="128.75835"
     y="263.10742"
     id="text530602"
     sodipodi:linespacing="125%"><tspan
       sodipodi:role="line"
       id="tspan5565-79"
       x="128.75835"
       y="263.10742"
       style="font-size:12px;fill:#666666">昭阳</tspan></text>
  <path
     sodipodi:type="arc"
     style="fill:#d40000;fill-opacity:1;stroke:#dd66ff;stroke-opacity:0"
     id="D530621"
     sodipodi:cx="314.82144"
     sodipodi:cy="114.75"
     sodipodi:rx="3.0357144"
     sodipodi:ry="3.0357144"
     d="m 317.85716,114.75 a 3.0357144,3.0357144 0 1 1 -6.07143,0 3.0357144,3.0357144 0 1 1 6.07143,0 z"
     transform="matrix(0.79797983,0,0,0.79797981,-147.12533,206.51754)" />
  <text
     xml:space="preserve"
     style="font-size:40px;font-style:normal;font-weight:normal;line-height:125%;letter-spacing:0px;word-spacing:0px;fill:#000000;fill-opacity:1;stroke:none;font-family:Sans"
     x="77.3862"
     y="299.72748"
     id="text530621"
     sodipodi:linespacing="125%"><tspan
       sodipodi:role="line"
       id="tspan5565-40"
       x="77.3862"
       y="299.72748"
       style="font-size:12px;fill:#666666">鲁甸</tspan></text>
  <path
     sodipodi:type="arc"
     style="fill:#d40000;fill-opacity:1;stroke:#dd66ff;stroke-opacity:0"
     id="D530622"
     sodipodi:cx="314.82144"
     sodipodi:cy="114.75"
     sodipodi:rx="3.0357144"
     sodipodi:ry="3.0357144"
     d="m 317.85716,114.75 a 3.0357144,3.0357144 0 1 1 -6.07143,0 3.0357144,3.0357144 0 1 1 6.07143,0 z"
     transform="matrix(0.79797983,0,0,0.79797981,-203.27156,252.03298)" />
  <text
     xml:space="preserve"
     style="font-size:40px;font-style:normal;font-weight:normal;line-height:125%;letter-spacing:0px;word-spacing:0px;fill:#000000;fill-opacity:1;stroke:none;font-family:Sans"
     x="52.041004"
     y="345.24295"
     id="text530622"
     sodipodi:linespacing="125%"><tspan
       sodipodi:role="line"
       id="tspan5565-49"
       x="52.041004"
       y="345.24295"
       style="font-size:12px;fill:#666666">巧家</tspan></text>
</svg>
