<?xml version="1.0" encoding="UTF-8" standalone="no"?>
<!-- Created with Inkscape (http://www.inkscape.org/) -->

<svg
   xmlns:dc="http://purl.org/dc/elements/1.1/"
   xmlns:cc="http://creativecommons.org/ns#"
   xmlns:rdf="http://www.w3.org/1999/02/22-rdf-syntax-ns#"
   xmlns:svg="http://www.w3.org/2000/svg"
   xmlns="http://www.w3.org/2000/svg"
   xmlns:sodipodi="http://sodipodi.sourceforge.net/DTD/sodipodi-0.dtd"
   xmlns:inkscape="http://www.inkscape.org/namespaces/inkscape"
   id="svg13816"
   version="1.1"
   inkscape:version="0.48.5 r10040"
   width="100%"
   height="100%"
   viewBox="0 0 460 460"
   sodipodi:docname="5307-1.svg">
  <metadata
     id="metadata13822">
    <rdf:RDF>
      <cc:Work
         rdf:about="">
        <dc:format>image/svg+xml</dc:format>
        <dc:type
           rdf:resource="http://purl.org/dc/dcmitype/StillImage" />
        <dc:title></dc:title>
      </cc:Work>
    </rdf:RDF>
  </metadata>
  <defs
     id="defs13820" />
  <filter
     x="-0.1"
     y="0"
     width="1.2"
     height="1"
     id="green">
    <feFlood
       flood-color="#008000"
       id="feFlood6"
       result="result1" />
    <feComposite
       in="SourceGraphic"
       id="feComposite8"
       in2="result1" />
  </filter>
  <filter
     x="-0.1"
     y="0"
     width="1.2"
     height="1"
     id="orange">
    <feFlood
       flood-color="#ff7f2a"
       id="feFlood11"
       result="result1" />
    <feComposite
       in="SourceGraphic"
       id="feComposite13"
       in2="result1" />
  </filter>
  <sodipodi:namedview
     pagecolor="#ffffff"
     bordercolor="#666666"
     borderopacity="1"
     objecttolerance="10"
     gridtolerance="10"
     guidetolerance="10"
     inkscape:pageopacity="0"
     inkscape:pageshadow="2"
     inkscape:window-width="1920"
     inkscape:window-height="1018"
     id="namedview13818"
     showgrid="false"
     inkscape:zoom="1.8391304"
     inkscape:cx="230"
     inkscape:cy="230"
     inkscape:window-x="-8"
     inkscape:window-y="-8"
     inkscape:window-maximized="1"
     inkscape:current-layer="svg13816" />
  <g
     id="g13837"
     transform="translate(-447.04506,29.926417)">
    <path
       style="fill:#e6e6e6"
       d="m 680.4375,160.55402 c -2.02792,5.65793 -4.26735,26.15427 -4.28125,30.72723 0.25033,11.20664 0.96274,20.58454 -1.8803,31.19492 -3.00186,11.2031 -11.55607,20.32972 -9.20477,31.31954 2.39359,11.18749 7.35861,28.39006 1.30117,29.85312 5.37712,6.30524 13.24654,10.13809 11.3464,16.78867 -1.62923,6.87209 -4.48335,16.56656 2.96875,21.125 2.64198,1.29089 -2.2769,3.34122 -3,5.25 -12.50567,15.01134 -6.77584,35.57518 -7.87488,53.3418 -0.98184,4.14647 5.64198,3.48929 7.15613,7.1582 7.10516,9.83604 3.69774,26.27747 15.96875,32.4375 6.51537,2.45141 13.7809,3.01966 20.71875,3.0625 5.84666,-0.0129 6.8469,-6.91944 5.37156,-11.33092 -0.27666,-5.07218 -3.72776,-11.46766 2.19742,-14.52164 9.6301,-8.5213 19.89774,-20.22688 33.93102,-20.14744 6.27168,0.55748 10.61615,5.77186 13.6875,10.78125 16.42236,-21.33545 36.84259,-41.11759 62.96875,-49.8125 -9.35362,-24.5112 -28.58081,-43.69229 -43.48452,-59.4375 -2.56804,-2.71304 -8.58057,0.65032 -9.56603,-2.51901 -1.28979,-4.14805 -0.46953,-4.41299 -3.25161,-9.13325 -2.05605,-3.48842 -2.68046,-7.12177 -2.64724,-9.88469 0.11179,-9.29668 3.54883,-17.00777 -4.49923,-23.16061 -5.95932,-3.39563 -23.91821,-5.27466 -28.73043,-7.89747 -12.39356,-6.75485 -14.89449,-6.97601 -19.93694,-22.67669 -1.12325,-4.88745 6.35631,-7.6684 1.05084,-12.43046 -4.10025,-3.68029 -9.35559,9.17488 -16.08314,9.72442 -9.20377,0.79965 -14.0917,-11.25937 -18.83624,-20.73805 -4.939,-9.86715 -3.18194,-19.3146 -5.39046,-19.07392 z"
       id="path530722"
       inkscape:connector-curvature="0"
       sodipodi:nodetypes="ccsscccccccccccccsssscscscsc"
       onmouseout="changeColorOut('path530722')"
       onmouseover="changeColorOver('path530722')" />
    <path
       style="fill:#e6e6e6"
       d="m 810.56685,202.67228 c -4.75941,1.74887 -1.11082,2.0004 -0.28614,4.78153 1.37627,4.64131 2.43765,10.42889 1.93567,15.6669 -0.88947,9.28122 -1.78695,20.58653 -8.63974,26.60347 -7.98984,7.01529 -15.13184,9.62441 -15.34675,21.85924 0.91513,12.27827 5.25155,7.43168 21.48345,27.37922 9.58924,11.78432 15.63841,23.46707 25.53666,35.63111 8.36359,10.27809 24.86057,-6.45449 37.5,-2.3125 7.66039,1.09905 18.11437,-3.25206 17.53125,-12.21875 C 889.66066,311.01737 882.401,304.35441 875,300.21875 c 10.63095,-5.89423 16.24413,-17.57929 17.8125,-29.28125 1.53111,-6.17012 4.02505,-12.35383 8.78125,-16.75 -2.14059,-2.19592 -4.53916,-8.70977 -8.21875,-4.875 -2.0818,5.94222 -5.94989,15.26574 -13.875,13.4375 -2.82966,-3.73291 -2.36774,-9.37858 -3.375,-13.8125 -0.70642,-9.37061 -0.47422,-22.70586 -10.75,-27 -3.69697,-1.32052 -7.81243,-0.87614 -11.5625,-0.34375 0.27997,-7.00067 -4.23163,-15.55075 -12.3125,-14.5625 -8.79177,0.0609 -12.50825,-0.83101 -20.40082,-4.53288 -1.05189,-0.49337 -9.41167,-0.23788 -10.53233,0.17391 z"
       id="path530723"
       inkscape:connector-curvature="0"
       sodipodi:nodetypes="ssascsscccccccccccss"
       onmouseover="changeColorOver('path530723')"
       onmouseout="changeColorOut('path530723')" />
    <path
       style="fill:#e6e6e6"
       d="m 655.79025,132.17002 c -7.34217,0.29108 -7.07228,13.33721 -9.23305,17.09269 -2.16076,3.75548 -6.5298,8.39019 -8.37711,11.22987 -6.33691,9.74108 -2.9605,13.87162 -1.87606,24.5927 0.37501,3.7074 1.22775,12.16031 -4.19174,14.1054 -6.97635,2.50385 -10.05663,-5.86868 -15.32468,-0.50212 -3.96919,4.04341 4.33548,17.5562 6.259,21.31144 5.59111,10.91538 7.80128,11.77561 -0.85064,17.77913 -5.31025,3.68475 -14.54464,8.97649 -18.90836,13.92823 -3.12033,3.54081 -2.61428,12.97415 2.36864,15.94889 5.76902,-0.0475 8.08745,-7.35852 11.97811,-10.6213 2.8446,-3.1124 5.75463,-6.75745 10.02189,-8.0037 0.1351,11.78858 12.14816,17.08112 21.44094,20.88404 5.65843,2.44996 11.68113,6.38044 12.55906,13.05346 6.00153,1.05278 8.1763,-5.72219 6.59375,-10.34375 -1.87495,-10.84709 -7.33746,-21.03848 -3.36123,-31.45657 4.2303,-11.08378 11.08991,-19.20978 10.34695,-30.85583 0.0956,-11.07639 -2.17767,-26.15876 1.7611,-36.69554 3.06681,-14.2351 4.3898,-22.70693 2.66155,-30.71452 -8.31913,2.04201 -14.69829,-10.62699 -23.86812,-10.73252 z"
       id="path530702"
       inkscape:connector-curvature="0"
       sodipodi:nodetypes="czsssssssccccccscccc"
       onmouseover="changeColorOver('path530702')"
       onmouseout="changeColorOut('path530702')" />
    <path
       style="fill:#e6e6e6"
       d="M 665.5625,13.96875 C 654.88994,18.66035 643.58973,26.890038 641.46875,39 c -3.95355,5.428256 -8.26118,10.939706 -9.34375,17.875 -4.2269,17.47402 3.11571,36.204435 -3.15625,53.3125 -3.24122,8.87827 -10.75154,15.3325 -19.09375,19.375 -14.30843,10.21081 -16.25224,29.20281 -16.58735,45.37148 -0.45325,14.76598 -2.88584,32.11572 -16.35015,40.65977 -5.54419,-7.00024 -5.63464,-16.66743 -9.44487,-24.56133 -7.26579,-20.92073 -19.74425,-40.22141 -37.24331,-54.07541 -15.06133,-13.48261 -31.68042,-30.00147 -31.53057,-51.73826 0.24688,-9.332945 1.91767,-22.684986 -8.28125,-27.53125 -11.0224,-3.877651 -22.1402,5.673724 -26.8125,15.0625 -2.42444,7.112553 0.27978,14.944563 -0.53125,22.375 0.0115,11.66806 -1.42702,23.8014 -7.8125,33.8125 8.19714,20.35309 5.49222,45.68677 22.03125,62.21875 6.5564,5.21295 12.90378,11.62461 13.37179,20.51412 2.909,14.66156 0.24311,33.33109 13.40946,43.54838 18.19024,12.08567 41.91249,6.14683 61.4375,15.0625 5.57645,1.61962 9.31154,6.71986 14.75,8.28125 9.52051,0.23674 12.66452,-10.92725 15.98561,-17.82627 2.93236,-7.17128 9.46437,-12.07151 15.15846,-16.99841 6.12717,-5.30164 16.91287,-6.89091 14.49841,-15.33581 C 623.29704,219.21485 612.7537,207.96446 614.65625,198 c 2.5516,-4.9237 8.35261,-1.06656 11.8125,0.3125 4.70789,1.82353 10.28372,-1.5782 9.0625,-7.0625 0.50585,-11.12384 -5.38784,-18.95159 0.63983,-29.21133 1.75412,-2.98571 6.92449,-7.8556 9.3125,-12.70446 4.16766,-8.46241 0.17819,-9.13636 6.67585,-16.0911 5.35524,-5.73195 14.30651,3.7831 20.50635,7.47458 7.14249,4.25274 17.66377,-4.87323 17.77172,-13.59269 1.21455,-10.14203 -4.21623,-25.1547 -9.09428,-39.370617 C 671.00954,57.639292 680.7499,40.104375 667.5625,14.5 c -0.21661,-1.62058 -0.43512,-1.416133 -2,-0.53125 z"
       id="path530721"
       inkscape:connector-curvature="0"
       sodipodi:nodetypes="ccccccccccccccccccccsscccsssscscc"
       onmouseover="changeColorOver('path530721')"
       onmouseout="changeColorOut('path530721')" />
    <path
       style="fill:#e6e6e6"
       d="m 722.125,-21.25 c -5.79737,1.05567 -10.42475,6.044894 -10.53125,12 -0.94962,6.4106791 -7.44928,10.7631839 -13.65625,8.28125 -8.93243,-1.5841728 -18.1319,-9.546534 -27.3125,-4.96875 -5.7807,25.228706 3.55991,5.8724188 6.6822,68.289725 0.16335,3.265418 1.33211,12.813042 2.62107,16.873798 6.46532,20.368446 11.35005,32.609977 11.20309,48.979487 -0.0735,8.18475 -6.69972,8.59946 -8.99062,14.5187 -2.29091,5.91924 0.11898,23.3123 1.79358,29.63808 2.08203,7.07591 5.00438,15.14706 10.46663,20.64883 3.08985,3.1122 5.17954,8.73006 10.9428,6.20763 5.56309,-1.93075 8.94174,-10.92191 15.40625,-9.15625 2.84106,1.83643 2.89841,4.77267 1.125,7.40625 -3.70335,9.0644 3.09438,17.75364 10.15625,22.71875 5.23677,4.18764 5.81901,3.90244 13.2019,6.52773 5.36198,1.90667 24.99681,1.19359 28.6731,12.53477 2.06527,5.96362 0.35723,6.06473 0.18538,16.70657 -0.74317,7.59907 0.48905,7.03502 3.28718,11.63718 1.41551,2.32812 1.03122,9.19927 5.70163,9.1549 8.32508,1.35659 2.00667,-9.45173 7.36738,-15.49229 2.0719,-2.33467 4.02822,-8.48616 12.84276,-12.19606 3.45436,-5.78087 7.62015,-12.4498 7.46101,-22.67664 0.35916,-6.07224 -0.10759,-10.69821 -1.21928,-16.65908 -0.68477,-3.67175 -4.11338,-4.31111 -1.4754,-6.97931 1.96862,-1.99117 13.48522,-1.55176 17.45518,1.17984 2.75084,1.89276 16.83487,2.57365 14.22405,-0.75473 -6.00154,-7.65101 -16.47527,-20.964 -13.39239,-30.92038 2.90073,-4.68477 6.52372,-9.33832 6.25,-15.3125 0.40232,-7.79191 -8.70802,-10.31544 -14.96875,-10.25 -4.53368,-0.57358 -13.80172,0.0545 -13.375,-6.75 0.0725,-2.91406 2.36614,-5.90338 -0.65625,-7.9375 -8.93443,-13.9838 -8.90182,-33.212161 -21.65625,-44.625 -2.40417,-2.238808 -6.32607,-2.369532 -8.96875,-2.6875 C 770.4199,73.584277 773.08027,59.892968 763.75,51.4375 759.75604,49.589612 763.45976,45.091139 761.9375,41.75 760.02542,34.279559 750.76232,31.569232 749,23.8125 739.25403,15.825056 738.52072,1.9402847 733.75,-9 c -1.98739,-5.073482 -4.91216,-12.780414 -11.625,-12.25 z"
       id="path530724"
       inkscape:connector-curvature="0"
       sodipodi:nodetypes="ccccsscscsccccsccscsccsssscccccccccccc"
       onmouseover="changeColorOver('path530724')"
       onmouseout="changeColorOut('path530724')" />
  </g>
  <g
     transform="matrix(0.98695514,0,0,1.0304851,201.50769,-609.96557)"
     id="g530721">
    <text
       id="text530721-lc"
       x="-122.67094"
       y="849.59302"
       style="font-size:12px;fill:#ffffff;filter:url(#green);font-family:Sans">22</text>
  </g>
  <g
     transform="matrix(0.98695514,0,0,1.0304851,416.77253,-691.23917)"
     id="g530724">
    <text
       id="text530724-lc"
       x="-122.67094"
       y="849.59302"
       style="font-size:12px;fill:#ffffff;filter:url(#green);font-family:Sans">22</text>
  </g>
  <g
     transform="matrix(0.98695514,0,0,1.0304851,322.18051,-630.51362)"
     id="g530702">
    <text
       id="text530702-lc"
       x="-122.67094"
       y="849.59302"
       style="font-size:12px;fill:#ffffff;filter:url(#green);font-family:Sans">22</text>
  </g>
  <g
     transform="matrix(0.98695514,0,0,1.0304851,404.47925,-542.99922)"
     id="g530722">
    <text
       id="text530722-lc"
       x="-116.59162"
       y="849.59302"
       style="font-size:12px;fill:#ffffff;filter:url(#green);font-family:Sans">22</text>
  </g>
  <g
     transform="matrix(0.98695514,0,0,1.0304851,500.92379,-579.55061)"
     id="g530723">
    <text
       id="text530723-lc"
       x="-122.67094"
       y="849.59302"
       style="font-size:12px;fill:#ffffff;filter:url(#green);font-family:Sans">22</text>
  </g>
  <path
     sodipodi:type="arc"
     style="fill:#d40000;fill-opacity:1;stroke:#dd66ff;stroke-opacity:0"
     id="D530721"
     sodipodi:cx="314.82144"
     sodipodi:cy="114.75"
     sodipodi:rx="3.0357144"
     sodipodi:ry="3.0357144"
     d="m 317.85716,114.75 a 3.0357144,3.0357144 0 1 1 -6.07143,0 3.0357144,3.0357144 0 1 1 6.07143,0 z"
     transform="matrix(0.79797983,0,0,0.79797981,-179.36576,154.2021)" />
  <text
     xml:space="preserve"
     style="font-size:40px;font-style:normal;font-weight:normal;line-height:125%;letter-spacing:0px;word-spacing:0px;fill:#000000;fill-opacity:1;stroke:none;font-family:Sans"
     x="78.925591"
     y="246.89619"
     id="text530721"
     sodipodi:linespacing="125%"><tspan
       sodipodi:role="line"
       id="tspan5565"
       x="78.925591"
       y="246.89619"
       style="font-size:12px;fill:#666666">玉龙</tspan></text>
  <path
     sodipodi:type="arc"
     style="fill:#d40000;fill-opacity:1;stroke:#dd66ff;stroke-opacity:0"
     id="D530724"
     sodipodi:cx="314.82144"
     sodipodi:cy="114.75"
     sodipodi:rx="3.0357144"
     sodipodi:ry="3.0357144"
     d="m 317.85716,114.75 a 3.0357144,3.0357144 0 1 1 -6.07143,0 3.0357144,3.0357144 0 1 1 6.07143,0 z"
     transform="matrix(0.79797983,0,0,0.79797981,69.15119,70.388538)" />
  <text
     xml:space="preserve"
     style="font-size:40px;font-style:normal;font-weight:normal;line-height:125%;letter-spacing:0px;word-spacing:0px;fill:#000000;fill-opacity:1;stroke:none;font-family:Sans"
     x="283.68829"
     y="164.49365"
     id="text530724"
     sodipodi:linespacing="125%"><tspan
       sodipodi:role="line"
       id="tspan5565-3"
       x="283.68829"
       y="164.49365"
       style="font-size:12px;fill:#666666">宁蒗</tspan></text>
  <path
     sodipodi:type="arc"
     style="fill:#d40000;fill-opacity:1;stroke:#dd66ff;stroke-opacity:0"
     id="D530702"
     sodipodi:cx="314.82144"
     sodipodi:cy="114.75"
     sodipodi:rx="3.0357144"
     sodipodi:ry="3.0357144"
     d="m 317.85716,114.75 a 3.0357144,3.0357144 0 1 1 -6.07143,0 3.0357144,3.0357144 0 1 1 6.07143,0 z"
     transform="matrix(0.79797983,0,0,0.79797981,-38.539488,134.71057)" />
  <text
     xml:space="preserve"
     style="font-size:40px;font-style:normal;font-weight:normal;line-height:125%;letter-spacing:0px;word-spacing:0px;fill:#000000;fill-opacity:1;stroke:none;font-family:Sans"
     x="188.80157"
     y="220.13467"
     id="text530702"
     sodipodi:linespacing="125%"><tspan
       sodipodi:role="line"
       id="tspan5565-8"
       x="188.80157"
       y="220.13467"
       style="font-size:12px;fill:#666666">古城区</tspan></text>
  <path
     sodipodi:type="arc"
     style="fill:#d40000;fill-opacity:1;stroke:#dd66ff;stroke-opacity:0"
     id="D530722"
     sodipodi:cx="314.82144"
     sodipodi:cy="114.75"
     sodipodi:rx="3.0357144"
     sodipodi:ry="3.0357144"
     d="m 317.85716,114.75 a 3.0357144,3.0357144 0 1 1 -6.07143,0 3.0357144,3.0357144 0 1 1 6.07143,0 z"
     transform="matrix(0.79797983,0,0,0.79797981,32.117292,251.17244)" />
  <text
     xml:space="preserve"
     style="font-size:40px;font-style:normal;font-weight:normal;line-height:125%;letter-spacing:0px;word-spacing:0px;fill:#000000;fill-opacity:1;stroke:none;font-family:Sans"
     x="293.36807"
     y="347.2211"
     id="text530722"
     sodipodi:linespacing="125%"><tspan
       sodipodi:role="line"
       id="tspan5565-7"
       x="293.36807"
       y="347.2211"
       style="font-size:12px;fill:#666666">永胜</tspan></text>
  <path
     sodipodi:type="arc"
     style="fill:#d40000;fill-opacity:1;stroke:#dd66ff;stroke-opacity:0"
     id="D530723"
     sodipodi:cx="314.82144"
     sodipodi:cy="114.75"
     sodipodi:rx="3.0357144"
     sodipodi:ry="3.0357144"
     d="m 317.85716,114.75 a 3.0357144,3.0357144 0 1 1 -6.07143,0 3.0357144,3.0357144 0 1 1 6.07143,0 z"
     transform="matrix(0.79797983,0,0,0.79797981,151.50289,218.03685)" />
  <text
     xml:space="preserve"
     style="font-size:40px;font-style:normal;font-weight:normal;line-height:125%;letter-spacing:0px;word-spacing:0px;fill:#000000;fill-opacity:1;stroke:none;font-family:Sans"
     x="369.34933"
     y="314.14194"
     id="text530723"
     sodipodi:linespacing="125%"><tspan
       sodipodi:role="line"
       id="tspan5565-33"
       x="369.34933"
       y="314.14194"
       style="font-size:12px;fill:#666666">华坪</tspan></text>
</svg>
