<?xml version="1.0" encoding="UTF-8" standalone="no"?>
<!-- Created with Inkscape (http://www.inkscape.org/) -->

<svg
   xmlns:dc="http://purl.org/dc/elements/1.1/"
   xmlns:cc="http://creativecommons.org/ns#"
   xmlns:rdf="http://www.w3.org/1999/02/22-rdf-syntax-ns#"
   xmlns:svg="http://www.w3.org/2000/svg"
   xmlns="http://www.w3.org/2000/svg"
   xmlns:sodipodi="http://sodipodi.sourceforge.net/DTD/sodipodi-0.dtd"
   xmlns:inkscape="http://www.inkscape.org/namespaces/inkscape"
   id="svg11103"
   version="1.1"
   inkscape:version="0.48.5 r10040"
   width="100%"
   height="100%"
   viewBox="0 0 460 460"
   sodipodi:docname="5308-1.svg">
  <metadata
     id="metadata11109">
    <rdf:RDF>
      <cc:Work
         rdf:about="">
        <dc:format>image/svg+xml</dc:format>
        <dc:type
           rdf:resource="http://purl.org/dc/dcmitype/StillImage" />
        <dc:title />
      </cc:Work>
    </rdf:RDF>
  </metadata>
  <defs
     id="defs11107" />
  <filter
     x="-0.1"
     y="0"
     width="1.2"
     height="1"
     id="green">
    <feFlood
       flood-color="#008000"
       id="feFlood6"
       result="result1" />
    <feComposite
       in="SourceGraphic"
       id="feComposite8"
       in2="result1" />
  </filter>
  <filter
     x="-0.1"
     y="0"
     width="1.2"
     height="1"
     id="orange">
    <feFlood
       flood-color="#ff7f2a"
       id="feFlood11"
       result="result1" />
    <feComposite
       in="SourceGraphic"
       id="feComposite13"
       in2="result1" />
  </filter>
  <sodipodi:namedview
     pagecolor="#ffffff"
     bordercolor="#666666"
     borderopacity="1"
     objecttolerance="10"
     gridtolerance="10"
     guidetolerance="10"
     inkscape:pageopacity="0"
     inkscape:pageshadow="2"
     inkscape:window-width="1920"
     inkscape:window-height="1018"
     id="namedview11105"
     showgrid="false"
     inkscape:zoom="1.8391304"
     inkscape:cx="206.23266"
     inkscape:cy="200.1078"
     inkscape:window-x="-8"
     inkscape:window-y="-8"
     inkscape:window-maximized="1"
     inkscape:current-layer="svg11103" />
  <g
     id="g11149"
     transform="translate(-2.9237288,-17.542373)">
    <path
       style="fill:#e6e6e6;fill-opacity:1;stroke:#dd66ff;stroke-width:0.68912947;stroke-opacity:0"
       d="m 112.53125,270.40625 c -5.89887,0.95598 -9.31199,9.1353 -15.875,6.34375 -5.476734,-1.14968 -10.39106,-3.92651 -15.53125,-6.03125 -4.720424,2.624 -11.765096,7.01437 -8.03125,13.1875 -0.234569,2.96646 -4.677755,-1.03831 -6.625,-0.40625 -5.467446,-0.19763 -9.994745,4.90461 -8.59375,10.40625 -0.521043,9.67774 0.0717,20.26288 6.34375,28.09375 2.199173,2.38625 6.090626,-0.37739 7.96875,0.25 -1.543847,4.14929 -3.193839,10.96514 2.78125,12.34375 1.048658,0.35574 1.121848,0.68964 1.185796,1.87952 0.254987,1.27651 0.110829,3.1388 -0.842046,3.30798 -4.176326,-0.10267 -7.028637,4.54271 -4.09375,7.9375 3.561946,4.60457 9.012332,8.76406 10.25,14.625 -2.349134,4.69549 -7.712655,5.54172 -12.370763,7.79926 -9.76824,4.94382 -10.381796,2.73281 -15.566942,9.34794 -3.311772,8.516 -3.878912,8.62045 3.062705,13.5403 5.512646,-2.12711 7.993836,-4.38427 13.65625,-7.9375 3.422936,-2.43853 3.134022,-5.09445 7.533898,-3.00371 1.572155,0.78311 1.096576,0.50641 2.34375,3.15625 1.922598,3.69366 3.597099,5.99772 6.716102,8.28496 0.664308,2.85228 -4.389112,3.79445 -6.312021,4.93236 -5.232005,2.16954 -0.648002,10.57188 -1.771065,15.34582 3.79973,9.22043 -9.603229,-0.43809 -8.132583,6.84505 0.17757,8.58335 -3.258673,19.80463 3.778169,26.56427 5.760791,4.00011 13.605105,1.23506 19.34375,5.78125 2.646639,2.0818 6.25565,2.33392 8.03125,-0.84375 2.8818,-4.55602 8.29268,2.26297 12.40625,0.28125 5.07117,-3.40926 9.22107,-8.13009 13.71875,-12.25 3.32382,-4.81843 2.90964,-12.28772 7.34375,-16.15625 4.57929,1.51146 10.36378,1.68322 12.875,-3.28125 1.60926,-2.72861 4.26838,-4.13849 7.17097,-2.13207 5.1952,0.82046 9.93481,5.90202 15.29778,4.60082 3.61903,-4.42781 2.13179,-11.43266 3.4375,-16.75 0.26033,-3.82027 0.57355,-8.25811 5,-9.28125 6.74191,-3.94548 15.14912,-3.52192 21.90625,-7.15625 4.48335,-3.09145 -0.94031,-7.97069 -3.5625,-10.0625 -7.37633,-5.19534 -13.2558,-12.1544 -19.625,-18.34375 -6.38169,-3.79485 -2.947,-12.62953 -4.90625,-18.625 -1.84073,-8.53803 -5.13443,-16.87665 -5.78125,-25.59375 -1.75676,-2.21866 -2.25289,-4.85452 -4.12182,-7.30614 -2.69481,-2.56177 -8.17818,-3.6449 -11.00318,-7.63136 -7.97976,-4.63988 -6.3871,-15.32707 -12.3125,-21.3125 -6.91173,-5.95683 -16.75938,-5.69829 -24.21875,-10.4375 -0.90837,-0.29824 -1.87442,-0.43054 -2.875,-0.3125 z"
       id="path530828"
       type="area" code="530828" />
    <path
       id="path530829"
       d="m 39.050402,385.90598 c -7.228,-1.91411 -5.045574,-6.05267 -3.676674,-11.75878 1.2124,-5.05388 -0.1539,-13.58925 -3.4195,-21.36164 -1.165,-2.77267 -2.1181,-5.42382 -2.1181,-5.89144 0,-1.10216 2.2198,-2.27697 4.3023,-2.27697 2.7521,0 3.9598,-1.45403 4.4173,-5.31842 0.5077,-4.288 1.3998,-5.18909 6.6135,-6.68024 4.4849,-1.28271 4.786,-2.03297 2.9288,-7.29696 -1.2008,-3.40334 -1.3439,-6.20217 -0.3171,-6.20217 0.3941,0 1.8671,0.58416 3.2734,1.29813 2.7625,1.40258 11.425046,5.11752 15.6502,3.68662 5.043272,-1.70796 4.851734,-1.09531 3.896576,1.52207 -1.639556,7.06373 1.216678,7.83851 2.88662,9.71289 1.939913,-0.5965 3.306169,2.44004 1.637479,4.0619 -8.023954,-0.96827 -5.68348,8.49533 -1.853275,12.89082 1.96971,1.10703 3.18799,2.58601 4.75921,5.7776 1.1615,2.35934 2.11181,4.64611 2.11181,5.08172 0,1.89157 -9.96446,5.04141 -15.16082,7.25546 -5.867954,2.5002 -11.619264,5.80307 -12.752357,9.8323 -1.913221,6.80332 -2.592269,7.41787 -4.22505,6.82442 -1.63278,-0.59344 -8.954319,-1.15731 -8.954319,-1.15731 z"
       style="fill:#e6e6e6;fill-opacity:1;stroke:#dd66ff;stroke-width:0.68912947;stroke-opacity:0"
       type="area" code="530829" />
    <path
       id="path530827"
       d="m 23.633928,440.72453 c -6.7678,-1.24462 -14.2887003,-4.20184 -15.2488003,-5.9958 -1.3785,-2.57578 -0.266,-6.53338 2.7593003,-9.81543 2.8327,-3.07312 3.1986,-3.95642 3.7572,-9.07031 0.2012,-1.84139 1.3177,-4.33668 3.1439,-7.02577 1.9156,-2.8209 2.8319,-4.91319 2.8319,-6.46661 0,-2.91552 1.0518,-4.46663 7.4898,-11.04493 3.1174,-3.18538 6.572757,-6.76297 7.23251,-6.25442 2.44969,1.88824 10.565069,1.67534 12.682193,3.54259 2.117123,1.86725 7.661497,5.63813 8.816197,5.63483 1.3691,-0.004 3.8947,-1.34445 7.7899,-4.13478 3.1702,-2.27094 3.135967,-2.66519 6.529189,-4.61627 3.083267,-1.77286 1.772911,-0.43736 2.855611,-1.56749 2.36642,-2.46997 3.07997,-2.08687 5.67196,3.04519 0.96916,1.91892 2.34046,4.2285 3.04732,5.13241 1.94801,2.49104 1.59694,3.34382 -2.16043,5.24782 l -3.44565,1.74604 0,9.29164 c 0,5.42915 -0.27299,9.29164 -0.6567,9.29164 -0.36119,0 -1.45971,-0.36587 -2.4412,-0.81306 -1.5463,-0.70454 -1.9875,-0.61018 -3.3058,0.707 -1.4195,1.41831 -1.5369,2.25685 -1.7541,12.52826 l -0.2328,11.0082 -7.0031,-0.004 c -7.2277,-0.004 -7.2563,-0.0122 -12.3715,-3.65541 -1.7099,-1.21786 -1.8293,-1.20739 -5.0941,0.447 -6.5559,3.32216 -13.2948,4.2386 -20.8928,2.84129 z"
       style="fill:#e6e6e6;fill-opacity:1;stroke:#dd66ff;stroke-width:0.68912947;stroke-opacity:0"
       type="area" code="530827"/>
    <path
       style="fill:#e6e6e6;fill-opacity:1;stroke:#dd66ff;stroke-width:0.68912947;stroke-opacity:0"
       d="m 225.25953,296.59746 c -6.85911,2.82401 -12.77108,11.13519 -17.19332,16.82415 -0.92445,6.43642 0.53744,7.00588 -0.59746,12.82574 -3.38055,2.83208 -7.47946,5.90398 -10.1875,9.37765 -4.92088,2.04329 -8.60579,-3.49823 -13.32657,-3.83868 -3.15156,-0.95736 -10.4716,-3.46291 -12.66018,-1.82499 1.63807,8.76972 4.7833,16.58727 3.17425,24.22617 1.03212,6.64839 8.50795,9.62938 12.20711,14.76961 5.17343,5.40238 12.67729,9.21797 16.51164,15.85539 0.38929,2.1505 1.46854,5.69904 3.625,2.3125 5.85191,-4.24594 13.36839,-5.63937 18.34375,-11.09375 6.52958,-4.89924 14.65421,0.20248 21.65625,0.5 6.69888,-3.30337 14.3299,-2.72412 21.59375,-3.8125 5.1973,5.5144 12.76183,8.45361 20.34375,7 8.91706,0.35411 18.49645,0.41071 26.25,-4.34375 2.76293,-0.44341 8.11993,-2.64916 4.28125,-6.03125 -6.36366,-10.6767 -16.16857,-18.60905 -27.0625,-24.1875 -6.85162,-6.96282 -15.82678,-12.21323 -25.71875,-12.5625 -6.14003,1.70888 -4.39136,-8.53672 -10.34375,-7.09375 -3.58371,0.42207 -5.74224,-2.5268 -7.65625,-4.625 -4.19359,-0.70406 -11.12594,1.29377 -12.4375,-4.46875 -2.99155,-5.45632 -3.33469,-7.53925 -5.48941,-13.76907 -2.37237,-1.91935 -2.77965,-2.94229 -3.94447,-4.36616 z"
       id="path530802"
       type="area" code="530802" />
    <path
       id="path530824"
       d="m 192.50288,333.97447 c -1.30109,-1.56772 -9.34532,-3.95272 -16.16092,-4.79149 -7.64383,-0.9407 -7.96593,-1.36449 -7.98068,-10.50009 -1.47086,-2.84469 -1.34677,-2.91402 -1.79328,-5.32476 -0.14677,-0.79245 -1.39959,-2.63112 -1.82418,-3.756 -0.87424,-2.31613 -3.71275,-4.26536 -6.21132,-4.26536 -2.07898,0 -9.51504,-7.04822 -11.46161,-10.86381 -0.73899,-1.44855 -1.81738,-4.48098 -2.39641,-6.73874 -0.90314,-3.52153 -1.60399,-4.61107 -4.93062,-7.66519 l -3.87783,-3.56017 1.72888,-2.642 c 2.47841,-3.78739 2.77288,-5.77354 1.77083,-11.94394 -0.88934,-5.47635 -0.88933,-5.47645 0.84498,-7.08375 1.07715,-0.99827 1.91345,-2.72746 2.20703,-4.56344 0.26664,-1.66749 1.62173,-4.65506 3.10855,-6.85347 2.81786,-4.16648 3.8639,-6.88039 4.55675,-11.82234 0.89025,-6.34989 3.83176,-11.31075 7.13711,-12.03673 1.08822,-0.23901 2.85545,-1.34983 3.92718,-2.46847 2.35227,-2.45524 3.28414,-2.49506 6.85922,-0.29311 4.43781,2.73332 8.28326,2.37246 15.26323,-1.43232 4.20929,-2.29449 5.75522,-3.50237 5.75522,-4.49673 0,-0.74775 -1.88344,-3.38411 -4.18543,-5.85857 -4.93741,-5.30735 -6.11075,-7.80602 -6.64216,-14.14477 -0.38878,-4.63727 -0.36567,-4.7224 1.47096,-5.42068 2.7456,-1.04388 8.85415,-0.86367 12.48268,0.36825 3.55124,1.20567 6.308,0.88487 9.83452,-1.14446 3.07329,-1.76852 4.36035,-1.65938 8.05381,0.68294 1.72968,1.09693 4.28145,2.20765 5.67061,2.46826 1.56236,0.2931 3.80165,1.62098 5.87083,3.48135 2.61394,2.35015 4.05333,3.0996 6.58536,3.42879 1.78216,0.23171 4.79082,0.76732 6.68593,1.19025 1.89511,0.42293 5.3063,0.79282 7.58042,0.82196 3.1906,0.0409 4.8597,0.47917 7.30937,1.91927 2.8694,1.68685 3.39186,2.41562 5.43451,7.58042 2.28279,5.772 5.94718,12.37257 9.67612,17.42936 1.42003,1.92569 3.06045,6.28753 5.4426,14.47172 1.87545,6.44336 4.80337,15.10789 6.50648,19.25452 4.01402,9.77307 3.59218,10.59924 -6.73674,13.19377 -3.94538,0.99106 -4.94553,1.57406 -6.99874,4.07973 -2.20725,2.69367 -2.86857,3.03426 -8.41349,4.3332 -8.60315,2.01536 -9.60999,2.49489 -10.12073,4.82024 -0.90786,4.13347 -7.88901,8.80781 -11.94344,7.99693 -2.61651,-0.5233 -7.43594,1.91802 -12.89721,6.53319 -5.79154,4.89428 -4.77462,3.77316 -12.96232,14.29042 -1.45657,1.871 -1.52968,2.61188 -0.82531,8.36383 0.52189,4.26183 0.50486,4.32415 -1.69468,6.20217 -1.22203,1.0434 -3.69749,3.21505 -5.50101,4.82589 -3.48047,3.10862 -4.87059,3.54188 -6.20507,1.93393 z"
       style="fill:#e6e6e6;fill-opacity:1;stroke:#dd66ff;stroke-width:0.68912947;stroke-opacity:0"
       type="area" code="530824"/>
    <path
       style="fill:#e6e6e6;fill-opacity:1;stroke:#dd66ff;stroke-width:0.68912947;stroke-opacity:0"
       d="m 277.20127,224.34905 c -3.67142,0.56169 -8.85779,-2.45091 -7.98252,3.46345 1.62256,13.12677 7.40724,25.20909 11.5,37.625 -2.35826,5.32333 -8.90653,5.66614 -13.71875,7.28125 -3.27248,1.84424 -4.34687,6.25674 -8.6875,6.5 -6.53221,1.36088 -12.41295,4.55536 -16.4375,9.96875 -3.56179,5.17914 -10.03452,2.56473 -14.875,4.84375 0.004,5.08481 5.24603,5.35058 5.75053,10.40095 1.8772,4.46008 4.04697,12.91085 8.65572,15.34905 3.58514,-0.6577 8.56923,-2.90005 10.125,2.03125 2.51896,3.72514 10.55142,0.71963 10.21875,6.40625 1.24564,4.25898 5.86802,2.35771 8.90625,2.5 7.42788,3.45446 15.22742,6.48176 21.40625,11.96875 4.1858,1.8682 4.3318,-3.62917 2.5625,-6.03125 4.29742,-2.77179 10.74301,-6.99985 15.84375,-3.71875 2.64214,4.49427 1.16093,10.61082 4.15625,15.125 3.09022,5.31636 7.6061,11.7305 14.125,12.4375 3.86092,-0.41481 4.35929,-3.11099 9.87765,-4.81568 4.05523,-2.1048 5.47805,-4.32666 8.35328,-5.7839 1.0294,-3.37415 -0.011,-4.32963 -1.10451,-7.75525 -2.63573,-5.85057 -7.95907,-10.71633 -10.51922,-16.78192 -1.85102,-4.17581 -5.92707,-9.14997 -4.6697,-13.86325 2.99384,-1.7727 7.21793,-5.73813 3.5625,-9.03125 -3.38888,-4.13475 -9.40072,-10.06881 -14.8125,-5.34375 -3.72196,3.0986 -8.41808,-2.17039 -9.28125,-5.6875 1.91969,-3.66679 4.69583,-8.73284 2.75,-12.84375 -3.88496,-3.85539 -9.59018,-5.18834 -14.28125,-7.6875 0.37652,-6.58957 5.21692,-11.87634 4,-18.6875 -0.70148,-7.08326 1.00667,-15.0037 -1.27041,-21.56254 -2.36694,-4.52057 -7.42973,-6.60582 -12.57334,-6.56246 -2.7074,0.34259 -2.85072,0.25063 -4.875,0.28125 -1.16116,-0.52388 -5.47419,-0.0858 -6.70498,-0.0259 z"
       id="path530821"
       type="area" code="530821" />
    <path
       id="path530826"
       d="m 342.39666,407.88149 c -0.52453,-1.25201 -1.78622,-3.05165 -2.80375,-3.9992 -2.13254,-1.98588 -3.86575,-5.15957 -5.91004,-10.82193 -0.79315,-2.19689 -2.62478,-6.63027 -4.07029,-9.85195 -1.4455,-3.22168 -5.93517,-7.77661 -6.55249,-9.52649 -2.24053,-6.35118 -12.29922,-18.91686 -20.33617,-24.55446 -4.01077,-2.81339 -5.52181,-1.43538 -5.79527,-6.71921 l -0.3195,-6.17351 2.99866,-1.32645 c 4.19327,-1.85488 8.81743,-2.41546 9.83281,-1.192 0.43901,0.52897 1.1405,3.12054 1.55888,5.75903 0.41837,2.6385 1.50745,6.43502 2.42017,8.43672 1.96476,4.30893 8.69165,11.65196 11.93128,13.02409 2.56435,1.08612 4.09286,0.77435 7.86071,-1.60337 1.57726,-0.99533 3.7878,-0.89621 5.29074,-1.62215 2.26992,-1.0964 2.667,-1.37314 4.81415,-3.35696 0.97256,-0.89859 1.85813,-0.90633 3.05883,-1.48454 l 2.54858,-3.12225 -1.94529,-7.76613 c 0,0 1.43476,2.05462 -1.09254,-4.84238 -1.26743,-3.45884 2.58513,0.29473 4.74361,-0.58227 2.15848,-0.87701 4.56536,-3.1598 7.32537,-5.56564 4.12181,-3.59289 3.90966,-4.51681 7.44236,-4.37425 3.5327,0.14256 5.84005,3.09148 10.05354,8.68989 7.13398,9.47882 12.56799,12.87258 16.49322,10.30067 1.68383,-1.10329 2.02422,-1.11516 4.06529,-0.14185 4.66377,2.224 9.95324,7.96093 12.78409,13.86555 2.23721,4.66641 3.21233,5.93747 5.76679,7.51706 4.04961,2.50413 9.77246,4.43064 14.74161,4.96253 7.9393,0.84982 8.57466,1.0772 12.02308,4.3028 1.85183,1.73216 3.37656,3.49459 3.38829,3.9165 0.0117,0.42191 -1.75734,4.24635 -3.93126,8.49875 l -3.9526,7.73163 -3.13232,0.38284 c -1.72277,0.21057 -4.54919,0.79381 -6.28094,1.29609 -2.96806,0.86087 -3.2637,0.82151 -5.15481,-0.68642 -1.10339,-0.87981 -2.94264,-1.78899 -4.08722,-2.0204 -1.14458,-0.23141 -3.85192,-1.49224 -6.01631,-2.80185 l -3.93525,-2.3811 -3.44998,1.74823 c -2.51643,1.27517 -4.53354,1.74824 -7.45433,1.74824 -5.00976,0 -6.66219,1.1074 -7.67921,5.14634 -0.59672,2.36979 -1.11098,3.12321 -2.1318,3.12321 -1.79762,0 -6.0923,-4.37672 -6.60596,-6.73215 -1.0896,-4.99641 -4.23447,-8.97951 -8.31465,-10.53079 -3.04789,-1.1588 -14.72716,4.18515 -17.11656,7.83185 -0.57649,0.87983 -1.32452,4.32619 -1.66229,7.65857 -0.80685,7.96033 -1.95951,9.61773 -6.88955,9.9065 -3.45935,0.20261 -3.59702,0.13967 -4.52168,-2.06739 z"
       style="fill:#e6e6e6;fill-opacity:1;stroke:#dd66ff;stroke-width:0.68912947;stroke-opacity:0"
       type="area" code="530826" />
    <path
       id="path530822"
       d="m 344.42371,333.98793 c -2.90388,-1.30273 -6.92533,-5.78552 -7.87961,-8.78356 -0.44275,-1.39101 -1.23438,-2.88545 -1.75916,-3.32098 -0.52478,-0.43553 -1.14907,-1.67934 -1.3873,-2.76403 -0.23824,-1.08468 -0.87839,-2.34166 -1.42256,-2.79328 -1.59607,-1.32462 -1.1676,-2.71686 1.84044,-5.98019 3.28942,-3.5686 3.31185,-5.47726 0.11213,-9.54028 -4.64465,-5.89781 -11.10077,-8.06202 -14.97023,-5.01831 -1.78055,1.40058 -1.99517,1.42034 -4.16882,0.3838 -3.00551,-1.43323 -3.48394,-3.20233 -1.8593,-6.87511 1.59653,-3.60921 2.43008,-8.67044 1.82501,-11.08122 -0.3375,-1.34473 -1.62674,-2.34681 -5.37209,-4.17556 -2.71041,-1.32341 -5.80152,-2.61438 -6.86913,-2.86881 -1.8351,-0.43735 -1.91573,-0.61279 -1.47648,-3.21269 0.25554,-1.51255 1.01443,-4.03213 1.68642,-5.59907 1.46308,-3.41161 2.19106,-15.78172 1.44515,-24.55656 -0.40589,-4.77484 -0.85959,-6.4038 -2.45448,-8.8125 l -1.95654,-2.9549 1.25525,-5.0408 c 1.39255,-5.59218 1.16131,-7.03345 -1.27721,-7.96057 -1.86058,-0.70739 -4.22644,-4.16787 -4.97429,-7.27575 -0.27361,-1.13706 -1.45683,-3.92804 -2.62939,-6.20216 -2.09161,-4.05662 -2.1364,-4.35094 -2.3691,-15.56953 l -0.2372,-11.43476 3.27615,-2.88378 c 1.80189,-1.58609 3.53642,-2.62352 3.85452,-2.30542 0.31811,0.3181 1.27253,1.95477 2.12095,3.63703 1.10487,2.19077 2.32474,3.42508 4.2991,4.35 1.51608,0.71024 3.63311,2.0282 4.7045,2.9288 1.07139,0.90061 2.5182,1.63747 3.21514,1.63747 0.75224,0 2.48096,1.66191 4.25419,4.08979 1.64286,2.24938 4.17975,4.76685 5.63753,5.59438 2.42805,1.3783 2.61087,1.68574 2.17823,3.66291 -0.83336,3.80847 -0.63462,6.27967 0.7299,9.07554 1.88972,3.87202 4.12665,4.00633 8.02065,0.48159 5.5244,-5.00053 8.369,-6.15416 10.08283,-4.08913 0.74305,0.89532 0.70294,1.00846 -2.34792,6.62309 -0.75185,1.38366 -0.74193,1.97613 0.059,3.525 0.94759,1.83244 4.70069,4.11504 6.76603,4.11504 0.58019,0 1.75882,1.00785 2.61917,2.23967 2.65718,3.80448 4.26549,4.18992 7.59384,1.81993 2.46994,-1.75875 3.24425,-1.27753 1.7106,1.06312 -1.60336,2.44703 -1.48317,2.86191 1.97404,6.81402 2.02048,2.30971 3.10108,4.18793 3.10108,5.39006 0,1.70544 0.72104,2.76436 7.43948,10.92554 0.87003,1.05687 1.7571,3.00137 1.97127,4.32113 0.33653,2.07383 0.041,2.7852 -2.17729,5.24057 l -2.56668,2.841 1.6291,1.38572 c 0.89601,0.76214 3.0246,1.76705 4.73019,2.23312 5.00374,1.36735 13.94377,11.09226 12.84037,13.96769 -0.19405,0.50567 -1.46764,1.44843 -2.8302,2.09501 -3.20435,1.52057 -3.72923,2.61259 -4.25708,8.85708 -0.55576,6.57472 0.34035,8.18299 5.39607,9.68438 4.88467,1.4506 12.81589,1.4144 14.45165,-0.0659 1.16043,-1.05017 1.40051,-1.0085 3.52495,0.61188 4.03978,3.0813 5.81336,6.49122 6.29454,12.10206 0.42112,4.91044 0.38013,5.09242 -1.59103,7.06358 -2.36831,2.36831 -3.59968,2.50126 -6.52732,0.70474 -2.08798,-1.28127 -8.62364,-2.81622 -11.99118,-2.81622 -2.6892,0 -5.5299,3.71159 -7.20912,9.41924 -1.51212,5.13966 -4.60203,9.87639 -6.44269,9.87639 -0.54847,0 -2.26476,-0.80017 -3.81399,-1.77815 -3.13828,-1.98111 -6.52332,-2.74937 -9.17817,-2.08304 -0.96812,0.24298 -4.26954,2.60664 -7.3365,5.25257 -5.9226,5.10955 -7.36497,5.59802 -11.30743,3.82937 z"
       style="fill:#e6e6e6;fill-opacity:1;stroke:#dd66ff;stroke-width:0.68912947;stroke-opacity:0"
       type="area" code="530822" />
    <path
       style="fill:#e6e6e6;fill-opacity:1;stroke:#dd66ff;stroke-width:0.68912947;stroke-opacity:0"
       d="m 235.84375,106.96875 c -4.52961,3.74454 -0.13012,12.10221 -5.3125,15.875 -6.66567,4.99043 -1.12012,14.20997 -5.0625,20.8125 -2.02842,7.94929 -10.63344,10.39742 -17.5625,12.25 -6.45679,2.57308 -15.15689,0.0721 -19.6875,6.65625 -3.82565,3.43374 -4.34051,8.64734 -5.0625,13.28125 -2.18029,1.40798 -6.49944,4.68587 -2.28125,6.78125 5.20684,1.27528 10.74083,1.9849 15.9375,2.75 4.4423,-0.63164 9.12276,-5.80323 13.25,-1.375 3.17383,2.59552 7.72307,2.4659 11.09375,4.0625 3.86498,7.72509 13.99575,6.41069 21.21875,7.25 5.50015,-0.0122 12.64462,2.50901 13.125,8.78125 3.38113,7.28704 6.48349,16.48015 13.90625,20.03125 8.51814,-1.41029 17.21743,-0.83906 25.6875,-0.46875 5.18716,0.072 6.79983,-6.47751 3.4375,-9.8125 -6.28999,-8.8152 -10.27589,-19.47714 -10.21875,-30.53125 0.43853,-4.63668 -2.65943,-11.44776 2.9375,-13.75 2.23646,-1.00241 5.89237,-5.79921 7.3125,-1.46875 1.56699,4.25167 5.36225,6.43947 9.4375,7.6875 4.80801,3.62683 8.44807,8.63374 12.75,12.84375 5.82189,-3.90197 13.7073,-4.61685 17.03327,-11.63906 4.92795,-3.47572 -0.60718,-7.67293 -3.28327,-10.70469 -4.411,-2.57345 -5.42562,-8.24433 -8.4375,-12.0625 -5.91602,-12.5741 -11.83219,-25.512 -19.15625,-37.25 -4.58271,-2.02959 -6.61197,4.91427 -8.78125,7.71875 -2.76647,3.74105 -1.56553,8.94496 -4.7203,12.11643 -2.7873,1.30142 -5.82675,-2.4375 -7.81095,3.63357 0.17749,1.56975 -0.42791,0.91325 -1.96247,4.02423 -8.89942,1.80631 -11.28591,10.68476 -19.68676,10.93203 -3.69884,-0.85563 -4.04595,-6.01151 -7.42657,-7.70936 -4.1906,-3.93096 -2.06138,-12.01638 -6.31952,-17.20627 -4.67173,-6.80432 -7.83313,-14.11005 -10.88593,-21.63438 -0.7064,-1.22961 -1.94841,-2.36086 -3.46875,-1.875 z"
       id="path530825"
       type="area" code="530825" />
    <path
       style="fill:#e6e6e6;fill-opacity:1;stroke:#dd66ff;stroke-width:0.68912947;stroke-opacity:0"
       d="m 223.3125,37.65625 c -3.58428,3.278978 -2.94184,9.673421 -7.84375,12.0625 -3.12776,3.586988 -8.31313,4.891866 -12.29425,1.970511 -3.83057,-1.109452 -10.8126,-3.915865 -12.95575,0.873239 0.23042,9.503545 8.89557,15.701876 11.53125,24.375 2.83127,3.73322 8.12489,10.108768 2.90625,14.3125 -3.03819,2.047394 -4.45396,5.250032 -3.375,8.75 -0.41096,14.67535 2.77586,30.29294 -2.78125,44.28125 -4.00517,6.64191 -12.57658,4.57235 -18.84375,5.9375 -2.32347,1.71842 1.87656,5.40614 1.74336,7.74218 1.0284,1.92446 1.74094,7.47831 4.47539,4.63282 3.68666,-3.83894 8.44562,-6.27106 13.84375,-5.96875 8.49404,-1.59333 18.53996,-3.69614 23.8125,-11.1875 3.25206,-6.40861 1.43101,-14.09877 3.1875,-20.71875 2.02846,-2.68661 5.95949,-4.31334 5.15625,-8.34375 -0.75197,-4.07458 -0.66944,-10.41344 4.6875,-11.09375 7.39749,4.09615 5.82884,14.11542 11.5625,19.53125 4.6102,6.25643 4.89443,14.33026 7.9375,21.15625 2.59389,2.96456 5.22541,7.54222 8.8125,8.75 6.44949,-1.79826 10.80574,-7.86791 16.96875,-10.46875 3.95262,-1.52525 2.0028,-7.16343 6.375,-7.875 3.09256,-0.19409 6.39217,-0.74133 6.21875,-4.65625 0.94399,-5.05482 3.15216,-9.79309 5.9375,-13.90625 -0.95794,-4.51221 -7.13307,-5.75906 -9.18975,-9.75258 -8.37621,-9.933249 -15.79927,-20.849429 -20.56025,-32.90367 -4.22749,-7.151949 -8.60859,-14.345182 -12.1875,-21.6875 -6.83685,-5.080442 -18.87603,1.341344 -22.84375,-8.09375 -2.52668,-4.390149 -7.81119,-4.547957 -11.34375,-7.6875 -0.29734,0.0016 -0.66744,-0.200945 -0.9375,-0.03125 z m 69.84375,97.53125 c -0.0429,0.0577 0.10364,0.0325 0,0 z"
       id="path530823"
       type="area" code="530823" />
  </g>
  <g
     transform="matrix(0.98695514,0,0,1.0304851,343.58293,-809.18808)"
     id="g530823" type="data" code="530823">
    <text
       id="text530823-lc"
       x="-122.67094"
       y="849.59302"
       style="font-size:12px;fill:#ffffff;filter:url(#green);font-family:Sans">22</text>
    <text
       id="text530823-cq"
       x="-98.986"
       y="849.59302"
       style="font-size:12px;fill:#ffffff;filter:url(#orange);font-family:Sans">22</text>
  </g>
  <g
     transform="matrix(0.98695514,0,0,1.0304851,355.94596,-728.41026)"
     id="g530825" type="data" code="530825">
    <text
       id="text530825-lc"
       x="-122.67094"
       y="849.59302"
       style="font-size:12px;fill:#ffffff;filter:url(#green);font-family:Sans">22</text>
    <text
       id="text530825-cq"
       x="-98.986"
       y="849.59302"
       style="font-size:12px;fill:#ffffff;filter:url(#orange);font-family:Sans">22</text>
  </g>
  <g
     transform="matrix(0.98695514,0,0,1.0304851,300.60634,-649.49477)"
     id="g530824" type="data" code="530824">
    <text
       id="text530824-lc"
       x="-122.67094"
       y="849.59302"
       style="font-size:12px;fill:#ffffff;filter:url(#green);font-family:Sans">22</text>
    <text
       id="text530824-cq"
       x="-98.986"
       y="849.59302"
       style="font-size:12px;fill:#ffffff;filter:url(#orange);font-family:Sans">22</text>
  </g>
  <g
     transform="matrix(0.98695514,0,0,1.0304851,435.81316,-644.94538)"
     id="g530822" type="data" code="530822">
    <text
       id="text530822-lc"
       x="-122.67094"
       y="849.59302"
       style="font-size:12px;fill:#ffffff;filter:url(#green);font-family:Sans">22</text>
    <text
       id="text530822-cq"
       x="-98.986"
       y="849.59302"
       style="font-size:12px;fill:#ffffff;filter:url(#orange);font-family:Sans">22</text>
  </g>
  <g
     transform="matrix(0.98695514,0,0,1.0304851,387.77822,-597.06848)"
     id="g530821" type="data" code="530821">
    <text
       id="text530821-lc"
       x="-122.67094"
       y="849.59302"
       style="font-size:12px;fill:#ffffff;filter:url(#green);font-family:Sans">22</text>
    <text
       id="text530821-cq"
       x="-98.986"
       y="849.59302"
       style="font-size:12px;fill:#ffffff;filter:url(#orange);font-family:Sans">22</text>
  </g>
  <g
     transform="matrix(0.98695514,0,0,1.0304851,477.14167,-527.85545)"
     id="g530826" type="data" code="530826">
    <text
       id="text530826-lc"
       x="-122.67094"
       y="849.59302"
       style="font-size:12px;fill:#ffffff;filter:url(#green);font-family:Sans">22</text>
    <text
       id="text530826-cq"
       x="-98.986"
       y="849.59302"
       style="font-size:12px;fill:#ffffff;filter:url(#orange);font-family:Sans">22</text>
  </g>
  <g
     transform="matrix(0.98695514,0,0,1.0304851,324.87659,-533.06329)"
     id="g530802" type="data" code="530802">
    <text
       id="text530802-lc"
       x="-122.67094"
       y="849.59302"
       style="font-size:12px;fill:#ffffff;filter:url(#green);font-family:Sans">22</text>
    <text
       id="text530802-cq"
       x="-98.986"
       y="849.59302"
       style="font-size:12px;fill:#ffffff;filter:url(#orange);font-family:Sans">22</text>
  </g>
  <g
     transform="matrix(0.98695514,0,0,1.0304851,224.84864,-525.8231)"
     id="g530828" type="data" code="530828">
    <text
       id="text530828-lc"
       x="-122.67094"
       y="849.59302"
       style="font-size:12px;fill:#ffffff;filter:url(#green);font-family:Sans">22</text>
    <text
       id="text530828-cq"
       x="-98.986"
       y="849.59302"
       style="font-size:12px;fill:#ffffff;filter:url(#orange);font-family:Sans">22</text>
  </g>
  <g
     transform="matrix(0.98695514,0,0,1.0304851,146.3379,-541.65016)"
     id="g530829" type="data" code="530829">
    <text
       id="text530829-lc"
       x="-122.67094"
       y="849.59302"
       style="font-size:12px;fill:#ffffff;filter:url(#green);font-family:Sans">22</text>
    <text
       id="text530829-cq"
       x="-98.986"
       y="849.59302"
       style="font-size:12px;fill:#ffffff;filter:url(#orange);font-family:Sans">22</text>
  </g>
  <g
     transform="matrix(0.98695514,0,0,1.0304851,142.18996,-463.667)"
     id="g530827" type="data" code="530827">
    <text
       id="text530827-lc"
       x="-122.67094"
       y="849.59302"
       style="font-size:12px;fill:#ffffff;filter:url(#green);font-family:Sans">22</text>
    <text
       id="text530827-cq"
       x="-98.986"
       y="849.59302"
       style="font-size:12px;fill:#ffffff;filter:url(#orange);font-family:Sans">22</text>
  </g>
  <path
     sodipodi:type="arc"
     style="fill:#d40000;fill-opacity:1;stroke:#dd66ff;stroke-opacity:0"
     id="D530823"
     sodipodi:cx="314.82144"
     sodipodi:cy="114.75"
     sodipodi:rx="3.0357144"
     sodipodi:ry="3.0357144"
     d="m 317.85716,114.75 a 3.0357144,3.0357144 0 1 1 -6.07143,0 3.0357144,3.0357144 0 1 1 6.07143,0 z"
     transform="matrix(0.79797983,0,0,0.79797981,-19.718354,-13.199904)" />
  <text
     xml:space="preserve"
     style="font-size:40px;font-style:normal;font-weight:normal;line-height:125%;letter-spacing:0px;word-spacing:0px;fill:#000000;fill-opacity:1;stroke:none;font-family:Sans"
     x="235.86218"
     y="82.834221"
     id="text530823"
     sodipodi:linespacing="125%"><tspan
       sodipodi:role="line"
       id="tspan5565"
       x="235.86218"
       y="82.834221"
       style="font-size:12px;fill:#ffffff">景东</tspan></text>
  <path
     sodipodi:type="arc"
     style="fill:#d40000;fill-opacity:1;stroke:#dd66ff;stroke-opacity:0"
     id="D530825"
     sodipodi:cx="314.82144"
     sodipodi:cy="114.75"
     sodipodi:rx="3.0357144"
     sodipodi:ry="3.0357144"
     d="m 317.85716,114.75 a 3.0357144,3.0357144 0 1 1 -6.07143,0 3.0357144,3.0357144 0 1 1 6.07143,0 z"
     transform="matrix(0.79797983,0,0,0.79797981,-8.9367381,67.093955)" />
  <text
     xml:space="preserve"
     style="font-size:40px;font-style:normal;font-weight:normal;line-height:125%;letter-spacing:0px;word-spacing:0px;fill:#000000;fill-opacity:1;stroke:none;font-family:Sans"
     x="245.64909"
     y="163.24991"
     id="text530825"
     sodipodi:linespacing="125%"><tspan
       sodipodi:role="line"
       id="tspan5565-5"
       x="245.64909"
       y="163.24991"
       style="font-size:12px;fill:#ffffff">镇沅</tspan></text>
  <path
     sodipodi:type="arc"
     style="fill:#d40000;fill-opacity:1;stroke:#dd66ff;stroke-opacity:0"
     id="D530824"
     sodipodi:cx="314.82144"
     sodipodi:cy="114.75"
     sodipodi:rx="3.0357144"
     sodipodi:ry="3.0357144"
     d="m 317.85716,114.75 a 3.0357144,3.0357144 0 1 1 -6.07143,0 3.0357144,3.0357144 0 1 1 6.07143,0 z"
     transform="matrix(0.79797983,0,0,0.79797981,-66.291616,146.44493)" />
  <text
     xml:space="preserve"
     style="font-size:40px;font-style:normal;font-weight:normal;line-height:125%;letter-spacing:0px;word-spacing:0px;fill:#000000;fill-opacity:1;stroke:none;font-family:Sans"
     x="191.28893"
     y="242.47906"
     id="text530824"
     sodipodi:linespacing="125%"><tspan
       sodipodi:role="line"
       id="tspan5565-3"
       x="191.28893"
       y="242.47906"
       style="font-size:12px;fill:#ffffff">景谷</tspan></text>
  <path
     sodipodi:type="arc"
     style="fill:#d40000;fill-opacity:1;stroke:#dd66ff;stroke-opacity:0"
     id="D530822"
     sodipodi:cx="314.82144"
     sodipodi:cy="114.75"
     sodipodi:rx="3.0357144"
     sodipodi:ry="3.0357144"
     d="m 317.85716,114.75 a 3.0357144,3.0357144 0 1 1 -6.07143,0 3.0357144,3.0357144 0 1 1 6.07143,0 z"
     transform="matrix(0.79797983,0,0,0.79797981,81.354378,151.44112)" />
  <text
     xml:space="preserve"
     style="font-size:40px;font-style:normal;font-weight:normal;line-height:125%;letter-spacing:0px;word-spacing:0px;fill:#000000;fill-opacity:1;stroke:none;font-family:Sans"
     x="320.88275"
     y="255.43011"
     id="text530822"
     sodipodi:linespacing="125%"><tspan
       sodipodi:role="line"
       id="tspan5565-55"
       x="320.88275"
       y="255.43011"
       style="font-size:12px;fill:#ffffff">墨江</tspan></text>
  <path
     sodipodi:type="arc"
     style="fill:#d40000;fill-opacity:1;stroke:#dd66ff;stroke-opacity:0"
     id="D530821"
     sodipodi:cx="314.82144"
     sodipodi:cy="114.75"
     sodipodi:rx="3.0357144"
     sodipodi:ry="3.0357144"
     d="m 317.85716,114.75 a 3.0357144,3.0357144 0 1 1 -6.07143,0 3.0357144,3.0357144 0 1 1 6.07143,0 z"
     transform="matrix(0.79797983,0,0,0.79797981,23.43287,199.11944)" />
  <text
     xml:space="preserve"
     style="font-size:40px;font-style:normal;font-weight:normal;line-height:125%;letter-spacing:0px;word-spacing:0px;fill:#000000;fill-opacity:1;stroke:none;font-family:Sans"
     x="279.02963"
     y="295.16183"
     id="text530821"
     sodipodi:linespacing="125%"><tspan
       sodipodi:role="line"
       id="tspan5565-52"
       x="279.02963"
       y="295.16183"
       style="font-size:12px;fill:#ffffff">宁洱</tspan></text>
  <path
     sodipodi:type="arc"
     style="fill:#d40000;fill-opacity:1;stroke:#dd66ff;stroke-opacity:0"
     id="D530826"
     sodipodi:cx="314.82144"
     sodipodi:cy="114.75"
     sodipodi:rx="3.0357144"
     sodipodi:ry="3.0357144"
     d="m 317.85716,114.75 a 3.0357144,3.0357144 0 1 1 -6.07143,0 3.0357144,3.0357144 0 1 1 6.07143,0 z"
     transform="matrix(0.79797983,0,0,0.79797981,113.74346,266.87031)" />
  <text
     xml:space="preserve"
     style="font-size:40px;font-style:normal;font-weight:normal;line-height:125%;letter-spacing:0px;word-spacing:0px;fill:#000000;fill-opacity:1;stroke:none;font-family:Sans"
     x="369.32401"
     y="362.90445"
     id="text530826"
     sodipodi:linespacing="125%"><tspan
       sodipodi:role="line"
       id="tspan5565-37"
       x="369.32401"
       y="362.90445"
       style="font-size:12px;fill:#ffffff">江城</tspan></text>
  <path
     sodipodi:type="arc"
     style="fill:#d40000;fill-opacity:1;stroke:#dd66ff;stroke-opacity:0"
     id="D530802"
     sodipodi:cx="314.82144"
     sodipodi:cy="114.75"
     sodipodi:rx="3.0357144"
     sodipodi:ry="3.0357144"
     d="m 317.85716,114.75 a 3.0357144,3.0357144 0 1 1 -6.07143,0 3.0357144,3.0357144 0 1 1 6.07143,0 z"
     transform="matrix(0.79797983,0,0,0.79797981,-42.344362,231.01216)" />
  <text
     xml:space="preserve"
     style="font-size:40px;font-style:normal;font-weight:normal;line-height:125%;letter-spacing:0px;word-spacing:0px;fill:#000000;fill-opacity:1;stroke:none;font-family:Sans"
     x="216.61443"
     y="324.70169"
     id="text530802"
     sodipodi:linespacing="125%"><tspan
       sodipodi:role="line"
       id="tspan5565-52-2"
       x="216.61443"
       y="324.70169"
       style="font-size:12px;fill:#ffffff">思茅</tspan></text>
  <path
     sodipodi:type="arc"
     style="fill:#d40000;fill-opacity:1;stroke:#dd66ff;stroke-opacity:0"
     id="D530828"
     sodipodi:cx="314.82144"
     sodipodi:cy="114.75"
     sodipodi:rx="3.0357144"
     sodipodi:ry="3.0357144"
     d="m 317.85716,114.75 a 3.0357144,3.0357144 0 1 1 -6.07143,0 3.0357144,3.0357144 0 1 1 6.07143,0 z"
     transform="matrix(0.79797983,0,0,0.79797981,-139.86633,268.89819)" />
  <text
     xml:space="preserve"
     style="font-size:40px;font-style:normal;font-weight:normal;line-height:125%;letter-spacing:0px;word-spacing:0px;fill:#000000;fill-opacity:1;stroke:none;font-family:Sans"
     x="115.73042"
     y="364.45331"
     id="text530828"
     sodipodi:linespacing="125%"><tspan
       sodipodi:role="line"
       id="tspan5565-52-4"
       x="115.73042"
       y="364.45331"
       style="font-size:12px;fill:#ffffff">澜沧</tspan></text>
  <path
     sodipodi:type="arc"
     style="fill:#d40000;fill-opacity:1;stroke:#dd66ff;stroke-opacity:0"
     id="D530829"
     sodipodi:cx="314.82144"
     sodipodi:cy="114.75"
     sodipodi:rx="3.0357144"
     sodipodi:ry="3.0357144"
     d="m 317.85716,114.75 a 3.0357144,3.0357144 0 1 1 -6.07143,0 3.0357144,3.0357144 0 1 1 6.07143,0 z"
     transform="matrix(0.79797983,0,0,0.79797981,-207.39088,249.96321)" />
  <text
     xml:space="preserve"
     style="font-size:40px;font-style:normal;font-weight:normal;line-height:125%;letter-spacing:0px;word-spacing:0px;fill:#000000;fill-opacity:1;stroke:none;font-family:Sans"
     x="34.204899"
     y="354.74625"
     id="text530829"
     sodipodi:linespacing="125%"><tspan
       sodipodi:role="line"
       id="tspan5565-52-1"
       x="34.204899"
       y="354.74625"
       style="font-size:12px;fill:#ffffff">西盟</tspan></text>
  <path
     sodipodi:type="arc"
     style="fill:#d40000;fill-opacity:1;stroke:#dd66ff;stroke-opacity:0"
     id="D530827"
     sodipodi:cx="314.82144"
     sodipodi:cy="114.75"
     sodipodi:rx="3.0357144"
     sodipodi:ry="3.0357144"
     d="m 317.85716,114.75 a 3.0357144,3.0357144 0 1 1 -6.07143,0 3.0357144,3.0357144 0 1 1 6.07143,0 z"
     transform="matrix(0.79797983,0,0,0.79797981,-225.65281,301.64793)" />
  <text
     xml:space="preserve"
     style="font-size:40px;font-style:normal;font-weight:normal;line-height:125%;letter-spacing:0px;word-spacing:0px;fill:#000000;fill-opacity:1;stroke:none;font-family:Sans"
     x="31.44838"
     y="394.71573"
     id="text530827"
     sodipodi:linespacing="125%"><tspan
       sodipodi:role="line"
       id="tspan5565-52-49"
       x="31.44838"
       y="394.71573"
       style="font-size:12px;fill:#ffffff">勐连</tspan></text>
</svg>
