<?xml version="1.0" encoding="UTF-8" standalone="no"?>
<!-- Created with Inkscape (http://www.inkscape.org/) -->

<svg
   xmlns:dc="http://purl.org/dc/elements/1.1/"
   xmlns:cc="http://creativecommons.org/ns#"
   xmlns:rdf="http://www.w3.org/1999/02/22-rdf-syntax-ns#"
   xmlns:svg="http://www.w3.org/2000/svg"
   xmlns="http://www.w3.org/2000/svg"
   xmlns:sodipodi="http://sodipodi.sourceforge.net/DTD/sodipodi-0.dtd"
   xmlns:inkscape="http://www.inkscape.org/namespaces/inkscape"
   id="svg11905"
   version="1.1"
   inkscape:version="0.48.5 r10040"
   width="100%"
   height="100%"
   viewBox="0 0 460 460"
   sodipodi:docname="5323-1.svg">
  <metadata
     id="metadata11911">
    <rdf:RDF>
      <cc:Work
         rdf:about="">
        <dc:format>image/svg+xml</dc:format>
        <dc:type
           rdf:resource="http://purl.org/dc/dcmitype/StillImage" />
        <dc:title></dc:title>
      </cc:Work>
    </rdf:RDF>
  </metadata>
  <defs
     id="defs11909" />
  <filter
     x="-0.1"
     y="0"
     width="1.2"
     height="1"
     id="green">
    <feFlood
       flood-color="#008000"
       id="feFlood6"
       result="result1" />
    <feComposite
       in="SourceGraphic"
       id="feComposite8"
       in2="result1" />
  </filter>
  <filter
     x="-0.1"
     y="0"
     width="1.2"
     height="1"
     id="orange">
    <feFlood
       flood-color="#ff7f2a"
       id="feFlood11"
       result="result1" />
    <feComposite
       in="SourceGraphic"
       id="feComposite13"
       in2="result1" />
  </filter>
  <sodipodi:namedview
     pagecolor="#ffffff"
     bordercolor="#666666"
     borderopacity="1"
     objecttolerance="10"
     gridtolerance="10"
     guidetolerance="10"
     inkscape:pageopacity="0"
     inkscape:pageshadow="2"
     inkscape:window-width="1920"
     inkscape:window-height="1018"
     id="namedview11907"
     showgrid="false"
     inkscape:zoom="2.6009232"
     inkscape:cx="198.93281"
     inkscape:cy="228.85408"
     inkscape:window-x="-8"
     inkscape:window-y="-8"
     inkscape:window-maximized="1"
     inkscape:current-layer="svg11905" />
  <g
     id="g11915"
     transform="translate(423.12551,15.849979)"
     style="fill:#e6e6e6">
    <path
       style="fill:#e6e6e6"
       d="m -132.05539,309.48104 c -17.32521,6.13899 -21.2076,7.37451 -34.67802,11.75778 -18.13995,5.90273 -10.87842,1.29074 -32.03451,2.76703 -14.85753,8.63561 -18.09421,10.90049 -27.27791,16.39212 0.21944,2.42767 -0.71727,14.67856 -0.49023,20.92961 -3.58598,3.72524 -3.10017,3.22744 -18.37265,14.13088 -7.26481,5.18655 -14.84865,7.62355 -23.44361,5.89704 -6.60814,-1.32741 -14.00056,-3.60208 -19.74446,-2.95243 -9.6775,1.09456 -13.82862,9.85197 -10.49697,19.59693 1.66835,6.92482 7.25579,12.16325 12.65625,16.25 8.79351,17.43367 37.82241,16.09447 45.09375,-1.75 1.16363,-2.97426 0.81032,-7.25302 5.1875,-6.1875 7.64129,1.52806 9.22616,10.92721 11.5,17.0625 2.4085,5.55454 2.07176,13.65081 7.21875,17.40625 9.81928,4.32874 18.74244,-4.84357 23.79221,-12.25673 3.10894,-3.75458 4.84261,-9.07388 7.58279,-12.58702 12.05942,1.01816 20.38005,12.01487 29.40625,18.8125 5.54792,4.49798 13.83709,2.65866 20.40625,1.59375 12.59782,-2.65717 24.81286,-13.7649 22.8125,-27.71875 -0.79499,-5.279 1.5891,-12.53079 -4.15625,-15.9375 -4.78161,-2.59381 -10.8618,-4.14656 -13.25,-9.625 -5.58829,-3.53288 -2.78816,-10.37395 0.125,-14.6875 1.99448,-3.4194 0.89731,-8.12192 -2.75,-9.90625 7.97536,-7.45398 -0.6421,-20.41025 7.21875,-27.6875 5.35727,-3.1458 7.10552,-11.84733 3.5625,-17.09375 -2.41676,-2.93139 -6.25533,-4.38205 -9.86789,-4.20646 z"
       id="path532322"
       inkscape:connector-curvature="0"
       sodipodi:nodetypes="cscccssscccccccccccccccccc"
       onmouseover="changeColorOver('path532322')"
       onmouseout="changeColorOut('path532322')" />
    <path
       style="fill:#e6e6e6"
       d="m -307.76658,384.91306 c -6.7137,-14.60612 -19.06941,-32.40581 -25.58236,-43.7138 16.36277,-7.73024 -4.42557,-26.15136 -4.34143,-46.72781 0.10993,-26.88561 26.66682,-18.859 40.73294,-11.36593 11.83284,6.3034 27.90106,36.42821 38.76177,16.11533 8.78328,-16.42745 10.05669,-29.1682 14.95787,-50.48703 9.78364,-0.54211 33.96361,8.82405 45.84807,13.81326 7.33258,-3.53062 8.86229,-4.09711 14.37075,0.60276 5.50847,4.69988 12.34217,22.66532 16.41747,27.38058 0.93729,14.2994 1.52307,14.93477 9.27707,26.82741 -22.75088,7.90634 -17.92148,5.66859 -41.90705,6.12637 -10.58249,5.63083 -12.67571,7.11296 -27.27099,16.66632 -0.53587,8.5429 -0.42301,9.92117 -0.66402,21.09905 -16.24726,11.73836 -21.01642,19.25793 -35.11233,19.70614 -15.3794,0.48903 -26.5907,-10.74021 -38.84032,5.18997 -3.08049,3.55456 -5.86581,5.08995 -6.64744,-1.23262 z"
       id="path532301"
       inkscape:connector-curvature="0"
       sodipodi:nodetypes="ccsssccccccccscc"
       onmouseout="changeColorOut('path532301')"
       onmouseover="changeColorOver('path532301')" />
    <path
       style="fill:#e6e6e6"
       d="m -262.99112,222.5739 c -10.07088,5.92988 -8.09152,9.77378 -16.32568,6.01555 -3.30282,-1.50747 -3.83199,-2.12992 -5.84656,1.52844 -3.8252,6.94636 -18.14923,-5.02901 -22.20039,-8.76526 -2.80974,-2.59133 -13.19408,-11.21477 -16.94451,-11.2639 -3.75043,-0.0491 3.17151,14.0021 0.18326,16.72377 5.02625,4.44701 4.38756,13.07729 -2.84375,14.46875 -5.59679,1.78806 -11.82356,1.55294 -16.625,-1.9375 -6.93643,-2.99742 -11.21369,5.1123 -13.65625,10.1875 -1.97879,3.53869 -4.81568,6.89676 -8.90625,7.8125 -2.48977,14.79509 3.21019,31.34311 -5.375,44.71875 8.87412,11.66712 -3.23831,28.77242 7.5,39.75 8.89751,9.88346 25.84376,5.29593 33.15625,-4.25 5.02708,-5.99904 1.04821,-13.44188 -1.91408,-20.43905 -4.7782,-11.28649 -9.03453,-23.80335 -3.45154,-35.72348 5.68014,-8.30324 16.91518,-6.82297 25.69278,-4.55688 12.3109,3.51214 14.92104,4.94218 24.9482,14.79835 5.6952,5.59808 12.99771,16.02891 20.21646,13.78439 7.79524,-2.42376 11.59236,-19.61021 14.67071,-27.65241 2.62516,-6.85825 4.71464,-21.03979 6.26669,-28.91626 -1.23542,-7.10751 -1.16826,-10.94134 -1.95684,-18.53356 -0.73855,-7.11056 -2.16206,-9.5973 -2.90443,-14.06039 -9.81464,3.42474 -11.72744,5.15861 -13.68407,6.31069 z"
       id="path532324"
       inkscape:connector-curvature="0"
       sodipodi:nodetypes="sssssccccccccsccssscscs"
       onmouseout="changeColorOut('path532324')"
       onmouseover="changeColorOver('path532324')" />
    <path
       style="fill:#e6e6e6"
       d="m -69.9375,195 c -7.399181,1.59777 -12.121253,5.96933 -13.444387,12.14595 -1.188566,5.83018 -0.252701,16.59768 -4.813609,15.44587 -12.441784,-1.6096 -26.677274,-18.82397 -26.695014,-24.82876 -1.19819,3.60657 -4.97092,15.72719 -7.83491,16.22983 -2.31785,0.40679 -6.95788,-0.74313 -9.19414,-1.46649 -3.21608,-1.04029 -5.9773,-0.98522 -9.0186,-2.98027 -5.17249,-3.39309 -9.11753,-6.75649 -14.45872,-7.16718 -5.34118,-0.4107 -11.59262,0.60184 -15.70398,3.97235 -5.48232,5.12547 -7.09503,7.54118 -10.93965,11.38256 -3.88812,3.88484 -6.15138,2.57964 -3.81764,11.75639 1.39365,5.52054 1.47889,5.34857 1.34772,9.95752 -4.52781,13.32434 -5.10065,15.29063 -0.76225,20.49276 5.71041,6.97881 5.95392,5.7041 12.84007,18.35751 2.50145,5.27476 1.99155,5.83415 6.26019,12.23846 0.67078,14.12424 3.02012,16.50391 9.62263,26.23257 7.97248,-1.74895 16.35137,-6.2758 25.36229,-7.95657 4.53314,-0.47957 9.38262,2.62973 11.91188,7.96831 6.57238,4.92138 19.290023,-0.77974 19.83812,-9.09331 0.358309,-4.40219 4.959536,-5.72525 8.375,-3.65625 4.793658,1.91656 12.343697,6.95454 16.34375,1.03125 2.589091,-3.30188 -4.056293,-4.36762 -5.03125,-7.75 -3.453719,-5.68203 -7.075183,-14.36521 -2.53125,-20.25 5.470445,-3.17291 10.613692,3.75541 16.4375,2.125 10.528764,0.1455 16.560787,-10.07784 18.259973,-19.24687 1.763312,-6.86167 2.770325,-14.09883 6.396277,-20.25313 -11.525014,-8.21377 -8.899846,-25.07183 -18.28125,-34.9375 -1.46077,-4.65271 -4.768974,-10.32489 -10.46875,-9.75 z"
       id="path532331"
       inkscape:connector-curvature="0"
       sodipodi:nodetypes="ccccsssccscccccccccccccccccc"
       onmouseout="changeColorOut('path532331')"
       onmouseover="changeColorOver('path532331')" />
    <path
       style="fill:#e6e6e6"
       d="m -176.26918,162.24289 c -5.22628,-1.4148 -10.36587,3.57843 -10.9489,8.83361 -0.87179,7.85788 -2.05672,7.86671 -16.49838,11.45401 -4.17334,1.51689 -7.94339,8.81867 -11.17494,15.28516 -2.70306,4.76482 -3.59403,5.511 -6.42657,3.99218 -4.59275,-1.82755 -9.9278,-1.3176 -14.21401,2.6875 -1.88189,1.75847 -4.04243,3.66061 -7.31989,6.49318 -2.51552,2.17405 -4.02011,3.7817 -4.81469,4.72258 1.12782,5.74686 0.84026,6.57102 1.94781,11.35139 0.70721,3.05244 0.77121,16.65353 2.10907,20.47081 9.14908,1.62812 12.94555,2.04198 23.34956,5.62752 6.89954,2.37779 13.38704,4.33195 20.14842,7.51958 4.08208,1.84678 7.49229,-2.18415 13.54986,-0.97274 -1.10656,-1.81204 -4.63673,-3.60731 0.21609,-16.2554 2.91637,-7.60105 -0.055,-13.07269 -1.17146,-19.41164 0.82023,-4.77086 1.61327,-2.58292 6.46069,-8.08873 11.68461,-12.77051 12.61435,-12.34475 19.1553,-13.75089 5.47939,-0.48218 6.04893,-0.78072 10.78625,0.51223 -0.35703,-4.90677 -0.13551,-3.76163 -3.04172,-10.29559 -4.03347,-9.59837 -7.21291,-21.78396 -14.75541,-28.3627 -0.93902,-1.03355 -3.30881,-1.38627 -7.35708,-1.81206 z"
       id="path532323"
       inkscape:connector-curvature="0"
       sodipodi:nodetypes="cscccsscscsccsccccccc"
       onmouseout="changeColorOut('path532323')"
       onmouseover="changeColorOver('path532323')" />
    <path
       style="fill:#e6e6e6"
       d="m -314.84001,149.10194 c -1.66193,-0.30978 -4.50862,-0.34566 -9.49249,-2.86808 -4.35495,-2.50173 -6.45218,-0.0245 -8.13625,5.48489 -0.39451,3.79773 5.55001,6.32442 7.5625,9.8125 3.9741,4.42472 7.29935,11.14778 4.84375,16.9375 -6.75259,-1.24903 -12.65709,4.88739 -11.5,11.53125 0.5784,6.14965 2.04557,13.26871 5.5,17.90625 12.98721,6.32151 13.26715,9.68471 23.74274,16.32505 2.37803,1.5074 11.24612,7.39616 13.60859,7.37102 3.02791,-0.0322 3.98713,-4.5671 6.11135,-4.89586 2.34347,-0.3627 4.51155,1.81403 6.99899,2.32349 2.35126,0.48156 7.43282,-5.60298 12.1643,-7.61053 6.67792,-2.83342 8.72179,-3.43517 15.05746,-7.67082 8.62401,-5.7655 13.05627,-12.25772 17.41253,-13.33564 6.04634,-1.49611 6.98548,-0.82212 11.91304,1.42285 6.05096,-7.48898 5.18238,-10.06539 12.93773,-19.01466 2.00933,-2.31867 7.85242,-0.37551 7.55434,-4.31204 -1.47712,-5.51905 -2.36796,-6.95906 -14.18751,-10.35988 -6.76048,-1.94518 -27.00395,3.78553 -35.74315,4.75082 -10.86865,-5.97453 -15.72812,-5.54716 -25.48836,-12.02224 -6.655,-4.41502 -9.84662,-8.90543 -15.26649,-8.29975 -4.89603,0.23765 -2.86202,-4.68251 -8.04102,-5.32532 -6.03666,-0.74927 -11.4816,2.98069 -17.55205,1.8492 z"
       id="path532325"
       inkscape:connector-curvature="0"
       sodipodi:nodetypes="sccccccssssssscscscscss"
       onmouseout="changeColorOut('path532325')"
       onmouseover="changeColorOver('path532325')" />
    <path
       style="fill:#e6e6e6"
       d="m -96.642046,218.69983 c -28.265684,-18.72219 -9.350004,-30.86399 -26.111504,-47.49522 -3.59311,-14.5166 16.30312,-22.29221 -0.72828,-35.36055 -13.98314,-11.87594 2.59039,-23.49043 18.17227,-34.61401 15.227465,-10.870574 8.164917,-37.140626 31.723674,-41.582919 12.791127,4.950444 27.115196,20.401794 18.586307,36.911845 -7.643405,19.357744 12.766965,31.691924 2.848443,49.656744 8.278353,6.9621 -0.88905,18.93154 8.26116,24.69797 14.97054,6.27856 16.2403,53.37844 -6.05319,46.73755 -7.21217,-9.60204 -12.030748,-33.50704 -29.862132,-18.45579 -10.731707,11.88396 2.264609,30.0404 -16.836748,19.50438 z"
       id="path532329"
       inkscape:connector-curvature="0"
       sodipodi:nodetypes="cccsccccccc"
       onmouseout="changeColorOut('path532329')"
       onmouseover="changeColorOver('path532329')" />
    <path
       style="fill:#e6e6e6"
       d="m -126.53125,71.5625 c -11.1865,0.176065 -23.2209,4.683605 -29.46547,14.140756 -9.02646,8.514685 -17.4278,15.397924 -25.64013,27.378644 -4.13071,6.02617 -9.98599,14.108 -11.21524,16.39189 2.2148,1.63548 4.90371,6.01447 3.85061,9.38121 -4.1835,11.01232 -9.364,5.85689 -7.26781,18.43032 1.89024,4.05198 6.26733,12.86146 7.98,17.41683 1.98451,-13.52535 7.63744,-13.13896 12.10592,-13.08123 4.46847,0.0577 8.02436,1.418 11.52402,5.60876 4.8708,5.46397 5.75099,12.96943 9.03187,19.28355 1.54443,4.97597 5.73518,11.79399 4.9357,16.34142 4.87158,2.4328 8.26012,5.6676 13.58281,8.28312 3.91855,0.91978 6.49778,1.32004 12.27685,2.51841 3.4084,0.70678 5.42445,-4.27622 6.59116,-7.93958 3.4462,-10.8207 3.27953,-10.20978 1.59182,-21.9241 -1.76683,-12.26348 -11.64688,-10.23813 -6.34746,-23.48667 1.76916,-4.4229 6.22606,-9.45304 5.50561,-14.90909 -0.80579,-6.20665 -11.61664,-9.70239 -12.10027,-20.33262 1.24808,-5.48665 4.14847,-9.40481 8.10741,-12.84389 8.12517,-7.05825 10.05387,-7.03511 19.13906,-15.3356 9.897639,-12.216038 3.056327,-18.057947 -2.46771,-20.07213 -6.52241,-3.774838 -14.18111,-5.513472 -21.71875,-5.25 z"
       id="path532328"
       inkscape:connector-curvature="0"
       sodipodi:nodetypes="ccsccccsccccssssccsccc"
       onmouseout="changeColorOut('path532328')"
       onmouseover="changeColorOver('path532328')" />
    <path
       style="fill:#e6e6e6"
       d="m -197.99256,179.56983 c 0.35501,-10.30326 -17.84067,-13.78493 -28.81642,-11.68614 -6.02071,1.15128 -13.89616,2.41268 -21.97047,3.58101 -6.10327,-2.56985 -18.75564,-7.4762 -24.83692,-11.7103 -5.99733,-4.17566 -11.14511,-7.86047 -11.93096,-7.77556 -8.00573,0.86495 -5.79554,-2.15844 -7.16174,-3.0367 -5.40481,-3.47447 -6.56002,-3.20541 -12.16556,-1.88442 -12.34343,2.90884 -16.40643,-0.24373 -23.24708,-3.2824 -2.4609,-9.06926 -16.81117,-14.68303 -1.59807,-22.12216 -6.27981,-6.38565 14.94313,-22.30991 -3.45794,-24.843077 0.5999,-7.062929 3.32797,-12.588976 -1.38321,-20.423136 -3.21307,-21.660459 12.28839,-34.818339 29.22173,-44.774844 18.67212,-15.493699 44.42131,-11.539176 65.95121,-20.057096 17.31545,-5.0488034 -15.30365,14.148194 -12.2779,24.789436 1.74843,7.226247 6.28776,9.360497 6.6289,19.662628 0.38179,12.915326 -19.62703,28.475311 -1.14181,37.221973 8.13724,3.850301 12.15918,4.764669 13.25952,11.128026 1.03444,5.98226 0.62677,13.53208 10.99577,16.79513 6.44886,2.02941 20.41329,4.46068 26.63657,8.23105 6.22328,3.77037 8.6528,9.06677 -0.068,17.18329 -11.02157,13.87028 20.58393,31.95223 -2.63762,33.00329 z"
       id="path532326"
       inkscape:connector-curvature="0"
       sodipodi:nodetypes="cscssssccccccccsssscc"
       onmouseout="changeColorOut('path532326')"
       onmouseover="changeColorOver('path532326')" />
    <path
       style="fill:#e6e6e6"
       d="m -226,-5.65625 c 2.0397,13.5805913 -12.21369,21.873327 -19.57809,31.310949 -3.41402,3.71148 -7.68868,10.096472 -3.53908,15.148419 2.47056,2.863978 2.47932,6.238239 4.91718,12.257757 -0.40862,14.152824 -8.3158,21.05218 -9.23203,29.155863 -0.63498,5.616075 4.96123,9.02962 7.85615,10.331058 4.59501,2.065728 11.25828,5.200474 11.71482,6.687208 1.75483,5.714576 2.58193,17.596486 8.81975,20.161736 5.69607,2.34246 9.64054,1.35606 21.86046,5.7737 4.88885,1.76738 6.3125,1.22235 9.7456,3.82498 1.03011,-3.93351 3.24996,-6.23932 9.37748,-14.20943 7.73295,-13.78214 22.39423,-22.088901 30.40151,-35.37974 0.69669,-11.491792 -6.74754,-21.895596 -14.53125,-29.65625 -3.59042,-2.97034 -8.00092,-7.126704 -12.71875,-4.46875 -7.13986,0.706283 -15.65043,-5.187073 -15.84375,-12.65625 1.54777,-4.126866 7.49956,-2.713873 10.90625,-2.75 -1.07779,-20.5206317 -20.41628,-37.1580303 -40.5,-38 0.11458,0.8229167 0.22917,1.6458333 0.34375,2.46875 z"
       id="path532327"
       inkscape:connector-curvature="0"
       sodipodi:nodetypes="ccccsssssccccccccc"
       onmouseout="changeColorOut('path532327')"
       onmouseover="changeColorOver('path532327')" />
  </g>
  <g
     transform="matrix(0.98695514,0,0,1.0304851,451.8105,-714.91314)"
     id="g532329">
    <text
       id="text532329-lc"
       x="-122.67094"
       y="849.59302"
       style="font-size:12px;fill:#ffffff;filter:url(#green);font-family:Sans">22</text>
  </g>
  <g
     transform="matrix(0.98695514,0,0,1.0304851,377.51495,-722.71262)"
     id="g532328">
    <text
       id="text532328-lc"
       x="-122.67094"
       y="849.59302"
       style="font-size:12px;fill:#ffffff;filter:url(#green);font-family:Sans">22</text>
  </g>
  <g
     transform="matrix(0.98695514,0,0,1.0304851,344.16387,-798.74559)"
     id="g532327">
    <text
       id="text532327-lc"
       x="-122.67094"
       y="849.59302"
       style="font-size:12px;fill:#ffffff;filter:url(#green);font-family:Sans">22</text>
  </g>
  <g
     transform="matrix(0.98695514,0,0,1.0304851,270.7989,-747.84278)"
     id="g532326">
    <text
       id="text532326-lc"
       x="-122.67094"
       y="849.59302"
       style="font-size:12px;fill:#ffffff;filter:url(#green);font-family:Sans">22</text>
  </g>
  <g
     transform="matrix(0.98695514,0,0,1.0304851,254.90249,-673.73786)"
     id="g532325">
    <text
       id="text532325-lc"
       x="-122.67094"
       y="849.59302"
       style="font-size:12px;fill:#ffffff;filter:url(#green);font-family:Sans">22</text>
  </g>
  <g
     transform="matrix(0.98695514,0,0,1.0304851,326.69996,-647.75876)"
     id="g532323">
    <text
       id="text532323-lc"
       x="-122.67094"
       y="849.59302"
       style="font-size:12px;fill:#ffffff;filter:url(#green);font-family:Sans">22</text>
  </g>
  <g
     transform="matrix(0.98695514,0,0,1.0304851,415.4473,-608.82925)"
     id="g532331">
    <text
       id="text532331-lc"
       x="-122.67094"
       y="849.59302"
       style="font-size:12px;fill:#ffffff;filter:url(#green);font-family:Sans">22</text>
  </g>
  <g
     transform="matrix(0.98695514,0,0,1.0304851,353.28209,-468.88305)"
     id="g532322">
    <text
       id="text532322-lc"
       x="-122.67094"
       y="849.59302"
       style="font-size:12px;fill:#ffffff;filter:url(#green);font-family:Sans">22</text>
  </g>
  <g
     transform="matrix(0.98695514,0,0,1.0304851,307.30121,-553.81387)"
     id="g532301">
    <text
       id="text532301-lc"
       x="-122.67094"
       y="849.59302"
       style="font-size:12px;fill:#ffffff;filter:url(#green);font-family:Sans">22</text>
  </g>
  <g
     transform="matrix(0.98695514,0,0,1.0304851,256.25132,-604.68539)"
     id="g532324">
    <text
       id="text532324-lc"
       x="-122.67094"
       y="849.59302"
       style="font-size:12px;fill:#ffffff;filter:url(#green);font-family:Sans">22</text>
  </g>
  <path
     sodipodi:type="arc"
     style="fill:#d40000;fill-opacity:1;stroke:#dd66ff;stroke-opacity:0"
     id="D532328"
     sodipodi:cx="314.82144"
     sodipodi:cy="114.75"
     sodipodi:rx="3.0357144"
     sodipodi:ry="3.0357144"
     d="m 317.85716,114.75 a 3.0357144,3.0357144 0 1 1 -6.07143,0 3.0357144,3.0357144 0 1 1 6.07143,0 z"
     transform="matrix(0.79797983,0,0,0.79797981,25.019338,42.310227)" />
  <text
     xml:space="preserve"
     style="font-size:40px;font-style:normal;font-weight:normal;line-height:125%;letter-spacing:0px;word-spacing:0px;fill:#000000;fill-opacity:1;stroke:none;font-family:Sans"
     x="246.90755"
     y="135.37804"
     id="text532328"
     sodipodi:linespacing="125%"><tspan
       sodipodi:role="line"
       id="tspan5565-52-2"
       x="246.90755"
       y="135.37804"
       style="font-size:12px;fill:#666666">元谋</tspan></text>
  <path
     sodipodi:type="arc"
     style="fill:#d40000;fill-opacity:1;stroke:#dd66ff;stroke-opacity:0"
     id="D532327"
     sodipodi:cx="314.82144"
     sodipodi:cy="114.75"
     sodipodi:rx="3.0357144"
     sodipodi:ry="3.0357144"
     d="m 317.85716,114.75 a 3.0357144,3.0357144 0 1 1 -6.07143,0 3.0357144,3.0357144 0 1 1 6.07143,0 z"
     transform="matrix(0.79797983,0,0,0.79797981,-8.6567195,-3.523547)" />
  <text
     xml:space="preserve"
     style="font-size:40px;font-style:normal;font-weight:normal;line-height:125%;letter-spacing:0px;word-spacing:0px;fill:#000000;fill-opacity:1;stroke:none;font-family:Sans"
     x="214.88692"
     y="92.233391"
     id="text532327"
     sodipodi:linespacing="125%"><tspan
       sodipodi:role="line"
       id="tspan5565-52-4"
       x="214.88692"
       y="92.233391"
       style="font-size:12px;fill:#666666">永仁</tspan></text>
  <path
     sodipodi:type="arc"
     style="fill:#d40000;fill-opacity:1;stroke:#dd66ff;stroke-opacity:0"
     id="D532326"
     sodipodi:cx="314.82144"
     sodipodi:cy="114.75"
     sodipodi:rx="3.0357144"
     sodipodi:ry="3.0357144"
     d="m 317.85716,114.75 a 3.0357144,3.0357144 0 1 1 -6.07143,0 3.0357144,3.0357144 0 1 1 6.07143,0 z"
     transform="matrix(0.79797983,0,0,0.79797981,-82.241434,46.155356)" />
  <text
     xml:space="preserve"
     style="font-size:40px;font-style:normal;font-weight:normal;line-height:125%;letter-spacing:0px;word-spacing:0px;fill:#000000;fill-opacity:1;stroke:none;font-family:Sans"
     x="139.82301"
     y="142.62631"
     id="text532326"
     sodipodi:linespacing="125%"><tspan
       sodipodi:role="line"
       id="tspan5565-52-9"
       x="139.82301"
       y="142.62631"
       style="font-size:12px;fill:#666666">大姚</tspan></text>
  <path
     sodipodi:type="arc"
     style="fill:#d40000;fill-opacity:1;stroke:#dd66ff;stroke-opacity:0"
     id="D532325"
     sodipodi:cx="314.82144"
     sodipodi:cy="114.75"
     sodipodi:rx="3.0357144"
     sodipodi:ry="3.0357144"
     d="m 317.85716,114.75 a 3.0357144,3.0357144 0 1 1 -6.07143,0 3.0357144,3.0357144 0 1 1 6.07143,0 z"
     transform="matrix(0.79797983,0,0,0.79797981,-97.343159,121.48317)" />
  <text
     xml:space="preserve"
     style="font-size:40px;font-style:normal;font-weight:normal;line-height:125%;letter-spacing:0px;word-spacing:0px;fill:#000000;fill-opacity:1;stroke:none;font-family:Sans"
     x="124.20047"
     y="217.51729"
     id="text532325"
     sodipodi:linespacing="125%"><tspan
       sodipodi:role="line"
       id="tspan5565-52-8"
       x="124.20047"
       y="217.51729"
       style="font-size:12px;fill:#666666">姚安</tspan></text>
  <path
     sodipodi:type="arc"
     style="fill:#d40000;fill-opacity:1;stroke:#dd66ff;stroke-opacity:0"
     id="D532323"
     sodipodi:cx="314.82144"
     sodipodi:cy="114.75"
     sodipodi:rx="3.0357144"
     sodipodi:ry="3.0357144"
     d="m 317.85716,114.75 a 3.0357144,3.0357144 0 1 1 -6.07143,0 3.0357144,3.0357144 0 1 1 6.07143,0 z"
     transform="matrix(0.79797983,0,0,0.79797981,-26.514968,144.64668)" />
  <text
     xml:space="preserve"
     style="font-size:40px;font-style:normal;font-weight:normal;line-height:125%;letter-spacing:0px;word-spacing:0px;fill:#000000;fill-opacity:1;stroke:none;font-family:Sans"
     x="193.99496"
     y="242.05905"
     id="text532323"
     sodipodi:linespacing="125%"><tspan
       sodipodi:role="line"
       id="tspan5565-52-7"
       x="193.99496"
       y="242.05905"
       style="font-size:12px;fill:#666666">牟定</tspan></text>
  <path
     sodipodi:type="arc"
     style="fill:#d40000;fill-opacity:1;stroke:#dd66ff;stroke-opacity:0"
     id="D532331"
     sodipodi:cx="314.82144"
     sodipodi:cy="114.75"
     sodipodi:rx="3.0357144"
     sodipodi:ry="3.0357144"
     d="m 317.85716,114.75 a 3.0357144,3.0357144 0 1 1 -6.07143,0 3.0357144,3.0357144 0 1 1 6.07143,0 z"
     transform="matrix(0.79797983,0,0,0.79797981,63.500756,187.04075)" />
  <text
     xml:space="preserve"
     style="font-size:40px;font-style:normal;font-weight:normal;line-height:125%;letter-spacing:0px;word-spacing:0px;fill:#000000;fill-opacity:1;stroke:none;font-family:Sans"
     x="284.56503"
     y="282.73026"
     id="text532331"
     sodipodi:linespacing="125%"><tspan
       sodipodi:role="line"
       id="tspan5565-52-5"
       x="284.56503"
       y="282.73026"
       style="font-size:12px;fill:#666666">禄丰</tspan></text>
  <path
     sodipodi:type="arc"
     style="fill:#d40000;fill-opacity:1;stroke:#dd66ff;stroke-opacity:0"
     id="D532322"
     sodipodi:cx="314.82144"
     sodipodi:cy="114.75"
     sodipodi:rx="3.0357144"
     sodipodi:ry="3.0357144"
     d="m 317.85716,114.75 a 3.0357144,3.0357144 0 1 1 -6.07143,0 3.0357144,3.0357144 0 1 1 6.07143,0 z"
     transform="matrix(0.79797983,0,0,0.79797981,-26.294581,296.3605)" />
  <text
     xml:space="preserve"
     style="font-size:40px;font-style:normal;font-weight:normal;line-height:125%;letter-spacing:0px;word-spacing:0px;fill:#000000;fill-opacity:1;stroke:none;font-family:Sans"
     x="231.30217"
     y="390.40286"
     id="text532322"
     sodipodi:linespacing="125%"><tspan
       sodipodi:role="line"
       id="tspan5565-52-3"
       x="231.30217"
       y="390.40286"
       style="font-size:12px;fill:#666666">双柏</tspan></text>
  <path
     sodipodi:type="arc"
     style="fill:#d40000;fill-opacity:1;stroke:#dd66ff;stroke-opacity:0"
     id="D532301"
     sodipodi:cx="314.82144"
     sodipodi:cy="114.75"
     sodipodi:rx="3.0357144"
     sodipodi:ry="3.0357144"
     d="m 317.85716,114.75 a 3.0357144,3.0357144 0 1 1 -6.07143,0 3.0357144,3.0357144 0 1 1 6.07143,0 z"
     transform="matrix(0.79797983,0,0,0.79797981,-72.586954,240.80965)" />
  <text
     xml:space="preserve"
     style="font-size:40px;font-style:normal;font-weight:normal;line-height:125%;letter-spacing:0px;word-spacing:0px;fill:#000000;fill-opacity:1;stroke:none;font-family:Sans"
     x="183.54793"
     y="335.87747"
     id="text532301"
     sodipodi:linespacing="125%"><tspan
       sodipodi:role="line"
       id="tspan5565-52-85"
       x="183.54793"
       y="335.87747"
       style="font-size:12px;fill:#666666">楚雄</tspan></text>
  <path
     sodipodi:type="arc"
     style="fill:#d40000;fill-opacity:1;stroke:#dd66ff;stroke-opacity:0"
     id="D532324"
     sodipodi:cx="314.82144"
     sodipodi:cy="114.75"
     sodipodi:rx="3.0357144"
     sodipodi:ry="3.0357144"
     d="m 317.85716,114.75 a 3.0357144,3.0357144 0 1 1 -6.07143,0 3.0357144,3.0357144 0 1 1 6.07143,0 z"
     transform="matrix(0.79797983,0,0,0.79797981,-97.691929,189.92984)" />
  <text
     xml:space="preserve"
     style="font-size:40px;font-style:normal;font-weight:normal;line-height:125%;letter-spacing:0px;word-spacing:0px;fill:#000000;fill-opacity:1;stroke:none;font-family:Sans"
     x="124.818"
     y="286.3085"
     id="text532324"
     sodipodi:linespacing="125%"><tspan
       sodipodi:role="line"
       id="tspan5565-52-0"
       x="124.818"
       y="286.3085"
       style="font-size:12px;fill:#666666">南华</tspan></text>
  <path
     sodipodi:type="arc"
     style="fill:#d40000;fill-opacity:1;stroke:#dd66ff;stroke-opacity:0"
     id="D532329"
     sodipodi:cx="314.82144"
     sodipodi:cy="114.75"
     sodipodi:rx="3.0357144"
     sodipodi:ry="3.0357144"
     d="m 317.85716,114.75 a 3.0357144,3.0357144 0 1 1 -6.07143,0 3.0357144,3.0357144 0 1 1 6.07143,0 z"
     transform="matrix(0.79797983,0,0,0.79797981,87.211983,78.025407)" />
  <text
     xml:space="preserve"
     style="font-size:40px;font-style:normal;font-weight:normal;line-height:125%;letter-spacing:0px;word-spacing:0px;fill:#000000;fill-opacity:1;stroke:none;font-family:Sans"
     x="326.68658"
     y="181.42784"
     id="text532329"
     sodipodi:linespacing="125%"><tspan
       sodipodi:role="line"
       id="tspan5565-52"
       x="326.68658"
       y="181.42784"
       style="font-size:12px;fill:#666666">武定</tspan></text>
</svg>
