<?xml version="1.0" encoding="UTF-8" standalone="no"?>
<!-- Created with Inkscape (http://www.inkscape.org/) -->

<svg
   xmlns:dc="http://purl.org/dc/elements/1.1/"
   xmlns:cc="http://creativecommons.org/ns#"
   xmlns:rdf="http://www.w3.org/1999/02/22-rdf-syntax-ns#"
   xmlns:svg="http://www.w3.org/2000/svg"
   xmlns="http://www.w3.org/2000/svg"
   xmlns:sodipodi="http://sodipodi.sourceforge.net/DTD/sodipodi-0.dtd"
   xmlns:inkscape="http://www.inkscape.org/namespaces/inkscape"
   id="svg18220"
   version="1.1"
   inkscape:version="0.48.5 r10040"
   width="100%"
   height="100%"
   viewBox="0 0 460 460"
   sodipodi:docname="5326-1.svg">
  <metadata
     id="metadata18226">
    <rdf:RDF>
      <cc:Work
         rdf:about="">
        <dc:format>image/svg+xml</dc:format>
        <dc:type
           rdf:resource="http://purl.org/dc/dcmitype/StillImage" />
        <dc:title></dc:title>
      </cc:Work>
    </rdf:RDF>
  </metadata>
  <defs
     id="defs18224" />
  <filter
     x="-0.1"
     y="0"
     width="1.2"
     height="1"
     id="green">
    <feFlood
       flood-color="#008000"
       id="feFlood6"
       result="result1" />
    <feComposite
       in="SourceGraphic"
       id="feComposite8"
       in2="result1" />
  </filter>
  <filter
     x="-0.1"
     y="0"
     width="1.2"
     height="1"
     id="orange">
    <feFlood
       flood-color="#ff7f2a"
       id="feFlood11"
       result="result1" />
    <feComposite
       in="SourceGraphic"
       id="feComposite13"
       in2="result1" />
  </filter>
  <sodipodi:namedview
     pagecolor="#ffffff"
     bordercolor="#666666"
     borderopacity="1"
     objecttolerance="10"
     gridtolerance="10"
     guidetolerance="10"
     inkscape:pageopacity="0"
     inkscape:pageshadow="2"
     inkscape:window-width="1920"
     inkscape:window-height="1018"
     id="namedview18222"
     showgrid="false"
     inkscape:zoom="2.6009232"
     inkscape:cx="195.218"
     inkscape:cy="244.96576"
     inkscape:window-x="-8"
     inkscape:window-y="-8"
     inkscape:window-maximized="1"
     inkscape:current-layer="svg18220" />
  <path
     style="fill:#e6e6e6"
     d="m 155.8239,289.11596 c -19.47913,11.9387 -19.05967,10.20033 -37.92387,13.42654 -6.76508,1.15698 -28.912439,4.35826 -35.730459,6.52904 -12.043497,3.83451 -11.608854,1.22928 -11.044571,10.64721 -2.377423,7.8015 1.010961,16.01268 -1.5625,23.875 -2.697494,13.0771 -7.917091,26.05482 -6.09375,39.59375 -1.966404,2.6215 -3.876751,9.39805 1.5,9.03125 2.87503,-0.68975 6.436121,-2.43217 8.25,0.78125 5.395592,2.05969 8.152864,-5.43094 10.3125,-8.96875 2.080898,-3.43441 3.778184,-6.57896 2.125,-10.3125 -1.632775,-7.23703 7.572093,-8.73226 11.84375,-12 3.90125,-1.36633 3.83786,-6.33303 6.28125,-8.53125 3.4446,3.39566 8.61129,6.42937 13.21875,3.3125 4.98091,-2.33033 10.83776,0.71235 11.125,6.25 1.13296,6.49141 0.0666,13.08066 -0.75,19.5 8.21306,-1.67075 12.62664,11.37489 20.875,7.4375 13.76803,-9.94089 26.37407,-21.94255 41.3125,-30.03125 4.34943,-2.76258 2.08479,-10.9355 -2.35222,-13.85222 -5.17536,-3.40209 -12.45154,-7.96711 -10.12024,-15.51589 2.55124,-8.26094 1.5059,-12.43687 -4.68885,-17.56377 -5.09021,-4.21276 -14.82379,-9.50893 -12.14408,-17.67846 3.57875,-4.26621 -2.35547,-4.47319 -4.43321,-5.92995 z"
     id="path532625"
     inkscape:connector-curvature="0"
     sodipodi:nodetypes="cssccccccccccccccssscc"
     onmouseout="changeColorOut('path532625')"
     onmouseover="changeColorOver('path532625')" />
  <path
     style="fill:#e6e6e6"
     d="m 269.52542,229.85911 c -4.21107,-0.26401 -8.18843,-1.68332 -11.78442,-2.00635 -4.33268,-0.38921 -9.79522,-1.46715 -14.47454,-1.45499 -4.67933,0.0122 -9.67185,1.47989 -10.87168,5.45109 -0.95573,3.43361 3.71306,7.61015 6.95739,12.03073 3.24433,4.42059 6.1606,8.71973 3.89265,11.66761 -6.64207,8.63332 -19.88177,5.25529 -25.53558,13.93921 -5.10414,7.83965 -2.69338,13.11651 -7.94239,20.69865 -2.55343,3.68839 -6.50988,5.10358 -8.87922,1.5792 -2.93359,-4.3637 -4.57567,-2.9312 -9.31385,-0.15108 -6.63375,3.89233 -15.26541,7.00021 -16.79253,17.29307 -1.94428,5.4433 5.60872,8.86852 4.29591,14.55539 -1.57064,6.80377 -3.27534,13.89476 3.31487,18.18276 2.92353,1.90223 9.46875,5.90134 10.03836,10.88596 0.66936,5.85754 -1.33262,14.92177 6.30021,16.44224 8.28922,2.81517 12.27388,-9.53494 15.8944,-15.0976 2.66825,-5.76896 10.91625,-3.05707 13.78125,-8.90625 3.87524,-8.1715 -4.76534,-15.17774 -7.1875,-22.3125 -3.06945,-7.93146 4.97662,-13.74461 10.125,-18.1875 2.71744,-1.4873 3.68558,-6.79656 7.21875,-4.65625 9.8932,1.21877 15.01926,-10.41947 24.1875,-12.03125 1.3138,-4.27137 5.46144,-7.30162 9.90625,-5.3125 4.16063,1.19037 8.64073,-0.71518 11.625,-3.09375 7.89119,4.20634 15.51617,-4.55229 17.125,-11.6875 1.22815,-4.20336 -3.71533,-7.94212 -4.85222,-12.34375 -3.53619,-13.69083 -12.55751,-24.22646 -27.02861,-25.48464 z"
     id="path532624"
     inkscape:connector-curvature="0"
     sodipodi:nodetypes="csscsssssscsssccccccccccsc"
     onmouseout="changeColorOut('path532624')"
     onmouseover="changeColorOver('path532624')" />
  <path
     style="fill:#e6e6e6"
     d="m 69.483505,307.38251 c -1.912977,-14.91764 -1.432197,-33.71975 -19.28279,-38.35323 2.97814,-12.75924 -5.925229,-28.17963 -14.510233,-31.61215 9.111436,-4.85439 13.939044,-20.09204 30.910738,-23.49537 13.995683,-2.80655 31.306671,-4.09332 41.83168,2.40809 10.52502,6.50142 -3.6289,33.87377 14.88066,29.75234 24.14576,-5.37642 17.94873,19.22168 30.2878,27.77881 -9.32404,3.27075 -8.17375,10.87815 1.02876,14.33015 -12.57623,12.11682 -28.4743,11.63812 -46.07623,14.83982 -20.130417,3.66162 -27.526789,4.75821 -37.136885,8.70674 l -0.873951,-1.51069 -1.059589,-2.84414 z"
     id="path532621"
     inkscape:connector-curvature="0"
     sodipodi:nodetypes="cccsssccscccc"
     onmouseout="changeColorOut('path532621')"
     onmouseover="changeColorOver('path532621')" />
  <path
     style="fill:#e6e6e6"
     d="m 163.50316,303.38244 c -1.27757,-1.37833 -6.04896,-5.05474 -1.02562,-10.48905 -1.85467,-3.78382 -13.2593,-6.60066 -14.30367,-10.27568 -1.04437,-3.67503 0.54789,-4.46215 7.20672,-8.55239 10.18968,-6.25909 18.68116,-13.0959 25.79545,-18.04596 7.11428,-4.95005 12.30762,-8.69303 16.98848,-15.40511 2.65591,-3.80842 4.56867,-4.73695 5.67694,-6.93552 0.85519,-1.69652 1.89102,-2.89913 6.21707,-7.37929 9.77231,-10.12045 19.54307,5.69094 28.83325,19.02608 13.76814,19.76278 -15.97137,7.33134 -24.92214,28.05224 -2.26337,5.23967 -4.23457,16.1329 -7.21481,18.84327 -2.98025,2.71036 -5.23277,-2.48764 -8.84852,-4.60693 -3.61575,-2.11929 -11.06163,4.29881 -16.32235,8.71476 -5.26073,4.41596 -7.69585,8.81026 -7.93112,16.14431 l -5.4917,-4.23926 c 0,0 -1.39706,-1.33339 -4.65798,-4.85147 z"
     id="path532623"
     inkscape:connector-curvature="0"
     sodipodi:nodetypes="sccsssssssscsccs"
     onmouseout="changeColorOut('path532623')"
     onmouseover="changeColorOver('path532623')" />
  <path
     style="fill:#e6e6e6"
     d="m 351.34375,115.90625 c -7.20207,0.45486 -17.2905,5.184 -16.21786,13.16854 0.41842,10.89378 9.91517,21.3795 7.72067,32.30258 -1.06021,4.25416 -11.03871,2.1554 -8.06961,7.85367 2.04175,3.91852 15.20241,7.64223 10.34849,17.28333 3.9891,3.87392 5.38107,2.90216 6.99719,9.29857 -3.67382,1.62465 -9.21063,-1.05796 -9.57864,4.84331 -3.75047,10.45993 -11.93531,19.07688 -23.88019,17.42373 -6.52341,-0.90283 -8.51569,-5.63667 -10.90555,-0.85285 -1.28149,2.56518 -3.86864,6.74396 -7.38429,5.18949 -1.85697,-0.82107 -3.61204,-0.66417 -5.91253,-1.78126 -2.30048,-1.1171 -4.50313,-0.34911 -5.85045,2.50283 -1.37683,9.48174 7.54878,19.40587 7.54527,28.89306 0.77382,6.87957 8.60946,7.84808 14,8.4375 4.46054,1.22227 3.73765,7.08081 7.59375,9.25 7.95338,7.52021 21.5273,10.66976 23.53125,22.96875 3.22961,2.42705 8.83451,3.73921 6.5625,-1.8125 1.31986,-7.38928 8.07625,-12.43884 10.46875,-19.375 3.66234,-4.81729 12.94381,0.0869 14.65625,-6.53125 0.593,-4.15593 -4.57557,-7.53971 -4.40625,-10.90625 4.3691,-1.10874 9.55251,0.68559 12.13485,-4.15423 7.65511,-7.32812 14.1511,-19.43218 26.1464,-19.40827 5.08266,-0.15457 8.67087,5.05351 13.4375,3.53125 4.09962,0.67947 3.7698,10.11611 9.21875,6.40625 5.77459,-7.03192 17.13275,-10.05373 19.21875,-19.75 1.15728,-2.90463 -3.55743,-5.14392 -1.09375,-7.34375 6.89218,-9.63742 1.70197,-21.54784 1.09375,-32.125 -0.0583,-2.96235 -0.16733,-6.58741 3.75,-6.15625 5.68442,-1.08975 4.80588,-8.93628 3,-12.375 -8.28693,-11.63895 -15.09579,-24.78828 -24.0625,-35.9375 -3.78488,-8.59434 -16.96819,-11.54969 -24.125,-5.5625 -3.14653,2.11611 -1.29524,6.53965 -3.1875,8.78125 -7.32094,6.57495 -16.51758,-1.53752 -24.75,-1.53125 -5.00311,-1.28874 -8.21533,3.8648 -12.84375,3.75 -5.53476,-4.09847 -4.51881,-14.63999 -12.59375,-16.25 -0.8466,-0.10625 -1.7145,-0.14834 -2.5625,-0.0312 z"
     id="path532628"
     inkscape:connector-curvature="0"
     sodipodi:nodetypes="cccscccsssscccccccccccccccccccccccccc"
     onmouseout="changeColorOut('path532628')"
     onmouseover="changeColorOver('path532628')" />
  <path
     style="fill:#e6e6e6"
     d="m 155.3607,152.06833 c -8.35123,1.17648 -4.68573,11.32603 -11.2982,14.90042 -12.3815,8.23936 -25.68509,-2.44424 -35.71875,8 -4.00969,4.17377 -6.3398,9.59289 -9.53125,14.375 -1.379222,2.06665 -2.472671,6.80364 -4.15625,6.1875 -9.515784,-3.48252 -13.001069,-10.62872 -26.3125,-17.96875 -3.738634,-2.06151 -8.571207,-2.79104 -11.78125,-4.28125 -6.166944,-2.8629 -7.062688,-6.374 -14.4375,-5.09375 -3.438283,0.2965 -2.586045,7.20343 -5.75,4.03125 -6.880567,-4.63304 -15.829133,0.40363 -17.9375,7.75 -3.372441,8.06466 -2.881672,17.6231 1.21875,25.15625 2.647011,11.78141 -11.878371,19.21344 -10.125,31.125 11.677941,3.74244 25.939119,0.69027 35.104684,-9.32499 1.470224,-1.60652 5.083706,-4.564 11.523271,-9.36089 6.439566,-4.79688 15.75478,-7.61762 28.489288,-7.09389 7.378801,0.30346 16.641887,0.1439 22.484337,4.36724 6.25051,4.51831 7.46263,8.32299 6.41253,15.74224 -0.16774,4.56125 0.81467,15.09392 5.35604,14.84154 21.17166,-1.17662 20.54179,-1.05019 25.5361,10.5475 1.98232,3.97433 0.815,5.55732 3.07935,9.34321 1.59938,2.67411 1.64842,1.55368 2.81749,3.70238 4.83588,8.8882 11.54822,-1.16044 18.92396,-6.63379 3.42533,-2.54186 8.36737,-5.85732 11.9292,-7.94305 5.01475,-2.93653 14.573,-10.93361 17.51798,-16.1715 1.96572,-3.4962 7.8289,-8.52339 7.56571,-12.07638 -0.3815,-5.15005 -6.68552,-13.2355 -10.39251,-17.61962 -3.707,-4.38413 -4.81696,-5.06692 -2.81035,-11.41163 2.58869,-8.18522 1.94734,-14.69289 -4.25583,-19.47087 -4.67207,-4.8128 -11.37537,-9.45453 -16.18868,-13.25575 -0.63296,-3.35479 -1.29691,-4.15211 -0.29492,-9.77346 -12.45546,-1.81521 -13.12078,-2.59994 -16.9682,-2.58996 z"
     id="path532622"
     inkscape:connector-curvature="0"
     sodipodi:nodetypes="ccsassscccccscsscscsssssssscccc"
     onmouseout="changeColorOut('path532622')"
     onmouseover="changeColorOver('path532622')" />
  <path
     style="fill:#e6e6e6"
     d="m 284.09308,233.13748 c -18.00697,-7.13782 -27.33854,-7.17874 -35.34644,-7.7754 -15.76313,-1.17449 -16.12648,5.35155 -18.78449,4.89032 -2.658,-0.46123 -2.54391,-3.0924 -4.2122,-4.59651 -1.79452,-1.61793 -5.54535,-4.01302 -8.02361,-3.86427 -2.47826,0.14875 -6.82781,2.78541 -9.72294,3.62808 -1.26511,-4.53124 -7.80206,-13.07813 -10.97007,-18.08052 -3.16802,-5.00239 -3.65623,-7.7524 -2.20215,-11.27413 7.13744,-17.28656 -12.53965,-22.76569 -21.01941,-32.12499 -0.7656,-8.60719 -1.45865,-12.60298 -3.2811,-29.24135 -1.5717,-14.34911 -0.27085,-23.1046 -0.77917,-35.23992 -0.56739,-13.54552 -8.57993,-32.843857 3.0061,-35.666094 7.08015,5.94379 17.07193,27.175576 26.9438,20.296543 0.62681,-9.723645 -4.13967,-19.664807 7.17621,-18.318298 10.01608,-13.8482 32.62139,15.493386 43.83174,-0.04683 14.9677,-7.555852 12.64888,14.203638 26.4961,13.129709 0.58242,11.431589 7.51157,21.15116 11.35754,32.02248 -18.88012,5.58839 13.45992,33.74772 14.52588,12.95417 11.14472,6.39196 22.79697,14.20065 34.54605,17.60326 1.00602,9.96579 13.00572,20.89475 -4.02617,23.91888 -3.39367,9.11487 15.81648,8.80283 10.92731,21.55 3.67408,3.61151 6.33566,6.19541 6.59557,7.72239 0.25991,1.52698 -1.88185,1.99705 -7.81443,1.3809 -3.31084,16.86959 -19.49636,28.08968 -34.43025,17.25476 -3.23457,9.02547 -4.76062,11.40851 -14.49017,6.3941 -8.28923,-0.21435 -7.92578,5.55528 -6.19831,9.60798 0.86373,2.02635 3.95671,9.76025 3.67769,10.65077 -0.27902,0.89052 -3.93003,-5.06233 -7.78308,-6.77603 z"
     id="path532627"
     inkscape:connector-curvature="0"
     sodipodi:nodetypes="csssscsscssccccccccccscccssc"
     onmouseout="changeColorOut('path532627')"
     onmouseover="changeColorOver('path532627')" />
  <path
     style="fill:#e6e6e6"
     d="M 90.529095,192.29379 C 80.709898,185.60499 77.182949,176.92989 65.806534,174.88249 51.984736,172.39499 42.779123,158.80587 37.648878,172.18593 25.83692,165.1955 11.827109,147.19698 5.9462854,133.72717 9.2793049,109.30479 44.643495,117.76455 47.791746,91.97661 56.845226,72.798357 75.000432,65.679339 94.028467,66.900335 c 10.045683,-12.59196 24.438043,0.984425 20.230293,12.784453 20.61168,10.086737 32.60118,-15.685761 49.4356,-12.422174 2.9464,14.989195 4.51331,25.737977 4.48905,40.980176 -0.026,16.35923 0.80476,35.74769 3.89422,45.54947 -17.48184,-2.55284 -21.29375,-7.08233 -25.00991,6.08283 -5.90873,10.57427 -14.2362,10.57435 -25.19762,9.40172 -12.74064,-1.36297 -17.69238,5.80448 -23.329455,17.23771 -2.859093,5.79887 -0.774974,10.7088 -8.01155,5.77927 z"
     id="path532626"
     inkscape:connector-curvature="0"
     sodipodi:nodetypes="ssccccccsccsss"
     onmouseout="changeColorOut('path532626')"
     onmouseover="changeColorOver('path532626')" />
  <g
     transform="matrix(0.98695514,0,0,1.0304851,351.69965,-733.67388)"
     id="g532627">
    <text
       id="text532627-lc"
       x="-122.67094"
       y="849.59302"
       style="font-size:12px;fill:#ffffff;filter:url(#green);font-family:Sans">22</text>
  </g>
  <g
     transform="matrix(0.98695514,0,0,1.0304851,483.94844,-673.34321)"
     id="g532628">
    <text
       id="text532628-lc"
       x="-122.67094"
       y="849.59302"
       style="font-size:12px;fill:#ffffff;filter:url(#green);font-family:Sans">22</text>
  </g>
  <g
     transform="matrix(0.98695514,0,0,1.0304851,221.31986,-751.35884)"
     id="g532626">
    <text
       id="text532626-lc"
       x="-122.67094"
       y="849.59302"
       style="font-size:12px;fill:#ffffff;filter:url(#green);font-family:Sans">22</text>
  </g>
  <g
     transform="matrix(0.98695514,0,0,1.0304851,262.09189,-668.98289)"
     id="g532622">
    <text
       id="text532622-lc"
       x="-122.67094"
       y="849.59302"
       style="font-size:12px;fill:#ffffff;filter:url(#green);font-family:Sans">22</text>
  </g>
  <g
     transform="matrix(0.98695514,0,0,1.0304851,299.92558,-610.18423)"
     id="g532623">
    <text
       id="text532623-lc"
       x="-122.67094"
       y="849.59302"
       style="font-size:12px;fill:#ffffff;filter:url(#green);font-family:Sans">22</text>
  </g>
  <g
     transform="matrix(0.98695514,0,0,1.0304851,227.73662,-614.3744)"
     id="g532621">
    <text
       id="text532621-lc"
       x="-122.67094"
       y="849.59302"
       style="font-size:12px;fill:#ffffff;filter:url(#green);font-family:Sans">22</text>
  </g>
  <g
     transform="matrix(0.98695514,0,0,1.0304851,223.33222,-546.94322)"
     id="g532625">
    <text
       id="text532625-lc"
       x="-122.67094"
       y="849.59302"
       style="font-size:12px;fill:#ffffff;filter:url(#green);font-family:Sans">22</text>
  </g>
  <g
     transform="matrix(0.98695514,0,0,1.0304851,316.66827,-543.83531)"
     id="g532624">
    <text
       id="text532624-lc"
       x="-110.51232"
       y="849.59302"
       style="font-size:12px;fill:#ffffff;filter:url(#green);font-family:Sans">22</text>
  </g>
  <path
     sodipodi:type="arc"
     style="fill:#d40000;fill-opacity:1;stroke:#dd66ff;stroke-opacity:0"
     id="D532627"
     sodipodi:cx="314.82144"
     sodipodi:cy="114.75"
     sodipodi:rx="3.0357144"
     sodipodi:ry="3.0357144"
     d="m 317.85716,114.75 a 3.0357144,3.0357144 0 1 1 -6.07143,0 3.0357144,3.0357144 0 1 1 6.07143,0 z"
     transform="matrix(0.79797983,0,0,0.79797981,4.098224,31.649132)" />
  <text
     xml:space="preserve"
     style="font-size:40px;font-style:normal;font-weight:normal;line-height:125%;letter-spacing:0px;word-spacing:0px;fill:#000000;fill-opacity:1;stroke:none;font-family:Sans"
     x="223.86731"
     y="123.70239"
     id="text532627"
     sodipodi:linespacing="125%"><tspan
       sodipodi:role="line"
       id="tspan5565"
       x="223.86731"
       y="123.70239"
       style="font-size:12px;fill:#666666">广南</tspan></text>
  <path
     sodipodi:type="arc"
     style="fill:#d40000;fill-opacity:1;stroke:#dd66ff;stroke-opacity:0"
     id="D532628"
     sodipodi:cx="314.82144"
     sodipodi:cy="114.75"
     sodipodi:rx="3.0357144"
     sodipodi:ry="3.0357144"
     d="m 317.85716,114.75 a 3.0357144,3.0357144 0 1 1 -6.07143,0 3.0357144,3.0357144 0 1 1 6.07143,0 z"
     transform="matrix(0.79797983,0,0,0.79797981,107.15966,121.0665)" />
  <text
     xml:space="preserve"
     style="font-size:40px;font-style:normal;font-weight:normal;line-height:125%;letter-spacing:0px;word-spacing:0px;fill:#000000;fill-opacity:1;stroke:none;font-family:Sans"
     x="363.93829"
     y="216.92796"
     id="text532628"
     sodipodi:linespacing="125%"><tspan
       sodipodi:role="line"
       id="tspan5565-6"
       x="363.93829"
       y="216.92796"
       style="font-size:12px;fill:#666666">富宁</tspan></text>
  <path
     sodipodi:type="arc"
     style="fill:#d40000;fill-opacity:1;stroke:#dd66ff;stroke-opacity:0"
     id="D532626"
     sodipodi:cx="314.82144"
     sodipodi:cy="114.75"
     sodipodi:rx="3.0357144"
     sodipodi:ry="3.0357144"
     d="m 317.85716,114.75 a 3.0357144,3.0357144 0 1 1 -6.07143,0 3.0357144,3.0357144 0 1 1 6.07143,0 z"
     transform="matrix(0.79797983,0,0,0.79797981,-127.82971,14.387494)" />
  <text
     xml:space="preserve"
     style="font-size:40px;font-style:normal;font-weight:normal;line-height:125%;letter-spacing:0px;word-spacing:0px;fill:#000000;fill-opacity:1;stroke:none;font-family:Sans"
     x="93.135246"
     y="105.8135"
     id="text532626"
     sodipodi:linespacing="125%"><tspan
       sodipodi:role="line"
       id="tspan5565-65"
       x="93.135246"
       y="105.8135"
       style="font-size:12px;fill:#666666">丘北</tspan></text>
  <path
     sodipodi:type="arc"
     style="fill:#d40000;fill-opacity:1;stroke:#dd66ff;stroke-opacity:0"
     id="D532622"
     sodipodi:cx="314.82144"
     sodipodi:cy="114.75"
     sodipodi:rx="3.0357144"
     sodipodi:ry="3.0357144"
     d="m 317.85716,114.75 a 3.0357144,3.0357144 0 1 1 -6.07143,0 3.0357144,3.0357144 0 1 1 6.07143,0 z"
     transform="matrix(0.79797983,0,0,0.79797981,-87.089207,127.06089)" />
  <text
     xml:space="preserve"
     style="font-size:40px;font-style:normal;font-weight:normal;line-height:125%;letter-spacing:0px;word-spacing:0px;fill:#000000;fill-opacity:1;stroke:none;font-family:Sans"
     x="133.737"
     y="221.75397"
     id="text532622"
     sodipodi:linespacing="125%"><tspan
       sodipodi:role="line"
       id="tspan5565-9"
       x="133.737"
       y="221.75397"
       style="font-size:12px;fill:#666666">砚山</tspan></text>
  <path
     sodipodi:type="arc"
     style="fill:#d40000;fill-opacity:1;stroke:#dd66ff;stroke-opacity:0"
     id="D532623"
     sodipodi:cx="314.82144"
     sodipodi:cy="114.75"
     sodipodi:rx="3.0357144"
     sodipodi:ry="3.0357144"
     d="m 317.85716,114.75 a 3.0357144,3.0357144 0 1 1 -6.07143,0 3.0357144,3.0357144 0 1 1 6.07143,0 z"
     transform="matrix(0.79797983,0,0,0.79797981,-66.939852,193.94353)" />
  <text
     xml:space="preserve"
     style="font-size:40px;font-style:normal;font-weight:normal;line-height:125%;letter-spacing:0px;word-spacing:0px;fill:#000000;fill-opacity:1;stroke:none;font-family:Sans"
     x="172.03577"
     y="280.89719"
     id="text532623"
     sodipodi:linespacing="125%"><tspan
       sodipodi:role="line"
       id="tspan5565-3"
       x="172.03577"
       y="280.89719"
       style="font-size:12px;fill:#666666">西畴</tspan></text>
  <path
     sodipodi:type="arc"
     style="fill:#d40000;fill-opacity:1;stroke:#dd66ff;stroke-opacity:0"
     id="D532621"
     sodipodi:cx="314.82144"
     sodipodi:cy="114.75"
     sodipodi:rx="3.0357144"
     sodipodi:ry="3.0357144"
     d="m 317.85716,114.75 a 3.0357144,3.0357144 0 1 1 -6.07143,0 3.0357144,3.0357144 0 1 1 6.07143,0 z"
     transform="matrix(0.79797983,0,0,0.79797981,-123.67552,180.4903)" />
  <text
     xml:space="preserve"
     style="font-size:40px;font-style:normal;font-weight:normal;line-height:125%;letter-spacing:0px;word-spacing:0px;fill:#000000;fill-opacity:1;stroke:none;font-family:Sans"
     x="95.944717"
     y="275.52795"
     id="text532621"
     sodipodi:linespacing="125%"><tspan
       sodipodi:role="line"
       id="tspan5565-91"
       x="95.944717"
       y="275.52795"
       style="font-size:12px;fill:#666666">文山</tspan></text>
  <path
     sodipodi:type="arc"
     style="fill:#d40000;fill-opacity:1;stroke:#dd66ff;stroke-opacity:0"
     id="D532625"
     sodipodi:cx="314.82144"
     sodipodi:cy="114.75"
     sodipodi:rx="3.0357144"
     sodipodi:ry="3.0357144"
     d="m 317.85716,114.75 a 3.0357144,3.0357144 0 1 1 -6.07143,0 3.0357144,3.0357144 0 1 1 6.07143,0 z"
     transform="matrix(0.79797983,0,0,0.79797981,-142.45603,256.85095)" />
  <text
     xml:space="preserve"
     style="font-size:40px;font-style:normal;font-weight:normal;line-height:125%;letter-spacing:0px;word-spacing:0px;fill:#000000;fill-opacity:1;stroke:none;font-family:Sans"
     x="95.835754"
     y="342.30252"
     id="text532625"
     sodipodi:linespacing="125%"><tspan
       sodipodi:role="line"
       id="tspan5565-60"
       x="95.835754"
       y="342.30252"
       style="font-size:12px;fill:#666666">马关</tspan></text>
  <path
     sodipodi:type="arc"
     style="fill:#d40000;fill-opacity:1;stroke:#dd66ff;stroke-opacity:0"
     id="D532624"
     sodipodi:cx="314.82144"
     sodipodi:cy="114.75"
     sodipodi:rx="3.0357144"
     sodipodi:ry="3.0357144"
     d="m 317.85716,114.75 a 3.0357144,3.0357144 0 1 1 -6.07143,0 3.0357144,3.0357144 0 1 1 6.07143,0 z"
     transform="matrix(0.79797983,0,0,0.79797981,-38.009888,222.41475)" />
  <text
     xml:space="preserve"
     style="font-size:40px;font-style:normal;font-weight:normal;line-height:125%;letter-spacing:0px;word-spacing:0px;fill:#000000;fill-opacity:1;stroke:none;font-family:Sans"
     x="195.35217"
     y="308.05667"
     id="text532624"
     sodipodi:linespacing="125%"><tspan
       sodipodi:role="line"
       id="tspan5565-8"
       x="195.35217"
       y="308.05667"
       style="font-size:12px;fill:#666666">麻栗坡</tspan></text>
</svg>
