<?xml version="1.0" encoding="UTF-8" standalone="no"?>
<!-- Created with Inkscape (http://www.inkscape.org/) -->

<svg
   xmlns:dc="http://purl.org/dc/elements/1.1/"
   xmlns:cc="http://creativecommons.org/ns#"
   xmlns:rdf="http://www.w3.org/1999/02/22-rdf-syntax-ns#"
   xmlns:svg="http://www.w3.org/2000/svg"
   xmlns="http://www.w3.org/2000/svg"
   xmlns:sodipodi="http://sodipodi.sourceforge.net/DTD/sodipodi-0.dtd"
   xmlns:inkscape="http://www.inkscape.org/namespaces/inkscape"
   id="svg12812"
   version="1.1"
   inkscape:version="0.48.5 r10040"
   width="100%"
   height="100%"
   viewBox="0 0 460 460"
   sodipodi:docname="5328-1.svg">
  <metadata
     id="metadata12818">
    <rdf:RDF>
      <cc:Work
         rdf:about="">
        <dc:format>image/svg+xml</dc:format>
        <dc:type
           rdf:resource="http://purl.org/dc/dcmitype/StillImage" />
        <dc:title />
      </cc:Work>
    </rdf:RDF>
  </metadata>
  <defs
     id="defs12816" />
  <filter
     x="-0.1"
     y="0"
     width="1.2"
     height="1"
     id="green">
    <feFlood
       flood-color="#008000"
       id="feFlood6"
       result="result1" />
    <feComposite
       in="SourceGraphic"
       id="feComposite8"
       in2="result1" />
  </filter>
  <filter
     x="-0.1"
     y="0"
     width="1.2"
     height="1"
     id="orange">
    <feFlood
       flood-color="#ff7f2a"
       id="feFlood11"
       result="result1" />
    <feComposite
       in="SourceGraphic"
       id="feComposite13"
       in2="result1" />
  </filter>
  <sodipodi:namedview
     pagecolor="#ffffff"
     bordercolor="#666666"
     borderopacity="1"
     objecttolerance="10"
     gridtolerance="10"
     guidetolerance="10"
     inkscape:pageopacity="0"
     inkscape:pageshadow="2"
     inkscape:window-width="1920"
     inkscape:window-height="1018"
     id="namedview12814"
     showgrid="false"
     inkscape:zoom="1.8391304"
     inkscape:cx="230"
     inkscape:cy="208.25059"
     inkscape:window-x="-8"
     inkscape:window-y="-8"
     inkscape:window-maximized="1"
     inkscape:current-layer="svg12812" />
  <g
     id="g12822"
     transform="translate(363.17124,61.332524)"
     style="fill:#e6e6e6">
    <path
       style="fill:#e6e6e6"
       d="m 59.495428,341.62255 c -1.401787,-12.16902 -12.366717,-15.48979 -22.30589,-8.70502 -8.164362,6.54486 5.500598,-17.90471 -10.562594,-12.13681 -18.6363742,-1.90102 -36.4931092,5.64628 -54.660548,8.36987 -13.526182,12.77361 -34.12019,-5.29152 -21.670112,-19.82557 -7.330833,-11.05091 -32.024919,-25.06934 -12.708354,-36.56091 5.359871,-14.52674 10.860048,-38.87977 -13.187667,-34.57298 13.277569,-7.91297 5.037315,-25.04231 -4.647915,-34.17904 1.833737,-5.36221 -3.464018,-15.73227 3.307623,-17.51916 16.339758,-4.29109 0.669235,-39.12034 12.990166,-45.3215 12.954628,-6.5201 21.112508,-12.32156 1.29895,-23.12956 C -76.287363,111.55878 -88.30361,95.124733 -70.003759,81.580542 -55.794428,71.06385 -46.203,57.523353 -35.424228,42.92304 c 7.252672,-9.824058 33.9114528,-6.125495 49.181042,-14.602907 12.06766,-5.5834 6.363875,25.787601 21.955013,13.019791 11.464976,4.308829 -3.217697,21.966616 -13.455484,19.49535 -9.679584,15.427741 17.003454,30.216119 2.778711,40.781156 7.095099,13.43474 12.797213,24.92505 10.378349,39.68546 7.400477,9.15914 23.88576,2.132 18.639136,16.59833 9.738003,9.55229 22.708852,17.49015 12.888934,32.76009 -3.873365,17.12076 14.596689,31.20047 16.723658,40.31849 -12.070206,1.37252 -20.641477,4.52939 -14.913303,19.614 -5.895764,7.54098 -6.810064,15.4243 -2.523872,25.57271 -8.422006,14.30669 -5.671465,34.96295 11.600802,36.70926 7.706504,5.62289 14.156445,17.08877 -1.593024,16.71477 -1.486811,8.17121 -7.167871,15.56321 -16.740306,12.03301 z"
       id="path532823"
       type="area" code="532823" />
    <path
       style="fill:#e6e6e6"
       d="m -115.6875,-20.4375 c -6.39609,-0.114585 -12.30641,3.911448 -16.6875,7.375 -8.46609,-3.852574 -18.39469,-9.440821 -27.84375,-5.96875 -4.15222,2.049945 -4.9137,7.367382 -4,11.46875 -11.91546,2.9197626 -27.87912,2.2903829 -34.71875,14.5625 -1.95864,2.7887521 -1.32889,7.553267 -5.78125,6.78125 -5.12152,0.165481 -7.57542,6.552474 -4.56715,10.299202 5.86428,7.303841 10.26209,13.473884 15.72193,21.581265 -6.51902,1.086187 -11.35498,5.455078 -8.98361,14.904772 1.54139,6.142297 5.62589,11.685679 6.83828,17.364067 1.65005,7.728172 7.97762,35.119544 0.86408,50.050754 -1.92081,4.03176 -7.22551,4.51964 -4.49838,7.50236 2.42311,2.65021 9.74133,6.1641 9.33976,10.14842 -1.4499,2.78959 -3.91824,3.9856 -6.64173,7.26548 -3.40602,4.10187 -4.5113,6.85338 -8.26592,10.68296 -12.77521,13.03025 -14.37898,17.06297 -13.90412,23.32572 0.58267,7.68452 3.07446,9.98829 -0.8515,13.84841 -4.36162,4.28846 -8.73516,6.1683 -5.96099,15.92191 2.2062,7.75672 -1.69453,13.45717 -6.61329,17.4638 -5.23585,4.18006 -10.59079,11.31493 -6.35236,18.32838 2.08136,8.20674 10.90377,11.33641 18.40625,12.28125 8.15292,3.77094 17.13605,-0.076 24.96702,-2.60261 12.18122,-4.02559 22.79961,-11.60903 30.98772,-21.44909 9.34916,-9.95432 17.23547,-21.89098 28.61894,-29.57703 17.74671,-5.69466 34.82447,-13.84166 50.58257,-23.46502 7.154103,0.69214 15.214823,-3.8781 15,-11.75 0.184692,-8.24553 0.258237,-16.75664 -0.230599,-24.91099 -0.477922,-7.97231 6.562954,-10.9865 11.543099,-13.83901 4.03293,-1.63571 9.771438,-6.45634 5.6875,-10.96875 -10.128806,-8.25412 -22.175241,-12.53327 -26.738595,-25.63774 -2.266624,-6.935886 2.367099,-14.794281 7.875444,-18.491999 15.198498,-10.202657 25.031326,-26.606965 36.78125,-40.21875 C -27.482318,32.999017 -7.3509844,35.912932 6.9635669,30.40018 10.080189,21.81138 9.6464525,17.861044 6.9786529,13.494873 2.8569343,3.0539141 0.84952872,-11.012331 -10.46875,-16.25 c -8.819678,-3.337565 -15.758889,4.448124 -23.25,7.375 -14.947152,4.8106914 -30.382276,-1.828138 -45.625,-1.0625 -11.673568,-4.452163 -23.42131,-11.026388 -36.34375,-10.5 z"
       id="path532801"
       type="area" code="532801" />
    <path
       style="fill:#e6e6e6"
       d="m -293.64416,255.34267 c -5.21293,-10.92814 -22.43231,4.51983 -24.03942,-13.9579 -3.7061,-9.71365 2.98031,-15.62512 9.42587,-21.68117 12.33669,-18.05678 -18.53224,-25.47331 -27.57153,-13.55522 -6.75443,-7.95313 -18.44069,-13.18478 -17.47468,-27.91758 -8.99198,-19.52897 17.1195,-37.16841 2.19517,-55.65611 -2.27476,-19.22746 21.5394,-21.93478 23.13383,-40.345013 1.35849,-22.704626 33.28865,-6.386183 34.42421,-25.986291 13.21751,-1.842863 35.20742,24.682144 39.30599,-2.526091 -2.86774,-9.105847 12.91781,-20.16881 -3.63529,-22.30346 -13.90762,-9.516409 14.24637,-7.543433 18.80208,-16.582876 10.71103,-2.546682 27.08284,-8.6892864 27.45591,6.922914 4.23317,5.890078 14.67942,20.094786 17.50827,23.475673 -19.7639,6.030475 -3.28992,23.475151 -1.34994,36.514581 1.90562,12.808415 4.06574,25.792903 2.06035,41.155693 -1.12171,8.59313 -14.83781,7.58402 -1.84444,16.89936 10.5741,7.74096 1.49106,5.81354 -6.15819,18.62745 -6.15741,10.31481 -23.07549,17.48791 -16.78702,36.24147 2.34347,6.98874 -13.98749,9.12385 -8.30489,22.05862 8.6641,19.72128 -31.78948,25.66369 -47.63927,35.20782 -5.22254,2.11017 -16.65642,14.06559 -19.50701,3.40813 z"
       id="path532822"
       type="area" code="532822" />
  </g>
  <g
     transform="matrix(0.98695514,0,0,1.0304851,216.03683,-656.96179)"
     id="g532822" type="data" code="532822">
    <text
       id="text532822-lc"
       x="-122.67094"
       y="849.59302"
       style="font-size:12px;fill:#ffffff;filter:url(#green);font-family:Sans">22</text>
    <text
       id="text532822-cq"
       x="-98.986"
       y="849.59302"
       style="font-size:12px;fill:#ffffff;filter:url(#orange);font-family:Sans">22</text>
  </g>
  <g
     transform="matrix(0.98695514,0,0,1.0304851,325.95616,-706.61432)"
     id="g532801" type="data" code="532801">
    <text
       id="text532801-lc"
       x="-122.67094"
       y="849.59302"
       style="font-size:12px;fill:#ffffff;filter:url(#green);font-family:Sans">22</text>
    <text
       id="text532801-cq"
       x="-98.986"
       y="849.59302"
       style="font-size:12px;fill:#ffffff;filter:url(#orange);font-family:Sans">22</text>
  </g>
  <g
     transform="matrix(0.98695514,0,0,1.0304851,473.79991,-583.06508)"
     id="g532823" type="data" code="532823">
    <text
       id="text532823-lc"
       x="-122.67094"
       y="849.59302"
       style="font-size:12px;fill:#ffffff;filter:url(#green);font-family:Sans">22</text>
    <text
       id="text532823-cq"
       x="-98.986"
       y="849.59302"
       style="font-size:12px;fill:#ffffff;filter:url(#orange);font-family:Sans">22</text>
  </g>
  <path
     sodipodi:type="arc"
     style="fill:#d40000;fill-opacity:1;stroke:#dd66ff;stroke-opacity:0"
     id="D532822"
     sodipodi:cx="314.82144"
     sodipodi:cy="114.75"
     sodipodi:rx="3.0357144"
     sodipodi:ry="3.0357144"
     d="m 317.85716,114.75 a 3.0357144,3.0357144 0 1 1 -6.07143,0 3.0357144,3.0357144 0 1 1 6.07143,0 z"
     transform="matrix(0.79797983,0,0,0.79797981,-123.32762,104.49871)" />
  <text
     xml:space="preserve"
     style="font-size:40px;font-style:normal;font-weight:normal;line-height:125%;letter-spacing:0px;word-spacing:0px;fill:#000000;fill-opacity:1;stroke:none;font-family:Sans"
     x="94.569656"
     y="199.09109"
     id="text532822"
     sodipodi:linespacing="125%"><tspan
       sodipodi:role="line"
       id="tspan5565"
       x="94.569656"
       y="199.09109"
       style="font-size:12px;fill:#ffffff">勐海</tspan></text>
  <path
     sodipodi:type="arc"
     style="fill:#d40000;fill-opacity:1;stroke:#dd66ff;stroke-opacity:0"
     id="D532801"
     sodipodi:cx="314.82144"
     sodipodi:cy="114.75"
     sodipodi:rx="3.0357144"
     sodipodi:ry="3.0357144"
     d="m 317.85716,114.75 a 3.0357144,3.0357144 0 1 1 -6.07143,0 3.0357144,3.0357144 0 1 1 6.07143,0 z"
     transform="matrix(0.79797983,0,0,0.79797981,-13.200505,55.282607)" />
  <text
     xml:space="preserve"
     style="font-size:40px;font-style:normal;font-weight:normal;line-height:125%;letter-spacing:0px;word-spacing:0px;fill:#000000;fill-opacity:1;stroke:none;font-family:Sans"
     x="205.23491"
     y="148.95128"
     id="text532801"
     sodipodi:linespacing="125%"><tspan
       sodipodi:role="line"
       id="tspan5565-9"
       x="205.23491"
       y="148.95128"
       style="font-size:12px;fill:#ffffff">景洪</tspan></text>
  <path
     sodipodi:type="arc"
     style="fill:#d40000;fill-opacity:1;stroke:#dd66ff;stroke-opacity:0"
     id="D532823"
     sodipodi:cx="314.82144"
     sodipodi:cy="114.75"
     sodipodi:rx="3.0357144"
     sodipodi:ry="3.0357144"
     d="m 317.85716,114.75 a 3.0357144,3.0357144 0 1 1 -6.07143,0 3.0357144,3.0357144 0 1 1 6.07143,0 z"
     transform="matrix(0.79797983,0,0,0.79797981,119.82915,230.21905)" />
  <text
     xml:space="preserve"
     style="font-size:40px;font-style:normal;font-weight:normal;line-height:125%;letter-spacing:0px;word-spacing:0px;fill:#000000;fill-opacity:1;stroke:none;font-family:Sans"
     x="358.56985"
     y="310.99374"
     id="text532823"
     sodipodi:linespacing="125%"><tspan
       sodipodi:role="line"
       id="tspan5565-5"
       x="358.56985"
       y="310.99374"
       style="font-size:12px;fill:#ffffff">勐腊</tspan></text>
</svg>
