<?xml version="1.0" encoding="UTF-8" standalone="no"?>
<!-- Created with Inkscape (http://www.inkscape.org/) -->

<svg
   xmlns:dc="http://purl.org/dc/elements/1.1/"
   xmlns:cc="http://creativecommons.org/ns#"
   xmlns:rdf="http://www.w3.org/1999/02/22-rdf-syntax-ns#"
   xmlns:svg="http://www.w3.org/2000/svg"
   xmlns="http://www.w3.org/2000/svg"
   xmlns:sodipodi="http://sodipodi.sourceforge.net/DTD/sodipodi-0.dtd"
   xmlns:inkscape="http://www.inkscape.org/namespaces/inkscape"
   id="svg8273"
   version="1.1"
   inkscape:version="0.48.5 r10040"
   width="100%"
   height="100%"
   viewBox="0 0 460 460"
   sodipodi:docname="5329-1.svg">
  <metadata
     id="metadata8279">
    <rdf:RDF>
      <cc:Work
         rdf:about="">
        <dc:format>image/svg+xml</dc:format>
        <dc:type
           rdf:resource="http://purl.org/dc/dcmitype/StillImage" />
        <dc:title></dc:title>
      </cc:Work>
    </rdf:RDF>
  </metadata>
  <defs
     id="defs8277" />
  <filter
     x="-0.1"
     y="0"
     width="1.2"
     height="1"
     id="green">
    <feFlood
       flood-color="#008000"
       id="feFlood6"
       result="result1" />
    <feComposite
       in="SourceGraphic"
       id="feComposite8"
       in2="result1" />
  </filter>
  <filter
     x="-0.1"
     y="0"
     width="1.2"
     height="1"
     id="orange">
    <feFlood
       flood-color="#ff7f2a"
       id="feFlood11"
       result="result1" />
    <feComposite
       in="SourceGraphic"
       id="feComposite13"
       in2="result1" />
  </filter>
  <sodipodi:namedview
     pagecolor="#ffffff"
     bordercolor="#666666"
     borderopacity="1"
     objecttolerance="10"
     gridtolerance="10"
     guidetolerance="10"
     inkscape:pageopacity="0"
     inkscape:pageshadow="2"
     inkscape:window-width="1920"
     inkscape:window-height="1018"
     id="namedview8275"
     showgrid="false"
     inkscape:zoom="1.8391304"
     inkscape:cx="230"
     inkscape:cy="208.25059"
     inkscape:window-x="-8"
     inkscape:window-y="-8"
     inkscape:window-maximized="1"
     inkscape:current-layer="g8851" />
  <g
     id="g8851"
     transform="translate(11.026069,7.5804246)">
    <g
       id="g9386"
       transform="translate(520.70711,11.474874)">
      <path
         style="fill:#e6e6e6;fill-opacity:1;stroke:#dd66ff;stroke-width:0.48728815;stroke-opacity:0"
         d="m -403.59375,60.40625 c -9.01128,5.366501 -20.50412,6.481365 -28.0625,14.1875 0.095,4.781258 2.94498,12.588868 -3.33378,14.657968 -8.9653,5.181347 -19.50639,8.578706 -25.88497,17.217032 1.45749,2.65454 5.35233,5.56031 4.84375,8.6875 -5.50591,-0.0785 -11.23989,-1.51009 -16.3125,-3.25 -5.58558,-4.0538 -15.65323,-4.32102 -18.1875,3.4375 -5.03845,10.87409 -0.41154,23.21351 -3.25,34.5625 -0.51993,4.58059 -0.24314,9.17847 0.5,13.71875 3.63339,-3.99649 5.35058,-11.87029 11.34375,-12.65625 7.87509,8.62504 7.88273,20.83161 12.78125,31 0.72114,2.91299 0.3891,6.20778 -0.84375,9.03125 -7.74166,-5.42485 -18.60274,-12.24743 -27.65625,-5.625 2.86072,6.22452 13.24795,6.77096 12.96875,14.4375 -2.21249,5.81598 -10.57052,4.28185 -14.71875,1.5 -5.38331,-2.9813 -10.69335,-7.27292 -17.21875,-6.75 -3.10596,3.52627 1.48946,7.68205 -0.9375,11.5 -1.63765,5.41946 0.28524,13.60713 7.25,13.375 5.97592,0.0799 15.18129,-1.80845 17.75,5.4375 0.44804,4.8714 0.45416,11.61451 6.3125,13.125 3.89616,1.43577 8.77557,5.10368 6.5,9.8125 -1.17976,6.8146 8.41085,10.70799 12.53125,5.3125 3.49225,-4.9845 7.92055,-9.5173 14,-10.90625 4.66828,-2.4176 10.16572,-1.32831 14.1875,1.71875 4.1804,2.21158 12.03824,0.64637 10.21875,-5.1875 -0.49659,-1.59222 -2.11853,-6.04955 -2.89129,-8.23954 -0.77277,-2.18998 0.30364,-1.01887 4.07874,-0.66671 3.26159,0.30426 14.15326,4.53457 14.5625,0 0.13999,-1.55117 1.40523,-8.33664 3.0625,-12.3125 1.48999,-4.74501 7.26984,-7.05638 7.95527,-10.15051 0.34581,-1.56105 -1.93072,-4.44861 -3.29669,-7.63285 12.55306,3.20286 17.35203,6.68436 28.31017,17.81461 2.5301,2.56984 5.22309,4.95529 4.8125,-0.0625 -0.36508,-4.46173 -3.15699,-11.22368 1.65625,-14.46875 2.06284,-0.70083 4.55147,-1.45372 7.15597,-2.35164 2.60451,-0.89793 5.32489,-1.94087 7.85126,-3.22181 2.52637,-1.28093 4.85871,-2.79985 6.68714,-4.64972 1.82843,-1.84987 3.15293,-4.03069 3.66362,-6.63542 0.15523,-0.79173 -0.11061,-1.67991 -0.6185,-3.09007 -1.39177,0.30237 -9.0999,2.54384 -10.95953,2.89623 -2.84743,0.53956 -5.85875,-1.51092 -8.59743,-4.86017 -2.73868,-3.34926 -5.3373,-7.8426 -7.18253,-12.05615 -3.55374,-8.1149 -8.61526,-15.44167 -11.29917,-24.58303 -1.52073,-5.17955 -2.95406,-12.5153 -1.22205,-16.26351 2.2256,-4.81636 2.38225,-6.7278 5.48997,-12.21596 1.5355,-2.71165 4.59024,-12.9821 5.65231,-15.41061 -2.42912,-0.18891 -10.8833,-1.5372 -14.37106,-2.68314 -6.22585,-2.242535 -11.99588,-4.123358 -11.375,-9.0625 1.19184,-9.481143 2.47301,-3.515812 1.59375,-19.4375 -0.21542,-3.900848 -0.92353,-6.850945 -2.0625,-10.6875 l -2.68586,1.268318 z"
         id="path532929"
         inkscape:connector-curvature="0"
         sodipodi:nodetypes="ccccccccccccccccccccccccsssscscsscsssscssssssccssccc"
         onmouseout="changeColorOut('path532929')"
         onmouseover="changeColorOver('path532929')" />
      <path
         style="fill:#e6e6e6;fill-opacity:1;stroke:#dd66ff;stroke-width:0.48728815;stroke-opacity:0"
         d="m -364.71875,-11.34375 c -5.7034,1.19417 -6.49908,7.886238 -8.25,12.1875 -6.72171,5.2508922 -15.93037,7.2571057 -22.0625,13.09375 -2.40763,9.045682 2.40082,18.105101 4.25,26.75 0.0209,5.836676 -6.68988,8.634635 -9.15625,13.46875 -0.79754,5.352279 3.59818,13.271701 2.21875,26 -0.44415,4.098314 -3.96017,10.275859 0.75,13.59375 5.46708,3.898144 16.65083,6.18843 23.12847,6.5625 0.71628,-4.464793 1.12923,-4.235247 2.96528,-4.34375 7.39848,-0.471437 16.02582,-1.895759 22.875,-5 6.34466,-2.496572 12.17421,8.863364 16.40625,2.1875 3.83145,-4.045241 0.95724,-5.208024 5.27053,-6.588388 7.13205,-1.599133 16.53444,-5.708273 16.0625,-14.5625 -0.12138,-2.277109 -0.0834,-2.87001 -0.32767,-6.137294 5.45051,-1.738484 11.19851,-3.511511 13.43214,-7.805568 1.01584,-2.69869 6.32465,-6.458618 8.99965,-8.633227 -0.2226,-2.938319 -0.46726,-3.700788 -0.9684,-7.179273 -0.93324,-6.477707 -0.98203,-11.321097 -0.625,-17.3125 0.29545,-4.957962 2.40213,-11.995009 -4.19031,-13.447905 -4.87614,-3.1755569 -10.48969,-4.7907415 -15.46594,-7.645845 -2.32612,-2.341274 -4.47953,-8.1741269 -8.71875,-5.4375 -2.96809,2.56706397 -6.14978,5.6303277 -10.3125,3.375 -8.62313,-3.287822 -18.08953,-1.71296899 -26.84375,-1 -2.39609,-4.1960279 -3.30586,-11.88152 -9.4375,-12.125 z"
         id="path532931"
         inkscape:connector-curvature="0"
         sodipodi:nodetypes="cccccsccccccscccsscccccc"
         onmouseout="changeColorOut('path532931')"
         onmouseover="changeColorOver('path532931')" />
      <path
         inkscape:connector-curvature="0"
         id="path532930"
         d="m -359.34617,185.65872 c -3.19689,-1.2481 -4.55904,-2.97272 -6.98739,-6.00681 -0.5289,-0.66083 -3.3933,-5.16591 -4.47646,-7.31685 -1.02395,-2.03338 -3.25809,-6.82612 -3.8292,-8.04094 -1.15591,-2.45875 -4.29188,-8.38667 -6.42103,-12.88204 -2.37249,-5.00914 -3.43676,-9.04861 -4.21826,-14.64406 -0.52781,-3.77912 -0.50218,-4.73801 0.19908,-7.44647 0.44269,-1.70984 1.3929,-4.23155 2.11158,-5.60382 4.5208,-8.63224 7.15852,-15.86885 9.11293,-23.0183 0.57752,-2.112625 0.55668,-3.370777 1.36889,-4.136645 0.75847,-0.715191 1.28772,-0.20691 3.93602,-0.55696 6.49913,-0.85905 11.44264,-1.42239 15.65974,-2.84966 5.17664,-1.752026 6.33119,-3.82487 11.68096,-0.68851 5.02245,2.94446 6.40948,4.02282 8.54224,2.22821 0.8632,-0.72632 2.12884,-2.27513 2.81254,-3.44179 1.59625,-2.72379 0.57196,-3.0229 2.30214,-3.9604 2.01167,-1.090028 9.44728,-2.371223 11.71218,-4.489774 1.24049,-1.160332 3.38738,-2.672443 4.15976,-4.08594 1.2277,-2.246766 1.64656,-3.858457 1.46621,-7.617787 -0.13919,-2.90116 -0.26446,-4.143254 -0.2889,-5.185488 0.23337,-0.112547 4.97026,-1.376081 6.53501,-2.229163 1.84587,-1.006345 3.22608,-1.382212 4.8782,-2.895095 2.22349,-2.036099 1.61101,-2.359394 3.29871,-4.432507 1.6877,-2.073114 7.66257,-6.75067 7.66257,-6.75067 0,0 5.5629,0.428969 8.71941,0.573854 -0.0358,2.796924 0.12985,3.655177 0.28371,7.45049 0.38664,9.537297 1.87373,22.120941 2.41434,29.242203 0.5406,7.121262 0.60212,9.109851 0.70463,12.890798 0.0999,3.686884 -0.17577,4.423214 0.13735,7.022874 1.33575,0.98724 3.11465,2.13148 4.6169,3.27228 2.48034,1.88356 5.40654,4.16068 7.2511,5.89242 1.59764,1.49993 2.20821,2.76877 2.25751,3.83206 -0.68507,1.32891 -1.04006,1.98076 -2.8423,2.77797 -2.52763,1.1181 -3.83054,2.8521 -4.93419,7.13286 -1.50485,5.83695 -2.02327,8.65597 -6.35316,12.03699 -4.32118,3.37423 -5.83502,5.31962 -6.4526,8.29204 -0.50125,2.41254 -1.64866,3.22302 -7.9142,5.59018 -4.00419,1.51281 -5.25642,2.15034 -6.0815,3.92239 -0.82508,1.77205 0.65768,5.67045 0.81407,7.78317 0.14497,1.95849 0.44958,9.73144 0.20044,12.17148 -1.354,-0.60935 -4.3449,-8.1294 -5.61169,-9.68154 -1.03694,-1.27051 -1.50788,-2.32986 -2.49469,-3.27458 -1.54658,-1.48062 -2.99834,1.62975 -6.20453,6.14107 -3.32421,4.67739 -5.34129,5.9448 -6.46533,5.89247 -0.5813,-0.0271 -8.26365,-8.84405 -10.10487,-10.95389 -3.13781,-3.59558 -5.62729,-4.63152 -7.58541,-3.81099 -2.71272,1.13674 -4.26376,5.99767 -7.53169,11.04973 -3.32141,5.13473 -2.91116,5.95965 -4.63864,8.16489 -7.16586,1.90029 -10.55318,3.31691 -13.40218,2.64025 z"
         style="fill:#e6e6e6;fill-opacity:1;stroke:#dd66ff;stroke-width:0.48728815;stroke-opacity:0"
         sodipodi:nodetypes="csssssssssssscssssscsscccszscascssssssscssssssscc"
         onmouseout="changeColorOut('path532930')"
         onmouseover="changeColorOver('path532930')" />
      <path
         style="fill:#e6e6e6;fill-opacity:1;stroke:#dd66ff;stroke-width:0.48728815;stroke-opacity:0"
         d="m -255.8125,-12.375 c -5.64531,4.0819416 -7.2402,12.20291504 -12.625,16.84375 -2.17304,4.0815873 -6.09144,1.7582192 -8.83253,-0.191371 -2.70331,-2.4755616 -8.27157,-3.31636962 -9.04247,1.472621 -2.43693,11.202308 -4.15864,22.66576 -2.9375,34.03125 0.46877,4.362934 1.27994,7.491617 1.27994,9.636914 2.56818,0 4.25436,0.05801 8.75131,0.300586 0.64136,5.327345 0.72296,11.044441 1.17524,17.161496 0.96595,13.064297 3.1359,26.08342 2.6502,39.424674 2.29396,2.51235 5.01478,3.75992 7.33804,5.69144 2.49174,2.07161 4.79031,3.11859 6.31155,6.30542 0.81467,2.97215 0.77844,6.38438 1.14571,9.67692 0.36727,3.29254 1.20573,8.19471 4.12926,10.0838 2.8992,1.87338 6.63157,1.68282 10.21584,1.10502 3.58427,-0.5778 7.24243,-1.55519 10.03416,-3.48002 2.15636,-1.05201 3.1959,-1.9055 4.46875,1.40625 2.98665,7.77081 5.14261,11.82853 13.15625,13.94952 5.02682,1.33046 10.17324,7.05144 14.09375,1.5625 2.99003,-9.90352 0.93639,-21.32404 1.53125,-31.57452 0.67723,-4.52598 -1.93598,-9.07962 -6.8125,-9.28125 -7.55102,-0.9631 -8.40045,-11.47825 -2.9375,-15.6875 0.67695,-6.945906 -3.42303,-14.136136 -5.8125,-20.65625 0.57222,-4.244092 7.68737,-5.144716 6.93937,-10.333172 0.97778,-5.880291 2.81172,-11.984632 8.37313,-15.135578 -3.65887,-3.885782 -10.71815,-7.754598 -8.59375,-14.125 5.07906,-4.657245 3.41752,-13.471812 -2.84375,-16.25 -4.65267,-4.29509 -11.1034,-6.250835 -15.28125,-10.96875 -0.69849,-2.9778141 -1.52481,-7.62978368 -5.8125,-7.0625 -4.51619,-0.2326071 -11.91647,2.403708 -14.3125,-3 -1.55823,-3.4036545 -0.35325,-11.092658 -5.75,-10.90625 z"
         id="path532932"
         inkscape:connector-curvature="0"
         sodipodi:nodetypes="ccccsccscscssscssccccccccccccc"
         onmouseout="changeColorOut('path532932')"
         onmouseover="changeColorOver('path532932')" />
      <path
         inkscape:connector-curvature="0"
         id="path532901"
         d="m -236.98991,256.57398 c -0.50262,-3.20827 -1.33597,-5.08424 -2.2348,-6.18772 -1.76839,-2.17103 -2.99408,-2.06874 -5.51146,-1.32812 -5.27259,1.55123 -5.47851,1.43967 -9.75004,-0.56977 -2.45085,-1.27829 -5.30821,-2.54102 -7.21802,-3.23991 -3.98978,-0.98831 -5.45734,-1.01636 -9.25982,-0.82135 -1.52421,0.0782 -3.28184,0.51802 -5.02172,0.52125 -2.0124,0.004 -4.47459,1.73361 -5.32139,3.37116 -0.4324,0.83617 0.11011,3.32124 0.0597,4.75849 -0.12743,3.6361 -2.18172,4.70717 -5.47931,3.01416 -2.23111,-1.14547 -3.57592,-2.99824 -4.82592,-5.57392 -0.60918,-1.25525 -1.30316,-2.6713 -2.52934,-4.39596 -1.8686,-2.62823 -0.35769,-4.41237 2.33683,-7.32981 2.16072,-2.33947 2.59103,-3.34449 7.65072,-0.89768 2.21683,1.07204 5.06616,2.15224 5.75036,2.15123 1.7329,-0.002 3.38157,-1.35694 3.69658,-2.68878 0.14459,-0.61133 0.2685,-3.59602 0.0262,-7.21413 -0.43768,-6.53521 0.15465,-6.47725 -2.33883,-11.74501 -1.38048,-2.91641 -2.09704,-5.06979 -3.1569,-7.59996 -1.21122,-2.89148 -2.22519,-5.87602 -3.65956,-8.66355 -1.49929,-2.91368 -3.60186,-5.48581 -5.14487,-8.37657 -1.31893,-2.47096 -2.34511,-5.08741 -3.5014,-7.63852 -0.81062,-1.78847 -2.40901,-5.37572 -2.40901,-5.37572 l -0.19754,-6.51654 c -0.0857,-2.82753 0.42416,-4.36439 -0.36196,-7.84369 -1.14505,-5.06789 -1.34762,-6.34166 0.14974,-7.65635 0.87768,-0.77062 4.28966,-2.73393 6.12378,-3.33663 6.21803,-2.04329 7.9663,-4.57747 7.9663,-7.01317 0,-2.26386 2.12663,-3.26531 6.74119,-7.47812 4.74246,-4.32956 4.01033,-7.68712 5.67479,-11.6842 0.58018,-1.39325 0.87645,-3.19894 1.49725,-4.27295 0.62079,-1.07401 1.71611,-1.42307 2.6506,-1.99037 0.93449,-0.5673 1.99567,-1.12017 2.97268,-2.93064 0.23885,3.80597 1.02183,13.30511 2.18218,15.02695 1.77877,2.63951 3.37978,4.61267 8.1321,4.74904 5.25672,0.15084 8.17145,-0.40185 13.11541,-2.48695 0,0 3.13827,-2.36452 4.53721,-2.14996 1.69071,0.25931 1.53116,2.12324 2.50751,4.15611 0.97635,2.03287 1.32433,3.37028 4.47238,7.91331 -5.16445,3.54303 -10.29219,6.94438 -12.28631,16.18184 -1.26515,5.86059 -3.17612,6.05943 -2.93294,8.96002 0.32526,3.8798 1.11278,6.45416 1.51433,7.75587 -0.61491,1.56688 -1.39796,1.9809 -2.11654,2.5044 0.0327,3.13096 0.0673,3.43095 0.49094,5.13183 0.74379,2.98616 4.17072,9.53304 6.91759,12.20857 1.26297,1.23017 2.74408,4.18574 4.27739,6.51392 2.3608,3.58464 3.2397,2.4198 4.53678,3.94922 1.68393,1.98555 0.63341,3.02151 2.71924,6.18321 3.57429,5.41792 5.64145,9.59027 6.99102,15.04468 1.50328,6.0757 1.30674,8.90808 -0.48629,15.85139 -0.81789,3.16721 -1.17231,5.79926 -1.77481,7.73386 -1.51233,4.85599 -1.99921,10.33297 -3.74643,12.08019 -1.74847,1.74847 -10.06025,1.7084 -12.92076,2.10997 -0.49405,-6.23398 -0.58925,-7.03281 -1.50483,-12.86462 z"
         style="fill:#e6e6e6;fill-opacity:1;stroke:#dd66ff;stroke-width:0.48728815;stroke-opacity:0"
         sodipodi:nodetypes="cscccssssssssscsssaaaacssssssazzcsssszcssccssssssssscc"
         onmouseout="changeColorOut('path532901')"
         onmouseover="changeColorOver('path532901')" />
      <path
         style="fill:#e6e6e6;fill-opacity:1;stroke:#dd66ff;stroke-width:0.48728815;stroke-opacity:0"
         d="m -345.57956,183.04402 c 0.0516,0.3099 2.00295,3.26998 -1.32669,7.83098 -4.16436,4.74218 -7.74637,7.01455 -12.65625,8.96875 -3.88836,1.54762 -13.80044,2.40149 -13.3125,8.71875 0.40441,3.64117 2.52673,10.75016 -0.28125,13.34375 -3.21137,2.96618 -3.96048,5.55897 0.28125,9.8125 5.63787,4.80239 15.5515,6.72209 23.46792,0.0557 1.77615,-1.49569 6.26034,-1.16382 7.76646,0.91304 0.38607,0.53238 1.05032,1.26301 -1.53126,3.8125 -3.625,3.57994 -0.75031,11.53971 0.26563,15.625 1.39198,5.59741 8.06032,12.68158 6.50184,18.01501 -1.54523,5.28808 -0.88356,5.85972 -0.14277,8.64492 1.15931,4.3587 5.17243,7.65912 6.91513,11.63021 0.85103,1.93924 6.46187,7.87278 7.85508,10.47839 1.52355,2.84938 1.76856,3.61805 -2.03553,7.26272 -3.28349,3.14588 -3.38088,9.55589 1.6875,10.96875 6.46747,2.36995 10.20009,-7.81907 13.5,-11.90625 4.36429,-5.46717 10.33382,-7.86073 8.90625,-16 -0.41212,-7.52781 0.72056,-14.46954 -1.42738,-21.94297 -3.19118,-11.10325 0.70825,-24.19046 9.77113,-32.15078 3.92657,-3.83255 8.50538,0.48882 12.1875,2.0625 5.61019,-0.55588 3.01386,-8.18573 3.41963,-11.84167 -0.22649,-6.64861 -3.76077,-12.59438 -6.13838,-18.72083 -2.37339,-6.11558 -6.36587,-11.22096 -9.28125,-17.125 -1.76187,-3.56802 -3.56982,-9.2564 -5.5494,-12.91676 -2.05711,-3.80371 -6.21317,-11.50755 -7.25498,-11.71789 -2.55821,-0.5165 -4.77165,6.62841 -7.8184,9.3495 -2.30167,2.05565 -3.54739,4.49659 -6.10539,1.54902 -4.82558,-5.5605 -11.72087,-14.03948 -14.76739,-13.84062 -2.41421,0.1576 -5.49685,6.42183 -6.90268,8.59072 -1.94177,2.99574 -4.52848,7.89202 -5.99382,10.53006 z"
         id="path532922"
         inkscape:connector-curvature="0"
         sodipodi:nodetypes="ccscscsssssassscccscccssssssssc"
         onmouseout="changeColorOut('path532922')"
         onmouseover="changeColorOver('path532922')" />
      <path
         style="fill:#e6e6e6;fill-opacity:1;stroke:#dd66ff;stroke-width:0.48728815;stroke-opacity:0"
         d="m -404.96875,200.21875 c 1.59992,3.10046 6.03096,6.72546 0.65625,10.875 -4.38949,3.38891 -5.55003,6.41014 -6.6875,10.25 -0.868,2.93018 -1.22407,7.73372 -2.375,10.03125 -1.29401,2.58316 -17.6482,-2.29515 -18.03125,-1.875 -0.81983,0.89923 5.10742,11.35063 2.84375,15.28125 -1.06351,8.85401 5.05669,17.81821 3.3125,26.6875 -3.73078,2.4251 -11.33664,2.67581 -10.0625,8.875 1.63974,9.82479 13.6595,13.12421 16.6875,22.40625 3.1108,8.64595 10.44356,14.71708 16.1875,21.6875 6.81638,7.64694 17.24297,9.20356 25.58193,14.57221 6.96358,3.08282 13.70078,7.25801 20.51182,10.24029 5.18828,0.69469 5.38447,-6.24671 10.0625,-6.5625 4.99615,-1.40642 12.38354,-1.43792 13.53125,-7.9375 3.64261,-7.65276 2.82463,-16.93586 6.70175,-24.3125 1.84598,-3.51218 5.1076,-4.02053 4.41957,-8.08227 -0.52023,-3.07117 -7.45427,-8.65847 -9.01685,-11.94454 -3.10293,-6.52541 -9.27635,-11.46585 -6.54473,-18.91973 2.36326,-6.44874 -4.48468,-13.61768 -6.15349,-19.39721 -1.86371,-6.45451 -4.22973,-11.59057 0.78125,-16.9375 3.19117,-3.40512 -4.14622,-5.2238 -6.75,-3.0625 -4.25337,3.53057 -10.73822,5.68946 -16.78125,3.53125 -4.82427,-1.72294 -11.52425,-4.84214 -10.09375,-10.03125 1.12896,-4.09529 4.92856,-3.35048 1.375,-5.84375 -6.71424,-4.71088 -12.2677,-12.55963 -19.88036,-15.9205 -3.33921,-1.4742 -6.64705,-3.12014 -10.27589,-3.61075 z"
         id="path532928"
         inkscape:connector-curvature="0"
         sodipodi:nodetypes="csssscccccccccsssssssssssc"
         onmouseout="changeColorOut('path532928')"
         onmouseover="changeColorOver('path532928')" />
      <path
         style="fill:#e6e6e6;fill-opacity:1;stroke:#dd66ff;stroke-width:0.48728815;stroke-opacity:0"
         d="m -265.42586,245.20098 c -4.71635,-0.1572 -15.27059,-1.3877 -15.07499,5.15861 0.11261,3.76872 -0.0259,8.52771 -4.78516,7.1547 -5.45219,-1.57291 -6.40959,-6.31731 -9.3586,-11.15706 -2.36887,-3.88765 -4.90524,4.61528 -5.7664,7.54772 -1.15572,3.93548 -1.8493,5.18171 -1.15617,10.80785 0.61564,4.99723 1.79668,2.84969 2.77592,17.55108 0.52111,7.82346 2.39872,14.36295 -3.63697,19.34616 -4.57638,4.36465 -10.99167,11.8988 -6.24763,18.55969 2.75087,5.84635 5.36488,13.16664 11.5625,16.03125 4.05683,-0.98092 7.99116,1.95544 7.46875,6.25 0.80398,4.99244 -2.4169,9.12822 -5.21875,12.59375 -0.61092,5.06986 2.74286,9.8696 3.8125,14.4375 4.0208,0.68491 6.19091,-4.95781 10.28125,-5.15625 7.17962,-1.72254 16.13162,-1.39935 22.1875,3.15625 1.55488,1.5918 1.23971,7.25374 4.34375,4.125 5.08671,-3.06274 7.09382,-11.03496 10.11163,-14.88749 3.4159,-4.36074 7.88407,-7.0934 11.35704,-11.37108 3.63568,-4.47808 11.89381,-6.96111 13.37656,-12.11717 1.66599,-5.79324 0.0246,-9.91513 -2.07864,-15.81176 -3.06269,-8.58641 -3.20667,-18.86119 -10.4549,-24.99608 -7.5451,-6.38616 -1.25816,-36.69972 -8.71484,-42.56014 -3.08661,-2.42586 -7.53368,2.45391 -12.09375,0.15625 -6.61412,-3.33264 -8.66196,-4.6845 -12.6906,-4.81878 z"
         id="path532927"
         inkscape:connector-curvature="0"
         sodipodi:nodetypes="ssssssscccccccccssssssss"
         onmouseout="changeColorOut('path532927')"
         onmouseover="changeColorOver('path532927')" />
      <path
         inkscape:connector-curvature="0"
         id="path532925"
         d="m -160.3633,406.4666 c -5.23747,-2.2343 -6.16528,-3.45257 -4.64408,-6.0979 0.85746,-1.49111 -0.73139,-0.27796 -1.69373,-1.86975 -0.54379,-0.89948 -1.89318,-2.91334 -2.82242,-3.94661 -2.34888,-2.61183 -1.76807,-5.20853 -1.46151,-8.1787 0.46146,-4.47117 -0.0806,-5.25204 -5.3401,-3.75183 -11.39946,3.25156 -3.41895,-3.30323 0.56224,-7.25438 1.16126,-1.1525 2.42291,-3.96446 2.28031,-5.59433 -0.44674,-5.10637 -0.80969,-7.44315 -1.41718,-10.73108 -0.48738,-2.63789 -0.16479,-4.34235 -1.34568,-7.51444 -0.973,-2.61367 -1.30034,-4.21697 -3.04493,-5.95199 -1.88814,-1.87779 -2.54471,-2.99966 -8.84525,-4.34096 -2.80386,-0.59689 -4.01861,-1.35655 -5.7994,-2.15815 -1.47103,-0.66217 -5.01236,-3.0367 -8.09445,-5.09345 -3.0821,-2.05674 -10.47866,-6.57234 -11.4098,-6.75197 -1.65223,-0.31874 -2.50959,0.44583 -4.66681,1.72462 -0.26097,-2.13958 -0.81793,-7.99033 -1.45074,-9.11143 -0.63282,-1.1211 -1.84211,-4.92347 -2.59805,-7.43881 -0.87488,-2.91113 -1.37249,-5.13797 -2.23737,-8.84055 -0.86488,-3.70257 -2.14897,-5.90435 -5.1973,-9.58367 -2.9942,-3.61397 -4.80473,-5.55712 -5.45077,-14.25172 -0.33711,-4.53693 -0.64431,-5.40497 -0.63033,-9.252 1.78113,-0.78852 3.88102,-0.54261 6.84351,-0.81262 2.26138,-0.20611 5.99094,-1.18272 6.50805,-1.50566 1.72185,-1.07531 3.15695,-6.89029 4.01461,-12.28643 0.95151,-4.46129 2.40933,-9.15352 3.37187,-12.57971 1.02019,2.30379 1.24193,5.50831 2.51522,7.18517 1.84805,2.43379 3.87355,7.04256 5.85741,12.5453 2.47738,6.87166 4.82541,11.22401 7.49587,13.89446 2.72482,2.72482 3.59609,2.89759 9.65505,1.91451 5.63477,-0.91425 8.03159,1.53144 6.05859,6.22572 -3.19125,7.59282 -2.46249,9.99395 3.60521,13.07006 3.16626,1.60518 3.51258,1.12747 6.94155,3.42664 2.94688,1.97593 5.51468,3.30519 7.06567,3.65762 6.05612,1.37617 6.57549,1.58281 8.29167,3.29899 0.96963,0.96962 2.76299,3.41115 3.98524,5.42561 1.22225,2.01446 3.51646,3.30204 4.01833,3.9412 1.21524,1.54769 0.30042,2.7023 -1.67659,7.76171 -1.89355,4.84582 -2.06333,6.48467 -0.94817,9.15231 0.45954,1.0993 1.04421,5.35644 1.48687,10.82651 0.40125,4.95816 0.92282,9.87524 1.15905,10.92686 l 0.42951,1.91202 -4.07481,3.95727 c -2.24114,2.17651 -4.22076,4.53882 -4.39915,5.2496 -0.46281,1.84396 0.58439,4.58487 2.83491,7.42005 3.92954,4.9504 4.13456,6.96078 1.07535,10.54474 -2.72534,3.19281 -2.91461,5.02013 -1.1806,11.39836 0.75288,2.76935 0.84116,3.93942 0.46925,6.21998 -0.78361,4.80514 -1.49595,5.18127 -6.09612,3.21883 z"
         style="fill:#e6e6e6;fill-opacity:1;stroke:#dd66ff;stroke-width:0.48728815;stroke-opacity:0"
         sodipodi:nodetypes="cssssssssssssssczazsscssccssssssssssssssscssssssc"
         onmouseout="changeColorOut('path532925')"
         onmouseover="changeColorOver('path532925')" />
      <path
         style="fill:#e6e6e6;fill-opacity:1;stroke:#dd66ff;stroke-width:0.48728815;stroke-opacity:0"
         d="m -215.0707,327.709 c -5.92508,3.13075 -0.98245,7.0222 -9.22222,11.93092 -5.00073,2.97911 -5.65364,3.51344 -10.39229,8.58282 -3.25673,3.48404 -8.27591,8.1402 -11.12884,12.94836 -3.48229,5.86884 -6.03682,11.57708 -11.0922,15.67265 -6.17732,8.99884 -8.93023,22.10407 -12.3125,32.40625 0.0228,9.94414 -11.56702,15.86062 -9.71875,26.09375 2.11569,4.4952 7.16998,0.14318 8.21875,-2.96875 2.31616,-5.90156 7.28576,-11.00564 14,-10.78125 8.72765,-0.47903 17.62584,-7.43958 26.0625,-2.09375 5.98221,2.63157 12.9448,8.84161 19.6875,4.4375 3.57505,-2.47723 8.65313,-4.76444 11.96875,-0.53125 8.15682,5.57079 20.44823,1.61691 23.53125,-7.84375 2.16989,-3.03495 0.85435,-9.7959 3.56465,-12.02585 2.8548,-2.34884 6.39655,-5.09421 2.00022,-8.57975 -4.71773,-3.74036 1.18573,-13.70286 -3.5037,-12.76118 -1.97316,0.39623 -12.1965,4.01413 -8.61678,-1.21016 2.89477,-4.22468 9.20527,-6.32167 7.82242,-12.60345 -0.96857,-7.04815 -1.16148,-14.88554 -4.51681,-21.22586 -4.26786,-6.16534 -9.9984,-3.72956 -16.51014,-8.12737 -6.51837,-4.40228 -11.62223,-7.78129 -17.23831,-10.88903 -0.64391,-0.27713 -1.99198,-0.75397 -2.6035,-0.43085 z"
         id="path532926"
         inkscape:connector-curvature="0"
         sodipodi:nodetypes="sssscccccccccssssccscs"
         onmouseout="changeColorOut('path532926')"
         onmouseover="changeColorOver('path532926')" />
      <path
         style="fill:#e6e6e6;fill-opacity:1;stroke:#dd66ff;stroke-width:0.48728815;stroke-opacity:0"
         d="m -160.50965,169.86076 c -1.18771,0.41712 -2.37923,6.11036 -2.93359,9.85669 -0.63787,4.3107 -1.06134,9.42733 1.91199,13.65755 2.53071,3.6005 3.37331,10.33987 0.14438,13.47633 -4.55755,4.42703 -2.17303,12.29801 -6.54251,17.26831 -4.96496,5.74673 -7.47583,10.25287 -13.13312,15.13036 -3.24063,2.79394 -7.75887,2.09645 -9.53125,-1.8125 -2.97183,-6.55431 -13.9163,-6.81066 -19.125,-3.60577 -5.69221,4.22819 -5.7195,12.67166 -1.09283,18.47947 3.08707,3.87517 3.86031,8.46272 5.50536,11.94582 2.59175,5.48757 6.41845,16.35312 14.0195,14.25857 3.76032,-1.03619 8.08287,-1.80076 9.03908,3.22421 0.88253,4.63776 -5.67618,11.14627 0.26094,14.20391 3.63025,1.86959 6.29924,2.99251 10.625,6.03125 5.72657,4.02276 13.89476,1.86625 16.98906,9.58126 1.72945,4.31202 8.2999,9.96944 13.49764,5.94378 4.41059,-3.30535 5.60335,-9.28208 5.03125,-14.21875 6.73417,1.01038 11.93141,7.71998 19.1875,4.9375 3.55872,-0.31311 11.0995,-0.93037 9.34375,-6.28125 -1.81384,-4.14799 -5.70525,-11.12319 -1.15625,-14.65625 4.95386,-0.91648 12.304893,-2.74416 12.03125,-9.15625 -0.299726,-8.91004 -13.46249,-9.06489 -14.5625,-17.6875 -2.0015,-7.1548 -4.04683,-16.1025 -0.78125,-22.84375 2.01368,-2.96466 8.32833,-0.7881 7.5625,-5.625 -1.34079,-4.96617 1.17707,-11.62163 -2.59375,-15.59375 -3.56112,-1.72663 -9.14792,-2.80683 -8.25,-8.125 1.67815,-5.5361 7.45777,-11.63 2.1875,-17.0625 -1.87439,-8.32279 -11.30449,-13.56923 -19.125,-11.36152 -3.68966,1.04159 -7.98452,5.99492 -10.46523,3.14775 -3.70597,-4.25343 -4.3802,-12.22991 -6.77566,-12.892 -3.45568,-0.95514 -10.46204,-0.50429 -11.26876,-0.22097 z"
         id="path532923"
         inkscape:connector-curvature="0"
         sodipodi:nodetypes="sssscsscsssssssccccccccccccssss"
         onmouseout="changeColorOut('path532923')"
         onmouseover="changeColorOver('path532923')" />
      <path
         inkscape:connector-curvature="0"
         id="path532924"
         d="m -191.68905,235.09346 c -1.15204,-1.29073 -1.67243,-1.95021 -3.37211,-2.80725 -1.69967,-0.85704 -4.07999,-0.80551 -6.72353,-0.80885 -2.64353,-0.003 -6.31176,0.39139 -8.88139,2.55359 -1.2157,1.02294 -2.71845,4.37692 -3.97501,5.62034 -0.23114,-2.10868 -1.33355,-10.33189 -3.43674,-14.39287 -0.99482,-1.92087 -2.18404,-4.51953 -2.79649,-5.36017 -0.61282,-0.84063 -3.02007,-4.55774 -3.51551,-6.15306 -1.23691,-3.98282 -0.71986,-3.09971 -3.87784,-5.04283 -1.76889,-1.08841 -2.76906,-3.12412 -3.66777,-5.03373 -0.65505,-1.39187 -2.64709,-3.78996 -4.15669,-5.49114 -3.4695,-3.90979 -4.41904,-7.0204 -5.29357,-9.67268 -0.87454,-2.65228 -0.84369,-3.23956 -0.87152,-5.73911 3.34828,-2.29351 1.46427,-3.72222 1.19303,-5.82401 -0.90097,-6.98136 -0.42052,-5.15478 2.1668,-12.66484 2.26938,-6.5872 2.20995,-9.76151 12.2374,-16.81828 1.79308,1.17761 3.63541,2.27648 5.91657,3.11997 0.80492,0.29763 2.5535,0.78066 3.30776,1.10543 1.92773,0.83003 5.58653,2.68902 7.40265,3.20653 1.58722,0.45228 3.55477,-0.0273 4.90499,-1.11186 1.72866,-1.54613 1.92583,-5.80267 2.43217,-8.22324 0.8185,-2.42657 2.76339,-2.56518 6.5218,-4.56839 2.53082,-1.34891 3.18917,-1.51774 4.17213,-1.06987 1.81828,0.82846 5.38205,4.32095 6.04684,5.92588 0.33025,0.7973 0.67108,1.44963 0.75741,1.44963 0.0863,0 3.28258,-0.76748 7.10279,-1.70551 3.82021,-0.93803 7.87337,-1.70551 9.00703,-1.70551 1.6668,0 2.26399,-0.25641 3.121,-1.34004 1.37865,-1.7432 1.10541,-4.36015 -1.00712,-9.64535 -1.40597,-3.51752 -1.52263,-4.20519 -1.25855,-7.4184 0.3095,-3.76581 1.41211,-6.50853 3.30016,-8.20905 1.48753,-1.33978 9.42435,-6.6169 11.62051,-7.72637 0.93803,-0.47387 3.5871,-2.69068 5.88682,-4.92622 4.33449,-4.21354 5.76854,-5.080065 8.39808,-5.074525 1.25144,0.003 2.10145,0.565735 4.38954,2.907875 3.26353,3.3406 8.37935,6.1534 12.08586,6.64508 1.47886,0.19618 2.57551,0.62772 2.83705,1.11641 0.90186,1.68514 0.51889,7.46594 -0.72262,10.90769 -1.71805,4.76283 -1.61854,5.39349 1.2939,8.2006 2.99007,2.88194 2.98122,3.54147 -0.11759,8.75752 -1.47846,2.48863 -2.02292,3.936 -2.02292,5.3777 0,2.37963 0.89125,3.33735 4.25406,4.57132 1.32862,0.48753 2.9461,1.41685 3.5944,2.06516 1.08128,1.08128 1.1597,1.46754 0.94852,4.67216 -0.18484,2.80491 -0.59691,4.21374 -2.09075,7.1481 -1.0233,2.01006 -2.20826,4.5677 -2.63325,5.68363 -0.64118,1.68361 -1.72655,2.74293 -6.37652,6.22349 -7.69675,5.7611 -15.24075,9.46391 -17.3756,9.57174 -1.82539,0.0922 -3.77103,-4.65122 -4.64434,-7.0175 -0.90495,-2.45201 -1.13322,-5.73632 -4.07168,-6.73755 -2.55865,-0.87181 -9.12755,-1.04087 -10.57268,-0.26746 -1.71558,0.91814 -3.06355,3.23656 -3.72411,9.84806 -0.55589,5.56378 -0.43542,6.28832 -0.27139,9.2901 0.12006,2.19715 3.51903,6.05362 4.10368,8.73747 0.58465,2.68385 0.7813,3.46297 0.54972,5.50143 -0.12213,1.07492 -1.07271,2.48241 -2.2039,4.04014 -1.06073,1.46071 -1.85858,0.90776 -3.11409,7.22328 -1.3552,6.817 -2.00064,8.88434 -5.98588,13.07332 -1.8166,1.90947 -4.58099,5.65827 -6.14309,7.62846 -2.4192,3.0512 -7.00267,6.01334 -8.22647,5.96529 -3.40173,-0.13355 -5.33876,-4.36814 -6.42195,-5.58173 z"
         style="fill:#e6e6e6;fill-opacity:1;stroke:#dd66ff;stroke-width:0.48728815;stroke-opacity:0"
         sodipodi:nodetypes="szsscssssssscsscsssccsssssssssssscssssssssssssssssssscsssssss"
         onmouseout="changeColorOut('path532924')"
         onmouseover="changeColorOver('path532924')" />
    </g>
    <path
       sodipodi:type="arc"
       style="fill:#d40000;fill-opacity:1;stroke:#dd66ff;stroke-opacity:0"
       id="D532931"
       sodipodi:cx="314.82144"
       sodipodi:cy="114.75"
       sodipodi:rx="3.0357144"
       sodipodi:ry="3.0357144"
       d="m 317.85716,114.75 c 0,1.67658 -1.35914,3.03571 -3.03572,3.03571 -1.67658,0 -3.03571,-1.35913 -3.03571,-3.03571 0,-1.67658 1.35913,-3.03571 3.03571,-3.03571 1.67658,0 3.03572,1.35913 3.03572,3.03571 z"
       transform="matrix(0.79797983,0,0,0.79797981,-89.681077,-59.29693)" />
    <text
       xml:space="preserve"
       style="font-size:40px;font-style:normal;font-weight:normal;line-height:125%;letter-spacing:0px;word-spacing:0px;fill:#000000;fill-opacity:1;stroke:none;font-family:Sans"
       x="166.68694"
       y="34.20546"
       id="text532931"
       sodipodi:linespacing="125%"><tspan
         sodipodi:role="line"
         id="tspan5565"
         x="166.68694"
         y="34.20546"
         style="font-size:12px;fill:#666666">剑川</tspan></text>
    <path
       sodipodi:type="arc"
       style="fill:#d40000;fill-opacity:1;stroke:#dd66ff;stroke-opacity:0"
       id="D532932"
       sodipodi:cx="314.82144"
       sodipodi:cy="114.75"
       sodipodi:rx="3.0357144"
       sodipodi:ry="3.0357144"
       d="m 317.85716,114.75 c 0,1.67658 -1.35914,3.03571 -3.03572,3.03571 -1.67658,0 -3.03571,-1.35913 -3.03571,-3.03571 0,-1.67658 1.35913,-3.03571 3.03571,-3.03571 1.67658,0 3.03572,1.35913 3.03572,3.03571 z"
       transform="matrix(0.79797983,0,0,0.79797981,3.191083,5.4902482)" />
    <text
       xml:space="preserve"
       style="font-size:40px;font-style:normal;font-weight:normal;line-height:125%;letter-spacing:0px;word-spacing:0px;fill:#000000;fill-opacity:1;stroke:none;font-family:Sans"
       x="260.87219"
       y="103.38631"
       id="text532932"
       sodipodi:linespacing="125%"><tspan
         sodipodi:role="line"
         id="tspan5565-1"
         x="260.87219"
         y="103.38631"
         style="font-size:12px;fill:#666666">鹤庆</tspan></text>
    <path
       sodipodi:type="arc"
       style="fill:#d40000;fill-opacity:1;stroke:#dd66ff;stroke-opacity:0"
       id="D532930"
       sodipodi:cx="314.82144"
       sodipodi:cy="114.75"
       sodipodi:rx="3.0357144"
       sodipodi:ry="3.0357144"
       d="m 317.85716,114.75 c 0,1.67658 -1.35914,3.03571 -3.03572,3.03571 -1.67658,0 -3.03571,-1.35913 -3.03571,-3.03571 0,-1.67658 1.35913,-3.03571 3.03571,-3.03571 1.67658,0 3.03572,1.35913 3.03572,3.03571 z"
       transform="matrix(0.79797983,0,0,0.79797981,-44.185058,45.667056)" />
    <text
       xml:space="preserve"
       style="font-size:40px;font-style:normal;font-weight:normal;line-height:125%;letter-spacing:0px;word-spacing:0px;fill:#000000;fill-opacity:1;stroke:none;font-family:Sans"
       x="176.01939"
       y="142.856"
       id="text532930"
       sodipodi:linespacing="125%"><tspan
         sodipodi:role="line"
         id="tspan5565-1-2"
         x="176.01939"
         y="142.856"
         style="font-size:12px;fill:#666666">洱源</tspan></text>
    <path
       sodipodi:type="arc"
       style="fill:#d40000;fill-opacity:1;stroke:#dd66ff;stroke-opacity:0"
       id="D532924"
       sodipodi:cx="314.82144"
       sodipodi:cy="114.75"
       sodipodi:rx="3.0357144"
       sodipodi:ry="3.0357144"
       d="m 317.85716,114.75 c 0,1.67658 -1.35914,3.03571 -3.03572,3.03571 -1.67658,0 -3.03571,-1.35913 -3.03571,-3.03571 0,-1.67658 1.35913,-3.03571 3.03571,-3.03571 1.67658,0 3.03572,1.35913 3.03572,3.03571 z"
       transform="matrix(0.79797983,0,0,0.79797981,111.37234,81.886356)" />
    <text
       xml:space="preserve"
       style="font-size:40px;font-style:normal;font-weight:normal;line-height:125%;letter-spacing:0px;word-spacing:0px;fill:#000000;fill-opacity:1;stroke:none;font-family:Sans"
       x="329.30344"
       y="179.78241"
       id="text532924"
       sodipodi:linespacing="125%"><tspan
         sodipodi:role="line"
         id="tspan5565-1-6"
         x="329.30344"
         y="179.78241"
         style="font-size:12px;fill:#666666">宾川</tspan></text>
    <path
       sodipodi:type="arc"
       style="fill:#d40000;fill-opacity:1;stroke:#dd66ff;stroke-opacity:0"
       id="D532923"
       sodipodi:cx="314.82144"
       sodipodi:cy="114.75"
       sodipodi:rx="3.0357144"
       sodipodi:ry="3.0357144"
       d="m 317.85716,114.75 c 0,1.67658 -1.35914,3.03571 -3.03572,3.03571 -1.67658,0 -3.03571,-1.35913 -3.03571,-3.03571 0,-1.67658 1.35913,-3.03571 3.03571,-3.03571 1.67658,0 3.03572,1.35913 3.03572,3.03571 z"
       transform="matrix(0.79797983,0,0,0.79797981,122.18235,172.68238)" />
    <text
       xml:space="preserve"
       style="font-size:40px;font-style:normal;font-weight:normal;line-height:125%;letter-spacing:0px;word-spacing:0px;fill:#000000;fill-opacity:1;stroke:none;font-family:Sans"
       x="342.11343"
       y="267.82843"
       id="text532923"
       sodipodi:linespacing="125%"><tspan
         sodipodi:role="line"
         id="tspan5565-1-6-8"
         x="342.11343"
         y="267.82843"
         style="font-size:12px;fill:#666666">祥云</tspan></text>
    <path
       sodipodi:type="arc"
       style="fill:#d40000;fill-opacity:1;stroke:#dd66ff;stroke-opacity:0"
       id="D532922"
       sodipodi:cx="314.82144"
       sodipodi:cy="114.75"
       sodipodi:rx="3.0357144"
       sodipodi:ry="3.0357144"
       d="m 317.85716,114.75 c 0,1.67658 -1.35914,3.03571 -3.03572,3.03571 -1.67658,0 -3.03571,-1.35913 -3.03571,-3.03571 0,-1.67658 1.35913,-3.03571 3.03571,-3.03571 1.67658,0 3.03572,1.35913 3.03572,3.03571 z"
       transform="matrix(0.79797983,0,0,0.79797981,-58.817652,129.18238)" />
    <text
       xml:space="preserve"
       style="font-size:40px;font-style:normal;font-weight:normal;line-height:125%;letter-spacing:0px;word-spacing:0px;fill:#000000;fill-opacity:1;stroke:none;font-family:Sans"
       x="197.36345"
       y="223.07843"
       id="text532922"
       sodipodi:linespacing="125%"><tspan
         sodipodi:role="line"
         id="tspan5565-1-6-6"
         x="197.36345"
         y="223.07843"
         style="font-size:12px;fill:#666666">漾濞</tspan></text>
    <path
       sodipodi:type="arc"
       style="fill:#d40000;fill-opacity:1;stroke:#dd66ff;stroke-opacity:0"
       id="D532929"
       sodipodi:cx="314.82144"
       sodipodi:cy="114.75"
       sodipodi:rx="3.0357144"
       sodipodi:ry="3.0357144"
       d="m 317.85716,114.75 c 0,1.67658 -1.35914,3.03571 -3.03572,3.03571 -1.67658,0 -3.03571,-1.35913 -3.03571,-3.03571 0,-1.67658 1.35913,-3.03571 3.03571,-3.03571 1.67658,0 3.03572,1.35913 3.03572,3.03571 z"
       transform="matrix(0.79797983,0,0,0.79797981,-162.93715,77.271962)" />
    <text
       xml:space="preserve"
       style="font-size:40px;font-style:normal;font-weight:normal;line-height:125%;letter-spacing:0px;word-spacing:0px;fill:#000000;fill-opacity:1;stroke:none;font-family:Sans"
       x="92.493958"
       y="173.41801"
       id="text532929"
       sodipodi:linespacing="125%"><tspan
         sodipodi:role="line"
         id="tspan5565-1-9"
         x="92.493958"
         y="173.41801"
         style="font-size:12px;fill:#666666">云龙</tspan></text>
    <path
       sodipodi:type="arc"
       style="fill:#d40000;fill-opacity:1;stroke:#dd66ff;stroke-opacity:0"
       id="D532928"
       sodipodi:cx="314.82144"
       sodipodi:cy="114.75"
       sodipodi:rx="3.0357144"
       sodipodi:ry="3.0357144"
       d="m 317.85716,114.75 c 0,1.67658 -1.35914,3.03571 -3.03572,3.03571 -1.67658,0 -3.03571,-1.35913 -3.03571,-3.03571 0,-1.67658 1.35913,-3.03571 3.03571,-3.03571 1.67658,0 3.03572,1.35913 3.03572,3.03571 z"
       transform="matrix(0.79797983,0,0,0.79797981,-115.18715,197.77196)" />
    <text
       xml:space="preserve"
       style="font-size:40px;font-style:normal;font-weight:normal;line-height:125%;letter-spacing:0px;word-spacing:0px;fill:#000000;fill-opacity:1;stroke:none;font-family:Sans"
       x="105.24396"
       y="292.66803"
       id="text532928"
       sodipodi:linespacing="125%"><tspan
         sodipodi:role="line"
         id="tspan5565-1-8"
         x="105.24396"
         y="292.66803"
         style="font-size:12px;fill:#666666">永平</tspan></text>
    <path
       sodipodi:type="arc"
       style="fill:#d40000;fill-opacity:1;stroke:#dd66ff;stroke-opacity:0"
       id="D532927"
       sodipodi:cx="314.82144"
       sodipodi:cy="114.75"
       sodipodi:rx="3.0357144"
       sodipodi:ry="3.0357144"
       d="m 317.85716,114.75 c 0,1.67658 -1.35914,3.03571 -3.03572,3.03571 -1.67658,0 -3.03571,-1.35913 -3.03571,-3.03571 0,-1.67658 1.35913,-3.03571 3.03571,-3.03571 1.67658,0 3.03572,1.35913 3.03572,3.03571 z"
       transform="matrix(0.79797983,0,0,0.79797981,2.312849,244.02196)" />
    <text
       xml:space="preserve"
       style="font-size:40px;font-style:normal;font-weight:normal;line-height:125%;letter-spacing:0px;word-spacing:0px;fill:#000000;fill-opacity:1;stroke:none;font-family:Sans"
       x="240.74396"
       y="327.41803"
       id="text532927"
       sodipodi:linespacing="125%"><tspan
         sodipodi:role="line"
         id="tspan5565-1-7"
         x="240.74396"
         y="327.41803"
         style="font-size:12px;fill:#666666">巍山</tspan></text>
    <path
       sodipodi:type="arc"
       style="fill:#d40000;fill-opacity:1;stroke:#dd66ff;stroke-opacity:0"
       id="D532925"
       sodipodi:cx="314.82144"
       sodipodi:cy="114.75"
       sodipodi:rx="3.0357144"
       sodipodi:ry="3.0357144"
       d="m 317.85716,114.75 c 0,1.67658 -1.35914,3.03571 -3.03572,3.03571 -1.67658,0 -3.03571,-1.35913 -3.03571,-3.03571 0,-1.67658 1.35913,-3.03571 3.03571,-3.03571 1.67658,0 3.03572,1.35913 3.03572,3.03571 z"
       transform="matrix(0.79797983,0,0,0.79797981,101.56285,249.52196)" />
    <text
       xml:space="preserve"
       style="font-size:40px;font-style:normal;font-weight:normal;line-height:125%;letter-spacing:0px;word-spacing:0px;fill:#000000;fill-opacity:1;stroke:none;font-family:Sans"
       x="322.13199"
       y="345.39551"
       id="text532925"
       sodipodi:linespacing="125%"><tspan
         sodipodi:role="line"
         id="tspan5565-1-78"
         x="322.13199"
         y="345.39551"
         style="font-size:12px;fill:#666666">弥渡</tspan></text>
    <path
       sodipodi:type="arc"
       style="fill:#d40000;fill-opacity:1;stroke:#dd66ff;stroke-opacity:0"
       id="D532926"
       sodipodi:cx="314.82144"
       sodipodi:cy="114.75"
       sodipodi:rx="3.0357144"
       sodipodi:ry="3.0357144"
       d="m 317.85716,114.75 c 0,1.67658 -1.35914,3.03571 -3.03572,3.03571 -1.67658,0 -3.03571,-1.35913 -3.03571,-3.03571 0,-1.67658 1.35913,-3.03571 3.03571,-3.03571 1.67658,0 3.03572,1.35913 3.03572,3.03571 z"
       transform="matrix(0.79797983,0,0,0.79797981,67.562849,283.52196)" />
    <text
       xml:space="preserve"
       style="font-size:40px;font-style:normal;font-weight:normal;line-height:125%;letter-spacing:0px;word-spacing:0px;fill:#000000;fill-opacity:1;stroke:none;font-family:Sans"
       x="287.24396"
       y="377.41803"
       id="text532926"
       sodipodi:linespacing="125%"><tspan
         sodipodi:role="line"
         id="tspan5565-1-25"
         x="287.24396"
         y="377.41803"
         style="font-size:12px;fill:#666666">南涧</tspan></text>
    <path
       sodipodi:type="arc"
       style="fill:#d40000;fill-opacity:1;stroke:#dd66ff;stroke-opacity:0"
       id="D532901"
       sodipodi:cx="314.82144"
       sodipodi:cy="114.75"
       sodipodi:rx="3.0357144"
       sodipodi:ry="3.0357144"
       d="m 317.85716,114.75 c 0,1.67658 -1.35914,3.03571 -3.03572,3.03571 -1.67658,0 -3.03571,-1.35913 -3.03571,-3.03571 0,-1.67658 1.35913,-3.03571 3.03571,-3.03571 1.67658,0 3.03572,1.35913 3.03572,3.03571 z"
       transform="matrix(0.79797983,0,0,0.79797981,2.1594549,130.54765)" />
    <text
       xml:space="preserve"
       style="font-size:40px;font-style:normal;font-weight:normal;line-height:125%;letter-spacing:0px;word-spacing:0px;fill:#000000;fill-opacity:1;stroke:none;font-family:Sans"
       x="258.9794"
       y="223.47678"
       id="text532901"
       sodipodi:linespacing="125%"><tspan
         sodipodi:role="line"
         id="tspan5565-1-6-2"
         x="258.9794"
         y="223.47678"
         style="font-size:12px;fill:#666666">大理</tspan></text>
    <g
       transform="matrix(0.98695514,0,0,1.0304851,321.64451,-633.41254)"
       id="g532922">
      <text
         id="text532922-lc"
         x="-122.67094"
         y="849.59302"
         style="font-size:12px;fill:#ffffff;filter:url(#green);font-family:Sans">22</text>
    </g>
    <g
       transform="matrix(0.98695514,0,0,1.0304851,452.17667,-547.05755)"
       id="g532925">
      <text
         id="text532925-lc"
         x="-122.67094"
         y="849.59302"
         style="font-size:12px;fill:#ffffff;filter:url(#green);font-family:Sans">22</text>
    </g>
    <g
       transform="matrix(0.98695514,0,0,1.0304851,366.85261,-564.51609)"
       id="g532927">
      <text
         id="text532927-lc"
         x="-122.67094"
         y="849.59302"
         style="font-size:12px;fill:#ffffff;filter:url(#green);font-family:Sans">22</text>
    </g>
    <g
       transform="matrix(0.98695514,0,0,1.0304851,238.14053,-600.82473)"
       id="g532928">
      <text
         id="text532928-lc"
         x="-122.67094"
         y="849.59302"
         style="font-size:12px;fill:#ffffff;filter:url(#green);font-family:Sans">22</text>
    </g>
    <g
       transform="matrix(0.98695514,0,0,1.0304851,420.20751,-478.33702)"
       id="g532926">
      <text
         id="text532926-lc"
         x="-122.67094"
         y="849.59302"
         style="font-size:12px;fill:#ffffff;filter:url(#green);font-family:Sans">22</text>
    </g>
    <g
       transform="matrix(0.98695514,0,0,1.0304851,474.29795,-625.97119)"
       id="g532923">
      <text
         id="text532923-lc"
         x="-122.67094"
         y="849.59302"
         style="font-size:12px;fill:#ffffff;filter:url(#green);font-family:Sans">22</text>
    </g>
    <g
       transform="matrix(0.98695514,0,0,1.0304851,215.37157,-719.36952)"
       id="g532929">
      <text
         id="text532929-lc"
         x="-122.67094"
         y="849.59302"
         style="font-size:12px;fill:#ffffff;filter:url(#green);font-family:Sans">22</text>
    </g>
    <g
       transform="matrix(0.98695514,0,0,1.0304851,307.37157,-749.86952)"
       id="g532930">
      <text
         id="text532930-lc"
         x="-122.67094"
         y="849.59302"
         style="font-size:12px;fill:#ffffff;filter:url(#green);font-family:Sans">22</text>
    </g>
    <g
       transform="matrix(0.98695514,0,0,1.0304851,290.18022,-822.48504)"
       id="g532931">
      <text
         id="text532931-lc"
         x="-122.67094"
         y="849.59302"
         style="font-size:12px;fill:#ffffff;filter:url(#green);font-family:Sans">22</text>
    </g>
    <g
       transform="matrix(0.98695514,0,0,1.0304851,381.75783,-789.10056)"
       id="g532932">
      <text
         id="text532932-lc"
         x="-122.67094"
         y="849.59302"
         style="font-size:12px;fill:#ffffff;filter:url(#green);font-family:Sans">22</text>
    </g>
    <g
       transform="matrix(0.98695514,0,0,1.0304851,459.56647,-714.71608)"
       id="g532924">
      <text
         id="text532924-lc"
         x="-122.67094"
         y="849.59302"
         style="font-size:12px;fill:#ffffff;filter:url(#green);font-family:Sans">22</text>
    </g>
    <g
       transform="matrix(0.98695514,0,0,1.0304851,382.85366,-633.11802)"
       id="g532901">
      <text
         id="text532901-lc"
         x="-122.67094"
         y="849.59302"
         style="font-size:12px;fill:#ffffff;filter:url(#green);font-family:Sans">22</text>
    </g>
  </g>
</svg>
