<?xml version="1.0" encoding="UTF-8" standalone="no"?>
<!-- Created with Inkscape (http://www.inkscape.org/) -->

<svg
   xmlns:dc="http://purl.org/dc/elements/1.1/"
   xmlns:cc="http://creativecommons.org/ns#"
   xmlns:rdf="http://www.w3.org/1999/02/22-rdf-syntax-ns#"
   xmlns:svg="http://www.w3.org/2000/svg"
   xmlns="http://www.w3.org/2000/svg"
   xmlns:sodipodi="http://sodipodi.sourceforge.net/DTD/sodipodi-0.dtd"
   xmlns:inkscape="http://www.inkscape.org/namespaces/inkscape"
   id="svg17971"
   version="1.1"
   inkscape:version="0.48.5 r10040"
   width="100%"
   height="100%"
   viewBox="0 0 460 460"
   sodipodi:docname="5331-1.svg">
  <metadata
     id="metadata17977">
    <rdf:RDF>
      <cc:Work
         rdf:about="">
        <dc:format>image/svg+xml</dc:format>
        <dc:type
           rdf:resource="http://purl.org/dc/dcmitype/StillImage" />
        <dc:title></dc:title>
      </cc:Work>
    </rdf:RDF>
  </metadata>
  <defs
     id="defs17975" />
  <filter
     x="-0.1"
     y="0"
     width="1.2"
     height="1"
     id="green">
    <feFlood
       flood-color="#008000"
       id="feFlood6"
       result="result1" />
    <feComposite
       in="SourceGraphic"
       id="feComposite8"
       in2="result1" />
  </filter>
  <filter
     x="-0.1"
     y="0"
     width="1.2"
     height="1"
     id="orange">
    <feFlood
       flood-color="#ff7f2a"
       id="feFlood11"
       result="result1" />
    <feComposite
       in="SourceGraphic"
       id="feComposite13"
       in2="result1" />
  </filter>
  <sodipodi:namedview
     pagecolor="#ffffff"
     bordercolor="#666666"
     borderopacity="1"
     objecttolerance="10"
     gridtolerance="10"
     guidetolerance="10"
     inkscape:pageopacity="0"
     inkscape:pageshadow="2"
     inkscape:window-width="1920"
     inkscape:window-height="1018"
     id="namedview17973"
     showgrid="false"
     inkscape:zoom="1.8391304"
     inkscape:cx="230"
     inkscape:cy="-30.992908"
     inkscape:window-x="-8"
     inkscape:window-y="-8"
     inkscape:window-maximized="1"
     inkscape:current-layer="svg17971" />
  <path
     style="fill:#e6e6e6"
     d="m 140.85381,359.90678 c -9.50634,1.81568 -15.89158,5.04214 -24.32256,-1.03178 -3.69152,-1.44912 -5.15333,6.03749 -7.91818,8.53731 -4.96566,7.59968 -11.590505,14.13173 -19.45682,18.46269 -6.958581,13.87045 -19.510758,22.94349 -30.625,33.15625 -4.785645,4.1183 -4.141461,11.89074 1.375,14.9375 8.502507,6.04082 21.10944,7.83026 25.625,18.28125 5.619799,5.58814 13.935658,0.42791 19.49615,-2.61601 13.06466,-6.88583 23.22026,-18.30174 36.3476,-25.22774 5.77842,-3.66192 12.93666,-4.92784 16.84375,-10.9375 6.25629,-6.36028 15.1941,-8.47741 23.375,-10.8125 12.78548,-11.6477 30.16598,-15.19116 46.15625,-19.8125 3.8396,-1.62961 5.34711,-7.44696 1.0625,-9.40625 -8.84076,-4.86804 -20.09188,-3.87296 -28.90625,-8.03125 -16.37412,-3.57916 -30.45797,-5.78806 -39.54052,-5.9259 -3.74602,-0.0914 -12.98597,-0.82001 -19.51192,0.42643 z"
     id="path533102"
     inkscape:connector-curvature="0"
     sodipodi:nodetypes="sccccccccccccccs"
     onmouseover="changeColorOver('path533102')"
     onmouseout="changeColorOut('path533102')" />
  <path
     style="fill:#e6e6e6"
     d="m 302.125,213.34375 c -7.31511,0.70345 -5.76359,9.48891 -9.5922,14.57661 -3.83963,5.10235 -10.35246,2.27328 -15.22577,4.92967 -13.49428,7.3556 -14.02856,25.69202 -21.68203,37.24372 -11.08477,15.83361 -32.14239,28.22853 -44.17521,43.01681 -2.76702,3.40066 -8.05186,8.39653 -9.76884,13.49611 -3.37236,10.01618 -0.69151,18.03996 -2.64488,25.86336 -1.07153,4.29158 -1.59804,5.60605 -3.8318,9.05448 6.76562,2.46927 20.39525,7.2655 28.35823,9.10049 5.35729,1.23453 9.98117,3.60992 10.75,9.96875 16.7723,-10.83127 39.48536,4.84748 56.5,-4.53125 15.33495,-2.28118 33.11165,-9.39349 47.25,0.25 3.58433,1.69515 5.51788,8.18655 9.34375,7.21875 11.06753,-6.16971 26.83171,-2.61243 35.05219,-13.91964 0.99771,-2.19353 -4.06267,-3.50843 -4.92719,-6.17411 -3.14541,-7.02415 4.74019,-12.62849 7.15625,-18.65625 2.69786,-3.57462 0.36033,-6.81309 -1.5625,-9.9375 -5.83615,-14.62125 7.60146,-30.38456 -0.125,-44.75 -3.82127,-3.35041 -6.5409,-8.69323 -4.125,-13.6875 2.21856,-6.5575 9.36376,-15.00957 3.21875,-21.46875 -2.45143,-1.27273 -3.23627,-2.89731 -2.625,-5.65625 0.11037,-12.37443 -12.51723,-19.98078 -23.75,-19.8125 -7.30143,-0.2336 -15.18584,0.77287 -20.4375,6.09375 -6.59385,4.99417 -15.05196,0.16952 -18.53125,-6.1875 -4.06298,-5.94945 -5.86647,-16.87351 -14.625,-16.03125 z"
     id="path533103"
     inkscape:connector-curvature="0"
     sodipodi:nodetypes="ssscssscscccccccccccccccs"
     onmouseover="changeColorOver('path533103')"
     onmouseout="changeColorOut('path533103')" />
  <path
     style="fill:#e6e6e6"
     d="m 125.01962,360.78675 c -21.12459,-2.68532 -18.37341,-23.25719 -8.21064,-34.46582 -9.74501,-5.61141 -36.890722,-8.13097 -20.719289,-25.27563 13.384439,2.124 1.377871,-7.51818 3.013131,-9.86888 27.737658,-3.16671 24.883138,-22.49608 40.897668,-33.35291 13.80599,-9.35957 28.81648,-14.45811 41.94104,-24.3047 7.47338,-6.37825 11.65431,-16.7759 21.42569,-17.73134 4.41086,-0.43129 9.1565,3.46514 12.25536,3.56326 0.50364,3.84679 0.4856,6.70281 0.75308,12.07252 1.1019,22.15571 28.10264,21.22004 45.71311,21.48195 -6.55122,21.46517 -17.20238,28.90408 -30.77035,39.84425 -10.80533,8.71259 -19.27609,18.16292 -28.30485,29.98294 -7.63588,9.99653 1.25851,25.28775 -8.255,38.6738 -17.80628,-0.78069 -38.8582,-4.76477 -49.86234,-3.12092 -11.00414,1.64384 -13.33491,3.33305 -19.87661,2.50148 z"
     id="path533124"
     inkscape:connector-curvature="0"
     sodipodi:nodetypes="scccscscscssccs"
     onmouseover="changeColorOver('path533124')"
     onmouseout="changeColorOut('path533124')" />
  <path
     style="fill:#e6e6e6"
     d="m 204.03125,10.28125 c -8.34291,0.773938 -15.22993,6.571915 -23.46875,7.625 -3.81963,9.95768 -10.79174,22.200694 -22.8125,22.25 -6.73858,-2.106602 -7.00151,-13.156127 -15.21875,-12.46875 -8.42396,-0.330957 -13.649,7.489687 -15.25,14.84375 -3.44438,11.082172 -2.83113,25.10058 -13.15625,32.65625 -10.81427,11.824527 -12.98084,29.50378 -9.96875,44.6875 3.9069,7.5081 -1.46909,17.38209 5.21875,23.875 2.92842,4.43876 10.89102,2.43966 11.46875,8.46875 -0.84467,4.65292 -7.68087,4.22059 -10.875,2 -5.55295,-5.88796 -13.585368,-0.3268 -17,5.0625 -3.941497,6.40554 -10.259619,11.06858 -18,11.25 -13.466529,3.89363 -19.765392,20.91395 -13.65625,33.1875 2.840162,12.19566 0.623447,25.06715 -0.3125,37.375 -1.092863,11.0045 -4.830712,21.50975 -7.15625,32.15625 0.843929,7.27638 9.575323,9.17572 15.5,7.28125 7.433647,-0.9458 16.731246,-5.45328 23.25,0.0625 0.7292,3.69065 0.375597,10.21249 5.90625,10.03125 7.06699,0.14573 19.22391,-4.79911 22.33976,-10.50303 14.82082,-27.1312 32.08622,-31.34941 53.84623,-42.61594 9.83185,-5.57503 18.44982,-20.04255 26.70702,-22.07171 8.2572,-2.02916 13.35001,4.8923 15.91871,3.10359 6.06841,-4.22572 18.80951,-6.25571 20.40703,-14.19416 2.49713,-10.27908 -3.21949,-19.73526 -5.2961,-29.5625 -1.30109,-6.15723 -3.42583,-12.82046 -0.293,-18.88202 4.71623,-10.47482 12.70645,-17.54957 19.99535,-25.93048 1.65526,-4.48865 -5.19031,-5.17081 -6.03125,-9.15625 -4.331,-9.16784 1.21439,-18.77954 6.65625,-26.03125 4.24826,-6.318651 3.50084,-15.748049 -3.40625,-19.78125 -6.11707,-5.180678 -17.53896,-8.380301 -17.3125,-18.03125 1.84797,-3.453135 4.43856,-8.087062 0.96875,-11.5 -4.45915,-8.941903 -7.2104,-20.381085 -16.84375,-25.125 -1.48363,-5.321008 -5.99875,-10.9463251 -12.125,-10.0625 z"
     id="path533123"
     inkscape:connector-curvature="0"
     sodipodi:nodetypes="ccccccccccccccccccsczscsccccccccc"
     onmouseover="changeColorOver('path533123')"
     onmouseout="changeColorOut('path533123')" />
  <path
     style="fill:#e6e6e6"
     d="m 267.75,121.71875 c -14.70137,2.88926 -24.3724,20.43278 -31.16604,28.03489 -5.24205,5.86588 -5.89934,14.06579 -4.26909,21.50884 2.24554,10.25225 6.7339,20.88671 6.80784,31.42731 0.28374,7.49255 -10.4908,11.5476 -15.36636,13.08282 -4.49146,1.41427 -3.6408,1.99565 -6.96126,3.85913 -1.1097,3.882 0.0532,13.73666 1.37682,17.74163 1.82694,5.52809 9.65596,12.51043 17.93895,13.45856 7.80082,0.89293 17.02863,1.78387 25.43257,1.19612 3.03456,-5.14152 9.80643,-22.36638 24.48782,-21.3718 2.51127,0.17012 6.66413,-2.18182 7.19526,-5.73116 2.81786,-18.83073 16.43662,-15.02373 16.08599,-28.67509 0.26008,-6.31735 -7.86399,-9.603 -6.90625,-15.625 2.02727,-4.95234 8.20088,-5.7851 11.6875,-9.40625 5.88572,-2.9015 13.92041,-0.40457 18.5,-6.28125 4.99682,-6.24962 -4.23651,-12.13967 -2,-18.8125 0.043,-7.42327 -8.40972,-11.07793 -14.9375,-9.75 -5.89882,0.79894 -12.23568,2.69607 -17.78125,-0.53125 -6.56481,-1.47992 -15.49526,2.42451 -20.5625,-2.75 -1.21629,-2.70181 1.51548,-6.23185 -1.9375,-7.9375 -1.93716,-2.07119 -4.72583,-3.61472 -7.625,-3.4375 z"
     id="path533122"
     inkscape:connector-curvature="0"
     sodipodi:nodetypes="csscscsscsscccccccccc"
     onmouseover="changeColorOver('path533122')"
     onmouseout="changeColorOut('path533122')" />
  <g
     transform="matrix(0.98695514,0,0,1.0304851,281.30576,-712.85726)"
     id="g533123">
    <text
       id="text533123-lc"
       x="-122.67094"
       y="849.59302"
       style="font-size:12px;fill:#ffffff;filter:url(#green);font-family:Sans">22</text>
  </g>
  <g
     transform="matrix(0.98695514,0,0,1.0304851,371.13281,-674.70322)"
     id="g533122">
    <text
       id="text533122-lc"
       x="-122.67094"
       y="849.59302"
       style="font-size:12px;fill:#ffffff;filter:url(#green);font-family:Sans">22</text>
  </g>
  <g
     transform="matrix(0.98695514,0,0,1.0304851,299.11804,-608.27146)"
     id="g533124">
    <text
       id="text533124-lc"
       x="-122.67094"
       y="849.59302"
       style="font-size:12px;fill:#ffffff;filter:url(#green);font-family:Sans">22</text>
  </g>
  <g
     transform="matrix(0.98695514,0,0,1.0304851,415.72814,-558.5264)"
     id="g533103">
    <text
       id="text533103-lc"
       x="-122.67094"
       y="849.59302"
       style="font-size:12px;fill:#ffffff;filter:url(#green);font-family:Sans">22</text>
  </g>
  <g
     transform="matrix(0.98695514,0,0,1.0304851,246.40889,-479.34168)"
     id="g533102">
    <text
       id="text533102-lc"
       x="-110.51232"
       y="849.59302"
       style="font-size:12px;fill:#ffffff;filter:url(#green);font-family:Sans">22</text>
  </g>
  <path
     sodipodi:type="arc"
     style="fill:#d40000;fill-opacity:1;stroke:#dd66ff;stroke-opacity:0"
     id="D533123"
     sodipodi:cx="314.82144"
     sodipodi:cy="114.75"
     sodipodi:rx="3.0357144"
     sodipodi:ry="3.0357144"
     d="m 317.85716,114.75 a 3.0357144,3.0357144 0 1 1 -6.07143,0 3.0357144,3.0357144 0 1 1 6.07143,0 z"
     transform="matrix(0.79797983,0,0,0.79797981,-68.751054,84.514375)" />
  <text
     xml:space="preserve"
     style="font-size:40px;font-style:normal;font-weight:normal;line-height:125%;letter-spacing:0px;word-spacing:0px;fill:#000000;fill-opacity:1;stroke:none;font-family:Sans"
     x="148.592"
     y="181.7243"
     id="text533123"
     sodipodi:linespacing="125%"><tspan
       sodipodi:role="line"
       id="tspan5565"
       x="148.592"
       y="181.7243"
       style="font-size:12px;fill:#666666">盈江</tspan></text>
  <path
     sodipodi:type="arc"
     style="fill:#d40000;fill-opacity:1;stroke:#dd66ff;stroke-opacity:0"
     id="D533122"
     sodipodi:cx="314.82144"
     sodipodi:cy="114.75"
     sodipodi:rx="3.0357144"
     sodipodi:ry="3.0357144"
     d="m 317.85716,114.75 a 3.0357144,3.0357144 0 1 1 -6.07143,0 3.0357144,3.0357144 0 1 1 6.07143,0 z"
     transform="matrix(0.79797983,0,0,0.79797981,7.05319,133.44257)" />
  <text
     xml:space="preserve"
     style="font-size:40px;font-style:normal;font-weight:normal;line-height:125%;letter-spacing:0px;word-spacing:0px;fill:#000000;fill-opacity:1;stroke:none;font-family:Sans"
     x="245.27229"
     y="218.52534"
     id="text533122"
     sodipodi:linespacing="125%"><tspan
       sodipodi:role="line"
       id="tspan5565-7"
       x="245.27229"
       y="218.52534"
       style="font-size:12px;fill:#666666">梁河</tspan></text>
  <path
     sodipodi:type="arc"
     style="fill:#d40000;fill-opacity:1;stroke:#dd66ff;stroke-opacity:0"
     id="D533124"
     sodipodi:cx="314.82144"
     sodipodi:cy="114.75"
     sodipodi:rx="3.0357144"
     sodipodi:ry="3.0357144"
     d="m 317.85716,114.75 a 3.0357144,3.0357144 0 1 1 -6.07143,0 3.0357144,3.0357144 0 1 1 6.07143,0 z"
     transform="matrix(0.79797983,0,0,0.79797981,-51.522817,188.22836)" />
  <text
     xml:space="preserve"
     style="font-size:40px;font-style:normal;font-weight:normal;line-height:125%;letter-spacing:0px;word-spacing:0px;fill:#000000;fill-opacity:1;stroke:none;font-family:Sans"
     x="168.23221"
     y="285.09372"
     id="text533124"
     sodipodi:linespacing="125%"><tspan
       sodipodi:role="line"
       id="tspan5565-4"
       x="168.23221"
       y="285.09372"
       style="font-size:12px;fill:#666666">陇川</tspan></text>
  <path
     sodipodi:type="arc"
     style="fill:#d40000;fill-opacity:1;stroke:#dd66ff;stroke-opacity:0"
     id="D533103"
     sodipodi:cx="314.82144"
     sodipodi:cy="114.75"
     sodipodi:rx="3.0357144"
     sodipodi:ry="3.0357144"
     d="m 317.85716,114.75 a 3.0357144,3.0357144 0 1 1 -6.07143,0 3.0357144,3.0357144 0 1 1 6.07143,0 z"
     transform="matrix(0.79797983,0,0,0.79797981,65.973762,203.73377)" />
  <text
     xml:space="preserve"
     style="font-size:40px;font-style:normal;font-weight:normal;line-height:125%;letter-spacing:0px;word-spacing:0px;fill:#000000;fill-opacity:1;stroke:none;font-family:Sans"
     x="283.66141"
     y="295.97739"
     id="text533103"
     sodipodi:linespacing="125%"><tspan
       sodipodi:role="line"
       id="tspan5565-77"
       x="283.66141"
       y="295.97739"
       style="font-size:12px;fill:#666666">芒市</tspan></text>
  <path
     sodipodi:type="arc"
     style="fill:#d40000;fill-opacity:1;stroke:#dd66ff;stroke-opacity:0"
     id="D533102"
     sodipodi:cx="314.82144"
     sodipodi:cy="114.75"
     sodipodi:rx="3.0357144"
     sodipodi:ry="3.0357144"
     d="m 317.85716,114.75 a 3.0357144,3.0357144 0 1 1 -6.07143,0 3.0357144,3.0357144 0 1 1 6.07143,0 z"
     transform="matrix(0.79797983,0,0,0.79797981,-119.40207,282.98367)" />
  <text
     xml:space="preserve"
     style="font-size:40px;font-style:normal;font-weight:normal;line-height:125%;letter-spacing:0px;word-spacing:0px;fill:#000000;fill-opacity:1;stroke:none;font-family:Sans"
     x="137.22136"
     y="377.84903"
     id="text533102"
     sodipodi:linespacing="125%"><tspan
       sodipodi:role="line"
       id="tspan5565-2"
       x="137.22136"
       y="377.84903"
       style="font-size:12px;fill:#666666">瑞丽</tspan></text>
</svg>
