<?xml version="1.0" encoding="UTF-8" standalone="no"?>
<!-- Created with Inkscape (http://www.inkscape.org/) -->

<svg
   xmlns:dc="http://purl.org/dc/elements/1.1/"
   xmlns:cc="http://creativecommons.org/ns#"
   xmlns:rdf="http://www.w3.org/1999/02/22-rdf-syntax-ns#"
   xmlns:svg="http://www.w3.org/2000/svg"
   xmlns="http://www.w3.org/2000/svg"
   xmlns:sodipodi="http://sodipodi.sourceforge.net/DTD/sodipodi-0.dtd"
   xmlns:inkscape="http://www.inkscape.org/namespaces/inkscape"
   id="svg10693"
   version="1.1"
   inkscape:version="0.48.5 r10040"
   width="100%"
   height="100%"
   viewBox="0 0 460 460"
   sodipodi:docname="5334-1.svg">
  <metadata
     id="metadata10699">
    <rdf:RDF>
      <cc:Work
         rdf:about="">
        <dc:format>image/svg+xml</dc:format>
        <dc:type
           rdf:resource="http://purl.org/dc/dcmitype/StillImage" />
        <dc:title></dc:title>
      </cc:Work>
    </rdf:RDF>
  </metadata>
  <defs
     id="defs10697" />
  <filter
     x="-0.1"
     y="0"
     width="1.2"
     height="1"
     id="green">
    <feFlood
       flood-color="#008000"
       id="feFlood6"
       result="result1" />
    <feComposite
       in="SourceGraphic"
       id="feComposite8"
       in2="result1" />
  </filter>
  <filter
     x="-0.1"
     y="0"
     width="1.2"
     height="1"
     id="orange">
    <feFlood
       flood-color="#ff7f2a"
       id="feFlood11"
       result="result1" />
    <feComposite
       in="SourceGraphic"
       id="feComposite13"
       in2="result1" />
  </filter>
  <sodipodi:namedview
     pagecolor="#ffffff"
     bordercolor="#666666"
     borderopacity="1"
     objecttolerance="10"
     gridtolerance="10"
     guidetolerance="10"
     inkscape:pageopacity="0"
     inkscape:pageshadow="2"
     inkscape:window-width="1920"
     inkscape:window-height="1018"
     id="namedview10695"
     showgrid="false"
     inkscape:zoom="1.8391304"
     inkscape:cx="230"
     inkscape:cy="230"
     inkscape:window-x="-8"
     inkscape:window-y="-8"
     inkscape:window-maximized="1"
     inkscape:current-layer="g10703" />
  <g
     id="g10703"
     transform="translate(2.8257823,-0.57089024)">
    <g
       id="g10727"
       transform="translate(251.44068,-7.7966102)">
      <path
         style="fill:#e6e6e6;fill-opacity:1;stroke:#dd66ff;stroke-width:0.97457629;stroke-opacity:0"
         d="m -85.6875,15.8125 c -4.490721,0.432252 -11.110724,4.608103 -7.510305,9.488299 3.008126,8.475247 7.697585,20.157819 -0.614695,27.074201 -5.603502,4.04054 -10.50473,10.529403 -8.375,17.875 0.17219,6.083141 4.852798,12.80649 1.5625,18.5 -4.59067,4.048359 -11.87657,4.425312 -17.53125,2.75 -7.14525,-5.897268 -4.83018,-16.559101 -6.6875,-24.65625 -0.40267,-4.087723 -1.7123,-12.122084 -7.625,-10.25 -7.24013,2.473421 -15.44877,3.599214 -21.71875,8.03125 -4.13379,5.614741 1.88446,11.688403 0.59375,17.75 -0.214,10.6459 6.60941,20.99495 4.0625,31.5625 -2.5243,2.84892 -7.30052,4.00986 -7.3125,8.65625 -1.57182,9.60447 -2.55276,19.44186 -3.9375,28.9375 4.66984,6.59589 16.57373,6.8431 17.5625,16.40625 1.42303,6.68048 3.79999,14.14575 -1.28125,19.9375 -3.64888,6.41663 -2.23158,14.21559 -3,21.21875 2.42384,7.88507 10.27473,13.21641 10.71875,21.9375 2.71295,9.5143 4.38316,20.34631 11,27.96875 4.85844,2.36678 5.5422,-0.20978 11.15088,-2.91891 17.051089,-8.2361 15.769002,-10.73086 19.81787,-3.89359 3.873245,6.37704 5.885141,12.80707 9.300651,20.0625 3.886574,8.25609 -0.860221,16.00385 0.916401,24.67526 1.478194,7.21483 11.16329,14.53333 10.657948,23.01224 -0.619827,2.66762 -1.269415,9.06527 3.34375,7.21875 6.749419,-5.33643 13.140292,-12.99407 22.71875,-12.21875 11.037381,0.32075 26.714057,7.11943 37.596715,8.54976 -2.905385,-6.96288 -5.232093,-8.72964 -8.469971,-14.9643 -2.025105,-5.5457 -6.117023,-12.59242 -2.595494,-18.27296 5.988029,-4.35074 14.8070853,3.61512 20.34375,-2.4375 3.4930295,-5.74947 -2.9809859,-11.83503 -5.6450189,-16.59407 -7.7461731,-11.595 -19.8159621,-22.07774 -19.8189131,-37.12072 -1.395485,-10.62113 1.254495,-22.37862 -3.692318,-32.22271 -3.935721,-3.71231 -7.676365,2.46843 -8.59375,5.84375 -1.668718,2.76444 -1.73843,7.83436 -4.59375,9.375 -7.319726,-5.15571 -10.977211,-14.70042 -15.75,-22.09375 -7.80653,-12.58813 -9.534008,-27.71452 -8.397564,-42.34263 -0.250322,-9.23749 -5.671579,-17.64465 -7.946867,-26.55796 -4.761122,-11.08135 -1.45136,-23.49404 -2.242597,-35.22417 C -77.530323,68.156275 -76.48423,45.345757 -75,22.75 c -0.963857,-4.847501 -6.006496,-7.438744 -10.6875,-6.9375 z"
         id="path533422"
         inkscape:connector-curvature="0"
         sodipodi:nodetypes="ccccccccccccccccccscsscccccccccccccccccc"
         onmouseout="changeColorOut('path533422')"
         onmouseover="changeColorOver('path533422')" />
      <path
         style="fill:#e6e6e6;fill-opacity:1;stroke:#dd66ff;stroke-width:0.97457629;stroke-opacity:0"
         d="m -105.81424,252.19426 c -9.58781,5.30189 -16.37028,5.89389 -18.81076,17.64949 -0.21513,6.79543 3.06411,13.14376 2.5,20.0625 0.69873,16.14722 9.53098,31.04521 6.835,47.43496 -0.25752,11.5804 -4.53956,26.232 5.13375,35.28379 2.46195,2.97994 6.24143,4.09054 9.375,5.78125 4.402277,9.19778 -2.5534,19.00135 -5.125,27.71875 -3.25504,9.12955 -2.44741,19.02424 -3.78125,28.46875 -0.66544,3.88821 2.97588,8.88206 6.90625,5.78125 2.848085,-2.05454 5.828196,-4.47902 9.6875,-2.625 10.51745,1.09899 21.942278,7.18444 32.21875,2.25 5.266679,-2.06278 7.615702,-10.43522 13.875,-9.125 5.318589,7.82288 5.090307,18.28245 7.59375,27.25 3.513393,-6.57705 9.745998,-12.40187 11.634743,-19.40486 0.538776,-13.02554 -3.933951,-25.22887 -8.759743,-37.09514 7.996007,-15.92408 7.374983,-34.267 10.25,-51.40625 5.300499,-6.56074 14.697752,-9.98258 17.625,-18.15625 0.3980957,-10.17414 -2.896246,-7.95667 -11.90625,-9.9375 -11.351433,-2.42161 -23.565294,-9.50758 -35.25,-4.90625 -6.317393,2.52784 -9.985241,10.0931 -16.84375,10.96875 -3.487706,0.0621 -2.197387,-6.34888 -2.091824,-9.76229 -0.08676,-7.09207 -8.416158,-13.31539 -10.566796,-19.95602 -2.33747,-7.21751 2.014242,-14.14263 0.47112,-21.1444 -2.122898,-9.63245 -11.437167,-27.06339 -13.083716,-28.18728 -1.382214,-0.94346 -6.236344,2.14409 -7.886774,3.05675 z"
         id="path533423"
         inkscape:connector-curvature="0"
         sodipodi:nodetypes="sccccccccccccccccccccssss"
         onmouseout="changeColorOut('path533423')"
         onmouseover="changeColorOver('path533423')" />
      <path
         style="fill:#e6e6e6;fill-opacity:1;stroke:#dd66ff;stroke-width:0.97457629;stroke-opacity:0"
         d="m 26.46875,91.9375 c -6.674359,1.49653 -14.347814,1.474074 -20.28125,4.875 -3.0173885,4.45884 1.2636932,9.34945 1.625,13.71875 -3.0536336,8.55933 -12.6893242,14.2643 -11.59375,24.25 -3.3445498,6.80492 -12.523755,7.53053 -17.71875,12.5625 -4.202171,2.45025 -4.29287,7.74533 -1.8125,11.40625 2.327085,3.31643 -4.307069,4.76222 -4.3125,8.25 -1.218437,4.92555 4.06284,9.67667 3.200765,13.76993 -6.625417,4.13744 -6.208877,12.64869 -4.138265,19.23007 3.080521,9.16507 3.504667,18.74886 2.75,28.3125 -0.201469,16.77938 9.986312,29.94035 20.1005519,43.07521 7.9567071,11.67722 7.7002167,11.57237 4.5315572,18.36318 -6.0223934,2.91437 -15.3298981,-2.10944 -19.9465351,1.27132 -2.774345,3.66765 1.411666,12.70978 3.533176,17.25904 4.625974,7.47005 8.9742468,15.17392 11.90625,23.46875 4.473667,5.73408 9.1862722,11.94623 10.375,19.4375 3.6456692,14.95349 3.9806457,33.03487 16.720833,43.59936 8.029303,8.5551 18.163973,15.48436 24.466667,25.46314 2.928134,8.63985 10.096355,14.9522 12.34375,23.96875 2.863798,5.57255 3.609658,13.26574 8.96875,17.0625 5.178005,0.28889 6.702447,-6.35693 4.9375,-10.28125 -1.923469,-17.6604 7.766361,-34.54605 20.255372,-46.34359 5.518908,-5.22024 9.339688,-12.21025 8.650878,-20.03141 1.17447,-10.0322 -3.868885,-19.40915 -3.34375,-29.21875 2.133792,-8.25349 8.42809,-14.79319 11.64382,-22.59184 8.85759,-14.19126 12.8417,-31.96676 9.16868,-48.43941 -3.84774,-6.02854 -14.96987,-1.61255 -17.59375,-8.75 -1.084971,-18.49236 -22.415989,-28.1996 -24.4375,-46.34375 -0.734016,-6.17235 4.340485,-10.35487 9.766191,-11.82364 4.754911,-1.37817 9.693192,-5.7219 8.327559,-11.08261 0.536992,-5.62625 4.458829,-13.18265 -1.4375,-17.46875 -4.204207,-2.48965 -8.390702,-4.96674 -10.533301,-9.68968 C 78.973386,173.52106 75.560561,167.35896 70.78125,162.75 67.348218,148.11605 59.763273,133.94715 48.28125,124 c -4.767511,-5.18363 -11.646674,-6.945 -17.8125,-9.375 -6.50263,-5.34438 -1.202174,-14.28994 -0.9375,-21.09375 -0.369131,-1.517919 -1.727673,-1.757659 -3.0625,-1.59375 z"
         id="path533421"
         inkscape:connector-curvature="0"
         onmouseout="changeColorOut('path533421')"
         onmouseover="changeColorOver('path533421')"
         sodipodi:nodetypes="ccccccccccccccccccccccccccccccccccccc" />
    </g>
    <path
       sodipodi:type="arc"
       style="fill:#d40000;fill-opacity:1;stroke:#dd66ff;stroke-opacity:0"
       id="D533422"
       sodipodi:cx="314.82144"
       sodipodi:cy="114.75"
       sodipodi:rx="3.0357144"
       sodipodi:ry="3.0357144"
       d="m 317.85716,114.75 c 0,1.67658 -1.35914,3.03571 -3.03572,3.03571 -1.67658,0 -3.03571,-1.35913 -3.03571,-3.03571 0,-1.67658 1.35913,-3.03571 3.03571,-3.03571 1.67658,0 3.03572,1.35913 3.03572,3.03571 z"
       transform="matrix(0.79797983,0,0,0.79797981,-112.58004,56.658673)" />
    <text
       xml:space="preserve"
       style="font-size:40px;font-style:normal;font-weight:normal;line-height:125%;letter-spacing:0px;word-spacing:0px;fill:#000000;fill-opacity:1;stroke:none;font-family:Sans"
       x="127.91624"
       y="161.89085"
       id="text533422"
       sodipodi:linespacing="125%"><tspan
         sodipodi:role="line"
         id="tspan5565"
         x="127.91624"
         y="161.89085"
         style="font-size:12px;fill:#666666">德钦</tspan></text>
    <path
       sodipodi:type="arc"
       style="fill:#d40000;fill-opacity:1;stroke:#dd66ff;stroke-opacity:0"
       id="D533421"
       sodipodi:cx="314.82144"
       sodipodi:cy="114.75"
       sodipodi:rx="3.0357144"
       sodipodi:ry="3.0357144"
       d="m 317.85716,114.75 c 0,1.67658 -1.35914,3.03571 -3.03572,3.03571 -1.67658,0 -3.03571,-1.35913 -3.03571,-3.03571 0,-1.67658 1.35913,-3.03571 3.03571,-3.03571 1.67658,0 3.03572,1.35913 3.03572,3.03571 z"
       transform="matrix(0.79797983,0,0,0.79797981,23.444052,168.41705)" />
    <text
       xml:space="preserve"
       style="font-size:40px;font-style:normal;font-weight:normal;line-height:125%;letter-spacing:0px;word-spacing:0px;fill:#000000;fill-opacity:1;stroke:none;font-family:Sans"
       x="250.30531"
       y="252.14716"
       id="text533421"
       sodipodi:linespacing="125%"><tspan
         sodipodi:role="line"
         id="tspan5565-7"
         x="250.30531"
         y="252.14716"
         style="font-size:12px;fill:#666666">香格里拉</tspan></text>
    <path
       sodipodi:type="arc"
       style="fill:#d40000;fill-opacity:1;stroke:#dd66ff;stroke-opacity:0"
       id="D533423"
       sodipodi:cx="314.82144"
       sodipodi:cy="114.75"
       sodipodi:rx="3.0357144"
       sodipodi:ry="3.0357144"
       d="m 317.85716,114.75 c 0,1.67658 -1.35914,3.03571 -3.03572,3.03571 -1.67658,0 -3.03571,-1.35913 -3.03571,-3.03571 0,-1.67658 1.35913,-3.03571 3.03571,-3.03571 1.67658,0 3.03572,1.35913 3.03572,3.03571 z"
       transform="matrix(0.79797983,0,0,0.79797981,-77.779002,261.15785)" />
    <text
       xml:space="preserve"
       style="font-size:40px;font-style:normal;font-weight:normal;line-height:125%;letter-spacing:0px;word-spacing:0px;fill:#000000;fill-opacity:1;stroke:none;font-family:Sans"
       x="180.22269"
       y="353.61127"
       id="text533423"
       sodipodi:linespacing="125%"><tspan
         sodipodi:role="line"
         id="tspan5565-6"
         x="180.22269"
         y="353.61127"
         style="font-size:12px;fill:#666666">维西</tspan></text>
    <g
       transform="matrix(0.98695514,0,0,1.0304851,253.95312,-694.65045)"
       id="g533422">
      <text
         id="text533422-lc"
         x="-122.67094"
         y="849.59302"
         style="font-size:12px;fill:#ffffff;filter:url(#green);font-family:Sans">22</text>
    </g>
    <g
       transform="matrix(0.98695514,0,0,1.0304851,389.8851,-641.23269)"
       id="g533421">
      <text
         id="text533421-lc"
         x="-122.67094"
         y="849.59302"
         style="font-size:12px;fill:#ffffff;filter:url(#green);font-family:Sans">22</text>
    </g>
    <g
       transform="matrix(0.98695514,0,0,1.0304851,290.50687,-502.48058)"
       id="g533423">
      <text
         id="text533423-lc"
         x="-110.51232"
         y="849.59302"
         style="font-size:12px;fill:#ffffff;filter:url(#green);font-family:Sans">22</text>
    </g>
  </g>
</svg>
